<?xml version="1.0" encoding="utf-8"?>
<!-- Generator: Adobe Illustrator 24.1.0, SVG Export Plug-In . SVG Version: 6.00 Build 0)  -->
<svg version="1.1" xmlns="http://www.w3.org/2000/svg" xmlns:xlink="http://www.w3.org/1999/xlink" x="0px" y="0px"
	 viewBox="0 0 500 500" style="enable-background:new 0 0 500 500;" xml:space="preserve">
<style type="text/css">
	.st0{fill:#CBCBCD;}
	.st1{opacity:0.41;}
	.st2{fill:#3FA9FF;}
	.st3{opacity:0.5;}
	.st4{fill:#CFE4DE;}
	.st5{fill:#FB375D;}
	.st6{fill:#D97E81;}
	.st7{fill:#9A475B;}
	.st8{fill:#E3A950;}
	.st9{fill:#3E2D1F;}
	.st10{fill:#611C15;}
	.st11{opacity:0.3;}
	.st12{fill:#74201D;}
	.st13{fill:#F3D35B;}
	.st14{fill:#C74444;}
	.st15{fill:#80B25A;}
	.st16{fill:#BBD18B;}
	.st17{opacity:0.6;}
	.st18{fill:#FFFFFF;}
	.st19{fill:#D06F7E;}
	.st20{fill:none;stroke:#3E2D1F;stroke-width:1.0704;stroke-linecap:round;stroke-linejoin:round;stroke-miterlimit:10;}
	.st21{fill:#FBF39B;}
	.st22{fill:none;stroke:#3E2D1F;stroke-linecap:round;stroke-linejoin:round;stroke-miterlimit:10;}
</style>
<g id="Background">
	<g id="Cloud">
		<g>
			<path class="st0" d="M135.4,410.9c23.2-5.4,46.4-10.9,71-12.2c19.9-1,33.6,0.3,52,3.2c36,5.8,68.1,9.9,105,8
				c12.3-0.3,23.2-0.3,35.5,1.3c6.6,0.6,18.9,0,23.2,4.8c6.6,7-10.9,9.9-18,11.2c-20.8,4.5-42.6,4.5-63.9,4.5
				c-21.8,0-43.1,0.6-64.8-0.6c-18.9-1.3-33.1-3.5-51.1,1.3c-27.9,7.4-63.4,7.7-92.7,4.5c-13.2-1.6-29.3-2.2-41.2-7.7
				c-5.2-2.6-22.2-9-12.3-12.2c9-2.9,25.6,2.2,35.5,1.3c9.5-1,14.2-4.8,21.3-8.3"/>
		</g>
		<g class="st1">
			<path class="st2" d="M469,208.6c-1.8-40.9-14.3-87.1-50.1-113.8c-38.7-30-75.7-14.6-115-5.9c-14.4-6.6-28.6-13.7-44.7-14.9
				c-14.5-0.8-25.9,4.5-37,11.2c-31.1-9.3-59.1-20.3-95.2-11.7C85.9,84.1,43,121.4,34,164.1c-9,37.3,9,72.9,26.9,104.9
				c2,4,3.7,7.7,5.1,11.3c-0.5,7.2-1.3,14.4-2.6,21.5c-3.9,23-5.1,40.4,10.2,53.1c3.7,80.1,93.9,63.9,161.6,57l-4.2-9.6
				c37.6,8.9,125.3,21.3,155.7-12.4c7.7-9.2,14.1-21,20-33.3c7.2-6.5,12.7-14.6,17-26.8c2.7-7.4,6.1-15.7,8.7-24.2
				C452.8,274,470.8,249.4,469,208.6z"/>
		</g>
		<g class="st3">
			<g>
				<path class="st4" d="M424,322.1c-2.6,8.5-6,16.8-8.7,24.2c-0.1,0.4-0.3,0.7-0.4,1.1c3.4-4.8,6.3-10.5,8.8-17.5
					c2-5.3,4.2-11,6.3-17C428,315.9,426,319,424,322.1z"/>
			</g>
			<g>
				<path class="st4" d="M118.8,89.9c36.1-8.6,64.1,2.5,95.2,11.7c11.1-6.6,22.5-12,37-11.2c16.1,1.2,30.2,8.3,44.7,14.9
					c39.3-8.8,76.3-24.1,115,5.9c35.8,26.7,48.3,72.9,50.1,113.8c0.8,19.8-3,35.8-9.5,50.7c11.3-19.7,19-39.8,17.8-67.1
					c-1.8-40.9-14.3-87.1-50.1-113.8c-38.7-30-75.7-14.6-115-5.9c-14.4-6.6-28.6-13.7-44.7-14.9c-14.5-0.8-25.9,4.5-37,11.2
					c-31.1-9.3-59.1-20.3-95.2-11.7c-36.3,9.4-74,39.6-88.6,75.9C56.4,120.6,88.1,97.8,118.8,89.9z"/>
			</g>
		</g>
	</g>
</g>
<g id="Objects">
	<g id="main">
		<g>
			<g>
				<path class="st5" d="M230.8,112.5c0,0,5.3-18.5,16-17.3c10.8,1.2,5.9,16.5,0,26.4c-5.9,9.8-8.6,7.9-9.4,17.7
					c-2.7-4.3-6.6-4.6-6.6-4.6s-15.4-4.6-17.1-22.8C212.1,93.8,230.8,112.5,230.8,112.5z"/>
			</g>
			<path class="st6" d="M232.1,108.9c0,0,6.8-16.2,16.5-13.3c9.7,3,1.8,19.1,1.8,19.1s-8.7,16.9-11.2,17.5
				c-2.5,0.6,19.2-32.2,5.3-32C236.8,101,232.1,108.9,232.1,108.9z"/>
			<path class="st6" d="M230.1,110.7c0,0-7.1-7.8-12-6.5c10.1,6,10.6,14.1,10.6,14.1L230.1,110.7z"/>
			<g>
				<path class="st7" d="M230.4,112c-0.1,0.6,0.3-0.2,0,0.4C230.3,112.3,230.3,112.1,230.4,112z"/>
				<path class="st7" d="M229.8,111.1c-1.6-0.4-2.8-2.5-4.5-3.1c-0.2-0.1,0.3-0.4-0.2-0.5c-1.7-0.4-3.7-2.2-5.5-3.4l0.2-0.1
					c-0.4-0.2-0.9,0.1-1.3-0.1c0-0.1,0.1-0.1,0.1-0.2c-0.1,0.3-0.8,0-1,0.2c-0.2-0.1-0.1-0.3-0.4-0.4l-0.2,0.3
					c-0.3,0.4-0.7,0.4-1.1,0.6c-0.4,0.1-0.9,0.4-1.1,0.9c0-0.1,0-0.2-0.1-0.2c-0.8,1.5-1,3.5-0.8,5.3c-0.1-0.1-0.3-0.1-0.4,0
					c0.3,0.1,0.4,0.6,0.4,1.1c-0.3,0.2,0.3,0.8,0.2,1.4l-0.1,0c0.3,0.4-0.1,0.6,0.3,0.9l-0.2,0.3c0.4,0.1-0.1,0.6,0.1,0.9l0.1,0
					c0.1,0.3,0,0.5,0.1,0.8l0,0c0.3,0.6,0.2,1.1,0.4,1c-0.2,0.3-0.3-0.6-0.5-0.1c0.2,0.5,0.4,1.1,0.6,1.6l0.7,1.6
					c0.4,1.1,0.9,2.1,1.4,3.1c0,0.3,0.1,0.5,0,0.6c0.2,0.1,0.5,0.7,0.7,0.7c0-0.1-0.1,0.2,0,0.3c0.1,0.4,0.5,0.1,0.6,0.6
					c-0.2-0.1-0.3-0.1-0.3,0.1c0.4,0.2,0.7,0.6,1,0.9c-0.1,0-0.2-0.1-0.2,0c0.5,0.2,0.5,0.8,0.9,0.9l-0.2,0c0.3,0.7,0.4-0.1,0.7,0.4
					c-0.1-0.1-0.2,0-0.2,0.1c0.6,0.1,1.1,0.9,1.6,1.2c0,0-0.1,0-0.1,0c0.5,0.4,0.8,0.9,1.4,1.2c0.1,0.2-0.3,0.4,0.2,0.7
					c0.2-0.4,0.9,0.5,0.8-0.1c0.4,0.4,1,1,1.3,1.1c-0.3,0,0,0.6-0.4,0.4l0.2,0.4c-0.1,0.1-0.3-0.2-0.3,0c0.2,0.1,0.8,0.3,0.9,0.5
					c0.5,0,1-0.3,1.5,0c-0.3,0,0,0.5-0.2,0.5c0,0,0.3-0.1,0.5-0.2c0.3-0.1,0.5-0.2,0.5-0.2c0.2,0.1-0.1,0.3,0.2,0.4
					c0-0.1,0.2-0.1,0.3-0.2c0.1,0.1,0.8,0.3,0.8,0.7c0,0.2-0.3-0.1-0.2,0.2c0.4,0.2,0.4,0,0.8,0.2l0,0.1c0.2,0.2,0.7,0.1,0.5-0.2
					c-0.2-0.1,0,0.3-0.2,0.1c0.1-0.1,0.3-0.1,0.5-0.1c0.2,0,0.2,0,0.5,0c-0.2,0-0.1,0.2-0.2,0.3c0.6-0.2,1.2-0.2,1.8-0.1
					c0.1-0.2-0.3,0.3-0.4,0.1c0.7,0.5,1.7,0.3,2.1,1.1c-0.1,0,0.1-0.3,0-0.2c0.3,0.3,0.2,0.5,0.4,0.6c0,0.1,0,0.1,0.2,0.1
					c0.1,0,0.2,0,0.2,0c0.1-0.1,0,0.1-0.1,0c0.1,0,0.3,0.1,0.5,0.2c0.2,0.1,0.4,0.3,0.5,0.7c0-0.2,0-0.5,0-0.4l0.1,0.5
					c0,0.1,0.1,0.1,0.1,0.2c0,0,0,0.1,0.1,0.1c0,0,0,0,0-0.1c0,0,0,0,0.1,0.1c0-0.2-0.1-0.2-0.1-0.1c0,0.1,0,0.3,0,0.2
					c-0.1,0-0.2-0.1-0.1-0.1c0.1,0.3,0.1,0.1,0.1,0c0-0.1,0-0.1,0.1,0.2c0,0,0-0.4,0-0.5c0-0.2,0-0.3,0.1-0.2c0,0,0.2,0.8,0.2,0.5
					c0-0.5-0.1-0.3-0.1-0.7l0-0.3c-0.2-0.3,0.1-0.2-0.1-0.4c0.2,0.2,0-0.5,0.3-0.2l0.2,0.3c0-0.2-0.2-0.5-0.3-0.7c0,0,0.1,0,0.1,0
					c-0.4-0.3,0.1-0.3-0.1-0.8c0.2-0.3,0.3-0.6,0.4-0.9c0.1-0.3,0.3-0.6,0.4-0.6c0-0.5,0.1-0.9,0.4-1.3c0,0.1-0.1,0.2,0,0.3
					c0.2-0.2,0.2-0.3,0.3-0.6c0,0.1,0.5-0.4,0.8-0.5c0.1-0.4-0.1-0.5-0.2-0.6c0.5,0,0.5-1.1,1.1-1.2c0,0.1-0.2,0.6,0.1,0.4
					c0.5,0.1,0.2-0.8,0.7-1.1l-0.3-0.2c0.3,0,0.4-0.8,0.6-0.5c0-0.2,0.5-0.4,0.2-0.6c0.8-0.5,1.2-1.8,2-1.8c0-0.1,0.3-0.4,0.1-0.4
					c-0.3,0-0.1,0.3-0.2,0.3c0.1-0.1,0-0.2,0-0.2c0.2-0.2,0.4-0.3,0.4,0.1c0.5-0.4-0.1-1,0.5-1.5c0.1,0.1,0.2,0.1,0.3-0.1l0.1-0.5
					c0.3-0.4,0.4,0,0.6,0.1c0.1-0.3,0.3-0.6,0.2-0.8l0.4-0.1c-0.3,0.1,0-0.3,0-0.4l0,0.2c0.1,0,0.2-0.3,0.3-0.5
					c-0.1-0.1-0.4,0.2-0.5,0.3c0-0.2,0.1-0.4,0.1-0.6c0.2,0.2,0.4-0.3,0.5-0.5c0.2-0.2,0-0.4,0-0.4c0.1,0.1,0.2-0.3,0.3-0.1
					c0,0.1-0.2,0.1-0.2,0.3c0.2-0.1,0.3,0.1,0.4-0.3c0-0.3-0.4-0.2-0.1-0.6c0,0.2,0.1,0.2,0.1,0.4l0.3-0.3l-0.2-0.2
					c0.1,0,0.1,0,0.1,0c-0.1-0.3,0.3-0.7,0.1-0.9c0.1-0.2,0.4-0.3,0.5-0.5l0,0.1c0.2-0.2,0.3-0.6,0.3-0.8l0,0
					c0.1-0.1,0.2-0.5,0.2-0.7c0.3-0.3,0.8,0.3,0.7-0.2c0.2-0.4-0.1-0.8-0.3-0.7c0.4-0.6,0.4-1.5,1-1.9c0-0.1-0.1-0.1-0.1-0.3
					c0.5-0.9,0.5-2.1,1.2-2.7c0,0.3,0.2,0.1,0.3,0.2c-0.1-0.3,0.3-0.2,0-0.4c-0.2-0.1-0.3-0.1-0.4,0.1c0.1-0.6,0.3-1.5,0.6-1.8
					c-0.1,0.1-0.2,0-0.2-0.2c0.3,0.1,0.4-0.3,0.4-0.6l-0.2-0.1l0.2-0.2c0-0.1-0.4-0.3-0.1-0.5c0.1,0,0.2,0,0.2,0
					c-0.1-0.4-0.2-0.9,0-1.3l0.3-0.2c0-0.2-0.1-0.5-0.3-0.2c0.2-0.6,0.3-1,0.5-1.2c-0.5-1.1-0.6-2.6-0.9-3.6l0.1,0
					c0-0.3-0.3,0-0.3-0.3c0.2,0,0.2-0.3,0.4-0.2c0-0.5-0.4-0.4-0.6-0.5c-0.2,0.1,0.2,0.1,0,0.2c-0.1,0-0.1-0.5-0.4-0.4
					c0-0.2,0.2-0.2,0.4-0.3l-0.2-0.1c0.1-0.5,0.8,0.2,1-0.4l-0.2-0.2c0.1-0.4,0.7,0.4,0.4-0.3c-0.3-0.2-0.7,0-0.7,0.3
					c-0.4-0.4-0.6,0.3-1,0c0-0.2,0.3,0.2,0.4,0c0-0.4-0.4-0.2-0.6-0.5c0.1,0.3-0.2,0.4-0.3,0.4c-0.1-0.3,0.3-0.2,0-0.4
					c-0.1,0.1-0.4,0.1-0.3,0.3c-0.3,0.3-0.3-0.3-0.6-0.1c0-0.3,0.6-0.5,0.3-0.8c0,0.3-0.6,0.2-0.5,0.6c-0.1-0.1-0.1-0.4,0.1-0.5
					c-0.2-0.3-0.6,0.3-0.6-0.3l-0.1,0.3c-0.1-0.1-0.1-0.2-0.2-0.4c-0.2-0.1-0.7,0.3-0.7-0.2c-0.1,0-0.6-0.1-0.4,0.3
					c0.3,0.2,0.4-0.2,0.5,0.3c-0.2-0.4-0.4,0-0.6,0.1l0-0.2c-0.1,0.1-0.3,0-0.4,0.2c0.1-0.1,0-0.2,0-0.3l-0.1,0.3
					c-0.4,0.1-0.1-0.5-0.5-0.4l0.3-0.2c-0.1,0-0.2-0.2-0.4-0.1c-0.1,0.2-0.2,0.5-0.2,0.7c-0.2,0.1-0.1-0.3-0.3,0
					c0,0,0.3-0.3,0.3-0.3c0-0.1-0.2-0.4-0.5-0.3c-0.2,0.1-0.4,0.5-0.1,0.6c-0.1,0-0.4-0.1-0.3-0.3c-0.3,0.2,0.1,0.2-0.2,0.5
					c-0.1-0.1-0.6-0.3-0.8-0.4c0,0,0.1-0.1,0.1-0.3c0.1-0.1,0.1-0.2,0.1-0.2c0,0-0.2,0.1-0.2,0.1c0.2-0.4-0.2-0.2-0.1-0.6
					c-0.2,0-0.3,0.2-0.4,0.3c0.6,0.4-0.3,0.9,0,1.3c-0.5,0.4-0.8-1-1,0.1c0.1,0.1,0,0.6,0.3,0.2c-0.3,0.1,0,0.6-0.5,0.6
					c0.2-0.4-0.5-0.2-0.2-0.8c0,0.2,0.3,0,0.3-0.1c-0.2-0.1-0.2-0.5-0.5-0.2c-0.2,0.2-0.5,0.4-0.3,0.6c0.1,0.2,0.3-0.2,0.3,0.1
					c-0.3,0.4-0.6,0-0.5,0.6c0.2-0.2,0.4,0,0.5,0.2c0,0-0.2,0.3-0.2,0.3l0-0.2c-0.5,0.2,0,0.4-0.4,0.7l-0.4-0.1
					c-0.1-0.4,0.7-0.4,0.3-0.8c-0.3,0.2-0.3,0.5-0.6,0.6c0-0.1,0.1-0.2,0.1-0.3c-0.1,0.1-0.6-0.4-0.7,0.3c-0.1,0.3,0.1,0.2,0.2,0.3
					c-0.4,0.5-0.4,0.7-0.6,1.1c-0.2-0.3-0.5,0.5-0.4-0.1c0.3,0,0.8-0.7,0.8-1.1c-0.4-0.2,0.4-0.3,0.2-0.7c-0.4,0.3-0.6,0-0.8-0.2
					c-0.1,0.1-0.1,0.3-0.2,0.4c0.1,0.2,0.2,0.1,0.4,0.3c-0.4,0.3-0.7,0.9-0.7,1.3c-0.2,0-0.3-0.2-0.2-0.4c-0.4,0.6-0.8,1.1-1.3,1.6
					c0.5-0.1-0.3,0.7,0.1,0.7c0.3-0.2,0.6-0.3,0.7,0c-0.1,0.2-0.1-0.1-0.2-0.1c0,0.4-0.5,0.1-0.4,0.6c0.2-0.6-0.3-0.4-0.5-0.7
					c-0.1,0.5-0.2-0.2-0.4,0.2c-0.1,0.5-0.3,1.1-0.5,1.6c-0.6,0.4-0.8,1.4-1,2c-0.3,0.2-0.5-0.2-0.7,0.1c-0.2,0.4,0.4-0.1,0.1,0.4
					l0-0.1c0,0.2-0.7,0.9-0.3,1.3l-0.3-0.4c-0.1,0.1,0,0.2,0,0.3c-0.1-0.1-0.3,0-0.3-0.2c-0.4,0.2-0.3,0.7-0.4,1.1l0.3-0.1
					c-0.1,0.7-0.5,1-0.6,1.7l-0.2-0.1l0,0.4c-0.2-0.2-0.4,0.1-0.3,0.4l-0.1-1.2c0.2-0.2,0.1,0.4,0.4,0.3c0.2-0.1,0.4-0.7,0.2-0.8
					c-0.1,0.2-0.1,0.2-0.1,0.4c-0.3-0.1-0.2-0.4-0.3-0.7c0,0.1-0.2,0.2-0.1,0.3c0-0.3,0-0.5,0.2-0.9c0,0.3,0.2,0,0.3,0.1
					c-0.2-0.2-0.2-0.6,0.1-1c0.4-0.2,0.2-1,0.5-1.5c0.1,0.4,0.2,0.8,0.1,1.1c0.3-0.3,0.2-0.4,0.4-0.6c-0.1-0.3-0.3-0.5-0.2-1
					l0.2,0.1c0.1-0.4-0.1-0.6,0.2-1.1c0.5-0.8,1-1.6,1.4-2.2l0.2,0.1c-0.1-0.6,0.6-1.2,0.8-1.8c0.7-0.6,1.1-1.7,1.6-1.8
					c0.9-1.3,1.9-2.4,3.3-3.2l-0.1,0.4c0.1-0.4,0.2,0.1,0.5-0.1c-0.4-0.1,0.2-0.5,0.3-0.8c0.7-0.1,1.5-0.7,2.1-1.1l0.1,0.2
					c0.3-0.3,0.6-0.4,1-0.4c0.4,0,0.8,0,1.2,0.1c0.1,0.1,0.2,0.3,0.5,0.3c0.4-0.3,0.7-0.3,1.3-0.5c0.2,0,0.5,0.1,0.8,0.2
					c0.3,0.1,0.6,0.3,0.8,0.4c0.9,0,1.8,0.4,2.6,1c0.8,0.6,1.5,1.5,2.1,2.5l-0.1,0.3c0.7,0.9,1,2.1,1.1,3.3c0.1,1.2,0,2.2,0.1,3.1
					l-0.4-0.2c-0.2,0.5,0,1.2,0.3,1.1c-0.2,0.5,0,1.4-0.4,1.6c-0.2,0.5,0,0.7,0,1.2c-0.4,1-0.5,1.4-0.7,2.4l0.1-0.2
					c-0.1-0.1-0.2-0.2-0.3,0c0,0.4-0.5,1.3,0,1.1c-0.6,0.9-0.6,2.4-1.3,3.2c0.1,0,0.1,0.2,0.1,0.4c-0.3,0.9-1,1.6-1.1,2.4
					c-0.1,0.1-0.1-0.3-0.3,0c-0.1,0.2,0.1,0.1,0.1,0.4c-0.4,1.5-1.6,2.5-2.2,3.7c-1,2.2-2.4,4.2-3.8,5.9l-0.1-0.1
					c-0.2,0.9-1.3,1.1-1.3,1.9c-0.2,0.1-0.4,0.5-0.5,0.2c-0.2,0.6-1.2,1-1.4,1.9c0.1,0,0.1-0.1,0.1-0.2c-0.6,0.5-0.8,1.2-1.3,1.7
					c0-0.1,0-0.2,0-0.3c-0.3,0.2,0,0.9-0.4,0.7c-0.1,0.2,0.2,0.2,0.2,0.1c-0.2,0.4-0.4,0.8-0.5,1.2l-0.1,0.3l0,0.2l0,0.3l-0.2,1.2
					c-0.1,0.4-0.1,0.9-0.1,1.4l-0.1,1.5c-0.1,1-0.1,2.1-0.2,3.1c0,0.2-0.1,0.3-0.1,0.4c0,0-0.1,0.1-0.1,0c-0.7-1.5-0.1-1.2-0.9-1.7
					c-0.1-0.3,0,0.3,0,0.1c-0.2-0.2-0.4-0.7-0.6-1.2c-0.2-0.5-0.3-0.8-0.5-0.8c0.2,0.7-0.2,0-0.2,0.3c-0.5-0.8-0.8-1.3-1-1.7
					c-0.1-0.2-0.2-0.4-0.4-0.5c-0.1-0.1-0.2-0.1-0.2-0.2c-0.1-0.1-0.2-0.1-0.3-0.1l0.1-0.1c-0.8,0-1.3-0.6-2-0.3
					c-0.4-0.2-0.8-0.3-1.2-0.3l-0.3,0c-0.1,0-0.4,0-0.6-0.1c-0.3-0.1-0.6-0.2-0.8-0.3c-1-0.4-2-0.8-3-1.3c-2-1-3.8-2.2-5.5-3.7
					c-3.3-3.1-6.2-7-7.5-11.9c0-0.6,0-1-0.1-1.3c-0.1-0.3-0.2-0.6-0.4-1.2c0.1,0,0.1,0.1,0.1,0c-0.3,0-0.2-0.9-0.6-0.9
					c-0.2-0.9-0.3-1.8-0.4-2.7c-0.1-0.4-0.2-0.9-0.2-1.3c0-0.5-0.1-0.9-0.1-1.4c0.1,0.3,0.3,0.4,0.3,0.1c0,0-0.2-0.4-0.2-0.4
					l0.1-0.1c0-0.3-0.2-0.5-0.3-0.3c-0.1-1.3,0-2.6,0.4-4.1c0.1-0.4,0.3-0.7,0.4-1.1c0.2-0.4,0.4-0.7,0.7-1.1
					c0.3-0.3,0.6-0.7,0.9-0.9c0.3-0.2,0.7-0.5,1.1-0.6c1.5-0.6,2.8-0.4,3.9-0.1c1.1,0.3,2.1,0.8,3,1.2c0.8,0.6,2.1,1.2,3,1.7
					c2.4,2.2,4.2,4.3,6.8,6.3c0,0-0.2,0.1-0.6,0.1C230.8,111.5,230.3,111.4,229.8,111.1z"/>
				<path class="st7" d="M230.6,111.3c0.2,0,0.4-0.4,0.5,0C230.9,111.3,230.7,111.4,230.6,111.3z"/>
				<path class="st7" d="M236.2,103.3c0,0,0.1-0.1,0.2-0.1c-0.1,0.1,0,0.3-0.1,0.3C236.3,103.4,236.2,103.4,236.2,103.3z"/>
				<path class="st7" d="M237.7,101.4c0.1,0.1-0.1,0.6-0.3,0.9c0,0,0.1-0.2,0.1-0.4C237.6,101.6,237.7,101.4,237.7,101.4z"/>
				<path class="st7" d="M239.5,100.3c0.2,0,0.2,0.1,0,0.2C239.4,100.5,239.5,100.4,239.5,100.3z"/>
				<path class="st7" d="M239.4,99.9c0.1-0.1,0.2-0.1,0.3-0.1C239.6,99.7,239.5,100.2,239.4,99.9z"/>
				<path class="st7" d="M243,98c0.1,0,0.2-0.2,0.4-0.1C243.2,97.8,243,98.2,243,98z"/>
				<path class="st7" d="M244.6,97.2c0.1,0,0.1,0,0.1,0c0.1,0.1,0,0.2-0.1,0.2L244.6,97.2z"/>
				<polygon class="st7" points="240.4,128.5 240.5,128.2 240.6,128.3 				"/>
				<path class="st7" d="M231.5,133.7c-0.3,0.1-0.2-0.2-0.2-0.2C231.6,133.5,231.2,133.7,231.5,133.7z"/>
				<polygon class="st7" points="223.3,130.1 223.4,130.2 223.2,130.4 				"/>
			</g>
			<g>
				<path class="st5" d="M242.4,56.5c0,0,4.3-14.4,12.8-9.1c8.4,5.3-7.8,21.6-6.4,29c-3.9-1.9-19.4-13.2-19.6-17.5
					C229,54.5,231.9,48.5,242.4,56.5z"/>
			</g>
			<g>
				<path class="st5" d="M284.1,81.2c0,0,15.6-8.9,13.4,6.7c-4.1,11.3-10.9,7.2-21.6,22.8c0,0-5.4-13.1-6.8-16
					c-1.4-2.9-8.2-27.4,4.7-25.2C282.2,70.9,284.1,81.2,284.1,81.2z"/>
			</g>
			<path class="st6" d="M242.6,55.5c0,0,3.9-11.9,12.5-8.2c8.5,3.7-3.8,19.9-3.8,19.9S261.9,40.4,242.6,55.5z"/>
			<path class="st6" d="M229.8,53.1c0,0,5.8-4.4,12.5,3.3c-9.5-7-13.2,1.7-13.2,1.7S227.8,54,229.8,53.1z"/>
			<g>
				<path class="st7" d="M242,56c-0.1,0.4,0.3-0.1,0,0.3C241.9,56.2,241.8,56.1,242,56z"/>
				<path class="st7" d="M241.6,55.4c-1.2,0.1-2.1-1.4-3.3-1.5c-0.1,0,0.2-0.4-0.1-0.4c-1.2,0.1-2.7-0.9-4.1-1.4l0.1-0.1
					c-0.3-0.1-0.6,0.3-0.9,0.3c0-0.1,0.1-0.1,0-0.2c-0.1,0.3-0.5,0.2-0.6,0.4c-0.1-0.1-0.2-0.3-0.3-0.4l-0.1,0.4
					c-0.1,0.4-0.4,0.5-0.7,0.6c-0.3,0.1-0.6,0.2-0.7,0.6c0-0.1,0-0.2-0.1-0.2c-0.6,1-1.2,2.1-1.3,3.4c-0.1-0.1-0.2-0.2-0.3-0.1
					c0.3,0.1,0.2,0.5,0.3,0.8c-0.3,0.1,0.2,0.6,0.1,0.9l-0.1,0c0.3,0.3-0.2,0.4,0.2,0.6l-0.2,0.2c0.4,0-0.1,0.4,0.2,0.5l0.1,0
					c0.2,0.1,0,0.3,0.2,0.5l0,0c0.3,0.3,0.3,0.7,0.5,0.5c-0.1,0.3-0.3-0.3-0.5,0.2c1.1,1,2,2.2,3.1,3.2c0,0.2,0.1,0.3,0,0.5
					c0.1,0,0.4,0.3,0.6,0.3c0,0,0,0.2,0,0.3c0.1,0.3,0.4-0.1,0.6,0.2c-0.1,0-0.2,0.1-0.3,0.2c0.3,0,0.6,0.2,0.8,0.3
					c-0.1,0-0.1,0-0.2,0.1c0.4,0,0.4,0.4,0.7,0.5l-0.2,0.1c0.2,0.5,0.3-0.3,0.5,0.1c-0.1,0-0.1,0.1-0.2,0.1c0.5-0.1,0.8,0.4,1.2,0.6
					c0,0-0.1,0.1-0.1,0.1c0.3,0.2,0.6,0.6,1,0.7c0.1,0.2-0.3,0.4,0.1,0.6c0.2-0.3,0.6,0.3,0.7-0.2c0.2,0.3,0.6,0.8,0.9,0.8
					c-0.2,0-0.1,0.5-0.4,0.4l0.1,0.3c-0.1,0.1-0.2-0.2-0.2,0c0.1,0.1,0.5,0.2,0.6,0.3c0.3,0,0.8-0.3,1.1-0.1c-0.2,0-0.1,0.5-0.3,0.4
					l0.9-0.3c0.1,0.1-0.1,0.3,0.1,0.3c0-0.1,0.1-0.1,0.2-0.1c0,0.1,0.5,0.3,0.4,0.7c0,0.2-0.2-0.1-0.2,0.2c0.2,0.2,0.3,0,0.5,0.2
					l0,0c0.1,0.2,0.5,0.2,0.5-0.1c-0.1-0.1-0.1,0.2-0.2,0c0.2-0.1,0.5,0,0.7,0.2c-0.1,0-0.1,0.1-0.2,0.2c0.4-0.1,0.8,0.1,1.2,0.2
					c0.1-0.2-0.3,0.2-0.3,0.1c0.3,0.5,1,0.3,1.2,0.9c-0.1,0,0.1-0.3,0.1-0.2c0.2,0.2,0.1,0.4,0.2,0.4c-0.1,0.2,0.2,0.1,0.4,0.1
					c0.1-0.1,0,0.1-0.1,0c0.1,0,0.4,0.1,0.7,0.2c0.2,0.1,0.3,0.1,0.3,0.2c0.1,0.1,0.1,0.1,0.2,0.2c0-0.1,0.2-0.3,0.2-0.3l0,0.3
					c0.1,0.2,0.2,0.1,0.2,0.4c0-0.2-0.1-0.1-0.2-0.1c-0.1,0-0.3,0-0.1,0c0.1,0.3,0.2-0.3,0.2,0.1c0.1,0.1,0.2-0.2,0.3,0.1
					c0-0.1,0,0.4,0.1,0.4c0.2,0.1,0-0.1,0.1-0.2c0,0,0-0.1,0-0.1c-0.1-0.4,0.2,0.1-0.1-0.3c0.1,0.3,0.1-0.1,0.4,0.5l0.2,0.5
					c0-0.1-0.3-0.7-0.4-0.9c0,0,0.1,0.1,0.1,0.2c-0.2-0.4-0.2-0.4-0.2-0.4c0,0,0-0.1-0.1-0.3c0.1,0,0-0.4,0.3-0.2
					c-0.1-0.3-0.2-0.5-0.1-0.6c0,0,0,0.1,0.1,0.2c0.1-0.1,0-0.1,0-0.3c0.1,0.1,0.4-0.3,0.6-0.5c0-0.3-0.3-0.3-0.4-0.4
					c0.5-0.1,0-0.9,0.5-1c0,0.1,0.1,0.5,0.2,0.3c0.5-0.1-0.1-0.6,0.2-0.9l-0.4-0.1c0.3-0.1,0-0.7,0.4-0.4c-0.1-0.2,0.3-0.4,0-0.5
					c0.5-0.5,0.5-1.6,1.2-1.6c0-0.1,0.1-0.3,0-0.4c-0.2,0,0,0.3-0.1,0.3c0-0.1,0-0.2-0.1-0.2c0.2-0.1,0.2-0.3,0.4,0.1
					c0.4-0.3-0.3-0.8,0.1-1.2c0.1,0.1,0.2,0.1,0.2-0.1l-0.1-0.4c0.2-0.3,0.4,0,0.6,0.1c0.1-0.2,0.2-0.4,0.1-0.6l0.4,0
					c-0.3,0,0-0.2-0.1-0.3l0,0.1c0.1,0,0.2-0.2,0.2-0.3c-0.1-0.1-0.3,0.1-0.4,0.2c0-0.2,0-0.3,0-0.5c0.2,0.2,0.3-0.2,0.4-0.3
					c0.1-0.1-0.1-0.3-0.1-0.3c0.1,0.1,0.2-0.2,0.2,0c0,0.1-0.2,0.1-0.1,0.2c0.1,0,0.3,0.1,0.3-0.2c0-0.2-0.4-0.2-0.1-0.5
					c0,0.1,0.1,0.2,0.1,0.3l0.3-0.2l-0.2-0.1c0.1,0,0.1,0,0.1,0c-0.1-0.2,0.2-0.5,0-0.7c0.1-0.2,0.3-0.2,0.4-0.3l0,0
					c0.2-0.1,0.2-0.4,0.2-0.6l0,0c0.1-0.1,0.1-0.3,0.1-0.5c0.3-0.1,0.7,0.4,0.6,0c0.1-0.2-0.2-0.6-0.3-0.6c0.3-0.3,0.3-1,0.8-1.2
					c0-0.1-0.1-0.1-0.1-0.3c0.4-0.6,0.4-1.5,1-1.7c0,0.2,0.2,0.1,0.3,0.2c-0.1-0.3,0.3-0.1,0-0.3c-0.2-0.1-0.3-0.1-0.4,0
					c0.1-0.4,0.3-1,0.5-1.1c-0.1,0.1-0.1,0-0.2-0.2c0.3,0.2,0.4-0.1,0.4-0.4l-0.2-0.1l0.2-0.1c0-0.1-0.3-0.3-0.1-0.4
					c0.1,0,0.1,0,0.2,0c-0.1-0.3-0.2-0.7,0-0.9l0.3-0.1c0-0.1-0.1-0.3-0.2-0.2c0.3-0.3,0.3-0.6,0.6-0.7c-0.4-0.8-0.4-1.7-0.5-2.2
					l0.1,0c0.1-0.2-0.3,0-0.2-0.1c0.1,0,0.2-0.2,0.4-0.2c0.1-0.3-0.3-0.2-0.4-0.3c-0.2,0.1,0.2,0-0.1,0.1c-0.1,0,0-0.3-0.3-0.2
					c0.1-0.1,0.3-0.2,0.4-0.2l-0.2,0c0.2-0.4,0.7,0,0.9-0.4l-0.1-0.1c0.2-0.3,0.5,0.3,0.4-0.2c-0.2-0.1-0.6,0-0.6,0.3
					c-0.3-0.2-0.6,0.3-0.8,0.1c0.1-0.2,0.2,0.2,0.3,0c0.1-0.3-0.3-0.2-0.3-0.3c0,0.2-0.3,0.3-0.4,0.3c0-0.2,0.3-0.2,0.1-0.3
					c-0.1,0.1-0.3,0.1-0.3,0.3c-0.3,0.3-0.1-0.3-0.4,0c0.1-0.3,0.5-0.4,0.4-0.7c-0.1,0.3-0.5,0.1-0.5,0.6c0-0.1,0-0.3,0.2-0.4
					c0-0.3-0.5,0.3-0.4-0.3l-0.2,0.2c0-0.1,0-0.2-0.1-0.4c-0.1-0.1-0.5,0.2-0.4-0.2c-0.1,0-0.3-0.1-0.3,0.2c0.1,0.3,0.3-0.1,0.2,0.3
					c0-0.4-0.3-0.1-0.4,0l0-0.2c-0.1,0-0.2-0.1-0.3,0.1c0.1-0.1,0.1-0.2,0-0.3l-0.1,0.2c-0.3,0.1,0-0.5-0.2-0.5l0.2-0.1
					c-0.1,0-0.1-0.2-0.2-0.2c-0.1,0.2-0.2,0.5-0.3,0.7c-0.1,0.1,0-0.3-0.2-0.1l0.2-0.3c0-0.1-0.1-0.4-0.3-0.4
					c-0.1,0-0.3,0.4-0.2,0.5c-0.1,0-0.2-0.2-0.1-0.3c-0.2,0.1,0,0.3-0.2,0.4c-0.1-0.2-0.3-0.4-0.4-0.6l0.2-0.4l-0.1,0
					c0.2-0.3-0.1-0.2,0-0.6c-0.1,0-0.2,0.1-0.3,0.2c0.3,0.5-0.2,0.8-0.1,1.3c-0.3,0.2-0.4-1.2-0.6-0.3c0.1,0.1,0,0.5,0.2,0.3
					c-0.2,0,0,0.5-0.3,0.4c0.1-0.3-0.3-0.4-0.1-0.8c0,0.2,0.2,0.1,0.2,0c-0.1-0.2-0.1-0.5-0.3-0.4c-0.1,0.1-0.3,0.2-0.2,0.4
					c0.1,0.3,0.2-0.1,0.2,0.2c-0.2,0.2-0.4-0.2-0.3,0.3c0.1-0.1,0.3,0.1,0.3,0.3c0,0-0.1,0.2-0.1,0.2l0-0.2c-0.3,0,0,0.4-0.2,0.5
					c0,0-0.3-0.2-0.3-0.2c-0.1-0.3,0.5-0.1,0.2-0.5c-0.2,0.1-0.2,0.3-0.4,0.4c0-0.1,0.1-0.1,0.1-0.2c-0.1,0-0.4-0.5-0.5,0
					c-0.1,0.2,0.1,0.2,0.1,0.3c-0.3,0.3-0.2,0.5-0.4,0.7c-0.2-0.3-0.3,0.3-0.3-0.2c0.2,0.1,0.6-0.3,0.5-0.7
					c-0.3-0.3,0.3-0.1,0.1-0.6c-0.3,0.2-0.5-0.2-0.6-0.4c-0.1,0-0.1,0.2-0.1,0.3c0.1,0.2,0.2,0.2,0.3,0.4c-0.3,0.2-0.5,0.5-0.5,0.9
					c-0.2,0-0.3-0.3-0.2-0.4c-0.3,0.4-0.6,0.7-0.9,1c0.5,0.1-0.2,0.4,0.1,0.5c0.2-0.1,0.5,0,0.6,0.2c-0.1,0.1-0.1-0.1-0.2-0.2
					c0,0.3-0.4,0-0.3,0.3c0.1-0.4-0.3-0.4-0.5-0.7c-0.1,0.4-0.2-0.2-0.3,0.1c-0.1,0.4-0.2,0.8-0.3,1.1c-0.5,0.2-0.6,0.9-0.7,1.3
					c-0.2,0.1-0.4-0.2-0.6-0.1c-0.1,0.2,0.4,0,0.1,0.3l0-0.1c0,0.1-0.5,0.5-0.1,0.9l-0.3-0.3c-0.1,0,0,0.2,0,0.2
					c-0.1-0.1-0.2,0-0.3-0.2c-0.3,0.1-0.2,0.5-0.3,0.7l0.3,0c0,0.5-0.3,0.7-0.4,1.1l-0.2-0.1l0,0.3c-0.2-0.2-0.4,0-0.3,0.2l-0.2-0.9
					c0.2-0.1,0.2,0.3,0.4,0.3c0.2,0,0.3-0.4,0.1-0.6c-0.1,0.1,0,0.2,0,0.3c-0.3-0.1-0.2-0.3-0.3-0.5c0,0.1-0.1,0.2-0.1,0.2
					c-0.1-0.2,0-0.4,0.1-0.7c0,0.2,0.2,0,0.3,0.1c-0.2-0.2-0.2-0.4,0-0.7c0.4-0.1,0.1-0.7,0.4-1c0.2,0.3,0.2,0.6,0.2,0.9
					c0.2-0.1,0.1-0.3,0.3-0.4c-0.1-0.2-0.3-0.5-0.3-0.8l0.2,0.1c0.1-0.3-0.2-0.5,0-0.8c0.4-0.5,0.8-1.1,1.1-1.4l0.2,0.1
					c-0.2-0.5,0.4-0.8,0.5-1.3c0.5-0.3,0.8-1.2,1.2-1.1c0.7-0.9,1.5-1.6,2.6-1.9l-0.1,0.4c0.1-0.3,0.2,0.1,0.3,0
					c-0.3-0.2,0.2-0.4,0.3-0.6c0.5,0.1,1.1-0.2,1.6-0.4l0,0.2c0.5-0.4,1,0,1.5,0.2c0,0.1,0.1,0.3,0.3,0.4c0.4-0.3,0.5-0.2,1-0.2
					c0.3,0.1,0.7,0.5,1,0.8c1.3,0.2,2.3,1.5,3.1,3l-0.2,0.2c0.5,0.7,0.7,1.6,0.6,2.5c0,0.9-0.2,1.6-0.2,2.2l-0.4-0.2
					c-0.2,0.3-0.1,0.8,0.2,0.8c-0.2,0.3-0.1,1-0.4,1.1c-0.2,0.3,0,0.5,0,0.8c-0.4,0.6-0.4,0.9-0.6,1.5l0.1-0.1
					c-0.1-0.1-0.2-0.2-0.3-0.1c0,0.3-0.4,0.8,0.1,0.8c-0.5,0.5-0.5,1.6-1.1,2c0.1,0,0.1,0.2,0.1,0.3c-0.3,0.6-0.8,1-0.8,1.5
					c-0.1,0-0.1-0.3-0.2-0.1c0,0.2,0.1,0.1,0.1,0.3c-0.2,1-1.1,1.6-1.5,2.4c-0.5,1.5-1.3,2.9-1.9,4.2l-0.1-0.1
					c0.1,0.6-0.8,0.8-0.5,1.5c-0.1,0.1-0.2,0.4-0.3,0.2c0.1,0.5-0.6,0.9-0.5,1.5c0,0,0-0.1,0-0.1c-0.2,0.2-0.3,0.5-0.3,0.7
					c0,0.3-0.1,0.4-0.2,1c0-0.1,0-0.3-0.1-0.4c-0.2,0.3,0.3,1.2-0.2,1.1c0,0.1,0,0.2,0.1,0.2c0,0,0.1,0,0.1-0.1
					c0,1.1,0.1,2.3,0.3,3.7l-0.4,0.1c-0.2,0-0.5-0.2-0.8-0.3c-0.5-0.2-1.1-0.4-1.7-0.7c-1.4-1.1-0.1-1-1.1-1.2
					c-0.1-0.2-0.1,0.2-0.1,0.1c-0.4-0.1-0.4-0.9-0.7-0.8c0,0.4-0.2,0.1-0.3,0.2c-0.4-0.5-0.4-0.8-0.8-0.9l0.1-0.1
					c-0.6,0.1-1-0.5-1.7-0.2c-2.4-1.6-4.8-3.1-7.1-4.9c-2.1-2-4.4-3.6-6.3-6.4c-0.2-0.9-0.2-0.9-0.9-1.6c0.1,0,0.1,0,0.1-0.1
					c-0.3,0.2-0.4-0.6-0.7-0.5c-0.2-0.4-0.3-0.7-0.5-1.2c-0.2-0.4-0.2-1.1-0.3-1.5c0-0.7,0-1.5,0.1-2.2c0,0.3,0.2,0.4,0.3,0.1
					l-0.1-0.3l0.1,0c0-0.2-0.1-0.5-0.3-0.3c0.2-2,1.6-4.1,3.3-4.9c1.8-0.9,3.5-0.6,4.9-0.4c0.3,0.1,0.8,0.2,1.2,0.4
					c0.4,0.1,0.8,0.2,1.2,0.3c1.9,1.3,3.2,2.8,5.1,3.7C243.1,55.1,242.4,55.8,241.6,55.4z"/>
				<path class="st7" d="M242.1,55.6c0.2,0,0.3-0.2,0.5,0.1C242.4,55.6,242.2,55.6,242.1,55.6z"/>
				<path class="st7" d="M246.5,50.6c0,0,0.1,0,0.1,0c0,0.1,0,0.2-0.1,0.2C246.6,50.8,246.5,50.7,246.5,50.6z"/>
				<path class="st7" d="M247.5,49.6c0.1,0.1-0.1,0.5-0.2,0.6L247.5,49.6z"/>
				<path class="st7" d="M248.8,49.2c0.1,0.1,0.2,0.1,0,0.2C248.8,49.4,248.8,49.3,248.8,49.2z"/>
				<path class="st7" d="M248.7,48.9c0.1-0.1,0.2,0,0.2,0C248.9,48.8,248.8,49.1,248.7,48.9z"/>
				<path class="st7" d="M251,48.3c0,0,0.2-0.2,0.2,0C251.2,48.2,251,48.6,251,48.3z"/>
				<path class="st7" d="M252.1,48.1C252.1,48.1,252.1,48.2,252.1,48.1c0.1,0.1,0.1,0.2,0,0.2L252.1,48.1z"/>
				<polygon class="st7" points="248.7,70.5 248.7,70.3 248.8,70.4 				"/>
				<path class="st7" d="M243.4,71.5c-0.2,0,0-0.2,0-0.2C243.5,71.3,243.2,71.4,243.4,71.5z"/>
				<polygon class="st7" points="237.8,68.2 237.9,68.2 237.7,68.5 				"/>
			</g>
			<path class="st6" d="M283.1,78c0,0-3.3-13.3-13.3-8.7c-6.3,2.6-3.8,8.7-3.8,8.7S274.1,66.7,283.1,78z"/>
			<path class="st6" d="M294.3,93.6c0,0,9.1-15.9-4.5-14.6C298.2,79,294.3,93.6,294.3,93.6z"/>
			<g>
				<path class="st7" d="M284.1,80.5c-0.3,0.3,0.3,0.2-0.2,0.2C283.9,80.6,284,80.5,284.1,80.5z"/>
				<path class="st7" d="M284.1,79.6c-0.6-0.6-0.8-1.3-1.1-2.1c-0.3-0.8-0.6-1.6-1.2-2.1c-0.1-0.1,0.4-0.2,0.1-0.5
					c-0.3-0.2-0.6-0.5-0.9-0.8c-0.3-0.3-0.6-0.7-0.9-1.1c-0.3-0.4-0.6-0.8-0.9-1.2c-0.3-0.4-0.6-0.8-1-1.1l0.1-0.1
					c-0.3-0.3-0.8-0.1-1.1-0.3c0-0.1,0.1-0.1,0.1-0.2c-0.1,0.1-0.2,0-0.4,0c-0.2,0-0.3-0.1-0.4,0c-0.1-0.1,0-0.3-0.2-0.5l-0.3,0.2
					c-0.7,0.4-1.3-0.4-2-0.3c0-0.1,0.1-0.1,0.1-0.2c-1.2,0.2-2.6,0.1-3.8,0.7c0-0.1,0-0.3-0.1-0.4c0,0.3-0.3,0.5-0.6,0.8
					c-0.1-0.1-0.2,0-0.3,0.2c-0.1,0.2-0.2,0.4-0.4,0.5l0-0.1c0,0.4-0.4,0.2-0.4,0.6l-0.3,0c0.2,0.4-0.4,0.2-0.4,0.6l0.1,0
					c-0.1,0.3-0.3,0.3-0.3,0.5l0,0c-0.2,0.5-0.4,0.8-0.2,0.9c-0.3,0.1,0.1-0.6-0.3-0.4c-0.4,1.9-0.6,3.8-0.7,5.8
					c-0.1,0.2-0.2,0.4-0.3,0.4c0.1,0.2,0.1,0.7,0.2,0.9c0-0.1-0.2,0.1-0.2,0.2c-0.1,0.4,0.4,0.4,0.2,0.8c-0.1-0.1-0.2-0.2-0.3-0.1
					c0.3,0.3,0.3,0.8,0.4,1.1c-0.1-0.1-0.1-0.1-0.2-0.1c0.3,0.4,0,0.8,0.2,1.1l-0.2-0.1c-0.1,0.6,0.4,0.1,0.3,0.7
					c-0.1-0.1-0.1-0.1-0.2-0.1c0.4,0.4,0.4,1.2,0.6,1.7c0,0-0.1,0-0.1,0c0.1,0.5,0.1,1.1,0.4,1.6c0,0.2-0.4,0-0.3,0.6
					c0.3-0.1,0.3,0.9,0.7,0.5c0,0.5,0.1,1.3,0.3,1.5c-0.2-0.2-0.4,0.4-0.5,0l-0.1,0.4c-0.2,0,0-0.3-0.2-0.2c0.1,0.2,0.3,0.7,0.3,0.9
					c0.3,0.3,0.8,0.5,1,1c-0.2-0.2-0.3,0.3-0.4,0.1l0.9,0.5c0.1,0.2-0.3,0.2-0.1,0.4c0.1-0.1,0.2,0,0.3,0.1c0,0.1,0.3,0.7,0,0.9
					c-0.1,0.1-0.2-0.3-0.2,0c0.1,0.3,0.2,0.3,0.4,0.6l0,0c0,0.2,0.4,0.5,0.5,0.2c-0.1-0.2-0.2,0.2-0.2-0.1c0.2,0,0.5,0.4,0.6,0.7
					c-0.1-0.1-0.2,0-0.3,0c0.4,0.3,0.7,0.7,1,1.1c0.2-0.1-0.3,0-0.3-0.1c0.1,0.8,0.9,1.1,0.8,1.9c-0.1-0.1,0.2-0.2,0.1-0.1
					c0.1,0.3-0.1,0.4,0.1,0.6c-0.1,0.1,0.1,0.2,0.3,0.4c0.1,0.1,0,0.1-0.1-0.1c0.2,0.2,0.9,1.3,1,2c0.1-0.1,0.5,0.2,0.5,0.4
					l-0.2,0.1c-0.1,0.2,0.2,0.5,0.1,0.6c0.4,0.2-0.7-1.1-0.4-0.8c-0.1,0.2,0.6,0.4,0.3,0.5c0.1,0.3,0.5,0.5,0.4,0.9
					c0-0.1-0.4-0.1-0.3,0.1c0.2,0.4,0.1,0.1,0.4,0.4l0.2,0.2c0.2-0.1,0.1,0.4,0.3,0.1c-0.1,0.1,0.4,0.6,0,0.7l-0.3,0.1
					c0.1,0.2,0.4,0.2,0.6,0.2c0,0,0,0.1-0.1,0.1c0.4-0.2,0.2,0.5,0.5,0.5c0,0.5,0.4,1,0.2,1.3c0.2,0.2,0.5,0.5,0.5,0.6
					c0,0-0.1,0-0.2,0c-0.1,0.2,0.1,0.2,0.1,0.2c-0.1,0-0.1,0.4-0.1,0.8c0.2,0.1,0.3-0.3,0.4-0.5c-0.1,0.3,0,0.4,0.1,0.4
					c0.1,0,0.1,0,0.1,0.4c0,0.1-0.2,0.1-0.2,0.4c0,0.5,0,0.4,0.1,0.3c0.1-0.1,0.1-0.2,0.2-0.2l0-0.7c0,0.3,0.2-0.6,0.2,0.1
					c0-0.3,0.2,0,0.1-0.6c0.1,0.1,0.2-0.2,0.4-0.3c0.1-0.1,0.1-0.1,0.2-0.2c0,0,0.1,0,0.1,0c0.1,0,0.2,0,0.3,0
					c0-0.1,0.2-0.3,0.1-0.4c-0.3,0-0.1,0.3-0.2,0.3c0.1-0.1,0-0.2,0-0.2c0.2-0.1,0.4-0.3,0.4,0.1c0.5-0.2-0.1-0.9,0.5-1.3
					c0.1,0.1,0.2,0.1,0.3,0l0.1-0.5c0.3-0.3,0.4,0.1,0.6,0.3c0.1-0.2,0.3-0.4,0.3-0.6l0.4,0c-0.3,0,0-0.3,0.1-0.4l0,0.1
					c0.1,0.1,0.2-0.2,0.3-0.3c-0.1-0.1-0.4,0.1-0.5,0.1c0-0.2,0.2-0.3,0.2-0.5c0.1,0.2,0.4-0.1,0.5-0.3c0.2-0.1,0-0.4,0.1-0.4
					c0.1,0.1,0.3-0.2,0.3,0c0,0.1-0.2,0-0.2,0.2c0.2,0,0.3,0.2,0.4-0.2c0.1-0.3-0.3-0.4,0-0.5c0,0.1,0,0.2,0,0.4l0.4-0.2l-0.1-0.2
					c0.1,0,0.1,0.1,0.1,0.1c-0.1-0.3,0.4-0.5,0.3-0.8c0.1-0.2,0.4-0.2,0.5-0.3l0,0c0.2,0,0.4-0.3,0.5-0.6l0,0
					c0.1-0.1,0.3-0.3,0.3-0.5c0.3-0.1,0.6,0.7,0.7,0.2c0.2-0.2,0.2-0.7,0-0.7c0.5-0.2,0.8-1,1.4-1c0-0.1-0.1-0.2,0.1-0.3
					c0.7-0.4,1.3-1.3,2-1.2c-0.1,0.2,0.1,0.2,0.2,0.3c0.1-0.3,0.3,0.1,0.2-0.3c-0.1-0.2-0.1-0.3-0.4-0.2c0.4-0.4,1-0.8,1.3-0.8
					c-0.2,0-0.1-0.1,0-0.3c0.1,0.3,0.4,0.2,0.6-0.1l-0.1-0.2l0.2,0.1c0.1-0.1-0.1-0.5,0.2-0.4c0,0.1,0.1,0.1,0.2,0.2
					c0.2-0.3,0.3-0.8,0.7-0.8l0.3,0.1c0.1-0.1,0.2-0.4,0-0.3c0.5-0.1,0.8-0.3,1-0.2c0.4-1.1,1.2-1.8,1.9-2.5l0.1,0.1
					c0.3-0.1-0.1-0.3,0.1-0.4c0,0.2,0.3,0.1,0.3,0.4c0.3-0.2,0.1-0.5,0.2-0.8c-0.1-0.2,0,0.3-0.2,0c0-0.1,0.4-0.3,0.2-0.6
					c0.1,0,0.3,0.2,0.3,0.3l0-0.3c0.4,0,0.1,1,0.6,1l0.1-0.2c0.4,0-0.1,0.8,0.3,0.3c0-0.3-0.2-0.8-0.4-0.7c0.2-0.5-0.4-0.7-0.1-1.1
					c0.2,0-0.2,0.4,0,0.4c0.3,0,0.2-0.5,0.3-0.7c-0.2,0.2-0.3-0.2-0.3-0.4c0.2-0.2,0.1,0.3,0.3,0c-0.1-0.2,0-0.5-0.3-0.3
					c-0.3-0.3,0.3-0.3,0.1-0.6c0.3,0,0.3,0.7,0.6,0.4c-0.2-0.1-0.1-0.7-0.5-0.7c0.1-0.1,0.3,0,0.4,0.2c0.2-0.1-0.2-0.8,0.3-0.6
					l-0.2-0.2c0.1,0,0.2-0.1,0.4-0.1c0-0.1,0.1-0.3,0-0.4c0-0.1,0-0.1,0.2-0.1c0,0,0-0.1,0-0.1c0-0.1-0.1-0.2-0.2-0.1
					c-0.2,0.1,0.2,0.2-0.2,0.1c0.2,0,0.2,0,0.1-0.1c0,0-0.1,0-0.1-0.1c0,0-0.1-0.1-0.1-0.1l0.2,0c0-0.1,0-0.3-0.1-0.4
					c0.1,0.1,0.2,0.1,0.2,0l-0.2-0.1c-0.1-0.4,0.4-0.1,0.4-0.5l0.2,0.3c0-0.1,0.2-0.2,0.1-0.4c-0.2-0.1-0.4-0.2-0.6-0.3
					c-0.1-0.2,0.2-0.1,0-0.3l0.2,0.3c0.1,0.1,0.4-0.2,0.4-0.5c-0.1-0.2-0.4-0.5-0.5-0.2c0-0.1,0.1-0.3,0.3-0.2
					c-0.1-0.3-0.2,0.1-0.4-0.2c0.1-0.1,0.3-0.5,0.5-0.7l0.4,0.2l0-0.2c0.3,0.2,0.2-0.2,0.5-0.1c0-0.2-0.1-0.3-0.2-0.4
					c-0.2,0.3-0.4,0.2-0.5,0.1c-0.2-0.1-0.4-0.2-0.6-0.1c-0.2-0.4,0.9-0.7,0.1-0.9c-0.1,0.1-0.4,0.1-0.2,0.3c-0.1-0.3-0.4,0-0.4-0.3
					c0.3,0.1,0.3-0.5,0.6-0.3c-0.1,0.1,0,0.2,0,0.3c0.1-0.2,0.4-0.2,0.3-0.5c-0.1-0.1-0.2-0.4-0.4-0.2c-0.2,0.2,0.1,0.2-0.1,0.3
					c-0.2-0.2,0-0.5-0.4-0.3c0.1,0.1,0,0.3-0.2,0.4L295,82l0.1-0.1c-0.1-0.3-0.3,0.1-0.4-0.1c0,0,0-0.1,0.1-0.2
					c0-0.1,0.1-0.2,0.1-0.2c0.2-0.2,0.2,0.4,0.5,0c-0.1-0.2-0.3,0-0.4-0.3c0.1,0,0.1,0,0.2,0c0-0.1,0.2-0.7-0.2-0.6
					c-0.2,0-0.1,0.1-0.2,0.3c-0.3-0.1-0.5,0-0.7,0c0.1-0.4-0.4-0.2,0-0.5c0,0.1,0.2,0.2,0.3,0.3c0.2,0.1,0.3,0,0.5-0.1
					c0.1-0.5,0.2,0.2,0.5-0.1c-0.3-0.2-0.1-0.6,0-0.9c-0.1-0.1-0.2,0-0.3,0c-0.1,0.2,0,0.3-0.1,0.5c-0.3-0.3-0.7-0.2-1,0
					c-0.1-0.2,0-0.4,0.2-0.4c-0.5,0-1-0.2-1.4-0.2c0.3,0.5-0.5,0.1-0.3,0.5c0.2,0.1,0.4,0.4,0.3,0.6c-0.1,0,0-0.2-0.1-0.3
					c-0.2,0.2-0.3-0.4-0.5,0c0.4-0.2,0.1-0.5,0.1-0.9c-0.3,0.2,0-0.2-0.3-0.2c-0.3,0.2-0.7,0.4-1.1,0.5c-0.5-0.3-1.2,0.2-1.6,0.4
					c-0.3-0.1-0.2-0.5-0.4-0.5c-0.3,0.1,0.3,0.4-0.2,0.3l0-0.1c-0.1,0.1-0.8,0-0.8,0.6l0-0.5c-0.1,0-0.1,0.1-0.2,0.2
					c0-0.1-0.2-0.2-0.1-0.4c-0.3-0.2-0.5,0.2-0.8,0.4l0.2,0.2c-0.4,0.4-0.8,0.3-1.2,0.6l-0.1-0.2l-0.2,0.3c0-0.3-0.3-0.3-0.4,0
					l0.5-0.9c0.2,0-0.1,0.4,0.1,0.5c0.2,0.2,0.6-0.1,0.6-0.3c-0.2,0-0.2,0.1-0.3,0.2c-0.2-0.3,0.1-0.4,0.1-0.7c-0.1,0-0.2,0-0.2,0.1
					c0.1-0.2,0.3-0.3,0.6-0.5c-0.2,0.2,0.2,0.2,0.1,0.3c-0.1-0.3,0.2-0.5,0.6-0.5c0.3,0.2,0.6-0.5,1.1-0.5c-0.1,0.3-0.3,0.7-0.5,0.9
					c0.3,0.1,0.3-0.1,0.6,0c0.1-0.3,0.1-0.6,0.4-0.9l0.1,0.2c0.3-0.2,0.2-0.5,0.6-0.6c0.7-0.1,1.4-0.2,2-0.2l0,0.2
					c0.3-0.5,1-0.2,1.4-0.4c0.7,0.3,1.6,0,1.9,0.6c1.3,0.3,2.5,1.2,3.1,2.7c0,0-0.4-0.1-0.4-0.1c0.3,0.1-0.1,0.2,0.1,0.5
					c0.1-0.4,0.4,0.2,0.6,0.3c0,0.4,0.1,0.8,0.2,1.1c0.1,0.4,0.3,0.7,0.4,1l-0.2,0c0.4,0.6,0.1,1.4,0,2.1c-0.1,0.1-0.3,0.2-0.3,0.4
					c0.3,0.5,0.2,0.6,0.3,1.3c0,0.3-0.2,0.7-0.3,0.9c-0.1,0.2-0.3,0.5-0.4,0.6c-0.2,1.7-1.3,3-2,4.5l-0.2-0.1
					c-0.6,1.7-2.4,2.5-3.2,3.5l-0.1-0.5c-0.4,0.1-0.7,0.6-0.4,0.8c-0.4,0.1-0.7,0.8-1.1,0.6c-0.4,0.1-0.3,0.4-0.5,0.7
					c-0.7,0.3-0.9,0.5-1.5,0.9l0.2-0.1c0-0.1-0.1-0.3-0.2-0.2c-0.2,0.3-0.8,0.4-0.4,0.8c-0.8,0.2-1.3,1.2-2.1,1.3
					c0.1,0.1,0,0.2,0,0.4c-0.5,0.4-1.2,0.6-1.5,1.1c-0.1,0,0-0.3-0.2-0.2c-0.1,0.1,0.1,0.2,0,0.4c-0.6,0.9-1.7,1.2-2.4,2
					c-0.5,0.8-1.1,1.4-1.7,2.1c-0.3,0.3-0.6,0.7-0.8,1l-0.4,0.5l-0.1,0.1l-0.2,0.3l-0.3,0.5l0-0.1c-0.2,0.6-0.6,1-1,1.4
					c-0.4,0.4-0.7,0.7-0.9,1.5c-0.2,0.1-0.6,0.7-0.5,0.2c-0.1,0.3-0.3,0.5-0.4,0.7l-0.1,0.2l-0.1,0.1l0,0c0,0,0,0,0-0.1
					c-0.1-0.2-0.1-0.3-0.2-0.5c-0.2-0.7-0.5-1.4-0.8-1.7c0,0.1,0.1,0.2,0.1,0.2c-0.2-0.7-0.4-1.2-0.6-1.7c-0.2-0.5-0.5-1.1-0.6-1.7
					c0.1,0.1,0.2,0.3,0.3,0.2c0-0.3-0.2-0.5-0.4-0.7c-0.1-0.2-0.2-0.2,0-0.5c-0.1-0.2-0.2,0-0.2,0.1c-0.5-1.6-1.4-3.1-2.2-4.6
					c-0.2-1.3,0.7-0.5,0-1.2c0-0.1-0.2,0-0.1,0c-0.3-0.3,0.2-0.8-0.1-0.9c-0.2,0.2-0.2-0.1-0.4,0c-0.1-0.8,0-1.1-0.4-1.5l0.1,0
					c-0.6-0.4-0.8-1.3-1.4-1.5c-0.4-0.9-0.8-1.7-1.2-2.6c-0.5-1.1-0.8-1.9-1.1-2.9c-0.6-1.9-1.2-3.8-1.5-5.7c-0.3-2-0.6-3.9-0.7-5.9
					c-0.1-2-0.1-4.2,0.5-6.3c0.6-0.9,0.6-1,0.9-2.2c0,0.1,0,0.2,0.1,0.1c-0.3-0.2,0.3-0.8,0.1-1.1c0.8-1.5,2-3,3.7-3.7
					c-0.2,0.1-0.3,0.5,0,0.3l0.2-0.3l0.1,0.1c0.2-0.1,0.4-0.4,0.1-0.4c1-0.4,2-0.5,3-0.5c0.5,0,0.9,0.1,1.4,0.2
					c0.4,0.1,0.9,0.3,1.3,0.4c1.7,0.6,3.3,1.7,4.8,2.9c0.6,0.7,1.6,1.6,2.2,2.3c0.7,1.3,1.2,2.7,1.7,4c0.5,1.4,0.9,2.6,1.4,4.1
					c0,0-0.2-0.1-0.5-0.3C284.7,80.4,284.3,80.1,284.1,79.6z"/>
				<path class="st7" d="M284.5,80.3c0.1,0.1,0.4,0.1,0.3,0.4C284.8,80.5,284.6,80.4,284.5,80.3z"/>
				<path class="st7" d="M291.9,79.9c0-0.1,0.1,0.1,0.1,0.1c-0.1,0-0.2,0.2-0.2,0.1C291.9,80.1,291.9,80,291.9,79.9z"/>
				<path class="st7" d="M293.5,80.1c0,0.1-0.4,0.2-0.6,0.2c0,0,0.1-0.1,0.3-0.1C293.4,80.2,293.5,80.1,293.5,80.1z"/>
				<path class="st7" d="M294.6,81.2c0,0.2,0,0.2-0.1,0.2C294.4,81.3,294.5,81.3,294.6,81.2z"/>
				<path class="st7" d="M294.8,81c0.1,0.1,0.1,0.2,0.1,0.3C294.9,81.1,294.6,81.2,294.8,81z"/>
				<path class="st7" d="M295.7,83.5c0,0.1,0.2,0.2,0,0.3C295.9,83.7,295.5,83.5,295.7,83.5z"/>
				<path class="st7" d="M296.1,85.1c0,0.1,0,0.1,0,0.1c-0.1,0.1-0.2,0-0.2-0.1L296.1,85.1z"/>
				<polygon class="st7" points="276.1,108.3 276.1,108.3 276.1,108.6 				"/>
				<path class="st7" d="M270.4,95.1c-0.2-0.1,0.1-0.2,0.1-0.3C270.6,95,270.3,94.9,270.4,95.1z"/>
				<polygon class="st7" points="267.3,87.3 267.3,87.4 267,87.4 				"/>
			</g>
		</g>
		<g>
			<g>
				<g>
					<g>
						<path class="st8" d="M192.9,386.8c-35.2,12.7-68.2,17.6-90.7,13.4C90,397.9,76,369.5,73.7,360.9c-1.4-5.3-0.1-8.4,4-9.9
							c1.4-0.5,3-0.8,4.9-1.2c2.3-0.5,4.9-1,7.7-2c1.6-0.6,3-1.2,4.3-2c16.5-9.4,87.8-47.2,129.5-62.3c9.4-3.4,16.6-5.4,21.6-5.9
							c17.5-2,28.5,6.4,32.8,24.9c4.8,20.8-7.5,43.3-32,58.6C231,370.8,212.5,379.7,192.9,386.8
							C192.9,386.8,192.9,386.8,192.9,386.8z"/>
						<path class="st9" d="M224.7,285.3c8.8-3.2,16.2-5.3,21.3-5.9c20.2-2.3,27.9,9.7,31.1,23.5c4.8,20.7-8.7,42.4-31.3,56.6
							c-15.3,9.6-34,18.5-53.4,25.5c-31.8,11.5-65.7,17.9-90,13.3c-11.2-2.1-24.9-29.1-27.2-37.9c-1.3-4.8,0.2-6.6,3.1-7.7
							c3-1.1,7.6-1.4,12.6-3.2c1.5-0.5,3-1.2,4.5-2.1C113.9,337,184.1,299.9,224.7,285.3 M223.6,281.8
							c-41.8,15.1-113.2,53-129.7,62.4c-1.3,0.7-2.6,1.4-4.1,1.9c-2.6,1-5.2,1.5-7.5,1.9c-1.9,0.4-3.6,0.7-5.1,1.3
							c-4.9,1.8-6.6,5.8-5,12.1c2.4,9.2,16.7,38.1,29.8,40.6c22.7,4.2,56-0.7,91.3-13.4c19.7-7.1,38.3-16,53.9-25.8
							c25.1-15.7,37.7-38.9,32.7-60.6c-4.5-19.5-16.1-28.4-34.5-26.3C240.5,276.4,233.1,278.4,223.6,281.8L223.6,281.8z"/>
					</g>
				</g>
				<g>
					<path class="st8" d="M246,279.4c-29.1,3.3-128.1,55.3-150.6,68.1c-11.7,6.7-23.1,1.8-20.2,13c0.1,0.4,0.2,0.7,0.3,1.2
						c34.1-18.4,113.9-59.1,139.5-62c20.2-2.3,27.9,9.7,31.1,23.5c3.7,16.2-3.6,32.9-17.8,46.2c6.2-3.2,12-6.5,17.5-9.9
						c22.6-14.1,36-35.8,31.3-56.6C273.9,289.1,266.2,277.1,246,279.4z"/>
				</g>
				<g>
					<g>
						<path class="st10" d="M169.3,347.9c-86.9,31.4-92.5,24.7-96.6,19.9c-0.3-0.3-0.5-0.6-0.8-0.9c-5.9-5-14.1-42-13.2-46.9
							c0.9-5,5.2-14.9,7.5-17.5c1.5-1.7,9.9-5.4,21.4-10.4c3.8-1.7,7.1-3.1,8.9-4c13.9-6.7,28.7-12.2,41.5-16.8l12.7-4.6
							c2.5-0.9,4.9-1.8,7.4-2.7c8.2-3,16.4-6.6,24.3-10.1c7.9-3.5,16.1-7.1,24.3-10.1c2.2-0.8,4.4-1.7,6.6-2.5c2.6-1,5.2-2,7.9-3
							c1.7-0.6,3.5-1.2,5.2-1.8c1.2-0.4,2.5-0.8,3.8-1.3c4.7-1.6,9.6-3.4,14.7-3.1c8.7,0.4,18.5,8.5,21.3,17.6
							c0.1,0.3,10.7,34.9,10.3,39.6c-0.5,6-1.6,19.6-96.8,54.7C176.1,345.4,172.7,346.6,169.3,347.9
							C169.3,347.8,169.3,347.8,169.3,347.9z"/>
						<path class="st9" d="M221.7,240c1.7-0.6,3.4-1.2,5.2-1.8c5.8-1.8,11.9-4.6,18-4.3c7.7,0.4,17.2,7.6,19.9,16.3
							c1.1,3.7,10.6,34.9,10.2,38.8c-0.4,4.7-0.4,18-95.8,53.2c-3.6,1.3-7,2.6-10.4,3.8c-94.3,34.1-91.9,22.7-96,19.3
							c-5.2-4.4-13.4-40.3-12.6-45c0.8-4.6,4.9-14.3,7-16.6c2.1-2.3,23.8-11.1,29.9-14.1c13.4-6.4,27.4-11.7,41.4-16.7
							c4.2-1.5,8.5-3,12.7-4.6c2.5-0.9,4.9-1.8,7.4-2.7c16.5-6.1,32.2-14.2,48.6-20.2C212,243.8,216.8,241.8,221.7,240 M220.6,236.5
							L220.6,236.5c-2.6,1-5.3,2-7.9,3c-2.2,0.8-4.4,1.7-6.5,2.5c-8.3,3-16.5,6.7-24.4,10.1c-7.9,3.5-16,7.1-24.2,10.1
							c-2.4,0.9-4.9,1.8-7.4,2.7c-2.1,0.8-4.2,1.5-6.3,2.3c-2.1,0.8-4.2,1.5-6.4,2.3c-12.8,4.6-27.7,10.1-41.6,16.8
							c-1.8,0.9-5.1,2.3-8.9,4c-14.8,6.4-20.3,9-21.9,10.8c-2.7,3-7,13.5-7.9,18.4c-1.1,5.9,7.4,43.4,13.9,48.9
							c0.1,0.1,0.3,0.4,0.6,0.6c4.6,5.5,10.4,12.4,98.2-19.4c3.3-1.2,6.8-2.5,10.4-3.8c96.1-35.5,97.2-49.3,97.8-56l0-0.2
							c0.4-5-8.6-34.6-10.4-40.5c-3-9.8-13.5-18.5-22.8-18.9c-5.3-0.2-10.3,1.5-15.2,3.2c-1.3,0.4-2.5,0.9-3.8,1.3
							C224.2,235.2,222.5,235.8,220.6,236.5L220.6,236.5L220.6,236.5z"/>
					</g>
				</g>
				<g class="st11">
					<path class="st12" d="M264.7,250.3c-2.7-8.7-12.1-16-19.9-16.3c-0.5,0-1.1,0-1.6,0c4.7,3,8.9,7.8,10.5,13.1
						c1.1,3.7,10.6,34.9,10.2,38.8c-0.4,4.7-0.4,18-95.8,53.2C111,360.2,85.8,366.2,74,366.7c3.6,4.2,11.1,10.3,105.1-24.4
						c95.4-35.2,95.3-48.5,95.8-53.2C275.3,285.2,265.8,253.9,264.7,250.3z"/>
				</g>
				<g>
					<path class="st13" d="M288.9,301.4c-14,5.1-41.4-2.9-59.6-8.2c-1.7-0.5-3.3-1-4.8-1.4c-2.6-0.8-6.3-2-10.5-3.4
						c-15-5.1-37.6-12.8-46.5-9.7l-1.5,0.5l-1.2-3.9l0.5-0.8c5.4-7.6,20-14.8,31.8-20.6c2.1-1.1,4.2-2.1,6-3
						c9.6-4.9,20-9.4,30.7-13.9c1.6-0.7,2.9-1.2,4.1-1.6c6.6-2.4,9.3-1.7,14.6,1.6c12,7.7,21.5,18.2,27.4,30.1c0.6,1.2,1.6,3,2.8,5
						c5.8,10.3,10.9,19.9,9.4,25.6C291.7,299.5,290.6,300.8,288.9,301.4L288.9,301.4z"/>
					<path class="st9" d="M238.6,237.1c6.2-2.3,8.5-1.6,13.4,1.5c12,7.8,21.1,17.9,26.7,29.4c3.4,6.9,18,28.6,9.6,31.6c0,0,0,0,0,0
						c-14.9,5.4-47-4.9-63.5-9.7c-11.9-3.4-46-17.2-57.8-13.1l-0.3-1.2c6.1-8.6,26.1-17.4,37.2-23.1c9.8-5,20.5-9.6,30.6-13.8
						C236.1,238.1,237.4,237.6,238.6,237.1 M237.6,233.6c-1.2,0.4-2.5,1-4.2,1.7c-10.8,4.5-21.2,9-30.8,13.9c-1.8,0.9-3.8,1.9-5.9,3
						c-11.9,5.9-26.7,13.2-32.3,21.1l-1.1,1.5l0.6,2l0.3,1.2l1,3.5l2.9-1c8.4-2.9,31.7,5,45.6,9.7c4.2,1.4,7.9,2.7,10.6,3.4
						c1.5,0.4,3.1,0.9,4.8,1.4c18.3,5.3,46,13.4,60.4,8.2c2.7-1,3.8-3.2,4.3-4.8c1.8-6.4-3.3-16.1-9.6-27.2c-1.1-2-2.1-3.7-2.7-4.9
						c-6.1-12.3-15.8-23-28-30.9C247.8,231.8,244.7,231,237.6,233.6L237.6,233.6z"/>
				</g>
				<g>
					<path class="st13" d="M64.3,379.3c-1.7,0.6-3.3,0.3-4.6-0.8c-4.3-3.5-5.3-14.7-6.1-26.8c-0.2-2.4-0.3-4.5-0.5-5.8
						c-1.6-13.5,0.5-28.1,6-42.2c2.4-6.2,4.2-8.5,10.9-10.9c1.2-0.4,2.6-0.9,4.2-1.4c11.1-3.4,21.9-6.6,32.2-8.9
						c1.9-0.4,4.1-0.9,6.4-1.5c12.6-3,28.3-6.7,36.6-4.1l0.9,0.3l1.2,3.9l-1.4,0.5c-8.8,3.3-22.9,24.3-32.3,38.2
						c-2.6,3.9-4.9,7.3-6.7,9.6c-1,1.3-2,2.7-3.1,4.2C96.2,349.8,78.3,374.2,64.3,379.3L64.3,379.3z"/>
					<path class="st9" d="M70.5,294.6c1.2-0.4,2.6-0.9,4.2-1.4c10.4-3.2,21.5-6.5,32.1-8.9c12-2.7,32.8-8.6,42.3-5.7l0.3,1.2
						c-11.7,4.4-31.8,37.7-39.6,48.3c-10.8,14.6-31.1,43.9-46.1,49.3c0,0,0,0,0,0c-8.3,3-8.1-24-9.1-31.8c-1.6-13,0.3-27.1,5.9-41.2
						C62.8,298.8,64.3,296.9,70.5,294.6 M69.5,291.1L69.5,291.1c-7.1,2.6-9.2,5.2-11.8,11.8c-5.7,14.4-7.8,29.4-6.1,43.2
						c0.2,1.3,0.3,3.4,0.4,5.7c0.8,13,1.9,24.2,6.8,28.2c1.2,1,3.3,2.1,6,1.1c14.5-5.2,32.5-29.8,44.4-46.1c1.1-1.5,2.1-2.9,3.1-4.2
						c1.7-2.3,4-5.7,6.7-9.7c8.7-12.9,23.3-34.5,31.6-37.6l2.9-1.1l-1-3.5l-0.3-1.2l-0.6-2l-1.7-0.5c-8.7-2.7-24.6,1.1-37.3,4.1
						c-2.3,0.5-4.4,1.1-6.4,1.5c-10.4,2.3-21.2,5.5-32.3,8.9C72,290.2,70.7,290.6,69.5,291.1L69.5,291.1z"/>
				</g>
				<g>
					<g>
						<path class="st14" d="M114.6,351.9c-23.3,8.4-44.9,3.7-49.2-10.8c-4.3-14.5,10.6-32.4,34-40.9c23.3-8.4,44.9-3.7,49.2,10.8
							C152.9,325.5,137.9,343.4,114.6,351.9z"/>
						<path class="st9" d="M99.9,302c22.2-8,43.4-3.7,47.3,9.6c3.9,13.3-10.9,30.6-33.1,38.6c-22.2,8-43.4,3.7-47.3-9.6
							C62.9,327.3,77.7,310,99.9,302 M98.9,298.5c-24.1,8.7-39.4,27.6-34.9,43.1c4.6,15.4,27,20.7,51.1,12
							c24.1-8.7,39.4-27.6,34.9-43.1C145.4,295.1,123,289.8,98.9,298.5L98.9,298.5z"/>
					</g>
					<g>
						<path class="st14" d="M112.3,343.9c-19.6,7.1-37.8,3.1-41.4-9.2c-3.6-12.2,8.9-27.4,28.5-34.5c19.6-7.1,37.8-3.1,41.4,9.2
							C144.4,321.7,131.9,336.8,112.3,343.9z"/>
						<path class="st9" d="M99.9,302c18.5-6.7,36.2-3.1,39.5,8c3.3,11.1-9.1,25.6-27.6,32.3s-36.2,3.1-39.5-8
							C69,323.1,81.3,308.7,99.9,302 M98.9,298.5c-20.4,7.4-33.3,23.5-29.4,36.7c3.9,13.2,22.9,17.8,43.4,10.4
							c20.4-7.4,33.3-23.5,29.4-36.7C138.3,295.7,119.3,291.1,98.9,298.5L98.9,298.5z"/>
					</g>
				</g>
				<g>
					<g>
						
							<ellipse transform="matrix(0.928 -0.3726 0.3726 0.928 -99.9067 92.531)" class="st14" cx="189.4" cy="304.7" rx="44.3" ry="26.8"/>
						<path class="st9" d="M182.3,280.6c22.2-8,43.4-3.7,47.3,9.6s-10.9,30.6-33.1,38.6c-22.2,8-43.4,3.7-47.3-9.6
							C145.3,306,160.1,288.7,182.3,280.6 M181.3,277.2c-24.1,8.7-39.4,27.6-34.9,43.1c4.6,15.4,27,20.7,51.1,12
							c24.1-8.7,39.4-27.6,34.9-43.1C227.9,273.7,205.4,268.5,181.3,277.2L181.3,277.2z"/>
					</g>
					<g>
						
							<ellipse transform="matrix(0.9277 -0.3733 0.3733 0.9277 -98.6564 92.0073)" class="st14" cx="188.3" cy="300.8" rx="37.2" ry="22.7"/>
						<path class="st9" d="M182.3,280.6c18.5-6.7,36.2-3.1,39.5,8c3.3,11.1-9.1,25.6-27.6,32.3s-36.2,3.1-39.5-8
							C151.4,301.8,163.8,287.3,182.3,280.6 M181.3,277.2c-20.4,7.4-33.3,23.5-29.4,36.7c3.9,13.2,22.9,17.8,43.4,10.4
							c20.4-7.4,33.3-23.5,29.4-36.7C220.8,274.4,201.7,269.8,181.3,277.2L181.3,277.2z"/>
					</g>
				</g>
				<g>
					<path class="st15" d="M191.8,309.2c-1.3,0.5-2.8,0.8-4.4,1.1c-3.3,0.6-6.1-0.8-8.9-2.1c-2.1-1-4-1.9-6.1-2
						c-2-0.1-3.9,0.2-5.7,0.8c-3.5,1.3-6.4,3.9-8.8,7.9c-1.8,3.1-4.4,5.3-7.4,6.4c-2.6,0.9-5.3,0.9-7.9-0.1c-2-0.8-3.4-2-4.5-3
						c-1.6-1.4-2.5-2.2-4.9-1.6c-0.6,0.2-1.3,0.4-1.9,0.6c-1.9,0.7-3.1,1.6-3.7,2.9c-0.4,0.9-0.6,1.8-0.8,2.7c-0.3,1.5-0.7,3.3-2,5
						c-1,1.3-3.2,3.8-6.1,4.8c-2.3,0.8-4.6,0.6-6.6-0.7c-1.8-1.1-3.3-2.8-4.8-4.5c-2.3-2.5-4.2-4.7-6.7-4.4
						c-0.4,0.1-0.9,0.2-1.3,0.3c-2.6,1-4.6,3.6-6.8,6.5c-2.2,3-4.6,6.1-7.8,7.3c-2.3,0.8-4.8,0.6-7.6-0.7c-1.9-0.9-3.2-2.8-4.4-4.5
						c-1.1-1.5-2.1-3-3.1-3.1c-0.4-0.1-1,0-1.6,0.2c-1.8,0.6-4,2.5-6.4,5.2c-1.3,1.5-3.9,4.2-6.8,5.2l0,0c-2.7,1-4.5,0.1-5.6-0.7
						c-1.9-1.6-3.1-4.6-3.4-9c-0.3-4,0.9-6.3,2.2-8.6c0.3-0.5,0.6-1,0.9-1.6c1.1-2.2,1.6-4.5,2.2-7.1l0.6-2.9
						c0.8-3.9,1.9-8.7,4-11.6c1.6-2.2,3.8-3.7,6-5.2c0.9-0.6,1.8-1.2,2.5-1.8c7.1-5.7,15.5-12.2,24.7-16.1c3-1.3,6.1-2.5,9.2-3.6
						c3.5-1.3,7-2.4,10.5-3.4c3.2-0.9,6.6-1.6,9.8-2.3c3.4-0.7,6.9-1.4,10.2-2.4c1.4-0.4,2.8-0.9,4.1-1.4c1.2-0.4,2.4-0.9,3.6-1.3
						c1.2-0.5,2.4-0.9,3.6-1.3c1.8-0.6,3.3-1.1,4.7-1.6c7.8-2.3,15.7-4.2,23.4-6.1c3.7-0.9,7.4-1.8,11.1-2.8
						c1.2-0.3,2.4-0.7,3.6-1.1c4.8-1.7,9.1-4.2,13.7-6.9c1.9-1.1,3.8-2.2,5.8-3.3c6.2-3.3,17.4-9.4,27.5-13.1
						c13.1-4.7,20.6-4.1,23.2,1.8c1.2,2.9,8,7.5,13.8,10.2c0.8,0.4,1.5,0.6,2.3,0.9c2.6,0.9,5.5,1.9,7,6.5c1.1,3.2,2.3,8.2,2.7,11.3
						c0.9,8.1-4.6,14.6-10.3,16.6l-0.4,0.1c-3.2,1-6.5,1.2-9.7,1.3c-3.4,0.2-6.5,0.3-9.4,1.4c-0.4,0.1-0.8,0.3-1.1,0.5
						c-3.4,1.6-6,4.6-8.8,7.9c-3,3.4-6,6.9-10.1,8.9c-1.8,0.8-3.2,1.4-4.4,1.9c-4.4,1.6-8,1.8-11.7,0.8c-1.2-0.3-2.5-0.3-3.7,0.2
						c-1.9,0.7-3.7,2.2-5.1,4.3C199.9,304.5,196.5,307.5,191.8,309.2z"/>
					<path class="st9" d="M98.7,273.2c3.4-1.2,6.9-2.4,10.4-3.4c6.6-1.9,13.4-2.8,20-4.8c1.4-0.4,2.8-0.9,4.2-1.4
						c2.4-0.9,4.8-1.8,7.2-2.7c1.5-0.6,3.1-1.1,4.6-1.5c11.4-3.4,23-5.9,34.5-8.8c1.3-0.3,2.5-0.7,3.7-1.1
						c6.9-2.5,13.1-6.7,19.7-10.3c6.2-3.3,17.3-9.3,27.3-13c9.9-3.6,18.7-4.9,21.1,0.7c1.8,4.4,11.1,9.5,14.7,11.2
						c3.4,1.6,6.8,1.4,8.3,6.2c1,2.9,2.2,7.8,2.6,10.9c0.8,7.3-4.6,12.9-9.2,14.6c-0.1,0-0.2,0.1-0.3,0.1c-6.1,2-13.2,0.5-19.2,2.7
						c-0.4,0.2-0.8,0.3-1.3,0.5c-7.4,3.4-11.4,13.2-19,16.7c-1.5,0.7-2.9,1.3-4.3,1.8c-3.5,1.3-7,1.8-10.8,0.8
						c-1.6-0.4-3.1-0.3-4.6,0.2c-2.3,0.8-4.4,2.7-5.9,4.9c-3.4,5-6.6,8.1-11.2,9.8c-1.3,0.5-2.6,0.8-4.1,1.1
						c-5.2,0.9-9.4-3.8-14.7-4.1c-2.2-0.1-4.3,0.2-6.3,0.9c-3.8,1.4-7.1,4.3-9.6,8.6c-1.6,2.7-3.9,4.7-6.6,5.7
						c-2.2,0.8-4.6,0.9-6.9,0c-4.5-1.8-5.2-6-10.3-4.6c-0.6,0.2-1.3,0.4-2,0.6c-1.8,0.7-3.6,1.7-4.6,3.7c-1.2,2.5-0.9,5.1-2.6,7.4
						c-1.4,1.8-3.3,3.5-5.4,4.3c-1.7,0.6-3.6,0.6-5.3-0.5c-4.4-2.8-7.4-9.8-12.5-9.1c-0.6,0.1-1.1,0.2-1.6,0.4
						c-6.1,2.2-8.8,11.7-14.6,13.8c-1.8,0.6-3.9,0.6-6.4-0.7c-3.2-1.5-4.7-7.2-7.9-7.8c-0.7-0.1-1.5,0-2.3,0.3
						c-2.7,1-5.5,3.9-7.1,5.7c-1.8,2.1-4.1,4-6.2,4.8c-3.2,1.2-6.1-0.3-6.7-7.9c-0.3-4.1,1.3-6,2.8-9.1c1.4-2.8,1.9-5.5,2.6-8.7
						c0.9-4,1.9-9.6,4.1-12.6c2.1-2.9,5.6-4.7,8.2-6.8c7.7-6.2,15.6-12.2,24.3-15.9C92.6,275.5,95.6,274.3,98.7,273.2 M97.5,269.4
						c-3.1,1.1-6.2,2.3-9.2,3.6c-9.4,4-17.9,10.5-25.1,16.3c-0.7,0.6-1.6,1.2-2.4,1.8c-2.1,1.5-4.6,3.2-6.4,5.6
						c-2.4,3.2-3.5,8.3-4.4,12.4c-0.1,0.6-0.2,1.1-0.4,1.7l-0.3,1.2c-0.6,2.5-1,4.6-2,6.6c-0.3,0.6-0.6,1.1-0.8,1.6
						c-1.3,2.4-2.8,5.2-2.4,9.9c0.4,5,1.8,8.6,4.2,10.5c1.4,1.1,3.7,2.2,7,1c3.2-1.2,6.1-4,7.5-5.7c2.2-2.5,4.3-4.3,5.8-4.8
						c0.5-0.2,0.8-0.2,0.9-0.2c0.4,0.1,1.5,1.6,2,2.4c1.2,1.8,2.8,4,5.1,5.1c3.1,1.5,6,1.8,8.7,0.8c3.7-1.3,6.2-4.6,8.5-7.8
						c2-2.6,3.8-5.1,6.1-5.9c0.3-0.1,0.7-0.2,1-0.2c1.6-0.2,3,1.3,5.3,3.8c1.5,1.7,3.2,3.5,5.2,4.8c2.4,1.5,5.1,1.8,7.9,0.8
						c3.3-1.2,5.7-3.9,6.9-5.4c1.5-2,2-4.1,2.3-5.7c0.2-0.9,0.4-1.6,0.7-2.3c0.4-0.8,1.3-1.5,2.8-2c0.6-0.2,1.2-0.4,1.8-0.6
						c1.6-0.4,1.9-0.2,3.4,1.2c1.1,1,2.7,2.4,5,3.3c2.9,1.1,6,1.1,8.9,0.1c3.3-1.2,6.3-3.7,8.3-7.1c2.1-3.6,4.8-6.1,8-7.2
						c1.6-0.6,3.3-0.8,5.1-0.7c1.8,0.1,3.6,1,5.6,1.9c2.8,1.3,6,2.9,9.8,2.2c1.7-0.3,3.2-0.7,4.6-1.2c5-1.8,8.7-5,12.7-11
						c1.2-1.8,2.8-3.1,4.4-3.7c1-0.4,1.9-0.4,2.9-0.2c5.2,1.4,9.7,0.2,12.6-0.8c1.3-0.5,2.7-1.1,4.6-1.9c4.4-2.1,7.6-5.7,10.7-9.3
						c2.7-3.1,5.2-6,8.3-7.5c0.3-0.2,0.7-0.3,1-0.4c2.7-1,5.8-1.1,9-1.3c3.3-0.2,6.7-0.3,10.1-1.4c0.1,0,0.3-0.1,0.4-0.2
						c6.3-2.3,12.4-9.6,11.4-18.7c-0.4-3.7-1.9-9.1-2.8-11.8c-1.8-5.6-5.5-6.8-8.2-7.7c-0.8-0.3-1.5-0.5-2.1-0.8
						c-6-2.9-12-7.2-12.9-9.2c-4-9.3-16.3-6.1-25.2-2.9c-10.2,3.7-21.5,9.8-27.6,13.1l-0.1,0.1c-2,1.1-4,2.2-5.9,3.3
						c-4.5,2.6-8.8,5.1-13.4,6.8c-1.2,0.4-2.3,0.8-3.4,1.1c-3.7,0.9-7.4,1.8-11.1,2.8c-7.7,1.9-15.7,3.8-23.5,6.1
						c-1.4,0.4-3,0.9-4.8,1.6c-1.2,0.4-2.4,0.9-3.6,1.4c-1.2,0.4-2.4,0.9-3.6,1.3c-1.5,0.6-2.8,1-4,1.4c-3.3,1-6.7,1.7-10.1,2.4
						c-3.2,0.7-6.6,1.4-9.9,2.3C104.6,266.9,101.1,268.1,97.5,269.4L97.5,269.4z"/>
				</g>
				<g>
					<path class="st16" d="M274.4,244.3c-1.6-4.8-5-4.6-8.3-6.2c-3.7-1.8-12.9-6.9-14.7-11.2c-4.8-11.4-36.3,5.7-48.5,12.2
						c-7.8,4.2-14.9,9.2-23.4,11.4c-11.5,2.9-23,5.5-34.5,8.8c-5.4,1.6-10.6,4-16,5.6c-6.6,2-13.4,2.8-20,4.8
						c-6.5,1.9-13.1,4.3-19.5,6.9c-8.8,3.7-16.7,9.7-24.3,15.9c-2.6,2.1-6.1,3.9-8.2,6.8c-1.4,1.9-2.3,4.9-3,7.8
						c53.1,19.7,112.2-12.8,159.5-41c8.8-3.2,19.1-6.9,28.6-2.5c-10.3,3.7-15,15.2-21.4,21.4c-1.7,1.4-2.3,4.3-2.7,7.7
						c3.4-0.2,6.6-1.5,10-3.1c7.6-3.6,11.6-13.3,19-16.7c6.3-2.9,13.8-1.1,20.4-3.2c4.6-1.5,10.4-7.2,9.5-14.7
						C276.7,252.1,275.4,247.3,274.4,244.3z"/>
				</g>
				<g>
					<g>
						<g>
							<path class="st8" d="M154.5,289.2c-33.4,12.1-60,19.2-73.2,19.6c-20,0.6-34.3-9.6-40.3-28.6c-8.5-27,2.7-64.4,25.1-83.4
								c17.5-14.8,38.7-27.2,59.8-34.8c47-17,78.9-6.9,97.3,4.5c15,9.3,25.5,28.6,26.9,49.2c1.1,15.9-3.5,28.9-12.6,35.8
								C225.7,260.3,191.6,275.8,154.5,289.2C154.5,289.2,154.5,289.2,154.5,289.2z"/>
							<path class="st9" d="M126.2,163.5c32.2-11.7,67.4-13.6,96.4,4.4c28,17.3,35.2,66.4,14.1,82.3c-12.3,9.3-47.8,25-82.6,37.6
								c-29.5,10.7-58.6,19.1-72.8,19.5c-54.1,1.6-52.2-77.2-14.4-109.2C83.3,184.1,104.1,171.5,126.2,163.5 M125.4,160.6
								c-21.2,7.6-42.5,20.1-60.1,35c-11.3,9.6-20.1,23.8-24.8,40c-4.6,15.9-4.8,31.9-0.6,45.1c3.6,11.4,13.8,30.5,41.6,29.7
								c13.2-0.4,40-7.6,73.5-19.7c37.2-13.5,71.4-29,83.2-37.9c9.5-7.1,14.3-20.7,13.2-37.1c-1.4-21.2-12.3-41-27.6-50.5
								C205,153.6,172.8,143.4,125.4,160.6L125.4,160.6z"/>
						</g>
					</g>
					<g>
						<path class="st8" d="M222.6,167.9c-7.4-4.6-15.2-7.9-23.3-10c2.8,1.3,5.6,2.8,8.4,4.5c27.9,17.3,35.2,66.4,14.1,82.3
							C199,261.8,97.4,300.9,66.3,301.8c-3,0.1-5.9-0.1-8.6-0.5c6.2,4,14,6.2,23.5,6c31.1-0.9,132.7-40,155.4-57.1
							C257.8,234.3,250.5,185.1,222.6,167.9z"/>
					</g>
					<g>
						<g>
							<path class="st13" d="M58.7,234.1c-0.5,0.2-1,0.1-1.5-0.3c-1-0.7-2.3-3.2-2.4-3.9c-0.2-1.3,0.1-3,1.1-5
								c0.2-0.5,0.5-1,0.7-1.6c1.3-2.9,2.8-6.4,5.3-7.4c0.3-0.1,0.6-0.2,0.9-0.2c1.2-0.1,2.3,1.1,2.7,2c0.7,1.3,0.3,2.2,0.1,2.6
								c-2.4,4.7-3.8,7.6-5.6,11.7l-0.7,1.6L58.7,234.1z"/>
							<path class="st9" d="M62.4,217.8c0.2-0.1,0.4-0.1,0.6-0.1c0.5,0,1.6,1.2,1.3,1.7c-2.7,5.1-4,8.1-6.1,12.8
								c0,0.1-0.1,0.1-0.1,0.1c-0.5,0.2-1.8-2.4-1.8-2.7c-0.2-1.1,0.5-2.8,0.9-3.7C58.5,223.4,60.1,218.7,62.4,217.8 M61.4,214.3
								c-3.1,1.1-4.8,5.1-6.2,8.2c-0.2,0.5-0.5,1.1-0.7,1.5c-1.2,2.4-1.6,4.5-1.2,6.3c0.2,1.2,1.7,4.1,3.2,5.2
								c0.9,0.6,1.9,0.8,2.8,0.5c0.8-0.3,1.4-0.9,1.8-1.8l0.4-1c1.9-4.2,3.1-7,5.5-11.6c0.7-1.3,0.6-3-0.2-4.5
								c-0.6-1.2-2.2-3.1-4.3-2.9C62.2,214,61.8,214.1,61.4,214.3L61.4,214.3z"/>
						</g>
					</g>
					<g>
						<g>
							<path class="st13" d="M190.6,159.1l-0.2,0c-4.8,0.3-7.5,0.7-11.6,1.3l-0.9,0.1c-0.7,0.1-1.4-0.3-1.8-1.1
								c-0.8-1.8,0.7-5.1,0.9-5.3c0.4-0.6,1.1-1,1.9-1.3c0.8-0.3,1.6-0.4,2.1-0.5c0.5,0,1-0.1,1.5-0.2c3.1-0.5,6.9-1.1,9.1,1.6
								c0.9,1.1,0.6,2.9,0.5,3.3c-0.3,1.4-1,1.8-1.4,2L190.6,159.1z"/>
							<path class="st9" d="M179.4,154.6c0.6-0.2,1.4-0.3,1.8-0.4c2.7-0.3,7.4-1.6,9.3,0.8c0.3,0.4,0.2,2.1-0.2,2.2c0,0,0,0-0.1,0
								c-5.2,0.3-8,0.8-12.6,1.4c-0.7,0.1,0.4-3.1,0.5-3.3C178.4,155,178.9,154.8,179.4,154.6 M178.4,151c-1.1,0.4-2,1-2.6,1.8
								c0,0-2.5,4.3-1,7.4c0.7,1.5,2,2.3,3.4,2.1l0.9-0.1c4.1-0.6,6.8-1,11.5-1.3l0.4,0l0.4-0.1c1.2-0.4,2-1.6,2.4-3.2
								c0.1-0.7,0.5-3.2-0.9-5c-2.7-3.4-7.2-2.8-10.5-2.3c-0.5,0.1-1,0.2-1.4,0.2C180.2,150.6,179.2,150.7,178.4,151L178.4,151z"/>
						</g>
					</g>
					<g>
						<g>
							<path class="st13" d="M72.7,203l-0.4,0c-4.8-0.7-7.5-0.8-11.7-1.1l-0.9-0.1c-0.7,0-1.4-0.6-1.6-1.5c-0.6-1.9,1.5-4.8,1.6-5
								c0.3-0.3,0.7-0.5,1.1-0.7c1-0.4,2.3-0.3,3.2-0.3c0.5,0,1,0.1,1.5,0.1c3.1,0.2,7.1,0.4,8.8,3.5c0.6,1.1,0.3,2.4,0.2,2.9
								c-0.3,1-0.8,1.7-1.4,1.9L72.7,203z"/>
							<path class="st9" d="M61.3,196.5c0.8-0.3,1.9-0.3,2.6-0.2c2.7,0.3,7.5,0,9.1,2.7c0.3,0.4-0.1,2-0.5,2.1c0,0-0.1,0-0.1,0
								c-5.2-0.7-8.1-0.9-12.7-1.2c-0.7,0,0.8-2.9,1-3.1C60.9,196.7,61.1,196.6,61.3,196.5 M60.3,193c-0.6,0.2-1.1,0.5-1.6,0.9
								c0,0-3.1,3.7-2.1,7c0.5,1.6,1.7,2.7,3.1,2.8l0.9,0.1c4.1,0.3,6.9,0.4,11.6,1.1c0.5,0.1,0.9,0,1.4-0.1c1.1-0.4,2-1.5,2.4-3
								c0.3-1,0.6-2.9-0.4-4.6c-2.2-3.9-6.8-4.2-10.1-4.4c-0.5,0-1-0.1-1.5-0.1C62.5,192.5,61.3,192.6,60.3,193L60.3,193z"/>
						</g>
					</g>
					<g>
						<g>
							<path class="st13" d="M168.5,186c-0.6,0.2-1.2,0-1.7-0.4c-1.1-1.1-1.5-4.4-1.4-4.9c0.1-1.3,1-2.7,2.5-4.2
								c0.3-0.3,0.7-0.7,1.1-1.1c1.5-1.6,3.4-3.6,5.4-4.3c1-0.3,1.9-0.4,2.7-0.1c1.1,0.4,1.8,2,2,3c0.3,1.5-0.3,2.2-0.6,2.5
								c-3.7,3.3-5.7,5.4-8.8,8.6l-0.9,0.9L168.5,186z"/>
							<path class="st9" d="M175,172.8c0.6-0.2,1.3-0.3,1.8-0.1c0.5,0.2,1.2,1.8,0.8,2.1c-4,3.6-6.2,5.8-9.6,9.3c0,0,0,0-0.1,0
								c-0.5,0.2-1-3-1-3.3c0.1-1.1,1.3-2.4,2-3C170.5,176.4,172.8,173.6,175,172.8 M173.9,169.3c-2.3,0.8-4.3,3-6,4.7
								c-0.4,0.4-0.7,0.8-1.1,1.1c-1.8,1.8-2.8,3.5-3,5.3c-0.1,0.9,0.3,5,2,6.6c0.9,0.9,2.1,1.2,3.2,0.8c0.4-0.2,0.8-0.4,1.1-0.7
								l0.7-0.7c3-3.1,5.1-5.2,8.7-8.5c1.1-1,1.5-2.6,1.2-4.3c-0.3-1.3-1.2-3.8-3.2-4.4C176.4,168.8,175.2,168.8,173.9,169.3
								L173.9,169.3z"/>
						</g>
					</g>
					<g>
						<g>
							<path class="st13" d="M89.9,209c-0.6,0.2-1.2,0-1.7-0.5c-1.1-1.2-1.2-4.6-1.1-5.1c0.2-1.3,1.2-2.6,2.8-3.9
								c0.4-0.3,0.8-0.7,1.2-1c1.5-1.3,3.3-2.9,5.2-3.6c1.2-0.4,2.3-0.4,3.3,0c1.1,0.5,1.7,2.1,1.8,3.1c0.2,1.5-0.5,2.2-0.8,2.4
								c-3.9,2.9-6.2,4.9-9.3,7.6l-1,0.8L89.9,209z"/>
							<path class="st9" d="M96.7,196.7c0.8-0.3,1.6-0.4,2.3-0.1c0.5,0.2,1,1.9,0.6,2.2c-4.3,3.2-6.5,5.2-10.2,8.4c0,0,0,0-0.1,0
								c-0.5,0.2-0.9-3-0.8-3.3c0.2-1.1,1.4-2.2,2.2-2.8C92.3,199.8,94.6,197.5,96.7,196.7 M95.7,193.1c-2.1,0.8-4.1,2.5-5.6,3.9
								c-0.4,0.4-0.8,0.7-1.2,1c-2.9,2.3-3.2,4.3-3.4,5c-0.1,0.7-0.1,5,1.6,6.9c0.9,1,2.2,1.3,3.3,0.9l0.5-0.2l0.5-0.4l0.8-0.7
								c3.2-2.8,5.4-4.7,9.3-7.6c1.1-0.8,1.7-2.4,1.4-4.1c-0.2-1.3-1-3.9-2.9-4.7C98.6,192.6,97.2,192.6,95.7,193.1L95.7,193.1z"/>
						</g>
					</g>
					<g>
						<g>
							<path class="st13" d="M197.7,177c-0.6,0.2-1.2,0-1.7-0.5c-1.1-1.2-1.2-4.6-1.1-5.1c0.2-1.3,1.2-2.6,2.8-3.9
								c0.4-0.3,0.8-0.7,1.2-1c1.5-1.3,3.3-2.9,5.2-3.6c1.2-0.4,2.3-0.4,3.3,0c1.1,0.5,1.7,2.1,1.8,3.1c0.2,1.5-0.5,2.1-0.8,2.4
								c-3.9,3-6.1,4.8-9.4,7.7l-0.9,0.8L197.7,177z"/>
							<path class="st9" d="M204.5,164.7c0.8-0.3,1.6-0.4,2.3-0.1c0.5,0.2,1,1.9,0.6,2.2c-4.3,3.2-6.5,5.2-10.2,8.4c0,0,0,0-0.1,0
								c-0.5,0.2-0.9-3-0.8-3.3c0.2-1.1,1.4-2.2,2.2-2.8C200.1,167.8,202.4,165.5,204.5,164.7 M203.4,161.1
								c-2.1,0.8-4.1,2.5-5.6,3.9c-0.4,0.4-0.8,0.7-1.2,1c-1.9,1.6-3.1,3.2-3.4,5c-0.1,0.7-0.1,5,1.6,6.9c0.9,1,2.2,1.3,3.3,0.9
								l0.5-0.2l0.5-0.4l0.7-0.6c3.3-2.8,5.4-4.7,9.3-7.6c1.1-0.8,1.7-2.4,1.4-4.1c-0.2-1.4-1-3.9-2.9-4.7
								C206.4,160.6,205,160.6,203.4,161.1L203.4,161.1z"/>
						</g>
					</g>
					<g>
						<g>
							<path class="st13" d="M153.2,165.1c-0.6,0.2-1.3,0-1.8-0.6c-1.1-1.4-0.7-4.9-0.6-5.3c0.4-1.2,1.5-2.3,3.2-3.3
								c0.4-0.2,0.9-0.5,1.3-0.8c1.3-0.8,2.7-1.7,4.2-2.2c1.9-0.7,3.4-0.6,4.7,0.2c1.1,0.7,1.4,2.4,1.4,3.4c0,1.5-0.8,2-1.1,2.2
								c-4.3,2.2-6.7,3.7-10.3,5.9l-0.9,0.6L153.2,165.1z"/>
							<path class="st9" d="M160.1,154.7c1.3-0.5,2.5-0.6,3.4,0c0.4,0.3,0.8,2,0.4,2.3c-4.7,2.4-7.2,4-11.2,6.4c0,0,0,0,0,0
								c-0.6,0.2-0.5-3.1-0.4-3.4c0.3-1,1.7-1.9,2.5-2.4C156.2,156.8,158.2,155.3,160.1,154.7 M159.1,151.1
								c-1.6,0.6-3.2,1.6-4.5,2.3c-0.5,0.3-0.9,0.6-1.3,0.8c-3.2,1.8-3.8,3.7-4,4.3c-0.1,0.4-0.9,5,0.9,7.3c0.9,1.2,2.2,1.6,3.5,1.1
								l0.2-0.1l0.3-0.2l0.8-0.5c3.6-2.2,6-3.6,10.2-5.8c1.2-0.6,2-2,2-3.8c0-1.4-0.5-4-2.3-5.1
								C163.3,150.4,161.3,150.3,159.1,151.1L159.1,151.1z"/>
						</g>
					</g>
					<g>
						<g>
							<path class="st13" d="M127.3,189.8l-0.2,0c-4.7,0.6-7.5,1.2-11.4,2l-0.9,0.2c-0.7,0.1-1.5-0.2-1.9-1
								c-0.9-1.7,0.5-5.2,0.7-5.4c0.5-0.7,1.2-1.2,2.2-1.6c0.6-0.2,1.3-0.4,1.7-0.4c0.5-0.1,1-0.2,1.5-0.3c3.1-0.7,6.9-1.5,9.1,1.1
								c1,1.1,0.7,3.1,0.6,3.3c-0.2,1.4-0.9,1.8-1.3,2L127.3,189.8z"/>
							<path class="st9" d="M116.3,185.9c0.5-0.2,1.1-0.3,1.5-0.4c2.6-0.4,7.3-2,9.3,0.3c0.3,0.4,0.3,2.1-0.2,2.2c0,0,0,0,0,0
								c-5.1,0.7-7.9,1.3-12.5,2.2c-0.7,0.1,0.2-3.1,0.4-3.3C115.1,186.4,115.7,186.1,116.3,185.9 M115.3,182.3
								c-1.3,0.5-2.3,1.2-3,2.2c0,0-2.3,4.5-0.7,7.5c0.8,1.4,2.1,2.2,3.5,1.9l0.9-0.2c4-0.8,6.7-1.4,11.3-2l0.3,0l0.3-0.1
								c1.2-0.4,2.1-1.6,2.3-3.3c0.3-1.5,0.1-3.7-1.1-5.1c-2.9-3.3-7.3-2.3-10.5-1.6c-0.5,0.1-1,0.2-1.4,0.3
								C116.7,181.9,116,182,115.3,182.3L115.3,182.3z"/>
						</g>
					</g>
					<g>
						<g>
							<path class="st13" d="M103.7,181.9l-0.1,0c-4.7,0.9-7.3,1.6-11.3,2.7l-0.9,0.2c-0.7,0.2-1.5-0.2-1.9-0.9
								c-1-1.7,0.3-5.2,0.4-5.4c0.5-0.8,1.4-1.4,2.7-1.9c0.4-0.2,0.9-0.3,1.2-0.4c0.4-0.1,0.9-0.2,1.5-0.4c3-0.9,6.8-1.9,9.1,0.5
								c0.9,0.9,0.9,2.6,0.8,3.4C104.9,181.3,104.2,181.7,103.7,181.9C103.8,181.9,103.7,181.9,103.7,181.9z"/>
							<path class="st9" d="M93,178.4c0.4-0.1,0.8-0.2,1.1-0.3c2.6-0.6,7.1-2.5,9.2-0.3c0.4,0.4,0.4,2.1-0.1,2.3c0,0,0,0,0,0
								c-5.1,1-7.9,1.8-12.3,3c-0.7,0.2,0.1-3.1,0.2-3.4C91.5,179.1,92.3,178.7,93,178.4 M92,174.9c-1.6,0.6-2.7,1.4-3.4,2.6
								c0,0-2.1,4.6-0.4,7.5c0.8,1.4,2.2,2.1,3.6,1.7l0.9-0.2c4-1.1,6.6-1.8,11.2-2.7l0.2,0l0.2-0.1c1.2-0.4,2.1-1.7,2.3-3.3
								c0.2-1.5,0-3.8-1.3-5.2c-3-3.1-7.4-1.9-10.6-1c-0.5,0.1-1,0.3-1.4,0.4C92.9,174.6,92.4,174.8,92,174.9L92,174.9z"/>
						</g>
					</g>
					<g>
						<g>
							<path class="st13" d="M152.5,184.5c-0.4,0.1-0.8,0.1-1.1,0c-4.6-1.9-7.2-2.8-11.3-4.1l-0.9-0.3c-0.7-0.2-1.3-1-1.3-1.8
								c-0.2-2,2.4-4.3,2.6-4.4c0.1-0.1,0.2-0.1,0.4-0.2c1-0.4,2.3-0.2,4,0.4c0.4,0.2,0.9,0.3,1.5,0.5c3.1,1,6.9,2.2,8,5.6
								c0.3,0.9,0.1,1.8-0.2,2.4C153.9,183.1,153.4,184.1,152.5,184.5L152.5,184.5z"/>
							<path class="st9" d="M141.3,175.4c0.9-0.3,2.3,0.1,3.1,0.4c2.6,1,7.4,1.9,8.4,5c0.2,0.5-0.4,1.7-0.8,1.9c-0.1,0-0.1,0-0.2,0
								c-5-2-7.8-2.9-12.3-4.4c-0.7-0.2,1.3-2.6,1.6-2.7C141.1,175.5,141.2,175.4,141.3,175.4 M140.2,171.9
								c-0.2,0.1-0.4,0.2-0.6,0.3c0,0-3.7,2.8-3.4,6.2c0.2,1.7,1.2,3,2.5,3.5l0.9,0.3c4,1.3,6.7,2.2,11.2,4.1
								c0.7,0.3,1.4,0.3,2.1,0.1c1.4-0.5,2.2-2,2.5-2.8c0.5-1.3,0.6-2.6,0.2-3.8c-1.4-4.4-5.9-5.8-9.1-6.8c-0.5-0.2-1-0.3-1.4-0.5
								C143.2,171.6,141.5,171.4,140.2,171.9L140.2,171.9z"/>
						</g>
					</g>
					<g>
						<g>
							<path class="st13" d="M120.4,170.3c-0.7,0.2-1.4,0-1.8-0.6c-1.1-1.4-0.6-5-0.4-5.3c0.4-1.2,1.6-2.3,3.4-3.2
								c0.4-0.2,0.9-0.5,1.4-0.7c1.2-0.6,2.5-1.4,3.8-1.9c2.1-0.8,3.8-0.7,5.1,0.2c1,0.7,1.4,2.5,1.3,3.5c0,1.5-0.8,2-1.1,2.1
								c-4.4,2-6.8,3.3-10.5,5.4l-0.9,0.5L120.4,170.3z"/>
							<path class="st9" d="M127.1,160.4c1.4-0.5,2.8-0.7,3.9,0c0.4,0.3,0.7,2.1,0.3,2.3c-4.8,2.2-7.3,3.6-11.4,5.9c0,0,0,0,0,0
								c-0.6,0.2-0.4-3.1-0.3-3.4c0.4-1,1.8-1.9,2.6-2.3C123.5,162.2,125.3,161,127.1,160.4 M126.1,156.8c-1.4,0.5-2.8,1.3-4,2
								c-0.5,0.3-0.9,0.5-1.3,0.7c-2.2,1.1-3.5,2.4-4.1,4.1c-0.2,0.4-1,5,0.7,7.3c0.9,1.2,2.3,1.6,3.5,1.2l0.2-0.1l0.2-0.1l0.8-0.5
								c3.7-2,6.1-3.3,10.4-5.3c1.3-0.6,2-2,2.1-3.7c0-1.3-0.4-4-2.1-5.2C130.7,156,128.7,155.9,126.1,156.8L126.1,156.8z"/>
						</g>
					</g>
				</g>
				<g class="st17">
					<g>
						<path class="st18" d="M50.9,240.2c-10.5,11.3-9.1,28.8-0.7,42.1c2.5,4,7.3-0.8,4.8-4.8c-6.3-9.9-7.6-23,0.2-31.4
							C58.2,242.9,53.9,237,50.9,240.2L50.9,240.2z"/>
					</g>
					<g>
						<path class="st18" d="M60.4,292.2c0.1,0.1,0.1,0.2,0.2,0.3c1.2,1.6,3.2,1.8,4.5,0.5c1.3-1.3,1.4-3.7,0.2-5.4
							c-0.1-0.1-0.1-0.2-0.2-0.3c-1.2-1.6-3.2-1.8-4.5-0.5C59.3,288.1,59.2,290.6,60.4,292.2L60.4,292.2z"/>
					</g>
				</g>
			</g>
			<g>
				<g>
					<g>
						<path class="st9" d="M134,244.1c1.7,5.8-0.8,12-5.7,13.7c-4.8,1.8-10.2-1.6-11.9-7.4c-1.7-5.8,0.8-12,5.7-13.7
							C127,235,132.3,238.3,134,244.1z"/>
						<path class="st18" d="M122.9,243.2c0.6,1.9-0.3,3.8-1.8,4.4c-1.5,0.6-3.2-0.5-3.8-2.4c-0.6-1.9,0.3-3.8,1.8-4.4
							C120.6,240.3,122.3,241.3,122.9,243.2z"/>
						
							<ellipse transform="matrix(0.9899 -0.1416 0.1416 0.9899 -33.9865 19.9415)" class="st18" cx="123.1" cy="248.8" rx="1.1" ry="1.3"/>
						<path class="st18" d="M125.1,244.3c0.1,0.4-0.1,0.9-0.4,1c-0.4,0.1-0.8-0.1-0.9-0.6c-0.1-0.4,0.1-0.9,0.4-1
							C124.6,243.6,125,243.9,125.1,244.3z"/>
						<path class="st19" d="M131.4,256.8c0.4,1.3-2.7,3.6-7,5.1c-4.2,1.5-8,1.7-8.4,0.4c-0.4-1.3,2.7-3.6,7-5.1
							C127.3,255.7,131,255.5,131.4,256.8z"/>
					</g>
					<g>
						
							<ellipse transform="matrix(0.9899 -0.1416 0.1416 0.9899 -30.9125 26.6306)" class="st9" cx="171.7" cy="230.5" rx="9.3" ry="11.1"/>
						<path class="st18" d="M169.3,226.4c0.6,1.9-0.3,3.8-1.8,4.4c-1.5,0.6-3.2-0.5-3.8-2.4c-0.6-1.9,0.3-3.8,1.8-4.4
							C167,223.5,168.7,224.5,169.3,226.4z"/>
						
							<ellipse transform="matrix(0.9899 -0.1416 0.1416 0.9899 -31.1433 26.3427)" class="st18" cx="169.5" cy="232" rx="1.1" ry="1.3"/>
						<path class="st18" d="M171.5,227.5c0.1,0.4-0.1,0.9-0.4,1c-0.4,0.1-0.8-0.1-0.9-0.6c-0.1-0.4,0.1-0.9,0.4-1
							C171,226.9,171.4,227.1,171.5,227.5z"/>
						<path class="st19" d="M186.8,236.8c0.4,1.3-2.7,3.6-7,5.1c-4.2,1.5-8,1.7-8.4,0.4c-0.4-1.3,2.7-3.6,7-5.1
							C182.6,235.6,186.4,235.5,186.8,236.8z"/>
					</g>
				</g>
				<g>
					<g>
						<path class="st14" d="M152.1,251.9c-3.8,1.4-8-1.2-9.3-5.8c0-0.1-0.1-0.3,0-0.4c0-0.7,0.7-2.6,6.2-4.6
							c4.4-1.6,6.9-0.7,7.1-0.6c0.3,0.1,0.5,0.3,0.6,0.7C157.9,245.7,155.9,250.5,152.1,251.9z"/>
						<path class="st9" d="M149.2,242c4.2-1.5,6.6-0.6,6.6-0.6c1.2,4.1-0.6,8.3-3.9,9.6c-3.4,1.2-7.1-1.1-8.3-5.1
							C143.5,245.8,143.6,244,149.2,242 M148.6,240.1c-5.5,2-6.7,4.1-6.8,5.5c0,0.3,0,0.5,0.1,0.8c1.5,5.1,6.2,8,10.4,6.5
							c4.2-1.5,6.5-6.9,4.9-12c-0.2-0.6-0.6-1.1-1.2-1.3C155.9,239.4,153.1,238.5,148.6,240.1L148.6,240.1z"/>
					</g>
				</g>
				<g>
					<g>
						<path class="st18" d="M150.9,246.7c-6.7,2.4-6.8,2.3-7.2,1.6c-0.4-0.7-0.7-1.4-1-2.2c0-0.1-0.1-0.3,0-0.4
							c0-0.7,0.7-2.6,6.2-4.6c4.4-1.6,6.9-0.7,7.1-0.6c0.3,0.1,0.5,0.3,0.6,0.7c0.2,0.8,0.4,1.6,0.4,2.5
							C157,244.4,157,244.5,150.9,246.7z"/>
						<path class="st9" d="M149.2,242c4.2-1.5,6.6-0.6,6.6-0.6c0.2,0.7,0.3,1.5,0.4,2.2c0,0.1-2.7,1.2-5.5,2.2c-3,1.1-6.2,2.1-6.2,2
							c-0.4-0.6-0.7-1.3-0.9-2C143.5,245.8,143.6,244,149.2,242 M148.6,240.1c-5.5,2-6.7,4.1-6.8,5.5c0,0.3,0,0.5,0.1,0.8
							c0.3,0.9,0.6,1.7,1.1,2.5c0.9,1.4,1.3,1.3,8.2-1.2c6.3-2.3,6.7-2.4,6.6-4.1c0-0.9-0.2-1.9-0.5-2.8c-0.2-0.6-0.6-1.1-1.2-1.3
							C155.9,239.4,153.1,238.5,148.6,240.1L148.6,240.1z"/>
					</g>
				</g>
				<g>
					<path class="st20" d="M163.6,213.4c0,0,6.1-5.7,13.3-0.6"/>
					<path class="st20" d="M122.3,228.4c0,0-8-0.6-11,8.2"/>
				</g>
			</g>
		</g>
		<g>
			<g>
				<g>
					<g>
						<path class="st13" d="M259.1,336.7c-5.3-2-9.9-4.2-14-6.8l-4.6-2.5c-5.3-3.4-8.2-7.5-8.7-12.3c-0.8-8.1,5.4-15.9,10.8-21
							c1.8-1.9,3.7-4,5.8-6.1c5-5,10.1-9.9,15.1-14.6c9-8.5,18.3-17.2,26.3-26.9c1.8-2,3.6-4,5.4-6c12.4-13.5,28.6-30.8,44.8-44.9
							l5-5.6c11.8-13,23.6-25.7,38.1-36.7c1.9-1.9,2.9-2.9,2.9-2.9c5.8-5.8,10.8-5.2,13.3-4.3c2.5,0.9,6.8,3.7,7.8,12l0.5,4.1
							c0.3,2.2,0.7,5.2,1.1,8.8c5.4,26.8,8.6,52.3,9.9,78l3,23.9l0.9,6.6c8.7,28.7,12,54.3,10.9,85.6l1.2,9.1c0.8,6-0.9,11-4.6,14.1
							c-3.7,3.1-8.9,3.6-14.4,1.6l-3.3-1.2c-13.8-4.7-27.7-9.5-41.2-14.5c-13.5-4.9-27.3-10.2-40.9-15.6l-27.7-10.1
							c-6.8-2.2-13.9-3.9-20.7-5.5C273.9,341.1,266.4,339.3,259.1,336.7z"/>
						<path class="st9" d="M398.9,147.6c2.1,0.8,5.8,3.2,6.7,10.6c0,0,0.2,1.2,0.4,3.4c0.3,2.2,0.7,5.5,1.2,9.5
							c5.2,25.8,8.6,51.6,9.9,77.9c0.3,2,0.5,4,0.8,6c0.8,6,1.5,12,2.3,18.1c0.3,2.3,0.6,4.5,0.9,6.7c8.6,28,12,53.9,10.9,85.3
							c0.2,2,0.5,3.7,0.6,5c0.4,2.8,0.5,4.3,0.5,4.3c0.7,5.4-0.7,9.8-4,12.5c-3.3,2.7-7.8,3.2-12.8,1.3c0,0-1.2-0.4-3.3-1.2
							c-13.9-4.7-27.6-9.5-41.2-14.5c-13.6-5-27.2-10.2-40.9-15.6c-1.8-0.7-3.6-1.3-5.4-2c-5.4-2-10.7-3.9-16-5.8
							c-2.1-0.8-4.3-1.6-6.3-2.3c-14.9-4.9-30.1-6.9-43.5-11.8c-4.8-1.8-9.4-3.9-13.6-6.6c-3-1.6-4.7-2.5-4.7-2.5
							c-14-9-6.8-21.8,2.5-30.6c1.9-2.1,3.9-4.2,5.9-6.2c13.9-14.1,29.1-26.5,41.5-41.6c1.8-2,3.6-4,5.4-5.9
							c14.4-15.8,29.6-31.7,44.7-44.8c1.7-1.9,3.4-3.8,5.2-5.7c12-13.2,23.8-25.8,38-36.6c1.9-1.9,3-3,3-3
							C392.5,146.4,396.8,146.9,398.9,147.6 M400,144.4c-2.8-1-8.6-1.8-15,4.7c0,0-1,1-2.8,2.8c-14.5,11.1-26.4,23.8-38.3,36.9
							l-1.7,1.9c-1.1,1.2-2.2,2.4-3.3,3.6c-16.2,14.2-32.4,31.4-44.8,44.9c-1.8,2-3.6,4-5.4,6l-0.1,0.1l0,0.1
							c-7.9,9.6-16.7,17.9-26.1,26.7c-5,4.7-10.2,9.6-15.2,14.7c-2.1,2.1-4,4.2-5.9,6.2c-5.6,5.4-12.1,13.6-11.2,22.4
							c0.5,5.3,3.7,9.9,9.4,13.6l0.1,0.1l0.1,0.1l4.6,2.5c4.1,2.7,8.8,4.9,14.2,6.9c7.3,2.7,14.9,4.5,23,6.4
							c6.7,1.6,13.7,3.2,20.5,5.4l6.3,2.3l16,5.8l5.4,2c13.6,5.4,27.3,10.6,40.9,15.6c13.5,5,27.4,9.8,41.3,14.5l3.2,1.2
							c6.2,2.3,11.9,1.6,16.1-1.9c4.2-3.5,6.1-9,5.2-15.6l-0.5-4.3c-0.2-1.3-0.4-2.9-0.6-4.7c1.1-31-2.3-57.5-10.9-85.9
							c-0.3-2.1-0.6-4.3-0.8-6.4l-0.6-4.7l-1.7-13.3l-0.4-3l-0.4-2.8c-1.3-25.7-4.5-51.2-9.9-78.1c-0.5-3.6-0.8-6.6-1.1-8.7
							l-0.1-0.7l-0.4-3.4C407.7,148.6,402.8,145.4,400,144.4L400,144.4z"/>
					</g>
				</g>
				<g>
					<g>
						<path class="st13" d="M433.1,374.4c0,0-0.2-1.5-0.5-4.3c-0.2-1.4-0.4-3.1-0.6-5c1.1-31.4-2.3-57.3-10.9-85.3
							c-0.3-2.2-0.6-4.5-0.9-6.7c-0.8-6-1.5-12.1-2.3-18.1c-0.3-2-0.5-4-0.8-6c-1.3-26.2-4.7-52.1-9.9-77.9
							c-0.5-4.1-0.9-7.3-1.2-9.5c-0.3-2.2-0.4-3.4-0.4-3.4c-0.7-5.2-2.6-7.9-4.5-9.3c-24.9,66.7-6,169.1-63.7,210.6
							c25.1,9.8,49.9,18.9,75.6,27.5c2.2,0.8,3.3,1.2,3.3,1.2c5,1.8,9.6,1.4,12.8-1.3C432.3,384.2,433.8,379.8,433.1,374.4z"/>
					</g>
				</g>
				<g>
					<g>
						<path class="st21" d="M414.4,376c-3.8-1.4-8.4-4.1-12.4-6.5c-2.9-1.7-5.6-3.4-7.2-3.9c-0.4-0.1-0.5-0.2-0.6-0.2l-0.2,0
							l-94.4-34.5c-4.5-2.2-9.5-4.3-14.4-6.1c-4.8-1.8-9.5-3.2-13.4-4.2l-4.5-1.6l-0.2-0.1c-1.1-0.7-4-2-7.1-3.3
							c-10.6-4.5-14.9-6.6-14.1-9.6c1.2-8.4,9.6-13.5,17-18c3.9-2.3,7.5-4.6,9.9-7c1.7-1.8,3.6-3.5,5.6-5.3c2-3.3,3.5-6.2,4.9-9.1
							c3.9-7.6,7.2-14.2,18.1-25.2c0.7-0.7,3.6-3.1,9.1-7.5c9.6-7.8,24.2-19.5,30.8-26c2.1-2.1,4.2-4,6.3-5.8
							c1.9-1.6,3.8-3.3,5.5-4.9c4.2-4.3,6.4-11.4,8.6-18.3c2.7-8.6,5.5-17.5,12.3-22.1l0.1-0.1l0.1-0.1c4.4-2.1,9.5-2.3,14.5-0.5
							c8,2.9,13.8,10.1,14.9,18.2c0.6,4.9,2.2,9.9,3.8,14.7c2.6,8.3,5.4,16.8,3.7,25.5c-2.4,12.5-4.1,26.1,0.1,40.4
							c3.6,12.4,4.2,25.3,4.9,37.7c0.1,2.2,0.2,4.5,0.4,6.7c0.4,7.5,1.1,16.4,3.1,25c0.4,3.2,0.5,6,0.6,8.7
							c0.1,3.7,1.1,8.5,2.3,13.6c2.2,10,4.7,21.3,0.6,28.5l-0.1,0.2l-0.2,0.2C420.1,378.1,415.8,376.5,414.4,376z"/>
						<path class="st9" d="M388,157.8c6.9,2.5,12.7,8.9,13.8,16.8c1.8,13.3,10,26.5,7.5,39.7c-2.8,14.5-3.8,27.5,0.2,41.2
							c4.2,14.4,4.3,29.3,5.2,44.1c0.5,8.5,1.3,17,3.1,25.3c0.3,2.8,0.5,5.6,0.5,8.3c0.2,11.1,8.9,31.1,3.1,41.3
							c-1.3,1.3-3.6,1-6.4,0c-6.6-2.4-15.7-9-19.6-10.5c-0.4-0.1-0.7-0.2-1-0.3c-3.6-1.3-8.8-3.2-15-5.5
							c-19.9-7.3-50.5-18.5-74.5-27.3c-1.6-0.6-3.2-1.2-4.7-1.7c-4.5-2.2-9.5-4.3-14.4-6.1c-4.8-1.8-9.5-3.2-13.6-4.2
							c-2.7-1-4.2-1.5-4.2-1.5c-3.7-2.4-21.4-8.3-20.5-11c1.5-11.7,19.3-16.7,26.5-24.2c1.8-1.9,3.7-3.6,5.7-5.3
							c7.4-12.4,7.9-19.1,22.8-34.2c2-2,29.9-23.7,39.9-33.5c2-2,4.1-3.9,6.2-5.7c1.8-1.5,3.7-3.2,5.6-5c9.9-10.1,9-32.3,20.8-40.3
							C379,156.2,383.7,156.2,388,157.8 M389.1,154.5c-5.4-2-11-1.8-15.8,0.5l-0.2,0.1l-0.2,0.1c-7.3,5-10.2,14.2-13,23
							c-2.2,7-4.3,13.6-8.2,17.6c-1.7,1.6-3.6,3.3-5.4,4.8c-2.1,1.8-4.2,3.7-6.4,5.8c-6.6,6.4-21.1,18.1-30.7,25.9
							c-5.9,4.7-8.5,6.9-9.3,7.6c-11.1,11.3-14.6,18.3-18.4,25.7c-1.4,2.7-2.8,5.5-4.7,8.7c-2,1.7-3.8,3.5-5.5,5.2
							c-2.2,2.3-5.8,4.4-9.6,6.7c-7.7,4.7-16.5,10-17.8,19.1c-1.2,4.7,5,7.3,15.2,11.6c2.7,1.2,5.8,2.5,6.8,3.1l0.3,0.2l0.4,0.1
							l4.1,1.5l0.2,0.1l0.2,0c3.9,1,8.5,2.4,13.3,4.1c4.9,1.8,9.8,3.8,14.1,5.9l0.2,0.1l0.2,0.1l4.7,1.7l74.5,27.3l15,5.5l0.4,0.1
							l0.4,0c0.1,0,0.1,0,0.3,0.1c1.4,0.5,4.1,2.1,6.9,3.8c4.1,2.4,8.7,5.2,12.7,6.7c1.7,0.6,6.7,2.4,9.9-0.7l0.3-0.3l0.2-0.4
							c4.5-7.8,1.9-19.5-0.4-29.8c-1.1-5-2.2-9.8-2.2-13.3c0-2.8-0.2-5.6-0.6-8.7l0-0.2l0-0.2c-1.9-8.5-2.6-17.3-3-24.7
							c-0.1-2.2-0.2-4.5-0.4-6.7c-0.6-12.6-1.3-25.6-4.9-38.2c-4.1-13.9-2.4-27.3-0.1-39.5c1.7-9.1-1-17.9-3.7-26.4
							c-1.6-5-3.1-9.7-3.7-14.4C404,165.4,397.7,157.7,389.1,154.5L389.1,154.5z"/>
					</g>
				</g>
				<g>
					<g>
						<path class="st21" d="M418.2,333.1c0-2.8-0.2-5.5-0.5-8.3c-1.9-8.3-2.6-16.8-3.1-25.3c-0.9-14.8-1-29.7-5.2-44.1
							c-4-13.7-2.9-26.7-0.2-41.2c2.2-11.5-3.8-23-6.5-34.6c-13,44.2-0.5,96-22.6,140.9c-6.7,11.7-14.8,21-23.8,29.3
							c8.5,3.1,16.4,6,23.1,8.4c6.2,2.3,11.3,4.2,15,5.5c4.4,0.5,22.6,15.3,27.1,10.8C427.2,364.2,418.4,344.2,418.2,333.1z"/>
					</g>
				</g>
				<g>
					<g>
						<g>
							<path class="st14" d="M400.4,218.8c-5-1.8-9.2-6.6-11.3-12.8c-3.2-9.6,0-19.3,7.2-21.7c2.4-0.8,5-0.7,7.5,0.2
								c5,1.8,9.2,6.6,11.3,12.8c3.2,9.6-0.1,19.3-7.2,21.7C405.5,219.8,402.9,219.8,400.4,218.8z"/>
							<path class="st9" d="M403.3,186.1c4.3,1.6,8.3,5.9,10.2,11.7c2.9,8.7,0.1,17.4-6.2,19.6c-2.1,0.7-4.3,0.6-6.4-0.2
								c-4.3-1.6-8.3-5.9-10.2-11.7c-2.9-8.7-0.1-17.4,6.2-19.6C398.9,185.2,401.2,185.4,403.3,186.1 M404.4,182.9L404.4,182.9
								c-2.9-1.1-5.9-1.1-8.6-0.2c-8.1,2.7-11.8,13.4-8.3,23.9c2.2,6.7,6.8,11.9,12.3,13.9c2.9,1.1,5.9,1.1,8.6,0.2
								c8.1-2.7,11.8-13.4,8.3-23.9C414.5,190.1,409.9,184.9,404.4,182.9L404.4,182.9z"/>
						</g>
					</g>
					<g>
						<path class="st14" d="M413.5,197.8c-2.4-7.2-7.9-12-13.4-12.3c1.9,2,3.5,4.7,4.5,7.7c2.9,8.7,0.1,17.4-6.2,19.6
							c-1.1,0.4-2.2,0.4-3.3,0.4c3.5,3.8,8.1,5.6,12.2,4.2C413.7,215.3,416.4,206.5,413.5,197.8z"/>
					</g>
				</g>
				<g>
					<g>
						<g>
							<path class="st14" d="M272.7,304.9c-1.3-0.5-2.6-1.2-3.6-2.2c-2.9-2.6-4.3-6.4-4-10.9c0.3-4.3,2.1-8.6,5.1-12.2
								c5.1-6.1,12.5-8.7,18.4-6.5c1.3,0.5,2.6,1.2,3.6,2.2c2.9,2.6,4.3,6.4,4,10.9c-0.3,4.3-2.1,8.6-5.1,12.2
								C286,304.4,278.6,307,272.7,304.9z"/>
							<path class="st9" d="M288.1,274.8c1.1,0.4,2.1,1,3.1,1.8c5.1,4.5,4.5,13.7-1.3,20.6c-4.8,5.6-11.5,7.9-16.6,6
								c-1.1-0.4-2.1-1-3.1-1.8c-5.1-4.5-4.5-13.7,1.3-20.6C276.3,275.2,283.1,272.9,288.1,274.8 M289.2,271.6L289.2,271.6
								c-6.6-2.4-14.7,0.4-20.3,7c-3.3,3.9-5.3,8.5-5.6,13.2c-0.3,5,1.3,9.4,4.6,12.3c1.2,1.1,2.6,1.9,4.2,2.5
								c6.6,2.4,14.7-0.4,20.3-7c3.3-3.9,5.3-8.6,5.6-13.2c0.3-5-1.3-9.4-4.6-12.3C292.2,273,290.8,272.1,289.2,271.6L289.2,271.6z"
								/>
						</g>
					</g>
					<g>
						<path class="st14" d="M292.4,278c0.2,4.1-1.4,8.8-4.7,12.7c-5.8,6.8-14.6,8.7-19.7,4.2c-0.5-0.4-0.8-0.9-1.2-1.4
							c0.1,3.1,1.2,6,3.4,7.9c5.1,4.5,13.9,2.6,19.7-4.2C295.1,291,296.1,282.9,292.4,278z"/>
					</g>
				</g>
				<g>
					<g>
						<g>
							<path class="st15" d="M354.7,210.4c-0.6-0.2-1.2-0.6-1.7-1c-2.6-2.3-2.4-6.6,0.3-9.8c2.1-2.5,5.3-3.6,7.8-2.6
								c0.6,0.2,1.2,0.6,1.6,1c2.6,2.3,2.4,6.6-0.3,9.8C360.4,210.3,357.2,211.3,354.7,210.4z"/>
							<path class="st9" d="M360.6,198.6c0.4,0.1,0.8,0.4,1.1,0.7c1.8,1.6,1.6,4.9-0.5,7.4c-1.7,2-4.1,2.8-6,2.2
								c-0.4-0.1-0.8-0.4-1.1-0.7c-1.8-1.6-1.6-4.9,0.5-7.4C356.3,198.7,358.8,197.9,360.6,198.6 M361.7,195.3L361.7,195.3
								c-3.2-1.2-7.1,0.1-9.6,3.1c-3.3,3.9-3.4,9.3-0.1,12.3c0.6,0.6,1.4,1,2.2,1.3c3.2,1.2,7-0.1,9.6-3.1c3.3-4,3.4-9.3,0.1-12.3
								C363.2,196,362.5,195.6,361.7,195.3L361.7,195.3z"/>
						</g>
					</g>
					<g>
						<path class="st15" d="M361.9,199.4c-2.4,3.2-5.4,5.6-8.7,7.1c0.2,0.6,0.5,1.1,1,1.5c1.8,1.6,5,0.9,7.1-1.5
							C363.2,204.2,363.5,201.1,361.9,199.4z"/>
					</g>
				</g>
				<g>
					<g>
						<g>
							<path class="st15" d="M396.6,295.7c-0.6-0.2-1.2-0.6-1.7-1c-2.6-2.3-2.4-6.6,0.3-9.8c2.1-2.5,5.3-3.6,7.8-2.6
								c0.6,0.2,1.2,0.6,1.7,1c2.6,2.3,2.4,6.6-0.3,9.8C402.2,295.6,399.1,296.6,396.6,295.7z"/>
							<path class="st9" d="M402.5,283.9c0.4,0.1,0.8,0.4,1.1,0.7c1.8,1.6,1.6,4.9-0.5,7.4c-1.7,2-4.1,2.8-6,2.2
								c-0.4-0.1-0.8-0.4-1.1-0.7c-1.8-1.6-1.6-4.9,0.5-7.4C398.2,284,400.6,283.2,402.5,283.9 M403.6,280.6L403.6,280.6
								c-3.2-1.2-7,0.1-9.6,3.1c-3.3,3.9-3.4,9.3-0.1,12.3c0.6,0.6,1.4,1,2.2,1.3c3.2,1.2,7-0.1,9.6-3.1c3.3-3.9,3.4-9.3,0.1-12.3
								C405.1,281.3,404.4,280.9,403.6,280.6L403.6,280.6z"/>
						</g>
					</g>
					<g>
						<path class="st15" d="M403.6,284.5c-0.2-0.2-0.5-0.4-0.8-0.5c-2.2,3-4.9,5.4-8,6.7c0.1,1.1,0.5,2,1.2,2.7c1.8,1.6,5,1,7.1-1.5
							S405.4,286.1,403.6,284.5z"/>
					</g>
				</g>
				<g>
					<g>
						<g>
							<path class="st15" d="M382.2,180.2c-0.6-0.2-1.2-0.6-1.7-1c-1.3-1.1-1.9-2.9-1.8-4.8c0.1-1.8,0.9-3.5,2.1-5
								c2.1-2.5,5.3-3.6,7.8-2.6c0.6,0.2,1.2,0.6,1.6,1c2.6,2.3,2.4,6.6-0.3,9.8C387.8,180.1,384.7,181.2,382.2,180.2z"/>
							<path class="st9" d="M388.1,168.4c0.4,0.1,0.8,0.4,1.1,0.7c1.8,1.6,1.6,4.9-0.5,7.4c-1.7,2-4.1,2.8-6,2.2
								c-0.4-0.1-0.8-0.4-1.1-0.7c-1.8-1.6-1.6-4.9,0.5-7.4C383.8,168.5,386.2,167.7,388.1,168.4 M389.2,165.1L389.2,165.1
								c-3.2-1.2-7.1,0.1-9.6,3.1c-1.5,1.7-2.4,3.9-2.5,6c-0.2,2.5,0.7,4.8,2.4,6.3c0.6,0.6,1.4,1,2.2,1.3c3.2,1.2,7-0.1,9.6-3.1
								c3.3-4,3.4-9.3,0.1-12.3C390.7,165.9,390,165.4,389.2,165.1L389.2,165.1z"/>
						</g>
					</g>
					<g>
						<path class="st15" d="M389.2,169.1c-0.8-0.7-1.8-0.9-2.8-0.8c-1.3,3.1-3.4,4.8-5.9,5.8c-0.3,1.5,0.1,3,1.1,3.9
							c1.8,1.6,5,0.9,7.1-1.5C390.8,174,391,170.7,389.2,169.1z"/>
					</g>
				</g>
				<g>
					<g>
						<g>
							<path class="st15" d="M292.4,265.6c-0.6-0.2-1.2-0.6-1.7-1c-1.3-1.1-1.9-2.9-1.8-4.8c0.1-1.8,0.9-3.5,2.1-5
								c2.1-2.5,5.3-3.6,7.8-2.6c0.6,0.2,1.2,0.6,1.6,1c2.6,2.3,2.4,6.6-0.3,9.8C298.1,265.5,294.9,266.6,292.4,265.6z"/>
							<path class="st9" d="M298.3,253.8c0.4,0.1,0.8,0.4,1.1,0.7c1.8,1.6,1.6,4.9-0.5,7.4c-1.7,2-4.1,2.8-6,2.2
								c-0.4-0.1-0.8-0.4-1.1-0.7c-1.8-1.6-1.6-4.9,0.5-7.4C294,254,296.5,253.1,298.3,253.8 M299.4,250.6L299.4,250.6
								c-3.2-1.2-7.1,0.1-9.6,3.1c-1.5,1.7-2.4,3.9-2.5,6c-0.2,2.5,0.7,4.8,2.4,6.3c0.6,0.6,1.4,1,2.2,1.3c3.2,1.2,7-0.1,9.6-3.1
								c3.3-3.9,3.4-9.3,0.1-12.3C300.9,251.3,300.2,250.9,299.4,250.6L299.4,250.6z"/>
						</g>
					</g>
					<g>
						<path class="st15" d="M299.6,254.7c-1.9,3.2-5.1,5.4-8.7,7.3c0.2,0.5,0.5,1,0.9,1.4c1.8,1.6,5,0.9,7.1-1.5
							C300.9,259.5,301.2,256.4,299.6,254.7z"/>
					</g>
				</g>
				<g>
					<g>
						<g>
							<path class="st15" d="M370.9,343.3c-0.6-0.2-1.2-0.6-1.7-1c-2.6-2.3-2.4-6.6,0.3-9.8c2.1-2.5,5.3-3.6,7.8-2.6
								c0.6,0.2,1.2,0.6,1.6,1c2.6,2.3,2.4,6.6-0.3,9.8C376.6,343.2,373.5,344.3,370.9,343.3z"/>
							<path class="st9" d="M376.8,331.5c0.4,0.1,0.8,0.4,1.1,0.7c1.8,1.6,1.6,4.9-0.5,7.4c-1.7,2-4.1,2.8-6,2.2
								c-0.4-0.1-0.8-0.4-1.1-0.7c-1.8-1.6-1.6-4.9,0.5-7.4C372.6,331.6,375,330.8,376.8,331.5 M377.9,328.2L377.9,328.2
								c-3.2-1.2-7.1,0.1-9.6,3.1c-3.3,3.9-3.4,9.3-0.1,12.3c0.6,0.6,1.4,1,2.2,1.3c3.2,1.2,7-0.1,9.6-3.1c3.3-4,3.4-9.3,0.1-12.3
								C379.5,329,378.7,328.5,377.9,328.2L377.9,328.2z"/>
						</g>
					</g>
					<g>
						<path class="st15" d="M377.9,332.2c-0.3-0.3-0.7-0.5-1.1-0.6c-1.6,3.4-4.3,5.3-7.6,5.7c-0.2,1.5,0.2,2.9,1.2,3.8
							c1.8,1.6,5,0.9,7.1-1.5C379.5,337.1,379.7,333.8,377.9,332.2z"/>
					</g>
				</g>
				<g>
					<g>
						<g>
							<path class="st15" d="M301.4,314.1c-0.6-0.2-1.2-0.6-1.7-1c-2.6-2.3-2.4-6.6,0.3-9.8c2.1-2.5,5.3-3.6,7.8-2.6
								c0.6,0.2,1.2,0.6,1.7,1c2.6,2.3,2.4,6.6-0.3,9.8C307,314,303.9,315,301.4,314.1z"/>
							<path class="st9" d="M307.3,302.3c0.4,0.1,0.8,0.4,1.1,0.7c1.8,1.6,1.6,4.9-0.5,7.4c-1.7,2-4.1,2.8-6,2.2
								c-0.4-0.1-0.8-0.4-1.1-0.7c-1.8-1.6-1.6-4.9,0.5-7.4C303,302.4,305.4,301.6,307.3,302.3 M308.4,299L308.4,299
								c-3.2-1.2-7,0.1-9.6,3.1c-3.3,3.9-3.4,9.3-0.1,12.3c0.6,0.6,1.4,1,2.2,1.3c3.2,1.2,7-0.1,9.6-3.1c3.3-4,3.4-9.3,0.1-12.3
								C309.9,299.8,309.2,299.3,308.4,299L308.4,299z"/>
						</g>
					</g>
					<g>
						<path class="st15" d="M309.2,304.1c-2.3,3-5.7,5.2-9.4,6.2c0.2,0.6,0.5,1.2,1,1.6c1.8,1.6,5,1,7.1-1.5
							C309.6,308.4,310,305.8,309.2,304.1z"/>
					</g>
				</g>
				<g>
					<g>
						<g>
							<path class="st15" d="M358.4,251.2c-0.6-0.2-1.2-0.6-1.7-1c-1.3-1.1-1.9-2.9-1.8-4.8c0.1-1.8,0.9-3.5,2.1-5
								c2.1-2.5,5.3-3.6,7.8-2.6c0.6,0.2,1.2,0.6,1.7,1c2.6,2.3,2.4,6.6-0.3,9.8C364.1,251.1,360.9,252.2,358.4,251.2z"/>
							<path class="st9" d="M364.3,239.4c0.4,0.1,0.8,0.4,1.1,0.7c1.8,1.6,1.6,4.9-0.5,7.4c-1.7,2-4.1,2.8-6,2.2
								c-0.4-0.1-0.8-0.4-1.1-0.7c-1.8-1.6-1.6-4.9,0.5-7.4C360,239.5,362.5,238.7,364.3,239.4 M365.4,236.1L365.4,236.1
								c-3.2-1.2-7,0.1-9.6,3.1c-1.5,1.7-2.4,3.9-2.5,6c-0.2,2.5,0.7,4.8,2.4,6.3c0.6,0.6,1.4,1,2.2,1.3c3.2,1.2,7-0.1,9.6-3.1
								c3.3-3.9,3.4-9.3,0.1-12.3C366.9,236.9,366.2,236.4,365.4,236.1L365.4,236.1z"/>
						</g>
					</g>
					<g>
						<path class="st15" d="M366.2,241.2c-2.3,3-5.7,5.2-9.4,6.2c0.2,0.6,0.5,1.1,1,1.6c1.8,1.6,5,0.9,7.1-1.5
							C366.6,245.5,367,242.9,366.2,241.2z"/>
					</g>
				</g>
				<g>
					<g>
						<g>
							<path class="st14" d="M388.3,272c-5-1.8-9.2-6.6-11.3-12.8c-3.2-9.6,0-19.3,7.2-21.7c2.4-0.8,5-0.7,7.5,0.2
								c5,1.8,9.2,6.6,11.3,12.8c3.2,9.6-0.1,19.3-7.2,21.7C393.4,273,390.8,273,388.3,272z"/>
							<path class="st9" d="M391.2,239.3c4.3,1.6,8.3,5.9,10.2,11.7c2.9,8.7,0.1,17.4-6.2,19.6c-2.1,0.7-4.3,0.6-6.4-0.2
								c-4.3-1.6-8.3-5.9-10.2-11.7c-2.9-8.7-0.1-17.4,6.2-19.6C386.8,238.4,389,238.5,391.2,239.3 M392.2,236.1L392.2,236.1
								c-2.9-1.1-5.9-1.1-8.6-0.2c-8.1,2.7-11.8,13.4-8.3,23.9c2.2,6.7,6.8,11.9,12.3,13.9c2.9,1.1,5.9,1.1,8.6,0.2
								c8.1-2.7,11.8-13.4,8.3-23.9C402.4,243.3,397.7,238.1,392.2,236.1L392.2,236.1z"/>
						</g>
					</g>
					<g>
						<path class="st14" d="M401.4,251c-1.4-4.2-3.9-7.6-6.8-9.8c0.7,1.3,1.4,2.6,1.9,4.1c2.9,8.7,0.1,17.4-6.2,19.6
							c-3.2,1.1-6.8,0.2-9.9-2.1c3.6,6.1,9.5,9.5,14.8,7.8C401.5,268.5,404.3,259.7,401.4,251z"/>
					</g>
				</g>
				<g>
					<g>
						<path class="st14" d="M310.7,347.1c-2.5-0.9-4.5-2.5-5.9-4.6c-2.1-3.2-2.5-7.3-1.1-11.5c1.4-4,4.3-7.7,8.1-10.3
							c5.2-3.6,11.6-4.6,16.6-2.8c2.5,0.9,4.5,2.5,5.9,4.6c2.1,3.2,2.5,7.3,1.1,11.5c-1.4,4-4.3,7.7-8.1,10.3
							C322.1,347.8,315.7,348.9,310.7,347.1z"/>
						<path class="st9" d="M328,319.5c2.1,0.8,3.8,2.1,5,3.9c3.7,5.7,0.8,14.4-6.6,19.4c-5,3.4-10.8,4.2-15.1,2.6
							c-2.1-0.8-3.8-2.1-5-3.9c-3.7-5.7-0.8-14.4,6.6-19.4C317.9,318.7,323.6,317.9,328,319.5 M329,316.2L329,316.2
							c-5.6-2-12.3-0.9-18.1,3c-4.2,2.8-7.3,6.8-8.8,11.1c-1.6,4.7-1.2,9.4,1.3,13.1c1.6,2.4,3.9,4.2,6.7,5.3c5.6,2,12.3,0.9,18.1-3
							c4.2-2.8,7.3-6.8,8.8-11.2c1.6-4.7,1.2-9.4-1.3-13.1C334.2,319.1,331.9,317.3,329,316.2L329,316.2z"/>
					</g>
				</g>
				<g>
					<g>
						<g>
							<path class="st14" d="M318.2,254.9c-1.2-0.5-2.4-1.1-3.4-1.9c-3.2-2.7-4.8-7.1-4.3-12.4c0.4-5,2.7-10.2,6.3-14.7
								c6.3-7.8,15.4-11.6,22.1-9.2c1.2,0.5,2.4,1.1,3.4,2c3.2,2.7,4.8,7.1,4.3,12.4c-0.4,5-2.7,10.2-6.3,14.7
								C334,253.6,325,257.4,318.2,254.9z"/>
							<path class="st9" d="M338.4,218.4c1,0.4,2,0.9,2.8,1.7c5.8,4.9,4.8,15.9-2.2,24.6c-5.9,7.4-14.3,10.8-20.2,8.6
								c-1-0.4-2-0.9-2.8-1.6c-5.8-4.9-4.8-15.9,2.2-24.6C324.1,219.6,332.5,216.2,338.4,218.4 M339.5,215.1L339.5,215.1
								c-7.4-2.7-17.2,1.3-23.9,9.7c-3.8,4.7-6.1,10.3-6.6,15.6c-0.5,5.8,1.2,10.8,4.9,13.9c1.2,1,2.5,1.7,3.9,2.2
								c7.4,2.7,17.2-1.3,23.9-9.7c3.8-4.7,6.1-10.3,6.6-15.6c0.5-5.8-1.2-10.8-4.9-13.9C342.2,216.4,340.9,215.6,339.5,215.1
								L339.5,215.1z"/>
						</g>
					</g>
					<g>
						<g>
							<path class="st14" d="M344.2,224.5c-0.3,4.5-2.3,9.6-5.9,14c-7,8.7-17.3,11.9-23.1,7c-1.4-1.2-2.4-2.7-3-4.5
								c-0.3,4.4,0.9,8.2,3.7,10.6c5.8,4.9,16.1,1.7,23.1-7C344.3,238,346.1,230.1,344.2,224.5z"/>
						</g>
					</g>
				</g>
				<g>
					<g>
						<g>
							<path class="st14" d="M404.6,350.9c-7.5-2.7-12.9-12.6-13.2-24c-0.4-13.7,6.9-25,16.1-25.1c1.4,0,2.9,0.2,4.3,0.7
								c7.5,2.7,12.9,12.6,13.2,24c0.4,13.7-6.9,25-16.1,25.1C407.4,351.6,406,351.4,404.6,350.9z"/>
							<path class="st9" d="M411.2,304.1c6.6,2.4,11.8,11.5,12.1,22.4c0.3,12.8-6.1,23.3-14.5,23.4c-1.3,0-2.5-0.2-3.7-0.6
								c-6.6-2.4-11.8-11.5-12.1-22.4c-0.4-12.8,6.1-23.3,14.5-23.4C408.8,303.5,410,303.7,411.2,304.1 M412.3,300.9L412.3,300.9
								c-1.6-0.6-3.2-0.9-4.9-0.8c-10.4,0.1-18.2,11.9-17.8,26.9c0.3,12.1,6.2,22.6,14.3,25.6c1.6,0.6,3.2,0.9,4.9,0.8
								c10.4-0.1,18.2-11.9,17.8-26.9C426.3,314.4,420.4,303.8,412.3,300.9L412.3,300.9z"/>
						</g>
					</g>
					<g>
						<path class="st14" d="M423.3,326.5c-0.3-10.9-5.4-19.9-12.1-22.3c1.3,3.4,2.2,7.2,2.3,11.4c0.3,12.8-6.1,23.3-14.5,23.4
							c-1.3,0-2.5-0.2-3.7-0.7c2.8,7,7.8,11.7,13.5,11.6C417.2,349.8,423.6,339.3,423.3,326.5z"/>
					</g>
				</g>
				<g>
					<path class="st13" d="M318.5,381.6c-4.7-1.7-9-3.4-13.3-5c-4.3-1.7-8.6-3.4-13-5.1c-10.7-4.2-21.8-8.5-32.7-12.6l-2-0.8
						c-5.2-1.9-10.5-3.9-15.6-6.2c-10.4-4.7-23.3-10.6-26.4-21.2c-1.7-5.6-0.3-11.9,4.2-18.8c8.1-12.6,21.4-8.2,33.2-4.3l2.2,0.7
						c0.6,0.2,1.3,0.4,1.9,0.7c3.7,1.4,7.3,3.1,10.8,4.8c1.7,0.8,3.4,1.7,5.2,2.4c8.2,3.7,17.2,7.3,28.4,11.4l2.9,1.1
						c3.1,1.1,6.3,2.3,9.4,3.4c4.8,1.8,9.6,3.5,14.4,5.3c24,8.9,49.8,18.9,81,31.4l2.6,1c5.1,2,10.4,4.1,15.4,6.9
						c2,1.1,3.9,1.9,5.8,2.6c6.9,2.8,12.8,5.2,9.9,20.1c-0.1,0.7-0.3,1.5-0.4,2.4c-0.8,4.8-1.7,10.8-6.1,12.9
						c-9.2,4.5-30.4-2.2-51.9-10.1l-2.9-1.1c-2.6-1-5.1-1.9-6.6-2.3c-4.6-1.4-9.1-3-13.7-4.7l-2.6-1c-2.4-0.9-4.9-1.8-7.3-2.6
						l-0.9-0.3C339.7,389.1,329,385.5,318.5,381.6z"/>
					<path class="st9" d="M256.3,310.6c5.5,2,10.5,4.8,15.9,7.2c9.3,4.2,18.9,8,28.5,11.5c1,0.4,1.9,0.7,2.9,1.1
						c3.1,1.1,6.3,2.3,9.4,3.4c4.8,1.8,9.6,3.5,14.4,5.3c27.1,10.1,54.1,20.6,81,31.4c6,2.4,12.1,4.6,17.8,7.8
						c9.6,5.3,18.1,3.7,14.8,20.8c-0.9,4.5-1.3,12-5.6,14.1c-9.5,4.6-35.5-4.6-50.6-10.1c-1-0.4-2-0.7-2.9-1.1
						c-2.9-1.1-5.2-1.9-6.7-2.3c-4.6-1.4-9.1-3-13.6-4.6c-0.9-0.3-1.8-0.6-2.6-1c-2.4-0.9-4.9-1.8-7.4-2.6
						c-10.9-3.7-21.7-7.4-32.5-11.4c-4.4-1.6-8.8-3.3-13.2-5c-15.2-5.9-30.4-12-45.7-17.7c-5.9-2.2-11.8-4.3-17.5-7
						c-15.3-7-35.2-16.3-21.5-37.5c7.9-12.3,21.4-6.8,33.4-2.9C255.1,310.2,255.7,310.4,256.3,310.6 M257.4,307.4
						c-0.6-0.2-1.3-0.5-1.9-0.7l-2.2-0.7c-11.7-3.9-26.3-8.7-35.1,5c-4.7,7.3-6.2,14.1-4.4,20.2c3.3,11.4,16.7,17.4,27.4,22.3
						c5.2,2.4,10.5,4.4,15.7,6.3l2,0.8c10.9,4.1,22,8.4,32.7,12.6c4.3,1.7,8.6,3.4,13,5.1c4.2,1.6,8.6,3.3,13.3,5
						c10.5,3.8,21.2,7.5,31.6,11.1l0.9,0.3c2.5,0.9,5.1,1.8,7.3,2.6l1.3,0.5l1.3,0.5c4.6,1.7,9.1,3.3,13.8,4.7
						c1.4,0.4,3.9,1.3,6.5,2.3l1.4,0.5l1.5,0.6c21.9,8,43.4,14.7,53.2,10c5.2-2.5,6.3-9.3,7.1-14.2c0.1-0.8,0.3-1.6,0.4-2.3
						c3.2-16.3-4-19.2-10.9-22c-1.8-0.7-3.7-1.5-5.6-2.6c-5-2.8-10.4-4.9-15.6-7c-0.9-0.3-1.7-0.7-2.6-1
						c-31.3-12.5-57-22.4-81.1-31.4c-4.8-1.8-9.6-3.6-14.4-5.3c-3.1-1.1-6.3-2.3-9.4-3.4c-1-0.3-1.9-0.7-2.9-1.1
						c-11.1-4.1-20.1-7.7-28.3-11.4c-1.7-0.8-3.5-1.6-5.1-2.4C264.9,310.5,261.2,308.8,257.4,307.4L257.4,307.4z"/>
				</g>
				<g>
					<path class="st13" d="M441,399c3.3-17.1-5.2-15.5-14.8-20.8c-5.7-3.1-11.7-5.4-17.8-7.8c-17.8-7.1-35.7-14.1-53.6-21
						c-14.2,10.4-28.7,22.2-45,27.1c13.8,5.3,27.6,10,41.6,14.8c7.9,2.7,15.6,5.9,23.6,8.2c8.8,2.6,48,19.5,60.2,13.6
						C439.7,411,440.1,403.5,441,399z"/>
				</g>
				<g class="st17">
					<g>
						<path class="st18" d="M248.7,313.1c-9.7-6.8-24.4,2.8-26.1,13.7c-1.1,6.9,9.4,9.1,10.5,2.2c0.3-1.9,2-3.8,3.9-5.3
							c1.2-0.9,2.4-1.5,3.9-2c0.7-0.2,1.8,0.2,0.9-0.5c2.4,1.7,5.4,2,7.5-0.4C250.9,318.8,251.1,314.8,248.7,313.1L248.7,313.1z"/>
					</g>
					<g>
						<path class="st18" d="M260.2,328.4c6.5,2.4,9.9-7.9,3.4-10.3C257.1,315.7,253.7,326,260.2,328.4L260.2,328.4z"/>
					</g>
				</g>
			</g>
			<g>
				<g>
					<g>
						<path class="st9" d="M336.8,284.6c-1.6,4.7-6.5,7.1-11.1,5.4c-4.6-1.7-7-6.8-5.5-11.5c1.6-4.7,6.5-7.1,11.1-5.4
							C335.9,274.8,338.4,280,336.8,284.6z"/>
						<path class="st18" d="M328.7,277.6c-0.5,1.5-2.1,2.3-3.5,1.7c-1.5-0.5-2.2-2.2-1.7-3.7c0.5-1.5,2.1-2.3,3.5-1.7
							C328.4,274.5,329.2,276.1,328.7,277.6z"/>
						<path class="st18" d="M327.2,281.7c-0.2,0.6-0.8,0.9-1.3,0.7c-0.5-0.2-0.8-0.8-0.7-1.4c0.2-0.6,0.8-0.8,1.3-0.6
							C327.1,280.5,327.4,281.1,327.2,281.7z"/>
						<path class="st18" d="M329.9,279.6c-0.1,0.3-0.5,0.5-0.8,0.4s-0.5-0.5-0.4-0.9c0.1-0.4,0.5-0.5,0.8-0.4S330,279.3,329.9,279.6
							z"/>
						<path class="st19" d="M328.6,291.1c-0.3,1-3.9,0.7-7.9-0.8c-4-1.5-7-3.5-6.6-4.5c0.3-1,3.9-0.7,7.9,0.8
							C326,288,328.9,290,328.6,291.1z"/>
					</g>
					<g>
						<path class="st9" d="M380.6,300.6c-1.6,4.7-6.5,7.1-11.1,5.4c-4.6-1.7-7-6.8-5.5-11.5c1.6-4.7,6.5-7.1,11.1-5.4
							C379.7,290.8,382.2,296,380.6,300.6z"/>
						<path class="st18" d="M372.5,293.6c-0.5,1.5-2.1,2.3-3.5,1.7c-1.5-0.5-2.2-2.2-1.7-3.7c0.5-1.5,2.1-2.3,3.5-1.7
							C372.2,290.5,373,292.1,372.5,293.6z"/>
						<path class="st18" d="M370.9,297.7c-0.2,0.6-0.8,0.9-1.3,0.7c-0.6-0.2-0.8-0.8-0.7-1.4c0.2-0.6,0.8-0.8,1.3-0.6
							C370.8,296.5,371.1,297.1,370.9,297.7z"/>
						<path class="st18" d="M373.7,295.6c-0.1,0.3-0.5,0.5-0.8,0.4c-0.3-0.1-0.5-0.5-0.4-0.9c0.1-0.4,0.5-0.5,0.8-0.4
							C373.6,294.9,373.8,295.3,373.7,295.6z"/>
						<path class="st19" d="M380.8,310.2c-0.3,1-3.9,0.7-7.9-0.8c-4-1.5-7-3.5-6.6-4.5c0.3-1,3.9-0.7,7.9,0.8
							C378.2,307.1,381.1,309.1,380.8,310.2z"/>
					</g>
				</g>
				<g>
					<path class="st22" d="M370.9,287c0,0,5.8,4.9,12.5,1.2"/>
					<path class="st22" d="M335.6,267.9c0,0-5.8-4.9-12.5-1.2"/>
				</g>
				<g>
					<g>
						
							<ellipse transform="matrix(0.3 -0.9539 0.9539 0.3 -39.5308 540.2976)" class="st14" cx="348.4" cy="297.1" rx="6.6" ry="4.2"/>
						<path class="st9" d="M350.2,291.8c1.6,0.6,2.2,3.4,1.2,6.4c-1,2.9-3.1,4.8-4.7,4.2c-1.6-0.6-2.2-3.4-1.2-6.4
							C346.4,293.1,348.5,291.2,350.2,291.8 M350.8,289.9c-2.8-1-5.9,1.3-7.3,5.4c-1.4,4.1-0.3,8,2.5,9s5.9-1.3,7.3-5.4
							C354.7,294.8,353.6,290.9,350.8,289.9L350.8,289.9z"/>
					</g>
					<g>
						<path class="st18" d="M351.5,296.8c-0.1-0.1-0.3-0.1-0.4-0.3c-0.7-0.7-1.5-1.3-2.4-1.6c-0.6-0.2-1.3-0.4-2-0.4
							c-0.1,0-0.2,0-0.3-0.1c-0.2-0.1-0.5-0.3-0.6-0.5c-0.2-0.4-0.1-0.8,0.1-1.1c1.4-1.8,3.1-2.6,4.6-2c1.6,0.6,2.5,2.5,2.4,5
							c0,0.4-0.3,0.8-0.7,0.9C352,296.8,351.7,296.8,351.5,296.8z"/>
						<g>
							<path class="st9" d="M350.2,291.8c1.2,0.4,1.8,2,1.7,4c-0.8-0.8-1.8-1.5-2.8-1.9c-0.8-0.3-1.5-0.4-2.3-0.4
								C347.7,292.1,349.1,291.4,350.2,291.8 M350.8,289.9c-1.9-0.7-4.1,0.2-5.7,2.4c-0.5,0.6-0.5,1.5-0.2,2.2
								c0.2,0.5,0.7,0.9,1.2,1.1c0.2,0.1,0.4,0.1,0.6,0.1c0.5,0,1.1,0.1,1.6,0.3c0.8,0.3,1.5,0.7,2.1,1.3c0.2,0.2,0.5,0.4,0.8,0.5
								c0.4,0.2,0.9,0.2,1.4,0c0.7-0.3,1.3-1,1.3-1.8C354,292.9,352.9,290.6,350.8,289.9L350.8,289.9z"/>
						</g>
					</g>
				</g>
			</g>
		</g>
	</g>
</g>
</svg>
