<svg id="Capa_1" enable-background="new 0 0 512 512" height="512" viewBox="0 0 512 512" width="512" xmlns="http://www.w3.org/2000/svg"><g><path d="m336.854 316.912c-12.622 0-23.241-9.808-24.068-22.582-.862-13.305 9.225-24.791 22.53-25.653 36.985-2.397 71.583-43.326 83.32-70.233 5.331-12.221 19.563-17.807 31.781-12.475 12.221 5.331 17.807 19.56 12.475 31.781-26.832 61.511-82.919 96.419-124.454 99.11-.53.034-1.059.052-1.584.052z" fill="#cde9fa"/><path d="m426.699 188.476c-3.426 2.451-6.256 5.827-8.062 9.968-11.738 26.907-46.335 67.836-83.32 70.233-13.305.862-23.393 12.348-22.53 25.653.827 12.774 11.446 22.582 24.068 22.582.525 0 1.054-.017 1.585-.052 5.699-.369 11.678-1.367 17.812-2.935 4.283-2.407 8.412-4.957 12.362-7.657 37.753-25.8 58.544-63.705 58.544-106.733-.001-3.71-.162-7.397-.459-11.059z" fill="#8daee1"/><g><path d="m213.456 172.523c-1.377 16.651-15.992 29.033-32.643 27.656-14.324-1.185-25.488-12.165-27.453-25.811l-.26-1.846c-5.453-37.804-37.272-67.507-68.928-88.878-20.936-14.134-26.451-42.565-12.316-63.503 16.212-24.014 50.452-27.112 70.727-6.283 41.983 43.131 75.853 98.459 70.873 158.665z" fill="#8daee1"/><path d="m98.403 93.876c26.416 20.279 50.066 46.539 54.698 78.646l.26 1.846c1.965 13.646 13.129 24.626 27.453 25.81 16.651 1.377 31.266-11.005 32.643-27.656 3.681-44.509-13.881-86.346-40.247-122.566-27.826 8.937-53.625 23.609-74.807 43.92z" fill="#6a95d6"/><path d="m268.232 172.523c1.377 16.651 15.992 29.033 32.643 27.656 14.324-1.185 25.488-12.165 27.453-25.811l.259-1.846c5.454-37.804 37.272-67.507 68.928-88.878 20.937-14.135 26.452-42.566 12.317-63.503-16.212-24.014-50.452-27.112-70.726-6.283-41.984 43.131-75.854 98.459-70.874 158.665z" fill="#8daee1"/><path d="m308.478 49.957c-26.366 36.22-43.928 78.057-40.247 122.566 1.377 16.651 15.992 29.033 32.643 27.656 14.323-1.185 25.488-12.165 27.453-25.81l.26-1.846c4.632-32.107 28.282-58.367 54.698-78.646-21.222-20.348-47.032-35.001-74.807-43.92z" fill="#6a95d6"/><path d="m399.342 199.535c0 71.305-70.962 114.058-158.498 114.058s-158.498-42.753-158.498-114.058 70.962-129.109 158.498-129.109 158.498 57.804 158.498 129.109z" fill="#cde9fa"/><g><g fill="#fff"><ellipse cx="144.81" cy="216.39" rx="35.435" ry="28.218"/><ellipse cx="336.878" cy="216.39" rx="35.435" ry="28.218"/></g><g fill="#4e5660"><path d="m165.461 196.726c-4.142 0-7.5-3.358-7.5-7.5v-14.486c0-4.142 3.358-7.5 7.5-7.5s7.5 3.358 7.5 7.5v14.485c0 4.143-3.357 7.501-7.5 7.501z"/><path d="m316.227 196.726c-4.142 0-7.5-3.358-7.5-7.5v-14.486c0-4.142 3.358-7.5 7.5-7.5s7.5 3.358 7.5 7.5v14.485c0 4.143-3.358 7.501-7.5 7.501z"/><path d="m240.844 205.349c-9.785 0-19.089-4.238-25.528-11.627-2.721-3.123-2.396-7.86.727-10.582 3.122-2.721 7.86-2.396 10.581.727 3.589 4.119 8.773 6.481 14.22 6.481 5.448 0 10.631-2.362 14.22-6.481 2.721-3.124 7.459-3.448 10.581-.727 3.123 2.721 3.448 7.459.727 10.582-6.438 7.389-15.744 11.627-25.528 11.627z"/></g></g></g><path d="m47.087 339.801v143.49c0 15.856 12.853 28.709 28.709 28.709h330.096c15.855 0 28.709-12.853 28.709-28.709v-143.49z" fill="#fbf1cf"/><path d="m149.984 339.801h-102.897v143.49c0 15.856 12.853 28.709 28.709 28.709h142.89c-49.97-36.916-69.48-98.212-68.702-172.199z" fill="#f7dfb7"/><path d="m434.601 339.801h-387.514v-34.529c0-15.855 12.853-28.709 28.709-28.709h330.096c15.855 0 28.709 12.853 28.709 28.709z" fill="#808ea3"/><path d="m75.796 276.563c-15.855 0-28.709 12.853-28.709 28.709v34.529h102.892c.213-20.212 1.94-41.37 4.975-63.237h-79.158z" fill="#646f7e"/><path d="m387.666 473.644c-1.919 0-3.839-.732-5.303-2.197l-15.652-15.652c-2.929-2.929-2.929-7.678 0-10.606 2.929-2.929 7.678-2.93 10.606 0l15.652 15.652c2.929 2.929 2.929 7.678 0 10.607-1.464 1.463-3.384 2.196-5.303 2.196z" fill="#4e5660"/><g><path d="m386.455 436.051-28.881 28.881c-6.508 6.508-17.606 3.724-20.272-5.086l-12.025-39.743c-3.033-10.023 6.327-19.383 16.35-16.35l39.743 12.025c8.809 2.666 11.593 13.764 5.085 20.273z" fill="#4e5660"/></g><path d="m163.908 470.035h-55.631c-9.023 0-16.337-7.314-16.337-16.337v-55.631c0-9.023 7.314-16.337 16.337-16.337h55.631c9.023 0 16.337 7.314 16.337 16.337v55.631c0 9.022-7.315 16.337-16.337 16.337z" fill="#d0c3e8"/><path d="m108.276 470.035h55.632c5.108 0 9.666-2.347 12.661-6.019-13.318-23.699-21.219-51.478-24.617-82.286h-43.676c-9.023 0-16.337 7.314-16.337 16.337v55.632c0 9.021 7.315 16.336 16.337 16.336z" fill="#bface1"/><path d="m290.117 410.009h-65.666c-4.142 0-7.5-3.358-7.5-7.5s3.358-7.5 7.5-7.5h65.666c4.142 0 7.5 3.358 7.5 7.5s-3.358 7.5-7.5 7.5z" fill="#eda1ab"/><path d="m263.664 456.754h-39.212c-4.142 0-7.5-3.358-7.5-7.5s3.358-7.5 7.5-7.5h39.212c4.142 0 7.5 3.358 7.5 7.5s-3.358 7.5-7.5 7.5z" fill="#4e5660"/><path d="m402.619 308.182c0-3.797-3.078-6.875-6.875-6.875s-6.875 3.078-6.875 6.875 3.078 6.875 6.875 6.875 6.875-3.078 6.875-6.875z" fill="#eda1ab"/><path d="m368.808 308.182c0-3.797-3.078-6.875-6.875-6.875s-6.875 3.078-6.875 6.875 3.078 6.875 6.875 6.875 6.875-3.078 6.875-6.875z" fill="#f6ee86"/><path d="m334.997 308.182c0-3.797-3.078-6.875-6.875-6.875s-6.875 3.078-6.875 6.875 3.078 6.875 6.875 6.875 6.875-3.078 6.875-6.875z" fill="#8de1e0"/><path d="m91.939 425.882v27.816c0 9.023 7.314 16.337 16.337 16.337h55.631c9.023 0 16.337-7.314 16.337-16.337v-27.816z" fill="#8daee1"/><path d="m108.276 470.035h55.632c5.108 0 9.666-2.347 12.661-6.019-6.603-11.75-11.873-24.504-15.924-38.134h-68.706v27.816c0 9.022 7.315 16.337 16.337 16.337z" fill="#6a95d6"/><path d="m83.482 298.602c-5.724-6.526-9.381-13.896-12.481-20.888-5.419-12.223.098-26.525 12.321-31.944 12.225-5.417 26.525.098 31.944 12.321 2.029 4.578 3.496 7.306 4.617 8.583 8.816 10.051 7.815 25.347-2.236 34.164-10.028 8.796-25.327 7.84-34.165-2.236z" fill="#a2ddfd"/></g></svg>