<svg id="Capa_1" enable-background="new 0 0 512 512" height="512" viewBox="0 0 512 512" width="512" xmlns="http://www.w3.org/2000/svg"><ellipse cx="194.352" cy="194.352" fill="#e1b89a" rx="133.867" ry="239.995" transform="matrix(.707 -.707 .707 .707 -80.503 194.352)"/><path d="m167.544 16.512c-58.212-23.647-112.053-22.703-142.894 8.138-52.278 52.278-18.68 170.636 75.043 264.36 60.367 60.367 130.95 95.781 187.517 99.38-93.23-62.454-141.352-264.666-119.666-371.878z" fill="#d2996f"/><path d="m240.842 224.894c-30.084 0-56.956 10.992-74.673 20.58-11.083 5.998-11.083 21.982 0 27.98 17.717 9.588 44.589 20.581 74.673 20.581s56.956-10.993 74.673-20.581c11.083-5.998 11.083-21.982 0-27.98-17.717-9.587-44.589-20.58-74.673-20.58z" fill="#fcf2d0"/><path d="m166.169 273.455c11.611 6.284 27.17 13.151 44.972 17.151-8.346-17.576-15.694-36.331-21.994-55.661-8.698 3.29-16.461 7.003-22.978 10.529-11.083 5.999-11.083 21.983 0 27.981z" fill="#f6e3a3"/><path d="m147.862 163.809c30.084 0 56.956-10.993 74.673-20.581 11.083-5.998 11.083-21.982 0-27.98-17.717-9.588-44.589-20.58-74.673-20.58s-56.956 10.993-74.673 20.58c-11.083 5.998-11.083 21.982 0 27.98 17.716 9.589 44.589 20.581 74.673 20.581z" fill="#fcf2d0"/><path d="m170.74 161.753c-4.089-22.557-6.714-44.9-7.785-66.164-4.921-.579-9.956-.921-15.094-.921-30.084 0-56.956 10.993-74.673 20.581-11.083 5.998-11.083 21.982 0 27.98 17.717 9.588 44.589 20.58 74.673 20.58 7.886 0 15.542-.769 22.879-2.056z" fill="#f6e3a3"/><path d="m204.749 512c-77.416 0-204.749-5.968-204.749-70.544 0-117.328 238.268-126.794 328.324-126.794z" fill="#e1b89a"/><path d="m0 441.456c0 45.455 63.09 61.871 127.451 67.607-61.437-37.984-60.996-117.044-38.915-162.521-50.953 18.735-88.536 48.317-88.536 94.914z" fill="#d2996f"/><path d="m451.899 512h-247.15c-15.718 0-30.621-6.992-40.667-19.08-28.109-33.82-25.434-83.581 6.137-114.193 88.097-85.421 228.113-85.421 316.21 0 31.572 30.612 34.246 80.373 6.138 114.193-10.047 12.088-24.95 19.08-40.668 19.08z" fill="#fcf2d0"/><g fill="#f6e3a3"><ellipse cx="384.542" cy="357.817" rx="7.476" ry="7.476" transform="matrix(.973 -.23 .23 .973 -71.923 97.922)"/><ellipse cx="306.896" cy="350.341" rx="7.476" ry="7.476" transform="matrix(.973 -.23 .23 .973 -72.282 79.882)"/><ellipse cx="227.487" cy="372.769" rx="7.476" ry="7.476" transform="matrix(.973 -.23 .23 .973 -79.56 62.238)"/><ellipse cx="374.036" cy="480.224" rx="7.476" ry="7.476" transform="matrix(.973 -.23 .23 .973 -100.327 98.782)"/><ellipse cx="186.876" cy="433.097" rx="7.476" ry="7.476" transform="matrix(.973 -.23 .23 .973 -94.507 54.522)"/><ellipse cx="287.21" cy="480.224" rx="7.476" ry="7.476" transform="matrix(.973 -.23 .23 .973 -102.649 78.833)"/><ellipse cx="469.388" cy="399.26" rx="7.476" ry="7.476" transform="matrix(.973 -.23 .23 .973 -79.174 118.523)"/></g><ellipse cx="234.962" cy="447.603" fill="#eda1ab" rx="36.009" ry="28.676"/><ellipse cx="430.143" cy="447.603" fill="#eda1ab" rx="36.009" ry="28.676"/><path d="m273.088 423.899c-4.143 0-7.5-3.357-7.5-7.5 0-5.315-4.324-9.64-9.64-9.64-5.315 0-9.64 4.324-9.64 9.64 0 4.143-3.357 7.5-7.5 7.5s-7.5-3.357-7.5-7.5c0-13.586 11.054-24.64 24.64-24.64s24.64 11.054 24.64 24.64c0 4.143-3.357 7.5-7.5 7.5z" fill="#4e5660"/><path d="m426.296 423.899c-4.143 0-7.5-3.357-7.5-7.5 0-5.315-4.324-9.64-9.639-9.64s-9.64 4.324-9.64 9.64c0 4.143-3.357 7.5-7.5 7.5s-7.5-3.357-7.5-7.5c0-13.586 11.054-24.64 24.64-24.64s24.639 11.054 24.639 24.64c0 4.143-3.357 7.5-7.5 7.5z" fill="#4e5660"/><path d="m332.553 452.214c-9.135 0-17.822-3.956-23.835-10.854-2.721-3.122-2.397-7.86.727-10.582 3.122-2.721 7.859-2.396 10.582.727 3.162 3.629 7.728 5.71 12.526 5.71s9.364-2.081 12.526-5.71c2.722-3.123 7.46-3.448 10.582-.727 3.123 2.722 3.447 7.46.727 10.582-6.013 6.898-14.7 10.854-23.835 10.854z" fill="#4e5660"/><path d="m288.557 172.516c-8.907 8.907-11.815 21.668-12.752 29.781-.49 4.245 3.096 7.831 7.341 7.341 8.113-.937 20.874-3.845 29.781-12.752s11.815-21.668 12.752-29.781c.49-4.245-3.096-7.831-7.341-7.341-8.113.937-20.874 3.845-29.781 12.752z" fill="#f7ef87"/><path d="m105.623 231.519c8.907 8.907 21.668 11.815 29.781 12.752 4.245.49 7.831-3.096 7.341-7.341-.937-8.113-3.845-20.874-12.752-29.781s-21.668-11.815-29.781-12.752c-4.245-.49-7.831 3.096-7.341 7.341.937 8.113 3.845 20.874 12.752 29.781z" fill="#f7ef87"/><path d="m115.266 85.224c8.907 8.907 21.668 11.815 29.781 12.752 4.245.49 7.831-3.096 7.341-7.341-.937-8.113-3.845-20.874-12.752-29.781s-21.668-11.815-29.781-12.752c-4.245-.49-7.831 3.096-7.341 7.341.937 8.112 3.845 20.874 12.752 29.781z" fill="#f7ef87"/><path d="m161.042 355.051c8.907-8.907 11.815-21.668 12.752-29.781.49-4.245-3.096-7.831-7.341-7.341-8.113.937-20.874 3.845-29.781 12.752s-11.815 21.668-12.752 29.781c-.49 4.245 3.096 7.831 7.341 7.341 8.113-.937 20.874-3.845 29.781-12.752z" fill="#f7ef87"/><path d="m75.911 376.204c-8.907-8.907-21.668-11.815-29.781-12.752-4.245-.49-7.831 3.096-7.341 7.341.937 8.113 3.845 20.874 12.752 29.781s21.668 11.815 29.781 12.752c4.245.49 7.831-3.096 7.341-7.341-.937-8.112-3.845-20.874-12.752-29.781z" fill="#f7ef87"/><path d="m245.311 208.411h-14.464c-4.143 0-7.5-3.357-7.5-7.5s3.357-7.5 7.5-7.5h14.464c4.143 0 7.5 3.357 7.5 7.5s-3.358 7.5-7.5 7.5z" fill="#d2996f"/><path d="m70.958 88.103h-14.464c-4.142 0-7.5-3.357-7.5-7.5s3.358-7.5 7.5-7.5h14.464c4.143 0 7.5 3.357 7.5 7.5 0 4.142-3.357 7.5-7.5 7.5z" fill="#e1b89a"/><path d="m354.231 293.496h-14.464c-4.143 0-7.5-3.357-7.5-7.5s3.357-7.5 7.5-7.5h14.464c4.142 0 7.5 3.357 7.5 7.5s-3.358 7.5-7.5 7.5z" fill="#d2996f"/></svg>