<svg id="Layer_1" enable-background="new 0 0 497 497" height="512" viewBox="0 0 497 497" width="512" xmlns="http://www.w3.org/2000/svg"><g><g><path d="m324.067 317c-6.262-8.857-11.953-22.042-31.478-32.494 4.051-17.874-6.948-40.788-31.36-44.709-.734-25.332-27.868-35.447-51.061-28.636-7.456-9.135-20.135-13.221-33.12-13.221-12.834 0-25.671 4.07-33.138 13.208-23.485-6.808-50.239 3.426-50.99 28.65-23.735 3.875-35.483 25.874-31.427 44.697-19.533 10.455-25.268 23.7-31.493 32.505v20h147.034 147.033z" fill="#ffb357"/><g><path d="m273.511 165.885c-21.576-21.575-52.876-27.479-79.788-17.74l-84.145-124.871v-.001h-30.268v104.071l68.814 66.364c-9.768 26.926-3.871 58.254 17.719 79.845 29.731 29.731 109.423 61.218 139.154 31.487s-1.754-109.424-31.486-139.155z" fill="#9ea2e3"/><g fill="#8288cb"><path d="m109.578 23.274c-11.735-14.586-29.428-23.274-48.132-23.274-33.881 0-61.446 27.564-61.446 61.446 0 18.703 8.365 36.16 22.952 47.896.155.125.316.243.481.354l124.692 84.011c-40.44-46.761-54.971-110.827-38.547-170.433z"/><path d="m252.298 187.099c-13.247-13.247-32.246-16.579-48.367-10.744-11.927 4.316-23.279 15.659-27.605 27.583-6.092 16.793-1.879 35.792 10.731 48.402 6.455 6.455 16.741 13.33 28.491 19.242l56.029-56.029c-6.395-12.625-13.562-22.738-19.279-28.454z"/></g></g><path d="m467 317c-6.262-8.857-11.953-22.042-31.478-32.494 4.051-17.874-6.948-40.788-31.36-44.709-.734-25.332-27.868-35.447-51.061-28.636-7.456-9.135-20.135-13.221-33.12-13.221-12.834 0-25.671 4.07-33.138 13.208-23.485-6.808-50.239 3.426-50.99 28.65-23.735 3.875-35.483 25.874-31.427 44.697-19.533 10.454-25.269 23.699-31.493 32.504v20h147.034 147.033z" fill="#ffce71"/></g><g><path d="m467 317h-437l216.849 158.609c17.892 13.086 39.484 20.14 61.65 20.14 19.885-2.892 39.445-10.816 56.225-23.749 22.954-17.701 43.372-38.483 60.672-61.763 7.864-10.581 15.084-21.678 21.604-33.237h19.325c16.864 0 31.032-13.802 30.668-30.662-.352-16.293-13.67-29.338-29.993-29.338z" fill="#efedff"/><path d="m170 377h-20c-16.568 0-30-13.432-30-30s13.432-30 30-30h-120c-16.568 0-30 13.432-30 30s13.432 30 30 30h20c20.865 36.987 48.889 69.253 82.276 95 21.012 16.203 46.795 25 73.329 25h85.79c5.752 0 11.465-.432 17.104-1.251-20.379-2.937-39.767-11.059-56.224-23.749-33.386-25.747-61.41-58.013-82.275-95z" fill="#d4d4ff"/></g><g><g><g><ellipse cx="170.798" cy="444.026" fill="#ff8e9e" rx="27.5" ry="21.9"/></g><g><ellipse cx="326.202" cy="444.026" fill="#ff8e9e" rx="27.5" ry="21.9"/></g></g></g><g><g fill="#ffb357"><path d="m306.202 94.97c-8.284 0-15 6.716-15 15-8.284 0-15 6.716-15 15s6.716 15 15 15c16.542 0 30-13.458 30-30 0-8.284-6.716-15-15-15z"/><path d="m419.309 136.257c-5.858-5.858-15.355-5.858-21.213 0-11.697 11.697-11.697 30.729 0 42.426 5.858 5.858 15.355 5.858 21.213 0s5.858-15.355 0-21.213c5.857-5.858 5.857-15.355 0-21.213z"/><path d="m389.915 58.077c5.858-5.858 5.858-15.355 0-21.213s-15.355-5.858-21.213 0c-5.858-5.858-15.355-5.858-21.213 0s-5.858 15.355 0 21.213c11.697 11.696 30.729 11.696 42.426 0z"/><path d="m292.202 259.97c0-8.284-6.716-15-15-15s-15 6.716-15 15c0 16.542 13.458 30 30 30 8.284 0 15-6.716 15-15s-6.716-15-15-15z"/><path d="m348.095 244.257c-11.697 11.697-11.697 30.729 0 42.426 5.858 5.858 15.355 5.858 21.213 0s5.858-15.355 0-21.213c5.858-5.858 5.858-15.355 0-21.213-5.857-5.858-15.355-5.858-21.213 0z"/></g><path d="m96.298 302c0-16.542 13.458-30 30-30 8.284 0 15 6.716 15 15s-6.716 15-15 15c0 8.284-6.716 15-15 15s-15-6.716-15-15z" fill="#ffce71"/></g><g fill="#313d40"><path d="m193.551 429v-12c0-4.143-3.358-7.5-7.5-7.5s-7.5 3.357-7.5 7.5v12c0 4.143 3.358 7.5 7.5 7.5s7.5-3.357 7.5-7.5z"/><path d="m318.449 429v-12c0-4.143-3.358-7.5-7.5-7.5s-7.5 3.357-7.5 7.5v12c0 4.143 3.358 7.5 7.5 7.5s7.5-3.357 7.5-7.5z"/><path d="m248.5 443.644c8.478 0 16.54-3.672 22.119-10.073 2.721-3.123 2.396-7.86-.727-10.582s-7.861-2.396-10.582.727c-2.729 3.133-6.669 4.929-10.81 4.929s-8.081-1.796-10.81-4.929c-2.722-3.122-7.459-3.447-10.582-.727-3.123 2.722-3.448 7.459-.727 10.582 5.58 6.401 13.642 10.073 22.119 10.073z"/></g></g></svg>