<svg height="512pt" viewBox="0 -95 512 512" width="512pt" xmlns="http://www.w3.org/2000/svg"><path d="m244.074219 145.019531c0 51.601563-41.832031 93.4375-93.4375 93.4375-51.601563 0-93.4375-41.835937-93.4375-93.4375 0-51.605469 41.835937-145.019531 93.4375-145.019531 51.605469 0 93.4375 93.414062 93.4375 145.019531zm0 0" fill="#ffeab7"/><path d="m107.097656 70.335938c2.019532-29.726563 9.410156-56.785157 9.410156-56.785157-34.726562 27.78125-59.308593 91.910157-59.308593 131.46875 0 51.605469 41.832031 93.4375 93.4375 93.4375 51.601562 0 93.4375-41.832031 93.4375-93.4375 0-6.191406-.601563-12.992187-1.753907-20.152343-29.910156-9.40625-68.578124-11.890626-96.46875-12.273438-22.664062-.3125-40.292968-19.640625-38.753906-42.257812zm0 0" fill="#fad989"/><path d="m454.800781 145.019531c0 51.601563-41.832031 93.4375-93.4375 93.4375-51.601562 0-93.4375-41.835937-93.4375-93.4375 0-51.605469 41.835938-145.019531 93.4375-145.019531 51.605469 0 93.4375 93.414062 93.4375 145.019531zm0 0" fill="#ffeab7"/><path d="m317.824219 70.335938c2.019531-29.726563 9.410156-56.785157 9.410156-56.789063-34.726563 27.78125-59.308594 91.914063-59.308594 131.472656 0 51.601563 41.832031 93.4375 93.4375 93.4375 51.601563 0 93.4375-41.835937 93.4375-93.4375 0-6.195312-.601562-12.992187-1.753906-20.15625-29.910156-9.40625-68.578125-11.886719-96.46875-12.269531-22.667969-.3125-40.292969-19.640625-38.753906-42.257812zm0 0" fill="#fad989"/><path d="m39.273438 163.230469s6.917968 79.082031 53.949218 144.121093c6.265625 8.667969 16.28125 13.835938 26.976563 13.835938h60.878906c10.691406 0 20.710937-5.167969 26.976563-13.835938 47.027343-65.039062 53.945312-144.121093 53.945312-144.121093zm0 0" fill="#e7896e"/><path d="m155.4375 257.007812c46.3125-4.878906 88.570312-18.988281 88.636719-19.011718 14.996093-41.296875 17.925781-74.765625 17.925781-74.765625h-222.726562s6.917968 79.082031 53.949218 144.121093c6.265625 8.667969 16.28125 13.835938 26.976563 13.835938h25.992187c-3.75-9.242188-7.976562-19.726562-11.835937-29.441406-6.234375-15.707032 4.277343-32.964844 21.082031-34.738282zm0 0" fill="#dd6642"/><path d="m250 163.230469s6.921875 79.082031 53.949219 144.121093c6.265625 8.667969 16.28125 13.835938 26.976562 13.835938h60.875c10.695313 0 20.714844-5.167969 26.976563-13.835938 47.03125-65.039062 53.949218-144.121093 53.949218-144.121093zm0 0" fill="#e7896e"/><path d="m366.164062 257.007812c46.3125-4.878906 88.574219-18.988281 88.640626-19.011718 14.992187-41.296875 17.921874-74.765625 17.921874-74.765625h-222.726562s6.921875 79.082031 53.949219 144.121093c6.265625 8.667969 16.28125 13.835938 26.976562 13.835938h25.992188c-3.75-9.242188-7.976563-19.726562-11.835938-29.441406-6.234375-15.707032 4.277344-32.964844 21.082031-34.738282zm0 0" fill="#dd6642"/><path d="m478.597656 215.273438h-445.195312c-18.449219 0-33.402344-14.957032-33.402344-33.402344 0-18.445313 14.953125-33.398438 33.402344-33.398438h445.195312c18.449219 0 33.402344 14.953125 33.402344 33.398438 0 18.445312-14.953125 33.402344-33.402344 33.402344zm0 0" fill="#f2ad9a"/><path d="m117.671875 181.871094c0-18.445313 14.957031-33.398438 33.402344-33.398438h-117.671875c-18.449219-.003906-33.402344 14.949219-33.402344 33.398438 0 18.445312 14.953125 33.402344 33.402344 33.402344h117.671875c-18.445313 0-33.402344-14.957032-33.402344-33.402344zm0 0" fill="#e7896e"/><g fill="#454545"><path d="m199.476562 120.960938c-4.269531 0-7.726562-3.460938-7.726562-7.726563v-12.828125c0-4.265625 3.457031-7.726562 7.726562-7.726562 4.265626 0 7.726563 3.460937 7.726563 7.726562v12.828125c0 4.265625-3.460937 7.726563-7.726563 7.726563zm0 0"/><path d="m101.800781 120.960938c-4.269531 0-7.726562-3.460938-7.726562-7.726563v-12.828125c0-4.265625 3.457031-7.726562 7.726562-7.726562 4.265625 0 7.726563 3.460937 7.726563 7.726562v12.828125c0 4.265625-3.460938 7.726563-7.726563 7.726563zm0 0"/><path d="m155.914062 105.515625c-1.730468 2.542969-4.253906 2.847656-5.277343 2.847656-1.023438 0-3.589844-.277343-5.277344-2.847656-2.34375-3.566406-7.136719-4.558594-10.699219-2.214844-3.566406 2.339844-4.558594 7.132813-2.21875 10.699219 4.039063 6.144531 10.839844 9.816406 18.195313 9.816406s14.152343-3.671875 18.191406-9.816406c2.34375-3.566406 1.351563-8.359375-2.214844-10.699219-1.308593-.859375-7.089843-3.085937-10.699219 2.214844zm0 0"/><path d="m410.199219 120.960938c-4.265625 0-7.726563-3.460938-7.726563-7.726563v-12.828125c0-4.265625 3.460938-7.726562 7.726563-7.726562 4.269531 0 7.726562 3.460937 7.726562 7.726562v12.828125c0 4.265625-3.457031 7.726563-7.726562 7.726563zm0 0"/><path d="m312.523438 120.960938c-4.265626 0-7.726563-3.460938-7.726563-7.726563v-12.828125c0-4.265625 3.460937-7.726562 7.726563-7.726562 4.269531 0 7.726562 3.460937 7.726562 7.726562v12.828125c0 4.265625-3.457031 7.726563-7.726562 7.726563zm0 0"/><path d="m373.671875 118.183594c0-8.105469-5.511719-14.671875-12.308594-14.671875-6.800781 0-12.308593 6.566406-12.308593 14.671875 0 8.101562 5.507812 14.671875 12.308593 14.671875 6.796875 0 12.308594-6.570313 12.308594-14.671875zm0 0"/></g></svg>