<svg height="512pt" viewBox="-83 0 512 512.00079" width="512pt" xmlns="http://www.w3.org/2000/svg"><path d="m263.140625 298.230469c-18.9375 18.9375-70.292969 55.164062-91.53125 33.925781-21.234375-21.238281 14.992187-72.59375 33.929687-91.53125s71.183594-54.273438 91.53125-33.925781c20.34375 20.34375-14.992187 72.59375-33.929687 91.53125zm65.210937-122.816407c-33.183593-33.183593-102.175781-17.996093-154.097656 33.929688-51.925781 51.921875-67.113281 120.914062-33.929687 154.097656 33.183593 33.183594 102.179687 17.996094 154.101562-33.929687 51.921875-51.921875 67.113281-120.914063 33.925781-154.097657zm0 0" fill="#8ed7e8"/><path d="m193.238281 512h-83.492187c-22.699219 0-41.101563-18.402344-41.101563-41.101562v-60.453126h165.695313v60.453126c0 22.699218-18.402344 41.101562-41.101563 41.101562zm0 0" fill="#abebf4"/><path d="m68.644531 470.902344c0 22.699218 18.402344 41.097656 41.101563 41.097656h52.417968c38.972657-34.199219 42.234376-78.617188 40.832032-101.554688h-134.351563zm0 0" fill="#8ed7e8"/><path d="m239.472656 235.21875c-28.160156-19.117188-44.917968-49.9375-44.917968-82.820312v-100.085938c0-16.691406-11.921876-31.257812-28.953126-35.371094l-67.777343-16.367187c-16.011719-3.863281-29.003907 12.515625-20.679688 26.074219l20.585938 33.53125c7.007812 11.410156 10.699219 24.386718 10.699219 37.601562v54.539062c0 32.652344-16.246094 63.632813-44.304688 82.488282-40.015625 26.882812-65.707031 71.734375-64.046875 122.195312 2.511719 76.511719 68.695313 115.179688 149.25 116.246094 84.660156 1.125 153.65625-40.675781 153.65625-120.851562 0-48.324219-25.0625-91.078126-63.511719-117.179688zm0 0" fill="#ccf8ff"/><path d="m103.050781 301.488281c38.175781-52.121093 47.964844-110.945312 49.695313-149.050781 1.035156-22.792969 10.40625-44.289062 26.109375-60.839844 5.855469-6.171875 11.15625-12.882812 15.699219-19.234375v-20.050781c0-16.691406-11.921876-31.257812-28.949219-35.371094l-67.78125-16.367187c-16.011719-3.863281-29.003907 12.515625-20.679688 26.074219l20.585938 33.53125c7.007812 11.410156 10.699219 24.386718 10.699219 37.601562v54.535156c0 32.65625-16.246094 63.636719-44.304688 82.488282-40.015625 26.886718-65.707031 71.738281-64.046875 122.199218 1.925781 58.59375 41.191406 94.992188 95.65625 109.304688-12.355469-22.171875-44.621094-93.910156 7.316406-164.820313zm0 0" fill="#abebf4"/><path d="m.0742188 357.003906c2.5156252 76.507813 68.6953122 115.175782 149.2539062 116.246094 84.660156 1.121094 153.65625-40.675781 153.65625-120.855469 0-32.421875-11.296875-62.328125-30.332031-86.386719h-242.320313c-19.9375 25.195313-31.378906 56.804688-30.2578122 90.996094zm0 0" fill="#ffeb99"/><path d="m124.539062 266.007812h-94.203124c-19.9375 25.195313-31.382813 56.804688-30.257813 90.996094 1.925781 58.59375 41.191406 94.992188 95.65625 109.304688-12.355469-22.171875-44.621094-93.910156 7.316406-164.820313 8.492188-11.59375 15.582031-23.523437 21.488281-35.480469zm0 0" fill="#ffde55"/><path d="m151.492188 408.996094c-15.988282 0-28.949219-12.960938-28.949219-28.949219v-21.046875c0-4.363281 3.539062-7.902344 7.902343-7.902344h42.09375c4.363282 0 7.902344 3.539063 7.902344 7.902344v21.046875c0 15.988281-12.960937 28.949219-28.949218 28.949219zm0 0" fill="#57565c"/><path d="m85.539062 380.046875c0-13.578125-13.824218-24.589844-30.878906-24.589844-17.054687 0-30.878906 11.011719-30.878906 24.589844 0 13.582031 13.824219 24.589844 30.878906 24.589844 17.054688 0 30.878906-11.007813 30.878906-24.589844zm0 0" fill="#ffa6bb"/><path d="m279.203125 380.046875c0-13.578125-13.824219-24.589844-30.878906-24.589844-17.050781 0-30.875 11.011719-30.875 24.589844 0 13.582031 13.824219 24.589844 30.875 24.589844 17.054687 0 30.878906-11.007813 30.878906-24.589844zm0 0" fill="#ffa6bb"/><g fill="#57565c"><path d="m234.582031 366.550781c-4.265625 0-7.726562-3.460937-7.726562-7.726562v-12.828125c0-4.265625 3.460937-7.726563 7.726562-7.726563 4.269531 0 7.726563 3.460938 7.726563 7.726563v12.828125c0 4.265625-3.457032 7.726562-7.726563 7.726562zm0 0"/><path d="m68.402344 366.550781c-4.269532 0-7.726563-3.460937-7.726563-7.726562v-12.828125c0-4.265625 3.457031-7.726563 7.726563-7.726563 4.265625 0 7.726562 3.460938 7.726562 7.726563v12.828125c0 4.265625-3.460937 7.726562-7.726562 7.726562zm0 0"/></g></svg>