<svg id="Capa_1" enable-background="new 0 0 512 512" height="512" viewBox="0 0 512 512" width="512" xmlns="http://www.w3.org/2000/svg"><g><ellipse cx="281.432" cy="218.748" fill="#f6ca8e" rx="230.568" ry="215.09"/><path d="m424.042 387.767c-260.818-41.071-292.603-225.51-245.333-361.618-75.781 35.242-127.846 108.242-127.846 192.599 0 118.791 103.229 215.089 230.568 215.089 53.842.001 103.371-17.218 142.611-46.07z" fill="#f3a977"/><g><path d="m361.175 506.758c-68.33 0-123.722-32.648-123.722-72.921s55.392-72.921 123.722-72.921 148.28 32.648 148.28 72.921c0 40.274-79.95 72.921-148.28 72.921z" fill="#b0da87"/><g fill="#89d47f"><path d="m237.452 433.838c0 32.047 35.076 59.264 83.834 69.046 3.58-2.372 7.109-4.829 10.57-7.39 31.77-23.499 35.149-69.925 7.134-97.94l-29.88-29.88c-42.314 11.587-71.658 36.854-71.658 66.164z"/><path d="m429.958 441.338h-113.009c-4.143 0-7.5-3.357-7.5-7.5s3.357-7.5 7.5-7.5h113.009c4.143 0 7.5 3.357 7.5 7.5s-3.357 7.5-7.5 7.5z"/></g></g><path d="m303.161 412.717s-104.629-49.205-131.481-76.057c-26.851-26.851-76.056-131.48-76.056-131.48l-10.333-10.333c-12.405-12.406-33.023-11.025-43.457 3.079-59.071 79.856-55.973 189.092 11.757 256.823 67.73 67.73 176.966 70.828 256.823 11.757 14.105-10.433 15.485-31.051 3.079-43.456z" fill="#f6ca8e"/><path d="m95.624 205.18c-62.014 62.013-65.827 158.744-8.517 216.054s154.04 53.496 216.054-8.517z" fill="#f6ee86"/><path d="m191.893 461.763c4.995-.149 10.001-.54 15-1.176v-144.138l-15-15h-144.138c-.636 4.999-1.027 10.005-1.176 15h134.707l-99.338 99.338c1.661 1.852 3.38 3.669 5.159 5.448s3.596 3.498 5.448 5.159l99.337-99.337v134.706z" fill="#f2d98d"/><ellipse cx="281.432" cy="64.862" fill="#f3a977" rx="37.957" ry="24.445"/><g><g><path d="m229.657 205.885c0 13.315-13.554 24.109-30.274 24.109s-30.274-10.794-30.274-24.109 13.554-24.109 30.274-24.109c16.72-.001 30.274 10.794 30.274 24.109z" fill="#fff"/><path d="m333.206 205.885c0 13.315 13.554 24.109 30.274 24.109s30.274-10.794 30.274-24.109-13.554-24.109-30.274-24.109c-16.72-.001-30.274 10.794-30.274 24.109z" fill="#fff"/><path d="m305.84 187.361c0-15.085-10.928-16.502-24.409-16.502-13.48 0-24.409 1.417-24.409 16.502s10.928 27.313 24.409 27.313 24.409-12.229 24.409-27.313z" fill="#4e5660"/></g><g fill="#4e5660"><path d="m204.444 184.602c-4.142 0-7.5-3.357-7.5-7.5v-12.362c0-4.143 3.358-7.5 7.5-7.5s7.5 3.357 7.5 7.5v12.362c0 4.142-3.358 7.5-7.5 7.5z"/><path d="m358.419 184.602c-4.142 0-7.5-3.357-7.5-7.5v-12.362c0-4.143 3.358-7.5 7.5-7.5 4.143 0 7.5 3.357 7.5 7.5v12.362c0 4.142-3.357 7.5-7.5 7.5z"/></g></g><g fill="#f3a977"><ellipse cx="390.262" cy="313.069" rx="7.74" ry="7.74" transform="matrix(.707 -.707 .707 .707 -107.069 367.653)"/><ellipse cx="436.315" cy="320.809" rx="7.74" ry="7.74" transform="matrix(.973 -.23 .23 .973 -62.035 108.827)"/><ellipse cx="416.302" cy="276.435" rx="7.74" ry="7.74" transform="matrix(.973 -.23 .23 .973 -52.376 103.042)"/></g></g></svg>