<?xml version="1.0" encoding="utf-8"?>
<!-- Generator: Adobe Illustrator 24.1.0, SVG Export Plug-In . SVG Version: 6.00 Build 0)  -->
<svg version="1.1" id="Capa_1" xmlns="http://www.w3.org/2000/svg" xmlns:xlink="http://www.w3.org/1999/xlink" x="0px" y="0px"
	 viewBox="0 0 425.2 425.2" style="enable-background:new 0 0 425.2 425.2;" xml:space="preserve">
<style type="text/css">

	#base:hover  ~ #hearts {
		display:block;
	}

	#main:hover ~ #hearts {
		display:block;
	}

	#hearts:hover {
		display:block;
	}

 #heart1 {
		transition: all 20ms;transform-origin: 75% 85%;
		animation: pulse 2s infinite;	
  }

  #heart2 {
		transition: all 20ms;transform-origin:50% 50%;
		animation: pulse 2s infinite;	
  }

  #heart3 {
		transition: all 20ms;transform-origin: 20% 65%;
		animation: pulse 2s infinite;	
  }

	#heart4 {
		transition: all 20ms;transform-origin: 80% 45%;
		animation: pulse 2s infinite;	
  }

	#heart5 {
		transition: all 20ms;transform-origin: 30% 85%;
		animation: pulse 2s infinite;	
  }

	#heart6 {
		transition: all 20ms;transform-origin: 70% 63%;
		animation: pulse 2s infinite;	
  }

	@keyframes pulse {
			0% {transform: scale(1)}
			50% {transform: scale(1.2)}
			100% {transform: scale(1)}
	}

	.st0{fill:rgb(221, 240, 252);}
	.st1{fill:#F5F5F5;}
	.st2{fill:#422918;}
	.st3{fill:#B1B1B1;}
	.st4{fill:#FFD550;}
	.st5{opacity:0.6;}
	.st6{fill:#EF88B6;}
	.st7{fill:#89CFE5;}
	.st8{fill:#FFFFFF;}
	.st9{fill:none;stroke:#422918;stroke-width:0.7061;stroke-linecap:round;stroke-linejoin:round;stroke-miterlimit:10;}
	.st10{fill:none;}
	.st11{fill:#EC6F80;}
	.st12{opacity:0.7;}
	.st13{fill:none;stroke:#422918;stroke-width:0.6952;stroke-linecap:round;stroke-linejoin:round;stroke-miterlimit:10;}
	.st14{fill:#89CFE5;stroke:#422918;stroke-width:0.3476;stroke-linecap:round;stroke-linejoin:round;stroke-miterlimit:10;}
	.st15{fill:#64B453;}
	.st16{fill:#E74242;}
	.st17{display:none;}
	.st18{display:inline;fill:#D81D1D;}
</style>
<g id="base">
	<path class="st0" d="M361.3,233.4c-1,0-2.1-0.1-3.1-0.2v0.2h-26.4c9.5,1.7,16.7,10,16.7,20c0,7-3.6,13.2-9,16.9h20.2v0.1
		c0.9-0.1,1.8-0.1,2.7-0.1c13.8,0,25,11.2,25,25c0,9.9-5.7,18.4-14,22.5c12.1,3.2,21.1,14.2,21.1,27.4c0,15.6-12.7,28.3-28.3,28.3
		c-1,0-2.1-0.1-3.1-0.2v0.2H63.9c-15.6,0-28.3-12.7-28.3-28.3c0-15.6,12.7-28.3,28.3-28.3h18.7c-7.3-4.4-12.3-12.4-12.3-21.5
		c0-9.2,5-17.2,12.4-21.6H56.4c-11.2,0-20.3-9.1-20.3-20.3c0-10.8,8.4-19.5,19-20.2c-13.8-1.9-24.4-13.7-24.4-28.1
		c0-15.6,12.7-28.3,28.3-28.3h24.4c-11.3-2.4-19.8-12.4-19.8-24.5c0-10.7,6.7-19.8,16.1-23.4H56.4c-11.2,0-20.3-9.1-20.3-20.3
		s9.1-20.3,20.3-20.3h45.2c-4.9-3.7-8.1-9.6-8.1-16.2c0-11.2,9.1-20.3,20.3-20.3h214.4V52c0.7-0.1,1.5-0.1,2.2-0.1
		c11.2,0,20.3,9.1,20.3,20.3s-9.1,20.3-20.3,20.3c-0.7,0-1.5,0-2.2-0.1v0.1h-43c4.9,3.7,8.1,9.6,8.1,16.2c0,8.4-5.1,15.5-12.3,18.6
		h72v0.2c0.9-0.1,1.8-0.2,2.7-0.2c13.8,0,25,11.2,25,25c0,12-8.5,22.1-19.8,24.5c0.1,0,0.3,0,0.4,0c15.6,0,28.3,12.7,28.3,28.3
		C389.7,220.7,377,233.4,361.3,233.4z"/>
</g>
<g id="main">
	<g>
		<g>
			<g>
				<g>
					<g>
						<g>
							<path class="st1" d="M234.3,376.8c-1,0-2-0.6-2.4-1.5l-75.1-151.6c-0.3-0.6-0.4-1.4-0.1-2.1c0.2-0.7,0.7-1.3,1.4-1.6l8.6-4.3
								c0.4-0.2,0.8-0.3,1.2-0.3c1,0,2,0.6,2.4,1.5l75.1,151.6c0.3,0.6,0.4,1.4,0.1,2.1c-0.2,0.7-0.7,1.3-1.4,1.6l-8.6,4.3
								C235.1,376.8,234.7,376.8,234.3,376.8z"/>
							<path class="st2" d="M167.8,218.2l75.1,151.6l-8.6,4.3l-75.1-151.6L167.8,218.2 M167.8,212.7c-0.8,0-1.6,0.2-2.4,0.6
								l-8.6,4.3c-1.3,0.6-2.3,1.8-2.7,3.2c-0.5,1.4-0.3,2.9,0.3,4.2l75.1,151.6c0.9,1.9,2.9,3,4.9,3c0.8,0,1.6-0.2,2.4-0.6l8.6-4.3
								c1.3-0.6,2.3-1.8,2.7-3.2c0.5-1.4,0.3-2.9-0.3-4.2l-75.1-151.6C171.7,213.8,169.8,212.7,167.8,212.7L167.8,212.7z"/>
						</g>
					</g>
					<g>
						<g>
							<polygon class="st3" points="164.7,219.7 239.8,371.3 242.9,369.8 167.8,218.2 							"/>
						</g>
					</g>
				</g>
			</g>
			<g>
				<g>
					<g>
						<g>
							<path class="st4" d="M156.3,243.4c-2.4,0-4.4-1.1-6-3.1c-6.6-8.6-3.6-33.7-2.4-38.4c1-4,2.4-9.6,8.2-9.6
								c1.3,0,2.9,0.3,4.8,0.9c2.7,0.9,4.6,2.8,6.2,4.5c1.3,1.4,2.6,2.7,4,3.1c0.5,0.2,1,0.2,1.5,0.2c0.7,0,1.4-0.1,2.2-0.3
								c1-0.2,2.1-0.4,3.4-0.4c9.9,0.1,14.2,5.7,14.2,11.2c0,4.7-3.2,9.5-8.5,11.1c0.4,0.6,0.6,1.2,0.8,2c0.9,3.8-0.2,6.3-1.4,7.7
								c-1.8,2.3-4.9,3.6-8.7,3.6c-2.9,0-5.8-0.7-8.5-1.9c-0.1,2.8-1.1,6-5.2,8.1C159.3,243,157.8,243.4,156.3,243.4L156.3,243.4z"
								/>
							<g>
								<path class="st2" d="M156.1,195.1c1,0,2.3,0.3,3.9,0.8c4.1,1.4,6.2,6.3,10.3,7.7c0.8,0.3,1.6,0.4,2.3,0.4
									c1.9,0,3.5-0.6,5.6-0.6h0.1c16.5,0.2,13.2,17.4,1.6,17.4c-1,0-2-0.1-3.1-0.4c1.6,1.8,4.6,2.7,5.2,5.2
									c1.3,5.4-2.6,7.9-7.5,7.9c-3.8,0-8.2-1.5-11.4-4.2c0,3.9,1.5,8.2-3.5,10.7c-1.2,0.6-2.3,0.9-3.3,0.9
									c-10.3,0-7.3-31.8-5.8-38.2C151.8,197.6,152.8,195.1,156.1,195.1 M156.1,189.6c-7.9,0-9.8,7.6-10.8,11.6
									c-0.8,3.3-4.8,30.8,2.9,40.8c2.1,2.7,5,4.2,8.2,4.2c1.9,0,3.8-0.5,5.8-1.5c3.6-1.8,5.3-4.3,6.1-6.8c2.1,0.6,4.3,1,6.4,1
									c4.7,0,8.5-1.6,10.9-4.6c2.1-2.7,2.8-6.2,1.9-9.9c4.4-2.3,7.7-6.7,7.8-12.5c0-6.8-5.1-13.8-16.7-14h-0.2
									c-1.5,0-2.8,0.2-3.9,0.4c-0.7,0.1-1.3,0.2-1.7,0.2c-0.2,0-0.4,0-0.6-0.1c-0.8-0.3-1.9-1.4-2.9-2.5c-1.8-1.8-4-4.1-7.3-5.2
									C159.5,189.9,157.7,189.6,156.1,189.6L156.1,189.6z"/>
							</g>
						</g>
					</g>
					<g>
						<g class="st5">
							<path class="st6" d="M149,216c0.3-5.9,1-11.2,1.5-13.4c1.6-6.5,2.9-8.9,9.4-6.7c4,1.3,6.1,6.1,10,7.5c-1,2-2.3,3.6-4.2,4.5
								C160.8,210.5,154.7,216.2,149,216z"/>
						</g>
					</g>
					<path class="st7" d="M164.8,213.3c-1,2.9,6.5,5.5,4.3,8.7c-0.6,0.9-1.8,1.3-2.9,1.4c-3.8,0.7-5.3-8.2-9.1-3.9
						c-1.9,3.4,2.9,10.6-2.9,11.1c-2.6-0.5-3.9-2.4-5.2-4.5c0.7,9.5,3.4,17.3,10.6,13.6c5-2.5,3.5-6.8,3.5-10.7
						c7.4,6.4,21.1,5.9,18.8-3.7c-0.6-2.5-3.5-3.4-5.2-5.2c14,3.4,19.3-16.8,1.5-17c-0.8,0-1.6,0.1-2.3,0.2c-0.3,2-0.9,3.9-1.1,6
						C174.6,211.8,167.7,209.4,164.8,213.3z"/>
					<g>
						<g>
							<path class="st4" d="M136.4,211.5c-27.9,0-60.4-21.4-73.9-48.8c-8-16.2-10.7-37.7-7.1-57.6c3.9-21.9,14.5-38.3,29.8-46
								c6.5-3.3,13.9-5,21.8-5c27.9,0,60.4,21.4,73.9,48.8c8,16.2,10.7,37.7,7.1,57.6c-3.9,21.9-14.5,38.3-29.8,46
								C151.6,209.9,144.3,211.5,136.4,211.5L136.4,211.5z"/>
							<g>
								<path class="st2" d="M106.9,56.9c28,0,59,22.1,71.5,47.3c15.7,31.6,9.9,84.1-21.5,99.9c-6.4,3.2-13.4,4.7-20.5,4.7
									c-28,0-59-22.1-71.5-47.3C49.3,129.9,55,77.4,86.4,61.6C92.8,58.4,99.7,56.9,106.9,56.9 M106.9,51.4c-8.3,0-16,1.8-23,5.3
									C49.8,73.9,43,129.5,60.1,164c14,28.2,47.5,50.3,76.3,50.3c8.3,0,16-1.8,23-5.3c34.1-17.2,41-72.8,23.9-107.2
									C169.3,73.5,135.8,51.4,106.9,51.4L106.9,51.4z"/>
							</g>
						</g>
					</g>
					<g>
						<g>
							<path class="st7" d="M61.7,91.7c35-8.5,72.2-9.1,107.7-1.4c3.6,4.4,6.6,9.1,9,13.9c1.9,3.8,3.4,7.9,4.7,12.2
								c-41.1-7.3-85.3,0-126.4,12.4C56,116.2,57.6,103.1,61.7,91.7z"/>
						</g>
					</g>
					<g>
						<g>
							<path class="st7" d="M183.1,169.5c-35.4-3.2-72.3-0.4-106.3,9.2c-4.5-5.1-8.4-10.6-11.3-16.3c38-14.4,80.2-16.7,121-11.4
								C186,157.4,184.8,163.6,183.1,169.5z"/>
						</g>
					</g>
					<g>
						<g class="st5">
							<path class="st6" d="M108.6,202.3c11.6,2.6,23.3,2,33.5-3.2c31.3-15.8,37.1-68.3,21.5-99.9c-8.4-16.9-25.1-32.4-43.7-40.8
								c24,5.4,47.9,24.4,58.5,45.8c15.7,31.6,9.9,84.1-21.5,99.9C142.4,211.5,124.8,209.6,108.6,202.3z"/>
						</g>
					</g>
					<g class="st5">
						<g>
							<path class="st8" d="M63.8,147.2c-5.3-21.3,0.4-42.6,8.8-62.2c2.2-5.2,10.6-2.5,8.3,2.8c-7.8,18.3-13.4,37.8-8.5,57.7
								C73.8,151,65.2,152.8,63.8,147.2L63.8,147.2z"/>
						</g>
						<g>
							<path class="st8" d="M88.8,72.9c2.5,5.1-5.3,9.1-7.9,4C78.4,71.7,86.3,67.7,88.8,72.9L88.8,72.9z"/>
						</g>
					</g>
				</g>
			</g>
		</g>
		<g>
			<path class="st2" d="M94.5,151.4c0.8,1.6,0.3,3.5-1.2,4.3s-3.3,0-4.1-1.6c-0.8-1.6-0.3-3.5,1.2-4.3
				C91.9,149,93.7,149.7,94.5,151.4z"/>
			<path class="st2" d="M158,119.3c0.8,1.6,0.3,3.5-1.2,4.3s-3.3,0-4.1-1.6s-0.3-3.5,1.2-4.3C155.3,117,157.2,117.7,158,119.3z"/>
			<path class="st9" d="M110.9,140.9c0,0,6.3-12.8,24.6-12.4"/>
			<g>
				<g>
					<path class="st8" d="M102.4,157.8c-4.2,0-7.9-2.3-9.8-6.1c-1.3-2.6-1.5-5.6-0.6-8.5c0.9-2.8,2.9-5.1,5.5-6.4
						c1.5-0.8,3.2-1.2,4.9-1.2c4.2,0,7.9,2.3,9.8,6.1c1.3,2.6,1.5,5.6,0.6,8.5c-0.9,2.8-2.9,5.1-5.5,6.4
						C105.8,157.4,104.1,157.8,102.4,157.8z"/>
					<path class="st2" d="M102.4,136.5c3.7,0,7.3,2.1,9.1,5.7c2.5,5.1,0.5,11.2-4.5,13.8c-1.5,0.7-3,1.1-4.5,1.1
						c-3.7,0-7.3-2.1-9.1-5.7c-2.5-5.1-0.5-11.2,4.5-13.8C99.3,136.9,100.9,136.5,102.4,136.5 M102.4,134.9L102.4,134.9
						c-1.8,0-3.6,0.4-5.3,1.3c-2.8,1.4-4.9,3.9-5.9,6.9s-0.8,6.2,0.6,9.1c2,4.1,6,6.6,10.5,6.6c1.8,0,3.6-0.4,5.3-1.3
						c2.8-1.4,4.9-3.9,5.9-6.9s0.8-6.2-0.6-9.1C110.9,137.4,106.9,134.9,102.4,134.9L102.4,134.9z"/>
				</g>
			</g>
			<g>
				<g>
					<path class="st8" d="M145.2,136.2c-4.2,0-7.9-2.3-9.8-6.1c-2.7-5.5-0.5-12.1,4.9-14.9c1.5-0.8,3.2-1.2,4.9-1.2
						c4.2,0,7.9,2.3,9.8,6.1c2.7,5.5,0.5,12.1-4.9,14.9C148.6,135.8,146.9,136.2,145.2,136.2z"/>
					<path class="st2" d="M145.2,114.9c3.7,0,7.3,2.1,9.1,5.7c2.5,5.1,0.5,11.2-4.5,13.8c-1.5,0.7-3,1.1-4.5,1.1
						c-3.7,0-7.3-2.1-9.1-5.7c-2.5-5.1-0.5-11.2,4.5-13.8C142.1,115.2,143.7,114.9,145.2,114.9 M145.2,113.3L145.2,113.3
						c-1.8,0-3.6,0.4-5.3,1.3c-5.8,2.9-8.2,10.1-5.3,16c2,4.1,6,6.6,10.5,6.6c1.8,0,3.6-0.4,5.3-1.3c5.8-2.9,8.2-10.1,5.3-16
						C153.7,115.8,149.7,113.3,145.2,113.3L145.2,113.3z"/>
				</g>
			</g>
			<g>
				<g>
					<g>
						<path class="st8" d="M125.9,147.6c-2.6,0-5-1.5-6.2-3.9c0-0.1-0.1-0.2-0.1-0.2c0-0.4,0.3-2.1,5.4-4.6c3-1.5,5.1-1.7,6.1-1.7
							c0.3,0,0.5,0,0.5,0c0.2,0,0.4,0.2,0.5,0.3c0.8,1.7,1,3.6,0.4,5.3c-0.6,1.8-1.8,3.2-3.5,4C128,147.4,127,147.6,125.9,147.6
							L125.9,147.6z"/>
						<path class="st2" d="M131.2,137.8c0.3,0,0.4,0,0.4,0c1.6,3.1,0.3,7-2.8,8.5c-0.9,0.5-1.9,0.7-2.8,0.7c-2.3,0-4.5-1.3-5.6-3.5
							c0,0-0.1-1.5,5-4.1C128.2,137.9,130.3,137.8,131.2,137.8 M131.2,136.5c-1.1,0-3.3,0.2-6.4,1.8c-5.1,2.6-5.8,4.4-5.7,5.2
							c0,0.2,0.1,0.3,0.1,0.5c1.3,2.6,3.9,4.2,6.7,4.2c1.2,0,2.3-0.3,3.4-0.8c3.7-1.9,5.2-6.4,3.4-10.2c-0.2-0.4-0.5-0.6-0.9-0.7
							C131.7,136.6,131.5,136.5,131.2,136.5L131.2,136.5z"/>
					</g>
				</g>
				<g>
					<g>
						<path class="st8" d="M121.6,145.6c0,0,1.7-0.3,2.9-1.4"/>
						<path class="st2" d="M121.5,145c0,0,0.8,0,1.5-0.2c0.4-0.1,0.7-0.3,1-0.4c0.3-0.1,0.5-0.2,0.5-0.2s-0.1,0.1-0.4,0.4
							c-0.2,0.2-0.5,0.6-0.9,0.8c-0.7,0.5-1.5,0.9-1.5,0.9c-0.3,0.1-0.7-0.1-0.7-0.5C120.9,145.4,121.1,145.1,121.5,145z"/>
					</g>
				</g>
				<g>
					<g>
						<path class="st8" d="M132.5,140.1c0,0-1.3,1.1-2.9,1.4"/>
						<path class="st2" d="M132.9,140.6c0,0-0.8,0.5-1.6,0.7c-0.4,0.2-0.8,0.2-1.1,0.2s-0.5,0.1-0.5,0.1s0.2-0.1,0.5-0.2
							c0.3-0.1,0.6-0.3,0.9-0.6c0.6-0.5,1.1-1.1,1.1-1.1c0.3-0.2,0.6-0.2,0.9,0.1C133.2,140,133.1,140.4,132.9,140.6z"/>
					</g>
				</g>
				<g>
					<g>
						<line class="st10" x1="126.4" y1="143.3" x2="127.8" y2="142.7"/>
						<path class="st2" d="M126.4,143.3c0,0,0.1-0.1,0.2-0.2c0.1-0.1,0.3-0.2,0.4-0.3c0.2,0,0.4-0.1,0.5-0.1s0.3,0,0.3,0
							s-0.1,0.1-0.2,0.2c-0.1,0.1-0.3,0.2-0.4,0.3c-0.2,0-0.4,0.1-0.5,0.1C126.5,143.3,126.4,143.3,126.4,143.3z"/>
					</g>
				</g>
			</g>
			<g>
				<path class="st9" d="M136.3,113.4c0,0,5.3-5.7,12.7-2.7"/>
				<path class="st9" d="M98.1,132.7c0,0-7.7,0.8-9.8,8.6"/>
			</g>
			<g>
				<path class="st2" d="M108.7,143.3c1.8,3.6,0.3,8-3.2,9.8c-3.6,1.8-7.9,0.3-9.7-3.3c-1.8-3.6-0.3-8,3.2-9.8
					C102.6,138.3,107,139.7,108.7,143.3z"/>
				<path class="st8" d="M100.1,144.2c0.6,1.1,0.1,2.5-1,3.1s-2.5,0.1-3.1-1s-0.1-2.5,1-3.1C98.2,142.6,99.6,143.1,100.1,144.2z"/>
				<path class="st8" d="M101.6,147.4c0.2,0.4,0,1-0.4,1.2s-0.9,0-1.2-0.4c-0.2-0.4,0-1,0.4-1.2S101.3,147,101.6,147.4z"/>
				<path class="st8" d="M102,144.6c0.1,0.3,0,0.6-0.2,0.7c-0.3,0.1-0.6,0-0.7-0.2c-0.1-0.3,0-0.6,0.2-0.7
					C101.5,144.3,101.8,144.4,102,144.6z"/>
			</g>
			<g>
				<path class="st2" d="M151.6,121.7c1.8,3.6,0.3,8-3.2,9.8c-3.6,1.8-7.9,0.3-9.7-3.3c-1.8-3.6-0.3-8,3.2-9.8
					C145.4,116.7,149.8,118.1,151.6,121.7z"/>
				<path class="st8" d="M142.9,122.6c0.6,1.1,0.1,2.5-1,3.1s-2.5,0.1-3.1-1s-0.1-2.5,1-3.1C141,121,142.4,121.4,142.9,122.6z"/>
				<path class="st8" d="M144.4,125.8c0.2,0.4,0,1-0.4,1.2s-0.9,0-1.2-0.4c-0.2-0.4,0-1,0.4-1.2
					C143.6,125.2,144.2,125.4,144.4,125.8z"/>
				<path class="st8" d="M144.8,123c0.1,0.3,0,0.6-0.2,0.7c-0.3,0.1-0.6,0-0.7-0.2c-0.1-0.3,0-0.6,0.2-0.7
					C144.3,122.7,144.6,122.8,144.8,123z"/>
			</g>
			<path class="st11" d="M109.7,154.5c0.5,1-2.3,3.4-6.2,5.4c-3.9,2-7.5,2.8-8,1.8s2.3-3.4,6.2-5.4
				C105.7,154.3,109.2,153.5,109.7,154.5z"/>
			<path class="st11" d="M160.8,128.7c0.5,1-2.3,3.4-6.2,5.4s-7.5,2.8-8,1.8s2.3-3.4,6.2-5.4S160.3,127.7,160.8,128.7z"/>
		</g>
	</g>
	<g>
		<g>
			<g>
				<g>
					<path class="st1" d="M244.9,379.3l-10.5-0.9c-0.8-0.1-1.5-0.4-2-1.1c-0.5-0.6-0.8-1.4-0.7-2.2L246.8,189c0.1-0.8,0.4-1.5,1-2.1
						c0.5-0.5,1.2-0.7,1.9-0.7c0.1,0,0.2,0,0.2,0l10.5,0.9c1.6,0.1,2.9,1.6,2.7,3.3l-15.2,186.1
						C247.8,378.1,246.5,379.3,244.9,379.3C245.1,379.3,245,379.3,244.9,379.3z"/>
					<path class="st2" d="M249.8,189.3l10.5,0.9l-15.2,186.1l-10.5-0.9L249.8,189.3 M249.8,183.2c-1.4,0-2.8,0.5-3.9,1.4
						c-1.2,1-2,2.5-2.1,4.1l-15.2,186.2c-0.1,1.6,0.4,3.2,1.4,4.4c1,1.2,2.5,2,4.1,2.1l10.5,0.9c0.2,0,0.3,0,0.5,0
						c3.1,0,5.7-2.4,5.9-5.5l15.2-186.1c0.3-3.3-2.2-6.2-5.5-6.5l-10.5-0.9C250.1,183.2,250,183.2,249.8,183.2L249.8,183.2z"/>
				</g>
			</g>
			<g>
				<g>
					<polygon class="st3" points="256.5,189.8 241.4,376 245.2,376.3 260.4,190.1 					"/>
				</g>
			</g>
			<g>
				<g>
					<path class="st6" d="M254,206c-0.8-0.1-1.5-0.5-2-1.1c-3.3-4-17.8-15.8-29.4-25.3c-7-5.7-13-10.6-15.8-13.2
						c-25.4-23.2-56.8-58-36.3-93.6c10.2-17.7,26.4-27.5,45.6-27.5c2.7,0,5.5,0.2,8.3,0.6c15.8,2.2,34.7,13.6,40.4,29.3
						c8.1-14.5,27.9-22.3,43.2-22.3c0.4,0,0.9,0,1.3,0c23,0.7,40.4,13.3,48.8,35.4c6,15.7,2.3,32.6-10.9,50.3
						c-12.6,16.9-30.5,29.8-40,36c-3.5,2.3-10.6,6.3-18.8,11c-12.7,7.2-28.4,16.3-32.1,19.5c-0.5,0.5-1.2,0.7-2,0.7
						C254.3,206,254,206,254,206z"/>
					<path class="st2" d="M216.1,48.5c2.6,0,5.2,0.2,7.9,0.5c15.2,2.1,34.1,13.5,38.5,29.2c0.4,1.5,1.1,2.3,1.9,2.3
						c0.7,0,1.4-0.7,2.1-2c6.7-14.4,26.3-22.4,41.5-22.4c0.4,0,0.8,0,1.2,0c22.7,0.7,38.5,13.5,46.1,33.5
						c12.5,32.9-23.9,66-49.7,82.7c-9.1,5.9-45,25.3-51.2,30.7h-0.1c-5.5-6.7-38-31.9-45.5-38.8c-22.8-20.8-55.6-55.3-35.7-89.8
						C182.5,58.2,197.3,48.5,216.1,48.5 M216.1,42.5L216.1,42.5c-20.3,0-37.4,10.3-48.2,29c-9.9,17.1-9.3,36,1.8,56
						c9.1,16.6,23.5,30.8,35.1,41.3c2.9,2.6,8.9,7.6,15.9,13.3c10.9,8.9,25.9,21.1,29,24.9c1,1.2,2.5,2,4.1,2.2h0.1
						c0.2,0,0.3,0,0.5,0c1.4,0,2.8-0.5,3.9-1.5c3.4-3,19.7-12.3,31.6-19.1c8.2-4.7,15.4-8.8,18.9-11.1c9.7-6.3,27.9-19.4,40.8-36.7
						c13.7-18.3,17.6-36.7,11.3-53.2c-8.8-23-27.5-36.6-51.5-37.3c-0.5,0-0.9,0-1.4,0c-14.5,0-32.8,6.7-42.7,19.2
						c-3.2-5.8-8.1-11.2-14.5-15.7c-7.8-5.5-17.2-9.3-25.9-10.5C221.9,42.7,218.9,42.5,216.1,42.5L216.1,42.5z"/>
				</g>
			</g>
			<g class="st12">
				<g>
					<g>
						<path class="st6" d="M355.3,89.6c-5.5-14.4-15.3-25.1-28.9-30.2c7.2,5.7,12.6,13.6,16.3,23c12.5,32.9-23.9,66-49.7,82.7
							c-8.2,5.3-38.1,21.6-48.5,28.7c4.6,4,8.3,7.3,9.8,9.1h0.1c6.2-5.4,42.1-24.8,51.2-30.7C331.4,155.6,367.9,122.5,355.3,89.6z"
							/>
					</g>
				</g>
			</g>
			<g class="st5">
				<g>
					<path class="st8" d="M228.8,58.5c-24.9-10.8-51.5,6.6-53,33.6c-0.4,6.9,10.1,7.8,10.5,0.9c1.2-20.4,20.2-32.5,38.9-24.4
						C231.5,71.2,235,61.2,228.8,58.5L228.8,58.5z"/>
				</g>
				<g>
					<path class="st8" d="M175.3,110.9c0,0.1,0,0.2,0,0.4c-0.2,2.9,2,5.5,4.8,5.8c2.9,0.2,5.5-2,5.7-4.9c0-0.1,0-0.2,0-0.4
						c0.2-2.9-2-5.5-4.8-5.8C178.1,105.8,175.5,108.1,175.3,110.9L175.3,110.9z"/>
				</g>
			</g>
		</g>
		<g>
			<g>
				<g>
					<g>
						<path class="st8" d="M261.7,136.2c-0.2,0-0.4,0-0.6,0c-1.8-0.1-3.5-1-4.6-2.4c-1.2-1.4-1.7-3.2-1.6-5c0-0.1,0-0.2,0.1-0.2
							c0.2-0.3,0.9-1.2,4.6-1.2c0.7,0,1.4,0,2.3,0.1c4.3,0.4,6.3,1.9,6.4,2c0.2,0.1,0.2,0.3,0.2,0.5
							C268.2,133.5,265.3,136.2,261.7,136.2L261.7,136.2z"/>
						<path class="st2" d="M259.6,127.9c0.6,0,1.4,0,2.3,0.1c4.2,0.3,6.1,1.8,6.1,1.8c-0.3,3.3-3,5.7-6.2,5.7c-0.2,0-0.3,0-0.5,0
							c-3.4-0.3-6-3.3-5.7-6.7C255.6,128.8,256,127.9,259.6,127.9 M259.6,126.7c-3.7,0-4.8,1-5.1,1.6c-0.1,0.1-0.1,0.3-0.1,0.5
							c-0.2,2,0.5,3.9,1.7,5.4c1.3,1.5,3.1,2.4,5,2.6c0.2,0,0.4,0,0.6,0c3.8,0,7.1-3,7.4-6.9c0-0.4-0.1-0.8-0.4-1
							c-0.2-0.2-2.3-1.7-6.7-2.1C261.1,126.8,260.3,126.7,259.6,126.7L259.6,126.7z"/>
					</g>
				</g>
				<g>
					<g>
						<path class="st8" d="M255.6,131.3c0,0,1.6,0.6,3.1,0.3"/>
						<path class="st2" d="M255.8,130.7c0,0,0.6,0.4,1.4,0.6c0.4,0.1,0.8,0.2,1,0.2c0.3,0,0.5,0.1,0.5,0.1s-0.2,0.1-0.5,0.1
							c-0.3,0.1-0.7,0.2-1.1,0.2c-0.8,0.1-1.7,0-1.7,0c-0.3-0.1-0.5-0.4-0.4-0.8C255.1,130.8,255.4,130.6,255.8,130.7z"/>
					</g>
				</g>
				<g>
					<g>
						<path class="st8" d="M267.5,132.3c0,0-1.6,0.3-3.1-0.3"/>
						<path class="st2" d="M267.6,132.9c0,0-0.9,0-1.7-0.3c-0.4-0.1-0.8-0.3-1.1-0.4c-0.3-0.1-0.5-0.2-0.5-0.2s0.2,0,0.5,0
							s0.7,0.1,1.1,0c0.8-0.1,1.4-0.3,1.5-0.3c0.3,0,0.6,0.2,0.7,0.5C268.1,132.6,267.9,132.9,267.6,132.9z"/>
					</g>
				</g>
				<g>
					<g>
						<line class="st10" x1="260.8" y1="131.8" x2="262.3" y2="132.1"/>
						<path class="st2" d="M260.8,131.8c0,0,0.1,0,0.2-0.1c0.1,0,0.3,0,0.5,0c0.2,0.1,0.4,0.1,0.5,0.2c0.1,0.1,0.2,0.1,0.2,0.1
							s-0.1,0-0.2,0.1c-0.1,0-0.3,0-0.5,0c-0.2-0.1-0.4-0.1-0.5-0.2C260.9,131.9,260.8,131.8,260.8,131.8z"/>
					</g>
				</g>
			</g>
			<g>
				<g>
					<path class="st2" d="M247.6,125.2c-0.4,4.9-4.7,8.6-9.6,8.2c-4.9-0.4-8.6-4.8-8.2-9.7c0.4-5,4.7-8.6,9.6-8.2
						C244.3,115.9,248,120.3,247.6,125.2z"/>
					<path class="st8" d="M237.9,120.6c-0.1,1.6-1.5,2.8-3.1,2.6c-1.6-0.1-2.7-1.5-2.6-3.1c0.1-1.6,1.5-2.8,3.1-2.6
						C236.9,117.6,238,119,237.9,120.6z"/>
					<path class="st8" d="M237.3,124.9c0,0.6-0.6,1-1.2,1c-0.6,0-1-0.6-1-1.2s0.6-1,1.2-1C236.9,123.8,237.4,124.3,237.3,124.9z"/>
					<path class="st8" d="M239.5,122.2c0,0.4-0.4,0.7-0.7,0.6c-0.4,0-0.6-0.4-0.6-0.7c0-0.4,0.4-0.7,0.7-0.6
						C239.3,121.5,239.6,121.8,239.5,122.2z"/>
					<path class="st11" d="M241,133.7c-0.1,1.1-3.6,1.7-7.9,1.4c-4.3-0.4-7.7-1.5-7.6-2.6c0.1-1.1,3.6-1.7,7.9-1.4
						C237.7,131.4,241.1,132.6,241,133.7z"/>
				</g>
				<g>
					<path class="st2" d="M294.5,129.1c-0.4,5-4.7,8.6-9.6,8.2c-4.9-0.4-8.6-4.8-8.2-9.7c0.4-5,4.7-8.6,9.6-8.2
						C291.3,119.8,294.9,124.2,294.5,129.1z"/>
					<path class="st8" d="M284.9,124.5c-0.1,1.6-1.5,2.8-3.1,2.6c-1.6-0.1-2.7-1.5-2.6-3.1s1.5-2.8,3.1-2.6
						C283.8,121.5,285,122.9,284.9,124.5z"/>
					<path class="st8" d="M284.3,128.8c0,0.6-0.6,1-1.2,1s-1-0.6-1-1.2c0-0.6,0.6-1,1.2-1C283.9,127.7,284.3,128.2,284.3,128.8z"/>
					<path class="st8" d="M286.5,126.1c0,0.4-0.4,0.6-0.7,0.6c-0.4,0-0.6-0.4-0.6-0.7c0-0.4,0.4-0.7,0.7-0.6
						C286.2,125.4,286.5,125.7,286.5,126.1z"/>
					<path class="st11" d="M297,138.4c-0.1,1.1-3.6,1.7-7.9,1.4c-4.3-0.4-7.7-1.5-7.6-2.6s3.6-1.7,7.9-1.4
						C293.7,136.1,297.1,137.2,297,138.4z"/>
				</g>
			</g>
			<g>
				<g>
					<path class="st13" d="M242,109c0,0-5.6,5.2-12.6,1.7"/>
				</g>
				<g>
					<path class="st13" d="M284.5,112.5c0,0,4.7,6,12.2,3.7"/>
				</g>
			</g>
			<path class="st14" d="M227.6,125.6c-0.2,2.5-1.4,3.3-2.8,3.2c-1.4-0.1-2.5-1.1-2.2-3.6c0.2-2.6,3.2-8.1,3.2-8.1
				S227.8,123,227.6,125.6z"/>
		</g>
		<g>
			<g>
				<g>
					<path class="st4" d="M332.2,95.3l-0.5-0.5c-0.6-0.7-0.9-2.5-0.8-2.9c0.1-1,1.1-2.1,1.9-2.7c0.3-0.2,0.6-0.5,0.9-0.8
						c1.6-1.5,3.5-3.3,5.5-3.3c0.2,0,0.5,0,0.7,0.1c1,0.2,1.3,1.4,1.4,2.3l0.1,0.4l-0.2,0.3c-1.2,2.1-2.9,3.3-4.6,4.4
						c-1.1,0.7-2.1,1.4-3,2.4l-0.3,0.3l-0.6,0.1h-0.5V95.3z"/>
					<path class="st2" d="M339.1,86.2c0.2,0,0.3,0,0.5,0c0.4,0.1,0.6,1,0.6,1.4c-1.8,3.2-5.1,4.1-7.4,6.6c0,0.1-0.1,0.1-0.1,0.1
						c-0.4,0-0.7-2-0.7-2.2c0.1-0.7,1-1.6,1.5-2.1C334.9,88.7,337.2,86.2,339.1,86.2 M339.1,84c-2.4,0-4.5,2-6.2,3.6
						c-0.3,0.3-0.6,0.6-0.8,0.8c-1.3,1.2-2.1,2.3-2.2,3.4c-0.1,0.5,0.2,2.7,1,3.7c0.5,0.5,1.1,0.8,1.8,0.8c0.6,0,1.2-0.3,1.7-0.8
						c0.8-0.8,1.8-1.5,2.8-2.2c1.7-1.2,3.6-2.5,4.9-4.8l0.4-0.7l-0.1-0.8c-0.1-0.7-0.4-2.7-2.2-3.1C339.8,84.1,339.5,84,339.1,84
						L339.1,84z"/>
				</g>
			</g>
			<g>
				<g>
					<path class="st15" d="M322.2,89.5c-1.2,0-2.4-0.2-3.5-0.4c-1.1-0.2-2.2-0.4-3.2-0.4c-0.2,0-0.4,0-0.5,0h-0.8l-0.5-0.9
						c-0.4-1.2,1.3-3.2,1.3-3.2c0.6-0.5,1.5-0.7,2.8-0.7h0.4c0.4,0,0.8,0,1.2,0c2.4,0,5.4,0,6.7,1.9c0.6,0.9,0,1.9-0.5,2.6l-0.2,0.3
						l-0.4,0.1C324.1,89.3,323.2,89.5,322.2,89.5z"/>
					<path class="st2" d="M317.8,85.1c0.1,0,0.3,0,0.4,0c2.1,0.1,5.9-0.3,7.1,1.5c0.2,0.3-0.3,1.1-0.5,1.4c-0.9,0.3-1.7,0.4-2.5,0.4
						c-2.3,0-4.5-0.7-6.8-0.7c-0.2,0-0.4,0-0.6,0l0,0c-0.7,0,0.7-2,0.8-2.1C316.1,85.2,317.1,85.1,317.8,85.1 M317.8,83
						c-1.6,0-2.7,0.3-3.5,1c0,0-2.3,2.4-1.6,4.4c0.3,0.9,1.2,1.5,2.2,1.5h0.1h0.1c0.2,0,0.3,0,0.5,0c1,0,2,0.2,3.1,0.3
						c1.2,0.2,2.4,0.4,3.7,0.4c1.1,0,2.1-0.1,3.1-0.4l0.7-0.2l0.4-0.6c0.4-0.6,1.5-2.3,0.5-3.8c-1.6-2.4-5.1-2.4-7.6-2.4
						c-0.4,0-0.8,0-1.1,0C318.1,83,317.9,83,317.8,83L317.8,83z"/>
				</g>
			</g>
			<g>
				<g>
					<path class="st15" d="M280.7,77.5l-0.5-0.5c-0.6-0.8-0.3-2.9-0.2-3.2c0.4-1,1.5-1.8,2.4-2.3c0.3-0.2,0.7-0.4,1-0.6
						c1.6-0.9,3.5-2.1,5.3-2.1c0.5,0,1,0.1,1.5,0.3c0.7,0.3,1,1.2,0.9,2.5V72l-0.3,0.3c-1.6,1.8-3.6,2.5-5.5,3.3
						c-1.2,0.5-2.4,0.9-3.4,1.6l-0.3,0.2h-0.4L280.7,77.5L280.7,77.5z"/>
					<path class="st2" d="M288.8,69.9c0.4,0,0.7,0.1,1,0.2c0.3,0.2,0.3,1.1,0.3,1.5c-2.4,2.7-5.9,2.8-8.7,4.7h-0.1
						c-0.5,0-0.3-2.1-0.2-2.3c0.3-0.7,1.3-1.4,1.9-1.7C284.5,71.6,286.9,69.9,288.8,69.9 M288.8,67.8c-2,0-4.1,1.2-5.8,2.2
						c-0.4,0.2-0.7,0.4-1,0.6c-1.6,0.8-2.6,1.8-2.9,2.8c-0.1,0.3-0.5,2.9,0.3,4.1c0.4,0.6,1.1,1,1.9,1c0.5,0,0.9-0.1,1.3-0.4
						c0.9-0.6,2.1-1.1,3.2-1.5c1.9-0.7,4.1-1.6,5.9-3.5l0.5-0.6l0.1-0.8c0.1-1.8-0.4-3-1.5-3.6C290.1,67.9,289.4,67.8,288.8,67.8
						L288.8,67.8z"/>
				</g>
			</g>
			<g>
				<g>
					<path class="st16" d="M340.8,116.7c-2.3-0.7-3.8-2.2-5.2-3.6c-0.9-0.9-1.8-1.8-2.9-2.5l-0.7-0.4l0.1-1c0.3-1.3,2.9-1.9,2.9-1.9
						l0,0c1.2,0,2.3,0.7,3,1.3c0.3,0.2,0.6,0.4,1,0.7c2,1.4,4.4,3.1,4.4,5.5c0,0.8-0.6,1.4-1.9,1.9l-0.3,0.1L340.8,116.7z"/>
					<path class="st2" d="M335.1,108.4c0.7,0,1.7,0.7,2.3,1.1c1.7,1.3,5,3.2,4.9,5.3c0,0.4-0.9,0.8-1.2,0.9c-3.4-1.1-5-4.2-7.9-6
						C332.6,109.3,334.9,108.4,335.1,108.4L335.1,108.4 M335.1,106.3L335.1,106.3h-0.3c0,0-3.3,0.6-3.8,2.7c-0.2,1,0.2,2,1,2.5
						c1,0.6,1.8,1.4,2.7,2.3c1.5,1.4,3.1,3.1,5.6,3.9l0.7,0.2l0.7-0.3c1.7-0.6,2.6-1.6,2.6-2.9c0-2.9-2.8-4.9-4.9-6.3
						c-0.3-0.2-0.7-0.5-0.9-0.7C337.4,106.8,336.2,106.3,335.1,106.3L335.1,106.3z"/>
				</g>
			</g>
			<g>
				<g>
					<path class="st16" d="M297,91.8c-2.3-0.7-3.8-2.2-5.2-3.6c-0.9-0.9-1.8-1.8-2.9-2.5l-0.7-0.4l0.1-1c0.3-1.3,2.9-1.9,2.9-1.9
						l0,0c1.2,0,2.3,0.7,3,1.3c0.3,0.2,0.6,0.4,1,0.7c2,1.4,4.4,3.1,4.4,5.5c0,0.8-0.6,1.4-1.9,1.9l-0.3,0.1L297,91.8z"/>
					<path class="st2" d="M291.4,83.5c0.7,0,1.7,0.7,2.3,1.1c1.7,1.3,5,3.2,4.9,5.3c0,0.4-0.9,0.8-1.2,0.9c-3.4-1.1-5-4.2-7.9-6
						C288.8,84.4,291.1,83.5,291.4,83.5C291.3,83.5,291.4,83.5,291.4,83.5 M291.4,81.3L291.4,81.3h-0.3c0,0-3.3,0.6-3.8,2.7
						c-0.2,1,0.2,2,1,2.5c1,0.6,1.8,1.4,2.7,2.3c1.5,1.4,3.1,3.1,5.6,3.9l0.7,0.2l0.7-0.3c1.7-0.6,2.6-1.6,2.6-2.9
						c0-2.9-2.8-4.9-4.8-6.4c-0.3-0.2-0.7-0.5-0.9-0.7C293.6,81.9,292.4,81.3,291.4,81.3L291.4,81.3z"/>
				</g>
			</g>
			<g>
				<g>
					<path class="st7" d="M352.1,105.5c-2.3-0.7-3.8-2.2-5.2-3.6c-0.9-0.9-1.8-1.8-2.9-2.5l-0.7-0.4l0.1-0.9
						c0.3-1.3,2.9-1.9,2.9-1.9l0,0c0.9,0,1.9,0.4,3,1.3c0.3,0.2,0.6,0.5,1,0.7c2,1.4,4.4,3.1,4.4,5.5c0,0.8-0.6,1.4-1.9,1.9
						l-0.3,0.1L352.1,105.5z"/>
					<g>
						<path class="st2" d="M346.5,97.2c0.7,0,1.7,0.7,2.3,1.1c1.7,1.3,5,3.2,4.9,5.3c0,0.4-0.9,0.8-1.2,0.9c-3.4-1.1-5-4.2-7.9-6
							C343.9,98.1,346.2,97.3,346.5,97.2C346.4,97.2,346.5,97.2,346.5,97.2 M346.5,95.1L346.5,95.1h-0.3c0,0-3.3,0.6-3.8,2.7
							c-0.2,1,0.2,2,1,2.5c1,0.6,1.8,1.4,2.7,2.3c1.5,1.4,3.1,3.1,5.6,3.9l0.7,0.2l0.7-0.3c1.7-0.6,2.6-1.6,2.6-2.9
							c0-2.9-2.8-4.9-4.8-6.3c-0.3-0.2-0.7-0.5-0.9-0.7C348.7,95.6,347.5,95.1,346.5,95.1L346.5,95.1z"/>
					</g>
				</g>
			</g>
			<g>
				<g>
					<path class="st7" d="M329.2,74c-2.3-0.7-3.8-2.2-5.2-3.6c-0.9-0.9-1.8-1.8-2.9-2.5l-0.6-0.4l0.1-0.9c0.3-1.3,2.9-1.9,2.9-1.9
						l0,0c1.2,0,2.3,0.7,3.1,1.3c0.3,0.2,0.6,0.4,1,0.7c2,1.4,4.4,3.1,4.4,5.5c0,0.8-0.6,1.4-1.9,1.9l-0.3,0.1L329.2,74z"/>
					<g>
						<path class="st2" d="M323.5,65.7c0.7,0,1.7,0.7,2.3,1.1c1.7,1.3,5,3.2,4.9,5.3c0,0.4-0.9,0.8-1.2,0.9c-3.4-1.1-5-4.2-7.9-6
							C321,66.6,323.3,65.7,323.5,65.7L323.5,65.7 M323.5,63.6L323.5,63.6h-0.3c-0.1,0-3.4,0.6-3.8,2.7c-0.2,1,0.2,2,1.1,2.5
							c1,0.6,1.8,1.4,2.7,2.3c1.5,1.4,3.1,3.1,5.6,3.9l0.7,0.2l0.7-0.3c1.7-0.7,2.6-1.6,2.6-2.9c0-2.9-2.8-4.9-4.9-6.3
							c-0.3-0.2-0.7-0.5-0.9-0.7C325.8,64.1,324.6,63.6,323.5,63.6L323.5,63.6z"/>
					</g>
				</g>
			</g>
			<g>
				<g>
					<path class="st8" d="M302.3,79.6l-0.4-0.6c-0.6-0.9-0.1-3,0-3.2c0.4-0.8,1.2-1.4,2.6-2c0.3-0.1,0.7-0.3,1.1-0.5
						c1.5-0.7,3.4-1.6,5-1.6c0.7,0,1.3,0.2,1.9,0.5c0.7,0.4,0.9,1.2,0.7,2.6l-0.1,0.4l-0.3,0.3c-1.8,1.6-3.8,2.2-5.7,2.7
						c-1.3,0.4-2.5,0.7-3.6,1.3l-0.2,0.1h-0.4C302.9,79.6,302.3,79.6,302.3,79.6z"/>
					<path class="st2" d="M310.7,72.8c0.5,0,0.9,0.1,1.3,0.3c0.3,0.2,0.2,1.1,0.2,1.5c-2.7,2.4-6.1,2.3-9.1,3.9H303
						c-0.5,0-0.1-2.1,0-2.3c0.3-0.7,1.5-1.2,2.1-1.5C306.5,74.1,308.8,72.8,310.7,72.8 M310.7,70.6c-1.9,0-3.9,0.9-5.5,1.7
						c-0.4,0.2-0.7,0.3-1,0.5c-2.5,1-3,2.2-3.2,2.6c-0.1,0.2-0.9,2.8,0,4.3c0.4,0.7,1.1,1.1,1.9,1.1c0.4,0,0.8-0.1,1.1-0.3
						c1-0.5,2.1-0.9,3.3-1.2c2-0.6,4.2-1.2,6.2-3l0.6-0.5l0.1-0.7c0.3-1.8-0.1-3-1.2-3.7C312.4,70.9,311.6,70.6,310.7,70.6
						L310.7,70.6z"/>
				</g>
			</g>
		</g>
	</g>
</g>
<g id="hearts" class="st17">
	<path id="heart2" class="st18" d="M216.1,223.6c-0.3-1.7-2-2.8-3.8-2.5c-1.3,0.2-2.3,1.1-2.7,2.3c-0.7-1-2-1.5-3.3-1.3
		c-1.8,0.3-3,1.9-2.7,3.6c0.1,0.4,0.2,0.7,0.4,1c0.2,0.3,0.5,0.6,0.8,0.9c0.1,0.1,0.3,0.2,0.4,0.3l5.8,3.8c0,0,0.1,0,0.1,0
		c0,0,0.1,0,0.1-0.1l4.3-5.7l0,0c0.3-0.4,0.5-0.8,0.6-1.2C216.1,224.4,216.1,224,216.1,223.6z"/>
	<path id="heart1" class="st18" d="M367.8,349.8c1-3.2-1.2-6.6-5-7.8c-2.8-0.8-5.6-0.2-7.3,1.5c-0.4-2.3-2.4-4.4-5.2-5.2
		c-3.8-1.1-7.7,0.5-8.7,3.7c-0.2,0.7-0.3,1.3-0.2,2c0.1,0.8,0.3,1.5,0.7,2.2c0.2,0.3,0.3,0.6,0.6,0.9l7.7,11.8
		c0,0.1,0.1,0.1,0.2,0.2c0.1,0,0.2,0,0.3,0l13.7-5.7l0,0c0.9-0.4,1.7-0.9,2.3-1.6C367.2,351.1,367.6,350.5,367.8,349.8z"/>
	<path id="heart3" class="st18" d="M110.1,274.7c-0.9-4.1-4.8-6.6-8.6-5.6c-2.8,0.7-4.8,3.1-5.3,5.9c-1.7-2.3-4.5-3.4-7.3-2.7
		c-3.8,1-6.2,5-5.3,9.1c0.2,0.9,0.5,1.6,1,2.3c0.5,0.8,1.1,1.5,1.8,2c0.3,0.2,0.6,0.4,1,0.6l13.1,8.5c0.1,0.1,0.2,0.1,0.3,0
		c0.1,0,0.2-0.1,0.2-0.2l8.3-14.3l0,0c0.5-0.9,0.9-2,1-3.1C110.4,276.5,110.3,275.6,110.1,274.7z"/>
	<path id="heart5" class="st18" d="M140.5,356.3c-0.3-1.7-2-2.8-3.8-2.5c-1.3,0.2-2.3,1.1-2.7,2.3c-0.7-1-2-1.5-3.3-1.3
		c-1.8,0.3-3,1.9-2.7,3.6c0.1,0.4,0.2,0.7,0.4,1c0.2,0.3,0.5,0.6,0.8,0.9c0.1,0.1,0.3,0.2,0.4,0.3l5.8,3.8c0,0,0.1,0,0.1,0
		c0,0,0.1,0,0.1-0.1l4.3-5.7l0,0c0.3-0.4,0.5-0.8,0.6-1.2C140.6,357,140.6,356.7,140.5,356.3z"/>
	<path id="heart4" class="st18" d="M333.2,190.6c0.3-1.4,1.8-2.2,3.3-1.9c1.1,0.2,1.9,1,2.2,2c0.6-0.8,1.7-1.2,2.8-0.9
		c1.5,0.3,2.5,1.7,2.2,3c-0.1,0.3-0.2,0.6-0.3,0.8c-0.2,0.3-0.4,0.5-0.7,0.7c-0.1,0.1-0.2,0.2-0.4,0.2l-5,2.9c0,0-0.1,0-0.1,0
		c0,0-0.1,0-0.1-0.1l-3.4-4.8l0,0c-0.2-0.3-0.4-0.7-0.4-1C333.1,191.2,333.1,190.9,333.2,190.6z"/>
	<path id="heart6" class="st18" d="M303.3,268.9c0.1-0.9-0.6-1.7-1.7-1.9c-0.8-0.1-1.5,0.1-1.9,0.6c-0.2-0.6-0.8-1.1-1.6-1.2
		c-1.1-0.2-2.1,0.4-2.2,1.2c0,0.2,0,0.4,0,0.5c0.1,0.2,0.1,0.4,0.3,0.6c0.1,0.1,0.1,0.1,0.2,0.2l2.6,2.9c0,0,0,0,0.1,0
		c0,0,0,0,0.1,0l3.5-1.9l0,0c0.2-0.1,0.4-0.3,0.5-0.5C303.2,269.3,303.3,269.1,303.3,268.9z"/>
</g>
</svg>
