<svg id="Capa_1" enable-background="new 0 0 512 512" height="512" viewBox="0 0 512 512" width="512" xmlns="http://www.w3.org/2000/svg"><path d="m161.057 308.185-68.67 68.67c-1.025 1.025-2.717.887-3.568-.287-2.736-3.774-6.068-7.249-10.043-10.271-18.728-14.239-45.404-13.059-62.768 2.816-20.785 19.003-21.329 51.277-1.632 70.974 8.99 8.99 20.599 13.763 32.371 14.32 5.934.281 10.607 4.938 10.886 10.872.59 12.54 5.964 24.898 16.124 34.102 18.83 17.059 48.154 16.719 66.612-.743 20.163-19.075 20.496-50.891 1-70.387-1.863-1.863-3.841-3.54-5.909-5.038-1.169-.847-1.295-2.536-.274-3.557l68.671-68.671z" fill="#fcf2d0"/><path d="m161.057 308.185-55.839 55.839c5.547 8.289 11.988 16.12 19.335 23.466 7.294 7.294 15.156 13.728 23.521 19.28l55.783-55.784z" fill="#f6e3a3"/><path d="m456.532 278.557c-57.421 57.421-215.435 167.201-302.841 79.795s22.374-245.42 79.795-302.841z" fill="#e1b89a"/><path d="m185.151 113.841c-51.265 72.794-97.293 178.678-31.461 244.511 37.966 37.966 89.255 38.725 139.835 22.734-107.796-40.79-121.429-176.792-108.374-267.245z" fill="#d2996f"/><path d="m182.392 308.428c-4.142 0-7.5-3.358-7.5-7.5v-20.391c0-4.142 3.358-7.5 7.5-7.5s7.5 3.358 7.5 7.5v20.391c0 4.142-3.358 7.5-7.5 7.5z" fill="#e1b89a"/><path d="m243.672 337.908c-4.142 0-7.5-3.358-7.5-7.5v-29.417c0-4.142 3.358-7.5 7.5-7.5s7.5 3.358 7.5 7.5v29.417c0 4.142-3.358 7.5-7.5 7.5z" fill="#d2996f"/><path d="m479.516 255.572-22.985 22.984c-43.312 43.312-113.534 43.312-156.846 0l-66.2-66.2c-43.312-43.312-43.312-113.535 0-156.847l22.984-22.984c43.312-43.312 113.535-43.312 156.847 0l66.2 66.2c43.312 43.313 43.312 113.535 0 156.847z" fill="#e8899e"/><ellipse cx="356.501" cy="155.541" fill="#fcf2d0" rx="31.035" ry="38.544" transform="matrix(.707 -.707 .707 .707 -5.567 297.642)"/><ellipse cx="256.944" cy="162.437" fill="#fff" rx="27.774" ry="22.118" transform="matrix(.707 -.707 .707 .707 -39.603 229.265)"/><path d="m343.757 75.624c8.638 8.638 24.433 6.847 35.279-3.999 10.847-10.847 12.637-26.642 4-35.279-8.638-8.638-24.433-6.847-35.279 4-10.847 10.845-12.637 26.64-4 35.278z" fill="#fff"/><g fill="#4e5660"><path d="m253.335 143.436c-1.919 0-3.839-.732-5.303-2.197l-8.029-8.028c-2.929-2.929-2.929-7.677 0-10.606 2.93-2.929 7.678-2.93 10.607 0l8.029 8.028c2.929 2.929 2.929 7.677 0 10.607-1.466 1.464-3.385 2.196-5.304 2.196z"/><path d="m336.895 59.875c-1.919 0-3.839-.732-5.303-2.197l-8.028-8.028c-2.929-2.929-2.929-7.678 0-10.606 2.929-2.929 7.678-2.929 10.606 0l8.028 8.028c2.929 2.929 2.929 7.678 0 10.606-1.464 1.465-3.383 2.197-5.303 2.197z"/><path d="m285.284 112.481c-.645 0-1.29-.022-1.938-.066-4.133-.284-7.253-3.864-6.969-7.996s3.865-7.253 7.996-6.969c3.812.267 7.529-1.13 10.217-3.818s4.079-6.411 3.818-10.217c-.284-4.132 2.837-7.712 6.969-7.996 4.124-.288 7.712 2.837 7.996 6.969.558 8.132-2.422 16.096-8.176 21.85-5.296 5.296-12.465 8.243-19.913 8.243z"/></g></svg>