<svg height="512pt" viewBox="0 -46 512.00016 512" width="512pt" xmlns="http://www.w3.org/2000/svg"><path d="m409.535156 306.035156c0 36.148438-29.304687 65.453125-65.453125 65.453125-36.148437 0-65.449219-29.304687-65.449219-65.453125 0-36.148437 29.300782-150.929687 65.449219-150.929687 36.148438 0 65.453125 114.78125 65.453125 150.929687zm0 0" fill="#f7dbb2"/><path d="m344.082031 155.105469c-31.847656 0-58.378906 89.082031-64.242187 135.003906 63.457031-1.101563 100.28125-25.921875 119.269531-44.949219-11.652344-43.25-31.945313-90.054687-55.027344-90.054687zm0 0" fill="#f2d1a5"/><path d="m179.089844 124.113281c-9.273438 27.046875 4.195312 56.71875 30.601562 67.6875 27.71875 11.519531 71.007813 22.757813 134.390625 22.757813 63.386719 0 106.671875-11.238282 134.390625-22.757813 26.40625-10.96875 39.875-40.640625 30.601563-67.6875-16.988281-49.566406-59.996094-124.113281-164.992188-124.113281-104.992187 0-148 74.546875-164.992187 124.113281zm0 0" fill="#b2785b"/><path d="m427.003906 207.039062c-15.320312-15.691406-31.921875-38.640624-47.296875-72.195312-30.542969-66.660156-84.230469-100.484375-117.394531-115.828125-47.695312 25.390625-71.574219 71.113281-83.222656 105.097656-9.273438 27.046875 4.195312 56.71875 30.601562 67.6875 27.71875 11.519531 71.007813 22.757813 134.390625 22.757813 32.824219 0 60.25-3.011719 82.921875-7.519532zm0 0" fill="#935b45"/><path d="m233.371094 354.050781c0 36.148438-29.304688 65.453125-65.453125 65.453125-36.148438 0-65.453125-29.304687-65.453125-65.453125 0-36.148437 29.304687-150.929687 65.453125-150.929687 36.148437 0 65.453125 114.78125 65.453125 150.929687zm0 0" fill="#ffe9c5"/><path d="m167.917969 203.121094c-27.636719 0-51.269531 67.089844-60.871094 114.835937 56.949219 2.949219 94.644531-14.875 114.851563-28.59375-11.796876-42.140625-31.574219-86.242187-53.980469-86.242187zm0 0" fill="#f7dbb2"/><path d="m2.925781 172.128906c-9.273437 27.050782 4.195313 56.722656 30.601563 67.691406 27.71875 11.515626 71.003906 22.753907 134.390625 22.753907 63.382812 0 106.671875-11.238281 134.390625-22.753907 26.40625-10.972656 39.875-40.640624 30.601562-67.691406-16.992187-49.5625-60-124.109375-164.992187-124.109375-104.996094 0-148.003907 74.546875-164.992188 124.109375zm0 0" fill="#c68d6d"/><path d="m167.917969 207.847656c-15.988281 0-28.949219-12.960937-28.949219-28.949218v-21.046876c0-4.363281 3.539062-7.902343 7.902344-7.902343h42.09375c4.363281 0 7.902344 3.539062 7.902344 7.902343v21.046876c0 15.988281-12.960938 28.949218-28.949219 28.949218zm0 0" fill="#57565c"/><path d="m101.964844 178.898438c0-13.578126-13.824219-24.589844-30.878906-24.589844-17.054688 0-30.878907 11.011718-30.878907 24.589844 0 13.582031 13.824219 24.589843 30.878907 24.589843 17.054687 0 30.878906-11.007812 30.878906-24.589843zm0 0" fill="#ffa6bb"/><path d="m295.628906 178.898438c0-13.578126-13.824218-24.589844-30.878906-24.589844s-30.878906 11.011718-30.878906 24.589844c0 13.582031 13.824218 24.589843 30.878906 24.589843s30.878906-11.007812 30.878906-24.589843zm0 0" fill="#ffa6bb"/><g fill="#57565c"><path d="m251.007812 165.402344c-4.265624 0-7.726562-3.460938-7.726562-7.726563v-12.828125c0-4.265625 3.460938-7.726562 7.726562-7.726562 4.269532 0 7.726563 3.460937 7.726563 7.726562v12.828125c0 4.265625-3.457031 7.726563-7.726563 7.726563zm0 0"/><path d="m84.828125 165.402344c-4.269531 0-7.726563-3.460938-7.726563-7.726563v-12.828125c0-4.265625 3.457032-7.726562 7.726563-7.726562 4.265625 0 7.722656 3.460937 7.722656 7.726562v12.828125c0 4.265625-3.457031 7.726563-7.722656 7.726563zm0 0"/></g></svg>