<svg height="511pt" viewBox="1 -42 511.99998 511" width="511pt" xmlns="http://www.w3.org/2000/svg"><path d="m378.757812 24.058594h-245.515624s-133.242188 47.460937-133.242188 187.847656c0 103.085938 136.914062 140.269531 210.265625 199.003906 0 0 45.734375 38.011719 90.347656.890625 73.351563-58.730469 211.386719-96.808593 211.386719-199.894531 0-140.386719-133.242188-187.847656-133.242188-187.847656zm0 0" fill="#eab9a4"/><path d="m206.945312 24.058594h-73.703124s-133.242188 47.464844-133.242188 187.851562c0 103.085938 136.914062 140.269532 210.265625 199.003906 0 0 19.398437 16.117188 45.25 17.109376-33.515625-45.617188-66.09375-97.136719-90.359375-150.867188-48.199219-106.722656-1.863281-197.996094 41.789062-253.097656zm0 0" fill="#dd9f80"/><path d="m445.933594 99.914062c0-54.90625-85.035156-99.414062-189.933594-99.414062s-189.933594 44.507812-189.933594 99.414062c0 54.902344 85.035156 99.410157 189.933594 99.410157s189.933594-44.507813 189.933594-99.410157zm0 0" fill="#ffdaaa"/><path d="m261.988281 306.101562c-15.988281 0-28.949219-12.960937-28.949219-28.949218v-21.046875c0-4.363281 3.539063-7.902344 7.902344-7.902344h42.09375c4.363282 0 7.902344 3.539063 7.902344 7.902344v21.046875c0 15.988281-12.960938 28.949218-28.949219 28.949218zm0 0" fill="#57565c"/><path d="m196.03125 277.152344c0-13.578125-13.824219-24.589844-30.875-24.589844-17.054688 0-30.878906 11.011719-30.878906 24.589844 0 13.582031 13.824218 24.589844 30.878906 24.589844 17.050781 0 30.875-11.007813 30.875-24.589844zm0 0" fill="#ffd7e2"/><path d="m389.699219 277.152344c0-13.578125-13.824219-24.589844-30.878907-24.589844-17.050781 0-30.875 11.011719-30.875 24.589844 0 13.582031 13.824219 24.589844 30.875 24.589844 17.054688 0 30.878907-11.007813 30.878907-24.589844zm0 0" fill="#ffd7e2"/><path d="m345.078125 263.65625c-4.265625 0-7.726563-3.460938-7.726563-7.726562v-12.828126c0-4.265624 3.460938-7.726562 7.726563-7.726562 4.269531 0 7.726563 3.460938 7.726563 7.726562v12.828126c0 4.265624-3.457032 7.726562-7.726563 7.726562zm0 0" fill="#57565c"/><path d="m178.898438 263.65625c-4.269532 0-7.726563-3.460938-7.726563-7.726562v-12.828126c0-4.265624 3.457031-7.726562 7.726563-7.726562 4.265624 0 7.726562 3.460938 7.726562 7.726562v12.828126c0 4.265624-3.460938 7.726562-7.726562 7.726562zm0 0" fill="#57565c"/><path d="m66.066406 99.914062c0 33.152344 31.007813 62.515626 78.667969 80.574219 1.816406-78.8125 47.589844-142.378906 81.398437-178.765625-90.707031 7.5-160.066406 48.605469-160.066406 98.191406zm0 0" fill="#ffc477"/></svg>