<svg height="511pt" viewBox="-49 0 511 511.99966" width="511pt" xmlns="http://www.w3.org/2000/svg"><path d="m392.691406 460.664062-186.039062-20.210937-186.039063 20.210937-6.496093 27.460938c-2.882813 12.1875 6.363281 23.875 18.886718 23.875h347.296875c12.523438 0 21.769531-11.6875 18.886719-23.875zm0 0" fill="#f4e74d"/><path d="m126.65625 460.664062v-11.519531l-106.042969 11.519531-6.496093 27.460938c-2.882813 12.1875 6.363281 23.875 18.886718 23.875h83.179688c-5.84375-22.296875 10.472656-51.335938 10.472656-51.335938zm0 0" fill="#eedb00"/><path d="m405.679688 202.421875c5.992187-143.863281-46.574219-152.25-46.574219-152.25h-304.90625s-52.566407 8.386719-46.570313 152.25c5.992188 143.863281-26.976562 183.796875 12.984375 258.242187h372.078125c39.960938-74.445312 6.992188-114.378906 12.988282-258.242187zm0 0" fill="#73da8c"/><path d="m123.5625 278.585938c7.117188-21.210938 8.132812-50.207032 6.96875-76.125-1.449219-32.191407 21.816406-60.085938 53.734375-64.507813 78.484375-10.871094 126.089844-45.945313 126.089844-45.945313v-41.835937h-256.15625s-52.566407 8.386719-46.570313 152.25c5.992188 143.863281-26.976562 183.796875 12.984375 258.242187h106.042969c-41.019531-62.550781-16.554688-141.964843-3.09375-182.078124zm0 0" fill="#29ce69"/><path d="m206.652344 30.367188c-64.984375 0-117.722656 10.324218-152.453125 19.804687-15.753907 4.296875-15.753907 26.675781 0 30.976563 34.730469 9.480468 87.46875 19.804687 152.453125 19.804687 64.988281 0 117.726562-10.324219 152.453125-19.804687 15.753906-4.300782 15.753906-26.679688 0-30.976563-34.726563-9.480469-87.464844-19.804687-152.453125-19.804687zm0 0" fill="#6b7d8e"/><path d="m206.652344 100.953125c5.601562 0 11.101562-.074219 16.515625-.222656 0-37.847657-32.300781-31.378907-45.382813-74.238281-15.378906-50.367188-63.195312-4.558594-63.195312-4.558594s-29.886719 24.019531-14.324219 69.59375c29.699219 5.367187 65.632813 9.425781 106.386719 9.425781zm0 0" fill="#eedb00"/><path d="m187.328125 46.738281-.1875.292969s-11.164063 24.71875-36.003906 51.390625c17.277343 1.585937 35.832031 2.53125 55.515625 2.53125 5.601562 0 11.101562-.074219 16.515625-.222656 0-30.414063-20.859375-32.21875-35.839844-53.992188zm0 0" fill="#dfca00"/><path d="m206.652344 100.953125c39.539062 0 74.53125-3.820313 103.703125-8.945313 7.804687-74.023437-40.3125-87.027343-40.3125-87.027343s-37.367188-16.902344-54.269531 11.566406c-15.855469 26.707031-7.449219 59.683594-23.972657 84.226563 4.878907.117187 9.824219.179687 14.851563.179687zm0 0" fill="#f9ee80"/><path d="m206.652344 239.59375c-15.988282 0-28.949219-12.960938-28.949219-28.949219v-21.046875c0-4.363281 3.539063-7.902344 7.90625-7.902344h42.089844c4.367187 0 7.902343 3.539063 7.902343 7.902344v21.046875c0 15.988281-12.960937 28.949219-28.949218 28.949219zm0 0" fill="#454545"/><path d="m140.699219 210.644531c0-13.578125-13.824219-24.589843-30.878907-24.589843-17.054687 0-30.878906 11.011718-30.878906 24.589843 0 13.582031 13.824219 24.589844 30.878906 24.589844 17.054688 0 30.878907-11.007813 30.878907-24.589844zm0 0" fill="#ffd2e3"/><path d="m334.363281 210.644531c0-13.578125-13.824219-24.589843-30.878906-24.589843-17.050781 0-30.875 11.011718-30.875 24.589843 0 13.582031 13.824219 24.589844 30.875 24.589844 17.054687 0 30.878906-11.007813 30.878906-24.589844zm0 0" fill="#ffd2e3"/><path d="m289.746094 197.148438c-4.269532 0-7.726563-3.460938-7.726563-7.726563v-12.828125c0-4.265625 3.457031-7.726562 7.726563-7.726562 4.265625 0 7.726562 3.460937 7.726562 7.726562v12.828125c0 4.265625-3.460937 7.726563-7.726562 7.726563zm0 0" fill="#454545"/><path d="m123.5625 197.148438c-4.269531 0-7.726562-3.460938-7.726562-7.726563v-12.828125c0-4.265625 3.457031-7.726562 7.726562-7.726562 4.265625 0 7.726562 3.460937 7.726562 7.726562v12.828125c0 4.265625-3.460937 7.726563-7.726562 7.726563zm0 0" fill="#454545"/><g fill="#fffcdc"><path d="m105.71875 382.964844c-3.660156-2.195313-8.40625-1.003906-10.597656 2.65625-3.117188 5.203125-8.59375 8.308594-14.648438 8.308594-9.40625 0-17.058594-7.648438-17.058594-17.058594v-32.015625c0-9.40625 7.652344-17.058594 17.058594-17.058594 5.675782 0 10.964844 2.8125 14.148438 7.527344 2.390625 3.53125 7.195312 4.464843 10.730468 2.074219 3.535157-2.386719 4.464844-7.191407 2.074219-10.726563-6.058593-8.972656-16.136719-14.328125-26.953125-14.328125-17.925781 0-32.511718 14.582031-32.511718 32.511719v32.015625c0 17.929687 14.585937 32.511718 32.511718 32.511718 11.367188 0 22.058594-6.0625 27.90625-15.820312 2.191406-3.660156 1-8.40625-2.660156-10.597656zm0 0"/><path d="m209.253906 312.34375c-4.269531 0-7.726562 3.460938-7.726562 7.726562v81.585938c0 4.269531 3.457031 7.726562 7.726562 7.726562 4.265625 0 7.726563-3.457031 7.726563-7.726562v-81.585938c0-4.265624-3.460938-7.726562-7.726563-7.726562zm0 0"/><path d="m173.945312 312.34375c-4.265624 0-7.726562 3.460938-7.726562 7.726562v33.066407h-24.929688v-33.066407c0-4.265624-3.460937-7.726562-7.726562-7.726562-4.269531 0-7.726562 3.460938-7.726562 7.726562v81.585938c0 4.269531 3.457031 7.726562 7.726562 7.726562 4.265625 0 7.726562-3.457031 7.726562-7.726562v-33.066406h24.929688v33.066406c0 4.269531 3.460938 7.726562 7.726562 7.726562 4.265626 0 7.726563-3.457031 7.726563-7.726562v-81.585938c0-4.265624-3.460937-7.726562-7.726563-7.726562zm0 0"/><path d="m260.949219 312.34375h-16.390625c-4.265625 0-7.726563 3.460938-7.726563 7.726562v81.585938c0 4.269531 3.460938 7.726562 7.726563 7.726562 4.269531 0 7.726562-3.457031 7.726562-7.726562v-22.539062h8.664063c18.40625 0 33.382812-14.976563 33.382812-33.386719 0-18.410157-14.976562-33.386719-33.382812-33.386719zm0 51.320312h-8.664063v-35.867187h8.664063c9.886719 0 17.933593 8.042969 17.933593 17.933594s-8.046874 17.933593-17.933593 17.933593zm0 0"/><path d="m339.207031 353.136719h-6.925781c-5.894531 0-10.6875-5.683594-10.6875-12.667969 0-6.988281 4.792969-12.671875 10.6875-12.671875h25.339844c4.265625 0 7.726562-3.457031 7.726562-7.726563 0-4.265624-3.460937-7.726562-7.726562-7.726562h-25.339844c-14.414062 0-26.140625 12.617188-26.140625 28.125s11.726563 28.121094 26.140625 28.121094h6.925781c5.894531 0 10.6875 5.6875 10.6875 12.671875 0 6.988281-4.792969 12.667969-10.6875 12.667969h-25.339843c-4.269532 0-7.726563 3.460937-7.726563 7.726562 0 4.269531 3.457031 7.726562 7.726563 7.726562h25.339843c14.414063 0 26.140625-12.613281 26.140625-28.121093 0-15.507813-11.726562-28.125-26.140625-28.125zm0 0"/></g></svg>