<?xml version="1.0" encoding="iso-8859-1"?>
<!-- Generator: Adobe Illustrator 19.0.0, SVG Export Plug-In . SVG Version: 6.00 Build 0)  -->
<svg version="1.1" id="Capa_1" xmlns="http://www.w3.org/2000/svg" xmlns:xlink="http://www.w3.org/1999/xlink" x="0px" y="0px"
	 viewBox="0 0 512 512" style="enable-background:new 0 0 512 512;" xml:space="preserve">
<path style="fill:#B5D9FF;" d="M356.271,512H155.729c-24.001,0-42.523-21.115-39.397-44.911l35.084-267.052h209.167l35.084,267.052
	C398.794,490.885,380.272,512,356.271,512z"/>
<path style="fill:#9FD3E3;" d="M116.332,467.089C113.206,490.885,131.729,512,155.729,512H356.27
	c24.001,0,42.523-21.115,39.397-44.911l-0.676-5.146H117.008L116.332,467.089z"/>
<path style="fill:#BDC0C3;" d="M381.043,149.797H130.957c-11.336,0-20.525,9.189-20.525,20.525v9.191
	c0,11.336,9.189,20.525,20.525,20.525h250.086c11.335,0,20.525-9.189,20.525-20.525v-9.191
	C401.568,158.986,392.379,149.797,381.043,149.797z"/>
<path style="fill:#DCDEDF;" d="M306.793,0H205.207c-32.123,0-61.904,16.812-78.501,44.316l0,0
	c-10.565,17.509-15.188,37.964-13.178,58.315l2.912,29.492c0.99,10.03,9.426,17.674,19.505,17.674h240.111
	c10.079,0,18.514-7.644,19.505-17.674l2.912-29.492c2.01-20.351-2.613-40.806-13.178-58.315l0,0C368.697,16.812,338.917,0,306.793,0
	z"/>
<g>
	<circle style="fill:#BDC0C3;" cx="256" cy="32.65" r="12.79"/>
	<circle style="fill:#BDC0C3;" cx="202.6" cy="36.65" r="12.79"/>
	<circle style="fill:#BDC0C3;" cx="309.39" cy="36.65" r="12.79"/>
</g>
<path style="fill:#FFFFFF;" d="M346.986,326.844c-0.852-6.488-6.904-10.999-13.361-9.939c-33.572,5.509-61.742,4.443-93.406-0.926
	c-18.363-3.114-44.37-5.924-67.317,1.603c-4.253,1.395-7.339,5.095-7.923,9.533l-18.903,143.881
	c-0.499,3.805,1.248,6.45,2.334,7.689c1.087,1.238,3.481,3.315,7.319,3.315H356.27c3.838,0,6.232-2.077,7.319-3.315
	c1.086-1.238,2.833-3.884,2.334-7.688L346.986,326.844z"/>
<g>
	<ellipse style="fill:#F298B8;" cx="197.47" cy="422.85" rx="21.597" ry="17.199"/>
	<ellipse style="fill:#F298B8;" cx="314.53" cy="422.85" rx="21.597" ry="17.199"/>
</g>
<g>
	<path style="fill:#495059;" d="M210.056,413.189c-4.143,0-7.5-3.358-7.5-7.5v-7.626c0-4.142,3.357-7.5,7.5-7.5s7.5,3.358,7.5,7.5
		v7.626C217.556,409.831,214.198,413.189,210.056,413.189z"/>
	<path style="fill:#495059;" d="M301.944,413.189c-4.143,0-7.5-3.358-7.5-7.5v-7.626c0-4.142,3.357-7.5,7.5-7.5s7.5,3.358,7.5,7.5
		v7.626C309.444,409.831,306.087,413.189,301.944,413.189z"/>
	<path style="fill:#495059;" d="M256,419.045c-6.811,0-13.286-2.949-17.768-8.09c-2.721-3.123-2.396-7.86,0.727-10.582
		c3.122-2.722,7.859-2.396,10.582,0.726c1.631,1.872,3.985,2.946,6.459,2.946s4.828-1.074,6.459-2.946
		c2.723-3.122,7.459-3.448,10.582-0.726c3.123,2.721,3.447,7.459,0.727,10.582C269.286,416.097,262.81,419.045,256,419.045z"/>
</g>
<path style="opacity:0.15;enable-background:new    ;" d="M224.807,0h-19.6c-32.124,0-61.904,16.812-78.501,44.316l0,0
	c-10.565,17.509-15.188,37.964-13.178,58.315l2.912,29.492c0.991,10.03,9.426,17.674,19.505,17.674h128.517
	C202.912,120.513,195.782,40.571,224.807,0z"/>
<path style="opacity:0.15;enable-background:new    ;" d="M264.462,149.797H130.957c-11.336,0-20.525,9.189-20.525,20.525v9.191
	c0,11.336,9.189,20.525,20.525,20.525h137.514C243.21,188.485,245.566,159.012,264.462,149.797z"/>
<path style="opacity:0.15;enable-background:new    ;" d="M363.949,225.654l-3.365-25.616H151.417L116.333,467.09
	c-3.127,23.795,15.396,44.91,39.396,44.91h103.675c-99.457-28.652-66.356-185.406-52.936-263.204
	c2.307-13.373,13.896-23.143,27.467-23.143h130.014V225.654z"/>
<g style="opacity:0.15;">
	<circle cx="205.8" cy="356.02" r="7.701"/>
	<circle cx="282" cy="456.77" r="7.701"/>
	<circle cx="309.64" cy="344.3" r="7.701"/>
</g>
<g>
</g>
<g>
</g>
<g>
</g>
<g>
</g>
<g>
</g>
<g>
</g>
<g>
</g>
<g>
</g>
<g>
</g>
<g>
</g>
<g>
</g>
<g>
</g>
<g>
</g>
<g>
</g>
<g>
</g>
</svg>
