<svg id="Capa_1" enable-background="new 0 0 497 497" height="512" viewBox="0 0 497 497" width="512" xmlns="http://www.w3.org/2000/svg"><g><path d="m272.411 418.343c-53.2-70.028-49.4-143.492-49.4-143.492h-138.249s2.296 44.39-21.669 97.051c-9.897 21.747 6.105 46.441 29.997 46.441z" fill="#b0ebce"/><path d="m116.149 377.028c0-42.106 22.27-79.371 56.452-102.177h-87.839s2.296 44.39-21.669 97.051c-9.897 21.747 6.105 46.441 29.997 46.441h30.541c-4.842-12.941-7.482-26.84-7.482-41.315z" fill="#60d9a7"/><path d="m153.841 12.817.015.009.016-.009c30.25-17.223 68.759-4.712 83.112 27.001l.097.011c34.559 3.861 58.337 36.57 51.35 70.635l-.016.078.081.074c25.664 23.442 25.664 63.86 0 87.302l-.081.074.016.077c2.413 11.763 7.451 27.919 3.35 38.227-7.776 19.543-32.074 29.88-54.7 32.408l-.096.011v.001c-14.353 31.713-52.862 44.223-83.112 27l-.015-.009h.03l-.015.009c-30.25 17.223-68.759 4.713-83.112-27v-.001l-.096-.011c-34.559-3.861-58.337-36.57-51.35-70.635l.016-.077-.081-.074c-25.664-23.442-25.664-63.86 0-87.302l.081-.074-.016-.078c-6.988-34.065 16.791-66.774 51.35-70.635l.097-.011c14.353-31.713 52.861-44.224 83.112-27.001l.016.009.015-.009h-.064z" fill="#60d9a7"/><path d="m326.28 147.867c-26.817 0-48.556 21.739-48.556 48.556s21.739 67.797 48.556 67.797 48.556-40.98 48.556-67.797c0-26.816-21.74-48.556-48.556-48.556z" fill="#00cd8c"/><path d="m448.444 270.032c-26.817 0-67.797 21.739-67.797 48.556s40.98 48.556 67.797 48.556 48.556-21.739 48.556-48.556-21.739-48.556-48.556-48.556z" fill="#00cd8c"/><path d="m447.511 197.356c-20.197-20.197-52.943-20.197-73.14 0s-34.688 67.434-14.491 87.631 67.434 5.706 87.631-14.491 20.197-52.943 0-73.14z" fill="#60d9a7"/><g><path d="m364.713 280.154c-2.929-2.929-2.929-7.678 0-10.607l42.817-42.818c2.93-2.929 7.678-2.929 10.607 0s2.929 7.678 0 10.607l-42.817 42.818c-2.929 2.929-7.677 2.929-10.607 0z" fill="#00cd8c"/></g><g><path d="m326.279 258.262c-4.143 0-7.5-3.358-7.5-7.5v-56.852c0-4.142 3.357-7.5 7.5-7.5s7.5 3.358 7.5 7.5v56.852c0 4.142-3.357 7.5-7.5 7.5z" fill="#60d9a7"/></g><g><path d="m450.957 326.088h-56.852c-4.143 0-7.5-3.358-7.5-7.5s3.357-7.5 7.5-7.5h56.852c4.143 0 7.5 3.358 7.5 7.5s-3.357 7.5-7.5 7.5z" fill="#60d9a7"/></g><path d="m381.959 262.908c-41.56-41.56-108.942-41.56-150.502 0s-106.77 174.152-65.21 215.712 174.152-23.651 215.712-65.21c41.56-41.56 41.56-108.942 0-150.502z" fill="#ffa875"/><g><g><path d="m249.452 309.643c-2.93-2.929-2.93-7.678-.001-10.607l8.24-8.241c2.93-2.929 7.679-2.929 10.606 0 2.93 2.929 2.93 7.678.001 10.607l-8.24 8.241c-2.928 2.928-7.677 2.93-10.606 0z" fill="#423e4f"/></g><g><path d="m335.226 395.416c-2.93-2.929-2.93-7.678-.001-10.607l8.24-8.241c2.93-2.929 7.679-2.929 10.606 0 2.93 2.929 2.93 7.678.001 10.607l-8.24 8.241c-2.929 2.928-7.678 2.93-10.606 0z" fill="#423e4f"/></g><g><path d="m279.098 335.159c.284-4.132 3.879-7.253 7.997-6.967 4.133.284 7.252 3.865 6.968 7.997-.569 8.266 6.258 15.188 14.617 14.616 4.14-.284 7.713 2.836 7.996 6.969.284 4.132-2.836 7.712-6.969 7.996-17.392 1.195-31.805-13.238-30.609-30.611z" fill="#423e4f"/></g></g><g><g><path d="m70.421 163.296c-4.143 0-7.5-3.358-7.5-7.5v-16.039c0-4.142 3.357-7.5 7.5-7.5s7.5 3.358 7.5 7.5v16.039c0 4.142-3.358 7.5-7.5 7.5z" fill="#423e4f"/></g><g><path d="m237.353 163.296c-4.143 0-7.5-3.358-7.5-7.5v-16.039c0-4.142 3.357-7.5 7.5-7.5s7.5 3.358 7.5 7.5v16.039c0 4.142-3.357 7.5-7.5 7.5z" fill="#423e4f"/></g><g><path d="m153.887 172.843c-10.601 0-20.682-4.592-27.659-12.597-2.722-3.123-2.396-7.86.727-10.582 3.122-2.721 7.86-2.396 10.582.727 4.127 4.736 10.087 7.453 16.351 7.453 6.265 0 12.225-2.716 16.352-7.453 2.723-3.123 7.457-3.448 10.582-.727 3.122 2.721 3.448 7.459.727 10.582-6.98 8.005-17.061 12.597-27.662 12.597z" fill="#423e4f"/></g></g><path d="m207.861 383.782c0-78.712 61.715-142.521 137.845-142.521 1.781 0 3.551.047 5.315.116-39.272-17.975-87.232-10.801-119.564 21.531-41.56 41.56-106.77 174.152-65.21 215.712 12.789 12.789 34.203 15.457 58.926 11.826-15.452-22.608-17.312-57.08-17.312-106.664z" fill="#ff995d"/><path d="m50.344 150.48c0-59.665 32.751-112.47 83.014-144.776-25.302-3.777-51.358 9.277-62.598 34.113l-.097.011c-34.559 3.861-58.337 36.57-51.35 70.635l.016.078-.081.074c-25.664 23.442-25.664 63.86 0 87.303l.081.074-.016.077c-6.988 34.064 16.79 66.774 51.349 70.635l.096.011c12.587 27.812 43.751 40.849 71.632 32.021-55.337-31.605-92.046-87.087-92.046-150.256z" fill="#00cd8c"/></g></svg>