<svg id="Capa_1" enable-background="new 0 0 497 497" height="512" viewBox="0 0 497 497" width="512" xmlns="http://www.w3.org/2000/svg"><g><path d="m471.291 32.293c-21.533-21.533-49.753-32.3-77.973-32.293-21.897 0-43.794 6.484-62.568 19.445l.493 36.238-37.517-1.772-35.221 35.221 1.772 37.517-37.517-1.772-35.221 35.221 1.772 37.517-36.238-.493c-29.673 42.962-25.39 102.302 12.849 140.541 16.664 16.664 38.505 24.992 60.346 24.992s43.682-8.328 60.346-24.992l184.677-184.677c33.328-33.329 33.328-87.365 0-120.693z" fill="#f8d070"/><path d="m145.788 209.283c2.145-4.172 4.573-8.235 7.285-12.162l36.238.493-6.896 39.209-27.064-12.384z" fill="#f9ed80"/><path d="m237.831 210.389-50.292-50.292-21.617 21.617c-4.821 4.821-9.104 9.984-12.849 15.406l49.013 49.013c4.94 4.94 11.403 7.406 17.872 7.406 6.47 0 12.933-2.466 17.872-7.406 9.874-9.871 9.874-25.871.001-35.744z" fill="#f9ed80"/><path d="m209.848 246.035c-14.086-14.085-29.259-25.874-44.795-35.214l-138.578 138.577c9.339 15.536 21.128 30.709 35.214 44.795 62.361 62.361 146.085 79.754 186.999 38.84s23.52-124.638-38.84-186.998z" fill="#b2b0bc"/><g><path d="m298.136 312.289c-.135-.726-3.286-18.019-.252-38.907 3.074-21.159 11.316-38.859 24.145-52.166 7.593-7.876 20.63-6.318 26.312 3.031 3.914 6.439 3.125 14.768-2.109 20.189-22.061 22.851-15.226 61.262-15.145 61.696z" fill="#60d9a7"/></g><path d="m188.017 332.261c-6.208-6.208-13.902-10.02-21.937-11.439-17.421-3.076-32.68 12.184-29.604 29.604 1.419 8.034 5.231 15.729 11.439 21.936 12.922 12.922 32.282 15.464 47.748 7.647 7.818-15.466 5.276-34.826-7.646-47.748z" fill="#90d3f1"/><path d="m59.479 316.394-33.004 33.004c9.339 15.536 21.128 30.709 35.214 44.795 48.495 48.495 109.905 69.789 154.059 57.623-64.699-14.51-129.507-74.017-156.269-135.422z" fill="#a19dae"/><path d="m324.587 258.475c-6.385 1.91-13.211 1.91-19.597 0-1.209-.362-2.414-.689-3.619-1.018-1.509 5.061-2.681 10.37-3.488 15.925-3.034 20.888.117 38.181.252 38.907l32.952-6.157c-.069-.372-5.083-28.635 7.37-51.095-4.586.907-9.21 2.044-13.87 3.438z" fill="#00cd8c"/><path d="m315.847 488.425c.325.177.65.352.974.523 24.791 13.113 55.035 9.88 77.204-7.297 110.353-85.501 50.219-253.065-79.236-198.404-129.456-54.661-189.59 112.903-79.237 198.404 22.169 17.177 52.414 20.41 77.204 7.297.324-.171.649-.346.974-.523.66-.359 1.459-.359 2.117 0z" fill="#ff748f"/><g><g><path d="m239.814 385.987c-4.143 0-7.5-3.358-7.5-7.5v-14.407c0-4.142 3.357-7.5 7.5-7.5s7.5 3.358 7.5 7.5v14.407c0 4.142-3.357 7.5-7.5 7.5z" fill="#423e4f"/></g><g><path d="m389.763 385.987c-4.143 0-7.5-3.358-7.5-7.5v-14.407c0-4.142 3.357-7.5 7.5-7.5s7.5 3.358 7.5 7.5v14.407c0 4.142-3.357 7.5-7.5 7.5z" fill="#423e4f"/></g><g><path d="m314.789 394.563c-9.743 0-19.009-4.22-25.421-11.577-2.722-3.123-2.396-7.86.727-10.582 3.122-2.722 7.859-2.397 10.582.726 3.563 4.088 8.706 6.433 14.112 6.433s10.55-2.344 14.112-6.432c2.72-3.124 7.459-3.449 10.581-.727 3.123 2.721 3.449 7.458.728 10.582-6.411 7.358-15.677 11.577-25.421 11.577z" fill="#423e4f"/></g></g><path d="m49.365 190.471c-6.597 2.413-10.732 8.987-10.252 15.995.66 9.645-7.348 17.652-16.992 16.992-7.008-.479-13.582 3.655-15.995 10.252-11.763 32.16-4.071 75.123 20.35 115.688 35.188-.897 70.103-14.766 96.957-41.62s40.723-61.769 41.62-96.957c-40.566-24.421-83.528-32.113-115.688-20.35z" fill="#90d3f1"/><g><g><g><g><ellipse cx="91.313" cy="262.876" fill="#fff" rx="22.612" ry="28.394" transform="matrix(.707 -.707 .707 .707 -159.136 141.562)"/></g></g></g><g><path d="m89.701 241.087c-2.93-2.929-2.93-7.677-.001-10.606l8.207-8.208c2.93-2.929 7.679-2.93 10.606 0 2.93 2.929 2.93 7.677.001 10.606l-8.207 8.208c-2.928 2.928-7.678 2.93-10.606 0z" fill="#423e4f"/></g></g><path d="m308.797 139.423-50.292-50.292-35.745 35.745 50.292 50.292c9.872 9.872 25.872 9.872 35.745 0 4.933-4.933 7.406-11.403 7.406-17.872 0-6.47-2.466-12.933-7.406-17.873z" fill="#f9ed80"/><path d="m379.763 68.458-49.013-49.013c-5.422 3.745-10.585 8.028-15.413 12.856l-21.61 21.61 50.292 50.292c9.873 9.872 25.872 9.872 35.745 0 4.94-4.94 7.406-11.403 7.406-17.872-.001-6.471-2.467-12.934-7.407-17.873z" fill="#f9ed80"/><path d="m46.683 260.92c0-27.198 7.681-52.746 21.146-74.933-6.455.87-12.639 2.354-18.463 4.484-6.597 2.413-10.732 8.987-10.252 15.995.66 9.645-7.348 17.652-16.992 16.992-7.008-.479-13.582 3.655-15.995 10.252-11.763 32.16-4.071 75.123 20.35 115.688 15.475-.395 30.896-3.301 45.603-8.714-15.857-26.335-25.397-54.129-25.397-79.764z" fill="#59c2e7"/><path d="m222.314 373.68c0-40.698 19.688-77.037 50.528-100.945-99.129-6.51-134.89 133.295-37.29 208.915 19.615 15.198 45.55 19.47 68.437 11.172-48.122-20.306-81.675-66.009-81.675-119.142z" fill="#fd5f7e"/></g></svg>