<svg id="Capa_1" enable-background="new 0 0 497 497" height="512" viewBox="0 0 497 497" width="512" xmlns="http://www.w3.org/2000/svg"><g><g><g><path d="m423.189 60c0-33.137-26.863-60-60-60-9.673 0-219.319 0-229.377 0-33.137 0-60 26.863-60 60v120l175.5 60 173.877-60z" fill="#90a1cd"/><path d="m73.811 180v257c0 33.137 26.863 60 60 60h229.377c33.137 0 60-26.863 60-60v-257z" fill="#ff8f71"/></g><g><path d="m173.811 120c0-66.274 53.726-120 120-120h-160c-33.137 0-60 26.863-60 60v120h100z" fill="#788dc3"/><path d="m173.811 377v-197h-100v257c0 33.137 26.863 60 60 60h160c-66.274 0-120-53.726-120-120z" fill="#ff6f4d"/></g></g><g><path d="m358.811 35c-7.146 0-212.849 0-220 0-16.569 0-30 13.432-30 30v47c0 16.568 13.431 30 30 30h220c16.568 0 30-13.432 30-30v-47c0-16.568-13.431-30-30-30z" fill="#eff2f8"/><path d="m138.811 35c-16.569 0-30 13.432-30 30v47c0 16.568 13.431 30 30 30h35v-22c0-33.213 13.494-63.272 35.298-85-37.321 0-67.63 0-70.298 0z" fill="#d7deed"/></g><g><g fill="#fce3a0"><path d="m358.811 218h-60c-16.568 0-30 13.432-30 30v47c0 16.568 13.432 30 30 30h60c16.568 0 30-13.432 30-30v-47c0-16.568-13.431-30-30-30z"/><path d="m198.811 218h-60c-16.569 0-30 13.432-30 30v47c0 16.568 13.431 30 30 30h60c16.568 0 30-13.432 30-30v-47c0-16.568-13.431-30-30-30z"/><path d="m198.811 355h-60c-16.569 0-30 13.432-30 30v47c0 16.568 13.431 30 30 30h60c16.568 0 30-13.432 30-30v-47c0-16.568-13.431-30-30-30z"/></g><path d="m358.811 355h-60c-16.568 0-30 13.432-30 30v47c0 16.568 13.432 30 30 30h60c16.568 0 30-13.432 30-30v-47c0-16.568-13.431-30-30-30z" fill="#ea5b70"/></g><g fill="#ffce71"><path d="m173.811 325v-107h-35c-16.569 0-30 13.432-30 30v47c0 16.568 13.431 30 30 30z"/><path d="m198.811 462c3.121 0 6.131-.478 8.961-1.362-21.014-21.613-33.961-51.111-33.961-83.638v-22h-35c-16.569 0-30 13.432-30 30v47c0 16.568 13.431 30 30 30z"/></g><g><g fill="#ff6f4d"><path d="m188.258 387.73c-2.93-2.928-7.678-2.928-10.607 0l-8.839 8.839-8.839-8.839c-2.93-2.928-7.678-2.928-10.607 0-2.929 2.93-2.929 7.678 0 10.607l8.839 8.839-8.839 8.839c-2.929 2.93-2.929 7.678 0 10.607 1.465 1.464 3.385 2.196 5.304 2.196s3.839-.732 5.304-2.196l8.839-8.839 8.839 8.839c1.465 1.464 3.385 2.196 5.304 2.196s3.839-.732 5.304-2.196c2.929-2.93 2.929-7.678 0-10.607l-8.839-8.839 8.839-8.839c2.926-2.929 2.926-7.677-.002-10.607z"/><path d="m188.811 264h-12.5v-12.5c0-4.143-3.357-7.5-7.5-7.5s-7.5 3.357-7.5 7.5v12.5h-12.5c-4.143 0-7.5 3.357-7.5 7.5s3.357 7.5 7.5 7.5h12.5v12.5c0 4.143 3.357 7.5 7.5 7.5s7.5-3.357 7.5-7.5v-12.5h12.5c4.143 0 7.5-3.357 7.5-7.5s-3.357-7.5-7.5-7.5z"/><path d="m343.811 264h-30c-4.143 0-7.5 3.357-7.5 7.5s3.357 7.5 7.5 7.5h30c4.143 0 7.5-3.357 7.5-7.5s-3.357-7.5-7.5-7.5z"/></g><g fill="#ff8e9e"><path d="m313.811 401.857h30c4.143 0 7.5-3.357 7.5-7.5s-3.357-7.5-7.5-7.5h-30c-4.143 0-7.5 3.357-7.5 7.5s3.358 7.5 7.5 7.5z"/><path d="m343.811 415.143h-30c-4.143 0-7.5 3.357-7.5 7.5s3.357 7.5 7.5 7.5h30c4.143 0 7.5-3.357 7.5-7.5s-3.357-7.5-7.5-7.5z"/></g></g><g><g><g><ellipse cx="170.935" cy="107.898" fill="#ff8e9e" rx="28.919" ry="23.03"/></g><g><ellipse cx="327.688" cy="107.898" fill="#ff8e9e" rx="28.92" ry="23.03"/></g></g></g><g fill="#313d40"><path d="m187.789 61.572c-11.726 0-21.265 9.539-21.265 21.265 0 4.142 3.358 7.5 7.5 7.5s7.5-3.358 7.5-7.5c0-3.455 2.811-6.265 6.265-6.265 3.455 0 6.265 2.81 6.265 6.265 0 4.142 3.358 7.5 7.5 7.5s7.5-3.358 7.5-7.5c0-11.726-9.54-21.265-21.265-21.265z"/><path d="m310.833 61.572c-11.726 0-21.265 9.539-21.265 21.265 0 4.142 3.358 7.5 7.5 7.5s7.5-3.358 7.5-7.5c0-3.455 2.811-6.265 6.265-6.265 3.455 0 6.265 2.81 6.265 6.265 0 4.142 3.358 7.5 7.5 7.5s7.5-3.358 7.5-7.5c.001-11.726-9.539-21.265-21.265-21.265z"/><path d="m268.84 93.271c-3.124-2.721-7.86-2.396-10.582.727-2.259 2.593-5.521 4.08-8.947 4.08s-6.688-1.487-8.947-4.08c-2.723-3.123-7.459-3.447-10.582-.727-3.123 2.722-3.448 7.459-.727 10.582 5.109 5.862 12.492 9.224 20.255 9.224s15.147-3.362 20.256-9.224c2.722-3.122 2.397-7.86-.726-10.582z"/></g></g></svg>