<?xml version="1.0" encoding="utf-8"?>
<!-- Generator: Adobe Illustrator 24.1.0, SVG Export Plug-In . SVG Version: 6.00 Build 0)  -->
<svg version="1.1" id="Слой_1" xmlns="http://www.w3.org/2000/svg" xmlns:xlink="http://www.w3.org/1999/xlink" x="0px" y="0px"
	 viewBox="0 0 1080 1080" style="enable-background:new 0 0 1080 1080;" xml:space="preserve">
<style type="text/css">

	#milk{transition: all 20ms;transform-origin: 20% 20%;}
	#cookie{transition: all 20ms;transform-origin: 50% 50%;}
	#egg{transition: all 20ms;transform-origin: 80% 30%;}
	#pancakes{transition: all 20ms;transform-origin: 5% 80%;}
	#bread{transition: all 20ms;transform-origin: 50% 50%;}
	#cereals{transition: all 20ms;transform-origin: 90% 60%;}


	#milk:hover,
	#cookie:hover,
	#egg:hover,
	#pancakes:hover,
	#bread:hover,
	#cereals:hover{transform: scale(1.2)}

	.st0{fill:#DDCDFF;}
	.st1{fill:none;stroke:#36387A;stroke-linecap:round;stroke-miterlimit:10;}
	.st2{fill:#FFFFFF;stroke:#36387A;stroke-width:2;stroke-miterlimit:10;}
	.st3{fill:#00A7D5;stroke:#36387A;stroke-width:2;stroke-miterlimit:10;}
	.st4{fill:#D4D8D6;stroke:#36387A;stroke-width:2;stroke-miterlimit:10;}
	.st5{fill:#36387A;}
	.st6{fill:none;stroke:#36387A;stroke-width:2;stroke-linecap:round;stroke-miterlimit:10;}
	.st7{fill:#FFFFFF;}
	.st8{fill:#FFC7D0;}
	.st9{fill:#79D1FF;stroke:#36387A;stroke-width:2;stroke-miterlimit:10;}
	.st10{fill:#C77C3D;stroke:#36387A;stroke-width:2;stroke-miterlimit:10;}
	.st11{fill:#B3423D;stroke:#36387A;stroke-miterlimit:10;}
	.st12{fill:#B3423D;}
	.st13{fill:#E5C1A3;}
	.st14{fill:#FFB818;stroke:#36387A;stroke-width:2;stroke-linecap:round;stroke-linejoin:round;}
	.st15{fill:#ECAB1A;}
	.st16{fill:#FFD169;}
	.st17{fill:#F74595;}
	.st18{fill:#F74595;stroke:#36387A;stroke-width:2;stroke-linecap:round;stroke-miterlimit:10;}
	.st19{fill:#F74595;stroke:#36387A;stroke-linecap:round;stroke-miterlimit:10;}
	.st20{fill:#FFC081;stroke:#36387A;stroke-width:2;stroke-miterlimit:10;}
	.st21{fill:#E47F41;stroke:#36387A;stroke-width:2;stroke-miterlimit:10;}
	.st22{fill:#FFB818;stroke:#36387A;stroke-linecap:round;stroke-miterlimit:10;}
	.st23{fill:none;stroke:#36387A;stroke-width:2;stroke-linecap:round;stroke-linejoin:round;}
	.st24{fill:#FF8B97;}
	.st25{fill:#FFC081;stroke:#36387A;stroke-miterlimit:10;}
	.st26{fill:#79D1FF;stroke:#36387A;stroke-width:2;stroke-linecap:round;stroke-miterlimit:10;}
	.st27{fill:#ACCED9;}
	.st28{fill:#62BAFF;stroke:#36387A;stroke-width:2;stroke-linecap:round;stroke-miterlimit:10;}
	.st29{fill:#FFFFFF;stroke:#36387A;stroke-linecap:round;stroke-miterlimit:10;}
	.st30{fill:#C06AA3;}
</style>
<path class="st0" d="M963.9,764.8c44.1-76,61.3-173.8,10.2-250.8C929.3,446.3,856.4,407.7,828,328.4
	c-25.6-71.5-28.9-154.4-93.8-205.6c-38.7-30.5-91.6-41.9-140.6-33.5c-93.9,16.3-150.3,137.5-249,127.5
	c-31.7-3.2-60.3-19.4-89.1-32.8c-74.2-34.5-147.3-14-163.9,71.4c-11.2,57.4,7.5,116.8,16.7,173.2c5.5,33.4,18,66.9,16.9,101
	c-2.1,70.5-42,132.5-41.2,205.6c1.3,107.5,57.6,270.1,190.2,276c87.2,3.9,144.7-77.1,201.8-127.7c86.7-76.7,192.1,15.6,287.9,13
	C849.8,894.1,921.3,838.3,963.9,764.8z"/>
<g>
	<ellipse class="st1" cx="816.5" cy="564.5" rx="23.9" ry="23.3"/>
	<ellipse class="st1" cx="938.4" cy="501.5" rx="12" ry="11.7"/>
	<ellipse class="st1" cx="677.7" cy="433.8" rx="9.6" ry="9.3"/>
	<ellipse class="st1" cx="499.6" cy="892.3" rx="15.5" ry="15.2"/>
	<ellipse class="st1" cx="260.4" cy="526" rx="8.4" ry="8.2"/>
	<ellipse class="st1" cx="347.7" cy="475.8" rx="12" ry="11.7"/>
	<ellipse class="st1" cx="371.6" cy="207.5" rx="14.3" ry="14"/>
	<ellipse class="st1" cx="657.4" cy="145.7" rx="8.4" ry="8.2"/>
	<ellipse class="st1" cx="85.8" cy="540" rx="15.5" ry="15.2"/>
	<ellipse class="st1" cx="928.9" cy="163.2" rx="14.3" ry="14"/>
	<ellipse class="st1" cx="576.1" cy="784.9" rx="6" ry="5.8"/>
	<ellipse class="st1" cx="258" cy="969.2" rx="6" ry="5.8"/>
	<ellipse class="st1" cx="793.7" cy="950.6" rx="8.4" ry="8.2"/>
</g>
<g id="milk">
	<g id="Слой_1-2">
		<polygon class="st2" points="90.6,101.8 101.6,140.3 220.9,90.9 216,53.3 		"/>
		<polygon class="st3" points="101.6,140.3 52.8,226.6 143,228.6 		"/>
		<polygon class="st4" points="52.8,226.6 95.5,465.6 191.7,483.3 143,228.6 		"/>
		<polygon class="st2" points="191.7,483.3 341.7,398 289.1,154.9 220.9,90.9 101.6,140.3 143,228.6 		"/>
		<path class="st5" d="M228.9,272.2c1.9,11.1-5.5,21.6-16.5,23.5c-0.1,0-0.3,0-0.4,0.1c-11.2,2.1-22-5.3-24.2-16.5
			c-1.9-11.1,5.5-21.6,16.5-23.5c0.1,0,0.3,0,0.4-0.1C215.9,253.7,226.7,261.1,228.9,272.2z"/>
		<line class="st6" x1="189.4" y1="277.3" x2="175.7" y2="276.6"/>
		<line class="st6" x1="192.8" y1="286" x2="178.4" y2="290.6"/>
		<line class="st6" x1="280.8" y1="237.4" x2="287.6" y2="226"/>
		<line class="st6" x1="283.5" y1="246.7" x2="295.1" y2="242"/>
		<path class="st7" d="M208.3,275.8c0.7,4.2-2.1,8.2-6.3,8.9c0,0,0,0,0,0c-4.2,0.8-8.3-2-9.1-6.2c-0.6-4.3,2.3-8.3,6.6-8.9
			C203.6,269,207.5,271.8,208.3,275.8L208.3,275.8z"/>
		<path class="st7" d="M218.8,286.2c0.3,1.8-0.8,3.5-2.6,3.8c-1.8,0.3-3.5-0.8-3.8-2.6c-0.3-1.8,0.8-3.5,2.6-3.8
			C216.8,283.3,218.4,284.5,218.8,286.2z"/>
		<ellipse class="st5" cx="267.6" cy="252" rx="20.9" ry="20.4"/>
		<path class="st7" d="M267.6,252c0.7,4.2-2.1,8.2-6.3,8.9c0,0,0,0,0,0c-4.2,0.8-8.3-2-9.1-6.2c-0.7-4.2,2.1-8.2,6.3-8.9
			c0,0,0,0,0,0C262.7,245,266.8,247.8,267.6,252C267.6,252,267.6,252,267.6,252z"/>
		<path class="st7" d="M278.1,262.4c0.2,1.8-1,3.4-2.8,3.6c-1.7,0.2-3.2-0.9-3.6-2.5c-0.3-1.7,0.9-3.4,2.6-3.7
			C276.1,259.5,277.8,260.7,278.1,262.4z"/>
		<path class="st6" d="M232.4,309.4c0,0,20.4,10.7,29.3-12.1"/>
		<path class="st8" d="M220.2,312.4c0.8,4.2-5.2,8.8-13.3,10.2s-15.3-0.9-16.1-5.1s5.2-8.8,13.3-10.2
			C212.2,305.9,219.4,308.2,220.2,312.4z"/>
		
			<ellipse transform="matrix(0.8544 -0.5197 0.5197 0.8544 -104.745 189.6625)" class="st8" cx="286" cy="281.7" rx="14.8" ry="7.8"/>
		<polygon class="st9" points="220.9,90.9 101.6,140.3 143,228.6 289.1,154.9 		"/>
		<polygon class="st9" points="341.7,398 332.9,359.6 184.8,440.2 183.3,439.9 191.7,483.3 		"/>
		<polygon class="st3" points="183.3,439.9 88.7,427.3 95.5,465.6 191.7,483.3 		"/>
	</g>
</g>
<g id="cookie">
	<g id="Слой_1-2_1_">
		<path class="st10" d="M521.8,195.7c161.2,2.6,161.2,219,0,221.6C360.6,414.7,360.6,198.3,521.8,195.7z"/>
		<path class="st11" d="M436.9,315.1c32.4,0.5,32.3,45.1,0,45.6C404.6,360.2,404.6,315.6,436.9,315.1z"/>
		<path class="st11" d="M543.3,201.2c32.4,0.5,32.3,45.1,0,45.6C511,246.3,511,201.7,543.3,201.2z"/>
		<path class="st11" d="M451,241.3c21.7,0.1,21.7,30.7,0,30.8C429.3,272,429.3,241.4,451,241.3z"/>
		<path class="st12" d="M467.7,300.6c0.2,11.8-19.8,11.8-19.6,0C447.9,288.8,467.9,288.8,467.7,300.6z"/>
		<path class="st12" d="M581.2,326.1c0.2,11.8-19.8,11.8-19.6,0C561.5,314.3,581.4,314.3,581.2,326.1z"/>
		<path class="st11" d="M612.9,278.6c21.7,0.1,21.7,30.7,0,30.8C591.2,309.3,591.2,278.7,612.9,278.6z"/>
		<path class="st11" d="M587.2,364.1c-0.1,20.1-33.1,20.1-33.2,0C554.2,344,587.1,344,587.2,364.1z"/>
		<path class="st11" d="M511.7,386.6c-0.1,20.1-33.1,20.1-33.2,0C478.7,366.4,511.7,366.5,511.7,386.6z"/>
		<path class="st11" d="M601.3,249.3c0.2,12.1-20.2,12.1-20,0C581.2,237.2,601.5,237.2,601.3,249.3z"/>
		<path class="st11" d="M497.6,229.9c0.2,12-20.2,12-20,0C477.5,217.8,497.8,217.8,497.6,229.9z"/>
		<path class="st6" d="M505.2,287.4c-6.4,16.1-32.9,11.1-32.4-6.5"/>
		<path class="st6" d="M568.8,299.2c-6.4,16.1-32.9,11.1-32.4-6.5"/>
		<path class="st6" d="M529,322.8c-6.4,16.1-32.9,11.1-32.4-6.5"/>
		<path class="st13" d="M619.5,239.6c34.8,69.6-34.3,148.5-113.7,146.6c-43.6-1.2-91.8-20.7-104.6-59.6
			C445.3,499,730.8,397,619.5,239.6z"/>
	</g>
</g>
<g id="egg">
	<g id="Слой_1-2_2_">
		<path class="st2" d="M876.1,189.8c-33.3-13.2-70.8-13.9-104,5.3c-39,22.5-8.9,62.3-17.7,79.6c-8.3,16.2-35.8,16.3-47,31.7
			c-16.8,23.2-5.9,56.5,12.6,75.4c44.9,45.8,143.7,74.6,206.8,65.9C1073.6,427.4,957.5,222.2,876.1,189.8z"/>
		<ellipse class="st14" cx="853.7" cy="320.6" rx="74.5" ry="66.6"/>
		<path class="st15" d="M906.9,274c7.8,10.5,12,23.2,12.1,36.3c0,36.8-33.4,66.6-74.5,66.6c-19.6,0.2-38.6-7-53.3-20
			c13.3,18.2,36.3,30.3,62.5,30.3c41.2,0,74.5-29.8,74.5-66.6C928.2,302.5,920.1,286,906.9,274z"/>
		<path class="st5" d="M880.8,322.9c0.2,6-4.6,11-10.6,11.2s-11-4.6-11.2-10.6c-0.2-6,4.6-11,10.6-11.2c0.1,0,0.2,0,0.3,0
			C875.9,312.2,880.7,316.9,880.8,322.9C880.8,322.8,880.8,322.8,880.8,322.9z"/>
		<path class="st7" d="M869.9,322.9c0.1,2.3-1.7,4.1-4,4.2s-4.1-1.7-4.2-4s1.7-4.1,4-4.2c0,0,0.1,0,0.1,0c2.2-0.1,4,1.7,4.1,3.9
			C869.9,322.8,869.9,322.8,869.9,322.9z"/>
		<circle class="st7" cx="872.6" cy="329.2" r="1.7"/>
		<path class="st5" d="M849.3,311.3c0.2,6-4.6,11-10.6,11.2c-6,0.2-11-4.6-11.2-10.6c-0.2-6,4.6-11,10.6-11.2c0.1,0,0.2,0,0.3,0
			C844.4,300.6,849.2,305.3,849.3,311.3C849.3,311.2,849.3,311.2,849.3,311.3z"/>
		<path class="st7" d="M838.4,311.3c0.1,2.3-1.7,4.1-4,4.2s-4.1-1.7-4.2-4s1.7-4.1,4-4.2c0,0,0.1,0,0.1,0c2.2-0.1,4,1.7,4.1,3.9
			C838.4,311.2,838.4,311.2,838.4,311.3z"/>
		<circle class="st7" cx="841.1" cy="317.7" r="1.7"/>
		<ellipse class="st16" cx="846.4" cy="275" rx="18.4" ry="12.2"/>
		<path class="st16" d="M884.5,281.4c0,3.4-4.1,6.1-9.2,6.1c-5.1,0-9.2-2.7-9.2-6.1s4.1-6.1,9.2-6.1
			C880.4,275.3,884.5,278,884.5,281.4z"/>
		<path class="st5" d="M840.2,332c-0.3,0.3-0.6,0.6-0.8,1c-2.6,3.9-1.4,8.3,2.6,9.7s9.3-0.5,11.9-4.4c0.4-0.5,0.7-1.1,0.9-1.7
			L840.2,332z"/>
		<path class="st17" d="M844.9,337.8c-2.3-0.4-4.6-0.1-6.7,1c0.5,1.9,2,3.4,3.8,4c2.3,0.7,4.7,0.6,6.9-0.3
			C849.1,340.2,847.6,338.3,844.9,337.8z"/>
	</g>
</g>
<g id="pancakes">
	<g id="Слой_1-2_3_">
		<ellipse class="st18" cx="205.5" cy="808.6" rx="184.2" ry="109.7"/>
		<ellipse class="st19" cx="205.5" cy="808.6" rx="145" ry="86.3"/>
		<ellipse class="st20" cx="201.1" cy="793.1" rx="127" ry="81"/>
		<ellipse class="st21" cx="201.1" cy="781.2" rx="127" ry="81"/>
		<ellipse class="st20" cx="201.1" cy="764.6" rx="127" ry="81"/>
		<ellipse class="st21" cx="201.1" cy="752.8" rx="127" ry="81"/>
		<ellipse class="st20" cx="201.1" cy="736.2" rx="127" ry="81"/>
		<ellipse class="st21" cx="201.1" cy="724.4" rx="127" ry="81"/>
		<ellipse class="st20" cx="201.1" cy="707.7" rx="127" ry="81"/>
		<ellipse class="st21" cx="201.1" cy="695.9" rx="127" ry="81"/>
		<path class="st5" d="M266.3,687.9c0.2,7.7-5.9,14-13.6,14.2c-7.7,0.2-14-5.9-14.2-13.6c-0.2-7.7,5.9-14,13.6-14.2
			c0.1,0,0.2,0,0.3,0C260,674.2,266.2,680.3,266.3,687.9C266.3,687.9,266.3,687.9,266.3,687.9z"/>
		<ellipse class="st7" cx="247.2" cy="687.9" rx="5.2" ry="5.1"/>
		<path class="st7" d="M258.1,696c0.1,1.2-0.9,2.2-2.1,2.3c-1.2,0.1-2.2-0.9-2.3-2.1c-0.1-1.2,0.9-2.2,2.1-2.3c0,0,0.1,0,0.1,0
			c1.1-0.1,2.1,0.8,2.2,1.9C258.1,695.9,258.1,695.9,258.1,696z"/>
		<path class="st6" d="M188.7,704c0,0,15.3,14.5,33.5,2.3"/>
		<path class="st6" d="M172.4,667c0,0,17.6-7.8,27.7,8.7"/>
		<path class="st18" d="M210.8,709.9c0,0-2.3-14.4,2.6-15.8c4.9-1.4,8.1,2.9,7.4,12.1C220.8,706.2,214.4,711.6,210.8,709.9z"/>
		<path class="st22" d="M119.5,627.1c-4.5,2-8.8,4.3-12.9,7c-4.7,3-9.4,6.7-11.1,12c-1.6,4.9-0.2,10.8-3.3,15
			c-1.5,2.1-4,3.5-5.7,5.4c-1.7,1.9-2.7,5.2-0.9,7.1c1.8,1.9,5.1,1.3,7.2-0.2s3.8-3.6,6.2-4.8c0.8-0.5,1.8-0.6,2.7-0.3
			c2,0.8,1.6,3.8,2.7,5.7c1.7,2.8,5.5,2.3,8.3,2.1c1.7-0.1,3.7,0.2,4.7,1.5c1.5,2,0.2,5.2,1.7,7.2c6,8.1,11.3-12.7,12.7-14.6
			c4.6-6.3,11.7-9.9,18.5-13.4c2.9-1.5,18.9-7.9,15.6-12.5c-1.1-1.5-3.6-1.2-5.3-2.1c-3.8-1.8-2.5-7.2-3.1-11.3
			c-0.8-5.1-5.8-8.9-11-10c-5.2-1.1-10.7,0.2-15.7,1.8C127,623.9,123.2,625.4,119.5,627.1z"/>
		<path class="st15" d="M117,650.7c-7-0.8-15.5-4.1-20.7-6.5c-0.3,0.6-0.5,1.2-0.7,1.9c-1.6,4.9-0.2,10.8-3.3,15
			c-1.5,2.1-4,3.5-5.7,5.4c-1.7,1.9-2.7,5.2-0.9,7.1c1.8,1.9,5.1,1.3,7.2-0.2s3.8-3.6,6.2-4.8c0.8-0.5,1.8-0.6,2.7-0.3
			c2,0.8,1.6,3.8,2.7,5.7c1.7,2.8,5.5,2.3,8.3,2.1c1.7-0.1,3.7,0.2,4.7,1.5c1.5,2,0.2,5.2,1.7,7.2c0.6,0.9,1.4,1.5,2.4,1.8
			c0.6-1.6,1.3-3.7,2.2-6.5C126.3,672.9,128.1,651.9,117,650.7z"/>
		<path class="st22" d="M102.9,647.1c0,0,8.6,4.8,16.6,4.8s32-15.6,32-15.6"/>
	</g>
</g>
<g id="bread">
	<g id="Слой_1-2_4_">
		<path class="st21" d="M500,480.6c0,0-93.6,10.7-107.6,57.8s23.4,67,25,80.7s-10.9,82.2-10.9,100.4s90.5-7.6,110.8-6.1
			c20.3,1.5,60.8,27.4,90.5,25.9c29.7-1.5-3.1-94.4-3.1-114.1s29.6-27.4,31.2-67C637.3,518.6,579.5,476,500,480.6z"/>
		<path class="st20" d="M500,465.7c0,0-93.6,10.7-107.6,57.8s23.4,67,25,80.7s-10.9,82.2-10.9,100.4s90.5-7.6,110.8-6.1
			c20.3,1.5,60.8,27.4,90.5,25.9c29.7-1.5-3.1-94.4-3.1-114.1s29.6-27.4,31.2-67S579.5,461.2,500,465.7z"/>
		<path class="st23" d="M468.3,525.7c0,0,14-9.8,25.9,2.8c0,0,1.8-13.9-11.1-17.2"/>
		<path class="st5" d="M497.4,549.2c-0.1,0.7-0.1,1.3,0,2c0.5,7.6,7.9,14.2,16.5,14.7c8.6,0.5,15.2-5.3,14.7-12.9
			c-0.1-1.1-0.3-2.2-0.7-3.3L497.4,549.2z"/>
		<path class="st17" d="M512.6,556.3c-3.9,0.2-7.5,2-10,4.9c3.1,2.8,7.1,4.5,11.3,4.7c4.1,0.4,8.2-1,11.2-3.8
			C522.2,558.2,517.5,556,512.6,556.3z"/>
		<path class="st5" d="M555.6,529.4c0.2,5.4-4.1,9.9-9.5,10.1c-5.4,0.2-9.9-4.1-10.1-9.5s4.1-9.9,9.5-10.1c0.1,0,0.2,0,0.3,0
			C551.1,519.8,555.5,524.1,555.6,529.4C555.6,529.4,555.6,529.4,555.6,529.4z"/>
		<path class="st7" d="M545.8,529.4c0,2-1.6,3.6-3.6,3.6c0,0-0.1,0-0.1,0c-2,0-3.7-1.6-3.7-3.6c0-2,1.7-3.7,3.7-3.7
			C544.1,525.7,545.8,527.4,545.8,529.4z"/>
		<circle class="st7" cx="548.3" cy="535" r="1.5"/>
		<path class="st24" d="M559.3,548.5c0,2.9-5.1,5.3-11.5,5.3c-6.4,0-11.5-2.4-11.5-5.3s5.1-5.3,11.5-5.3
			C554.2,543.2,559.3,545.6,559.3,548.5z"/>
		<path class="st24" d="M492.1,543.2c0,2.9-5.1,5.3-11.5,5.3s-11.5-2.4-11.5-5.3c0-2.9,5.1-5.3,11.5-5.3S492.1,540.3,492.1,543.2z"
			/>
		<path class="st25" d="M459.9,623.1c0,2.4-2.7,4.3-6,4.3c-3.3,0-6-1.9-6-4.3c0-2.4,2.7-4.3,6-4.3S459.9,620.8,459.9,623.1z"/>
		<path class="st25" d="M489.9,606.1c0,2.4-2.7,4.3-6,4.3c-3.3,0-6-1.9-6-4.3c0-2.4,2.7-4.3,6-4.3
			C487.2,601.8,489.9,603.7,489.9,606.1z"/>
		<ellipse class="st25" cx="458" cy="600.3" rx="5.2" ry="3.7"/>
		<path class="st25" d="M519.7,639.7c0,2-2.3,3.7-5.2,3.7c-2.9,0-5.2-1.6-5.2-3.7s2.3-3.7,5.2-3.7
			C517.4,636,519.7,637.7,519.7,639.7z"/>
		<ellipse class="st25" cx="607.1" cy="558.1" rx="5.2" ry="3.7"/>
		<path class="st25" d="M449,678.5c0,2-2.3,3.7-5.2,3.7c-2.9,0-5.2-1.6-5.2-3.7s2.3-3.7,5.2-3.7C446.7,674.8,449,676.5,449,678.5z"
			/>
		<path class="st25" d="M417,531c0,2-2.3,3.7-5.2,3.7c-2.9,0-5.2-1.6-5.2-3.7s2.3-3.7,5.2-3.7C414.7,527.3,417,529,417,531z"/>
	</g>
</g>
<g id="cereals">
	<g id="Слой_1-2_5_">
		
			<ellipse transform="matrix(0.1286 -0.9917 0.9917 0.1286 -131.5869 1563.1624)" class="st26" cx="823.7" cy="856.5" rx="47.7" ry="116.3"/>
		
			<ellipse transform="matrix(0.1286 -0.9917 0.9917 0.1286 -131.5869 1563.1624)" class="st27" cx="823.7" cy="856.5" rx="47.7" ry="116.3"/>
		<path class="st26" d="M828.3,730.1l-160.3-35c1.3,0.3,4.9,42.3,5.3,45.2c5.5,33.3,11.7,69.7,32.3,98.1
			c20.4,28.2,57.3,41.3,90.8,47.3c38.8,7,81.3,8.6,119.6-1.5c21.5-5.7,38.6-22.8,50.5-40.4c14-20.7,22.4-44.1,32.5-66.7
			c1.5-3.3,12.6-36.8,15.6-36.6L828.3,730.1z"/>
		<path class="st27" d="M977,738.5c-4.2,10.1-9.2,24.7-10.1,26.8c-10.1,22.6-18.5,46-32.5,66.7c-11.9,17.6-29,34.7-50.5,40.4
			c-38.3,10.1-80.8,8.5-119.6,1.5c-6.8-1.2-13.7-2.7-20.6-4.6c16.6,8.2,35,13.3,52.6,16.4c38.8,7,81.3,8.6,119.6-1.5
			c21.5-5.7,38.6-22.8,50.5-40.4c14-20.7,22.4-44.1,32.5-66.7c1.5-3.3,12.6-36.8,15.6-36.6C1014.5,740.5,999.1,739.6,977,738.5z"/>
		
			<ellipse transform="matrix(0.1288 -0.9917 0.9917 0.1288 21.0257 1459.6385)" class="st26" cx="841.2" cy="717.9" rx="66.5" ry="174.8"/>
		
			<ellipse transform="matrix(0.129 -0.9916 0.9916 0.129 25.7212 1456.355)" class="st28" cx="841.9" cy="713.5" rx="57.8" ry="163.4"/>
		<path class="st29" d="M833.9,770.8c58.2,7.6,110.7,3.4,141.5-9.1c1.3-27.2-56.5-56.7-131.1-66.5s-138.4,3.8-144.5,30.4
			C726.2,745.6,775.7,763.2,833.9,770.8z"/>
		<path class="st29" d="M912.8,719.3c9.9,1.3,17.3,6.8,16.6,12.2c-0.5,3.7-4.6,6.4-10.3,7.4"/>
		<path class="st29" d="M901.4,736.6c-5.2-2.4-8.4-6.1-7.9-9.8c0.5-3.4,4-6,9.1-7.1"/>
		<path class="st6" d="M757.3,799.8c0,0,16.3-7.2,25.8,8.1"/>
		<path class="st6" d="M838.1,819.8c0,0,13.1-11.4,30.8-0.6"/>
		<path class="st5" d="M782.2,823.2c-0.3,0.9-0.5,1.9-0.7,2.8c-1.5,10.9,7,22.3,19.1,25.4c12.1,3.1,23-3.2,24.5-14.1
			c0.2-1.6,0.2-3.2,0-4.8L782.2,823.2z"/>
		<path class="st17" d="M801.6,837.5c-5.5-0.8-11.2,0.7-15.6,4.1c3.6,4.8,8.8,8.3,14.6,9.8c6.4,1.6,12.4,0.6,16.9-2.3
			C815.1,843.1,809.1,838.5,801.6,837.5z"/>
		
			<ellipse transform="matrix(0.1274 -0.9919 0.9919 0.1274 -24.3607 1401.7021)" class="st11" cx="784.5" cy="714.7" rx="8.6" ry="16.3"/>
		<path class="st11" d="M937.8,757.3c-0.6,4.7-8.4,7.6-17.3,6.4s-15.6-5.9-15-10.6c0.6-4.7,8.4-7.6,17.3-6.4
			C931.7,747.9,938.5,752.6,937.8,757.3z"/>
		<path class="st11" d="M820.2,751.5c-0.6,4.7-8.4,7.6-17.3,6.4s-15.6-5.9-15-10.6s8.4-7.6,17.3-6.4S820.8,746.7,820.2,751.5z"/>
		<path class="st11" d="M831.9,739.9c-0.3,2.3-4.2,3.8-8.6,3.2c-4.4-0.6-7.8-3-7.5-5.3c0.3-2.3,4.2-3.8,8.6-3.2
			C828.8,735.2,832.3,737.6,831.9,739.9z"/>
		<path class="st11" d="M773.5,740.9c-0.3,2.3-4.2,3.8-8.6,3.2c-4.4-0.6-7.8-3-7.5-5.3c0.3-2.3,4.2-3.8,8.6-3.2
			C770.4,736.2,773.8,738.6,773.5,740.9z"/>
		<path class="st11" d="M858.7,714.9c-0.3,2.3-4.2,3.8-8.6,3.2c-4.4-0.6-7.8-3-7.5-5.3c0.3-2.3,4.2-3.8,8.6-3.2
			C855.6,710.2,859,712.5,858.7,714.9z"/>
		<path class="st11" d="M871.5,757.2c-0.3,2.3-4.2,3.8-8.6,3.2c-4.4-0.6-7.8-3-7.5-5.3c0.3-2.3,4.2-3.8,8.6-3.2
			C868.4,752.5,871.8,754.9,871.5,757.2z"/>
		<path class="st11" d="M748.2,718.6c-0.3,2.3-4.2,3.8-8.6,3.2c-4.4-0.6-7.8-3-7.5-5.3c0.3-2.3,4.2-3.8,8.6-3.2
			C745.1,713.9,748.5,716.2,748.2,718.6z"/>
		<path class="st19" d="M903.1,730.5c-1.9-1-2.7-3.3-1.7-5.3c0.2-0.4,0.4-0.7,0.7-1c10.1-9.9,36.9-39.2,51-82.3
			c17.7-53.8,61.8-98.2,80-95.8c18.2,2.4,23.5,18.6,8.6,27.2c-20.3,11.6-57.5,44.3-72.8,80.4c-14,33.1-32.2,63.4-52.1,77.8
			c-3.1,2.2-7.1,2.4-10.4,0.7L903.1,730.5z"/>
		<path class="st30" d="M1045.7,551.2c0.8,5.2-1.9,10.9-8.8,14.9c-20.9,12.2-59.5,46.5-75.3,84.3c-14.5,34.7-33.4,66.5-53.9,81.6
			c-0.2,0.1-0.3,0.2-0.5,0.3c3.2,1.3,6.8,1,9.7-1c19.8-14.4,38.1-44.7,52.1-77.8c15.3-36.1,52.5-68.7,72.8-80.4
			C1052.3,567.1,1052.7,557.3,1045.7,551.2z"/>
	</g>
</g>
</svg>
