<?xml version="1.0" encoding="utf-8"?>
<!-- Generator: Adobe Illustrator 24.1.0, SVG Export Plug-In . SVG Version: 6.00 Build 0)  -->
<svg version="1.1" id="Capa_1" xmlns="http://www.w3.org/2000/svg" xmlns:xlink="http://www.w3.org/1999/xlink" x="0px" y="0px"
	 viewBox="0 0 425.2 425.2" style="enable-background:new 0 0 425.2 425.2;" xml:space="preserve">
<style type="text/css">
	.rt0{fill:#DEEFFC;}
	.rt1{fill:#E74242;}
	.rt2{fill:#422918;}
	.rt3{fill:#E0903E;}
	.rt4{fill:#FFD651;}
	.rt5{fill:#F8AD47;}
	.rt6{opacity:0.6;}
	.rt7{fill:#FFFFFF;}
	.rt8{fill:#DA5D81;}
	.rt9{fill:none;stroke:#000000;stroke-width:2.1965;stroke-linecap:round;stroke-linejoin:round;stroke-miterlimit:10;}
	.rt10{fill:none;stroke:#000000;stroke-width:1.5348;stroke-linecap:round;stroke-linejoin:round;stroke-miterlimit:10;}
	.rt11{fill:#36A9E1;}
	.rt12{fill:none;stroke:#000000;stroke-width:2.4842;stroke-linecap:round;stroke-linejoin:round;stroke-miterlimit:10;}
</style>
<path class="rt0" d="M401.1,301.9c18.4-32.6,25.6-74.5,4.3-107.5c-18.8-29-49.3-45.5-61.1-79.5c-10.7-30.6-12.1-66.2-39.2-88.1
	c-16.2-13.1-38.3-18-58.8-14.3c-39.3,7-62.8,59-104.1,54.7c-13.3-1.4-25.2-8.3-37.2-14.1c-31-14.8-61.6-6-68.5,30.6
	c-4.7,24.6,3.1,50,7,74.2c2.3,14.3,7.5,28.7,7.1,43.3C49.7,231.4,33,258,33.4,289.3c0.5,46.1,24.1,115.7,79.5,118.3
	c36.4,1.7,60.5-33,84.4-54.7c36.2-32.9,80.3,6.7,120.4,5.6C353.4,357.4,383.3,333.5,401.1,301.9z"/>
<g>
	<g>
		<g id="SausageLeft1">
			<path class="rt1" d="M29.9,177.1c-2.6,0-4.9-0.8-6.5-2.3c-2.4-2.2-3.1-5-2.2-7.9c0.5-1.6,1.6-3,2.8-4.2c-2.3-0.5-4.3-1.4-5.5-3.2
				c-1.2-1.7-1.3-3.8-0.6-6.4c0.7-2.4,2.7-5.3,7.7-5.3c0.6,0,1.2,0,1.9,0.1c-0.7-1.1-1.2-2.5-1.2-4.1c0-5,3.7-8,9.6-8
				c0.4,0,0.7,0,1.1,0c6,0.4,8.4,3.2,11.3,7.3c0.3,0.5,0.7,1,1.1,1.5c3.2,4.4,7.6,10.3,4.6,16.6c-2,4.3-6,6.9-9.6,9.3
				c-1.6,1-3.1,2-4.3,3C37.9,175.2,33.9,177.1,29.9,177.1L29.9,177.1z"/>
			<path class="rt2" d="M35.8,137.6c0.3,0,0.7,0,1,0c5.1,0.3,7,2.4,10,6.6c3.2,4.6,8.2,10.2,5.5,16c-2.6,5.5-9.1,8.1-13.4,11.6
				c-2,1.7-5.7,3.2-9.1,3.2c-2,0-3.9-0.5-5.3-1.9c-5.5-5.2,1.8-11.9,6.9-12.1c-4.7,0-14.1,0.2-11.8-7.5c0.9-3,3.3-4,6-4
				c3.3,0,7.2,1.4,9.8,2.1c-3-2-7.4-3.9-7.3-8C28.1,139.1,32.2,137.6,35.8,137.6 M35.8,133.8c-6.9,0-11.3,3.9-11.4,10
				c0,0.7,0.1,1.4,0.2,2.1c-5.7,0.4-7.7,4.3-8.5,6.6c-1.2,3.9-0.2,6.6,0.8,8.1c1,1.4,2.3,2.4,3.7,3c-0.5,0.8-1,1.7-1.3,2.6
				c-1.2,3.6-0.2,7.3,2.7,10c2,1.9,4.6,2.8,7.7,2.8c3.9,0,8.4-1.6,11.3-4c1.2-1,2.6-1.9,4.1-2.9c3.8-2.5,8.1-5.3,10.3-10.1
				c3.4-7.3-1.6-14.1-4.8-18.6c-0.4-0.5-0.7-1-1.1-1.5c-3.2-4.4-5.9-7.6-12.6-8.1C36.7,133.8,36.3,133.8,35.8,133.8L35.8,133.8z"/>
		</g>
		<g id="SausageLeft2">
			<g>
				<path class="rt1" d="M46.8,144.2c-3-4.2-4.9-6.2-10-6.6c-0.4,0-0.9,0-1.3,0c0.8,0.9,1.6,1.9,2.5,3.2c3.2,4.6,2.8,9.7,0.1,15.5
					c-2.6,5.5-3.7,8.6-8,12.2c-1.6,1.3-4.2,2.6-6.9,3c0.3,0.6,0.7,1.2,1.3,1.7c3.8,3.6,11.1,1.4,14.4-1.3
					c4.3-3.6,10.9-6.1,13.4-11.6C55.1,154.5,50.1,148.8,46.8,144.2z"/>
			</g>
		</g>
		<g id="SausageRight1">
			<path class="rt1" d="M393.8,195.8c-4,0-8-1.8-10.2-3.6c-1.3-1-2.7-2-4.3-3c-3.6-2.3-7.6-5-9.6-9.3c-2.9-6.3,1.5-12.2,4.6-16.6
				c0.4-0.5,0.7-1,1.1-1.5c3-4.2,5.3-6.9,11.3-7.3c0.4,0,0.7,0,1.1,0c5.9,0,9.5,3.1,9.6,8.1c0,1.6-0.5,2.9-1.2,4.1
				c0.6-0.1,1.2-0.1,1.9-0.1c5,0,7,2.9,7.7,5.3c0.8,2.5,0.6,4.7-0.6,6.4c-1.2,1.8-3.3,2.7-5.5,3.2c1.3,1.2,2.3,2.6,2.8,4.2
				c1,2.9,0.2,5.7-2.2,7.9C398.6,195,396.4,195.8,393.8,195.8z"/>
			<path class="rt2" d="M387.8,156.4c3.7,0,7.7,1.4,7.8,6.1c0,4.1-4.3,6-7.3,8c2.6-0.7,6.5-2.1,9.8-2.1c2.7,0,5.1,0.9,6,4
				c2.3,7.7-7.1,7.5-11.8,7.5c5.1,0.2,12.4,6.9,6.9,12.1c-1.4,1.3-3.3,1.9-5.3,1.9c-3.4,0-7-1.5-9.1-3.2
				c-4.3-3.6-10.9-6.1-13.4-11.6c-2.7-5.8,2.3-11.5,5.5-16c3-4.2,4.9-6.2,10-6.6C387.1,156.4,387.5,156.4,387.8,156.4 M387.8,152.5
				L387.8,152.5c-0.4,0-0.8,0-1.2,0c-6.7,0.5-9.5,3.6-12.6,8.1c-0.3,0.5-0.7,1-1.1,1.4c-3.3,4.5-8.3,11.3-4.8,18.6
				c2.2,4.8,6.5,7.6,10.3,10.1c1.5,1,3,1.9,4.1,2.9c2.9,2.4,7.4,4,11.3,4c3.1,0,5.8-1,7.7-2.8c2.9-2.7,3.9-6.4,2.7-10
				c-0.3-0.9-0.7-1.8-1.3-2.6c1.5-0.7,2.8-1.6,3.7-3c1-1.5,2-4.2,0.8-8.1c-0.7-2.4-2.8-6.2-8.5-6.6c0.1-0.6,0.2-1.3,0.2-2.1
				C399.1,156.4,394.7,152.5,387.8,152.5L387.8,152.5z"/>
		</g>
		<g id="SausageRight2">
			<path class="rt1" d="M404,172.4c-2.1-6.8-11.1-3.2-15.8-1.8c3-2,7.4-3.9,7.3-8c0-3.9-2.8-5.5-5.8-6c1.1,0.6,1.9,1.6,2.4,3.2
				c2.3,7.7-7.1,7.5-11.8,7.5c5.1,0.2,12.4,6.9,6.9,12.1c-3.8,3.6-11.1,1.4-14.4-1.3c-0.7-0.6-1.5-1.2-2.3-1.7
				c0.1,0.9,0.3,1.8,0.7,2.8c2.6,5.5,9.1,8.1,13.4,11.6c3.3,2.7,10.6,4.9,14.4,1.3c5.5-5.2-1.8-11.9-6.9-12.1
				C396.9,179.9,406.4,180.1,404,172.4z"/>
		</g>
		<g>
			<g>
				<path class="rt3" d="M206.4,255.4c-75.6,0-113.3-29.3-131.5-53.9C64,187,60.3,164,65.8,145.8c4.4-14.6,14.3-24.7,27.9-28.3
					c4.3-1.1,8.9-1.7,13.6-1.7c15.9,0,32.2,6.6,48.1,12.9c16.1,6.5,32.8,13.2,49.2,13.2c1.3,0,2.6,0,3.9-0.1
					c15-1,29.3-6.3,43.2-11.5c15.3-5.7,31.2-11.6,48-11.6c7.5,0,14.7,1.1,21.8,3.5c30.8,10.1,37.1,29.3,36.9,43.6
					c-0.4,30.4-31.1,67-64.4,76.8C265.9,250.9,234.9,255.4,206.4,255.4z"/>
				<path d="M107.2,117.8c31.5,0,64.2,26.1,97.2,26.1c1.3,0,2.6,0,4-0.1c31.9-2.1,59.5-23.1,91.1-23.1c6.9,0,14,1,21.3,3.4
					c71.4,23.5,21.4,102.3-27.5,116.7c-25.6,7.6-56.2,12.7-87,12.7c-50.3,0-100.9-13.8-130.1-53.1c-17.6-23.8-16.3-71.8,17.9-80.9
					C98.5,118.3,102.8,117.8,107.2,117.8 M107.2,113.9c-4.8,0-9.5,0.6-14,1.8C79,119.5,68.7,130,64.1,145.2
					c-5.7,18.8-1.9,42.5,9.3,57.6c33.5,45.1,90.7,54.6,132.9,54.6c28.7,0,59.9-4.6,87.9-12.8c34-10.1,65.4-47.6,65.7-78.7
					c0.4-28.6-23.7-40.8-38.1-45.5c-7.3-2.4-14.6-3.6-22.3-3.6c-17.1,0-33.1,6-48.5,11.7c-13.8,5.1-28,10.4-42.7,11.4
					c-1.2,0.1-2.5,0.1-3.8,0.1c-16.1,0-32.6-6.6-48.6-13S123.4,113.9,107.2,113.9L107.2,113.9z"/>
			</g>
		</g>
		<g>
			<g>
				<path class="rt3" d="M206.4,255.4c-75.6,0-113.3-29.3-131.5-53.9C64,187,60.3,164,65.8,145.8c4.4-14.6,14.3-24.7,27.9-28.3
					c4.3-1.1,8.9-1.7,13.6-1.7c15.9,0,32.2,6.6,48.1,12.9c16.1,6.5,32.8,13.2,49.2,13.2c1.3,0,2.6,0,3.9-0.1
					c15-1,29.3-6.3,43.2-11.5c15.3-5.7,31.2-11.6,48-11.6c7.5,0,14.7,1.1,21.8,3.5c30.8,10.1,37.1,29.3,36.9,43.6
					c-0.4,30.4-31.1,67-64.4,76.8C265.9,250.9,234.9,255.4,206.4,255.4z"/>
				<path d="M107.2,117.8c31.5,0,64.2,26.1,97.2,26.1c1.3,0,2.6,0,4-0.1c31.9-2.1,59.5-23.1,91.1-23.1c6.9,0,14,1,21.3,3.4
					c71.4,23.5,21.4,102.3-27.5,116.7c-25.6,7.6-56.2,12.7-87,12.7c-50.3,0-100.9-13.8-130.1-53.1c-17.6-23.8-16.3-71.8,17.9-80.9
					C98.5,118.3,102.8,117.8,107.2,117.8 M107.2,113.9c-4.8,0-9.5,0.6-14,1.8C79,119.5,68.7,130,64.1,145.2
					c-5.7,18.8-1.9,42.5,9.3,57.6c33.5,45.1,90.7,54.6,132.9,54.6c28.7,0,59.9-4.6,87.9-12.8c34-10.1,65.4-47.6,65.7-78.7
					c0.4-28.6-23.7-40.8-38.1-45.5c-7.3-2.4-14.6-3.6-22.3-3.6c-17.1,0-33.1,6-48.5,11.7c-13.8,5.1-28,10.4-42.7,11.4
					c-1.2,0.1-2.5,0.1-3.8,0.1c-16.1,0-32.6-6.6-48.6-13S123.4,113.9,107.2,113.9L107.2,113.9z"/>
			</g>
		</g>
		<g id="sausageBase">
			<g>
				<path class="rt1" d="M214.9,263.1c-72,0-129.1-18.6-160.8-52.3c-12-12.8-17-32.3-12.5-48.5c4.2-15,15.7-25,32.4-28.2
					c4.3-0.8,8.9-1.3,13.7-1.3c18.7,0,38.2,6.6,57.1,12.9c19.3,6.5,39.3,13.3,58.9,13.3c0.9,0,1.7,0,2.6,0
					c17.3-0.5,33.7-5.1,49.6-9.4c16.8-4.6,34.2-9.4,52.5-9.4c9.4,0,18.3,1.2,27.3,3.7c36.3,10.2,43.5,28.4,43.2,42
					c-0.7,27.4-35.3,59.7-72.6,67.7C277.1,259.8,245.5,263.1,214.9,263.1z"/>
				<path class="rt2" d="M87.7,134.8c37.4,0,76.8,26.2,116.1,26.2c0.9,0,1.8,0,2.7,0c36-1.1,66.7-18.9,102.1-18.9
					c8.6,0,17.5,1.1,26.8,3.7c82.6,23.2,26.7,93.8-29.3,105.8c-26.9,5.8-58.7,9.5-91.1,9.5c-60.7,0-123.4-13.3-159.5-51.7
					c-20.8-22.1-20.3-65.8,19-73.3C78.8,135.2,83.2,134.8,87.7,134.8 M87.7,130.9L87.7,130.9c-4.8,0-9.5,0.4-14,1.3
					c-17.4,3.3-29.5,13.9-33.9,29.6c-4.7,16.9,0.5,37.2,13,50.5c17.4,18.5,41.6,32.3,72.1,41.3c26.3,7.7,56.5,11.6,89.9,11.6
					c30.7,0,62.4-3.3,91.8-9.6c17.6-3.8,35.9-13.3,50.1-26.2c15.1-13.7,23.6-29.1,23.9-43.3c0.4-14.2-7.1-33.4-44.5-44
					c-9.1-2.6-18.2-3.8-27.7-3.8c-18.6,0-36.1,4.8-53,9.5c-15.8,4.4-32.1,8.8-49.2,9.4c-0.9,0-1.7,0-2.6,0
					c-19.3,0-39.2-6.7-58.4-13.2C126.4,137.5,106.7,130.9,87.7,130.9L87.7,130.9z"/>
			</g>
		</g>
		<g id="sausageBase2">
			<path class="rt1" d="M351,151c26.7,29.3-18.1,75.2-62.9,84.5c-66.6,13.8-163.1,15.8-223.9-20.5c58.3,48.4,167.5,47.4,240.6,32.2
				C356.2,236.5,407.5,177.7,351,151z"/>
		</g>
		<g>
			<g>
				<path class="rt4" d="M78.4,131.8c5,2.6,8.5,6.8,11.5,11.5c1.5,2.4,2.8,4.8,4.2,7.2c1.2,2.2,2.7,4.4,3.8,6.6c1.2,2.4,1.9,4.4,3,7
					c0.9,2.2,1.9,4.4,3.4,6.2c0.7,0.9,1.7,1.6,2.5,2.3s1.6,1.5,2.4,2.3c1.7,1.5,3.9,2.1,5.7,0.4c0.3-0.3,0.6-0.7,0.9-1.1
					c0.1-0.1,0.1-0.2,0.2-0.2c0.4-0.5-0.5,0.6,0,0c0.8-0.9,1.5-1.7,2.4-2.5c1.9-1.7,4-3.1,5.8-5c3.6-3.8,6.7-8.3,9.8-12.2
					c1.5-1.9,3.2-3.8,5-5.5c1-0.9,1.5-1.3,2.3-1.9c1-0.7,2.1-1.3,3.2-1.8c-0.6,0.2,0.4-0.1,0.4-0.1c0.2-0.1,0.4-0.1,0.6-0.2
					c0.7-0.2,1.4-0.4,2.1-0.6c0.6-0.2,1.1-0.3,1.7-0.4c0.3-0.1,0.6-0.1,0.9-0.2c-0.6,0.1,0.5,0,0.6,0c0.4,0,0.9,0,1.3,0
					c0.8,0-0.6-0.2,0.2,0c0.1,0,0.3,0.1,0.5,0.1c0.2,0.1,0.4,0.1,0.7,0.2c0.7,0.2-0.5-0.3,0.1,0c0.4,0.2,0.8,0.4,1.1,0.7
					c-0.7-0.4-0.1-0.1,0.1,0.1c0.2,0.2,0.3,0.3,0.5,0.5c0.3,0.3,0.5,0.6,0.8,0.9c-0.5-0.6,0.2,0.4,0.4,0.6c0.3,0.5,0.6,1,0.9,1.6
					c1.1,2,1.9,4,2.8,6c2.1,4.6,4.3,9.2,6.8,13.6c5.2,9,12.6,18.9,23.6,20.2c4.1,0.5,7.8-1.3,9.8-4.9c2-3.5,2.7-7.6,3.8-11.5
					c0.3-1,0.6-2,0.9-2.9c0.5-1.4,0.6-1.7,1.2-2.9c1.1-2.3,2.1-3.7,3.7-5.3c0.3-0.3,0.6-0.6,1-0.9c0.2-0.2,0.4-0.3,0.6-0.5
					c-0.6,0.5,0,0,0.1-0.1c0.7-0.5,1.4-0.8,2.1-1.2c-0.8,0.4,0.3-0.1,0.6-0.2c0.3-0.1,0.6-0.1,0.9-0.2c0.6-0.2-0.7,0-0.1,0
					c0.2,0,0.4,0,0.5,0c0.4,0,0.7,0,1.1,0c0.7,0-0.7-0.2-0.1,0c0.1,0,0.2,0,0.4,0.1c0.4,0.1,0.7,0.2,1.1,0.3
					c0.3,0.1,0.6,0.2,0.9,0.3c-0.9-0.3,0.4,0.2,0.6,0.3c0.6,0.3,1.3,0.7,1.8,1.1c0.2,0.1,1.3,1,0.6,0.4c0.4,0.3,0.7,0.6,1.1,0.9
					c2.9,2.5,5.4,5.4,7.9,8.3c5.3,6.1,10.5,13,17.7,17.1c1.6,0.9,3.4,1.7,5.2,2.2c1.6,0.4,3.4-0.5,3.8-2.2
					c1.3-5.2,2.7-10.4,4.2-15.6c0.9-2.9,1.8-5.8,2.7-8.7c0.5-1.5,1-2.9,1.6-4.4c0.3-0.7,0.5-1.3,0.8-2c0.1-0.3,0.3-0.7,0.4-1
					c0-0.1,0.2-0.5,0,0c0.1-0.2,0.2-0.4,0.3-0.6c1.1-2.5,2.2-4.9,3.6-7.1c0.3-0.5,0.6-1,0.9-1.4c0.2-0.2,0.3-0.4,0.5-0.7
					c0.1-0.1,0.2-0.2,0.2-0.3c0.3-0.5-0.3,0.4-0.1,0.1c0.6-0.8,1.3-1.5,2-2.2c0.2-0.1,0.4-0.3,0.5-0.4c-0.6,0.6-0.2,0.2,0,0
					c0.4-0.2,0.8-0.4,1.2-0.7c0.4-0.2-0.8,0.2-0.1,0c0.2,0,0.4-0.1,0.5-0.2c0.8-0.2-0.1,0.2-0.1,0h0.6c0.2,0,0.4,0.1,0.6,0
					c-0.1,0-0.8-0.2-0.1,0c0.2,0.1,0.4,0.1,0.6,0.2c0.8,0.2-0.3-0.2,0,0c0.4,0.2,0.8,0.4,1.1,0.6c0.3,0.2,0.6,0.5,0.1,0.1
					c0.2,0.2,0.5,0.4,0.7,0.6c0.4,0.4,0.8,0.8,1.2,1.2c0.2,0.2,0.4,0.5,0.6,0.7c-0.4-0.5,0.2,0.3,0.4,0.5c0.9,1.3,1.8,2.7,2.5,4.2
					c1.5,2.9,2.8,5.9,3.9,8.9c2.1,6,4.1,12.2,7.3,17.8c3.1,5.3,7.9,10.1,14.6,8.7c2-0.4,3.4-1.7,4.8-3.1c1.7-1.8,3.2-3.8,4.7-5.8
					c7-9.3,13.4-19.1,19.6-28.9c0.4-0.6,0.8-1.2,1.1-1.8c2.1-3.4-3.3-6.5-5.3-3.1c-5.7,9.4-11.8,18.5-18.2,27.4
					c-0.8,1.2-1.7,2.3-2.6,3.5c-0.1,0.1-0.2,0.3-0.3,0.4c-0.3,0.4,0.3-0.4,0-0.1c-0.2,0.2-0.4,0.5-0.6,0.7c-0.4,0.5-0.8,1-1.2,1.4
					c-0.7,0.8-1.3,1.6-2,2.3c-0.3,0.3-0.5,0.5-0.8,0.8c-0.1,0.1-0.3,0.2-0.4,0.3c-0.3,0.3,0.7-0.5,0.2-0.1c-0.1,0.1-0.3,0.1-0.3,0.2
					c-0.2,0.2-0.2-0.8,0.4-0.2l-0.5,0.1c-0.2,0-1.1,0.1-0.3,0.1c-0.3,0-0.6,0-1,0c-0.1,0-0.3,0-0.4,0c-0.4,0,0.6,0.1,0.2,0
					c-0.3-0.1-0.5-0.1-0.8-0.2c-0.1,0-0.3-0.1-0.4-0.1c-0.4-0.1,0.5,0.3,0.2,0.1c-0.3-0.1-0.6-0.3-0.8-0.4c-0.3-0.1-0.5-0.3-0.7-0.5
					c0.6,0.4-0.1-0.1-0.3-0.2c-0.5-0.5-1-1-1.5-1.5c-0.1-0.1-0.7-0.9-0.3-0.4c-0.2-0.3-0.4-0.6-0.6-0.8c-0.4-0.6-0.8-1.3-1.2-1.9
					c-0.8-1.4-1.5-2.8-2.1-4.2c-0.2-0.4-0.3-0.7-0.5-1.1c-0.2-0.6-0.1-0.2,0-0.1c-0.1-0.2-0.2-0.4-0.2-0.5c-0.3-0.8-0.7-1.6-1-2.5
					c-1.1-2.8-2-5.6-3-8.4c-2.2-6.1-5-13-9.8-17.6c-3.4-3.3-8.1-4.6-12.3-2c-4.1,2.5-6.8,7-8.8,11.2c-5.2,10.6-8.3,22.2-11.2,33.6
					c-0.3,1.1-0.6,2.2-0.9,3.3c1.3-0.7,2.5-1.4,3.8-2.2c-0.4-0.1-0.9-0.2-1.3-0.4c-0.2-0.1-1.3-0.5-0.5-0.2
					c-0.9-0.4-1.7-0.8-2.5-1.3s-1.5-1-2.2-1.5s0.3,0.3-0.1-0.1c-0.2-0.1-0.3-0.3-0.5-0.4c-0.4-0.4-0.9-0.7-1.3-1.1
					c-3.1-2.7-5.8-5.8-8.5-9c-2.6-3.1-5.2-6.2-8-9.1c-2.4-2.5-5.2-5.1-8.3-6.6s-6.6-2.2-10-1c-4.1,1.4-7.5,4.7-9.9,8.3
					c-2.5,3.9-3.8,8.4-5,12.8c-0.5,1.9-1,3.8-1.7,5.7c0,0-0.3,0.7-0.1,0.3c0.2-0.5-0.1,0.2-0.1,0.2c-0.2,0.4-0.4,0.8-0.6,1.1
					c-0.1,0.2-0.8,1-0.2,0.4c-0.3,0.3-0.5,0.5-0.8,0.8c-0.4,0.5,0.6-0.3,0,0c-0.2,0.1-0.3,0.2-0.5,0.3c-0.7,0.4,0.5-0.1-0.3,0.1
					c-0.2,0-0.4,0.1-0.6,0.1c-0.6,0.2,0.7,0,0,0c-0.5,0-1,0-1.5,0c-0.8,0,0.6,0.2-0.3,0c-0.2,0-0.4-0.1-0.6-0.1
					c-0.6-0.1-1.2-0.3-1.8-0.4c-1.3-0.4-1.5-0.5-2.8-1.2c-4.2-2.4-7.7-6.6-10.5-10.7c-2.8-4.1-5-8.5-7.2-12.9
					c-2.2-4.2-3.7-8.8-6.2-12.9c-2.4-3.8-5.8-6.3-10.4-6.3c-2.7,0-5.3,0.7-7.8,1.6c-2.3,0.7-4.4,1.9-6.3,3.4
					c-4.3,3.3-7.5,7.6-10.8,11.8c-2.8,3.7-5.8,7.9-9.7,10.9c0.4-0.3-0.4,0.2-0.4,0.3c-0.5,0.3-0.9,0.7-1.4,1c-0.5,0.4-1,0.8-1.5,1.3
					c-0.8,0.7-1.5,1.5-2.1,2.3c0,0-1.4,1.7-0.5,0.6c-0.1,0.1-0.1,0.2-0.2,0.3c-0.2,0.1,0.9-0.5,1-0.6c0.6-0.2,1.1,0,1.6,0.1
					c0.4,0.1,0.3,0.1,0.1,0c1,0.6-0.1-0.1-0.3-0.4c-0.8-0.8-1.7-1.6-2.5-2.3c-0.5-0.4-1-0.9-1.5-1.3c-0.1-0.1-0.2-0.2-0.3-0.3
					c0.6,0.6-0.1-0.1-0.2-0.3c-1.3-2-2.1-4.2-2.9-6.2c-1-2.3-1.9-4.7-3.1-6.9c-1.3-2.3-2.7-4.7-4.1-7c-2.8-5-5.8-10.1-10-14.2
					c-2.1-2-4.4-3.8-7-5.1c-1.5-0.8-3.3-0.4-4.2,1.1C76.5,129,76.9,131.1,78.4,131.8L78.4,131.8z"/>
			</g>
		</g>
		<g id="breadFront">
			<g>
				<path class="rt5" d="M204.8,307c-75.6,0-113.3-29.3-131.5-53.9c-10.9-14.6-14.6-37.5-9-55.7c4.4-14.6,14.3-24.7,27.9-28.3
					c4.3-1.1,8.9-1.7,13.6-1.7c15.9,0,32.2,6.6,48.1,12.9c16.1,6.5,32.8,13.2,49.2,13.2c1.3,0,2.6,0,3.9-0.1
					c15-1,29.3-6.3,43.2-11.5c15.3-5.7,31.2-11.6,48-11.6c7.5,0,14.7,1.1,21.8,3.5c30.8,10.1,37.1,29.3,36.9,43.6
					c-0.4,30.4-31.1,67-64.4,76.8C264.3,302.5,233.3,307,204.8,307z"/>
				<path d="M105.7,169.4c31.5,0,64.2,26.1,97.2,26.1c1.3,0,2.7,0,4-0.1c31.9-2.1,59.5-23.1,91-23.1c6.9,0,14,1,21.3,3.4
					c71.4,23.5,21.4,102.3-27.5,116.7c-25.6,7.6-56.2,12.7-87,12.7c-50.3,0-100.9-13.8-130.1-53.1c-17.6-23.8-16.3-71.8,17.9-81
					C96.9,169.9,101.2,169.4,105.7,169.4 M105.7,165.5L105.7,165.5c-4.8,0-9.5,0.6-14,1.8c-14.1,3.8-24.5,14.3-29.1,29.5
					c-5.7,18.8-1.9,42.5,9.4,57.6c33.5,45.1,90.7,54.6,132.9,54.6c28.7,0,59.9-4.6,87.9-12.8c34-10.1,65.3-47.6,65.7-78.7
					c0.4-28.6-23.7-40.8-38.1-45.5c-7.3-2.4-14.6-3.6-22.3-3.6c-17.1,0-33.1,6-48.5,11.7c-13.7,5.1-28,10.4-42.7,11.4
					c-1.2,0.1-2.5,0.1-3.8,0.1c-16.1,0-32.6-6.6-48.6-13C138.3,172.1,121.8,165.5,105.7,165.5L105.7,165.5z"/>
			</g>
		</g>
		<g>
			<path class="rt5" d="M333.3,180.9c19.3,32.8-19.7,83.6-58,94.9C217.5,292.9,134.4,297.5,82,259c49.3,56,146.4,52.6,211.3,33.4
				C339.1,278.9,385.7,209.1,333.3,180.9z"/>
		</g>
		<g class="rt6">
			<g>
				<path class="rt7" d="M104.2,176.2c-19.9,0.6-32.1,18.6-33.5,39.4c-0.4,6.3,8.4,6.2,8.8,0c1-15.4,9.8-29.2,24.7-29.7
					C109.9,185.7,109.9,176,104.2,176.2L104.2,176.2z"/>
			</g>
			<g>
				<path class="rt7" d="M73.8,234.6c0,0.2,0,0.3,0,0.5c0,2.7,2,4.9,4.4,4.9s4.4-2.2,4.4-4.9c0-0.2,0-0.3,0-0.5c0-2.7-2-4.9-4.4-4.9
					C75.8,229.7,73.8,232,73.8,234.6L73.8,234.6z"/>
			</g>
		</g>
		<g>
			<g class="rt6">
				<path class="rt7" d="M64.3,143.3C56.4,147,51.6,156,49.9,165c-1.2,6.1,7.3,8.7,8.5,2.6c1.3-6.8,4.3-13,10.3-15.8
					c2.2-1,2.7-4.6,1.6-6.7C69,142.5,66.5,142.2,64.3,143.3L64.3,143.3z"/>
			</g>
			<g class="rt6">
				<path class="rt7" d="M47.5,184.5c0.1,0.1,0.1,0.2,0.2,0.2c1.7,1.9,4.5,1.9,6.2,0s1.7-5,0-6.9c-0.1-0.1-0.1-0.2-0.2-0.2
					c-1.7-1.9-4.5-1.9-6.2,0S45.8,182.6,47.5,184.5L47.5,184.5z"/>
			</g>
		</g>
	</g>
</g>
<g>
	<g>
		<path class="rt8" d="M168.8,256.3c0,2.2-4.8,4-10.8,4s-10.8-1.8-10.8-4c0-2.2,4.8-4,10.8-4C163.9,252.3,168.8,254.1,168.8,256.3z"
			/>
		<path class="rt8" d="M267.1,256.3c0,2.2-4.8,4-10.8,4s-10.8-1.8-10.8-4c0-2.2,4.8-4,10.8-4C262.2,252.3,267.1,254.1,267.1,256.3z"
			/>
	</g>
	<path class="rt9" d="M207.1,237.3"/>
	<g>
		<path class="rt10" d="M162.2,209.6c0,0-10.7-1.8-13.4,7.2"/>
		<path class="rt10" d="M252,209.6c0,0,10.7-1.8,13.4,7.2"/>
	</g>
	<g>
		<g>
			<path class="rt8" d="M207.1,274.6c-6.1,0-10.8-6.1-10.8-13.9s4.7-13.9,10.8-13.9s10.8,6.1,10.8,13.9S213.2,274.6,207.1,274.6z"/>
			<path d="M207.1,248.1c5.2,0,9.4,5.7,9.4,12.6c0,6.9-4.2,12.6-9.4,12.6s-9.4-5.7-9.4-12.6S201.9,248.1,207.1,248.1 M207.1,245.7
				c-6.9,0-12.3,6.6-12.3,15.1c0,8.4,5.4,15.1,12.3,15.1c6.9,0,12.3-6.6,12.3-15.1C219.4,252.3,214,245.7,207.1,245.7L207.1,245.7z"
				/>
		</g>
		<g>
			<g>
				<path class="rt7" d="M214.2,253.7c-0.9,0-1.8-0.1-2.9-0.1c-1.3-0.1-2.7-0.2-4.2-0.2s-2.9,0.1-4.2,0.2c-1,0.1-2,0.1-2.9,0.1l0,0
					c-0.5,0-1-0.2-1.2-0.6c-0.3-0.4-0.3-0.8,0-1.2c2-3.2,5.1-5,8.3-5c3.3,0,6.3,1.8,8.4,5c0.2,0.4,0.2,0.8,0,1.2
					C215.2,253.5,214.7,253.7,214.2,253.7L214.2,253.7z"/>
				<path d="M207.1,248.1c2.8,0,5.4,1.7,7.1,4.4c-1.9,0-4.4-0.3-7.1-0.3c-2.7,0-5.2,0.3-7.1,0.3
					C201.8,249.8,204.3,248.1,207.1,248.1 M207.1,245.7c-3.8,0-7.3,2.1-9.6,5.6c-0.5,0.8-0.5,1.7,0.1,2.4c0.5,0.7,1.5,1.2,2.5,1.2
					l0,0c0.9,0,1.9-0.1,3-0.1c1.3-0.1,2.7-0.2,4.1-0.2c1.4,0,2.8,0.1,4.1,0.2c1,0.1,2,0.1,3,0.1l0,0c1,0,2-0.4,2.5-1.2
					c0.5-0.7,0.6-1.7,0.1-2.4C214.4,247.7,210.9,245.7,207.1,245.7L207.1,245.7z"/>
			</g>
		</g>
	</g>
	<g>
		<rect x="156" y="232.8" class="rt11" width="16" height="38"/>
		<line class="rt12" x1="147.6" y1="232.8" x2="177.6" y2="232.8"/>
		<rect x="242.2" y="232.8" class="rt11" width="16" height="38"/>
		<line class="rt12" x1="266.6" y1="232.8" x2="236.7" y2="232.8"/>
	</g>
</g>
</svg>
