<?xml version="1.0" encoding="utf-8"?>
<!-- Generator: Adobe Illustrator 24.1.0, SVG Export Plug-In . SVG Version: 6.00 Build 0)  -->
<svg version="1.1" id="Capa_1" xmlns="http://www.w3.org/2000/svg" xmlns:xlink="http://www.w3.org/1999/xlink" x="0px" y="0px"
	 viewBox="0 0 425.2 425.2" style="enable-background:new 0 0 425.2 425.2;" xml:space="preserve">
<style type="text/css">
	.st0{opacity:0.5;fill:#BFE4F5;}
	.st1{fill:#936037;}
	.st2{fill:#432918;}
	.st3{fill:#C6C6C6;}
	.st4{fill:#F6F6F6;}
	.st5{fill:#F9D1AD;}
	.st6{opacity:0.6;}
	.st7{fill:#FFFFFF;}
	.st8{fill:#ED6F81;}
	.st9{fill:none;stroke:#432918;stroke-width:3.3653;stroke-linecap:round;stroke-linejoin:round;stroke-miterlimit:10;}
	.st10{fill:#ED6F81;stroke:#432918;stroke-width:1.5335;stroke-linecap:round;stroke-linejoin:round;stroke-miterlimit:10;}
	.st11{fill:#575756;}
	.st12{fill:#DADADA;}
	.st13{fill:#F59C43;}
	.st14{fill:#F08AB7;}
	.st15{fill:#FFD651;}
	.st16{fill:#64B553;}
	.st17{fill:#E84242;}
	.st18{fill:#8AD0E5;}
	.st19{fill:none;stroke:#432918;stroke-width:1.267;stroke-linecap:round;stroke-linejoin:round;stroke-miterlimit:10;}
</style>
<g>
	<path class="st0" d="M361.3,233.4c-1,0-2.1-0.1-3.1-0.2v0.2h-26.4c9.5,1.7,16.7,10,16.7,20c0,7-3.6,13.2-9,16.9h20.2v0.1
		c0.9-0.1,1.8-0.1,2.7-0.1c13.8,0,25,11.2,25,25c0,9.9-5.7,18.4-14,22.5c12.1,3.2,21.1,14.2,21.1,27.4c0,15.6-12.7,28.3-28.3,28.3
		c-1,0-2.1-0.1-3.1-0.2v0.2H63.9c-15.6,0-28.3-12.7-28.3-28.3c0-15.6,12.7-28.3,28.3-28.3h18.7c-7.3-4.4-12.3-12.4-12.3-21.5
		c0-9.2,5-17.2,12.4-21.6H56.4c-11.2,0-20.3-9.1-20.3-20.3c0-10.8,8.4-19.5,19-20.2c-13.8-1.9-24.4-13.7-24.4-28.1
		c0-15.6,12.7-28.3,28.3-28.3h24.4c-11.3-2.4-19.8-12.4-19.8-24.5c0-10.7,6.7-19.8,16.1-23.4H56.4c-11.2,0-20.3-9.1-20.3-20.3
		c0-11.2,9.1-20.3,20.3-20.3h45.2c-4.9-3.7-8.1-9.6-8.1-16.2c0-11.2,9.1-20.3,20.3-20.3h214.4v0.1c0.7-0.1,1.5-0.1,2.2-0.1
		c11.2,0,20.3,9.1,20.3,20.3c0,11.2-9.1,20.3-20.3,20.3c-0.7,0-1.5,0-2.2-0.1v0.1h-43c4.9,3.7,8.1,9.6,8.1,16.2
		c0,8.4-5.1,15.5-12.3,18.6H353v0.2c0.9-0.1,1.8-0.2,2.7-0.2c13.8,0,25,11.2,25,25c0,12-8.5,22.1-19.8,24.5c0.1,0,0.3,0,0.4,0
		c15.6,0,28.3,12.7,28.3,28.3C389.7,220.7,377,233.4,361.3,233.4z"/>
</g>
<g>
	<g>
		<g>
			<g>
				<path class="st1" d="M153.5,322.3c-21.8,0-37.3-4.2-46.4-7.7c-8.3-3.2-16.9-8.1-17.4-11.9L67.5,92.3c-0.5-3.9,0.6-7.9,3.1-10.7
					c2.4-2.7,5.8-4.2,9.5-4.2H227c3.7,0,7.1,1.5,9.5,4.2c2.5,2.8,3.6,6.7,3.1,10.7l-22.2,210.3C216.6,308.6,191,322.3,153.5,322.3z"
					/>
				<path class="st2" d="M227,79.5c6.7,0,11.4,5.7,10.5,12.6l-22.2,210.4c-0.5,3.5-23.7,17.7-61.8,17.7c-39.9,0-61.3-14.3-61.8-17.7
					L69.6,92.1c-0.9-6.9,3.8-12.6,10.5-12.6H227 M227,75.3H80.1c-4.4,0-8.3,1.8-11.1,4.9c-2.9,3.3-4.2,7.8-3.6,12.3l22.2,210.3
					l0,0.1l0,0.1c0.8,6.2,14.6,11.9,18.7,13.5c9.3,3.6,25,7.8,47.2,7.8c21.2,0,37-4.3,46.5-7.8c6.4-2.4,10.7-4.8,13.1-6.3
					c5.3-3.4,6.2-5.6,6.4-7.2l0-0.1l0-0.1l22.2-210.3c0.6-4.6-0.7-9.1-3.6-12.3C235.3,77.1,231.3,75.3,227,75.3L227,75.3z"/>
			</g>
			<g>
				<path class="st1" d="M227,79.5h-4.6l-22,208.5c-0.5,3.5-23.7,17.7-61.8,17.7c-21.1,0-37-4-47.4-8.3l0.5,5
					c0.5,3.5,21.9,17.7,61.8,17.7c38.1,0,61.3-14.3,61.8-17.7l22.2-210.4C238.4,85.2,233.7,79.5,227,79.5z"/>
			</g>
			<g>
				<path class="st3" d="M153.5,119c-38.8,0-96.5-5.3-96.5-19.9V81.2c0-1.2,0.9-2.1,2.1-2.1h188.7c1.2,0,2.1,0.9,2.1,2.1V99
					c0,6.1-9.9,11-29.4,14.7C202.7,117.1,178.9,119,153.5,119z"/>
				<path class="st2" d="M247.9,81.2V99c0,9.8-42.2,17.8-94.3,17.8c-52.1,0-94.3-8-94.3-17.8V81.2H247.9 M247.9,77H59.2
					c-2.3,0-4.2,1.9-4.2,4.2V99c0,7.4,9.9,12.7,31.1,16.7c18.1,3.4,42,5.3,67.5,5.3c25.5,0,49.4-1.9,67.5-5.3
					c21.2-4,31.1-9.3,31.1-16.7V81.2C252.1,78.9,250.2,77,247.9,77L247.9,77z"/>
			</g>
			<g>
				<path class="st4" d="M153.5,101.2c-38.8,0-96.5-5.3-96.5-19.9c0-6.1,9.9-11,29.4-14.7c17.9-3.4,41.8-5.3,67.1-5.3
					c38.8,0,96.5,5.3,96.5,19.9c0,6.1-9.9,11-29.4,14.7C202.7,99.3,178.9,101.2,153.5,101.2z"/>
				<path class="st2" d="M153.5,63.4c52.1,0,94.3,8,94.3,17.8S205.6,99,153.5,99c-52.1,0-94.3-8-94.3-17.8S101.4,63.4,153.5,63.4
					 M153.5,59.2c-25.5,0-49.4,1.9-67.5,5.3C64.8,68.5,55,73.8,55,81.2C55,88.7,64.8,94,86,98c18.1,3.4,42,5.3,67.5,5.3
					c25.5,0,49.4-1.9,67.5-5.3c21.2-4,31.1-9.3,31.1-16.7c0-7.4-9.9-12.7-31.1-16.7C203,61.1,179,59.2,153.5,59.2L153.5,59.2z"/>
			</g>
			<g>
				<path class="st3" d="M153.5,91.8c-18.4,0-35.8-1.4-48.8-3.8c-21.8-4.1-21.8-9.4-21.8-11.2c0-0.3,0.1-0.5,0.2-0.8l9.5-23.4
					c0.3-0.8,1.1-1.3,1.9-1.3h118.1c0.8,0,1.6,0.5,1.9,1.3L224,76c0.1,0.2,0.2,0.5,0.2,0.8c0,1.7,0,7.1-21.8,11.2
					C189.3,90.4,172,91.8,153.5,91.8z"/>
				<path class="st2" d="M212.6,53.4l9.5,23.4c0,7.1-30.7,12.9-68.5,12.9c-37.9,0-68.5-5.8-68.5-12.9l9.5-23.4H212.6 M212.6,49.3
					H94.5c-1.7,0-3.2,1-3.8,2.6l-9.5,23.4c-0.2,0.5-0.3,1-0.3,1.6c0,6.1,7.2,10.1,23.4,13.2c13.2,2.5,30.7,3.9,49.2,3.9
					c18.6,0,36-1.4,49.2-3.9c16.2-3.1,23.4-7.1,23.4-13.2c0-0.5-0.1-1.1-0.3-1.6l-9.5-23.4C215.7,50.3,214.2,49.3,212.6,49.3
					L212.6,49.3z"/>
			</g>
			<g>
				<path class="st4" d="M153.5,65.7c-21,0-60.8-2.6-60.8-12.3c0-9.8,39.7-12.3,60.8-12.3c21,0,60.8,2.6,60.8,12.3
					C214.3,63.1,174.5,65.7,153.5,65.7z"/>
				<path class="st2" d="M153.5,42.8c32.6,0,59,4.7,59,10.6c0,5.9-26.4,10.6-59,10.6c-32.6,0-59-4.7-59-10.6
					C94.5,47.5,120.9,42.8,153.5,42.8 M153.5,39.3c-16,0-31,1.1-42.4,3.2C97.2,45,91,48.3,91,53.4s6.2,8.4,20.1,10.9
					c11.3,2,26.4,3.2,42.4,3.2c16,0,31-1.1,42.3-3.2c13.9-2.5,20.1-5.9,20.1-10.9s-6.2-8.4-20.1-10.9
					C184.5,40.4,169.5,39.3,153.5,39.3L153.5,39.3z"/>
			</g>
			<g>
				<path class="st5" d="M158.7,267.8c-26.1,0-52.4-2.1-78.3-6.3c-1-0.2-1.8-1-1.9-2L67.9,156.8c-0.1-0.7,0.2-1.4,0.7-1.9
					c0.4-0.4,1-0.6,1.6-0.6c0.1,0,0.3,0,0.4,0c31.6,5.2,60.4,7.8,88.1,7.8c24.7,0,50.1-2,77.7-6.1c0.1,0,0.2,0,0.3,0
					c0.6,0,1.2,0.2,1.6,0.6c0.5,0.5,0.8,1.2,0.7,1.9L228.4,261c-0.1,1.1-0.9,1.9-2,2.1C204,266.2,181.2,267.8,158.7,267.8z"/>
				<path class="st2" d="M70.2,156.6c27,4.5,57,7.8,88.5,7.8c27.5,0,53.8-2.5,78.1-6.1l-10.6,102.5c-21.3,3-43.9,4.7-67.5,4.7
					c-27.4,0-53.7-2.4-77.9-6.3L70.2,156.6 M70.2,152c-1.2,0-2.3,0.4-3.2,1.3c-1,1-1.6,2.4-1.4,3.8l10.6,102.5
					c0.2,2.1,1.8,3.8,3.9,4.1c26,4.2,52.4,6.4,78.6,6.4c22.6,0,45.6-1.6,68.1-4.8c2.1-0.3,3.7-2,4-4.1l10.6-102.5
					c0.1-1.4-0.4-2.8-1.4-3.8c-0.9-0.8-2-1.3-3.2-1.3c-0.2,0-0.5,0-0.7,0.1c-27.5,4.1-52.8,6.1-77.4,6.1c-27.5,0-56.2-2.5-87.7-7.7
					C70.7,152,70.4,152,70.2,152L70.2,152z"/>
			</g>
			<g>
				<g>
					<path class="st5" d="M211.7,161.2L202,263.5c6.2-0.7,18.2-1.8,24.2-2.7l10.6-102.5C230.7,159.2,217.9,160.5,211.7,161.2z"/>
				</g>
			</g>
			<g class="st6">
				<g>
					<path class="st7" d="M80.4,138.7c2.7,28.2,5.5,56.5,8.2,84.7c0.7,7,11.9,7,11.2,0c-2.7-28.2-5.5-56.5-8.2-84.7
						C90.9,131.7,79.7,131.6,80.4,138.7L80.4,138.7z"/>
				</g>
				<g>
					<path class="st7" d="M95.6,249.6c7.2,0,7.2-11,0-11S88.4,249.6,95.6,249.6L95.6,249.6z"/>
				</g>
			</g>
		</g>
		<g>
			<g>
				<g>
					<path class="st8" d="M131.5,225.4c0,1.4-4.5,2.5-10,2.5s-10-1.1-10-2.5c0-1.4,4.5-2.5,10-2.5S131.5,224,131.5,225.4z"/>
				</g>
				<g>
					<path class="st8" d="M203.3,225.4c0,1.4-4.5,2.5-10,2.5c-5.5,0-10-1.1-10-2.5c0-1.4,4.5-2.5,10-2.5
						C198.9,222.9,203.3,224,203.3,225.4z"/>
				</g>
			</g>
			<g>
				<path class="st9" d="M184.3,194.5c0,0,9.1-3.4,15.8,4.1"/>
				<path class="st9" d="M130.6,194.5c0,0-9.1-3.4-15.8,4.1"/>
			</g>
			<g>
				<path class="st9" d="M120.3,220c1.2-5.8,4-9.9,7.3-9.9c3.3,0,6.1,4,7.3,9.8"/>
				<path class="st9" d="M180.5,220c1.2-5.8,4-9.9,7.3-9.9c3.3,0,6.1,4,7.3,9.8"/>
			</g>
			<path class="st9" d="M165.4,216.8c0,4.4-3.5,7.9-7.9,7.9c-4.4,0-7.9-3.5-7.9-7.9"/>
			<g>
				<g>
					<g>
						<path class="st8" d="M168,225.1c-0.5,0-0.9-0.1-1.4-0.3c-1.7-0.8-3.3-1.7-3-2.9c0.1-0.6,0.6-1.3,0.9-1.9
							c0.1-0.2,0.2-0.3,0.3-0.5c0.3-0.6,0.8-0.9,1.3-0.9c0.4,0,0.8,0.2,1.1,0.4c0.1,0.1,0.2,0.1,0.4,0.2l0.2,0.1
							c1,0.5,2.4,1.2,2.7,2.4c0.2,0.6,0.1,1.3-0.3,2C169.7,224.6,168.9,225.1,168,225.1L168,225.1z"/>
						<path class="st2" d="M166,219.5c0.3,0,0.7,0.3,1.1,0.5c1.2,0.6,3.4,1.6,2.4,3.4c-0.4,0.7-0.9,1-1.6,1c-0.4,0-0.7-0.1-1.1-0.3
							c-0.5-0.2-2.8-1.2-2.6-2c0.2-0.6,0.8-1.6,1.1-2.2C165.6,219.6,165.8,219.5,166,219.5 M166,217.9c-0.6,0-1.4,0.2-1.9,1.3
							c-0.1,0.1-0.2,0.3-0.3,0.5c-0.4,0.7-0.8,1.4-1,2.1c-0.5,2,2.1,3.2,3.4,3.7c0.6,0.3,1.2,0.4,1.8,0.4c1.2,0,2.3-0.6,2.9-1.7
							c0.6-1.1,0.5-2,0.3-2.6c-0.5-1.6-2.1-2.3-3.1-2.9l-0.2-0.1c-0.1-0.1-0.2-0.1-0.3-0.2C167.1,218.2,166.6,217.9,166,217.9
							L166,217.9z"/>
					</g>
				</g>
				<line class="st10" x1="165.1" y1="220.9" x2="167.2" y2="222.1"/>
			</g>
		</g>
		<g>
			<path class="st11" d="M156.8,68.8c-6.9,0-13.8-0.8-20.2-1.6c-0.9-0.1-1.6-0.8-1.7-1.7c0-0.4-0.1-0.7-0.1-1
				c0-6.6,8.2-11.9,18.7-11.9c10.5,0,18.7,5.2,18.7,11.9c0,0.5-0.1,1-0.2,1.6c-0.2,0.8-0.8,1.4-1.6,1.5
				C166.2,68.4,161.7,68.8,156.8,68.8z"/>
			<path class="st2" d="M153.5,54.6c9.3,0,16.8,4.4,16.8,9.9c0,0.4-0.1,0.8-0.1,1.2c-4.5,0.9-8.9,1.2-13.4,1.2
				c-6.6,0-13.2-0.8-20-1.6c0-0.2-0.1-0.5-0.1-0.7C136.8,59,144.3,54.6,153.5,54.6 M153.5,50.6c-11.6,0-20.7,6.1-20.7,13.8
				c0,0.5,0.1,0.9,0.1,1.2c0.2,1.8,1.6,3.2,3.4,3.5c6.5,0.8,13.5,1.7,20.5,1.7c5,0,9.6-0.4,14.1-1.3c1.6-0.3,2.8-1.5,3.1-3.1
				c0.1-0.7,0.2-1.3,0.2-1.9C174.2,56.7,165.1,50.6,153.5,50.6L153.5,50.6z"/>
		</g>
		<g>
			<path class="st12" d="M153.5,76.3c-9.9,0-17.9-4.7-18.7-10.9c-0.1-0.6,0.1-1.2,0.6-1.6c0.4-0.4,0.9-0.6,1.4-0.6
				c0.1,0,0.2,0,0.3,0c6.3,0.8,13.1,1.6,19.7,1.6c4.7,0,8.9-0.4,13-1.2c0.1,0,0.2,0,0.4,0c0.5,0,1,0.2,1.4,0.6
				c0.5,0.5,0.7,1.1,0.5,1.8C170.9,72,163.1,76.3,153.5,76.3z"/>
			<path class="st2" d="M136.8,65.2c6.8,0.9,13.4,1.6,20,1.6c4.4,0,8.9-0.3,13.4-1.2c-1,4.9-8.1,8.7-16.6,8.7
				C144.7,74.3,137.5,70.3,136.8,65.2 M170.2,65.6L170.2,65.6 M136.8,61.3c-1,0-2,0.4-2.8,1.1c-0.9,0.9-1.3,2.1-1.1,3.3
				c0.9,7.3,9.6,12.6,20.6,12.6c10.4,0,19-4.9,20.5-11.7c0.1-0.3,0.1-0.6,0.1-1c0-2.2-1.7-3.9-3.9-3.9c0,0,0,0,0,0c0,0-0.1,0-0.1,0
				c-0.2,0-0.5,0-0.7,0.1c-3.9,0.8-8,1.1-12.5,1.1c-6.5,0-13.2-0.8-19.5-1.6C137.1,61.3,137,61.3,136.8,61.3L136.8,61.3z"/>
		</g>
	</g>
	<g>
		<g>
			<g>
				<g>
					<path class="st13" d="M275,384.2c-17.1,0-34-4.7-48.6-13.7c-15.1-9.2-27.1-22.5-34.9-38.4c-22.5-46-3.3-101.8,42.7-124.2
						c12.8-6.3,26.5-9.4,40.7-9.4c17.1,0,34,4.7,48.6,13.7c15.1,9.2,27.1,22.5,34.9,38.4c10.9,22.3,12.4,47.5,4.4,71
						c-8.1,23.5-24.8,42.4-47.1,53.3C302.8,381.1,289.2,384.2,275,384.2C275,384.2,275,384.2,275,384.2z M274.9,266.4
						c-3.8,0-7.5,0.9-10.9,2.5c-6,2.9-10.5,8-12.6,14.3c-2.2,6.3-1.8,13.1,1.2,19.1c4.2,8.6,12.8,14,22.4,14c3.8,0,7.5-0.9,10.9-2.5
						c6-2.9,10.5-8,12.6-14.3c2.2-6.3,1.8-13.1-1.2-19.1C293.1,271.7,284.5,266.4,274.9,266.4z"/>
					<path class="st2" d="M274.9,200.2c33.7,0,66.1,18.8,81.9,51.1c22.1,45.2,3.3,99.7-41.9,121.8c-12.9,6.3-26.5,9.3-39.9,9.3
						c-33.7,0-66.1-18.8-81.9-51.1c-22.1-45.2-3.3-99.7,41.9-121.8C247.8,203.2,261.4,200.2,274.9,200.2 M274.9,318.1
						c3.9,0,7.9-0.9,11.7-2.7c13.3-6.5,18.8-22.5,12.3-35.8c-4.6-9.5-14.2-15-24.1-15c-3.9,0-7.9,0.9-11.7,2.7
						c-13.3,6.5-18.8,22.5-12.3,35.8C255.5,312.6,265,318.1,274.9,318.1 M274.9,196.6c-14.4,0-28.4,3.2-41.5,9.6
						c-46.9,22.9-66.5,79.7-43.5,126.6c7.9,16.2,20.2,29.8,35.6,39.2c14.9,9.1,32.1,14,49.6,14c14.4,0,28.4-3.2,41.5-9.6
						c22.7-11.1,39.8-30.4,48-54.3c8.2-23.9,6.6-49.6-4.5-72.3c-7.9-16.2-20.2-29.8-35.6-39.2C309.5,201.4,292.3,196.6,274.9,196.6
						L274.9,196.6z M274.9,314.5c-8.9,0-16.9-5-20.8-13c-2.7-5.6-3.1-11.8-1.1-17.7c2-5.8,6.2-10.6,11.7-13.3
						c3.2-1.6,6.6-2.4,10.1-2.4c8.9,0,16.9,5,20.8,13c2.7,5.6,3.1,11.8,1.1,17.7c-2,5.8-6.2,10.6-11.7,13.3
						C281.9,313.7,278.5,314.5,274.9,314.5L274.9,314.5z"/>
				</g>
			</g>
			<g>
				<g>
					<g>
						<path class="st14" d="M283.9,380.2c-5.8,0-11.7-1.3-17.8-2.8c-5.9-1.4-12-2.8-18.1-2.9c-2,0.5-3.9,0.9-5.7,1
							c-0.6,0-1.2,0.1-1.7,0.1c0,0,0,0,0,0c-17.7,0-27-19.1-34.4-37.1c-1-1.5-2-3-2.9-4.5c-26.7-12-22.8-29.4-15.4-49.1l0.7-1.8
							c0.4-1.1,0.8-2.2,1.2-3.3c-4.5-20.9,5.2-38.9,24.6-45.9c1.3-1.4,2.7-2.7,4-3.9c3.9-3.2,6.7-7.1,9.4-10.9
							c3.1-4.4,6-8.5,10.3-11.5l0.1-0.1l0.1,0c2-1.1,4-1.7,6.2-2l0.3,0l0.3,0.1c1.1,0.2,2.3,0.6,3.2,0.8c5-0.9,10-2.7,14.8-4.5
							c6.8-2.5,13.1-4.8,19.5-4.8c8.5,0,15.2,4.2,21,13.3c1.4,1.2,2.8,2.4,4,3.6c0.8-0.2,1.8-0.4,2.7-0.6c3.5-0.8,6.8-1.2,9.8-1.2
							c19.7,0,24.2,16.6,29.4,35.9c1,3.8,2.1,7.7,3.3,11.7c2.1,1.3,4,2.7,5.6,4.1c13.9,12.1,8.2,26.4,2.7,40.2
							c-0.4,0.9-0.7,1.8-1.1,2.8c-0.7,1.8-1.3,3.3-1.8,4.6c3.3,29.3-6.6,45.2-30.1,48.7c-1.6,0.6-3.2,1.3-5.3,2.1
							c-1.6,0.6-3.1,1.2-4.7,1.8c-2.1,0.8-4.3,1.6-6.4,2.4c-0.7,0.3-1.4,0.7-2.1,1c-0.8,0.4-1.7,0.8-2.5,1.2
							C300.7,376.6,293.3,380.2,283.9,380.2z M241.9,287.7c0.1,1.1,0.3,2.2,0.6,3.4c1.2,5.2,3.9,10.1,6.3,14.2c0.3,0.5,0.6,1,1,1.5
							c0.8,1.1,1.5,2.2,2,3.5c3.6,10.1,7.7,12.1,13.2,12.1c2.7,0,5.9-0.5,9.3-1.1c1.5-0.2,3.3-0.5,5.1-0.8c1.5-0.5,2.9-0.7,4.5-0.7
							c0.9,0,1.9,0.1,2.8,0.1c1.1,0.1,2.2,0.2,3.5,0.2c0,0,0,0,0,0c0.4,0,0.8,0,1.2,0c0.4,0,0.7,0,1,0c0.6,0,1.3,0,1.8-0.3
							c6.5-3.6,9.7-13.3,12.3-21c0.5-1.6,1-3.3,1.4-4.9c1.4-6.6,0.6-11.5-2.6-14.9c-7.6-4-12.8-9.5-17.2-18.3
							c-0.5-0.4-0.9-0.7-1.4-1.1c-1-0.8-2-1.7-3.1-2.4c-1.2,0.2-4.7,1.2-7,2c-4.2,1.3-6.1,1.9-7.1,1.9c-0.1,0-0.1,0-0.2,0
							C248.9,263.4,245,273.6,241.9,287.7z"/>
						<path class="st2" d="M282.5,199c7,0,13.6,3.1,19.6,12.7c1.6,1.3,3.2,2.8,4.8,4.4c1.3-0.3,2.5-0.6,3.6-0.9
							c3.5-0.8,6.6-1.1,9.4-1.1c22.2,0,23.7,23.1,31.2,47c2.3,1.4,4.3,2.8,5.9,4.3c13.8,12,7,25.8,1.1,40.9
							c-0.7,1.7-1.3,3.4-1.9,5.1c2.8,24.2-2.4,43.4-28.7,47.2c-1.8,0.7-3.6,1.4-5.4,2.1c-3.7,1.4-7.5,2.8-11.2,4.2
							c-1.7,0.8-3.3,1.6-5,2.4c-6.9,8.6-14.3,11.2-22,11.2c-11.3,0-23.5-5.4-36.2-5.7c-2,0.6-3.8,0.9-5.6,1c-0.5,0-1.1,0.1-1.6,0.1
							c-16.8,0-25.7-18.7-32.8-36.1c-1.1-1.6-2.2-3.3-3.2-5.1c-25.5-11.2-22.5-26.9-15-47c0.7-1.8,1.4-3.7,2.1-5.6
							c-4.3-19,3.4-37.3,23.8-44.5c1.4-1.4,2.8-2.8,4.2-4.2c8.3-6.8,11.7-16.8,19.5-22.2c1.8-1,3.7-1.5,5.5-1.8
							c1.1,0.2,2.3,0.6,3.5,0.9C260.2,206.2,271.8,199,282.5,199 M269.5,259.3c-0.1,0-0.1,0-0.2,0c-21.4,2.3-25.9,12.9-29.3,28.3
							c0.1,1.3,0.3,2.6,0.6,3.9c1.2,5.1,3.7,9.9,6.5,14.7c0.9,1.6,2.3,3,2.9,4.8c3.8,10.6,8.4,13.3,14.9,13.3c2.8,0,6-0.5,9.6-1.1
							c1.7-0.3,3.5-0.6,5.2-0.8c1.5-0.5,2.8-0.6,4.1-0.6c1.9,0,3.8,0.3,6.4,0.3c0,0,0,0,0,0c0.8,0,1.5,0.1,2.3,0.1
							c1,0,1.9-0.1,2.6-0.5c6.9-3.9,10.3-13.7,13.1-22.1c0.6-1.7,1-3.4,1.4-5.1c1.5-7,0.8-12.7-3.2-16.8c-8.1-4.1-12.9-9.8-16.8-18
							c-1.6-1.2-3.4-2.9-5.4-4.2c-0.1,0-0.2-0.1-0.3-0.1C281.8,255.5,271.3,259.3,269.5,259.3 M282.5,195.4
							c-6.6,0-13.5,2.5-20.1,4.9c-4.6,1.7-9.4,3.4-14.1,4.3c-0.9-0.3-1.9-0.5-2.9-0.8l-0.6-0.1l-0.6,0.1c-2.4,0.3-4.7,1-6.9,2.2
							l-0.2,0.1l-0.2,0.1c-4.6,3.2-7.7,7.6-10.8,11.9c-2.6,3.7-5.4,7.5-9,10.5l-0.1,0.1l-0.1,0.1c-1.3,1.2-2.6,2.4-3.8,3.7
							c-20,7.4-29.9,25.9-25.5,47.3c-0.4,1-0.7,1.9-1.1,2.8c-0.2,0.6-0.5,1.2-0.7,1.8c-7.4,19.7-11.7,38.4,15.9,51.1
							c0.8,1.4,1.7,2.7,2.5,4c5.9,14.4,15.8,38,36,38c0.6,0,1.2,0,1.8-0.1c1.9-0.1,3.8-0.5,5.8-1c5.8,0.2,11.8,1.5,17.5,2.8
							c6,1.4,12.2,2.8,18.2,2.8c9.9,0,17.6-3.8,24.4-11.9c0.7-0.3,1.4-0.7,2.1-1c0.7-0.3,1.3-0.6,2-1c2.1-0.8,4.3-1.6,6.3-2.4
							c1.6-0.6,3.2-1.2,4.7-1.8c2-0.7,3.6-1.4,5.1-2c13.3-2,22.5-8,27.5-17.8c4.1-8.1,5.4-18.7,3.9-32.4c0.5-1.2,1-2.6,1.6-4.2
							c0.4-0.9,0.7-1.8,1.1-2.7c5.7-14.4,11.7-29.2-3.2-42.2c-1.5-1.3-3.3-2.7-5.3-3.9c-1.1-3.7-2.1-7.4-3.1-11
							c-5.2-19.2-10.1-37.2-31.2-37.2c-3.1,0-6.5,0.4-10.2,1.2c-0.6,0.1-1.2,0.3-1.8,0.4c-1-0.9-2-1.8-3.1-2.8
							C298.8,199.9,291.5,195.4,282.5,195.4L282.5,195.4z M269.5,262.9c1.3,0,3.1-0.5,7.7-1.9c1.8-0.6,4.6-1.4,6.1-1.8
							c0.8,0.6,1.6,1.3,2.4,1.9c0.4,0.3,0.8,0.6,1.1,0.9c4.5,8.8,9.7,14.4,17.5,18.5c1.7,1.9,3.6,5.4,1.9,13.1
							c-0.3,1.5-0.8,3.1-1.3,4.7c-2.5,7.5-5.6,16.7-11.4,20c-0.1,0-0.3,0.1-0.9,0.1c-0.3,0-0.7,0-1,0c-0.4,0-0.8,0-1.3,0
							c-1.3,0-2.3-0.1-3.4-0.2c-1-0.1-2-0.1-3-0.1c-1.8,0-3.3,0.2-4.9,0.7c-1.8,0.2-3.6,0.5-5,0.8c-3.3,0.5-6.5,1.1-9,1.1
							c-4.1,0-7.8-0.8-11.5-10.9c-0.6-1.6-1.5-2.9-2.2-4c-0.3-0.5-0.7-1-0.9-1.4c-2.4-4-4.9-8.7-6.1-13.7c-0.2-1-0.4-1.9-0.5-2.8
							c3-13.6,6.6-22.7,25.6-24.9C269.4,262.9,269.5,262.9,269.5,262.9L269.5,262.9z"/>
					</g>
				</g>
				<g>
					<g>
						<g>
							<path class="st14" d="M294.6,207.7c1.6,1.3,10.2,6.3,11.8,7.9c0.9-0.2-5.3-3.9-4.5-4.1c-4.4-6.9-9.2-10.4-14.1-11.7
								C290.1,201.6,292.4,204.2,294.6,207.7z"/>
						</g>
					</g>
					<g>
						<g>
							<path class="st14" d="M357.1,265.3c-1.7-1.5-3.6-2.9-5.9-4.3c-6.6-21.2-8.6-41.7-24.4-46.1c9.2,8,11.5,24.8,16.9,42.1
								c2.3,1.4,4.3,2.8,5.9,4.3c13.8,12,7,25.8,1.1,40.9c-0.7,1.7-1.3,3.4-1.9,5.1c2.8,24.2-2.4,43.4-28.7,47.2
								c-1.8,0.7-3.6,1.4-5.4,2.1c-3.7,1.4-7.5,2.8-11.2,4.2c-1.7,0.8-3.3,1.6-5,2.4c-16.9,21.2-36.8,5.9-58.2,5.5
								c-2,0.6-3.8,0.9-5.6,1c-2.8,0.2-5.4-0.2-7.8-0.9c4.3,3.4,9.3,5.3,15.3,4.9c1.8-0.1,3.7-0.5,5.6-1
								c21.4,0.4,41.4,15.6,58.2-5.5c1.6-0.8,3.3-1.6,5-2.4c3.7-1.4,7.5-2.8,11.2-4.2c1.8-0.7,3.7-1.4,5.4-2.1
								c26.3-3.8,31.5-23,28.7-47.2c0.6-1.7,1.3-3.4,1.9-5.1C364.1,291.1,370.9,277.3,357.1,265.3z"/>
						</g>
					</g>
				</g>
			</g>
			<g>
				<g>
					<g>
						<path class="st15" d="M299.1,243.5c-2.1,0-3.9-3.7-3.9-3.7c-0.4-1.2-0.1-2.9,0.8-5c0.2-0.5,0.4-1,0.7-1.6
							c1.3-3.4,3-7.6,6.5-8.4l0.2,0l0.3,0c0.4,0,1.6,0,3.1,2.3l0.4,0.5l-0.1,0.6c-0.3,3.6-1.9,6.3-3.4,8.9c-1,1.7-1.9,3.2-2.5,5
							C300.8,242.9,300,243.5,299.1,243.5C299.1,243.5,299.1,243.5,299.1,243.5z"/>
						<path class="st2" d="M303.6,226.5c0.5,0,1.3,1,1.6,1.5c-0.4,5.3-4.3,8.7-5.9,13.5c0,0.2-0.1,0.2-0.2,0.2
							c-0.6,0-2.1-2.2-2.2-2.5c-0.3-1,0.3-2.8,0.7-3.8C298.9,232.6,300.4,227.2,303.6,226.5C303.5,226.5,303.5,226.5,303.6,226.5
							 M303.6,222.9c-0.3,0-0.6,0-0.9,0.1c-4.4,1-6.3,5.9-7.8,9.5c-0.2,0.6-0.4,1.1-0.6,1.6c-1.7,3.8-1.1,5.7-0.9,6.3
							c0,0.1,2.2,5,5.7,5c1.7,0,3.2-1.1,3.7-2.7c0.5-1.6,1.4-3.1,2.3-4.6c1.6-2.7,3.4-5.7,3.7-9.7l0.1-1.3l-0.7-1.1
							C306.8,223.9,305.3,222.9,303.6,222.9L303.6,222.9z"/>
					</g>
				</g>
				<g>
					<g>
						<path class="st15" d="M338.8,324.9c-2.1,0-3.9-3.7-3.9-3.7c-0.4-1.2-0.1-2.9,0.8-5c0.2-0.5,0.4-1,0.7-1.6
							c1.3-3.4,3-7.6,6.5-8.4l0.2,0l0.3,0c0.4,0,1.6,0,3.1,2.3l0.4,0.5l-0.1,0.6c-0.3,3.6-1.9,6.3-3.4,8.9c-1,1.7-1.9,3.2-2.5,5
							C340.5,324.3,339.7,324.9,338.8,324.9L338.8,324.9z"/>
						<path class="st2" d="M343.3,307.9c0.5,0,1.3,1,1.6,1.5c-0.4,5.3-4.3,8.7-5.9,13.5c0,0.2-0.1,0.2-0.2,0.2
							c-0.6,0-2.1-2.2-2.2-2.5c-0.3-1,0.3-2.8,0.7-3.8C338.6,314,340.2,308.6,343.3,307.9C343.3,307.9,343.3,307.9,343.3,307.9
							 M343.3,304.3c-0.3,0-0.6,0-0.9,0.1c-4.4,1-6.3,5.9-7.8,9.5c-0.2,0.6-0.4,1.1-0.6,1.6c-1.7,3.8-1.1,5.7-0.9,6.3
							c0,0.1,2.2,5,5.7,5c1.7,0,3.2-1.1,3.7-2.7c0.5-1.6,1.4-3.1,2.3-4.6c1.6-2.7,3.4-5.7,3.7-9.7l0.1-1.3l-0.7-1.1
							C346.5,305.3,345,304.3,343.3,304.3L343.3,304.3z"/>
					</g>
				</g>
				<g>
					<g>
						<path class="st15" d="M223.5,296.2c-2.1,0-3.9-3.7-3.9-3.7c-0.4-1.2-0.1-2.9,0.8-5c0.2-0.5,0.4-1,0.7-1.6
							c1.3-3.4,3-7.6,6.5-8.4l0.2,0l0.3,0c0.4,0,1.6,0,3.1,2.3l0.4,0.5l-0.1,0.6c-0.3,3.6-1.9,6.3-3.4,8.9c-1,1.7-1.9,3.2-2.5,5
							C225.2,295.7,224.4,296.2,223.5,296.2L223.5,296.2z"/>
						<path class="st2" d="M228,279.2c0.5,0,1.3,1,1.6,1.5c-0.4,5.3-4.3,8.7-5.9,13.5c0,0.2-0.1,0.2-0.2,0.2c-0.6,0-2.1-2.2-2.2-2.5
							c-0.3-1,0.3-2.8,0.7-3.8C223.3,285.4,224.8,279.9,228,279.2C227.9,279.2,228,279.2,228,279.2 M228,275.6c-0.3,0-0.6,0-0.9,0.1
							c-4.4,1-6.3,5.9-7.8,9.5c-0.2,0.6-0.4,1.1-0.6,1.6c-1.1,2.5-1.4,4.7-0.9,6.3c0,0,2.2,5,5.7,5c1.7,0,3.2-1.1,3.7-2.7
							c0.5-1.6,1.4-3.1,2.3-4.6c1.6-2.7,3.4-5.7,3.7-9.7l0.1-1.3l-0.7-1.1C231.2,276.6,229.7,275.6,228,275.6L228,275.6z"/>
					</g>
				</g>
				<g>
					<g>
						<path class="st15" d="M240.7,365.6c-0.8,0-1.5-0.4-1.8-1.2c-0.9-1.8,1-5,1-5.1c0.8-1,2.4-1.7,4.6-2.1c0.5-0.1,1.1-0.2,1.7-0.4
							c1.8-0.4,3.9-0.8,5.8-0.8c2.1,0,3.6,0.5,4.7,1.6c0.9,0.9,1,2.2,0.2,4.2l-0.2,0.6l-0.6,0.3c-3.1,1.8-6.3,1.9-9.3,2.1
							c-1.9,0.1-3.8,0.2-5.6,0.7C241.1,365.6,240.9,365.6,240.7,365.6C240.7,365.6,240.7,365.6,240.7,365.6z"/>
						<path class="st2" d="M252.1,357.9c1.4,0,2.6,0.3,3.5,1.1c0.4,0.4-0.1,1.7-0.3,2.2c-4.7,2.6-9.6,1.3-14.5,2.6c0,0-0.1,0-0.1,0
							c-0.8,0,0.4-3.1,0.6-3.3c0.7-0.9,2.5-1.3,3.5-1.5C246.8,358.7,249.7,357.9,252.1,357.9 M252.1,354.2c-2.1,0-4.4,0.5-6.2,0.9
							c-0.6,0.1-1.2,0.3-1.7,0.3c-2.7,0.5-4.6,1.4-5.7,2.8c0,0-2.6,4.2-1.2,7c0.7,1.3,2,2.2,3.5,2.2c0.4,0,0.7-0.1,1.1-0.2
							c1.6-0.4,3.3-0.5,5.2-0.6c3.1-0.2,6.6-0.4,10.1-2.3l1.1-0.6l0.5-1.2c1.1-2.7,0.9-4.8-0.6-6.2
							C256.7,354.9,254.6,354.2,252.1,354.2L252.1,354.2z"/>
					</g>
				</g>
				<g>
					<g>
						<path class="st16" d="M270.9,246c-0.7,0-1.4-0.4-1.7-1c-0.9-1.4-0.1-4.6,0-5c0.6-1.2,1.9-2.2,4-3.1c0.5-0.2,1-0.5,1.6-0.7
							c2.3-1.1,5.1-2.4,7.6-2.4c1.1,0,2.1,0.2,2.9,0.7c1.1,0.6,1.4,2,1.1,4.1l-0.1,0.6l-0.5,0.4c-2.7,2.4-5.7,3.3-8.6,4.1
							c-1.9,0.5-3.6,1-5.3,1.9C271.6,245.9,271.3,246,270.9,246C270.9,246,270.9,246,270.9,246z"/>
						<path class="st2" d="M282.4,235.7c0.7,0,1.4,0.1,1.9,0.5c0.5,0.3,0.3,1.7,0.2,2.2c-4,3.6-9.1,3.4-13.5,5.8
							c-0.1,0-0.1,0.1-0.2,0.1c-0.7,0-0.2-3.1-0.1-3.4c0.5-1,2.2-1.8,3.1-2.2C276.2,237.7,279.7,235.7,282.4,235.7 M282.4,232.1
							c-2.9,0-5.9,1.4-8.4,2.5c-0.6,0.3-1.1,0.5-1.5,0.7c-2.6,1.1-4.2,2.4-5,4c-0.2,0.4-1.4,4.4,0.1,6.7c0.7,1.1,1.9,1.8,3.3,1.8
							c0.7,0,1.3-0.2,1.9-0.5c1.5-0.8,3.1-1.3,4.9-1.8c3-0.9,6.3-1.8,9.3-4.5l0.9-0.9l0.2-1.3c0.5-2.9-0.2-4.9-2-5.9
							C285.1,232.4,283.8,232.1,282.4,232.1L282.4,232.1z"/>
					</g>
				</g>
				<g>
					<g>
						<path class="st16" d="M233.5,318.4c-3.4-1.2-5.6-3.4-7.8-5.5c-1.4-1.4-2.7-2.7-4.2-3.6c-0.8-0.5-1.2-1.4-0.9-2.3
							c0.5-2,4.5-2.9,4.6-2.9c0.1,0,0.1,0,0.2,0c1.2,0,2.7,0.7,4.5,2c0.4,0.3,0.9,0.7,1.4,1c3,2.1,6.6,4.8,6.5,8.3
							c0,1.3-1,2.2-3,2.9l-0.6,0.2L233.5,318.4z"/>
						<path class="st2" d="M225.3,305.8c1.1,0,2.6,1,3.4,1.6c2.5,1.9,7.3,4.8,7.2,7.9c0,0.6-1.3,1.1-1.8,1.3
							c-5.1-1.7-7.4-6.3-11.6-9c-0.9-0.6,2.5-1.8,2.8-1.8C225.3,305.8,225.3,305.8,225.3,305.8 M225.3,302.2c-0.1,0-0.2,0-0.3,0
							c0,0-5.3,0.9-6.2,4.3c-0.4,1.6,0.3,3.3,1.7,4.3c1.4,0.9,2.6,2.1,3.9,3.4c2.2,2.2,4.7,4.7,8.5,5.9l1.2,0.4l1.2-0.4
							c2.7-1,4.2-2.5,4.2-4.6c0.1-4.5-4.2-7.6-7.3-9.8c-0.5-0.4-1-0.7-1.4-1C228.9,303,227,302.2,225.3,302.2L225.3,302.2z"/>
					</g>
				</g>
				<g>
					<g>
						<path class="st16" d="M218.7,252.2c-2.5,0-3.5-4.5-3.5-4.5c-0.1-1.3,0.5-2.9,1.9-4.7c0.3-0.4,0.6-0.9,1-1.4
							c2.1-3,4.6-6.7,8.2-6.7c1.3,0,2.3,1,3,3l0.2,0.6l-0.2,0.6c-1.1,3.4-3.2,5.7-5.3,7.9c-1.3,1.4-2.6,2.7-3.6,4.3
							C220.1,251.8,219.5,252.2,218.7,252.2C218.7,252.2,218.7,252.2,218.7,252.2z"/>
						<path class="st2" d="M226.4,236.6C226.4,236.6,226.4,236.6,226.4,236.6c0.6,0,1.1,1.3,1.3,1.8c-1.6,5.1-6.1,7.5-8.7,11.8
							c-0.1,0.1-0.1,0.2-0.2,0.2c-0.6,0-1.6-2.6-1.7-2.9c-0.1-1.1,0.9-2.7,1.6-3.5C220.5,241.5,223.2,236.6,226.4,236.6 M226.4,233
							c-4.5,0-7.5,4.3-9.7,7.5c-0.4,0.5-0.7,1-1,1.4c-1.6,2.2-2.4,4.2-2.3,6c0,0.1,1.1,6.2,5.3,6.2c1.4,0,2.6-0.7,3.3-1.9
							c0.8-1.4,2-2.7,3.3-4c2.1-2.2,4.6-4.8,5.8-8.6l0.4-1.2l-0.5-1.2C230,234.4,228.4,233,226.4,233L226.4,233L226.4,233L226.4,233
							z"/>
					</g>
				</g>
				<g>
					<g>
						<path class="st17" d="M322.5,266.7c-2.8,0-5.3-0.8-7.7-1.7c-1.8-0.6-3.6-1.2-5.4-1.4c-0.9-0.1-1.7-0.7-1.8-1.6
							c-0.4-2.1,2.8-4.6,2.8-4.6c0.7-0.4,1.5-0.6,2.5-0.6c1,0,1.9,0.2,2.6,0.3c0.5,0.1,1.1,0.2,1.7,0.3c3.6,0.6,8.1,1.4,9.5,4.6
							c0.5,1.1,0.1,2.4-1.4,4l-0.4,0.5l-0.6,0.1C323.7,266.7,323.1,266.7,322.5,266.7L322.5,266.7z"/>
						<path class="st2" d="M312.9,258.6c0.8,0,1.7,0.1,2.2,0.3c3.1,0.6,8.7,1.1,10,3.9c0.2,0.5-0.7,1.6-1.1,2
							c-0.5,0.1-1,0.1-1.5,0.1c-4.6,0-8.4-2.6-12.9-3.1c-1.1-0.1,1.4-2.7,1.7-2.9C311.7,258.7,312.3,258.6,312.9,258.6 M312.9,255
							c-1.3,0-2.5,0.3-3.4,0.8c-0.1,0-4.4,3.1-3.7,6.6c0.3,1.6,1.7,2.9,3.4,3.1c1.6,0.2,3.3,0.7,5,1.3c2.4,0.8,5.1,1.7,8.3,1.7
							c0.7,0,1.3,0,2-0.1l1.3-0.2l0.9-0.9c2.5-2.6,2.4-4.7,1.8-6c-1.9-4.1-7.1-5-10.9-5.7c-0.6-0.1-1.2-0.2-1.7-0.3
							C315.1,255.2,314,255,312.9,255L312.9,255z"/>
					</g>
				</g>
				<g>
					<g>
						<path class="st16" d="M309.8,317c-0.6,0-1.2-0.3-1.7-0.8c-1-1.3-0.8-4.3-0.7-4.8c0.3-1.2,1.5-2.5,3.4-3.8
							c0.4-0.3,0.9-0.6,1.5-1c2.4-1.7,5.4-3.7,8.2-3.7c0.6,0,1.3,0.1,1.8,0.3c1.2,0.4,1.8,1.7,1.8,3.8l0,0.6l-0.4,0.5
							c-2.2,2.8-5,4.2-7.8,5.5c-1.7,0.8-3.4,1.6-4.8,2.8C310.8,316.9,310.3,317,309.8,317L309.8,317z"/>
						<g>
							<path class="st2" d="M320.5,304.8c0.4,0,0.8,0.1,1.2,0.2c0.5,0.2,0.6,1.6,0.6,2.2c-3.3,4.2-8.4,4.9-12.3,8
								c-0.1,0.1-0.1,0.1-0.2,0.1c-0.7,0-0.7-3-0.6-3.3c0.3-1.1,1.8-2.2,2.7-2.7C314.2,307.7,317.7,304.8,320.5,304.8 M320.5,301.1
								c-3.4,0-6.6,2.3-9.2,4.1c-0.5,0.4-1,0.7-1.4,1c-2.4,1.5-3.7,3.1-4.2,4.8c-0.2,0.6-0.5,4.4,1,6.3c0.8,1,1.9,1.6,3.1,1.6
								c0.9,0,1.7-0.3,2.5-0.9c1.3-1,2.9-1.8,4.5-2.6c2.8-1.4,5.9-2.9,8.4-6l0.8-1l0-1.3c0-2.9-1-4.8-3-5.5
								C322.2,301.3,321.4,301.1,320.5,301.1L320.5,301.1z"/>
						</g>
					</g>
				</g>
				<g>
					<g>
						<path class="st17" d="M250.1,340.9c-1.4,0-2.6-0.3-3.5-1c-1-0.7-1.2-2.1-0.7-4.2l0.2-0.6l0.5-0.4c2.9-2.1,6-2.7,9-3.3
							c1.9-0.4,3.7-0.7,5.4-1.4c0.3-0.1,0.6-0.2,0.9-0.2c0.7,0,1.4,0.4,1.8,1c0.9,1.6-0.3,4.9-0.4,5c-0.7,1.1-2.1,2-4.3,2.7
							c-0.5,0.2-1.1,0.4-1.7,0.6C255,340,252.4,340.9,250.1,340.9C250.1,340.9,250.1,340.9,250.1,340.9z"/>
						<path class="st2" d="M261.8,331.6c0.7,0-0.1,3.1-0.2,3.4c-0.6,0.9-2.3,1.6-3.3,1.9c-2.2,0.7-5.5,2.2-8.1,2.2
							c-0.9,0-1.8-0.2-2.5-0.7c-0.4-0.3-0.2-1.7,0-2.2c4.3-3.2,9.4-2.5,14-4.5C261.7,331.7,261.7,331.6,261.8,331.6 M261.8,328
							c-0.5,0-1.1,0.1-1.6,0.3c-1.5,0.6-3.2,1-5,1.3c-3,0.6-6.5,1.2-9.7,3.6l-1,0.8l-0.3,1.2c-0.7,2.8-0.3,4.9,1.4,6.1
							c1.3,0.9,2.8,1.4,4.6,1.4c2.6,0,5.4-1,7.6-1.8c0.6-0.2,1.1-0.4,1.6-0.5c2.7-0.8,4.4-2,5.3-3.5c0,0,2-4.2,0.5-6.9
							C264.4,328.8,263.2,328,261.8,328L261.8,328z"/>
					</g>
				</g>
				<g>
					<g>
						<path class="st17" d="M248,261.2c-2.8,0-5.3-0.8-7.7-1.7c-1.8-0.6-3.6-1.2-5.4-1.4c-0.9-0.1-1.7-0.7-1.8-1.6
							c-0.4-2.1,2.8-4.6,2.8-4.6c0.7-0.4,1.5-0.6,2.5-0.6c1,0,1.9,0.2,2.6,0.3c0.5,0.1,1.1,0.2,1.7,0.3c3.6,0.6,8,1.4,9.5,4.6
							c0.5,1.1,0.1,2.4-1.4,4l-0.4,0.5l-0.6,0.1C249.2,261.2,248.6,261.2,248,261.2z"/>
						<path class="st2" d="M238.4,253.2c0.8,0,1.7,0.1,2.2,0.3c3.1,0.6,8.7,1.1,10,3.9c0.2,0.5-0.7,1.6-1.1,2
							c-0.5,0.1-1,0.1-1.5,0.1c-4.6,0-8.4-2.6-12.9-3.1c-1.1-0.1,1.4-2.7,1.7-2.9C237.2,253.2,237.8,253.2,238.4,253.2 M238.4,249.5
							c-1.3,0-2.5,0.3-3.4,0.8c-0.1,0-4.4,3.1-3.7,6.6c0.3,1.6,1.7,2.9,3.4,3.1c1.6,0.2,3.3,0.7,5,1.3c2.4,0.8,5.1,1.7,8.3,1.7
							c0.7,0,1.3,0,2-0.1l1.3-0.2l0.9-0.9c2-2.1,2.6-4.1,1.8-6c-1.9-4.1-7.1-5-10.9-5.7c-0.6-0.1-1.2-0.2-1.7-0.3
							C240.7,249.7,239.5,249.5,238.4,249.5L238.4,249.5z"/>
					</g>
				</g>
				<g>
					<g>
						<path class="st18" d="M330.8,244.6c-2.8,0-5.3-0.8-7.7-1.7c-1.8-0.6-3.6-1.2-5.4-1.4c-0.9-0.1-1.6-0.7-1.8-1.6
							c-0.4-2.1,2.8-4.6,2.8-4.6c0.7-0.4,1.5-0.6,2.5-0.6c1,0,1.9,0.2,2.6,0.3c0.5,0.1,1.1,0.2,1.7,0.3c3.6,0.6,8,1.4,9.5,4.6
							c0.5,1.1,0.1,2.4-1.4,4l-0.4,0.5l-0.6,0.1C331.9,244.6,331.3,244.6,330.8,244.6z"/>
						<g>
							<path class="st2" d="M321.1,236.6c0.8,0,1.7,0.1,2.2,0.3c3.1,0.6,8.7,1.1,10,3.9c0.2,0.5-0.7,1.6-1.1,2
								c-0.5,0.1-1,0.1-1.5,0.1c-4.6,0-8.4-2.6-12.9-3.1c-1.1-0.1,1.4-2.7,1.7-2.9C320,236.6,320.5,236.6,321.1,236.6 M321.1,232.9
								c-1.3,0-2.5,0.3-3.4,0.8c-0.1,0-4.4,3.1-3.7,6.6c0.3,1.6,1.7,2.9,3.4,3c1.6,0.2,3.3,0.7,5,1.3c2.4,0.8,5.1,1.8,8.3,1.8
								c0.7,0,1.3,0,2-0.1l1.3-0.2l0.9-0.9c2-2.1,2.6-4.1,1.8-6c-1.9-4.1-7.1-5-10.8-5.7c-0.6-0.1-1.2-0.2-1.7-0.3
								C323.4,233.1,322.3,232.9,321.1,232.9L321.1,232.9z"/>
						</g>
					</g>
				</g>
				<g>
					<g>
						<path class="st18" d="M206.2,322.2c-2.8,0-5.3-0.8-7.7-1.7c-1.8-0.6-3.6-1.2-5.4-1.4c-0.9-0.1-1.7-0.7-1.8-1.6
							c-0.4-2.1,2.8-4.6,2.8-4.6c0.7-0.4,1.5-0.6,2.5-0.6c1,0,1.9,0.2,2.6,0.3c0.5,0.1,1.1,0.2,1.7,0.3c3.6,0.6,8.1,1.4,9.5,4.6
							c0.5,1.1,0.1,2.4-1.4,4l-0.4,0.5l-0.6,0.1C207.4,322.2,206.8,322.2,206.2,322.2L206.2,322.2z"/>
						<g>
							<path class="st2" d="M196.6,314.2c0.8,0,1.7,0.1,2.2,0.3c3.1,0.6,8.7,1.1,10,3.9c0.2,0.5-0.7,1.6-1.1,2
								c-0.5,0.1-1,0.1-1.5,0.1c-4.6,0-8.4-2.6-12.9-3.1c-1.1-0.1,1.4-2.7,1.7-2.9C195.4,314.3,196,314.2,196.6,314.2 M196.6,310.6
								c-1.4,0-2.5,0.3-3.4,0.8c0,0-4.4,3.1-3.7,6.5c0.3,1.6,1.7,2.9,3.4,3.1c1.6,0.2,3.3,0.7,5,1.3c2.4,0.8,5.1,1.7,8.3,1.7
								c0.7,0,1.3,0,2-0.1l1.3-0.2l0.9-0.9c2-2.1,2.6-4.1,1.8-6c-1.9-4.1-7.1-5-10.9-5.7c-0.6-0.1-1.2-0.2-1.7-0.3
								C198.8,310.7,197.7,310.6,196.6,310.6L196.6,310.6z"/>
						</g>
					</g>
				</g>
				<g>
					<g>
						<path class="st18" d="M333.8,294.3c-2.8,0-5.3-0.8-7.7-1.7c-1.8-0.6-3.6-1.2-5.4-1.4c-0.9-0.1-1.7-0.7-1.8-1.6
							c-0.4-2.1,2.8-4.6,2.8-4.6c0.6-0.4,1.5-0.6,2.5-0.6c1,0,1.9,0.2,2.6,0.3c0.5,0.1,1.1,0.2,1.7,0.3c3.6,0.6,8.1,1.4,9.5,4.6
							c0.5,1.1,0.1,2.4-1.4,4l-0.4,0.5l-0.6,0.1C335,294.3,334.4,294.3,333.8,294.3z"/>
						<g>
							<path class="st2" d="M324.2,286.3c0.8,0,1.7,0.1,2.2,0.3c3.1,0.6,8.7,1.1,10,3.9c0.2,0.5-0.7,1.6-1.1,2
								c-0.5,0.1-1,0.1-1.5,0.1c-4.6,0-8.4-2.6-12.9-3.1c-1.1-0.1,1.4-2.7,1.7-2.9C323,286.4,323.6,286.3,324.2,286.3 M324.2,282.7
								c-1.4,0-2.5,0.3-3.4,0.8c0,0-4.4,3.1-3.7,6.5c0.3,1.6,1.7,2.9,3.4,3.1c1.6,0.2,3.3,0.7,5,1.3c2.4,0.8,5.1,1.7,8.3,1.7
								c0.7,0,1.3,0,2-0.1l1.3-0.2l0.9-0.9c2-2.1,2.6-4.1,1.8-6c-1.9-4.1-7.1-5-10.9-5.7c-0.6-0.1-1.2-0.2-1.7-0.3
								C326.4,282.8,325.3,282.7,324.2,282.7L324.2,282.7z"/>
						</g>
					</g>
				</g>
				<g>
					<g>
						<path class="st18" d="M280.1,217.2c-2.8,0-5.3-0.8-7.7-1.7c-1.8-0.6-3.6-1.2-5.4-1.4c-0.9-0.1-1.7-0.7-1.8-1.6
							c-0.4-2.1,2.8-4.6,2.8-4.6c0.7-0.4,1.5-0.6,2.5-0.6c1,0,1.9,0.2,2.6,0.3c0.5,0.1,1.1,0.2,1.7,0.3c3.6,0.6,8.1,1.4,9.5,4.6
							c0.5,1.1,0.1,2.4-1.4,4l-0.4,0.5l-0.6,0.1C281.3,217.1,280.7,217.2,280.1,217.2C280.1,217.2,280.1,217.2,280.1,217.2z"/>
						<g>
							<path class="st2" d="M270.5,209.1c0.8,0,1.7,0.1,2.2,0.3c3.1,0.6,8.7,1.1,10,3.9c0.2,0.5-0.7,1.6-1.1,2
								c-0.5,0.1-1,0.1-1.5,0.1c-4.6,0-8.4-2.6-12.9-3.1c-1.1-0.1,1.4-2.7,1.7-2.9C269.3,209.2,269.9,209.1,270.5,209.1
								 M270.5,205.5c-1.3,0-2.5,0.3-3.4,0.8c-0.1,0-4.4,3.1-3.7,6.6c0.3,1.6,1.7,2.9,3.4,3.1c1.6,0.2,3.3,0.7,5,1.3
								c2.4,0.8,5.1,1.7,8.3,1.7c0.7,0,1.3,0,2-0.1l1.3-0.2l0.9-0.9c2-2.1,2.6-4.1,1.8-6c-1.9-4.1-7.1-5-10.9-5.7
								c-0.6-0.1-1.2-0.2-1.7-0.3C272.8,205.7,271.6,205.5,270.5,205.5L270.5,205.5z"/>
						</g>
					</g>
				</g>
				<g>
					<g>
						<path class="st7" d="M249.2,241.4c-0.4,0-1-0.1-1.5-0.7c-1-1-1.7-3.6-1.7-4.2c0-1.3,0.8-2.8,2.3-4.5c0.4-0.4,0.7-0.8,1.1-1.3
							c2.2-2.6,5-5.9,8.3-5.9c0.2,0,0.3,0,0.5,0c1.2,0.1,2.1,1.2,2.7,3.2l0.2,0.6l-0.2,0.6c-1.4,3.3-3.8,5.4-6.1,7.4
							c-1.5,1.3-2.8,2.5-3.9,4C250.5,241.1,249.9,241.4,249.2,241.4L249.2,241.4z"/>
						<path class="st2" d="M257.8,226.5c0.1,0,0.2,0,0.3,0c0.6,0.1,1,1.4,1.2,1.9c-2.1,4.9-6.8,6.9-9.8,11c-0.1,0.1-0.1,0.1-0.2,0.1
							c-0.6,0-1.4-2.8-1.4-3c0-1.1,1.2-2.6,1.9-3.3C251.7,231,254.8,226.5,257.8,226.5 M257.8,222.9c-4.2,0-7.4,3.8-9.7,6.6
							c-0.4,0.5-0.8,0.9-1.1,1.3c-1.9,2.1-2.8,4-2.8,5.7c0,1,0.8,4.1,2.2,5.5c0.8,0.8,1.8,1.2,2.8,1.2c1.2,0,2.4-0.6,3.1-1.6
							c1-1.3,2.3-2.5,3.7-3.7c2.3-2,5-4.3,6.5-8l0.5-1.2l-0.4-1.2c-0.8-2.8-2.2-4.3-4.3-4.5C258.2,222.9,258,222.9,257.8,222.9
							L257.8,222.9z"/>
					</g>
				</g>
				<g>
					<g>
						<path class="st7" d="M337.3,281.2c-0.4,0-1-0.1-1.5-0.7c-1-1-1.7-3.6-1.7-4.2c0-1.3,0.8-2.8,2.3-4.5c0.4-0.4,0.7-0.9,1.1-1.3
							c2.2-2.6,5-5.9,8.3-5.9c0.2,0,0.3,0,0.5,0c1.2,0.1,2.1,1.2,2.7,3.2l0.2,0.6L349,269c-1.4,3.3-3.8,5.4-6.1,7.4
							c-1.5,1.3-2.8,2.5-3.9,4C338.6,280.9,338,281.2,337.3,281.2L337.3,281.2z"/>
						<path class="st2" d="M345.9,266.3c0.1,0,0.2,0,0.3,0c0.6,0.1,1,1.4,1.2,1.9c-2.1,4.9-6.8,6.9-9.8,11c-0.1,0.1-0.1,0.1-0.2,0.1
							c-0.6,0-1.4-2.8-1.4-3c0-1.1,1.2-2.6,1.9-3.3C339.8,270.8,342.9,266.3,345.9,266.3 M345.9,262.7c-4.2,0-7.4,3.8-9.7,6.6
							c-0.4,0.5-0.8,0.9-1.1,1.3c-1.9,2.1-2.8,4-2.8,5.7c0,1,0.8,4.1,2.2,5.5c0.8,0.8,1.8,1.2,2.8,1.2c1.2,0,2.4-0.6,3.1-1.6
							c1-1.3,2.3-2.5,3.7-3.7c2.3-2,5-4.3,6.5-8l0.5-1.2l-0.3-1.2c-0.8-2.8-2.2-4.3-4.3-4.5C346.3,262.7,346.1,262.7,345.9,262.7
							L345.9,262.7z"/>
					</g>
				</g>
				<g>
					<g>
						<path class="st7" d="M226.8,354.5c-2,0-4.1-3.1-4.1-3.1c-0.6-1.2-0.6-2.9,0.1-5.1c0.1-0.5,0.3-1.1,0.4-1.7
							c0.8-3.5,1.9-7.9,5.2-9.2c0.3-0.1,0.5-0.1,0.8-0.1c0.3,0,1.4,0,3.1,1.8l0.4,0.5l0,0.6c0.2,3.6-1,6.5-2.1,9.3
							c-0.7,1.8-1.4,3.5-1.7,5.3C228.7,353.7,227.8,354.5,226.8,354.5L226.8,354.5z"/>
						<path class="st2" d="M229.2,337c0.5,0,1.4,0.8,1.7,1.2c0.4,5.3-3,9.2-3.8,14.2c0,0.2-0.1,0.3-0.3,0.3c-0.7,0-2.4-1.9-2.5-2.1
							c-0.5-1-0.1-2.8,0.2-3.8c0.8-3,1.6-8.6,4.5-9.7C229,337,229.1,337,229.2,337 M229.2,333.4c-0.5,0-1,0.1-1.4,0.3
							c-4.2,1.6-5.4,6.7-6.3,10.5c-0.1,0.6-0.3,1.2-0.4,1.6c-0.7,2.7-0.7,4.8,0.1,6.4c0,0,2.6,4.1,5.7,4.1c1.9,0,3.5-1.3,3.8-3.3
							c0.3-1.6,0.9-3.2,1.6-4.9c1.2-2.9,2.5-6.1,2.2-10.1l-0.1-1.3l-0.9-0.9C232.1,334.1,230.6,333.4,229.2,333.4L229.2,333.4z"/>
					</g>
				</g>
				<g>
					<g>
						<path class="st7" d="M207,300.9c-2,0-4.1-3.1-4.1-3.1c-0.6-1.2-0.6-2.9,0.1-5.1c0.1-0.5,0.3-1.1,0.4-1.7
							c0.8-3.5,1.9-7.9,5.2-9.2c0.3-0.1,0.5-0.1,0.8-0.1c0.3,0,1.4,0,3.1,1.8l0.4,0.5l0,0.6c0.2,3.6-1,6.5-2.1,9.3
							c-0.7,1.8-1.4,3.5-1.7,5.3C208.8,300.2,208,300.9,207,300.9L207,300.9z"/>
						<path class="st2" d="M209.3,283.4c0.5,0,1.4,0.8,1.7,1.2c0.4,5.3-3,9.2-3.8,14.2c0,0.2-0.1,0.3-0.3,0.3
							c-0.7,0-2.4-1.9-2.5-2.1c-0.5-1-0.1-2.8,0.2-3.8c0.8-3,1.6-8.6,4.5-9.7C209.2,283.5,209.3,283.4,209.3,283.4 M209.3,279.8
							c-0.5,0-1,0.1-1.4,0.3c-4.2,1.6-5.4,6.7-6.3,10.5c-0.1,0.6-0.3,1.2-0.4,1.6c-0.7,2.7-0.7,4.8,0.1,6.4c0,0,2.6,4.1,5.7,4.1
							c1.9,0,3.5-1.4,3.8-3.3c0.3-1.6,0.9-3.2,1.6-4.9c1.2-2.9,2.5-6.1,2.2-10.1l-0.1-1.3l-0.9-0.9
							C212.2,280.6,210.8,279.8,209.3,279.8L209.3,279.8z"/>
					</g>
				</g>
			</g>
			<g class="st6">
				<g>
					<path class="st7" d="M204,250.1c-4.2,5.7-8.5,11.6-7.5,19c0.6,4.4,7.2,3.1,6.7-1.2c-0.7-5.3,3.6-10,6.5-14
						C212.2,250.3,206.6,246.6,204,250.1L204,250.1z"/>
				</g>
				<g>
					<path class="st7" d="M199.7,285.4c0.1,0,0.2-0.1,0.3-0.1c1.7-0.8,2.4-2.9,1.6-4.5c-0.8-1.7-2.9-2.4-4.5-1.6
						c-0.1,0-0.2,0.1-0.3,0.1c-1.7,0.8-2.4,2.9-1.6,4.5C195.9,285.5,198,286.2,199.7,285.4L199.7,285.4z"/>
				</g>
			</g>
		</g>
		<g>
			<g>
				<g>
					<path class="st2" d="M289.6,349.3c1.7,3.5,0.3,7.7-3.2,9.4c-3.5,1.7-7.7,0.3-9.4-3.2c-1.7-3.5-0.3-7.7,3.2-9.4
						C283.7,344.4,287.9,345.8,289.6,349.3z"/>
					<path class="st7" d="M281.2,350.1c0.5,1.1,0.1,2.5-1,3c-1.1,0.5-2.5,0.1-3-1c-0.5-1.1-0.1-2.5,1-3
						C279.3,348.5,280.7,349,281.2,350.1z"/>
					<path class="st7" d="M282.6,353.2c0.2,0.4,0,0.9-0.4,1.1c-0.4,0.2-0.9,0-1.1-0.4c-0.2-0.4,0-0.9,0.4-1.1
						S282.4,352.8,282.6,353.2z"/>
					<path class="st7" d="M283,350.5c0.1,0.3,0,0.6-0.2,0.7c-0.3,0.1-0.6,0-0.7-0.2c-0.1-0.3,0-0.6,0.2-0.7
						C282.5,350.2,282.8,350.3,283,350.5z"/>
					<path class="st8" d="M288.6,357.7c0.4,0.8-1.8,2.6-4.9,4.1c-3.1,1.5-5.9,2.1-6.2,1.3c-0.4-0.8,1.8-2.6,4.9-4.1
						C285.4,357.5,288.2,356.9,288.6,357.7z"/>
				</g>
				<g>
					<path class="st2" d="M323.2,332.9c1.7,3.5,0.3,7.7-3.2,9.4c-3.5,1.7-7.7,0.3-9.4-3.2c-1.7-3.5-0.3-7.7,3.2-9.4
						C317.2,328,321.5,329.4,323.2,332.9z"/>
					<path class="st7" d="M314.7,333.7c0.5,1.1,0.1,2.5-1,3c-1.1,0.5-2.5,0.1-3-1c-0.5-1.1-0.1-2.5,1-3
						C312.8,332.1,314.2,332.6,314.7,333.7z"/>
					<path class="st7" d="M316.1,336.9c0.2,0.4,0,0.9-0.4,1.1c-0.4,0.2-0.9,0-1.1-0.4c-0.2-0.4,0-0.9,0.4-1.1
						C315.4,336.3,315.9,336.4,316.1,336.9z"/>
					<path class="st7" d="M316.5,334.2c0.1,0.3,0,0.6-0.2,0.7c-0.3,0.1-0.6,0-0.7-0.2c-0.1-0.3,0-0.6,0.2-0.7
						C316.1,333.8,316.4,333.9,316.5,334.2z"/>
					<path class="st8" d="M328.6,338.2c0.4,0.8-1.8,2.6-4.9,4.1c-3.1,1.5-5.9,2.1-6.2,1.3c-0.4-0.8,1.8-2.6,4.9-4.1
						C325.4,338,328.2,337.4,328.6,338.2z"/>
				</g>
			</g>
			<g>
				<path class="st19" d="M309.6,326.1c0,0,4.1-4.4,9.9-2"/>
				<path class="st19" d="M279.7,340.7c0,0-6,0.6-7.7,6.6"/>
			</g>
			<g>
				<path class="st19" d="M301.3,347.1c0.6,2.3,0.3,4.3-0.9,4.9c-1.2,0.6-2.9-0.4-4.4-2.3"/>
				<path class="st19" d="M306.6,344.5c0.6,2.3,0.3,4.3-0.9,4.9c-1.2,0.6-2.9-0.4-4.4-2.3"/>
			</g>
		</g>
	</g>
</g>
</svg>
