<?xml version="1.0" encoding="utf-8"?>
<!-- Generator: Adobe Illustrator 24.1.0, SVG Export Plug-In . SVG Version: 6.00 Build 0)  -->
<svg version="1.1" id="Слой_1" xmlns="http://www.w3.org/2000/svg" xmlns:xlink="http://www.w3.org/1999/xlink" x="0px" y="0px"
	 viewBox="0 0 500 1600" style="enable-background:new 0 0 500 1600;" xml:space="preserve">
<style type="text/css">
	.st0{fill:#F7AC47;}
	.st1{fill:#422918;}
	.st2{fill:#70150D;}
	.st3{opacity:0.3;}
	.st4{fill:#871A16;}
	.st5{fill:#FFD550;}
	.st6{fill:#E74242;}
	.st7{fill:#64B453;}
	.st8{fill:#B4D389;}
	.st9{opacity:0.6;}
	.st10{fill:#FFFFFF;}
	.st11{fill:#EC6F80;}
	.st12{fill:none;stroke:#422918;stroke-width:1.0704;stroke-linecap:round;stroke-linejoin:round;stroke-miterlimit:10;}
	.st13{fill:#FFF498;}
	.st14{fill:none;stroke:#422918;stroke-linecap:round;stroke-linejoin:round;stroke-miterlimit:10;}
	.st15{fill:#F9B62E;}
	.st16{opacity:0.5;}
	.st17{fill:none;stroke:#422918;stroke-width:0.5765;stroke-linecap:round;stroke-linejoin:round;stroke-miterlimit:10;}
	.st18{fill:#925F36;}
	.st19{fill:#C6C6C5;}
	.st20{fill:#F5F5F5;}
	.st21{fill:#F9D0AC;}
	.st22{fill:none;stroke:#422918;stroke-width:1.5;stroke-linecap:round;stroke-linejoin:round;stroke-miterlimit:10;}
	.st23{fill:none;stroke:#422918;stroke-width:0.6835;stroke-linecap:round;stroke-linejoin:round;stroke-miterlimit:10;}
	.st24{fill:#575756;}
	.st25{fill:#D9D9D9;}
</style>
<g>
	<g>
		<g>
			<g>
				<path class="st0" d="M206.7,305.7c-43.2,14.1-83.7,19.5-111.3,14.9c-15-2.5-32.2-34-35-43.6c-1.7-5.8-0.1-9.3,5-11
					c1.7-0.6,3.7-0.9,6-1.3c2.8-0.5,6.1-1.1,9.4-2.2c1.9-0.6,3.7-1.3,5.3-2.2c20.2-10.4,107.8-52.4,159-69.2
					c11.5-3.8,20.4-6,26.6-6.6c21.5-2.2,35,7.1,40.2,27.7c5.9,23.1-9.2,48-39.3,65C253.6,288,230.8,297.9,206.7,305.7L206.7,305.7z"
					/>
				<path class="st1" d="M245.8,193.1c10.8-3.5,19.8-5.9,26.2-6.5c24.8-2.5,34.3,10.8,38.2,26.1c5.8,23-10.6,47.1-38.4,62.8
					c-18.8,10.6-41.7,20.5-65.6,28.4c-39.1,12.8-80.7,19.8-110.5,14.8c-13.7-2.3-30.6-32.3-33.4-42.1c-1.5-5.3,0.2-7.4,3.8-8.6
					c3.7-1.2,9.3-1.5,15.4-3.5c1.8-0.6,3.7-1.3,5.6-2.3C109.7,250.5,196,209.4,245.8,193.1 M244.5,189.2
					c-51.3,16.8-139,58.9-159.3,69.3c-1.6,0.8-3.2,1.5-5.1,2.1c-3.2,1.1-6.4,1.6-9.2,2.1c-2.3,0.4-4.4,0.8-6.3,1.4
					c-6.1,2-8.1,6.5-6.1,13.4c2.9,10.2,20.6,42.3,36.6,45c27.9,4.7,68.7-0.7,112.2-14.9c24.2-7.9,47.1-17.8,66.2-28.6
					c30.9-17.4,46.3-43.2,40.2-67.2c-5.5-21.7-19.7-31.5-42.3-29.2C265.2,183.2,256.1,185.4,244.5,189.2L244.5,189.2z"/>
			</g>
		</g>
		<g>
			<path class="st0" d="M272,186.6c-35.7,3.6-157.4,61.4-185,75.6c-14.4,7.4-28.4,2-24.8,14.4c0.1,0.4,0.3,0.8,0.4,1.3
				c41.8-20.4,139.9-65.6,171.3-68.8c24.8-2.5,34.3,10.8,38.2,26.1c4.6,18-4.5,36.5-21.8,51.3c7.6-3.5,14.8-7.2,21.4-11
				c27.8-15.7,44.3-39.8,38.4-62.8C306.2,197.3,296.8,184,272,186.6z"/>
		</g>
		<g>
			<g>
				<path class="st2" d="M177.8,262.5C71.1,297.4,64.2,290,59.2,284.6c-0.4-0.4-0.7-0.7-1-0.9c-7.3-5.6-17.4-46.6-16.2-52.1
					c1.1-5.5,6.3-16.6,9.2-19.4c1.9-1.9,12.1-6,26.3-11.6c4.7-1.8,8.7-3.4,11-4.4c17.1-7.4,35.3-13.5,51-18.6l15.6-5.1
					c3-1,6-2,9.1-3c10.1-3.4,20.1-7.4,29.8-11.2c9.7-3.9,19.8-7.9,29.9-11.2c2.7-0.9,5.4-1.8,8.1-2.8c3.2-1.1,6.4-2.3,9.6-3.3
					c2.1-0.7,4.3-1.4,6.4-2c1.5-0.4,3.1-0.9,4.7-1.4c5.8-1.8,11.8-3.7,18-3.5c10.7,0.5,22.7,9.4,26.2,19.6
					c0.1,0.4,13.2,38.7,12.7,44c-0.6,6.6-2,21.7-118.9,60.7C186.2,259.8,181.9,261.2,177.8,262.5L177.8,262.5z"/>
				<path class="st1" d="M242.1,142.9c2.1-0.7,4.2-1.3,6.4-2c7.1-2,14.6-5.1,22.1-4.8c9.5,0.4,21.1,8.5,24.4,18.1
					c1.4,4.1,13,38.8,12.6,43.1c-0.5,5.2-0.5,20-117.6,59.1c-4.4,1.5-8.6,2.9-12.7,4.2c-116,37.8-113,25.2-118,21.4
					c-6.4-4.9-16.5-44.8-15.4-49.9c1-5.1,6.1-15.8,8.6-18.4c2.6-2.6,29.2-12.4,36.7-15.6c16.5-7.2,33.6-13,50.8-18.6
					c5.2-1.7,10.4-3.4,15.6-5.1c3-1,6.1-2,9.1-3c20.2-6.7,39.5-15.7,59.7-22.4C230.3,147,236.1,144.8,242.1,142.9 M240.8,138.9
					L240.8,138.9c-3.3,1.1-6.5,2.2-9.7,3.3c-2.7,0.9-5.4,1.9-8,2.8c-10.1,3.4-20.2,7.4-29.9,11.3c-9.7,3.9-19.7,7.8-29.7,11.2
					c-3,1-6,2-9,3c-2.6,0.8-5.2,1.7-7.8,2.5s-5.2,1.7-7.8,2.5c-15.7,5.1-34,11.3-51.1,18.7c-2.2,1-6.3,2.6-10.9,4.4
					c-18.2,7.1-25,10-26.9,12c-3.3,3.3-8.6,15-9.7,20.4c-1.3,6.5,9,48.1,17.1,54.3c0.2,0.1,0.4,0.4,0.7,0.7
					c5.7,6.1,12.8,13.7,120.6-21.5c4.1-1.3,8.3-2.7,12.8-4.2c118-39.4,119.4-54.8,120.1-62.2v-0.2c0.5-5.5-10.6-38.4-12.8-44.9
					c-3.7-10.9-16.6-20.5-28-21c-6.5-0.3-12.7,1.7-18.6,3.5c-1.6,0.5-3.1,1-4.6,1.4C245.3,137.5,243.1,138.2,240.8,138.9
					L240.8,138.9L240.8,138.9z"/>
			</g>
		</g>
		<g class="st3">
			<path class="st4" d="M294.9,154.2c-3.3-9.7-14.9-17.7-24.4-18.1c-0.7,0-1.3,0-2,0c5.8,3.3,10.9,8.6,12.9,14.5
				c1.4,4.1,13,38.8,12.6,43.1c-0.5,5.2-0.5,20-117.6,59.1c-70.3,23.5-101.2,30.1-115.7,30.7c4.4,4.7,13.6,11.4,129.1-27.1
				c117.1-39.1,117.1-53.9,117.6-59.1C307.9,193,296.3,158.3,294.9,154.2z"/>
		</g>
		<g>
			<path class="st5" d="M324.6,211c-17.2,5.6-50.9-3.3-73.1-9.2c-2.1-0.6-4-1.1-5.9-1.5c-3.2-0.8-7.7-2.2-12.9-3.8
				c-18.4-5.6-46.2-14.2-57.1-10.8l-1.8,0.6l-1.4-4.4l0.7-0.9c6.6-8.4,24.6-16.4,39-22.9c2.6-1.2,5.1-2.3,7.3-3.3
				c11.8-5.5,24.6-10.4,37.7-15.4c1.9-0.7,3.6-1.3,5.1-1.8c8.2-2.7,11.5-1.9,17.9,1.8c14.7,8.6,26.4,20.2,33.6,33.4
				c0.7,1.4,2,3.3,3.4,5.6c7.2,11.4,13.4,22.1,11.5,28.4C328.1,208.9,326.7,210.3,324.6,211L324.6,211z"/>
			<path class="st1" d="M262.9,139.7c7.7-2.5,10.4-1.8,16.4,1.6c14.8,8.6,25.9,19.9,32.8,32.6c4.2,7.7,22.1,31.7,11.8,35.1l0,0
				c-18.4,6-57.7-5.5-78-10.7c-14.7-3.8-56.4-19.1-71-14.5l-0.4-1.3c7.5-9.6,32-19.3,45.7-25.6c12-5.6,25.2-10.6,37.6-15.4
				C259.8,140.7,261.4,140.1,262.9,139.7 M261.6,135.7c-1.4,0.5-3.1,1.1-5.2,1.9c-13.2,5-26,10-37.9,15.5c-2.2,1-4.7,2.1-7.3,3.3
				c-14.6,6.5-32.8,14.7-39.7,23.4l-1.3,1.7l0.7,2.2l0.4,1.3l1.3,3.9l3.6-1.1c10.3-3.2,38.9,5.5,56,10.8c5.2,1.6,9.7,3,13,3.8
				c1.8,0.5,3.8,1,5.9,1.5c22.5,5.9,56.4,14.9,74.2,9.1c3.4-1.1,4.7-3.5,5.3-5.3c2.2-7.1-4-17.9-11.8-30.2c-1.4-2.2-2.6-4.1-3.3-5.4
				c-7.5-13.6-19.4-25.5-34.4-34.3C274.1,133.7,270.4,132.9,261.6,135.7L261.6,135.7z"/>
		</g>
		<g>
			<path class="st5" d="M48.8,297.5c-2,0.7-4,0.4-5.7-0.9c-5.2-3.9-6.5-16.3-7.5-29.7c-0.2-2.7-0.4-5-0.6-6.5
				c-2-15,0.6-31.2,7.4-46.9c3-6.8,5.2-9.4,13.4-12c1.5-0.5,3.2-1,5.2-1.5c13.6-3.7,26.8-7.3,39.6-9.9c2.4-0.5,5-1,7.8-1.7
				c15.5-3.3,34.7-7.5,45-4.6l1,0.3l1.4,4.4l-1.8,0.6c-10.8,3.7-28.2,27-39.7,42.4c-3.3,4.4-6.1,8.1-8.2,10.7
				c-1.2,1.4-2.5,3-3.8,4.7C87.9,264.8,66,291.8,48.8,297.5L48.8,297.5z"/>
			<path class="st1" d="M56.5,203.4c1.5-0.5,3.2-1,5.1-1.5c12.8-3.5,26.4-7.2,39.4-9.8c14.7-3,40.3-9.6,52-6.3l0.4,1.3
				c-14.4,4.9-39.1,41.9-48.7,53.6c-13.3,16.2-38.3,48.7-56.6,54.7l0,0c-10.3,3.3-10-26.6-11.2-35.3c-1.9-14.4,0.4-30,7.2-45.7
				C47,208.1,48.8,205.9,56.5,203.4 M55.2,199.5L55.2,199.5c-8.7,2.9-11.3,5.8-14.5,13.1c-7,16-9.6,32.6-7.5,48
				c0.2,1.5,0.4,3.7,0.5,6.4c1,14.5,2.4,26.8,8.3,31.3c1.5,1.1,4,2.3,7.4,1.2c17.8-5.8,39.9-33.1,54.5-51.2c1.4-1.7,2.6-3.2,3.8-4.7
				c2.1-2.6,5-6.4,8.2-10.7c10.7-14.3,28.6-38.3,38.8-41.7l3.6-1.2l-1.3-3.9l-0.4-1.3l-0.7-2.2l-2.1-0.6c-10.7-3-30.2,1.2-45.9,4.6
				c-2.8,0.6-5.5,1.2-7.8,1.6c-12.8,2.6-26.1,6.1-39.7,9.9C58.3,198.5,56.6,199,55.2,199.5L55.2,199.5z"/>
		</g>
		<g>
			<g>
				<path class="st6" d="M110.6,267c-28.6,9.4-55.2,4.1-60.4-12c-5.3-16.1,13.1-36,41.7-45.4s55.2-4.1,60.5,12
					C157.6,237.7,139.2,257.6,110.6,267z"/>
				<path class="st1" d="M92.5,211.6c27.2-8.9,53.3-4.1,58.1,10.6c4.8,14.8-13.3,34-40.6,42.9c-27.2,8.9-53.3,4.1-58.1-10.6
					C47.1,239.7,65.2,220.5,92.5,211.6 M91.3,207.8c-29.6,9.7-48.4,30.7-42.8,47.8s33.2,23,62.8,13.3s48.4-30.7,42.8-47.8
					S120.9,198.1,91.3,207.8L91.3,207.8z"/>
			</g>
			<g>
				<path class="st6" d="M107.7,258.2c-24.1,7.9-46.4,3.4-50.9-10.2c-4.4-13.6,10.9-30.4,35-38.3c24.1-7.9,46.4-3.4,50.9,10.2
					S131.8,250.3,107.7,258.2z"/>
				<path class="st1" d="M92.5,211.6c22.8-7.4,44.5-3.5,48.5,8.9c4,12.3-11.1,28.4-33.9,35.8s-44.5,3.5-48.5-8.9
					S69.7,219,92.5,211.6 M91.3,207.8c-25.1,8.2-41,26.1-36.2,40.8c4.8,14.7,28.2,19.7,53.2,11.5c25.1-8.2,41-26.1,36.2-40.8
					C139.7,204.7,116.3,199.6,91.3,207.8L91.3,207.8z"/>
			</g>
		</g>
		<g>
			<g>
				
					<ellipse transform="matrix(0.9505 -0.3106 0.3106 0.9505 -56.6729 73.5153)" class="st6" cx="202.5" cy="214.7" rx="53.7" ry="30.1"/>
				<path class="st1" d="M193.8,187.9c27.2-8.9,53.3-4.1,58.1,10.6c4.8,14.8-13.3,34-40.6,42.9c-27.2,8.9-53.3,4.1-58.1-10.6
					C148.3,216,166.5,196.8,193.8,187.9 M192.5,184.1c-29.6,9.7-48.4,30.7-42.8,47.8s33.2,23,62.8,13.3s48.4-30.7,42.8-47.8
					C249.7,180.3,222.1,174.5,192.5,184.1L192.5,184.1z"/>
			</g>
			<g>
				
					<ellipse transform="matrix(0.9505 -0.3106 0.3106 0.9505 -55.3714 72.8624)" class="st6" cx="201.1" cy="210.3" rx="45.2" ry="25.5"/>
				<path class="st1" d="M193.8,187.9c22.8-7.4,44.5-3.5,48.5,8.9c4,12.3-11.1,28.4-33.9,35.8c-22.8,7.4-44.5,3.5-48.5-8.9
					C155.8,211.4,171,195.4,193.8,187.9 M192.5,184.1c-25.1,8.2-41,26.1-36.2,40.8s28.2,19.7,53.3,11.5s41-26.1,36.2-40.8
					C241,181,217.6,175.9,192.5,184.1L192.5,184.1z"/>
			</g>
		</g>
		<g>
			<path class="st7" d="M205.4,219.6c-1.6,0.5-3.4,0.9-5.3,1.2c-4,0.6-7.5-0.9-10.9-2.3c-2.5-1.1-4.9-2.1-7.5-2.3
				c-2.5-0.1-4.8,0.2-7,0.9c-4.3,1.4-7.9,4.4-10.8,8.8c-2.2,3.4-5.5,5.9-9.1,7.1c-3.2,1-6.6,1-9.7-0.1c-2.5-0.9-4.2-2.2-5.5-3.3
				c-2-1.6-3.1-2.5-6-1.8c-0.8,0.2-1.5,0.4-2.3,0.6c-2.4,0.8-3.8,1.8-4.5,3.2c-0.5,1-0.7,2-1,3c-0.4,1.7-0.9,3.7-2.4,5.5
				c-1.3,1.5-3.9,4.2-7.5,5.4c-2.8,0.9-5.6,0.7-8.1-0.7c-2.2-1.3-4.1-3.1-5.9-5c-2.8-2.8-5.2-5.2-8.2-4.9c-0.5,0.1-1.1,0.2-1.6,0.3
				c-3.2,1.1-5.7,4-8.3,7.2c-2.7,3.3-5.6,6.8-9.6,8.1c-2.9,0.9-5.9,0.7-9.3-0.8c-2.3-1-3.9-3.1-5.4-5c-1.3-1.7-2.5-3.3-3.8-3.5
				c-0.6-0.1-1.2,0-2,0.2c-2.2,0.7-4.9,2.8-7.9,5.8c-1.6,1.7-4.8,4.6-8.4,5.8l0,0c-3.3,1.1-5.5,0.2-6.8-0.8
				c-2.4-1.7-3.8-5.1-4.2-9.9c-0.4-4.5,1.1-7,2.7-9.6c0.3-0.6,0.7-1.2,1-1.8c1.4-2.5,2-5,2.7-7.8l0.8-3.2c1-4.3,2.3-9.7,4.9-12.9
				c2-2.4,4.7-4.2,7.3-5.8c1.1-0.7,2.2-1.4,3.1-2.1c8.7-6.4,19-13.5,30.3-17.9c3.7-1.4,7.5-2.8,11.2-4c4.3-1.4,8.6-2.7,12.8-3.8
				c4-1,8.1-1.8,12-2.6c4.1-0.8,8.4-1.6,12.5-2.7c1.7-0.5,3.4-1,5.1-1.5c1.5-0.5,2.9-1,4.4-1.5s3-1,4.4-1.5c2.2-0.7,4-1.3,5.8-1.7
				c9.6-2.5,19.3-4.7,28.7-6.8c4.5-1,9.1-2,13.6-3.1c1.4-0.3,2.9-0.7,4.4-1.2c5.8-1.9,11.2-4.7,16.8-7.6c2.4-1.2,4.7-2.5,7.2-3.7
				c7.6-3.7,21.4-10.4,33.8-14.5c16.1-5.2,25.4-4.6,28.5,2c1.5,3.3,9.9,8.3,17,11.3c0.9,0.4,1.9,0.7,2.8,1c3.2,1,6.8,2.1,8.6,7.2
				c1.3,3.6,2.9,9.1,3.3,12.6c1.1,8.9-5.6,16.2-12.6,18.5l-0.5,0.2c-3.9,1.1-8,1.3-11.9,1.5c-4.1,0.2-8,0.3-11.6,1.5
				c-0.5,0.2-0.9,0.3-1.4,0.5c-4.2,1.7-7.4,5.1-10.8,8.7c-3.6,3.8-7.4,7.7-12.5,9.8c-2.2,0.9-3.9,1.6-5.5,2.1
				c-5.4,1.8-9.8,2-14.4,0.9c-1.5-0.4-3-0.3-4.6,0.2c-2.3,0.8-4.6,2.5-6.3,4.8C215.4,214.4,211.1,217.8,205.4,219.6z"/>
			<path class="st1" d="M91,179.7c4.2-1.4,8.5-2.6,12.7-3.8c8.1-2.1,16.5-3.1,24.6-5.3c1.7-0.5,3.4-1,5.2-1.6c3-1,5.9-2,8.8-3
				c1.9-0.6,3.8-1.2,5.7-1.7c14-3.7,28.2-6.6,42.3-9.8c1.6-0.4,3.1-0.8,4.6-1.3c8.5-2.8,16-7.4,24.2-11.4
				c7.6-3.7,21.2-10.3,33.6-14.4c12.1-4,23-5.4,25.9,0.8c2.3,4.8,13.6,10.5,18.1,12.5c4.1,1.8,8.3,1.5,10.2,6.8
				c1.2,3.3,2.8,8.7,3.2,12c1,8.1-5.6,14.3-11.3,16.2c-0.1,0-0.3,0.1-0.4,0.1c-7.6,2.2-16.2,0.6-23.5,3c-0.5,0.2-1,0.4-1.5,0.6
				c-9.1,3.8-14,14.6-23.3,18.6c-1.8,0.8-3.6,1.5-5.3,2c-4.3,1.4-8.6,2-13.3,0.9c-1.9-0.5-3.9-0.3-5.7,0.2c-2.8,0.9-5.4,3-7.2,5.5
				c-4.2,5.6-8.1,9-13.7,10.8c-1.5,0.5-3.2,0.9-5,1.2c-6.3,1-11.5-4.3-18-4.6c-2.7-0.1-5.3,0.2-7.7,1c-4.7,1.5-8.7,4.8-11.8,9.6
				c-1.9,3-4.8,5.3-8.1,6.3c-2.7,0.9-5.6,0.9-8.4-0.1c-5.6-1.9-6.4-6.7-12.6-5.1c-0.8,0.2-1.6,0.4-2.4,0.7c-2.3,0.7-4.5,1.9-5.6,4.1
				c-1.5,2.8-1.1,5.6-3.2,8.2c-1.7,2-4.1,3.9-6.7,4.8c-2.1,0.7-4.4,0.7-6.5-0.6c-5.4-3.1-9.1-10.8-15.3-10.1c-0.7,0.1-1.3,0.2-2,0.4
				c-7.4,2.4-10.9,13-17.9,15.3c-2.2,0.7-4.8,0.6-7.9-0.7c-3.9-1.7-5.8-8-9.7-8.6c-0.9-0.1-1.9,0-2.9,0.3c-3.3,1.1-6.7,4.3-8.7,6.3
				c-2.2,2.3-5,4.4-7.6,5.3c-4,1.3-7.5-0.4-8.3-8.7c-0.4-4.6,1.5-6.6,3.5-10.1c1.7-3.1,2.3-6.1,3.2-9.7c1.1-4.4,2.3-10.7,5-14
				c2.6-3.2,6.9-5.2,10.1-7.5c9.4-6.9,19.1-13.5,29.9-17.6C83.5,182.2,87.3,180.9,91,179.7 M89.6,175.4c-3.8,1.2-7.6,2.6-11.3,4
				c-11.6,4.4-21.9,11.7-30.8,18.1c-0.9,0.6-1.9,1.3-3,2c-2.6,1.7-5.6,3.5-7.8,6.2c-2.9,3.6-4.3,9.2-5.3,13.8
				c-0.2,0.6-0.3,1.3-0.4,1.9l-0.3,1.3c-0.7,2.8-1.2,5.1-2.5,7.3c-0.3,0.6-0.7,1.2-1,1.7c-1.6,2.7-3.4,5.7-3,10.9
				c0.5,5.6,2.2,9.5,5.1,11.6c1.7,1.2,4.6,2.4,8.6,1.1s7.4-4.5,9.2-6.3c2.7-2.8,5.3-4.7,7.1-5.3c0.6-0.2,1-0.2,1.1-0.2
				c0.5,0.1,1.8,1.8,2.5,2.7c1.5,2,3.4,4.4,6.2,5.7c3.8,1.7,7.4,2,10.7,0.9c4.5-1.5,7.6-5.1,10.5-8.7c2.4-2.9,4.7-5.7,7.4-6.6
				c0.4-0.1,0.8-0.2,1.2-0.3c1.9-0.2,3.7,1.5,6.5,4.3c1.8,1.8,3.9,3.9,6.4,5.3c3,1.7,6.3,2,9.7,0.9c4.1-1.3,7-4.3,8.4-6
				c1.9-2.2,2.4-4.5,2.9-6.4c0.2-1,0.4-1.8,0.8-2.5c0.5-0.9,1.6-1.6,3.4-2.2c0.7-0.2,1.5-0.4,2.2-0.6c1.9-0.5,2.3-0.2,4.2,1.4
				c1.4,1.1,3.3,2.7,6.1,3.6c3.5,1.2,7.3,1.3,10.9,0.1c4.1-1.3,7.7-4.2,10.2-7.9c2.6-4,5.9-6.7,9.8-8c2-0.6,4.1-0.9,6.3-0.8
				c2.2,0.1,4.5,1.1,6.8,2.1c3.5,1.5,7.4,3.2,12,2.5c2.1-0.3,3.9-0.8,5.6-1.3c6.1-2,10.6-5.5,15.6-12.2c1.5-2,3.4-3.5,5.4-4.1
				c1.2-0.4,2.4-0.4,3.5-0.2c6.4,1.6,11.9,0.2,15.5-0.9c1.6-0.5,3.4-1.2,5.6-2.1c5.4-2.3,9.3-6.4,13.1-10.3
				c3.3-3.4,6.4-6.7,10.2-8.3c0.4-0.2,0.8-0.3,1.3-0.5c3.3-1.1,7.1-1.2,11.1-1.4c4.1-0.2,8.3-0.4,12.4-1.6c0.2-0.1,0.4-0.1,0.5-0.2
				c7.7-2.5,15.2-10.7,14-20.8c-0.5-4.1-2.3-10.1-3.4-13.1c-2.2-6.2-6.8-7.6-10.1-8.6c-0.9-0.3-1.8-0.6-2.6-0.9
				c-7.4-3.2-14.8-8-15.8-10.2c-4.9-10.4-20-6.8-31-3.2c-12.6,4.1-26.4,10.9-33.9,14.5l-0.2,0.1c-2.5,1.2-4.9,2.5-7.2,3.7
				c-5.6,2.9-10.8,5.7-16.5,7.5c-1.4,0.5-2.8,0.9-4.2,1.2c-4.5,1-9.1,2.1-13.6,3.1c-9.5,2.1-19.2,4.2-28.8,6.8
				c-1.8,0.5-3.6,1-5.9,1.8c-1.5,0.5-3,1-4.5,1.5s-2.9,1-4.4,1.5c-1.9,0.6-3.5,1.1-5,1.5c-4,1.1-8.3,1.9-12.4,2.7
				c-4,0.8-8.1,1.5-12.2,2.6C98.3,172.7,94,174,89.6,175.4L89.6,175.4z"/>
		</g>
		<g>
			<path class="st8" d="M306.9,147.6c-1.9-5.3-6.1-5.1-10.2-6.8c-4.5-1.9-15.8-7.6-18.1-12.5c-5.9-12.6-44.6,6.3-59.5,13.6
				c-9.6,4.7-18.3,10.3-28.7,12.7c-14.1,3.3-28.3,6.1-42.3,9.8c-6.7,1.8-13,4.4-19.7,6.2c-8.1,2.2-16.5,3.1-24.6,5.3
				c-8,2.1-16.1,4.7-23.9,7.7c-10.8,4.1-20.5,10.7-29.9,17.6c-3.2,2.3-7.5,4.3-10.1,7.5c-1.7,2.1-2.8,5.4-3.7,8.7
				c65.2,21.9,137.8-14.2,195.9-45.5c10.8-3.5,23.5-7.7,35.1-2.8c-12.7,4.1-18.5,16.9-26.2,23.8c-2,1.6-2.8,4.8-3.3,8.6
				c4.2-0.3,8.1-1.7,12.3-3.4c9.4-4,14.2-14.8,23.3-18.6c7.7-3.2,17-1.2,25.1-3.6c5.7-1.7,12.7-7.9,11.7-16.3
				C309.6,156.3,308.1,150.9,306.9,147.6z"/>
		</g>
		<g>
			<g>
				<g>
					<path class="st0" d="M159.6,197.5c-41,13.4-73.7,21.3-89.8,21.7c-24.6,0.7-42.2-10.6-49.6-31.8c-10.5-30,3.3-71.5,30.8-92.6
						c21.5-16.5,47.6-30.2,73.4-38.6c57.7-18.9,96.9-7.7,119.5,5c18.4,10.3,31.3,31.7,33,54.6c1.3,17.6-4.4,32.1-15.5,39.7
						C247,165.4,205.2,182.6,159.6,197.5L159.6,197.5z"/>
					<path class="st1" d="M124.9,57.9c39.6-12.9,82.8-15,118.3,4.9c34.3,19.2,43.3,73.7,17.3,91.4c-15.1,10.3-58.7,27.7-101.5,41.7
						c-36.2,11.8-71.9,21.2-89.4,21.7C3.1,219.3,5.4,131.9,51.9,96.3C72.1,80.8,97.6,66.8,124.9,57.9 M123.8,54.7
						C97.8,63.2,71.6,77,50,93.5c-13.9,10.6-24.7,26.4-30.5,44.4c-5.7,17.6-5.9,35.4-0.8,50.1c4.4,12.7,17,33.9,51.1,32.9
						c16.3-0.4,49.2-8.4,90.3-21.8c45.7-14.9,87.7-32.2,102.2-42.1c11.7-7.9,17.6-22.9,16.2-41.2c-1.7-23.5-15.1-45.5-33.9-56.1
						C221.6,46.9,182,35.6,123.8,54.7L123.8,54.7z"/>
				</g>
			</g>
			<g>
				<path class="st0" d="M243.2,62.8c-9.1-5.1-18.7-8.7-28.6-11.1c3.5,1.5,6.9,3.2,10.3,5c34.3,19.2,43.3,73.7,17.3,91.4
					c-27.9,19-152.7,62.4-190.9,63.4c-3.7,0.1-7.2-0.1-10.5-0.5c7.6,4.5,17.1,6.9,28.9,6.6c38.2-1,163-44.4,190.9-63.4
					C286.5,136.5,277.5,81.9,243.2,62.8z"/>
			</g>
			<g>
				<g>
					<path class="st5" d="M41.9,136.3c-0.6,0.2-1.2,0.1-1.8-0.3c-1.2-0.8-2.8-3.6-2.9-4.3c-0.3-1.4,0.1-3.3,1.3-5.5
						c0.3-0.5,0.6-1.1,0.9-1.7c1.5-3.2,3.5-7.2,6.6-8.2c0.4-0.1,0.7-0.2,1.1-0.2c1.4-0.1,2.8,1.3,3.4,2.2c0.8,1.4,0.4,2.5,0.2,2.9
						c-3,5.2-4.6,8.5-6.9,13l-0.9,1.8L41.9,136.3z"/>
					<path class="st1" d="M46.5,118.2c0.2-0.1,0.4-0.1,0.7-0.1c0.6-0.1,2,1.4,1.7,1.9c-3.3,5.7-4.9,9-7.5,14.2
						c0,0.1-0.1,0.1-0.1,0.1c-0.6,0.2-2.2-2.7-2.3-3c-0.3-1.2,0.6-3.1,1.1-4.1C41.6,124.4,43.6,119.2,46.5,118.2 M45.2,114.3
						c-3.8,1.2-5.9,5.6-7.6,9.1c-0.3,0.6-0.6,1.2-0.8,1.7c-1.4,2.7-1.9,5-1.5,7c0.3,1.3,2.1,4.6,3.9,5.7c1.1,0.7,2.3,0.9,3.4,0.5
						c1-0.3,1.8-1,2.2-2l0.5-1.1c2.3-4.7,3.8-7.8,6.8-12.9c0.9-1.5,0.8-3.4-0.2-5c-0.8-1.3-2.7-3.4-5.2-3.2
						C46.2,114,45.7,114.1,45.2,114.3L45.2,114.3z"/>
				</g>
			</g>
			<g>
				<g>
					<path class="st5" d="M203.9,53h-0.3c-5.9,0.4-9.2,0.8-14.2,1.5l-1.1,0.1c-0.9,0.1-1.8-0.4-2.2-1.2c-1-2,0.9-5.7,1.1-5.9
						c0.5-0.6,1.3-1.1,2.3-1.5c0.9-0.3,2-0.5,2.6-0.5c0.6-0.1,1.2-0.1,1.8-0.2c3.8-0.5,8.5-1.2,11.2,1.8c1.1,1.3,0.7,3.2,0.6,3.6
						c-0.3,1.5-1.2,2-1.7,2.2L203.9,53z"/>
					<path class="st1" d="M190.2,48c0.8-0.3,1.7-0.4,2.3-0.4c3.3-0.3,9-1.7,11.4,0.9c0.4,0.5,0.2,2.3-0.3,2.5c0,0,0,0-0.1,0
						c-6.3,0.4-9.8,0.9-15.4,1.6c-0.9,0.1,0.4-3.4,0.6-3.7C189,48.5,189.5,48.2,190.2,48 M188.9,44.1c-1.4,0.5-2.4,1.1-3.2,2
						c0,0-3,4.8-1.3,8.2c0.9,1.6,2.5,2.6,4.2,2.3l1.1-0.1c5-0.7,8.3-1.1,14.1-1.4h0.4l0.5-0.2c1.4-0.5,2.5-1.8,2.9-3.6
						c0.2-0.8,0.6-3.6-1.1-5.6c-3.3-3.8-8.8-3.1-12.9-2.5c-0.6,0.1-1.2,0.2-1.8,0.2C191.1,43.6,190,43.7,188.9,44.1L188.9,44.1z"/>
				</g>
			</g>
			<g>
				<g>
					<path class="st5" d="M59.1,101.8h-0.5c-5.9-0.7-9.2-0.9-14.4-1.2l-1.1-0.1c-0.9-0.1-1.7-0.7-2-1.6c-0.7-2.1,1.8-5.4,2-5.5
						c0.4-0.3,0.8-0.6,1.4-0.7c1.3-0.4,2.8-0.4,3.9-0.3c0.6,0,1.2,0.1,1.9,0.1c3.9,0.2,8.7,0.4,10.8,3.8c0.7,1.2,0.4,2.7,0.2,3.3
						c-0.4,1.1-1,1.9-1.8,2.1L59.1,101.8z"/>
					<path class="st1" d="M45.2,94.6c1-0.3,2.4-0.3,3.2-0.2c3.3,0.3,9.3,0,11.1,3c0.3,0.5-0.1,2.2-0.6,2.3h-0.1
						c-6.3-0.8-9.9-1-15.6-1.3c-0.9-0.1,1-3.3,1.2-3.5C44.6,94.8,44.9,94.7,45.2,94.6 M43.9,90.7c-0.7,0.2-1.4,0.6-1.9,1
						c0,0-3.8,4.1-2.6,7.8c0.6,1.8,2.1,3,3.8,3.1l1.1,0.1c5.1,0.3,8.4,0.5,14.2,1.2c0.6,0.1,1.1,0,1.7-0.2c1.4-0.4,2.4-1.6,3-3.4
						c0.3-1.1,0.7-3.2-0.4-5.1c-2.7-4.4-8.3-4.6-12.4-4.8c-0.7,0-1.3-0.1-1.8-0.1C46.7,90.1,45.1,90.3,43.9,90.7L43.9,90.7z"/>
				</g>
			</g>
			<g>
				<g>
					<path class="st5" d="M176.8,82.9c-0.7,0.2-1.5,0-2.1-0.5c-1.3-1.2-1.8-4.9-1.7-5.4c0.2-1.5,1.2-3,3.1-4.6
						c0.4-0.4,0.9-0.8,1.4-1.3c1.9-1.8,4.2-4,6.7-4.8c1.2-0.4,2.3-0.4,3.3-0.1c1.4,0.4,2.3,2.2,2.5,3.3c0.4,1.6-0.4,2.4-0.8,2.7
						c-4.6,3.7-7,6-10.8,9.5l-1.1,1L176.8,82.9z"/>
					<path class="st1" d="M184.8,68.3c0.8-0.3,1.5-0.3,2.3-0.1c0.6,0.2,1.4,2,1,2.4c-4.9,4-7.6,6.5-11.7,10.4c0,0-0.1,0-0.1,0.1
						c-0.6,0.2-1.3-3.3-1.2-3.6c0.1-1.2,1.6-2.6,2.4-3.4C179.3,72.3,182.1,69.1,184.8,68.3 M183.5,64.3c-2.8,0.9-5.3,3.3-7.3,5.2
						c-0.5,0.4-0.9,0.9-1.3,1.2c-2.2,2-3.5,3.9-3.7,5.9c-0.1,1,0.4,5.5,2.4,7.4c1.1,1,2.6,1.4,3.9,0.9c0.5-0.2,1-0.4,1.4-0.8
						l0.8-0.8c3.7-3.5,6.2-5.8,10.7-9.4c1.3-1.1,1.8-2.8,1.4-4.7c-0.3-1.5-1.5-4.2-4-4.9C186.5,63.8,185,63.8,183.5,64.3L183.5,64.3
						z"/>
				</g>
			</g>
			<g>
				<g>
					<path class="st5" d="M80.3,108.4c-0.7,0.2-1.5,0-2.1-0.6c-1.3-1.3-1.5-5.1-1.4-5.6c0.3-1.4,1.4-2.9,3.4-4.3
						c0.4-0.3,0.9-0.7,1.5-1.1c1.8-1.4,4.1-3.3,6.4-4c1.5-0.5,2.8-0.5,4,0c1.4,0.5,2.1,2.4,2.3,3.5c0.2,1.6-0.6,2.4-1,2.6
						c-4.8,3.3-7.6,5.5-11.5,8.5l-1.2,0.9L80.3,108.4z"/>
					<path class="st1" d="M88.6,94.8c1-0.3,1.9-0.4,2.8-0.1c0.6,0.2,1.3,2.1,0.8,2.4c-5.2,3.6-8,5.8-12.5,9.3h-0.1
						c-0.6,0.2-1.1-3.4-1-3.7c0.2-1.2,1.8-2.5,2.7-3.1C83.2,98.2,86,95.6,88.6,94.8 M87.3,90.8c-2.6,0.8-5,2.8-6.9,4.3
						c-0.5,0.4-1,0.8-1.4,1.1c-3.6,2.6-4,4.8-4.1,5.5c-0.2,0.8-0.1,5.5,2,7.6c1.1,1.1,2.7,1.5,4,1l0.6-0.2l0.6-0.4L83,109
						c4-3.1,6.6-5.2,11.4-8.4c1.4-0.9,2-2.7,1.8-4.6c-0.2-1.5-1.2-4.3-3.6-5.2C91,90.2,89.2,90.2,87.3,90.8L87.3,90.8z"/>
				</g>
			</g>
			<g>
				<g>
					<path class="st5" d="M212.6,72.9c-0.7,0.2-1.5,0-2.1-0.6c-1.3-1.3-1.5-5.1-1.4-5.6c0.3-1.4,1.4-2.9,3.4-4.3
						c0.4-0.3,0.9-0.7,1.5-1.1c1.8-1.5,4.1-3.3,6.4-4c1.5-0.5,2.8-0.5,4,0c1.4,0.5,2.1,2.4,2.3,3.5c0.2,1.6-0.6,2.4-1,2.6
						c-4.8,3.3-7.5,5.4-11.5,8.5l-1.1,0.9L212.6,72.9z"/>
					<path class="st1" d="M221,59.2c1-0.3,1.9-0.4,2.8-0.1c0.6,0.2,1.3,2.1,0.8,2.4c-5.2,3.6-8,5.8-12.5,9.3H212
						c-0.6,0.2-1.1-3.4-1-3.7c0.2-1.2,1.8-2.5,2.7-3.1C215.6,62.7,218.4,60.1,221,59.2 M219.7,55.3c-2.6,0.8-5,2.8-6.9,4.3
						c-0.5,0.4-1,0.8-1.4,1.1c-2.4,1.8-3.7,3.6-4.1,5.5c-0.2,0.8-0.1,5.5,2,7.6c1.1,1.1,2.7,1.5,4,1l0.6-0.2l0.6-0.4l0.9-0.7
						c4-3.1,6.6-5.2,11.4-8.5c1.4-0.9,2-2.6,1.8-4.6c-0.2-1.5-1.2-4.3-3.6-5.2C223.3,54.7,221.6,54.7,219.7,55.3L219.7,55.3z"/>
				</g>
			</g>
			<g>
				<g>
					<path class="st5" d="M158,59.7c-0.8,0.3-1.6,0-2.2-0.7c-1.3-1.5-0.9-5.5-0.7-5.9c0.5-1.3,1.8-2.6,4-3.7c0.5-0.3,1-0.6,1.6-0.9
						c1.6-0.9,3.4-1.9,5.2-2.5c2.3-0.8,4.2-0.7,5.7,0.2c1.3,0.7,1.8,2.7,1.8,3.8c0,1.6-0.9,2.2-1.3,2.4c-5.3,2.4-8.2,4.1-12.7,6.5
						l-1.1,0.6L158,59.7z"/>
					<path class="st1" d="M166.5,48.1c1.5-0.5,3-0.6,4.2,0c0.5,0.3,1,2.3,0.4,2.5c-5.7,2.7-8.8,4.4-13.8,7.1l0,0
						c-0.7,0.2-0.6-3.5-0.5-3.8c0.4-1.1,2.1-2.2,3.1-2.6C161.7,50.5,164.2,48.9,166.5,48.1 M165.2,44.2c-2,0.6-3.9,1.7-5.5,2.6
						c-0.6,0.3-1.1,0.6-1.6,0.9c-3.9,2-4.7,4.1-4.9,4.7c-0.2,0.5-1.1,5.6,1.1,8.1c1.1,1.3,2.7,1.8,4.2,1.3l0.3-0.1l0.3-0.2l1-0.5
						c4.4-2.4,7.3-4,12.6-6.5c1.5-0.7,2.4-2.3,2.4-4.2c0-1.5-0.6-4.4-2.8-5.7C170.4,43.4,168,43.3,165.2,44.2L165.2,44.2z"/>
				</g>
			</g>
			<g>
				<g>
					<path class="st5" d="M126.2,87.1H126c-5.8,0.7-9.2,1.3-14,2.2l-1.2,0.2c-0.9,0.2-1.8-0.3-2.3-1.1c-1.1-1.9,0.6-5.7,0.8-5.9
						c0.6-0.8,1.5-1.3,2.8-1.8c0.8-0.3,1.6-0.4,2.1-0.5c0.6-0.1,1.2-0.2,1.8-0.3c3.8-0.7,8.4-1.6,11.2,1.2c1.2,1.3,0.8,3.5,0.8,3.7
						c-0.3,1.5-1.2,2-1.6,2.2L126.2,87.1z"/>
					<path class="st1" d="M112.7,82.7c0.7-0.2,1.3-0.4,1.8-0.4c3.3-0.5,8.9-2.2,11.4,0.3c0.4,0.4,0.3,2.3-0.2,2.5c0,0,0,0-0.1,0
						c-6.3,0.7-9.8,1.4-15.3,2.4c-0.9,0.2,0.3-3.5,0.5-3.7C111.2,83.3,111.9,83,112.7,82.7 M111.4,78.8c-1.7,0.5-2.8,1.3-3.6,2.4
						c0,0-2.8,5-0.9,8.3c0.9,1.6,2.6,2.4,4.3,2.1l1.2-0.2c4.9-0.9,8.2-1.5,13.9-2.2h0.4L127,89c1.5-0.5,2.5-1.8,2.9-3.6
						c0.3-1.7,0.1-4.1-1.4-5.7c-3.5-3.6-9-2.6-12.9-1.8c-0.6,0.1-1.2,0.2-1.8,0.3C113.2,78.3,112.3,78.5,111.4,78.8L111.4,78.8z"/>
				</g>
			</g>
			<g>
				<g>
					<path class="st5" d="M97.2,78.3H97c-5.7,1-9,1.8-13.9,3L82,81.7c-0.9,0.2-1.8-0.2-2.3-1c-1.2-1.9,0.4-5.8,0.5-6
						c0.6-0.9,1.7-1.6,3.3-2.1c0.5-0.2,1.1-0.3,1.5-0.4c0.5-0.1,1.1-0.3,1.8-0.4c3.7-0.9,8.3-2.1,11.2,0.6c1.1,1,1.1,2.9,1,3.8
						c-0.3,1.5-1.1,2-1.6,2.2C97.3,78.3,97.2,78.3,97.2,78.3z"/>
					<path class="st1" d="M84.1,74.5c0.5-0.2,0.9-0.3,1.3-0.3c3.2-0.7,8.8-2.7,11.3-0.3c0.4,0.4,0.5,2.3-0.1,2.5l0,0
						c-6.2,1.1-9.7,2-15.1,3.3c-0.8,0.2,0.1-3.5,0.3-3.7C82.2,75.3,83.2,74.8,84.1,74.5 M82.8,70.6c-2,0.7-3.4,1.6-4.2,2.9
						c0,0-2.6,5.1-0.5,8.3c1,1.6,2.7,2.3,4.4,1.9l1.1-0.3c4.9-1.2,8.1-2,13.8-3h0.2l0.3-0.1c1.5-0.5,2.6-1.8,2.9-3.7
						c0.3-1.7,0-4.2-1.6-5.8c-3.7-3.5-9.1-2.1-13-1.1c-0.6,0.2-1.2,0.3-1.7,0.4C83.9,70.3,83.3,70.4,82.8,70.6L82.8,70.6z"/>
				</g>
			</g>
			<g>
				<g>
					<path class="st5" d="M157.2,81.2c-0.5,0.2-0.9,0.1-1.4,0c-5.6-2.1-8.9-3.1-13.9-4.5l-1.1-0.3c-0.9-0.3-1.5-1.1-1.6-2
						c-0.3-2.2,2.9-4.8,3.1-4.9c0.1-0.1,0.3-0.1,0.5-0.2c1.2-0.4,2.9-0.2,5,0.5c0.5,0.2,1.2,0.4,1.8,0.5c3.8,1.1,8.5,2.5,9.8,6.3
						c0.4,1,0.1,2-0.2,2.6C158.8,79.7,158.2,80.8,157.2,81.2L157.2,81.2z"/>
					<path class="st1" d="M143.3,71.2c1.1-0.3,2.8,0.1,3.8,0.4c3.2,1.1,9.1,2.2,10.4,5.5c0.2,0.5-0.5,1.9-1,2.1c-0.1,0-0.1,0-0.2,0
						c-6.1-2.3-9.6-3.3-15.1-4.9c-0.9-0.3,1.7-2.9,1.9-3C143.2,71.2,143.3,71.2,143.3,71.2 M142.1,67.2c-0.2,0.1-0.5,0.2-0.7,0.3
						c-0.1,0-4.6,3.1-4.2,6.9c0.2,1.8,1.4,3.3,3.1,3.8l1.1,0.3c4.9,1.5,8.2,2.4,13.7,4.5c0.9,0.3,1.8,0.3,2.6,0.1
						c1.7-0.6,2.7-2.2,3.1-3.1c0.6-1.5,0.7-2.9,0.2-4.2c-1.8-4.8-7.2-6.4-11.2-7.6c-0.6-0.2-1.2-0.4-1.7-0.5
						C145.7,66.9,143.6,66.7,142.1,67.2L142.1,67.2z"/>
				</g>
			</g>
			<g>
				<g>
					<path class="st5" d="M117.7,65.5c-0.8,0.3-1.7,0-2.3-0.7c-1.3-1.6-0.7-5.5-0.5-5.9c0.5-1.3,1.9-2.5,4.1-3.5
						c0.5-0.2,1.1-0.5,1.7-0.8c1.4-0.7,3-1.5,4.7-2.1c2.6-0.9,4.7-0.8,6.3,0.3c1.3,0.8,1.7,2.7,1.6,3.8c-0.1,1.6-1,2.2-1.4,2.4
						c-5.4,2.2-8.4,3.7-12.9,6l-1.1,0.6L117.7,65.5z"/>
					<path class="st1" d="M126,54.4c1.8-0.6,3.5-0.8,4.8,0.1c0.5,0.3,0.9,2.3,0.4,2.5c-5.8,2.4-9,4-14,6.5l0,0
						c-0.7,0.2-0.5-3.5-0.4-3.8c0.4-1.1,2.2-2.1,3.2-2.5C121.5,56.5,123.8,55.2,126,54.4 M124.7,50.5c-1.8,0.6-3.4,1.4-4.9,2.2
						c-0.6,0.3-1.1,0.6-1.6,0.8c-2.7,1.2-4.3,2.7-5.1,4.5c-0.2,0.5-1.3,5.6,0.9,8.1c1.1,1.3,2.8,1.8,4.3,1.3l0.2-0.1l0.3-0.1l1-0.5
						c4.5-2.2,7.5-3.7,12.8-5.9c1.5-0.6,2.5-2.2,2.6-4.1c0.1-1.5-0.4-4.4-2.6-5.8C130.4,49.6,127.9,49.5,124.7,50.5L124.7,50.5z"/>
				</g>
			</g>
		</g>
		<g class="st9">
			<g>
				<path class="st10" d="M32.4,143.1c-12.9,12.5-11.2,32-0.8,46.8c3.1,4.5,9-0.9,5.9-5.3c-7.7-11-9.4-25.6,0.2-34.9
					C41.4,146,36.1,139.5,32.4,143.1L32.4,143.1z"/>
			</g>
			<g>
				<path class="st10" d="M44,200.7c0.1,0.1,0.2,0.2,0.3,0.3c1.4,1.8,4,2.1,5.6,0.6s1.7-4.2,0.3-5.9c-0.1-0.1-0.2-0.2-0.3-0.3
					c-1.4-1.8-4-2-5.6-0.6S42.5,198.9,44,200.7L44,200.7z"/>
			</g>
		</g>
	</g>
	<g>
		<g>
			<g>
				<path class="st1" d="M134.5,147.4c2.1,6.5-1,13.3-6.9,15.2c-6,1.9-12.5-1.7-14.6-8.2s1-13.3,7-15.2
					C125.8,137.3,132.4,140.9,134.5,147.4z"/>
				<path class="st10" d="M120.7,146.4c0.7,2.1-0.3,4.2-2.2,4.9c-1.9,0.6-4-0.6-4.7-2.6c-0.7-2.1,0.3-4.2,2.2-4.9
					C118,143.1,120.1,144.3,120.7,146.4z"/>
				
					<ellipse transform="matrix(0.9505 -0.3106 0.3106 0.9505 -41.406 45.161)" class="st10" cx="121.1" cy="152.6" rx="1.4" ry="1.5"/>
				<path class="st10" d="M123.5,147.6c0.2,0.5-0.1,1-0.5,1.1s-0.9-0.1-1.1-0.6s0.1-1,0.5-1.2C122.9,146.9,123.4,147.1,123.5,147.6z
					"/>
				<path class="st11" d="M131.3,161.4c0.5,1.4-3.4,4-8.6,5.7s-9.8,1.9-10.3,0.5s3.4-4,8.6-5.7S130.8,160,131.3,161.4z"/>
			</g>
			<g>
				
					<ellipse transform="matrix(0.9505 -0.3106 0.3106 0.9505 -32.1558 62.6661)" class="st1" cx="180.7" cy="132.3" rx="11.3" ry="12.3"/>
				<path class="st10" d="M177.7,127.8c0.7,2.1-0.3,4.2-2.2,4.9c-1.9,0.6-4-0.6-4.7-2.6c-0.7-2.1,0.3-4.2,2.2-4.9
					C175,124.5,177.1,125.7,177.7,127.8z"/>
				
					<ellipse transform="matrix(0.9505 -0.3106 0.3106 0.9505 -32.8081 61.9475)" class="st10" cx="178.1" cy="134" rx="1.4" ry="1.5"/>
				<path class="st10" d="M180.5,129c0.2,0.5-0.1,1-0.5,1.1s-0.9-0.1-1.1-0.6c-0.2-0.5,0.1-1,0.5-1.2
					C179.8,128.2,180.3,128.5,180.5,129z"/>
				<path class="st11" d="M199.2,139.2c0.5,1.4-3.4,4-8.6,5.7c-5.2,1.7-9.8,1.9-10.3,0.5s3.4-4,8.6-5.7S198.8,137.8,199.2,139.2z"/>
			</g>
		</g>
		<g>
			<g>
				<path class="st6" d="M156.7,156c-4.7,1.5-9.8-1.4-11.5-6.4c0-0.1-0.1-0.3-0.1-0.4c0-0.8,0.9-2.9,7.6-5.1
					c5.3-1.7,8.5-0.8,8.7-0.7c0.3,0.1,0.6,0.4,0.7,0.7C163.8,149.1,161.3,154.5,156.7,156z"/>
				<path class="st1" d="M153.1,145.1c5.1-1.7,8.1-0.7,8.1-0.7c1.5,4.5-0.7,9.3-4.8,10.6c-4.1,1.4-8.7-1.2-10.2-5.7
					C146.1,149.2,146.3,147.3,153.1,145.1 M152.4,143c-6.7,2.2-8.2,4.5-8.3,6.1c0,0.3,0,0.6,0.1,0.9c1.8,5.7,7.6,8.9,12.8,7.2
					s7.9-7.7,6.1-13.3c-0.2-0.7-0.8-1.3-1.4-1.5C161.3,142.1,157.9,141.1,152.4,143L152.4,143z"/>
			</g>
		</g>
		<g>
			<g>
				<path class="st10" d="M155.2,150.3c-8.2,2.7-8.3,2.6-8.8,1.8s-0.9-1.6-1.2-2.5c0-0.1-0.1-0.3-0.1-0.4c0-0.8,0.9-2.9,7.6-5.1
					c5.3-1.7,8.5-0.8,8.7-0.7c0.3,0.1,0.6,0.4,0.7,0.7c0.3,0.9,0.5,1.8,0.5,2.8C162.7,147.8,162.7,147.8,155.2,150.3z"/>
				<path class="st1" d="M153.1,145.1c5.1-1.7,8.1-0.7,8.1-0.7c0.3,0.8,0.4,1.6,0.5,2.4c0,0.2-3.3,1.3-6.7,2.4
					c-3.7,1.2-7.6,2.4-7.7,2.2c-0.4-0.7-0.8-1.4-1.1-2.2C146.1,149.2,146.3,147.3,153.1,145.1 M152.4,143c-6.7,2.2-8.2,4.5-8.3,6.1
					c0,0.3,0,0.6,0.1,0.9c0.3,1,0.8,1.9,1.3,2.8c1,1.6,1.6,1.4,10-1.3c7.7-2.5,8.2-2.7,8.1-4.5c0-1-0.2-2.1-0.6-3.1
					c-0.2-0.7-0.8-1.3-1.4-1.5C161.3,142.1,157.9,141.1,152.4,143L152.4,143z"/>
			</g>
		</g>
		<g>
			<path class="st12" d="M170.8,113.3c0,0,7.5-6.3,16.3-0.7"/>
			<path class="st12" d="M120,129.9c0,0-9.8-0.7-13.6,9.1"/>
		</g>
	</g>
</g>
<g>
	<g>
		<g>
			<g>
				<path class="st5" d="M230.4,639.3c-6.1-2.2-11.4-4.6-16-7.5l-5.3-2.7c-6.1-3.8-9.4-8.3-10-13.5c-0.9-8.9,6.2-17.4,12.4-23
					c2-2.1,4.2-4.3,6.7-6.7c5.7-5.5,11.6-10.8,17.4-16c10.3-9.3,21-18.9,30.1-29.5c2.1-2.2,4.2-4.4,6.2-6.6
					c14.2-14.8,32.8-33.7,51.4-49.2l5.8-6.1c13.6-14.3,27.1-28.1,43.7-40.2c2.2-2,3.3-3.2,3.3-3.2c6.7-6.4,12.4-5.7,15.2-4.7
					c2.8,1,7.7,4,8.9,13.2l0.6,4.5c0.3,2.4,0.7,5.6,1.3,9.7c6.1,29.4,9.8,57.4,11.3,85.5l3.5,26.2l1,7.2
					c10,31.4,13.7,59.5,12.4,93.9l1.3,10c0.9,6.6-1,12.1-5.3,15.4c-4.3,3.4-10.2,4-16.5,1.7l-3.8-1.3c-15.8-5.1-31.7-10.5-47.2-15.9
					s-31.2-11.2-46.8-17.1l-31.7-11.1c-7.8-2.4-15.9-4.3-23.6-6C247.3,644.2,238.7,642.2,230.4,639.3z"/>
				<path class="st1" d="M390.7,432.3c2.4,0.8,6.6,3.5,7.7,11.6c0,0,0.2,1.3,0.5,3.7c0.3,2.4,0.8,6,1.4,10.4
					c5.9,28.2,9.8,56.6,11.2,85.3c0.3,2.2,0.6,4.4,0.9,6.5c0.9,6.6,1.7,13.2,2.6,19.8c0.3,2.5,0.7,4.9,1,7.4
					c9.8,30.7,13.7,59.1,12.3,93.5c0.3,2.2,0.5,4,0.7,5.5c0.4,3,0.6,4.7,0.6,4.7c0.8,5.9-0.9,10.8-4.6,13.7s-9,3.5-14.7,1.4
					c0,0-1.3-0.5-3.8-1.3c-15.9-5.1-31.6-10.4-47.2-15.9s-31.1-11.2-46.8-17.1c-2.1-0.7-4.1-1.4-6.2-2.2c-6.2-2.2-12.3-4.3-18.3-6.4
					c-2.4-0.9-4.9-1.7-7.3-2.6c-17.1-5.3-34.4-7.6-49.8-13c-5.5-1.9-10.7-4.3-15.6-7.3c-3.5-1.8-5.4-2.8-5.4-2.8
					c-16.1-9.9-7.7-23.9,2.9-33.5c2.2-2.3,4.4-4.5,6.7-6.8c15.9-15.5,33.4-29,47.6-45.6c2-2.2,4.1-4.3,6.2-6.5
					c16.6-17.3,34-34.7,51.2-49c2-2.1,4-4.2,5.9-6.2c13.7-14.5,27.3-28.2,43.5-40.1c2.2-2.1,3.4-3.2,3.4-3.2
					C383.4,430.9,388.3,431.4,390.7,432.3 M391.9,428.7c-3.2-1.1-9.8-2-17.2,5.1c0,0-1.1,1.1-3.2,3.1
					c-16.7,12.2-30.3,26.1-43.9,40.4l-2,2.1c-1.2,1.3-2.5,2.6-3.8,4c-18.6,15.5-37.2,34.4-51.3,49.2c-2.1,2.2-4.1,4.3-6.2,6.5
					l-0.1,0.1l-0.1,0.1c-9,10.5-19.2,19.6-29.9,29.3c-5.8,5.2-11.7,10.5-17.4,16c-2.4,2.4-4.6,4.6-6.7,6.8
					c-6.5,5.9-13.9,14.9-12.9,24.5c0.6,5.9,4.2,10.9,10.7,14.9l0.1,0.1l0.1,0.1l5.3,2.7c4.7,2.9,10,5.4,16.3,7.6
					c8.4,2.9,17.1,4.9,26.3,7c7.7,1.7,15.7,3.6,23.5,6l7.2,2.5l18.3,6.4l6.2,2.2c15.5,5.9,31.3,11.7,46.8,17.1
					c15.5,5.4,31.4,10.8,47.3,15.9l3.7,1.3c7,2.5,13.6,1.8,18.4-2s6.9-9.9,6-17.1l-0.6-4.7c-0.2-1.4-0.4-3.2-0.7-5.2
					c1.3-34-2.6-63.1-12.4-94.2c-0.3-2.3-0.6-4.7-0.9-7.1l-0.7-5.2l-1.9-14.6l-0.4-3.3l-0.4-3.1c-1.4-28.1-5.1-56.2-11.3-85.6
					c-0.5-4-1-7.2-1.3-9.5l-0.1-0.8l-0.5-3.7C400.8,433.3,395.2,429.8,391.9,428.7L391.9,428.7z"/>
			</g>
		</g>
		<g>
			<g>
				<path class="st5" d="M429.6,680.9c0,0-0.2-1.6-0.6-4.7c-0.2-1.5-0.4-3.4-0.7-5.5c1.3-34.5-2.6-62.8-12.3-93.5
					c-0.3-2.5-0.7-4.9-1-7.4c-0.9-6.6-1.7-13.2-2.6-19.8c-0.3-2.2-0.6-4.4-0.9-6.5c-1.5-28.7-5.3-57.1-11.2-85.3
					c-0.6-4.5-1.1-8-1.4-10.4s-0.5-3.7-0.5-3.7c-0.7-5.7-3-8.7-5.1-10.2c-28.6,73.1-7.1,185.3-73.2,230.8
					c28.7,10.8,57.2,20.7,86.5,30.2c2.5,0.9,3.8,1.3,3.8,1.3c5.7,2,11,1.5,14.7-1.4C428.7,691.6,430.4,686.8,429.6,680.9z"/>
			</g>
		</g>
		<g>
			<g>
				<path class="st13" d="M408.2,682.6c-4.4-1.5-9.6-4.5-14.2-7.2c-3.3-1.9-6.5-3.7-8.3-4.3c-0.4-0.1-0.6-0.2-0.7-0.2h-0.2
					l-108.1-38c-5.2-2.4-10.8-4.7-16.5-6.7c-5.5-1.9-10.8-3.5-15.4-4.6l-5.2-1.8l-0.2-0.1c-1.3-0.8-4.6-2.2-8.1-3.6
					c-12.1-4.9-17.1-7.3-16.2-10.5c1.4-9.2,11-14.8,19.5-19.7c4.4-2.6,8.6-5,11.3-7.7c1.9-1.9,4.1-3.9,6.4-5.8
					c2.3-3.6,4-6.8,5.6-9.9c4.4-8.3,8.2-15.5,20.7-27.6c0.8-0.8,4.1-3.4,10.4-8.2c11.1-8.5,27.8-21.4,35.4-28.5
					c2.4-2.3,4.8-4.4,7.2-6.3c2.1-1.7,4.3-3.6,6.3-5.4c4.8-4.7,7.4-12.5,9.9-20.1c3.1-9.4,6.3-19.2,14.1-24.3l0.1-0.1l0.1-0.1
					c5-2.3,10.9-2.5,16.6-0.5c9.1,3.2,15.8,11.1,17,20c0.7,5.3,2.5,10.8,4.3,16.1c3,9.1,6.1,18.5,4.2,27.9
					c-2.8,13.7-4.7,28.6,0.1,44.3c4.1,13.6,4.8,27.7,5.5,41.4c0.1,2.5,0.3,4.9,0.4,7.4c0.5,8.2,1.3,17.9,3.5,27.4
					c0.4,3.5,0.6,6.5,0.7,9.5c0.1,4,1.3,9.3,2.6,15c2.5,10.9,5.4,23.4,0.7,31.3l-0.1,0.2l-0.2,0.2
					C414.7,684.9,409.8,683.2,408.2,682.6z"/>
				<path class="st1" d="M378.2,443.4c7.9,2.8,14.5,9.7,15.7,18.4c2,14.6,11.4,29,8.5,43.5c-3.2,15.9-4.4,30.1,0.1,45.2
					c4.8,15.7,4.9,32.1,5.9,48.3c0.6,9.3,1.4,18.6,3.5,27.7c0.4,3.1,0.6,6.1,0.6,9.1c0.2,12.1,10.2,34.1,3.5,45.2
					c-1.5,1.4-4.1,1.1-7.4,0c-7.5-2.6-18-9.9-22.5-11.5c-0.4-0.2-0.8-0.3-1.1-0.3c-4.1-1.5-10-3.5-17.1-6c-22.8-8-57.8-20.3-85.3-30
					c-1.8-0.6-3.7-1.3-5.4-1.9c-5.2-2.4-10.9-4.7-16.5-6.7c-5.5-1.9-10.9-3.5-15.6-4.6c-3-1.1-4.8-1.7-4.8-1.7
					c-4.2-2.6-24.5-9.1-23.5-12.1c1.8-12.9,22.1-18.3,30.3-26.5c2.1-2,4.3-4,6.5-5.8c8.5-13.5,9.1-20.9,26.2-37.5
					c2.3-2.2,34.3-25.9,45.8-36.7c2.3-2.1,4.7-4.2,7.1-6.2c2.1-1.7,4.2-3.5,6.4-5.5c11.3-11,10.4-35.4,23.8-44.2
					C367.9,441.6,373.3,441.6,378.2,443.4 M379.5,439.8c-6.2-2.2-12.6-2-18.1,0.6l-0.2,0.1l-0.2,0.1c-8.4,5.4-11.7,15.5-14.9,25.2
					c-2.5,7.7-4.9,14.9-9.4,19.3c-2,1.8-4.1,3.6-6.2,5.3c-2.4,2-4.9,4.1-7.3,6.4c-7.5,7-24.2,19.9-35.2,28.4
					c-6.7,5.2-9.7,7.5-10.6,8.4c-12.7,12.3-16.8,20-21.1,28.1c-1.6,3-3.2,6.1-5.4,9.6c-2.3,1.9-4.4,3.8-6.3,5.7
					c-2.5,2.5-6.6,4.9-11,7.4c-8.8,5.1-18.9,10.9-20.4,20.9c-1.4,5.1,5.8,8,17.4,12.7c3.1,1.3,6.7,2.7,7.8,3.4l0.4,0.2l0.4,0.1
					l4.7,1.6l0.2,0.1h0.2c4.5,1,9.8,2.6,15.2,4.5c5.6,2,11.2,4.2,16.1,6.5l0.2,0.1l0.2,0.1l5.4,1.9l85.3,30l17.1,6l0.4,0.1l0.4,0.1
					c0.1,0,0.2,0.1,0.3,0.1c1.6,0.6,4.7,2.3,7.9,4.2c4.7,2.7,10,5.7,14.6,7.3c1.9,0.7,7.7,2.7,11.3-0.8l0.4-0.3l0.3-0.4
					c5.1-8.5,2.2-21.3-0.4-32.6c-1.3-5.5-2.5-10.7-2.5-14.6c0-3.1-0.3-6.2-0.6-9.5v-0.2l-0.1-0.2c-2.2-9.3-3-18.9-3.5-27.1
					c-0.1-2.5-0.3-4.9-0.4-7.4c-0.7-13.8-1.4-28-5.6-41.8c-4.6-15.3-2.8-29.9,0-43.4c2-10-1.2-19.6-4.3-28.9
					c-1.8-5.5-3.5-10.6-4.2-15.8C396.5,451.7,389.3,443.2,379.5,439.8L379.5,439.8z"/>
			</g>
		</g>
		<g>
			<g>
				<path class="st13" d="M412.6,635.6c0-3-0.3-6.1-0.6-9.1c-2.1-9.1-3-18.4-3.5-27.7c-1-16.2-1.1-32.6-5.9-48.3
					c-4.6-15-3.3-29.2-0.1-45.2c2.5-12.6-4.3-25.2-7.5-38c-14.9,48.5-0.7,105.3-26.1,154.4c-7.7,12.8-17,23-27.4,32
					c9.7,3.4,18.7,6.6,26.4,9.3c7.1,2.5,13,4.6,17.1,6c5,0.6,25.8,16.8,31,11.8C422.8,669.7,412.8,647.7,412.6,635.6z"/>
			</g>
		</g>
		<g>
			<g>
				<g>
					<path class="st6" d="M392.3,510.3c-5.7-2-10.6-7.3-12.9-14.1c-3.6-10.5,0.1-21.2,8.3-23.8c2.7-0.9,5.7-0.8,8.6,0.2
						c5.7,2,10.6,7.3,12.9,14c3.6,10.5-0.1,21.2-8.3,23.8C398.2,511.4,395.3,511.3,392.3,510.3z"/>
					<path class="st1" d="M395.7,474.5c4.9,1.7,9.5,6.5,11.7,12.9c3.3,9.5,0.1,19.1-7.1,21.4c-2.4,0.8-4.9,0.6-7.4-0.2
						c-4.9-1.7-9.5-6.5-11.7-12.9c-3.3-9.5-0.1-19.1,7.1-21.4C390.7,473.5,393.3,473.6,395.7,474.5 M396.9,470.9L396.9,470.9
						c-3.3-1.2-6.7-1.3-9.9-0.3c-9.2,3-13.5,14.7-9.5,26.2c2.5,7.3,7.8,13,14.1,15.2c3.3,1.2,6.7,1.3,9.9,0.3
						c9.2-3,13.5-14.7,9.5-26.2C408.5,478.8,403.2,473.1,396.9,470.9L396.9,470.9z"/>
				</g>
			</g>
			<g>
				<path class="st6" d="M407.4,487.3c-2.7-7.9-9.1-13.2-15.3-13.5c2.2,2.2,4,5.1,5.2,8.5c3.3,9.5,0.1,19.1-7.1,21.4
					c-1.2,0.4-2.5,0.5-3.8,0.4c4,4.1,9.2,6.1,13.9,4.6C407.5,506.4,410.7,496.8,407.4,487.3z"/>
			</g>
		</g>
		<g>
			<g>
				<g>
					<path class="st6" d="M246,604.5c-1.5-0.5-2.9-1.3-4.1-2.4c-3.3-2.8-4.9-7-4.6-11.9c0.3-4.7,2.4-9.4,5.9-13.3
						c5.9-6.6,14.4-9.5,21.1-7.1c1.5,0.5,2.9,1.3,4.1,2.4c3.3,2.8,4.9,7,4.6,11.9c-0.3,4.7-2.4,9.4-5.9,13.3
						C261.2,604,252.7,606.9,246,604.5z"/>
					<path class="st1" d="M263.7,571.5c1.3,0.4,2.5,1.1,3.5,2c5.8,5,5.1,15.1-1.6,22.6c-5.5,6.1-13.2,8.6-19,6.6
						c-1.3-0.4-2.5-1.1-3.5-2c-5.8-5-5.1-15.1,1.6-22.6C250.1,572,257.9,569.5,263.7,571.5 M265,568L265,568
						c-7.5-2.6-16.8,0.4-23.2,7.6c-3.8,4.2-6,9.4-6.4,14.4c-0.4,5.5,1.5,10.3,5.2,13.5c1.4,1.2,3,2.1,4.8,2.7
						c7.5,2.6,16.8-0.4,23.2-7.6c3.8-4.2,6-9.4,6.4-14.4c0.4-5.5-1.5-10.3-5.2-13.5C268.3,569.5,266.7,568.6,265,568L265,568z"/>
				</g>
			</g>
			<g>
				<path class="st6" d="M268.6,575.1c0.2,4.5-1.6,9.6-5.4,13.9c-6.7,7.5-16.7,9.5-22.5,4.6c-0.5-0.5-0.9-1-1.4-1.5
					c0.1,3.4,1.4,6.5,3.8,8.7c5.8,5,15.9,2.9,22.5-4.6C271.7,589.3,272.8,580.4,268.6,575.1z"/>
			</g>
		</g>
		<g>
			<g>
				<g>
					<path class="st7" d="M340,501c-0.7-0.2-1.3-0.6-1.9-1.1c-2.9-2.5-2.8-7.2,0.4-10.8c2.4-2.7,6-3.9,8.9-2.9
						c0.7,0.2,1.3,0.6,1.9,1.1c2.9,2.5,2.8,7.3-0.3,10.8C346.5,500.9,342.9,502,340,501z"/>
					<path class="st1" d="M346.8,488c0.5,0.2,0.9,0.4,1.3,0.7c2.1,1.8,1.8,5.4-0.6,8.1c-2,2.2-4.7,3.1-6.8,2.4
						c-0.5-0.2-0.9-0.4-1.3-0.7c-2.1-1.8-1.8-5.4,0.6-8.1C341.9,488.2,344.7,487.3,346.8,488 M348,484.5L348,484.5
						c-3.6-1.3-8.1,0.1-11,3.4c-3.8,4.3-3.9,10.2-0.1,13.5c0.7,0.6,1.6,1.1,2.5,1.5c3.6,1.3,8.1-0.1,11-3.4
						c3.8-4.3,3.9-10.2,0.1-13.5C349.8,485.3,349,484.8,348,484.5L348,484.5z"/>
				</g>
			</g>
			<g>
				<path class="st7" d="M348.3,489c-2.7,3.5-6.2,6.1-10,7.8c0.2,0.7,0.6,1.2,1.1,1.7c2.1,1.8,5.7,1,8.1-1.6
					C349.8,494.3,350.1,490.8,348.3,489z"/>
			</g>
		</g>
		<g>
			<g>
				<g>
					<path class="st7" d="M387.9,594.6c-0.7-0.2-1.3-0.6-1.9-1.1c-2.9-2.5-2.8-7.2,0.4-10.8c2.4-2.7,6-3.9,8.9-2.9
						c0.7,0.2,1.3,0.6,1.9,1.1c2.9,2.5,2.8,7.3-0.4,10.8C394.4,594.4,390.8,595.6,387.9,594.6z"/>
					<path class="st1" d="M394.7,581.6c0.5,0.2,0.9,0.4,1.3,0.7c2.1,1.8,1.8,5.4-0.6,8.1c-2,2.2-4.7,3.1-6.8,2.4
						c-0.5-0.2-0.9-0.4-1.3-0.7c-2.1-1.8-1.8-5.4,0.6-8.1C389.8,581.7,392.6,580.8,394.7,581.6 M395.9,578L395.9,578
						c-3.6-1.3-8.1,0.1-11,3.4c-3.8,4.3-3.9,10.2-0.1,13.5c0.7,0.6,1.6,1.1,2.5,1.5c3.6,1.3,8.1-0.1,11-3.4
						c3.8-4.3,3.9-10.2,0.1-13.5C397.7,578.8,396.8,578.3,395.9,578L395.9,578z"/>
				</g>
			</g>
			<g>
				<path class="st7" d="M395.9,582.3c-0.3-0.2-0.6-0.4-0.9-0.6c-2.5,3.3-5.6,5.9-9.1,7.4c0.1,1.2,0.5,2.2,1.4,2.9
					c2.1,1.8,5.7,1,8.1-1.6C397.7,587.7,398,584.1,395.9,582.3z"/>
			</g>
		</g>
		<g>
			<g>
				<g>
					<path class="st7" d="M371.5,468c-0.7-0.2-1.3-0.6-1.9-1.1c-1.5-1.3-2.2-3.2-2.1-5.3c0.1-1.9,1-3.9,2.4-5.5
						c2.4-2.7,6-3.9,8.9-2.9c0.7,0.2,1.3,0.6,1.9,1.1c2.9,2.5,2.8,7.3-0.3,10.8C378,467.8,374.4,469,371.5,468z"/>
					<path class="st1" d="M378.3,455c0.5,0.2,0.9,0.4,1.3,0.7c2.1,1.8,1.8,5.4-0.6,8.1c-2,2.2-4.7,3.1-6.8,2.4
						c-0.5-0.2-0.9-0.4-1.3-0.7c-2.1-1.8-1.8-5.4,0.6-8.1C373.4,455.2,376.2,454.3,378.3,455 M379.5,451.4L379.5,451.4
						c-3.6-1.3-8.1,0.1-11,3.4c-1.7,1.9-2.7,4.3-2.9,6.6c-0.2,2.7,0.8,5.2,2.7,6.9c0.7,0.6,1.6,1.1,2.5,1.5c3.6,1.3,8.1-0.1,11-3.4
						c3.8-4.3,3.9-10.2,0.1-13.5C381.3,452.2,380.5,451.8,379.5,451.4L379.5,451.4z"/>
				</g>
			</g>
			<g>
				<path class="st7" d="M379.5,455.7c-0.9-0.7-2-1-3.2-0.9c-1.5,3.4-3.9,5.3-6.7,6.3c-0.3,1.7,0.1,3.3,1.3,4.3
					c2.1,1.8,5.7,1,8.1-1.6C381.4,461.1,381.6,457.5,379.5,455.7z"/>
			</g>
		</g>
		<g>
			<g>
				<g>
					<path class="st7" d="M268.6,561.5c-0.7-0.2-1.3-0.6-1.9-1.1c-1.5-1.2-2.2-3.2-2.1-5.3c0.1-1.9,1-3.9,2.4-5.5
						c2.4-2.7,6-3.9,8.9-2.9c0.7,0.2,1.3,0.6,1.9,1.1c2.9,2.5,2.8,7.3-0.4,10.8C275.1,561.4,271.5,562.5,268.6,561.5z"/>
					<path class="st1" d="M275.4,548.5c0.5,0.2,0.9,0.4,1.3,0.7c2.1,1.8,1.8,5.4-0.6,8.1c-2,2.2-4.7,3.1-6.8,2.4
						c-0.5-0.2-0.9-0.4-1.3-0.7c-2.1-1.8-1.8-5.4,0.6-8.1C270.5,548.7,273.3,547.8,275.4,548.5 M276.6,545L276.6,545
						c-3.6-1.3-8.1,0.1-11,3.4c-1.7,1.9-2.7,4.2-2.9,6.6c-0.2,2.7,0.8,5.2,2.7,6.9c0.7,0.6,1.6,1.1,2.5,1.5c3.6,1.3,8.1-0.1,11-3.4
						c3.8-4.3,3.9-10.2,0.1-13.5C278.4,545.8,277.6,545.3,276.6,545L276.6,545z"/>
				</g>
			</g>
			<g>
				<path class="st7" d="M276.8,549.5c-2.2,3.6-5.9,5.9-9.9,8c0.2,0.6,0.6,1.1,1.1,1.5c2.1,1.8,5.7,1,8.1-1.6
					C278.4,554.8,278.7,551.3,276.8,549.5z"/>
			</g>
		</g>
		<g>
			<g>
				<g>
					<path class="st7" d="M358.4,646.7c-0.7-0.2-1.3-0.6-1.9-1.1c-2.9-2.5-2.8-7.3,0.4-10.8c2.4-2.8,6-3.9,8.9-2.9
						c0.7,0.2,1.3,0.6,1.9,1.1c2.9,2.5,2.8,7.3-0.3,10.8C364.9,646.6,361.4,647.8,358.4,646.7z"/>
					<path class="st1" d="M365.2,633.8c0.5,0.2,0.9,0.4,1.3,0.7c2.1,1.8,1.8,5.4-0.6,8.1c-2,2.2-4.7,3.1-6.8,2.4
						c-0.5-0.2-0.9-0.4-1.3-0.7c-2.1-1.8-1.8-5.4,0.6-8.1C360.3,633.9,363.1,633,365.2,633.8 M366.5,630.2L366.5,630.2
						c-3.6-1.3-8.1,0.1-11,3.4c-3.8,4.3-3.9,10.2-0.1,13.5c0.7,0.6,1.6,1.1,2.5,1.5c3.6,1.3,8.1-0.1,11-3.4
						c3.8-4.3,3.9-10.2,0.1-13.5C368.2,631,367.4,630.5,366.5,630.2L366.5,630.2z"/>
				</g>
			</g>
			<g>
				<path class="st7" d="M366.5,634.5c-0.4-0.3-0.8-0.5-1.2-0.7c-1.8,3.7-5,5.8-8.8,6.2c-0.2,1.6,0.2,3.2,1.3,4.2
					c2.1,1.8,5.7,1,8.1-1.6C368.3,639.9,368.6,636.3,366.5,634.5z"/>
			</g>
		</g>
		<g>
			<g>
				<g>
					<path class="st7" d="M278.8,614.6c-0.7-0.2-1.3-0.6-1.9-1.1c-2.9-2.5-2.8-7.2,0.4-10.8c2.4-2.7,6-3.9,8.9-2.9
						c0.7,0.2,1.3,0.6,1.9,1.1c2.9,2.5,2.8,7.2-0.3,10.8C285.3,614.5,281.7,615.7,278.8,614.6z"/>
					<path class="st1" d="M285.6,601.7c0.5,0.2,0.9,0.4,1.3,0.7c2.1,1.8,1.8,5.4-0.6,8.1c-2,2.2-4.7,3.1-6.8,2.4
						c-0.5-0.2-0.9-0.4-1.3-0.7c-2.1-1.8-1.8-5.4,0.6-8.1C280.7,601.8,283.5,600.9,285.6,601.7 M286.8,598.1L286.8,598.1
						c-3.6-1.3-8.1,0.1-11,3.4c-3.8,4.3-3.9,10.2-0.1,13.5c0.7,0.6,1.6,1.1,2.5,1.5c3.6,1.3,8.1-0.1,11-3.4
						c3.8-4.3,3.9-10.2,0.1-13.5C288.6,598.9,287.8,598.4,286.8,598.1L286.8,598.1z"/>
				</g>
			</g>
			<g>
				<path class="st7" d="M287.8,603.6c-2.7,3.3-6.5,5.7-10.7,6.8c0.2,0.7,0.6,1.3,1.1,1.7c2.1,1.8,5.7,1,8.1-1.6
					C288.2,608.3,288.7,605.6,287.8,603.6z"/>
			</g>
		</g>
		<g>
			<g>
				<g>
					<path class="st7" d="M344.2,545.8c-0.7-0.2-1.3-0.6-1.9-1.1c-1.5-1.3-2.2-3.2-2.1-5.3c0.1-1.9,1-3.9,2.4-5.5
						c2.4-2.7,6-3.9,8.9-2.9c0.7,0.2,1.3,0.6,1.9,1.1c2.9,2.5,2.8,7.3-0.4,10.8C350.7,545.6,347.1,546.8,344.2,545.8z"/>
					<path class="st1" d="M351,532.8c0.5,0.2,0.9,0.4,1.3,0.7c2.1,1.8,1.8,5.4-0.6,8.1c-2,2.2-4.7,3.1-6.8,2.4
						c-0.5-0.2-0.9-0.4-1.3-0.7c-2.1-1.8-1.8-5.4,0.6-8.1C346.1,532.9,348.9,532.1,351,532.8 M352.2,529.2L352.2,529.2
						c-3.6-1.3-8.1,0.1-11,3.4c-1.7,1.9-2.7,4.3-2.9,6.6c-0.2,2.7,0.8,5.2,2.7,6.9c0.7,0.6,1.6,1.1,2.5,1.5c3.6,1.3,8.1-0.1,11-3.4
						c3.8-4.3,3.9-10.2,0.1-13.5C354,530,353.2,529.5,352.2,529.2L352.2,529.2z"/>
				</g>
			</g>
			<g>
				<path class="st7" d="M353.2,534.8c-2.7,3.3-6.5,5.7-10.7,6.8c0.2,0.7,0.6,1.3,1.1,1.7c2.1,1.8,5.7,1,8.1-1.6
					C353.6,539.4,354.1,536.7,353.2,534.8z"/>
			</g>
		</g>
		<g>
			<g>
				<g>
					<path class="st6" d="M378.4,568.6c-5.7-2-10.6-7.3-12.9-14.1c-3.6-10.5,0.1-21.2,8.3-23.8c2.7-0.9,5.7-0.8,8.6,0.2
						c5.7,2,10.6,7.3,12.9,14c3.6,10.5-0.1,21.2-8.3,23.8C384.3,569.7,381.3,569.6,378.4,568.6z"/>
					<path class="st1" d="M381.7,532.8c4.9,1.7,9.5,6.5,11.7,12.8c3.3,9.5,0.1,19.1-7.1,21.4c-2.4,0.8-4.9,0.6-7.4-0.2
						c-4.9-1.7-9.5-6.5-11.7-12.9c-3.3-9.5-0.1-19.1,7.1-21.4C376.8,531.8,379.3,531.9,381.7,532.8 M383,529.2L383,529.2
						c-3.3-1.2-6.7-1.3-9.9-0.3c-9.2,3-13.5,14.7-9.5,26.2c2.5,7.3,7.8,13,14.1,15.2c3.3,1.2,6.7,1.3,9.9,0.3
						c9.2-3,13.5-14.7,9.5-26.2C394.6,537.1,389.3,531.4,383,529.2L383,529.2z"/>
				</g>
			</g>
			<g>
				<path class="st6" d="M393.5,545.6c-1.6-4.6-4.5-8.4-7.8-10.7c0.8,1.4,1.6,2.9,2.2,4.5c3.3,9.5,0.1,19.1-7.1,21.4
					c-3.7,1.2-7.8,0.2-11.3-2.3c4.1,6.7,10.9,10.5,16.9,8.5C393.6,564.7,396.8,555.1,393.5,545.6z"/>
			</g>
		</g>
		<g>
			<g>
				<path class="st6" d="M289.5,650.8c-2.8-1-5.2-2.7-6.7-5c-2.4-3.5-2.8-8-1.2-12.6c1.6-4.4,4.9-8.4,9.3-11.3
					c6-3.9,13.3-5.1,19-3.1c2.8,1,5.2,2.7,6.7,5c2.4,3.5,2.9,8,1.2,12.6c-1.6,4.4-4.9,8.4-9.3,11.3
					C302.5,651.6,295.2,652.8,289.5,650.8z"/>
				<path class="st1" d="M309.3,620.5c2.4,0.8,4.4,2.3,5.8,4.3c4.3,6.3,0.9,15.8-7.6,21.3c-5.7,3.7-12.3,4.6-17.3,2.9
					c-2.4-0.8-4.4-2.3-5.8-4.3c-4.3-6.3-0.9-15.8,7.6-21.3C297.7,619.7,304.3,618.8,309.3,620.5 M310.5,617L310.5,617
					c-6.4-2.2-14.1-1-20.7,3.3c-4.8,3.1-8.4,7.4-10.1,12.2c-1.8,5.2-1.3,10.3,1.4,14.3c1.8,2.6,4.5,4.7,7.7,5.8
					c6.4,2.2,14.1,1,20.7-3.2c4.8-3.1,8.4-7.4,10.1-12.2c1.8-5.2,1.3-10.3-1.4-14.3C316.4,620.1,313.8,618.1,310.5,617L310.5,617z"
					/>
			</g>
		</g>
		<g>
			<g>
				<g>
					<path class="st6" d="M298.2,549.7c-1.4-0.5-2.7-1.2-3.8-2.1c-3.7-3-5.4-7.8-4.9-13.6c0.5-5.5,3.1-11.2,7.2-16.1
						c7.2-8.6,17.6-12.7,25.3-10c1.4,0.5,2.7,1.2,3.9,2.1c3.7,3,5.5,7.8,4.9,13.6c-0.5,5.5-3.1,11.2-7.2,16.1
						C316.3,548.3,305.9,552.4,298.2,549.7z"/>
					<path class="st1" d="M321.3,509.7c1.2,0.4,2.3,1,3.3,1.8c6.6,5.3,5.4,17.4-2.6,27c-6.8,8.1-16.4,11.8-23.2,9.4
						c-1.2-0.4-2.3-1-3.3-1.8c-6.6-5.3-5.4-17.4,2.6-27C304.9,511,314.5,507.3,321.3,509.7 M322.6,506.1L322.6,506.1
						c-8.4-3-19.7,1.4-27.4,10.6c-4.3,5.2-7.1,11.3-7.6,17.1c-0.6,6.4,1.4,11.8,5.6,15.2c1.3,1.1,2.8,1.9,4.4,2.5
						c8.4,3,19.7-1.4,27.4-10.6c4.3-5.2,7.1-11.3,7.6-17.1c0.6-6.4-1.4-11.8-5.6-15.2C325.7,507.6,324.2,506.7,322.6,506.1
						L322.6,506.1z"/>
				</g>
			</g>
			<g>
				<g>
					<path class="st6" d="M328,516.4c-0.4,5-2.7,10.5-6.8,15.3c-8,9.6-19.8,13-26.4,7.6c-1.6-1.3-2.7-3-3.4-4.9
						c-0.4,4.8,1,9,4.2,11.6c6.6,5.3,18.4,1.9,26.4-7.6C328.1,531.2,330.2,522.5,328,516.4z"/>
				</g>
			</g>
		</g>
		<g>
			<g>
				<g>
					<path class="st6" d="M397,655c-8.5-3-14.8-13.8-15.1-26.3c-0.4-15.1,7.9-27.4,18.5-27.5c1.6,0,3.3,0.3,4.9,0.8
						c8.5,3,14.8,13.8,15.1,26.3c0.4,15.1-7.9,27.4-18.5,27.5C400.2,655.9,398.6,655.6,397,655z"/>
					<path class="st1" d="M404.7,603.8c7.6,2.7,13.5,12.6,13.8,24.5c0.4,14-7.1,25.5-16.6,25.6c-1.4,0-2.9-0.2-4.2-0.7
						c-7.6-2.7-13.5-12.6-13.8-24.5c-0.4-14,7-25.5,16.6-25.6C401.9,603.1,403.3,603.3,404.7,603.8 M405.9,600.2L405.9,600.2
						c-1.8-0.6-3.7-1-5.6-0.9c-11.9,0.1-20.8,13.1-20.4,29.5c0.4,13.3,7.1,24.8,16.4,28.1c1.8,0.6,3.7,1,5.6,0.9
						c11.9-0.1,20.8-13.1,20.4-29.4C421.9,615,415.2,603.5,405.9,600.2L405.9,600.2z"/>
				</g>
			</g>
			<g>
				<path class="st6" d="M418.4,628.3c-0.3-11.9-6.2-21.8-13.8-24.5c1.5,3.7,2.5,7.9,2.6,12.5c0.4,14-7,25.5-16.6,25.6
					c-1.4,0-2.9-0.3-4.2-0.7c3.2,7.7,9,12.8,15.4,12.8C411.4,653.9,418.8,642.4,418.4,628.3z"/>
			</g>
		</g>
		<g>
			<path class="st5" d="M298.4,688.6c-5.4-1.9-10.4-3.7-15.2-5.5c-4.9-1.8-9.9-3.7-14.8-5.6c-12.3-4.6-25-9.4-37.5-13.9l-2.3-0.8
				c-5.9-2.1-12-4.3-17.9-6.9c-11.9-5.2-26.7-11.7-30.2-23.3c-1.9-6.2-0.3-13.1,4.8-20.6c9.3-13.8,24.5-8.9,38-4.6l2.5,0.8
				c0.7,0.2,1.4,0.5,2.2,0.7c4.3,1.5,8.4,3.4,12.4,5.2c2,0.9,3.9,1.8,5.9,2.7c9.4,4.1,19.7,8.1,32.5,12.6l3.3,1.2
				c3.6,1.2,7.2,2.5,10.8,3.8c5.5,1.9,11,3.9,16.5,5.8c27.5,9.8,57,20.8,92.8,34.5l3,1.1c5.9,2.2,11.9,4.5,17.6,7.5
				c2.3,1.2,4.5,2.1,6.6,2.9c7.9,3.1,14.6,5.7,11.3,22c-0.2,0.8-0.3,1.7-0.5,2.6c-0.9,5.3-2,11.8-7.1,14.2
				c-10.5,4.9-34.8-2.5-59.4-11.1l-3.3-1.2c-3-1.1-5.9-2.1-7.6-2.5c-5.3-1.5-10.4-3.3-15.7-5.1l-3-1.1c-2.8-1-5.6-2-8.4-2.9l-1-0.3
				C322.7,696.9,310.4,692.9,298.4,688.6z"/>
			<path class="st1" d="M227.2,610.8c6.3,2.2,12.1,5.2,18.2,7.9c10.7,4.6,21.6,8.7,32.7,12.6c1.1,0.4,2.2,0.8,3.3,1.2
				c3.6,1.2,7.2,2.5,10.8,3.8c5.5,1.9,11,3.9,16.5,5.8c31.1,11.1,61.9,22.7,92.7,34.5c6.9,2.6,13.9,5.1,20.3,8.6
				c11,5.8,20.8,4.1,16.9,22.9c-1,4.9-1.5,13.2-6.5,15.5c-10.9,5.1-40.6-5.1-57.9-11.2c-1.2-0.4-2.3-0.8-3.3-1.2
				c-3.3-1.2-6-2.1-7.7-2.6c-5.2-1.5-10.4-3.3-15.6-5.1c-1-0.4-2-0.7-3-1.1c-2.8-1-5.6-2-8.4-2.9c-12.5-4.1-24.8-8.2-37.2-12.5
				c-5-1.8-10.1-3.6-15.1-5.5c-17.4-6.5-34.8-13.2-52.3-19.5c-6.7-2.4-13.5-4.8-20.1-7.6c-17.6-7.7-40.2-17.9-24.6-41.1
				c9-13.4,24.5-7.5,38.3-3.1C225.8,610.3,226.5,610.5,227.2,610.8 M228.5,607.2c-0.7-0.3-1.5-0.5-2.2-0.7l-2.5-0.8
				c-13.4-4.3-30.1-9.6-40.2,5.4c-5.4,8-7.1,15.5-5,22.2c3.8,12.5,19.1,19.1,31.3,24.5c5.9,2.6,12.1,4.8,18,6.9l2.3,0.8
				c12.5,4.5,25.2,9.3,37.4,13.9c5,1.9,9.9,3.7,14.8,5.6c4.8,1.8,9.8,3.6,15.2,5.5c12,4.2,24.3,8.3,36.2,12.2l1,0.3
				c2.9,1,5.8,2,8.3,2.9l1.5,0.5l1.5,0.5c5.3,1.9,10.4,3.6,15.8,5.2c1.6,0.5,4.5,1.5,7.5,2.5l1.6,0.6l1.8,0.6
				c25,8.8,49.7,16.2,60.9,11c6-2.8,7.2-10.2,8.1-15.6c0.2-0.9,0.3-1.8,0.5-2.5c3.7-17.8-4.6-21.1-12.5-24.2
				c-2.1-0.8-4.2-1.7-6.4-2.8c-5.8-3.1-11.9-5.4-17.8-7.6c-1-0.4-2-0.7-3-1.1c-35.8-13.7-65.3-24.7-92.8-34.5
				c-5.5-2-11-3.9-16.5-5.9c-3.6-1.3-7.2-2.5-10.8-3.8c-1.1-0.4-2.2-0.8-3.3-1.2c-12.7-4.5-23-8.5-32.4-12.5c-2-0.9-4-1.8-5.9-2.7
				C237,610.6,232.9,608.7,228.5,607.2L228.5,607.2z"/>
		</g>
		<g>
			<path class="st5" d="M438.6,707.9c3.8-18.7-5.9-17-16.9-22.9c-6.5-3.5-13.5-5.9-20.3-8.6c-20.4-7.8-40.8-15.5-61.3-23
				c-16.2,11.4-32.8,24.3-51.6,29.6c15.8,5.8,31.6,11,47.7,16.3c9,3,17.9,6.4,27,9c10,2.9,54.9,21.4,68.9,14.9
				C437.1,721,437.6,712.8,438.6,707.9z"/>
		</g>
		<g class="st9">
			<g>
				<path class="st10" d="M218.5,613.5c-11.1-7.5-28,3-30,15c-1.2,7.6,10.8,10,12,2.4c0.3-2.1,2.3-4.2,4.5-5.8
					c1.4-1,2.8-1.7,4.4-2.2c0.8-0.2,2,0.2,1-0.5c2.8,1.9,6.2,2.2,8.6-0.5C221.1,619.7,221.2,615.3,218.5,613.5L218.5,613.5z"/>
			</g>
			<g>
				<path class="st10" d="M231.6,630.2c7.4,2.6,11.4-8.6,4-11.3C228.1,616.3,224.2,627.6,231.6,630.2L231.6,630.2z"/>
			</g>
		</g>
	</g>
	<g>
		<g>
			<g>
				<path class="st1" d="M319.5,582.3c-1.8,5.1-7.5,7.8-12.7,5.9c-5.2-1.8-8-7.5-6.2-12.6s7.5-7.8,12.7-5.9
					C318.4,571.6,321.2,577.2,319.5,582.3z"/>
				<path class="st10" d="M310.2,574.7c-0.6,1.6-2.4,2.5-4.1,1.9s-2.6-2.4-2-4s2.4-2.5,4.1-1.9C309.9,571.2,310.8,573,310.2,574.7z"
					/>
				<path class="st10" d="M308.4,579.1c-0.2,0.6-0.9,0.9-1.5,0.7s-1-0.9-0.7-1.5c0.2-0.6,0.9-0.9,1.5-0.7S308.6,578.5,308.4,579.1z"
					/>
				<path class="st10" d="M311.5,576.9c-0.1,0.4-0.6,0.6-1,0.4s-0.6-0.6-0.5-0.9c0.1-0.4,0.6-0.6,1-0.4S311.7,576.5,311.5,576.9z"/>
				<path class="st11" d="M310,589.4c-0.4,1.1-4.4,0.8-9-0.9c-4.6-1.6-8-3.8-7.6-5c0.4-1.1,4.4-0.8,9,0.9
					C307,586,310.4,588.3,310,589.4z"/>
			</g>
			<g>
				<path class="st1" d="M369.6,599.9c-1.8,5.1-7.5,7.8-12.7,5.9c-5.2-1.8-8-7.5-6.2-12.6s7.5-7.8,12.7-5.9S371.4,594.8,369.6,599.9
					z"/>
				<path class="st10" d="M360.3,592.3c-0.6,1.6-2.4,2.5-4.1,1.9s-2.6-2.4-2-4s2.4-2.5,4.1-1.9C360,588.8,360.9,590.6,360.3,592.3z"
					/>
				<path class="st10" d="M358.5,596.7c-0.2,0.6-0.9,0.9-1.5,0.7s-1-0.9-0.7-1.5c0.2-0.6,0.9-0.9,1.5-0.7S358.7,596.1,358.5,596.7z"
					/>
				<path class="st10" d="M361.6,594.5c-0.1,0.4-0.6,0.6-1,0.4c-0.4-0.1-0.6-0.6-0.5-0.9c0.1-0.4,0.6-0.6,1-0.4
					C361.6,593.7,361.8,594.1,361.6,594.5z"/>
				<path class="st11" d="M369.8,610.4c-0.4,1.1-4.4,0.8-9-0.9c-4.6-1.6-8-3.8-7.6-5c0.4-1.1,4.4-0.8,9,0.9
					C366.8,607,370.2,609.3,369.8,610.4z"/>
			</g>
		</g>
		<g>
			<path class="st14" d="M358.5,584.9c0,0,6.6,5.4,14.3,1.3"/>
			<path class="st14" d="M318.1,564c0,0-6.6-5.4-14.3-1.3"/>
		</g>
		<g>
			<g>
				
					<ellipse transform="matrix(0.3314 -0.9435 0.9435 0.3314 -339.8956 712.3806)" class="st6" cx="332.7" cy="596" rx="7.3" ry="4.8"/>
				<path class="st1" d="M334.7,590.2c1.9,0.7,2.5,3.8,1.4,7s-3.6,5.2-5.4,4.6c-1.9-0.7-2.5-3.8-1.4-7
					C330.4,591.6,332.8,589.6,334.7,590.2 M335.5,588.1c-3.2-1.1-6.8,1.4-8.4,5.9s-0.4,8.8,2.8,9.9s6.8-1.4,8.4-5.9
					S338.7,589.2,335.5,588.1L335.5,588.1z"/>
			</g>
			<g>
				<path class="st10" d="M336.3,595.7c-0.2-0.1-0.3-0.2-0.4-0.3c-0.8-0.8-1.7-1.4-2.8-1.7c-0.7-0.3-1.5-0.4-2.3-0.4
					c-0.1,0-0.3,0-0.4-0.1c-0.3-0.1-0.5-0.3-0.7-0.6c-0.2-0.4-0.1-0.8,0.1-1.2c1.6-2,3.5-2.8,5.2-2.2c1.8,0.6,2.9,2.8,2.7,5.5
					c0,0.4-0.3,0.8-0.7,1C336.8,595.8,336.5,595.8,336.3,595.7z"/>
				<g>
					<path class="st1" d="M334.7,590.2c1.4,0.5,2,2.2,1.9,4.4c-0.9-0.9-2.1-1.6-3.2-2c-0.9-0.3-1.8-0.5-2.6-0.5
						C332,590.6,333.5,589.8,334.7,590.2 M335.5,588.1c-2.2-0.8-4.7,0.2-6.5,2.6c-0.5,0.7-0.6,1.6-0.2,2.4c0.3,0.6,0.8,1,1.3,1.2
						c0.2,0.1,0.5,0.1,0.7,0.1c0.6,0,1.3,0.1,1.9,0.4c0.9,0.3,1.7,0.8,2.3,1.5c0.3,0.3,0.6,0.4,0.9,0.6c0.5,0.2,1,0.2,1.6,0
						c0.9-0.3,1.4-1.1,1.5-2C339.1,591.5,337.8,588.9,335.5,588.1L335.5,588.1z"/>
				</g>
			</g>
		</g>
	</g>
</g>
<g>
	<g>
		<g>
			<g>
				<g>
					<path class="st15" d="M143.2,1015.5c-4.5,0.5-7.9-1-10.1-4.4c-0.6-0.9-1.2-1.9-1.9-2.8c-1.6-2.3-3.2-4.7-4.3-7.2
						c-3.1-7.4-27.8-69.2-35.5-92.1c-0.7-2.1-1.5-4.3-2.2-6.5c-3.4-9.9-6.9-20.1-9.3-30.1l-0.2-0.9c-1.4-5.9-2.3-9.8,4.4-14.8
						c2.3-1.7,9.4-6.3,14.7-6.9c1.6-0.2,2.9,0,4,0.6c2.5,1.3,8.4,15.1,27.4,64.4c4.3,11.3,8.1,21,9.5,24.2
						c2.5,5.7,4.6,11.5,6.7,17.2c1.5,4.2,3.1,8.4,4.8,12.6l1.7,4.1c3.3,8,6.6,16.2,9.1,24.7c0.2,0.5,0.5,1.3,0.8,2.2
						c1.4,3.4,2.3,6,1.8,7.7c-1,3.4-5.9,4.4-9,5c-0.6,0.1-1.1,0.2-1.5,0.3c-1.2,0.3-2.4,0.7-3.6,1
						C148.1,1014.5,145.6,1015.3,143.2,1015.5z"/>
					<g>
						<path class="st1" d="M98.9,851.6c1.1-0.1,2,0,2.7,0.4c3.6,1.9,31.4,77.2,36.1,87.8c4.3,9.7,7.5,19.9,11.5,29.7
							c3.8,9.4,7.9,18.8,10.7,28.5c0.6,2,3.2,7.2,2.6,9c-0.9,2.8-6.5,3.3-9,3.9c-3.4,0.8-7.1,2.4-10.5,2.7c-3.2,0.3-6-0.3-8.1-3.5
							c-2-3.2-4.6-6.3-6-9.8c-3.3-8-27.7-69.2-35.5-92c-4-11.8-8.6-24.3-11.5-36.4c-1.5-6.4-2.6-9.4,3.4-13.9
							C87.7,856.3,94.4,852.1,98.9,851.6 M98.5,848L98.5,848c-7,0.7-15.7,7.2-15.8,7.3c-7.7,5.7-6.5,10.5-5.1,16.6l0.2,0.9
							c2.4,10,5.9,20.3,9.3,30.2c0.7,2.2,1.5,4.3,2.2,6.5c7.8,22.9,32.4,84.8,35.5,92.2c1.1,2.7,2.8,5.2,4.5,7.5
							c0.6,0.9,1.3,1.8,1.9,2.8c1.8,2.8,5.4,6,12.2,5.3c2.7-0.3,5.2-1.1,7.7-1.8c1.2-0.4,2.4-0.7,3.4-1c0.4-0.1,0.8-0.2,1.4-0.3
							c3.5-0.7,9.3-1.8,10.7-6.3c0.7-2.2-0.3-4.9-1.8-8.7c-0.3-0.8-0.7-1.7-0.8-2.1c-2.5-8.5-5.9-16.8-9.2-24.8
							c-0.6-1.3-1.1-2.7-1.7-4c-1.7-4.1-3.3-8.4-4.8-12.6c-2.1-5.7-4.2-11.6-6.8-17.3c-1.4-3.2-5.2-12.9-9.5-24.1
							c-22.5-58.2-25.5-63.9-28.3-65.4C102.4,848.1,100.6,847.8,98.5,848L98.5,848z"/>
					</g>
				</g>
			</g>
			<g>
				<g>
					<path class="st5" d="M159.9,998c-2.8-9.7-6.9-19.1-10.7-28.5c-4-9.9-7.2-20-11.5-29.7c-4.7-10.6-32.4-85.9-36.1-87.8
						c-1.5-0.8-3.7-0.4-6.2,0.5c7.4,14.2,30,75.4,34.1,84.8c4.3,9.7,7.5,19.9,11.5,29.7c3.8,9.4,7.9,18.8,10.7,28.5
						c0.6,2,3.2,7.2,2.6,9c-0.9,2.8-6.5,3.3-9,3.9c-3.1,0.8-6.6,2.1-9.8,2.6c4.4,5.2,11.8,1.3,17.9-0.2c2.5-0.6,8.1-1.1,9-3.9
						C163.1,1005.2,160.4,1000,159.9,998z"/>
				</g>
			</g>
		</g>
		<g>
			<g>
				<g>
					<path class="st15" d="M205.1,1011.4c-4.3,0.4-7.1-0.1-8.7-1.7c-1.9-1.9-2.4-16.8-2.4-69.3c0-12,0-22.3-0.2-25.8
						c-0.3-6.1-0.2-12.3-0.1-18.3c0.1-4.4,0.1-8.9,0.1-13.4l-0.1-4.2c-0.2-8.6-0.4-17.4,0.4-26.2c0-0.6,0-1.4,0-2.4
						c-0.1-3.7,0-6.4,1.1-7.9c1-1.3,2.7-2.2,5-2.4c1.8-0.2,3.7,0,5.2,0.1c0.6,0,1.1,0.1,1.5,0.1c1.2,0,2.5,0,3.7,0
						c5.8-0.1,13.8-0.3,15.4,7.3c0.8,3.6,3.2,84.7,2.1,109.3c-0.1,2.3-0.2,4.5-0.3,6.8c-0.4,10.4-0.8,21.2-2.2,31.4l-0.1,0.9
						c-0.8,6-1.4,10-9.5,13C214.4,1009.5,209.6,1010.9,205.1,1011.4z"/>
					<path class="st1" d="M200.5,841.6c2.2-0.2,4.8,0.2,6.4,0.2c6.6,0.3,15.6-1.7,17.2,5.9c0.8,3.6,3.1,84.9,2.1,108.9
						c-0.5,12.4-0.7,25.7-2.4,38c-0.9,6.5-1,9.7-8.3,12.4c-2,0.7-6.5,2.1-10.6,2.5c-3,0.3-5.6,0.1-6.9-1.1c-2.7-2.8-1.5-82.6-2.1-94
						c-0.5-10.5,0.2-21.1,0-31.6c-0.2-10.1-0.6-20.2,0.3-30.3c0.2-2-0.4-7.8,0.8-9.3C197.8,842.2,199,841.8,200.5,841.6 M200.1,838
						L200.1,838c-3.8,0.4-5.7,2-6.6,3.3c-1.4,1.9-1.5,4.8-1.4,8.9c0,0.9,0,1.8,0,2.2c-0.8,8.9-0.6,17.8-0.4,26.4l0.1,4.2
						c0.1,4.4,0,8.9-0.1,13.3c-0.1,6-0.2,12.3,0.1,18.4c0.2,3.4,0.2,13.8,0.2,25.7c0,62,0.8,68.3,2.9,70.4c2,2.1,5.5,2.9,10.5,2.3
						c4.7-0.5,9.7-2,11.7-2.7c9.3-3.4,10-8.3,10.8-14.5l0.1-0.9c1.4-10.3,1.8-21.1,2.2-31.5c0.1-2.3,0.2-4.6,0.3-6.8
						c1-22.7-1.2-105.2-2.2-109.7c-1.9-9.1-11.6-8.9-17.4-8.8c-1.3,0-2.5,0.1-3.6,0c-0.4,0-0.9-0.1-1.4-0.1
						C204.2,838,202.1,837.8,200.1,838L200.1,838z"/>
				</g>
			</g>
			<g>
				<g>
					<path class="st5" d="M226.2,956.6c1-24-1.3-105.3-2.1-108.9c-0.9-4.3-4.3-5.5-8.2-5.8c0.2,0.5,0.4,1,0.5,1.6
						c0.8,3.6,3.1,84.9,2.1,108.9c-0.5,12.4-0.7,25.7-2.4,38c-0.9,6.5-1,9.7-8.3,12.4c-2,0.7-6.4,2-10.5,2.5
						c0.2,1.8,0.4,2.9,0.7,3.2c2.9,3,14-0.1,17.4-1.4c7.3-2.7,7.4-5.9,8.3-12.4C225.5,982.3,225.7,969,226.2,956.6z"/>
				</g>
			</g>
		</g>
		<g>
			<g>
				<g>
					<path class="st5" d="M119.8,1044.9c-11.9,1.3-18.5-19-23.2-33.7c-0.8-2.6-1.6-5-2.3-6.9c-0.5-1.5-1.8-4.8-3.5-9.3
						c-9.4-25-31.5-83.5-34.1-99.2c-1.7-10.6,6.3-17.7,13.7-20.5c1.2-0.5,2.4-0.8,3.5-0.9c8.8-0.9,12.8,8.3,16.3,23.4
						c3.6,15.2,13.6,43.3,22.4,68.1c4.5,12.7,8.8,24.8,11.4,32.8c0.4,1.1,0.7,2.3,1.2,3.5c3.3,10.1,7.9,23.9,6,33.8
						c-0.9,4.9-6.5,7.7-9.6,8.6C121,1044.7,120.4,1044.8,119.8,1044.9z"/>
					<g>
						<path class="st1" d="M74.1,876.2c6.4-0.7,10.3,6,14.1,22c5.6,23.4,26.4,77.9,33.8,101c3.2,10.1,9.1,25.8,7.1,36.5
							c-0.8,4-5.5,6.4-8.1,7.1c-0.5,0.1-0.9,0.2-1.4,0.3c-12.2,1.3-19-27.4-23.4-39.5c-3.4-9.3-34.5-89.8-37.5-108.2
							C57,885,65.5,879.1,71.2,877C72.2,876.6,73.2,876.3,74.1,876.2 M73.8,872.6L73.8,872.6c-1.3,0.1-2.7,0.5-4.1,1
							c-8.1,3.1-16.9,10.8-15,22.4c2.6,15.8,24.7,74.4,34.2,99.5c1.7,4.6,3,7.8,3.5,9.3c0.7,1.9,1.5,4.3,2.3,6.9
							c5.2,16.2,11.8,36.5,25.5,35c0.7-0.1,1.5-0.2,2.2-0.4c3.6-1,10-4.3,11.1-10.1c2-10.3-2.7-24.4-6.1-34.6
							c-0.4-1.2-0.8-2.4-1.1-3.5c-2.6-8-6.9-20.1-11.4-32.8c-8.8-24.8-18.8-52.8-22.4-67.9C89.2,884.2,85.2,871.4,73.8,872.6
							L73.8,872.6z"/>
					</g>
				</g>
			</g>
			<g>
				<g>
					<path class="st5" d="M122,999.2c-7.4-23.1-28.3-77.6-33.8-101c-4.2-17.8-8.5-24-16.4-21.4c4.3,2,7.3,8.8,10.2,21.3
						c5.6,23.4,26.4,77.9,33.8,101c3.2,10.1,9.1,25.8,7.1,36.5c-0.7,3.6-4.5,5.9-7.2,6.8c1.6,0.7,3.4,0.9,5.2,0.4
						c2.7-0.8,7.4-3.2,8.1-7.1C131.2,1025,125.3,1009.2,122,999.2z"/>
				</g>
			</g>
		</g>
		<g>
			<g>
				<g>
					<path class="st15" d="M158.9,1013.1c-12.9,1.4-16.5-20.3-19.1-36.2c-0.4-2.7-0.8-5.1-1.2-7.2c-0.3-1.5-1-5-2.1-9.7
						c-5.6-25.9-18.6-86.7-18.8-102.6c-0.1-10.8,8.9-16.9,16.6-18.8c0.8-0.2,1.5-0.3,2.2-0.4c2.6-0.3,4.8,0.3,6.7,1.6
						c4.1,2.9,6.2,9.7,7.4,23.5c1.3,15.5,6.9,44.6,11.9,70.3c2.6,13.2,5,25.6,6.3,33.9c0.2,1.1,0.4,2.4,0.6,3.6
						c1.8,10.4,4.2,24.7,0.9,34.3c-1.7,4.8-7.6,7-10.8,7.5C159.3,1013.1,159.1,1013.1,158.9,1013.1z"/>
					<g>
						<path class="st1" d="M136.7,840.2c7.3-0.8,10.3,6.1,11.8,23.4c2,23.9,14.4,80.5,18.3,104.3c1.7,10.4,5.1,26.8,1.5,37.2
							c-1.3,3.9-6.3,5.7-9.1,6.2c-0.2,0-0.3,0.1-0.5,0.1c-13,1.4-15.5-29.1-18.1-41.9c-1.9-9.7-20.6-93.2-20.9-112
							c-0.1-10.5,9.1-15.5,15.1-17C135.5,840.3,136.1,840.2,136.7,840.2 M136.4,836.5L136.4,836.5c-0.8,0.1-1.7,0.2-2.6,0.5
							c-8.5,2.1-18.3,8.8-18.2,20.6c0.2,16,13.3,76.9,18.9,102.9c1,4.7,1.7,8.1,2.1,9.7c0.4,2,0.8,4.5,1.2,7.1
							c2.7,16.6,6.4,39.2,21.3,37.7c0.3,0,0.5-0.1,0.8-0.1c3.7-0.6,10.5-3.2,12.5-8.8c3.5-10.1,1-24.5-0.8-35.1
							c-0.2-1.3-0.4-2.5-0.6-3.6c-1.4-8.3-3.8-20.8-6.3-34c-5-25.6-10.6-54.7-11.9-70.1c-1.2-14.5-3.5-21.4-8.1-24.7
							C142.3,836.9,139.5,836.2,136.4,836.5L136.4,836.5z"/>
					</g>
				</g>
			</g>
			<g>
				<g>
					<path class="st5" d="M166.8,967.9c-3.9-23.8-16.3-80.5-18.3-104.3c-1.5-18.2-4.8-24.8-13-23.2c3.9,2.5,5.9,9.6,6.9,22.4
						c2,23.9,14.4,80.5,18.3,104.3c1.7,10.4,5.1,26.8,1.5,37.2c-1.2,3.5-5.3,5.3-8.2,6c1.5,0.9,3.2,1.3,5.1,1
						c2.7-0.5,7.7-2.3,9.1-6.2C171.9,994.6,168.5,978.3,166.8,967.9z"/>
				</g>
			</g>
		</g>
		<g>
			<g>
				<g>
					<path class="st5" d="M112.9,1062.6c-3.2,0.3-5.8-0.3-7.7-1.9c-3.9-3.2-5.1-10.3-4.1-24.6c1.1-15.6,0-45.2-1-71.3
						c-0.5-13.4-1-26.1-1-34.5c0-1.1,0-2.4,0-3.6c-0.2-10.6-0.4-25.1,4.4-34.3c2-3.9,6.9-5.7,10.9-6.1c0.3,0,0.6-0.1,0.9-0.1
						c2.5-0.1,4.7,0.6,6.5,2.1c7.1,5.8,7.3,23.3,7.4,36.1c0,2.7,0,5.2,0.1,7.3c0.1,1.6,0.3,5.1,0.5,10c1.5,26.4,5,88.4,2.8,104.2
						c-1.5,10.7-11.4,15.7-19.3,16.8L112.9,1062.6z"/>
					<g>
						<path class="st1" d="M114.6,888.1c0.3,0,0.5,0,0.8-0.1c13.6-0.6,11.3,30.6,11.9,43.7c0.4,9.8,6,95.2,3.4,113.8
							c-1.5,10.5-11.4,14.4-17.5,15.2c-0.1,0-0.3,0-0.4,0c-8.5,0.9-10.8-6.1-9.5-24.6c1.7-24-1.8-81.8-2-105.9
							c-0.1-10.6-1-27.2,4.2-37.2C107.2,889.7,111.7,888.4,114.6,888.1 M114.2,884.4L114.2,884.4c-4.5,0.5-10.2,2.6-12.6,7.3
							c-5,9.6-4.8,24.3-4.6,35.1c0,1.3,0,2.5,0,3.6c0.1,8.4,0.5,21.1,1,34.5c1,26.1,2.1,55.7,1,71.2c-1.1,15,0.3,22.3,4.7,26
							c2.4,1.9,5.5,2.7,9.4,2.3c0.2,0,0.3,0,0.5-0.1c8.7-1.1,19.5-6.7,21.1-18.4c2.3-16-1.3-78-2.8-104.5c-0.3-4.9-0.5-8.4-0.5-9.9
							c-0.1-2-0.1-4.5-0.1-7.2c-0.1-17-0.8-31.5-8-37.4c-2.2-1.8-5-2.7-8-2.6C114.9,884.4,114.6,884.4,114.2,884.4L114.2,884.4z"/>
					</g>
				</g>
			</g>
			<g>
				<g>
					<path class="st5" d="M127.2,931.7c-0.5-11.6,1.2-37.2-7.7-42.7c3.7,9.9,2.8,27.4,3.2,36.5c0.4,9.8,6,95.2,3.4,113.8
						c-1.5,10.5-11.4,14.4-17.5,15.1c-1.9,0.3-3.6,0.1-4.9-0.5c1.3,5.4,4.3,7.4,9.4,6.7c6.1-0.8,16-4.7,17.5-15.2
						C133.2,1026.9,127.7,941.6,127.2,931.7z"/>
				</g>
			</g>
		</g>
		<g>
			<g>
				<g>
					<path class="st15" d="M213.9,1011.8c-8.6,0.9-12.8-8.2-16.7-23.1c-4-15.1-14.6-43-24-67.7c-4.8-12.6-9.4-24.6-12.1-32.5
						c-0.4-1.1-0.8-2.3-1.2-3.5c-3.6-10-8.4-23.7-6.8-33.7c0.8-4.9,6.3-7.8,9.4-8.8c0.6-0.2,1.3-0.3,1.9-0.4
						c11.8-1.2,18.8,18.7,23.8,33.3c0.9,2.6,1.7,5,2.5,6.9c0.6,1.5,1.9,4.8,3.8,9.4c10,24.8,33.4,82.8,36.3,98.4
						c2,10.6-5.9,17.7-13.3,20.7C216.3,1011.4,215.1,1011.7,213.9,1011.8z"/>
					<g>
						<path class="st1" d="M164.7,844c12.1-1.3,19.5,27.1,24.1,39c3.6,9.3,36.5,89.1,40,107.5c1.9,10.4-6.4,16.4-12,18.7
							c-1.1,0.4-2.1,0.7-3.1,0.8c-6.3,0.7-10.3-5.9-14.4-21.7c-6.1-23.2-28.2-77.4-36.1-100.3c-3.5-10-9.7-25.7-7.9-36.4
							c0.7-4,5.3-6.5,8-7.3C163.7,844.2,164.2,844.1,164.7,844 M164.3,840.4L164.3,840.4c-0.8,0.1-1.6,0.2-2.4,0.5
							c-3.6,1.1-9.9,4.5-10.9,10.3c-1.7,10.4,3.2,24.3,6.8,34.5c0.4,1.2,0.8,2.4,1.2,3.5c2.8,8,7.3,19.9,12.1,32.6
							c9.4,24.6,20,52.5,23.9,67.5c3.4,13,7.7,25.6,18.9,24.4c1.4-0.1,2.8-0.5,4.3-1.1c8.1-3.2,16.7-11.1,14.5-22.7
							c-3-15.7-26.4-73.8-36.4-98.7c-1.9-4.6-3.2-7.9-3.8-9.4c-0.7-1.9-1.6-4.3-2.5-6.8C184.8,858.9,177.9,839,164.3,840.4
							L164.3,840.4z"/>
					</g>
				</g>
			</g>
			<g>
				<g>
					<path class="st5" d="M188.8,883c-4.2-10.9-10.8-35.6-21.2-38.7c6.8,8.5,11.6,25.4,14.9,33.9c3.6,9.3,36.5,89.1,40,107.5
						c1.9,10.3-6.4,16.4-12,18.7c-1.8,0.7-3.4,1-4.9,0.8c3,4.8,6.5,6,11.2,4.1c5.6-2.2,14-8.3,12-18.7
						C225.4,972.1,192.4,892.3,188.8,883z"/>
				</g>
			</g>
		</g>
		<g>
			<g>
				<g>
					<path class="st5" d="M232.9,1036.2c-2.1,0.2-4.3-0.1-6.1-0.4c-0.6-0.1-1.1-0.2-1.5-0.2c-1.2-0.1-2.4-0.2-3.7-0.3
						c-5.8-0.3-13.7-0.7-14.6-8.4c-0.1-1.1-0.3-2.2-0.5-3.3c-0.4-2.7-0.8-5.4-0.7-8.2c0.5-7.9,5.8-73.8,9.1-97.9
						c0.3-2.2,0.6-4.5,0.9-6.8c1.3-10.4,2.7-21.1,5.1-31.2l0.2-0.9c1.4-6,2.3-9.9,10.6-12.3c2-0.6,5.5-1.3,8.7-1.6
						c5.8-0.6,9.4,0.1,11.1,2.1c1.7,2,0.8,16.9-4,69.4c-1.1,12-2.1,22.3-2.2,25.8c-0.3,6.1-0.9,12.3-1.6,18.3
						c-0.5,4.4-1,8.9-1.3,13.4l-0.3,4.3c-0.6,8.6-1.2,17.4-2.8,26.1c-0.1,0.6-0.2,1.4-0.2,2.4c-0.3,3.7-0.6,6.4-1.8,7.8
						C236.3,1035.3,234.8,1036,232.9,1036.2z"/>
					<path class="st1" d="M240.6,866.5c3.9-0.4,7.8-0.3,9.2,1.4c2.5,3-6.1,82.6-6.6,94.1c-0.5,10.5-2.1,21.1-2.9,31.6
						c-0.7,10.1-1.3,20.2-3.1,30.3c-0.4,2-0.3,7.8-1.6,9.3c-0.7,0.8-1.7,1.1-2.9,1.3c-2.4,0.2-5.3-0.4-7-0.6
						c-6.6-0.7-15.7,0.6-16.6-7.1c-0.4-3.7-1.4-7.5-1.1-11.2c0.6-8.6,5.8-73.9,9-97.8c1.7-12.4,3.1-25.6,5.9-37.8
						c1.5-6.5,1.9-9.7,9.4-11.8C234,867.6,237.3,866.9,240.6,866.5 M240.2,862.9c-3.6,0.4-7.2,1.2-9.1,1.7
						c-9.6,2.8-10.7,7.6-12.1,13.8l-0.2,0.9c-2.4,10.2-3.7,20.9-5.1,31.4c-0.3,2.3-0.6,4.5-0.9,6.8c-3.2,24.1-8.6,90.1-9.1,98
						c-0.2,2.9,0.3,5.8,0.7,8.5c0.2,1.1,0.3,2.1,0.5,3.2c1.1,9.2,10.7,9.7,16.5,10c1.3,0.1,2.5,0.1,3.6,0.2c0.4,0,0.9,0.1,1.4,0.2
						c1.8,0.3,4.3,0.7,6.7,0.4c3.2-0.3,4.9-1.7,5.9-2.7c1.6-1.8,1.9-4.7,2.2-8.8c0.1-0.9,0.1-1.8,0.2-2.2c1.6-8.8,2.2-17.7,2.8-26.3
						l0.3-4.3c0.3-4.4,0.8-8.9,1.3-13.3c0.7-6,1.3-12.2,1.6-18.4c0.2-3.5,1.1-13.8,2.2-25.7c5.7-61.9,5.5-68.2,3.6-70.5
						C251.1,863.1,246.8,862.2,240.2,862.9L240.2,862.9z"/>
				</g>
			</g>
			<g>
				<g>
					<path class="st5" d="M237.2,1023.9c1.8-10.1,2.3-20.2,3.1-30.3c0.8-10.5,2.4-21.1,2.9-31.6c0.5-11.4,9.1-91.1,6.6-94.1
						c-1-1.2-3.2-1.6-5.8-1.6c0.3,15.8-6.6,80.4-7,90.7c-0.5,10.5-2.1,21.1-2.9,31.6c-0.7,10.1-1.3,20.2-3.1,30.3
						c-0.4,2-0.3,7.8-1.6,9.3c-2,2.3-7.4,0.9-9.9,0.6c-3.2-0.3-6.9-0.2-10.1-0.9c1.7,6.3,10.1,5.2,16.3,5.9c2.6,0.3,7.9,1.7,9.9-0.6
						C236.9,1031.6,236.8,1025.9,237.2,1023.9z"/>
				</g>
			</g>
		</g>
		<g>
			<g>
				<g>
					<path class="st5" d="M185.2,1045.1c-5.6,0.6-9.3-1.1-11.3-5.1c-0.5-1-1-2-1.6-2.9c-1.3-2.4-2.7-4.9-3.5-7.6
						c-2.3-7.6-20-71.3-25.2-94.9c-0.5-2.2-1-4.4-1.5-6.6c-2.3-10.2-4.7-20.7-5.9-30.8l-0.1-0.9c-0.8-6-1.3-10,5.9-14.4
						c2.2-1.4,9.1-5,14.3-5.6c2.1-0.2,3.7,0.1,5,0.9c2.3,1.5,6.7,15.8,20.2,66.6c3.1,11.6,5.7,21.6,6.8,24.9
						c1.9,5.9,3.4,11.9,4.8,17.7c1.1,4.3,2.2,8.7,3.4,13l1.2,4.2c2.4,8.2,4.8,16.8,6.4,25.4c0.1,0.5,0.3,1.4,0.6,2.3
						c1,3.5,1.6,6.2,1,7.8c-1.4,3.3-6.3,3.9-9.5,4.2c-0.6,0.1-1.1,0.1-1.5,0.2c-1.2,0.2-2.4,0.5-3.7,0.7
						C189,1044.5,187.1,1044.9,185.2,1045.1z"/>
					<path class="st1" d="M156.5,878c1.4-0.1,2.6,0,3.5,0.5c3.4,2.2,22.8,79.6,26.3,90.6c3.2,10.1,5.3,20.5,8.2,30.6
						c2.8,9.7,5.8,19.4,7.5,29.4c0.4,2,2.4,7.4,1.7,9.2c-1.1,2.7-6.8,2.8-9.4,3.2c-2.9,0.5-6.2,1.4-9.3,1.8
						c-3.8,0.4-7.2-0.2-9.1-4.1c-1.7-3.4-3.9-6.7-4.9-10.2c-2.4-8.3-20-71.4-25.2-94.8c-2.7-12.1-5.9-25-7.4-37.3
						c-0.8-6.5-1.5-9.6,4.9-13.6C145.6,881.8,152,878.5,156.5,878 M156.2,874.4L156.2,874.4c-6.8,0.7-15.2,5.9-15.3,5.9
						c-8.2,5.1-7.6,10-6.9,16.2l0.1,0.9c1.3,10.2,3.7,20.8,6,31c0.5,2.2,1,4.4,1.5,6.6c5.2,23.5,23,87.3,25.2,95
						c0.8,2.8,2.2,5.4,3.6,7.9c0.5,1,1.1,1.9,1.5,2.9c2.4,4.8,6.9,6.9,13.4,6.2c2-0.2,4-0.7,6-1.1c1.3-0.3,2.4-0.5,3.5-0.7
						c0.4-0.1,0.9-0.1,1.4-0.2c3.5-0.4,9.4-1.1,11.3-5.5c0.9-2.1,0.2-4.9-0.9-8.9c-0.2-0.8-0.5-1.7-0.6-2.1
						c-1.5-8.7-4-17.3-6.4-25.5l-1.2-4.2c-1.2-4.3-2.3-8.7-3.4-12.9c-1.5-5.9-3-11.9-4.8-17.8c-1.1-3.3-3.7-13.3-6.8-24.8
						c-16-60-18.3-65.9-21-67.6C160.9,874.5,158.8,874.1,156.2,874.4L156.2,874.4z"/>
				</g>
			</g>
			<g>
				<g>
					<path class="st5" d="M202,1029.1c-1.8-10-4.7-19.6-7.5-29.4c-2.9-10.2-5-20.5-8.2-30.6c-3.5-10.9-22.9-88.4-26.3-90.6
						c-1.4-0.9-3.7-0.7-6.2,0c5.7,14.8,21.6,77.7,24.7,87.5c3.2,10.1,5.3,20.5,8.2,30.6c2.8,9.7,5.8,19.4,7.5,29.4
						c0.4,2,2.4,7.4,1.6,9.2c-1.1,2.7-6.8,2.8-9.3,3.2c-3.2,0.5-6.7,1.6-10,1.8c3.8,5.5,11.6,2.2,17.8,1.3c2.6-0.4,8.2-0.5,9.4-3.2
						C204.4,1036.6,202.3,1031.1,202,1029.1z"/>
				</g>
			</g>
		</g>
		<g>
			<g>
				<g>
					<path class="st5" d="M197.6,1049.4c-3.4,0.4-5.8-0.1-7.3-1.4c-2-1.8-3.6-16.6-7.5-68.9c-0.9-11.9-1.7-22.2-2.1-25.6
						c-0.7-6.1-1.1-12.2-1.4-18.2c-0.3-4.4-0.5-8.9-0.9-13.3l-0.4-4.2c-0.8-8.5-1.7-17.4-1.6-26.2c0-0.6-0.1-1.4-0.2-2.3
						c-0.3-3.6-0.5-6.3,0.5-7.9c1-1.6,2.9-2.5,5.7-2.8c1.5-0.2,3.1-0.1,4.4-0.1c0.6,0,1.1,0,1.5,0c1.2,0,2.5-0.1,3.7-0.2
						c5.8-0.4,13.8-1.1,15.9,6.4c1,3.6,9.5,84.2,10.3,108.7c0.1,2.2,0.2,4.5,0.2,6.7c0.4,10.4,0.8,21.2,0.1,31.4l-0.1,0.9
						c-0.4,6.1-0.6,10.1-8.5,13.5C207.5,1047.1,202.1,1048.9,197.6,1049.4z"/>
					<path class="st1" d="M182.7,880.3c2-0.2,4.3,0,5.7,0c6.6-0.1,15.5-2.5,17.6,4.9c1,3.6,9.4,84.4,10.2,108.3
						c0.4,12.4,1.2,25.6,0.4,38c-0.4,6.6-0.3,9.8-7.4,12.8c-2.2,0.9-7.5,2.8-11.8,3.3c-2.4,0.2-4.4,0.1-5.6-0.9
						c-2.9-2.6-7.7-82.2-9.1-93.5c-1.3-10.5-1.4-21-2.4-31.5c-0.9-10-2.1-20.1-2-30.2c0-2-1-7.7,0.1-9.3
						C179.4,880.9,180.9,880.5,182.7,880.3 M182.3,876.6L182.3,876.6c-3.5,0.4-6,1.6-7.3,3.8c-1.3,2-1.1,4.8-0.8,8.9
						c0.1,0.9,0.2,1.8,0.2,2.2c-0.1,8.9,0.7,17.7,1.6,26.3l0.4,4.2c0.4,4.4,0.7,8.9,0.9,13.3c0.3,6,0.7,12.2,1.5,18.3
						c0.4,3.4,1.2,13.7,2.1,25.6c4.6,61.8,5.8,68,8.1,70c1.9,1.7,4.9,2.4,9,2c5-0.5,10.8-2.6,13.2-3.6c9-3.9,9.3-8.8,9.7-15.1
						l0.1-0.9c0.7-10.3,0.2-21.1-0.1-31.6c-0.1-2.3-0.2-4.5-0.2-6.7c-0.7-22.7-9-104.7-10.3-109.1c-2.6-9-12.3-8.2-18.1-7.8
						c-1.3,0.1-2.5,0.2-3.6,0.2c-0.4,0-0.9,0-1.4,0C185.7,876.5,184,876.5,182.3,876.6L182.3,876.6z"/>
				</g>
			</g>
			<g>
				<g>
					<path class="st5" d="M216.2,993.5c-0.8-23.9-9.2-104.8-10.2-108.3c-1.2-4.3-4.7-5.3-8.6-5.3c0.2,0.5,0.5,1,0.6,1.5
						c1,3.6,9.4,84.4,10.2,108.3c0.4,12.4,1.2,25.6,0.4,38c-0.4,6.6-0.3,9.8-7.4,12.8c-1.9,0.8-6.3,2.4-10.3,3
						c0.3,1.7,0.7,2.8,1,3.1c3.1,2.8,14-0.9,17.3-2.3c7.1-3.1,6.9-6.3,7.4-12.8C217.4,1019.1,216.6,1005.9,216.2,993.5z"/>
				</g>
			</g>
		</g>
		<g>
			<g>
				<g>
					<path class="st5" d="M136.3,1078.4c-4.3,0.4-7.1-0.1-8.7-1.7c-1.9-1.9-2.4-16.8-2.4-69.3c0-12,0-22.3-0.2-25.8
						c-0.3-6.1-0.2-12.3-0.1-18.3c0.1-4.4,0.1-8.9,0.1-13.4l-0.1-4.2c-0.2-8.6-0.4-17.4,0.4-26.2c0-0.6,0-1.4,0-2.4
						c-0.1-3.7,0-6.4,1.1-7.9c1-1.4,2.7-2.2,5-2.4c1.8-0.2,3.7,0,5.2,0.1c0.6,0,1.1,0.1,1.5,0.1c1.2,0,2.5,0,3.7,0
						c5.8-0.1,13.8-0.3,15.4,7.3c0.8,3.6,3.2,84.7,2.1,109.3c-0.1,2.3-0.2,4.5-0.3,6.8c-0.4,10.4-0.8,21.2-2.2,31.4l-0.1,0.9
						c-0.8,6-1.4,10-9.5,13C145.6,1076.5,140.8,1077.9,136.3,1078.4z"/>
					<path class="st1" d="M131.7,908.6c2.2-0.2,4.8,0.2,6.4,0.2c6.6,0.3,15.6-1.7,17.2,5.9c0.8,3.6,3.1,84.9,2.1,108.9
						c-0.5,12.4-0.7,25.7-2.4,38c-0.9,6.5-1,9.7-8.3,12.4c-2,0.7-6.5,2.1-10.6,2.5c-3,0.3-5.6,0.1-6.9-1.1c-2.7-2.8-1.5-82.6-2.1-94
						c-0.5-10.5,0.2-21.1,0-31.6c-0.2-10.1-0.6-20.2,0.3-30.3c0.2-2-0.4-7.8,0.8-9.3C129,909.2,130.3,908.8,131.7,908.6 M131.3,905
						L131.3,905c-3.8,0.4-5.7,2-6.6,3.3c-1.4,1.9-1.5,4.8-1.4,8.9c0,0.9,0,1.8,0,2.2c-0.8,8.9-0.6,17.8-0.4,26.4l0.1,4.2
						c0.1,4.4,0,8.9-0.1,13.3c-0.1,6-0.2,12.3,0.1,18.4c0.2,3.4,0.2,13.8,0.2,25.7c0,62,0.8,68.3,2.9,70.4c2,2.1,5.5,2.9,10.5,2.3
						c4.7-0.5,9.7-2,11.7-2.7c9.3-3.4,10-8.3,10.8-14.5l0.1-0.9c1.4-10.3,1.8-21.1,2.2-31.5c0.1-2.3,0.2-4.6,0.3-6.8
						c1-22.7-1.2-105.2-2.2-109.7c-1.9-9.1-11.6-8.9-17.4-8.8c-1.3,0-2.5,0.1-3.6,0c-0.4,0-0.9-0.1-1.4-0.1
						C135.4,905,133.4,904.8,131.3,905L131.3,905z"/>
				</g>
			</g>
			<g>
				<g>
					<path class="st5" d="M157.4,1023.6c1-24-1.3-105.3-2.1-108.9c-0.9-4.3-4.3-5.5-8.2-5.8c0.2,0.5,0.4,1,0.5,1.6
						c0.8,3.6,3.1,84.9,2.1,108.9c-0.5,12.4-0.7,25.7-2.4,38c-0.9,6.5-1,9.7-8.3,12.4c-2,0.7-6.4,2-10.5,2.5
						c0.2,1.8,0.4,2.9,0.7,3.2c2.9,3,14-0.1,17.4-1.4c7.3-2.7,7.4-5.9,8.3-12.4C156.7,1049.3,156.9,1036.1,157.4,1023.6z"/>
				</g>
			</g>
		</g>
		<g>
			<path class="st8" d="M178.7,1118.8c-36.7,3.9-81.3,1.2-86.1-19c-5.3-22.5-9-62.8-11.9-95.3c-0.9-10-1.8-19.4-2.5-26.7
				c-0.1-1.2,0.9-2.3,2.3-2.5l29.5-3.2c0.7-0.1,1.3,0.1,1.9,0.5c0.5,0.4,0.8,0.9,0.9,1.5l3.5,33l104.6-11l-3.5-33.4
				c-0.1-1.2,0.9-2.3,2.3-2.5l27.8-3c1.3-0.1,2.5,0.6,2.7,1.8c2.1,11.8,20.3,115.2,15.8,126.9
				C259.4,1102.9,216.1,1114.8,178.7,1118.8L178.7,1118.8z"/>
			<path class="st1" d="M247.6,959.3c0,0,20.4,114.3,15.9,125.8c-5.8,15.1-45.6,27.3-85.1,31.4c-39.8,4.2-79.3,0.2-83.4-17.3
				c-7-29.5-11.2-91.3-14.4-121.8l29.5-3.2l3.7,35.2L223.5,998l-3.7-35.6L247.6,959.3 M247.2,955L247.2,955l-27.9,3
				c-2.8,0.3-4.8,2.5-4.6,4.9l3.3,31.2l-99.5,10.5l-3.2-30.8c-0.1-1.2-0.8-2.2-1.8-2.9s-2.4-1-3.7-0.9l0,0l-29.5,3.2
				c-2.8,0.3-4.8,2.5-4.6,4.9c0.8,7.4,1.6,16.8,2.5,26.7c2.9,32.5,6.6,72.9,12,95.5c5.1,21.6,49.2,24.8,88.8,20.7
				c39.5-4.1,82.5-16.4,89.4-34.5c4.6-12-12.3-108.7-15.7-127.9C252.3,956.3,249.8,954.7,247.2,955L247.2,955z"/>
		</g>
		<g class="st16">
			<g>
				<path class="st8" d="M247.6,959.3l-11.8,1.3c4.9,28.3,17.8,106.2,14.1,115.6c-9.6,24.9-112.4,42-152.7,27.7
					c20.1,28.3,155.2,10,166.3-18.8C268,1073.7,247.6,959.3,247.6,959.3z"/>
			</g>
		</g>
		<g>
			<path class="st6" d="M106,1019.1c-1.4,0.1-2.6-0.7-2.8-1.9l-4.4-41.6c-0.1-1.2,0.9-2.3,2.3-2.5l10.1-1.1c0.7-0.1,1.3,0.1,1.9,0.5
				c0.5,0.4,0.8,0.9,0.9,1.5l3.2,30.3l104.2-10.9l-3.2-30.8c-0.1-1.2,0.9-2.3,2.3-2.5l10.1-1.1c1.4-0.1,2.6,0.7,2.8,1.9l4.4,42.2
				c0.1,1.2-0.9,2.3-2.3,2.5L106,1019.1z"/>
			<path class="st1" d="M230.8,961.1l4.4,42.2l-129.5,13.6l-4.4-41.6l10.1-1.1l3.4,32.5L224,995.2l-3.5-33L230.8,961.1 M230.4,956.7
				l-10.1,1.1c-2.8,0.3-4.9,2.5-4.6,4.9l3,28.7l-99.1,10.4l-3-28.1c-0.1-1.2-0.8-2.2-1.8-2.9s-2.4-1-3.7-0.9l0,0L101,971
				c-2.8,0.3-4.8,2.5-4.6,4.9l4.4,41.6c0.3,2.4,2.7,4.1,5.5,3.8l129.5-13.6c2.8-0.3,4.9-2.5,4.6-4.9l-4.4-42.2
				C235.7,958.2,233.2,956.4,230.4,956.7L230.4,956.7z"/>
		</g>
		<g>
			<path class="st5" d="M178.2,1083c-39.7,4.2-72.2-5.2-73.9-21.3s28.1-32.1,67.8-36.2c39.7-4.2,72.2,5.2,73.9,21.3
				C247.7,1062.9,217.9,1078.8,178.2,1083z"/>
			<path class="st1" d="M172.4,1027.6c37.7-4,69.6,4.7,71.1,19.4c1.5,14.7-27.8,29.8-65.5,33.8s-69.6-4.7-71.1-19.4
				C105.3,1046.7,134.6,1031.6,172.4,1027.6 M171.9,1023.2c-18.9,2-36.5,6.8-49.5,13.5c-14.2,7.3-21.5,16.3-20.6,25.2
				c0.9,8.9,10,16.2,25.4,20.4c14.1,3.8,32.3,4.9,51.2,2.9c19-2,36.5-6.8,49.5-13.5c14.2-7.3,21.5-16.3,20.6-25.2
				c-0.9-8.9-10-16.2-25.4-20.4C209.1,1022.3,190.9,1021.2,171.9,1023.2L171.9,1023.2z"/>
		</g>
		<g class="st9">
			<g>
				<path class="st10" d="M86.4,987.7c1.2,11.7,2.5,23.4,3.7,35c0.4,3.5,6.7,2.9,6.3-0.7c-1.2-11.7-2.5-23.4-3.7-35
					C92.3,983.5,86,984.2,86.4,987.7L86.4,987.7z"/>
			</g>
			<g>
				<path class="st10" d="M91.6,1037.7c0,0.1,0,0.2,0,0.4c0.4,3.5,6.7,2.9,6.3-0.7c0-0.1,0-0.2,0-0.4
					C97.6,1033.5,91.3,1034.2,91.6,1037.7L91.6,1037.7z"/>
			</g>
		</g>
		<g class="st9">
			<path class="st10" d="M63.2,885.6c-1.3,3.1-1.2,6.1-1.1,9.3c0,1.9,2.1,3.2,4.2,3.1c2.2-0.2,3.7-1.9,3.7-3.7s-0.4-4,0.3-5.7
				c0.7-1.8,0.4-3.7-1.7-4.5C66.7,883.3,63.9,883.8,63.2,885.6L63.2,885.6z"/>
		</g>
		<g class="st9">
			<path class="st10" d="M86.8,860.1c-1.3,3.1-1.2,6.1-1.1,9.3c0,1.9,2.1,3.2,4.2,3.1c2.2-0.2,3.7-1.9,3.7-3.7s-0.4-4,0.3-5.7
				c0.7-1.8,0.4-3.7-1.7-4.5C90.3,857.8,87.5,858.4,86.8,860.1L86.8,860.1z"/>
		</g>
		<g class="st9">
			<path class="st10" d="M105.4,894.2c-1.3,3.1-1.2,6.1-1.1,9.3c0,1.9,2.1,3.2,4.2,3.1c2.2-0.2,3.7-1.9,3.7-3.7s-0.4-4,0.3-5.7
				c0.7-1.8,0.4-3.7-1.7-4.5C108.9,891.8,106.1,892.4,105.4,894.2L105.4,894.2z"/>
		</g>
		<g class="st9">
			<path class="st10" d="M131.1,914c-1.3,3.1-1.2,6.1-1.1,9.3c0,1.9,2.1,3.2,4.2,3.1c2.2-0.2,3.7-1.9,3.7-3.7s-0.4-4,0.3-5.7
				c0.7-1.8,0.4-3.7-1.7-4.5C134.6,911.7,131.8,912.2,131.1,914L131.1,914z"/>
		</g>
		<g class="st9">
			<path class="st10" d="M182.1,884.1c-1.3,3.1-1.2,6.1-1.1,9.3c0,1.9,2.1,3.2,4.2,3.1c2.2-0.2,3.7-1.9,3.6-3.7c0-1.8-0.4-4,0.3-5.7
				c0.7-1.8,0.4-3.7-1.7-4.5C185.6,881.7,182.8,882.3,182.1,884.1L182.1,884.1z"/>
		</g>
		<g class="st9">
			<path class="st10" d="M227.3,872.6c-1.3,3.1-1.2,6.1-1.1,9.3c0,1.9,2.1,3.2,4.2,3.1c2.2-0.2,3.7-1.9,3.6-3.7c0-1.8-0.4-4,0.3-5.7
				c0.7-1.8,0.4-3.7-1.7-4.5C230.9,870.3,228,870.9,227.3,872.6L227.3,872.6z"/>
		</g>
		<g class="st9">
			<path class="st10" d="M141.1,886.4c-1.3,3.1-1.2,6.1-1.1,9.3c0,1.9,2.1,3.2,4.2,3.1c2.2-0.2,3.7-1.9,3.6-3.7c0-1.8-0.4-4,0.3-5.7
				c0.7-1.8,0.4-3.7-1.7-4.5C144.7,884,141.8,884.6,141.1,886.4L141.1,886.4z"/>
		</g>
		<g class="st9">
			<path class="st10" d="M126,848.9c-1.3,3.1-1.2,6.1-1.1,9.3c0,1.9,2.1,3.2,4.2,3.1c2.2-0.2,3.7-1.9,3.7-3.7s-0.4-4,0.3-5.7
				c0.7-1.8,0.4-3.7-1.7-4.5C129.6,846.6,126.8,847.1,126,848.9L126,848.9z"/>
		</g>
		<g class="st9">
			<path class="st10" d="M159,849.4c-1.3,3.1-1.2,6.1-1.1,9.3c0,1.9,2.1,3.2,4.2,3.1c2.2-0.2,3.7-1.9,3.7-3.7s-0.4-4,0.3-5.7
				c0.7-1.8,0.4-3.7-1.7-4.5C162.6,847.1,159.8,847.7,159,849.4L159,849.4z"/>
		</g>
		<g class="st9">
			<path class="st10" d="M199.7,845.2c-1.3,3.1-1.2,6.1-1.1,9.3c0,1.9,2.1,3.2,4.2,3.1c2.2-0.2,3.7-1.9,3.7-3.7s-0.4-4,0.3-5.7
				c0.7-1.8,0.4-3.7-1.7-4.5C203.2,842.8,200.4,843.4,199.7,845.2L199.7,845.2z"/>
		</g>
	</g>
	<g>
		<g>
			<g>
				<path class="st1" d="M163.3,1054c0.4,3.9-2.9,7.4-7.4,7.9s-8.5-2.3-8.9-6.2c-0.4-3.9,2.9-7.4,7.4-7.9
					C158.9,1047.4,162.9,1050.1,163.3,1054z"/>
				<path class="st10" d="M153.8,1052c0.1,1.2-0.9,2.4-2.4,2.5c-1.4,0.2-2.7-0.7-2.8-2c-0.1-1.2,0.9-2.4,2.4-2.5
					C152.4,1049.9,153.7,1050.7,153.8,1052z"/>
				<path class="st10" d="M154,1055.4c0,0.5-0.3,0.9-0.9,0.9c-0.5,0.1-1-0.3-1.1-0.7c0-0.5,0.3-0.9,0.9-0.9
					C153.5,1054.6,154,1055,154,1055.4z"/>
				<path class="st10" d="M155.6,1053c0,0.3-0.2,0.6-0.6,0.6c-0.3,0-0.6-0.2-0.7-0.5c0-0.3,0.2-0.6,0.6-0.6
					C155.2,1052.5,155.5,1052.7,155.6,1053z"/>
				<path class="st11" d="M158.7,1061.6c0.1,0.9-3,1.9-6.9,2.3s-7.2,0-7.3-0.8c-0.1-0.9,3-1.9,6.9-2.3
					C155.4,1060.4,158.6,1060.8,158.7,1061.6z"/>
			</g>
			<g>
				<path class="st1" d="M206.2,1049.5c0.4,3.9-2.9,7.4-7.4,7.9s-8.5-2.3-8.9-6.2c-0.4-3.9,2.9-7.4,7.4-7.9
					C201.9,1042.9,205.8,1045.6,206.2,1049.5z"/>
				<path class="st10" d="M196.8,1047.5c0.1,1.2-0.9,2.4-2.4,2.5s-2.7-0.7-2.8-2c-0.1-1.2,0.9-2.4,2.4-2.5
					S196.7,1046.2,196.8,1047.5z"/>
				<path class="st10" d="M197,1050.9c0,0.5-0.3,0.9-0.9,0.9c-0.5,0.1-1-0.3-1.1-0.7c0-0.5,0.3-0.9,0.9-0.9
					C196.5,1050.1,196.9,1050.4,197,1050.9z"/>
				
					<ellipse transform="matrix(0.9945 -0.1044 0.1044 0.9945 -108.3833 26.3868)" class="st10" cx="197.9" cy="1048.5" rx="0.6" ry="0.5"/>
				<path class="st11" d="M209.9,1056.2c0.1,0.9-3,1.9-6.9,2.3s-7.2,0-7.3-0.8c-0.1-0.9,3-1.9,6.9-2.3
					C206.6,1055,209.9,1055.4,209.9,1056.2z"/>
			</g>
		</g>
		<g>
			<path class="st17" d="M194.4,1038.6c0,0,6.3-2.8,11.5,1.3"/>
			<path class="st17" d="M156.1,1042.6c0,0-6.7-1.4-11,3.7"/>
		</g>
		<g>
			<g>
				<path class="st11" d="M177.8,1065.7c-2.2,0.2-3.8-0.9-4.3-3c-0.7-3.3-0.5-5,0.7-5.4c0.4-0.2,1.1-0.3,1.9-0.4
					c0.5,0,0.9-0.1,1.3-0.1c0.3,0,0.7,0,0.9-0.1c2.1-0.2,2.3,1.1,2.4,2c0,0.2,0,0.4,0.1,0.6l0.1,0.3c0.3,1.5,0.6,3.6-0.6,4.9
					C179.8,1065.2,179,1065.6,177.8,1065.7z"/>
				<path class="st1" d="M176.3,1057.5c0.8-0.1,1.7-0.1,2.3-0.2l0,0l0,0c1.7-0.2,1.4,0.8,1.6,2.1c0.3,2,1.1,5.3-2.4,5.7
					c-1.9,0.2-3.1-0.8-3.5-2.5c-0.2-0.7-0.9-4.3,0.3-4.7C175,1057.7,175.6,1057.6,176.3,1057.5 M176.2,1056.2
					c-0.9,0.1-1.6,0.2-2.1,0.4c-2.1,0.7-1.8,3.5-1.2,6.1c0.5,2.5,2.5,3.9,5.1,3.6c1.3-0.1,2.4-0.6,3.1-1.4c1.4-1.6,1-3.8,0.7-5.4
					l-0.1-0.3c0-0.2-0.1-0.4-0.1-0.6c-0.1-0.8-0.3-2.8-3.1-2.5l0,0c-0.3,0-0.6,0.1-0.9,0.1C177.1,1056.2,176.6,1056.2,176.2,1056.2
					L176.2,1056.2z"/>
			</g>
			<g>
				<path class="st17" d="M171.5,1057.1c0.1,0.2,10.8-0.9,10.8-1.1"/>
			</g>
			<line class="st17" x1="177" y1="1057.8" x2="177.4" y2="1061.2"/>
		</g>
	</g>
</g>
<g>
	<g>
		<g>
			<path class="st18" d="M330.5,1522.4c-39.8-5-60.8-22.4-60.8-27.5l4.3-214.2c0-4,1.6-7.8,4.4-10.4c2.7-2.4,6.2-3.5,10-3.1
				l145.6,18.1c3.7,0.5,6.9,2.4,8.9,5.4c2.1,3.1,2.7,7.2,1.7,11.2l-48.3,208.6C394.7,1516.3,367.6,1527,330.5,1522.4z"/>
			<path class="st1" d="M433.6,1287.6c6.6,0.8,10.6,7.1,8.8,13.9l-48.3,208.7c-0.9,3.4-25.7,14.9-63.4,10.2
				c-39.5-4.9-59-21.9-59-25.4l4.3-214.2c0-7.1,5.4-12.2,12-11.3l144.6,18 M434.2,1283.1L288.6,1265c-4.3-0.5-8.4,0.7-11.6,3.6
				c-3.3,2.9-5.1,7.3-5.1,12l-4.3,214.1c0,7.8,23.9,24.9,62.7,29.7c21,2.6,37.2,0.3,47-2.1c4.5-1.1,19.4-5.2,21-11.2l48.3-208.8
				c1.1-4.4,0.4-9.1-2-12.8C442.2,1285.8,438.5,1283.6,434.2,1283.1L434.2,1283.1z"/>
		</g>
		<g>
			<path class="st18" d="M433.6,1287.6l-4.5-0.6l-47.9,206.8c-0.9,3.4-25.7,14.9-63.4,10.2c-20.9-2.6-36.2-8.6-45.9-14.2l-0.1,5.1
				c0,3.5,19.4,20.5,59,25.4c37.7,4.7,62.5-6.8,63.4-10.2l48.3-208.7C444.2,1294.7,440.3,1288.4,433.6,1287.6z"/>
		</g>
		<g>
			<path class="st19" d="M356.8,1316.4c-38.4-4.8-94.9-17.2-93.1-31.9l2.2-17.9c0.1-1.2,1.2-2,2.4-1.9l187,23.3
				c1.2,0.1,2,1.2,1.8,2.4l-2.2,17.9C453,1322.9,395.2,1321.2,356.8,1316.4z"/>
			<path class="st1" d="M454.9,1290.2l-2.2,17.9c-1.2,9.9-44,12.7-95.6,6.3c-51.6-6.4-92.4-19.6-91.2-29.5l2.2-17.9L454.9,1290.2
				 M455.4,1288l-187.3-23.3c-2.3-0.3-4.4,1.4-4.7,3.7l-2.2,17.9c-0.6,4.7,1.8,11.9,28.8,20.7c17.5,5.7,41.1,10.5,66.3,13.7
				c25.3,3.1,49.3,4.2,67.7,3c28.3-1.8,32.4-8.3,32.9-13l2.2-17.9C459.3,1290.4,457.7,1288.3,455.4,1288L455.4,1288z"/>
		</g>
		<g>
			<path class="st20" d="M358.2,1299.5c-38.4-4.8-94.9-17.2-93.1-31.9c1.8-14.7,59.7-12.9,98.1-8.1s94.9,17.2,93.1,31.9
				C454.5,1306.1,396.6,1304.3,358.2,1299.5z"/>
			<path class="st1" d="M362.9,1261.6c51.6,6.4,92.5,19.7,91.3,29.5c-1.2,9.9-44.1,12.7-95.7,6.3c-51.6-6.4-92.5-19.6-91.3-29.5
				C268.4,1258,311.3,1255.2,362.9,1261.6 M363.5,1257.4c-25.2-3.1-49.2-4.2-67.6-3c-28.3,1.8-32.3,8.3-32.9,13s1.8,11.9,28.7,20.7
				c17.5,5.7,41,10.5,66.2,13.6s49.2,4.2,67.6,3c28.3-1.8,32.3-8.3,32.9-13s-1.8-11.9-28.7-20.7
				C412.2,1265.3,388.7,1260.5,363.5,1257.4L363.5,1257.4z"/>
		</g>
		<g>
			<path class="st19" d="M359.4,1289.8c-24.3-3-69.9-11.9-68.1-23.9c0.1-0.2,0.2-0.4,0.2-0.6l12.4-22.3c0.4-0.7,1.2-1.2,2.1-1.1
				l117,14.6c0.8,0.1,1.5,0.7,1.7,1.5l6.5,24.7c0,0.2,0,0.5,0.1,0.7C430.1,1295.4,383.7,1292.9,359.4,1289.8z"/>
			<path class="st1" d="M422.7,1258.7l6.5,24.7c-0.9,7.2-32,9.2-69.5,4.5s-67.2-14.3-66.3-21.5l12.4-22.3L422.7,1258.7
				 M423.3,1254.2l-117-14.6c-1.7-0.2-3.3,0.6-4.1,2.1l-12.4,22.3c-0.2,0.4-0.4,0.8-0.5,1.2c-1,6.2,5.6,11.3,21.5,16.4
				c12.8,4.1,29.9,7.7,48.3,10s35.9,3.1,49.3,2.2c16.7-1.1,24.3-4.4,24.9-10.7c0-0.4,0-0.9-0.1-1.3l-6.5-24.7
				C426.3,1255.6,424.9,1254.4,423.3,1254.2L423.3,1254.2z"/>
		</g>
		<g>
			<path class="st20" d="M362.7,1263.9c-20.8-2.6-59.9-10.1-58.7-19.9c1.2-9.8,40.9-7.5,61.8-4.9c20.8,2.6,59.9,10.1,58.7,19.9
				C423.2,1268.8,383.5,1266.5,362.7,1263.9z"/>
			<path class="st1" d="M365.5,1240.9c32.3,4,57.9,12.1,57.2,17.9c-0.7,5.9-27.5,7.4-59.8,3.4s-57.9-12-57.2-17.9
				C306.4,1238.3,333.2,1236.8,365.5,1240.9 M366,1237.4c-15.8-2-30.9-2.7-42.4-2c-14.1,0.8-20.7,3.4-21.3,8.5
				c-0.6,5.1,5.1,9.2,18.6,13.4c11,3.4,25.8,6.4,41.6,8.4c15.8,2,30.9,2.7,42.4,2c14.1-0.8,20.7-3.4,21.3-8.5
				c0.6-5.1-5.1-9.2-18.6-13.4C396.5,1242.3,381.8,1239.3,366,1237.4L366,1237.4z"/>
		</g>
		<g>
			<path class="st21" d="M342.5,1467.6c-25.9-3.2-51.7-8.6-76.8-16c-1-0.3-1.7-1.2-1.7-2.3l2.3-104.4c0-0.7,0.4-1.4,0.9-1.8
				s1.1-0.5,1.6-0.4c0.1,0,0.2,0,0.4,0.1c30.7,9.1,58.9,15.2,86.3,18.7c24.5,3,49.9,4.2,77.8,3.4c0.1,0,0.2,0,0.3,0
				c0.6,0.1,1.1,0.4,1.5,0.8c0.5,0.6,0.6,1.3,0.5,2l-23.3,101.7c-0.2,1-1.2,1.8-2.2,1.8C387.6,1471.6,364.8,1470.4,342.5,1467.6z"/>
			<path class="st1" d="M268.7,1345c26.2,7.8,55.5,14.8,86.7,18.7c27.3,3.4,53.7,4.1,78.1,3.5l-23.3,101.7
				c-21.4,0.4-44.1-0.7-67.5-3.6c-27.2-3.4-52.9-9-76.4-15.9L268.7,1345 M269.3,1340.3c-1.2-0.1-2.3,0.2-3.3,0.9
				c-1.2,0.9-1.9,2.2-1.9,3.7l-2.3,104.4c0,2.1,1.3,4,3.3,4.6c25.2,7.4,51.1,12.9,77.1,16.1c22.5,2.8,45.4,4,68.1,3.6
				c2.1,0,4-1.5,4.4-3.6l23.3-101.7c0.3-1.4,0-2.9-0.9-4c-0.8-0.9-1.8-1.5-3-1.7c-0.2,0-0.5,0-0.7,0c-27.8,0.7-53.1-0.4-77.5-3.4
				c-27.3-3.4-55.4-9.5-86-18.6C269.8,1340.4,269.5,1340.3,269.3,1340.3L269.3,1340.3z"/>
		</g>
		<g>
			<g>
				<path class="st21" d="M408.3,1367.1l-22.4,101.5c6.2,0.1,18.2,0.4,24.3,0.2l23.3-101.7C427.5,1367.4,414.6,1367.1,408.3,1367.1z
					"/>
			</g>
		</g>
		<g class="st9">
			<g>
				<path class="st10" d="M281,1328.2c-0.8,28.7-1.6,57.4-2.4,86.2c-0.2,7.1,10.9,8.5,11.1,1.4c0.8-28.7,1.6-57.4,2.4-86.2
					C292.3,1322.5,281.2,1321,281,1328.2L281,1328.2z"/>
			</g>
			<g>
				<path class="st10" d="M282.3,1441.5c7.2,0.9,8.5-10.1,1.4-11C276.5,1429.6,275.1,1440.6,282.3,1441.5L282.3,1441.5z"/>
			</g>
		</g>
	</g>
	<g>
		<g>
			<g>
				<path class="st11" d="M320.9,1421.7c-0.2,1.4-4.7,2-10.2,1.3s-9.7-2.4-9.6-3.8c0.2-1.4,4.7-2,10.2-1.3
					C316.8,1418.6,321,1420.3,320.9,1421.7z"/>
			</g>
			<g>
				<path class="st11" d="M392,1430.5c-0.2,1.4-4.7,2-10.2,1.3s-9.7-2.4-9.6-3.8c0.2-1.4,4.7-2,10.2-1.3S392.2,1429.1,392,1430.5z"
					/>
			</g>
		</g>
		<g>
			<path class="st22" d="M377,1397.1c0,0,9.5-2.3,15.1,6.1"/>
			<path class="st22" d="M323.8,1390.5c0,0-8.6-4.5-16.1,2.2"/>
		</g>
		<g>
			<path class="st22" d="M310.4,1414.8c1.9-5.7,5.2-9.5,8.5-9.1c3.2,0.4,5.5,4.8,6,10.7"/>
			<path class="st22" d="M370.1,1422.3c1.9-5.7,5.2-9.5,8.5-9.1c3.2,0.4,5.5,4.8,6,10.7"/>
		</g>
		<path class="st22" d="M355.5,1417.2c-0.5,4.4-4.5,7.5-8.8,7s-7.4-4.5-6.9-8.9"/>
		<g>
			<g>
				<g>
					<path class="st11" d="M357,1425.9c-0.5-0.1-0.9-0.2-1.4-0.5c-1.6-1-3.1-2.1-2.6-3.2c0.2-0.6,0.7-1.2,1.2-1.8l0.3-0.4
						c0.4-0.5,0.9-0.8,1.4-0.7c0.4,0.1,0.7,0.3,1.1,0.5l0.5,0.4c0.9,0.6,2.2,1.5,2.4,2.8c0.1,0.7-0.1,1.3-0.5,1.9
						C358.8,1425.6,358,1426,357,1425.9L357,1425.9z"/>
					<path class="st1" d="M355.8,1420c0.3,0,0.6,0.4,1.1,0.7c1.1,0.8,3.2,2,1.9,3.7c-0.5,0.6-1,0.9-1.7,0.8c-0.3,0-0.7-0.2-1.1-0.4
						c-0.4-0.3-2.6-1.6-2.3-2.3c0.2-0.6,1-1.5,1.4-2C355.4,1420,355.6,1419.9,355.8,1420 M356,1418.4c-0.6-0.1-1.4,0.1-2.1,1
						c-0.1,0.1-0.2,0.3-0.3,0.4c-0.5,0.6-1,1.3-1.3,2c-0.8,1.9,1.7,3.4,2.9,4.2c0.6,0.4,1.2,0.6,1.7,0.6c1.2,0.1,2.3-0.4,3.1-1.4
						c0.7-1,0.8-1.9,0.7-2.5c-0.3-1.6-1.8-2.6-2.8-3.3l-0.2-0.1c-0.1-0.1-0.2-0.1-0.3-0.2C357.1,1418.8,356.6,1418.5,356,1418.4
						L356,1418.4z"/>
				</g>
			</g>
			<line class="st23" x1="354.7" y1="1421.3" x2="356.7" y2="1422.7"/>
		</g>
	</g>
	<g>
		<path class="st24" d="M365.5,1267.4c-6.8-0.9-13.6-2.5-19.9-4.2c-0.9-0.2-1.5-1-1.5-1.9c0-0.4,0-0.7,0-1
			c0.8-6.7,9.6-10.9,20.1-9.6c10.4,1.3,17.9,7.5,17.1,14.2c-0.1,0.5-0.2,1-0.4,1.5c-0.3,0.8-0.9,1.3-1.7,1.4
			C374.9,1268.1,370.4,1268,365.5,1267.4L365.5,1267.4z"/>
		<path class="st1" d="M364,1252.7c9.2,1.1,16.1,6.5,15.4,12c0,0.4-0.1,0.8-0.3,1.2c-4.6,0.3-9,0.1-13.4-0.4
			c-6.6-0.8-13-2.4-19.6-4.1c0-0.3,0-0.5,0-0.8C346.9,1255.1,354.9,1251.5,364,1252.7 M364.5,1248.7c-11.5-1.4-21.3,3.5-22.2,11.3
			c-0.1,0.4-0.1,0.8-0.1,1.2c0,1.8,1.2,3.4,2.9,3.9c6.4,1.7,13.2,3.3,20.1,4.2c5,0.6,9.6,0.8,14.1,0.5c1.6-0.1,3-1.2,3.5-2.7
			c0.2-0.7,0.4-1.3,0.4-1.9C384.3,1257.4,376,1250.2,364.5,1248.7L364.5,1248.7z"/>
	</g>
	<g>
		<path class="st25" d="M361.3,1274.5c-9.8-1.2-17.1-6.9-17.1-13.2c0-0.6,0.3-1.2,0.8-1.6c0.4-0.3,0.9-0.5,1.4-0.4
			c0.1,0,0.2,0,0.2,0c6.2,1.6,12.8,3.2,19.4,4.1c4.6,0.6,8.9,0.7,13,0.4c0.1,0,0.3,0,0.4,0c0.5,0.1,1,0.3,1.3,0.8
			c0.4,0.5,0.5,1.2,0.3,1.8C379.1,1272.3,370.8,1275.7,361.3,1274.5z"/>
		<path class="st1" d="M346.2,1261.3c6.6,1.7,13,3.3,19.6,4.1c4.4,0.5,8.8,0.8,13.4,0.4c-1.6,4.8-9.1,7.8-17.6,6.7
			C352.8,1271.5,346.2,1266.5,346.2,1261.3 M379,1264.7L379,1264.7 M346.6,1258c-1-0.1-2.1,0.2-2.9,0.8c-1,0.8-1.5,1.9-1.5,3.2
			c0,7.4,7.9,13.8,18.8,15.2c10.3,1.3,19.3-2.6,21.7-9.1c0.1-0.3,0.2-0.7,0.3-1c0.3-2.2-1.2-4.2-3.4-4.4l0,0h-0.1
			c-0.2,0-0.5,0-0.7,0c-4,0.3-8.1,0.1-12.6-0.4c-6.5-0.8-13-2.4-19.1-4C346.9,1258,346.7,1258,346.6,1258L346.6,1258z"/>
	</g>
</g>
</svg>
