<?xml version="1.0" encoding="utf-8"?>
<!-- Generator: Adobe Illustrator 24.1.0, SVG Export Plug-In . SVG Version: 6.00 Build 0)  -->
<svg version="1.1" id="Capa_1" xmlns="http://www.w3.org/2000/svg" xmlns:xlink="http://www.w3.org/1999/xlink" x="0px" y="0px"
	 viewBox="0 0 425.2 425.2" style="enable-background:new 0 0 425.2 425.2;" xml:space="preserve">
<style type="text/css">
	.st0{fill:#B6DCFF;}
	.st1{fill:none;stroke:#422918;stroke-width:1.4607;stroke-linecap:round;stroke-linejoin:round;stroke-miterlimit:10;}
	.st2{fill:#F9B62E;}
	.st3{fill:#422918;}
	.st4{fill:#FFD550;}
	.st5{fill:#B4D389;}
	.st6{opacity:0.5;}
	.st7{fill:#E74242;}
	.st8{opacity:0.6;}
	.st9{fill:#FFFFFF;}
	.st10{fill:#EC6F80;}
	.st11{fill:none;stroke:#422918;stroke-width:0.2384;stroke-linecap:round;stroke-linejoin:round;stroke-miterlimit:10;}
	.st12{fill:#EC6F80;stroke:#422918;stroke-width:0.2384;stroke-linecap:round;stroke-linejoin:round;stroke-miterlimit:10;}
	.st13{fill:none;stroke:#422918;stroke-width:1.3677;stroke-linecap:round;stroke-linejoin:round;stroke-miterlimit:10;}
	.st14{fill:#C6C6C5;}
	.st15{fill:#F5F5F5;}
	.st16{fill:#D9D9D9;}
	.st17{fill:#9C2F2A;}
	.st18{fill:#F49B43;}
	.st19{fill:none;stroke:#422918;stroke-width:0.5108;stroke-linecap:round;stroke-linejoin:round;stroke-miterlimit:10;}
	.st20{fill:#DF8F3E;}
	.st21{fill:#F7AC47;}
	.st22{fill:none;stroke:#422918;stroke-width:0.6221;stroke-linecap:round;stroke-linejoin:round;stroke-miterlimit:10;}
</style>
<path class="st0" d="M129.8,377.5c31.2,14.4,71.1,18.3,102.4-2.8c27.5-18.5,43-46.6,75.3-59.2c29.1-11.4,62.9-14.8,83.6-40.3
	c12.3-15.2,16.8-35.2,13.2-53.1c-7-34.5-56.7-52.3-52.9-89.3c1.2-11.9,7.7-22.9,13.1-34c13.9-28.5,5.2-55.1-29.7-59.1
	c-23.4-2.6-47.6,5.8-70.6,10.8c-13.6,2.9-27.2,8.4-41.1,9c-28.8,1.1-54.2-12.1-84-9.9c-43.8,3.3-110,28.5-112,78
	c-1.3,32.5,32,51.8,52.8,71.7c31.6,30.2-5.7,71.9-4.3,107.4C76.6,338.4,99.6,363.5,129.8,377.5z"/>
<g>
	<g>
		<g>
			<g>
				<path class="st1" d="M111.5,249.6c0,0-18.9,11.5-17.7,37.2L87,289"/>
			</g>
			<g>
				<path class="st1" d="M156,248.2c0,0-4.4,19.8,17,37.5l-3.1,5.7"/>
			</g>
		</g>
		<g>
			<g>
				<path class="st1" d="M49,189.1c0,0,0.9,38.6,33.4,21.9"/>
			</g>
			<g>
				<line class="st1" x1="49.3" y1="187.9" x2="52.1" y2="184.4"/>
				<line class="st1" x1="49.3" y1="187.9" x2="48.2" y2="183.8"/>
				<line class="st1" x1="49.3" y1="187.9" x2="45" y2="186"/>
			</g>
		</g>
		<g>
			<g>
				<g>
					<g>
						<g>
							<path class="st2" d="M113,196.7c-2.6,0-4.5-1.1-5.5-3.2c-0.3-0.6-0.6-1.1-0.9-1.7c-0.8-1.4-1.6-2.9-2-4.4
								c-1.5-5.1-11.7-41.9-14.7-55.4l-0.9-3.9c-1.3-5.9-2.7-12.1-3.5-18l-0.1-0.5c-0.4-3.5-0.7-5.8,3.4-8.3
								c1.3-0.8,5.7-3.1,8.8-3.1c0.9,0,1.7,0.2,2.2,0.6c1.3,0.9,3.9,9.3,11.7,38.9c1.8,6.8,3.3,12.6,4,14.5c1.1,3.4,2,7,2.8,10.4
								c0.6,2.5,1.3,5,2,7.5l0.7,2.3c1.4,4.8,2.8,9.9,3.7,14.9c0.1,0.3,0.2,0.8,0.3,1.3c0.6,2.1,1,3.6,0.6,4.6
								c-0.8,1.9-3.6,2.2-5.4,2.3c-0.3,0-0.6,0.1-0.8,0.1c-0.7,0.1-1.4,0.2-2.1,0.4C115.9,196.4,114.4,196.7,113,196.7z"/>
							<g>
								<path class="st3" d="M97.6,99.3c0.6,0,1.1,0.1,1.5,0.4c2,1.3,13.3,46.5,15.3,52.9c1.9,5.9,3.1,11.9,4.8,17.9
									c1.6,5.7,3.4,11.3,4.4,17.1c0.2,1.2,1.4,4.3,1,5.4c-0.6,1.6-3.9,1.5-5.3,1.7c-2,0.3-4.2,0.9-6.2,0.9c-1.8,0-3.4-0.6-4.4-2.5
									c-1-2-2.3-3.9-2.9-6c-1.4-4.8-11.6-41.7-14.7-55.3c-1.6-7.1-3.4-14.6-4.3-21.7c-0.5-3.8-0.9-5.6,2.8-7.8
									C91,101.4,95,99.3,97.6,99.3 M97.6,97.2L97.6,97.2c-3.4,0-8,2.4-9.4,3.3c-4.7,2.8-4.3,5.7-3.9,9.3l0.1,0.5
									c0.7,6,2.1,12.1,3.5,18.1c0.3,1.3,0.6,2.6,0.9,3.9c3,13.5,13.2,50.3,14.7,55.4c0.5,1.6,1.3,3.2,2.1,4.6
									c0.3,0.6,0.6,1.1,0.9,1.7c0.9,1.7,2.7,3.8,6.6,3.8c1.5,0,3.1-0.3,4.5-0.6c0.7-0.1,1.4-0.3,2-0.4c0.2,0,0.5-0.1,0.8-0.1
									c2-0.2,5.4-0.5,6.5-3c0.5-1.2,0.1-2.9-0.5-5.2c-0.1-0.5-0.3-0.9-0.3-1.2c-0.9-5.1-2.4-10.1-3.8-15l-0.7-2.3
									c-0.7-2.5-1.3-5-2-7.5c-0.9-3.4-1.7-7-2.8-10.4c-0.6-1.9-2.2-7.8-4-14.5c-9.3-35-10.7-38.5-12.2-39.5
									C99.8,97.5,98.8,97.2,97.6,97.2L97.6,97.2z"/>
							</g>
						</g>
					</g>
					<g>
						<g>
							<path class="st4" d="M123.6,187.6c-1-5.8-2.8-11.5-4.4-17.1c-1.7-5.9-2.9-12-4.8-17.9c-2-6.4-13.3-51.6-15.3-52.9
								c-0.8-0.5-2.1-0.4-3.5-0.1c3.3,8.7,12.6,45.4,14.4,51.1c1.9,5.9,3.1,11.9,4.8,17.9c1.6,5.7,3.3,11.3,4.4,17.1
								c0.2,1.2,1.4,4.3,1,5.4c-0.6,1.6-3.9,1.5-5.3,1.7c-1.8,0.2-3.9,0.8-5.7,0.9c2.2,3.2,6.6,1.5,10.2,1c1.5-0.2,4.7-0.2,5.3-1.7
								C125,192,123.8,188.8,123.6,187.6z"/>
						</g>
					</g>
				</g>
				<g>
					<g>
						<g>
							<path class="st2" d="M148.5,198.1c-2.5,0-4-0.5-4.8-1.5c-0.9-1.2-0.3-9.8,2.8-40.2c0.7-6.9,1.3-12.9,1.4-14.9
								c0.2-3.5,0.6-7.1,1-10.6c0.3-2.6,0.6-5.1,0.8-7.7l0.2-2.6c0.4-4.9,0.8-10,1.8-15c0.1-0.3,0.1-0.8,0.2-1.4
								c0.2-2.1,0.4-3.7,1.1-4.5c0.7-0.7,1.7-1.1,3-1.1c1,0,2.1,0.2,3,0.4c0.3,0.1,0.6,0.1,0.8,0.2c0.7,0.1,1.4,0.2,2.1,0.2
								c3.3,0.3,7.9,0.7,8.3,5.2c0.3,2.6-3.4,50.2-5.3,63.3l-0.5,3.8c-0.8,6-1.7,12.2-3.1,18.1l-0.1,0.5c-0.8,3.4-1.4,5.7-6.2,6.9
								C153.9,197.5,151.1,198.1,148.5,198.1z"/>
							<path class="st3" d="M156,99.7c1.3,0,2.7,0.4,3.6,0.5c3.8,0.5,9,0,9.4,4.4c0.2,2.1-3.3,49.3-5.3,63.1c-1,7.1-2,14.8-3.7,21.8
								c-0.9,3.7-1.1,5.6-5.5,6.7c-1.2,0.3-3.8,0.8-6.2,0.8c-1.7,0-3.2-0.3-3.8-1.1c-1.4-1.8,4.1-47.8,4.4-54.4
								c0.3-6.1,1.4-12.2,1.9-18.3c0.5-5.8,0.9-11.7,2-17.5c0.2-1.2,0.2-4.5,1-5.4C154.4,99.9,155.2,99.7,156,99.7 M156,97.6
								L156,97.6c-2.2,0-3.3,0.8-4,1.5c-0.9,1-1.1,2.7-1.4,5c0,0.5-0.1,1-0.1,1.3c-0.9,5-1.4,10.2-1.8,15.1l-0.2,2.6
								c-0.2,2.6-0.5,5.2-0.8,7.7c-0.4,3.5-0.9,7.1-1.1,10.7c-0.1,2-0.7,8-1.4,14.9c-3.7,35.8-3.6,39.5-2.6,40.9c1,1.3,2.9,2,5.8,2
								c2.7,0,5.6-0.6,6.8-0.9c5.5-1.4,6.2-4.2,7-7.7l0.1-0.5c1.4-5.9,2.3-12.1,3.2-18.2c0.2-1.3,0.4-2.6,0.5-3.8
								c1.9-13.1,5.6-60.9,5.3-63.5c-0.5-5.4-6.1-5.8-9.4-6.1c-0.7-0.1-1.4-0.1-2-0.2c-0.2,0-0.5-0.1-0.8-0.1
								C158.3,97.8,157.2,97.6,156,97.6L156,97.6z"/>
						</g>
					</g>
					<g>
						<g>
							<path class="st4" d="M163.8,167.7c2-13.8,5.5-60.9,5.3-63.1c-0.3-2.6-2.1-3.5-4.3-3.9c0.1,0.3,0.2,0.6,0.2,0.9
								c0.2,2.1-3.3,49.3-5.3,63.1c-1,7.1-2,14.8-3.7,21.8c-0.9,3.7-1.1,5.6-5.5,6.7c-1.2,0.3-3.8,0.8-6.1,0.8c0,1,0.1,1.7,0.2,1.9
								c1.5,1.9,8,0.8,10,0.3c4.3-1.1,4.5-3,5.5-6.7C161.8,182.5,162.7,174.9,163.8,167.7z"/>
						</g>
					</g>
				</g>
				<g>
					<g>
						<g>
							<path class="st4" d="M98,212.3c-6.9,0-9.4-12.1-11.2-20.9c-0.3-1.6-0.6-3-0.9-4.2c-0.2-0.9-0.7-2.9-1.5-5.7
								c-3.9-15-12.9-50.1-13.5-59.2c-0.4-6.2,4.7-9.8,9-11c0.7-0.2,1.4-0.3,2.1-0.3c5,0,6.8,5.5,7.9,14.5c1.1,9,5.1,25.8,8.7,40.7
								c1.8,7.6,3.5,14.8,4.5,19.6l0.4,2.1c1.3,6,3.1,14.3,1.4,19.9c-0.8,2.8-4.1,4.1-6,4.4C98.7,212.3,98.3,212.3,98,212.3z"/>
							<g>
								<path class="st3" d="M82.1,112c3.7,0,5.5,4.1,6.7,13.5c1.8,13.8,10.4,46.6,13.2,60.4c1.2,6,3.7,15.5,1.9,21.5
									c-0.7,2.3-3.5,3.4-5,3.6c-0.3,0-0.5,0.1-0.8,0.1c-7,0-9.2-17-10.9-24.2c-1.4-5.6-14.3-54-14.9-64.8c-0.3-6.1,4.8-9,8.2-9.9
									C81,112.1,81.5,112,82.1,112 M82.1,109.9L82.1,109.9c-0.8,0-1.6,0.1-2.4,0.3c-4.8,1.3-10.3,5.2-9.9,12.1
									c0.5,9.3,9.6,44.4,13.5,59.4c0.7,2.8,1.2,4.8,1.5,5.7c0.3,1.2,0.6,2.6,0.9,4.1c2,9.7,4.5,21.8,12.4,21.8
									c0.4,0,0.8,0,1.3-0.1c2.1-0.4,5.9-1.9,6.9-5.2c1.7-5.9-0.1-14.2-1.4-20.4l-0.4-2.1c-1-4.8-2.7-12-4.5-19.7
									c-3.5-14.8-7.5-31.7-8.7-40.6C90.2,117.5,88.6,109.9,82.1,109.9L82.1,109.9z"/>
							</g>
						</g>
					</g>
					<g>
						<g>
							<path class="st4" d="M102,186c-2.8-13.8-11.4-46.6-13.2-60.4c-1.3-10.6-3.4-14.4-8-13.4c2.3,1.4,3.6,5.5,4.6,13
								c1.8,13.8,10.4,46.6,13.2,60.4c1.2,6,3.6,15.5,1.9,21.5c-0.6,2-2.9,3.1-4.5,3.5c0.9,0.5,1.9,0.7,3,0.5c1.6-0.3,4.4-1.4,5-3.6
								C105.6,201.5,103.2,192,102,186z"/>
						</g>
					</g>
				</g>
				<g>
					<g>
						<g>
							<path class="st2" d="M122.1,196.3c-7.4,0-8.2-12.7-8.7-22c-0.1-1.6-0.2-3-0.3-4.2c-0.1-0.9-0.3-3-0.6-5.9
								c-1.6-15.3-5.4-51.1-4.6-60.3c0.6-6.2,6.1-9.2,10.6-9.9c0.5-0.1,0.9-0.1,1.3-0.1c1.5,0,2.7,0.4,3.7,1.3c2.2,1.9,3,6,2.8,14
								c-0.2,9.1,1.3,26.3,2.6,41.5c0.7,7.7,1.3,15,1.6,19.8l0.1,2.2c0.4,6.1,0.9,14.5-1.6,19.9c-1.2,2.7-4.7,3.6-6.6,3.7
								C122.4,196.3,122.1,196.3,122.1,196.3z"/>
							<g>
								<path class="st3" d="M119.8,95c4.2,0,5.5,4.2,5.3,14.2c-0.3,13.9,3.4,47.4,4.2,61.4c0.3,6.1,1.3,15.8-1.3,21.6
									c-1,2.2-4,2.9-5.5,3c-0.1,0-0.2,0-0.3,0c-7.5,0-7.1-17.8-7.8-25.3c-0.5-5.7-6.2-55.1-5.2-66c0.6-6.1,6.1-8.4,9.6-8.9
									C119.1,95,119.5,95,119.8,95 M119.8,92.9L119.8,92.9c-0.5,0-1,0-1.5,0.1c-5,0.7-11,4-11.6,10.8c-0.9,9.2,2.9,45.1,4.6,60.4
									c0.3,2.9,0.5,4.9,0.6,5.9c0.1,1.2,0.2,2.6,0.3,4.2c0.6,9.7,1.3,23,9.9,23c0.1,0,0.3,0,0.4,0c2.1-0.1,6.2-1.2,7.6-4.3
									c2.6-5.6,2-14.1,1.6-20.3l-0.1-2.2c-0.3-4.9-0.9-12.1-1.6-19.9c-1.3-15.2-2.8-32.4-2.6-41.4c0.2-8.4-0.7-12.6-3.1-14.8
									C123.2,93.4,121.7,92.9,119.8,92.9L119.8,92.9z"/>
							</g>
						</g>
					</g>
					<g>
						<g>
							<path class="st4" d="M129.3,170.6c-0.8-14-4.5-47.5-4.2-61.4c0.2-10.6-1.3-14.6-6-14.2c2.1,1.7,2.8,5.9,2.6,13.4
								c-0.3,13.9,3.4,47.4,4.2,61.4c0.3,6.1,1.3,15.8-1.3,21.6c-0.9,1.9-3.4,2.7-5,3c0.8,0.6,1.7,0.9,2.9,0.9
								c1.6-0.1,4.5-0.9,5.5-3C130.6,186.4,129.6,176.7,129.3,170.6z"/>
						</g>
					</g>
				</g>
				<g>
					<g>
						<g>
							<path class="st4" d="M93,222.1c-1.8,0-3.3-0.5-4.3-1.5c-2-2.1-2.3-6.3-0.9-14.4c1.6-9,2.7-26.2,3.7-41.4
								c0.5-7.7,1-15.1,1.5-19.9l0.2-2.1c0.5-6.1,1.3-14.5,4.6-19.6c1.4-2.1,4.3-2.9,6.6-2.9c0.2,0,0.4,0,0.5,0
								c1.4,0.1,2.6,0.6,3.6,1.6c3.7,3.8,2.7,13.9,2,21.3c-0.2,1.6-0.3,3-0.4,4.2c-0.1,0.9-0.1,2.9-0.3,5.7
								c-0.7,15.4-2.4,51.4-4.6,60.4c-1.5,6.1-7.4,8.4-12,8.5C93.2,222.1,93,222.1,93,222.1z"/>
							<g>
								<path class="st3" d="M104.4,121.3c0.2,0,0.3,0,0.4,0c7.8,0.5,4.6,18.4,4.1,26c-0.3,5.7-2.3,55.4-4.9,66
									c-1.5,6-7.3,7.6-10.9,7.7c-0.1,0-0.2,0-0.2,0c-4.9,0-5.8-4.2-3.9-14.8c2.4-13.8,3.9-47.4,5.2-61.3
									c0.6-6.1,1.1-15.8,4.6-21.2C100.1,121.8,102.7,121.3,104.4,121.3 M104.4,119.2c-2.6,0-6,0.9-7.6,3.4
									c-3.4,5.3-4.2,13.8-4.7,20l-0.2,2c-0.5,4.9-1,12.2-1.5,19.9c-1,15.2-2.2,32.3-3.7,41.3c-1.5,8.6-1.2,12.9,1.1,15.3
									c1.2,1.3,3,1.9,5.2,1.9l0.3,0c5-0.1,11.5-2.7,13.1-9.4c2.2-9.1,3.9-45.2,4.7-60.6c0.1-2.8,0.2-4.8,0.3-5.7
									c0.1-1.2,0.2-2.6,0.4-4.2c0.9-9.8,1.4-18.3-2.3-22.1c-1.2-1.2-2.7-1.9-4.4-2C104.8,119.2,104.6,119.2,104.4,119.2
									L104.4,119.2z"/>
							</g>
						</g>
					</g>
					<g>
						<g>
							<path class="st4" d="M108.9,147.3c0.4-6.7,2.9-21.4-1.8-25.1c1.5,6,0,16-0.4,21.3c-0.3,5.7-2.3,55.4-4.9,66
								c-1.5,6-7.3,7.6-10.8,7.7c-1.1,0-2-0.2-2.8-0.6c0.4,3.2,2,4.5,4.9,4.4c3.5-0.1,9.4-1.7,10.9-7.7
								C106.7,202.7,108.6,153,108.9,147.3z"/>
						</g>
					</g>
				</g>
				<g>
					<g>
						<g>
							<path class="st2" d="M153.5,198.9c-5,0-6.8-5.5-8.1-14.3c-1.3-9-5.7-25.7-9.6-40.5c-2-7.6-3.9-14.8-5-19.6l-0.5-2.1
								c-1.4-6-3.4-14.2-1.8-19.9c0.8-2.8,4.1-4.2,5.9-4.5c0.4-0.1,0.8-0.1,1.1-0.1c6.8,0,9.6,12,11.6,20.7c0.4,1.6,0.7,3,1,4.1
								c0.2,0.9,0.8,2.8,1.5,5.5c4.2,15,14.1,50,14.8,59.2c0.5,6.2-4.4,9.9-8.8,11.1C154.9,198.8,154.2,198.9,153.5,198.9z"/>
							<g>
								<path class="st3" d="M135.5,98.9c6.9,0,9.5,16.9,11.4,24c1.5,5.6,15.5,53.7,16.3,64.5c0.5,6.1-4.6,9.1-8,10.1
									c-0.6,0.2-1.2,0.3-1.8,0.3c-3.6,0-5.5-4-6.9-13.4c-2.1-13.8-11.4-46.4-14.6-60.2c-1.4-6-4-15.4-2.3-21.5
									c0.6-2.3,3.4-3.4,5-3.7C134.9,98.9,135.2,98.9,135.5,98.9 M135.5,96.8L135.5,96.8c-0.5,0-0.9,0-1.4,0.1
									c-2.1,0.4-5.9,2-6.8,5.3c-1.6,5.9,0.4,14.2,1.8,20.3l0.5,2.1c1.1,4.8,3,12,5,19.6c3.9,14.8,8.2,31.5,9.6,40.4
									c1.2,7.7,2.8,15.3,9.3,15.3c0.8,0,1.6-0.1,2.5-0.4c4.8-1.4,10.2-5.4,9.6-12.2c-0.7-9.3-10.6-44.4-14.9-59.4
									c-0.7-2.7-1.3-4.6-1.5-5.4c-0.3-1.1-0.6-2.6-1-4.1C146.1,108.8,143.3,96.8,135.5,96.8L135.5,96.8z"/>
							</g>
						</g>
					</g>
					<g>
						<g>
							<path class="st4" d="M146.9,122.9c-1.8-6.6-4-21.3-9.7-23.7c3.4,5.3,5.1,15.4,6.4,20.5c1.5,5.6,15.5,53.7,16.3,64.5
								c0.5,6.1-4.6,9.1-8,10.1c-1.1,0.3-2,0.3-2.8,0.1c1.4,2.9,3.4,3.8,6.2,3c3.3-1,8.4-4,8-10.1
								C162.4,176.6,148.4,128.5,146.9,122.9z"/>
						</g>
					</g>
				</g>
				<g>
					<g>
						<g>
							<path class="st4" d="M162.8,214.1c-1.2,0-2.4-0.3-3.4-0.6c-0.3-0.1-0.6-0.2-0.8-0.2c-0.7-0.1-1.4-0.3-2.1-0.4
								c-3.3-0.5-7.8-1.2-7.8-5.7c0-0.6,0-1.3-0.1-1.9c-0.1-1.6-0.2-3.2,0.1-4.8c0.8-4.5,7.7-42.2,11-56l0.9-4
								c1.4-5.9,2.8-12,4.7-17.6l0.2-0.5c1.1-3.4,1.9-5.6,6.8-6.5c1.2-0.2,3.2-0.4,5-0.4c3.3,0,5.4,0.6,6.2,1.9
								c0.8,1.3-0.6,9.8-6.4,39.8c-1.3,6.9-2.5,12.8-2.8,14.8c-0.5,3.5-1.3,7-2,10.4c-0.5,2.6-1.1,5.1-1.5,7.7l-0.4,2.4
								c-0.9,4.9-1.8,10-3.2,14.9c-0.1,0.3-0.2,0.8-0.3,1.3c-0.4,2.1-0.7,3.6-1.5,4.4C164.8,213.8,163.9,214.1,162.8,214.1z"/>
							<path class="st3" d="M177.3,116.5c2.2,0,4.5,0.3,5.1,1.4c1.2,1.9-8.4,47.4-9.4,53.9c-0.9,6.1-2.5,12.1-3.5,18.1
								c-1,5.8-1.9,11.6-3.6,17.3c-0.3,1.1-0.6,4.5-1.5,5.3c-0.4,0.4-1,0.5-1.7,0.5c-1.4,0-3-0.6-4-0.8c-3.7-0.8-9-0.6-9-5.1
								c0-2.2-0.3-4.4,0-6.5c0.8-4.9,7.7-42.4,11-56c1.7-7,3.3-14.6,5.6-21.5c1.2-3.6,1.6-5.5,6-6.3
								C173.5,116.8,175.4,116.5,177.3,116.5 M177.3,114.4L177.3,114.4c-2.1,0-4.2,0.2-5.3,0.4c-5.6,1-6.5,3.8-7.7,7.2l-0.2,0.5
								c-1.9,5.7-3.4,11.8-4.8,17.7c-0.3,1.3-0.6,2.7-0.9,4c-3.3,13.9-10.2,51.6-11,56.1c-0.3,1.7-0.2,3.4-0.1,5
								c0,0.6,0.1,1.3,0.1,1.9c0.1,5.4,5.5,6.3,8.8,6.8c0.7,0.1,1.4,0.2,2,0.4c0.2,0,0.5,0.1,0.8,0.2c1,0.3,2.4,0.6,3.8,0.6
								c1.8,0,2.9-0.7,3.5-1.2c1-1,1.4-2.6,1.8-4.9c0.1-0.5,0.2-1,0.2-1.3c1.4-5,2.3-10.1,3.2-15l0.4-2.4c0.5-2.6,1-5.2,1.5-7.7
								c0.7-3.4,1.5-6.9,2-10.5c0.3-2,1.5-7.9,2.8-14.8c6.9-35.4,7.2-39,6.3-40.5C183.5,115.2,181.1,114.4,177.3,114.4L177.3,114.4z
								"/>
						</g>
					</g>
					<g>
						<g>
							<path class="st4" d="M166,207.2c1.6-5.7,2.5-11.5,3.6-17.3c1.1-6,2.6-12,3.5-18.1c1-6.6,10.6-52.1,9.4-53.9
								c-0.5-0.8-1.7-1.1-3.2-1.3c-0.8,9.1-8.5,46.1-9.4,52c-0.9,6.1-2.5,12-3.5,18.1c-1,5.8-1.9,11.6-3.6,17.3
								c-0.3,1.1-0.6,4.5-1.5,5.3c-1.3,1.2-4.3,0.1-5.7-0.2c-1.8-0.4-3.9-0.5-5.7-1.1c0.6,3.7,5.5,3.6,8.9,4.4
								c1.4,0.3,4.4,1.5,5.7,0.2C165.4,211.7,165.7,208.4,166,207.2z"/>
						</g>
					</g>
				</g>
				<g>
					<g>
						<g>
							<path class="st4" d="M135.2,216.4c-3.2,0-5.2-1.2-6.1-3.7c-0.2-0.6-0.5-1.2-0.7-1.8c-0.6-1.5-1.2-3-1.5-4.6
								c-0.9-5.2-7.1-42.4-8.7-56.3l-0.4-3.8c-0.7-6.1-1.5-12.3-1.6-18.3l0-0.5c-0.1-3.5-0.1-5.8,4.2-8c1.3-0.7,5.5-2.4,8.5-2.4
								c1.2,0,2.1,0.3,2.8,0.8c1.2,1,2.8,9.5,7.5,39.7c1.1,6.9,2,12.8,2.4,14.8c0.7,3.5,1.2,7,1.7,10.5c0.4,2.6,0.7,5.2,1.2,7.7
								l0.4,2.5c0.9,4.9,1.7,10,2.1,15.1c0,0.3,0.1,0.8,0.2,1.3c0.4,2.1,0.6,3.7,0.1,4.6c-1,1.8-3.8,1.8-5.7,1.9c-0.3,0-0.6,0-0.9,0
								c-0.7,0-1.4,0.1-2.1,0.2C137.4,216.2,136.2,216.4,135.2,216.4z"/>
							<path class="st3" d="M128.8,118.1c0.8,0,1.5,0.1,1.9,0.5c1.8,1.5,8.2,47.4,9.5,53.9c1.2,6,1.8,12.1,2.8,18.2
								c1,5.8,2.1,11.6,2.5,17.4c0.1,1.2,0.9,4.4,0.4,5.4c-0.8,1.5-4,1.2-5.5,1.3c-1.7,0.1-3.6,0.5-5.4,0.5c-2.2,0-4.1-0.6-5-2.9
								c-0.8-2-1.8-4.1-2.2-6.2c-0.9-4.9-7.1-42.4-8.7-56.3c-0.8-7.2-1.9-14.8-2-22c-0.1-3.8-0.3-5.6,3.6-7.6
								C122.4,119.6,126.2,118.1,128.8,118.1 M128.8,116L128.8,116c-3.3,0-7.6,1.8-9,2.5c-5,2.5-4.9,5.3-4.9,8.9l0,0.5
								c0.1,6,0.8,12.3,1.6,18.4l0.4,3.8c1.6,14,7.8,51.2,8.7,56.4c0.3,1.7,1,3.3,1.6,4.8c0.2,0.6,0.5,1.2,0.7,1.7
								c1.1,2.9,3.5,4.4,7.2,4.4c1.2,0,2.3-0.1,3.5-0.3c0.7-0.1,1.4-0.2,2-0.2c0.2,0,0.5,0,0.8,0c2,0,5.4,0,6.8-2.5
								c0.7-1.2,0.4-2.8,0-5.2c-0.1-0.5-0.2-0.9-0.2-1.2c-0.4-5.1-1.2-10.2-2.1-15.2l-0.4-2.5c-0.4-2.6-0.8-5.2-1.2-7.7
								c-0.5-3.5-1-7-1.7-10.5c-0.4-2-1.3-7.9-2.4-14.8c-5.5-35.6-6.5-39.2-7.9-40.3C131.5,116.3,130.3,116,128.8,116L128.8,116z"/>
						</g>
					</g>
					<g>
						<g>
							<path class="st4" d="M145.6,208.2c-0.4-5.9-1.5-11.6-2.5-17.4c-1.1-6-1.6-12.2-2.8-18.2c-1.3-6.5-7.7-52.5-9.5-53.9
								c-0.7-0.6-2-0.6-3.5-0.4c2.4,8.9,7.6,46.2,8.8,52c1.2,6,1.8,12.1,2.8,18.2c1,5.8,2.1,11.6,2.5,17.4c0.1,1.2,0.9,4.4,0.4,5.4
								c-0.8,1.5-4,1.2-5.5,1.3c-1.8,0.1-3.9,0.5-5.8,0.4c1.8,3.4,6.4,2,10,1.8c1.5-0.1,4.7,0.2,5.5-1.3
								C146.6,212.6,145.7,209.3,145.6,208.2z"/>
						</g>
					</g>
				</g>
				<g>
					<g>
						<g>
							<path class="st4" d="M142,219.6c-1.9,0-3.3-0.4-4.1-1.3c-1-1.2-1.1-9.8-0.2-40.4c0.2-7.2,0.4-12.8,0.3-14.8
								c-0.1-3.6,0.1-7.2,0.3-10.7c0.1-2.6,0.2-5.2,0.3-7.7l0-2.4c0-5,0.1-10.1,0.7-15.2c0-0.3,0-0.8,0-1.3c0-2.1,0.1-3.7,0.8-4.5
								c0.7-0.8,1.8-1.3,3.4-1.3c0.9,0,1.8,0.1,2.5,0.2c0.3,0,0.6,0.1,0.9,0.1c0.7,0.1,1.4,0.1,2.1,0.1c3.3,0.1,7.9,0.2,8.7,4.7
								c0.4,2.2,0.4,49.2-0.7,63.5l-0.3,3.8c-0.4,6.1-0.8,12.4-1.8,18.3l-0.1,0.5c-0.6,3.5-0.9,5.8-5.6,7.3
								C147.7,218.9,144.5,219.6,142,219.6z"/>
							<path class="st3" d="M143.6,121c1.2,0,2.5,0.3,3.3,0.3c3.8,0.3,9-0.5,9.7,3.9c0.4,2.1,0.3,49.3-0.7,63.2
								c-0.5,7.2-0.9,14.9-2.1,22c-0.6,3.8-0.7,5.6-4.9,7c-1.3,0.4-4.4,1.2-6.9,1.2c-1.4,0-2.5-0.2-3.1-0.9
								c-1.5-1.7,0.6-47.9,0.4-54.6c-0.1-6.1,0.5-12.2,0.5-18.4c0.1-5.9,0-11.7,0.7-17.6c0.1-1.2-0.1-4.5,0.6-5.4
								C141.6,121.1,142.6,121,143.6,121 M143.6,118.8L143.6,118.8c-2,0-3.5,0.6-4.4,1.7c-0.9,1.1-0.9,2.7-1,5.1c0,0.5,0,1,0,1.3
								c-0.6,5.1-0.6,10.3-0.7,15.3l0,2.4c0,2.6-0.1,5.2-0.3,7.7c-0.2,3.5-0.3,7.1-0.3,10.7c0,2-0.1,7.9-0.3,14.8
								c-1.1,36.1-0.8,39.8,0.4,41.1c1,1.1,2.7,1.7,5,1.7c2.9,0,6.3-0.8,7.7-1.3c5.4-1.7,5.8-4.5,6.4-8.1l0.1-0.5
								c1-6,1.4-12.3,1.8-18.4l0.3-3.8c0.9-13.1,1.1-61,0.7-63.7c-0.9-5.3-6.5-5.5-9.8-5.6c-0.7,0-1.4,0-2.1-0.1
								c-0.2,0-0.5-0.1-0.8-0.1C145.5,119,144.5,118.8,143.6,118.8L143.6,118.8z"/>
						</g>
					</g>
					<g>
						<g>
							<path class="st4" d="M155.9,188.4c1-13.9,1-61.1,0.7-63.2c-0.4-2.5-2.3-3.3-4.6-3.6c0.1,0.3,0.2,0.6,0.3,0.9
								c0.4,2.1,0.3,49.4-0.7,63.2c-0.5,7.2-0.9,14.9-2,22c-0.6,3.8-0.7,5.6-5,7c-1.1,0.4-3.7,1-6,1.1c0.1,1,0.2,1.7,0.4,1.9
								c1.6,1.8,8,0.3,10-0.3c4.2-1.3,4.3-3.2,4.9-7C155,203.3,155.4,195.6,155.9,188.4z"/>
						</g>
					</g>
				</g>
				<g>
					<g>
						<g>
							<path class="st4" d="M105.4,232.6c-2.5,0-4-0.5-4.8-1.5c-0.9-1.2-0.3-9.8,2.8-40.2c0.7-6.9,1.3-12.9,1.4-14.9
								c0.2-3.5,0.6-7.1,1-10.6c0.3-2.6,0.6-5.2,0.8-7.7l0.2-2.5c0.4-5,0.8-10.1,1.8-15.1c0.1-0.3,0.1-0.8,0.2-1.4
								c0.2-2.1,0.4-3.7,1.1-4.5c0.6-0.7,1.7-1.1,3-1.1c1,0,2.1,0.2,3,0.4c0.3,0.1,0.6,0.1,0.9,0.2c0.7,0.1,1.4,0.2,2.1,0.2
								c3.3,0.3,7.9,0.7,8.3,5.2c0.2,2.1-3.2,49.1-5.3,63.3l-0.5,3.7c-0.8,6.1-1.7,12.3-3.1,18.2l-0.1,0.5c-0.8,3.4-1.4,5.7-6.2,7
								C110.7,232.1,107.9,232.6,105.4,232.6z"/>
							<path class="st3" d="M112.9,134.3c1.3,0,2.7,0.4,3.6,0.5c3.8,0.5,9,0,9.4,4.4c0.2,2.1-3.3,49.3-5.3,63.1
								c-1,7.1-2,14.8-3.7,21.8c-0.9,3.7-1.1,5.6-5.5,6.7c-1.2,0.3-3.8,0.8-6.2,0.8c-1.7,0-3.2-0.3-3.8-1.1
								c-1.4-1.8,4.1-47.8,4.4-54.4c0.3-6.1,1.4-12.2,1.9-18.3c0.5-5.8,0.9-11.7,2-17.5c0.2-1.2,0.2-4.5,1-5.4
								C111.3,134.4,112,134.3,112.9,134.3 M112.9,132.1L112.9,132.1c-2.2,0-3.3,0.8-4,1.5c-0.9,1-1.1,2.7-1.4,5
								c0,0.5-0.1,1-0.1,1.3c-1,5.1-1.4,10.2-1.8,15.2l-0.2,2.5c-0.2,2.6-0.5,5.2-0.8,7.7c-0.4,3.5-0.9,7.1-1.1,10.6
								c-0.1,2-0.7,8-1.4,14.9c-3.7,35.8-3.6,39.5-2.6,40.9c1,1.3,3,2,5.8,2c2.7,0,5.6-0.6,6.8-0.9c5.5-1.4,6.2-4.2,7-7.8l0.1-0.5
								c1.4-5.9,2.3-12.2,3.2-18.3l0.5-3.7c1.9-13.1,5.6-60.8,5.3-63.5c-0.5-5.4-6.1-5.8-9.4-6.1c-0.7-0.1-1.4-0.1-2-0.2
								c-0.2,0-0.5-0.1-0.8-0.1C115.2,132.4,114,132.1,112.9,132.1L112.9,132.1z"/>
						</g>
					</g>
					<g>
						<g>
							<path class="st4" d="M120.6,202.3c2-13.8,5.5-60.9,5.3-63.1c-0.3-2.6-2.1-3.5-4.3-3.9c0.1,0.3,0.2,0.6,0.2,0.9
								c0.2,2.1-3.3,49.3-5.3,63.1c-1,7.1-2,14.8-3.7,21.8c-0.9,3.7-1.1,5.6-5.5,6.7c-1.2,0.3-3.8,0.8-6.1,0.8c0,1,0.1,1.7,0.2,1.9
								c1.5,1.9,8,0.8,10,0.3c4.3-1.1,4.6-3,5.5-6.7C118.7,217.1,119.6,209.4,120.6,202.3z"/>
						</g>
					</g>
				</g>
				<g>
					<path class="st5" d="M127.1,258.5c-21.1,0-46.3-4.2-47.9-16.2c-1.7-13.3-1.4-36.9-1.1-55.8c0.1-5.9,0.2-11.3,0.2-15.6
						c0-0.7,0.6-1.3,1.5-1.3l17-0.1c0.4,0,0.8,0.1,1,0.4c0.3,0.2,0.4,0.6,0.4,0.9v19.3h60.2v-19.5c0-0.7,0.6-1.3,1.5-1.3
						c0,0,16-0.1,16-0.1c0.8,0,1.4,0.5,1.5,1.2c0.5,6.9,4.7,67.8,1.4,74.3C173.9,254.2,148.6,258.5,127.1,258.5
						C127.1,258.5,127.1,258.5,127.1,258.5z"/>
					<path class="st3" d="M175.8,170.6c0,0,4.7,67.3,1.5,73.7c-4.2,8.3-27.6,13-50.3,13c-22.9,0-45.1-4.7-46.4-15.1
						c-2.2-17.5-0.9-53.4-0.9-71.2l17-0.1v20.5h63.1v-20.8L175.8,170.6 M175.8,168C175.8,168,175.8,168,175.8,168l-16,0.1
						c-1.6,0-2.9,1.2-2.9,2.6v18.2H99.6v-18c0-0.7-0.3-1.3-0.9-1.8c-0.5-0.5-1.3-0.7-2.1-0.7c0,0,0,0,0,0l-17,0.1
						c-1.6,0-2.9,1.2-2.9,2.6c0,4.3-0.1,9.6-0.2,15.5c-0.3,19-0.6,42.6,1.1,56c1.6,12.8,26.5,17.3,49.3,17.3
						c22.7,0,47.9-4.5,52.9-14.5c3.3-6.6-0.5-63.5-1.3-74.9C178.6,169.1,177.3,168,175.8,168L175.8,168z"/>
				</g>
				<g class="st6">
					<g>
						<path class="st5" d="M175.8,170.6l-6.8,0c1.1,16.6,3.8,62.5,1.1,67.7c-7,13.8-66.4,17.5-88.5,6.7c9.8,17.6,87.7,15.2,95.7-0.8
							C180.6,237.9,175.8,170.6,175.8,170.6z"/>
					</g>
				</g>
				<g>
					<path class="st7" d="M91.7,196.5c-0.8,0-1.5-0.6-1.5-1.3v-24.3c0-0.7,0.6-1.3,1.5-1.3c0,0,5.8,0,5.8,0c0.4,0,0.8,0.1,1,0.4
						c0.3,0.2,0.4,0.6,0.4,0.9v17.7h59.9v-18c0-0.7,0.7-1.3,1.5-1.3h5.8c0.8,0,1.5,0.6,1.5,1.3v24.6c0,0.7-0.7,1.3-1.5,1.3H91.7z"/>
					<path class="st3" d="M166.1,170.6v24.6H91.7v-24.3l5.8,0v19h62.8v-19.3H166.1 M166.1,168h-5.8c-1.6,0-2.9,1.1-2.9,2.6v16.7h-57
						v-16.4c0-0.7-0.3-1.3-0.9-1.8c-0.5-0.5-1.3-0.7-2.1-0.7c0,0,0,0,0,0l-5.8,0c-1.6,0-2.9,1.2-2.9,2.6v24.3c0,1.4,1.3,2.6,2.9,2.6
						h74.5c1.6,0,2.9-1.1,2.9-2.6v-24.6C169,169.2,167.7,168,166.1,168L166.1,168z"/>
				</g>
				<g>
					<ellipse class="st4" cx="128.9" cy="221" rx="40.8" ry="16.8"/>
					<path class="st3" d="M128.9,205.5c21.7,0,39.3,7,39.3,15.5c0,8.6-17.6,15.5-39.3,15.5c-21.7,0-39.3-7-39.3-15.5
						C89.6,212.4,107.2,205.5,128.9,205.5 M128.9,202.9c-23.7,0-42.2,7.9-42.2,18.1c0,10.1,18.5,18.1,42.2,18.1s42.2-7.9,42.2-18.1
						C171.1,210.9,152.6,202.9,128.9,202.9L128.9,202.9z"/>
				</g>
				<g class="st8">
					<g>
						<path class="st9" d="M82.4,177.2c0,6.8,0,13.6,0,20.5c0,2.1,3.6,2.1,3.6,0c0-6.8,0-13.7,0-20.5
							C86,175.1,82.4,175.1,82.4,177.2L82.4,177.2z"/>
					</g>
					<g>
						<path class="st9" d="M82.4,206.4c0,0.1,0,0.1,0,0.2c0,2.1,3.6,2.1,3.6,0c0-0.1,0-0.1,0-0.2C86,204.4,82.4,204.4,82.4,206.4
							L82.4,206.4z"/>
					</g>
				</g>
				<g class="st8">
					<path class="st9" d="M75.3,116.8c-0.9,1.7-1,3.4-1.2,5.3c-0.1,1.1,1,2,2.2,2c1.3,0,2.2-0.9,2.3-1.9c0.1-1,0-2.3,0.5-3.3
						c0.5-1,0.4-2.1-0.7-2.7C77.4,115.7,75.8,115.8,75.3,116.8L75.3,116.8z"/>
				</g>
				<g class="st8">
					<path class="st9" d="M90.2,103.5c-0.9,1.7-1,3.4-1.2,5.3c-0.1,1.1,1,2,2.2,2c1.3,0,2.2-0.9,2.3-1.9c0.1-1,0-2.3,0.5-3.3
						c0.5-1,0.4-2.1-0.7-2.7C92.4,102.4,90.7,102.5,90.2,103.5L90.2,103.5z"/>
				</g>
				<g class="st8">
					<path class="st9" d="M98.8,124.3c-0.9,1.7-1,3.4-1.2,5.3c-0.1,1.1,1,2,2.2,2c1.3,0,2.2-0.8,2.3-1.9c0.1-1.1,0-2.3,0.5-3.3
						c0.5-1,0.4-2.1-0.7-2.7C100.9,123.2,99.3,123.3,98.8,124.3L98.8,124.3z"/>
				</g>
				<g class="st8">
					<path class="st9" d="M112.2,137.3c-0.9,1.7-1,3.4-1.2,5.3c-0.1,1.1,1,2,2.2,2c1.3,0,2.2-0.8,2.3-1.9c0.1-1,0-2.3,0.5-3.3
						c0.5-1,0.4-2.1-0.7-2.7C114.3,136.2,112.7,136.3,112.2,137.3L112.2,137.3z"/>
				</g>
				<g class="st8">
					<path class="st9" d="M143,123.1c-0.9,1.7-1,3.4-1.2,5.3c-0.1,1.1,1,2,2.2,2c1.3,0,2.2-0.9,2.3-1.9c0.1-1.1,0-2.3,0.5-3.3
						c0.5-1,0.4-2.1-0.7-2.7C145.2,122,143.5,122.1,143,123.1L143,123.1z"/>
				</g>
				<g class="st8">
					<path class="st9" d="M169.4,119.3c-0.9,1.7-1,3.4-1.2,5.3c-0.1,1.1,1,2,2.2,2c1.3,0,2.2-0.9,2.3-1.9c0.1-1.1,0-2.3,0.5-3.3
						c0.5-1,0.4-2.1-0.7-2.7C171.6,118.1,169.9,118.3,169.4,119.3L169.4,119.3z"/>
				</g>
				<g class="st8">
					<path class="st9" d="M119.6,122c-0.9,1.7-1,3.5-1.2,5.3c-0.1,1.1,1,2,2.2,2c1.3,0,2.2-0.9,2.3-1.9c0.1-1,0-2.3,0.5-3.3
						c0.5-1,0.4-2.1-0.7-2.7C121.7,120.8,120.1,121,119.6,122L119.6,122z"/>
				</g>
				<g class="st8">
					<path class="st9" d="M113.2,99.4c-0.9,1.7-1,3.4-1.2,5.3c-0.1,1.1,1,2,2.2,2c1.3,0,2.2-0.9,2.3-1.9c0.1-1,0-2.3,0.5-3.3
						c0.5-1,0.4-2.1-0.7-2.7C115.4,98.3,113.7,98.4,113.2,99.4L113.2,99.4z"/>
				</g>
				<g class="st8">
					<path class="st9" d="M132,101.7c-0.9,1.7-1,3.5-1.2,5.3c-0.1,1.1,1,2,2.2,2c1.3,0,2.2-0.9,2.3-1.9c0.1-1,0-2.3,0.5-3.3
						c0.5-1,0.4-2.1-0.7-2.7C134.1,100.6,132.5,100.7,132,101.7L132,101.7z"/>
				</g>
				<g class="st8">
					<path class="st9" d="M155.3,101.7c-0.9,1.7-1,3.5-1.2,5.3c-0.1,1.1,1,2,2.2,2c1.3,0,2.2-0.9,2.3-1.9c0.1-1,0-2.3,0.5-3.3
						c0.5-1,0.4-2.1-0.7-2.7C157.5,100.6,155.8,100.7,155.3,101.7L155.3,101.7z"/>
				</g>
			</g>
			<g>
				<g>
					<g>
						<path class="st3" d="M113.4,219.8c0,2.3-2.1,4.1-4.7,4.1c-2.6,0-4.7-1.8-4.7-4.1s2.1-4.1,4.7-4.1
							C111.3,215.7,113.4,217.5,113.4,219.8z"/>
						<path class="st9" d="M108.2,218c0,0.7-0.7,1.3-1.5,1.3c-0.8,0-1.5-0.6-1.5-1.3c0-0.7,0.7-1.3,1.5-1.3
							C107.5,216.7,108.2,217.3,108.2,218z"/>
						<path class="st9" d="M108.1,220c0,0.3-0.3,0.5-0.6,0.5c-0.3,0-0.6-0.2-0.6-0.5s0.2-0.5,0.6-0.5
							C107.8,219.5,108.1,219.8,108.1,220z"/>
						<path class="st9" d="M109.1,218.7c0,0.2-0.2,0.3-0.4,0.3c-0.2,0-0.4-0.1-0.4-0.3c0-0.2,0.2-0.3,0.4-0.3
							C108.9,218.4,109.1,218.5,109.1,218.7z"/>
						<path class="st10" d="M110.4,223.9c0,0.5-1.8,0.9-4.1,0.9c-2.3,0-4.1-0.4-4.1-0.9c0-0.5,1.8-0.9,4.1-0.9
							C108.5,223,110.4,223.4,110.4,223.9z"/>
					</g>
					<g>
						<path class="st3" d="M138.1,219.8c0,2.3-2.1,4.1-4.7,4.1c-2.6,0-4.7-1.8-4.7-4.1s2.1-4.1,4.7-4.1
							C136,215.7,138.1,217.5,138.1,219.8z"/>
						<path class="st9" d="M132.9,218c0,0.7-0.7,1.3-1.5,1.3c-0.8,0-1.5-0.6-1.5-1.3c0-0.7,0.7-1.3,1.5-1.3
							C132.2,216.7,132.9,217.3,132.9,218z"/>
						<path class="st9" d="M132.8,220c0,0.3-0.3,0.5-0.6,0.5s-0.6-0.2-0.6-0.5s0.3-0.5,0.6-0.5S132.8,219.8,132.8,220z"/>
						<path class="st9" d="M133.8,218.7c0,0.2-0.2,0.3-0.4,0.3c-0.2,0-0.4-0.1-0.4-0.3c0-0.2,0.2-0.3,0.4-0.3
							C133.6,218.4,133.8,218.5,133.8,218.7z"/>
						<path class="st10" d="M139.8,223.9c0,0.5-1.8,0.9-4.1,0.9c-2.3,0-4.1-0.4-4.1-0.9c0-0.5,1.8-0.9,4.1-0.9
							C138,223,139.8,223.4,139.8,223.9z"/>
					</g>
				</g>
				<g>
					<path class="st11" d="M132,212.7c0,0,3.7-1.2,6.5,1.5"/>
					<path class="st11" d="M110,212.7c0,0-3.7-1.2-6.5,1.5"/>
				</g>
				<g>
					<g>
						<path class="st10" d="M121,227.4c-1.3,0-2.1-0.8-2.3-2c-0.2-2,0-2.9,0.7-3.1c0.3-0.1,0.6-0.1,1.1-0.1l1.3,0
							c1.2,0,1.2,0.7,1.2,1.3l0,0.4c0.1,1.1,0.2,2.3-0.6,3C122.2,227.2,121.6,227.4,121,227.4z"/>
						<path class="st3" d="M120.6,222.6c0.5,0,1,0,1.3,0h0c0.9,0,0.8,0.5,0.8,1.3c0.1,1.2,0.3,3.1-1.7,3.1c-1.1,0-1.7-0.7-1.8-1.7
							c0-0.4-0.3-2.5,0.4-2.7C119.9,222.6,120.2,222.6,120.6,222.6 M120.6,221.8c-0.5,0-0.9,0-1.2,0.1c-1.2,0.3-1.2,1.8-1.1,3.4
							c0.2,1.5,1.2,2.4,2.7,2.4c0.8,0,1.4-0.2,1.8-0.6c0.9-0.8,0.8-2.1,0.7-3.1l0-0.2l0-0.3c0-0.5,0-1.7-1.6-1.7l-0.5,0
							C121.2,221.9,120.9,221.8,120.6,221.8L120.6,221.8z"/>
					</g>
					<g>
						<path class="st11" d="M117.9,222.1c0,0.1,6.2,0.1,6.2,0"/>
					</g>
					<line class="st12" x1="121" y1="222.8" x2="121" y2="224.8"/>
				</g>
			</g>
		</g>
		<g>
			<g>
				<path class="st1" d="M199.8,239.8c0,0-1.3-28.9-22.5-25.5"/>
			</g>
			<g>
				<line class="st1" x1="199.5" y1="241" x2="196.8" y2="244.6"/>
				<line class="st1" x1="199.5" y1="241" x2="200.8" y2="245.1"/>
				<line class="st1" x1="199.5" y1="241" x2="203.9" y2="242.9"/>
			</g>
		</g>
	</g>
	<g>
		<g>
			<g>
				<path class="st13" d="M365.4,226.8c0,0-6.3,35.7-34.1,16.6"/>
			</g>
			<g>
				<line class="st13" x1="365.2" y1="225.7" x2="363.2" y2="222.1"/>
				<line class="st13" x1="365.2" y1="225.7" x2="366.9" y2="222"/>
				<line class="st13" x1="365.2" y1="225.7" x2="369.5" y2="224.3"/>
			</g>
		</g>
		<g>
			<g>
				<path class="st13" d="M298.3,285.2c0,0,15.9,12.7,11.1,36.5l6,2.7"/>
			</g>
			<g>
				<path class="st13" d="M257.3,278.9c0,0,1.2,18.9-21.1,32.9l2.1,5.6"/>
			</g>
		</g>
		<g>
			<g>
				<g>
					<g>
						<path class="st4" d="M291.2,296.1c-4,0-8.2-0.3-12.4-0.8c-24.8-2.9-41-14.4-40.9-18.2l6.8-143.2c0.1-5.1,4-8.9,8.9-8.9
							c0.4,0,0.7,0,1.1,0.1l98.6,11.7c2.4,0.3,4.4,1.4,5.7,3.2c1.6,2.1,2.1,5,1.3,7.8l-36.6,139.6
							C322.9,290.3,310.6,296.1,291.2,296.1L291.2,296.1z"/>
						<path class="st3" d="M253.6,126.4c0.3,0,0.6,0,0.9,0.1l98.6,11.7c4.5,0.5,7.1,4.7,5.7,9.3L322.3,287c-0.6,1.9-11.7,7.7-31,7.7
							c-3.8,0-7.9-0.2-12.2-0.7c-25.5-3-39.7-14.5-39.6-16.8l6.8-143.1C246.2,129.6,249.5,126.4,253.6,126.4 M253.6,123.7
							c-5.7,0-10.3,4.5-10.5,10.3l-6.8,143.1c-0.1,5.1,17.3,16.6,42.3,19.6c4.3,0.5,8.5,0.8,12.7,0.8c19.3,0,32.8-5.7,34-9.8
							L361.8,148c0.9-3.1,0.4-6.4-1.5-8.8c-1.6-2.1-4-3.4-6.8-3.7l-98.6-11.7C254.5,123.7,254,123.7,253.6,123.7L253.6,123.7z"/>
					</g>
				</g>
				<g>
					<g>
						<path class="st4" d="M254.5,126.4l3.1,0.4l-6.7,141.9c-0.1,2.4,14.1,13.8,39.6,16.8c14.2,1.7,25.3,0.3,32.7-1.8l-0.9,3.3
							c-0.7,2.3-16.5,10.2-43.3,7c-25.5-3-39.7-14.5-39.6-16.8l6.8-143.1C246.3,129.3,250,125.9,254.5,126.4z"/>
					</g>
				</g>
				<g>
					<g>
						<path class="st14" d="M336.8,158.5c-10.9,0-23.6-0.8-36.7-2.4c-17-2-32.8-5-44.6-8.5c-12.7-3.8-18.9-7.5-18.4-11.2l1.6-10.8
							c0.1-0.3,0.3-0.6,0.6-0.8c0.3-0.2,0.6-0.3,0.9-0.3c0.1,0,0.1,0,0.2,0l126.7,15c0.4,0,0.7,0.2,1,0.5c0.2,0.3,0.3,0.6,0.3,0.9
							l-1.7,10.8C365.9,157.3,350,158.5,336.8,158.5z"/>
						<path class="st3" d="M240.3,125.8l126.7,15l-1.7,10.8c-0.6,3.7-11.8,5.6-28.5,5.6c-10.5,0-23-0.8-36.5-2.4
							c-35-4.2-62.6-12.3-61.7-18.3L240.3,125.8 M240.3,123.2c-0.6,0-1.3,0.2-1.8,0.5c-0.6,0.4-1,1-1.1,1.7l-1.6,10.8
							c-0.7,4.5,5.5,8.5,19.3,12.6c11.8,3.5,27.7,6.5,44.8,8.6c13.2,1.6,25.9,2.4,36.9,2.4c30.2,0,31.1-5.9,31.4-7.8l1.7-10.8
							c0.1-0.7-0.1-1.3-0.6-1.9c-0.5-0.5-1.2-0.9-1.9-1l-126.7-15C240.6,123.2,240.4,123.2,240.3,123.2L240.3,123.2z"/>
					</g>
				</g>
				<g>
					<g>
						<path class="st15" d="M338.5,147.7c-10.9,0-23.6-0.8-36.7-2.4c-17-2-32.8-5-44.6-8.5c-12.7-3.8-18.9-7.5-18.4-11.2
							c0.9-5.5,16.7-6.7,29.9-6.7c10.9,0,23.6,0.8,36.7,2.4c32.2,3.8,64.1,11.8,62.9,19.7C367.6,146.5,351.7,147.7,338.5,147.7
							L338.5,147.7z"/>
						<path class="st3" d="M268.8,120.2c10.5,0,23.1,0.8,36.5,2.4c35,4.1,62.6,12.3,61.7,18.3c-0.6,3.7-11.8,5.6-28.5,5.6
							c-10.5,0-23.1-0.8-36.5-2.4c-35-4.1-62.6-12.3-61.7-18.3C240.9,122.1,252.1,120.2,268.8,120.2 M268.8,117.6
							c-30.1,0-31.1,5.9-31.3,7.8c-0.7,4.5,5.5,8.5,19.3,12.6c11.8,3.5,27.7,6.5,44.8,8.6c13.2,1.6,25.9,2.4,36.9,2.4
							c30.1,0,31.1-5.9,31.3-7.8c2-13.1-61.5-20.8-64.2-21.1C292.5,118.5,279.8,117.6,268.8,117.6L268.8,117.6z"/>
					</g>
				</g>
				<g>
					<g>
						<path class="st14" d="M330.4,140.8c-7.4,0-17.2-0.7-27.6-1.9c-4-0.5-39.4-4.8-38.6-10.2c0.2-1.4,1.9-2.8,12.7-2.8
							c7.4,0,17.2,0.7,27.6,1.9c4,0.5,39.5,4.8,38.6,10.2C342.9,139.4,341.2,140.8,330.4,140.8L330.4,140.8z"/>
						<path class="st3" d="M276.9,126.9c7.1,0,16.8,0.6,27.4,1.9c21.1,2.5,37.9,6.5,37.5,9c-0.2,1.2-4.6,1.8-11.5,1.8
							c-7.1,0-16.8-0.6-27.4-1.9c-21.1-2.5-37.9-6.5-37.5-9C265.6,127.5,270,126.9,276.9,126.9 M276.9,124.7c-9.8,0-13.6,1-14,3.8
							c-0.4,2.8,3,4.6,12.6,6.9c7.2,1.7,16.8,3.3,27.2,4.6c10.4,1.2,20.3,1.9,27.8,1.9c9.8,0,13.6-1,14-3.8c0.4-2.8-3-4.6-12.5-6.9
							c-7.2-1.7-16.8-3.4-27.2-4.6C294.2,125.4,284.4,124.7,276.9,124.7L276.9,124.7z"/>
					</g>
				</g>
				<g>
					<g>
						<path class="st3" d="M289.6,131.6c-0.1,0.9,6,2.4,13.8,3.3c7.8,0.9,14.2,0.9,14.3,0c0.1-0.9-6-2.4-13.8-3.3
							C296.1,130.7,289.7,130.7,289.6,131.6z"/>
					</g>
				</g>
				<g>
					<g>
						<g>
							<path class="st9" d="M309.6,133.9c-1.7-0.1-3.7-0.2-5.8-0.5c-2.1-0.3-4.1-0.6-5.7-0.9c-0.8-0.1-1.3-0.8-1.2-1.5l9.5-62.3
								l-39.7-27.6c-0.5-0.3-0.7-0.9-0.5-1.4c0.2-0.5,0.7-0.9,1.3-1c1.1-0.1,4.1-0.7,5.4-2.1c1.4-1.5,0.4-3.9,0.4-4
								c-0.2-0.6,0-1.2,0.5-1.6c0.3-0.2,0.6-0.3,0.9-0.3c0.3,0,0.7,0.1,0.9,0.3l43,29.9c2.3,1.6,3.3,4.2,2.5,6.7c0,0.3,0,0.5,0,0.8
								l-9.9,64.2C311.1,133.4,310.4,133.9,309.6,133.9C309.6,133.9,309.6,133.9,309.6,133.9z"/>
							<g>
								<path class="st3" d="M274.7,32.2l43,29.9c1.9,1.3,2.6,3.5,1.9,5.5c0,0.3,0,0.5,0,0.8l-9.5,62l-0.3,2.1
									c-1.7-0.1-3.6-0.2-5.7-0.5c-2.1-0.2-4-0.5-5.6-0.9l0.3-2.1l9.3-60.9l-40.4-28.1c0,0,4.5-0.5,6.4-2.6
									C276,35.2,274.7,32.2,274.7,32.2 M274.7,29.5c-0.6,0-1.3,0.2-1.8,0.5c-1.1,0.7-1.5,2-1,3.1c0.2,0.5,0.6,1.9-0.1,2.7
									c-0.8,0.9-3.1,1.5-4.4,1.6c-1.2,0.1-2.2,0.9-2.6,1.9c-0.3,1,0.1,2.1,1,2.8l39,27.2l-9.1,59.4l-0.3,2.1
									c-0.2,1.4,0.8,2.7,2.4,3c1.8,0.3,3.8,0.7,5.9,0.9c2.1,0.2,4.1,0.4,5.9,0.5c0.1,0,0.1,0,0.2,0c1.5,0,2.8-1,3-2.3l0.3-2.1
									l9.5-62c0-0.3,0.1-0.5,0.1-0.8c0.8-2.9-0.4-6.1-3.1-7.9l-42.9-29.9C276,29.7,275.3,29.5,274.7,29.5L274.7,29.5z"/>
							</g>
						</g>
					</g>
				</g>
				<g>
					<g>
						<g>
							<path class="st7" d="M299.6,124.6c-0.4,0-0.8-0.1-1-0.4c-0.4-0.3-0.5-0.7-0.5-1.1l1.7-11.3c0.1-0.5,0.5-1,1.1-1.1
								c4-1,8-2.6,11.8-4.8c0.3-0.1,0.5-0.2,0.8-0.2c0.3,0,0.6,0.1,0.8,0.2c0.5,0.3,0.8,0.8,0.7,1.3l-2,13c-0.1,0.5-0.4,0.8-0.9,1
								c-3.8,1.5-7.9,2.7-12.3,3.4C299.8,124.6,299.7,124.6,299.6,124.6z"/>
							<g>
								<path class="st3" d="M313.6,106.9l-2,13c-3.8,1.5-7.8,2.6-12,3.3l1.7-11.3C305.5,110.9,309.7,109.2,313.6,106.9
									 M313.6,104.3c-0.6,0-1.2,0.1-1.7,0.4c-3.7,2.1-7.5,3.7-11.4,4.6c-1.2,0.3-2,1.2-2.2,2.2l-1.7,11.3
									c-0.1,0.9,0.2,1.7,0.9,2.3c0.6,0.5,1.3,0.7,2.1,0.7c0.2,0,0.4,0,0.6,0c4.5-0.8,8.8-1.9,12.7-3.5c1-0.4,1.6-1.2,1.8-2.1l2-13
									c0.2-1-0.4-2.1-1.4-2.6C314.7,104.4,314.1,104.3,313.6,104.3L313.6,104.3z"/>
							</g>
						</g>
					</g>
					<g>
						<g>
							<path class="st7" d="M303.4,99.4c-0.3,0-0.6-0.1-0.9-0.3c-0.4-0.3-0.7-0.8-0.6-1.2l2.3-15.3c0.1-0.5,0.5-1,1.1-1.1
								c4-1.1,8-2.8,11.9-5.3c0.3-0.2,0.6-0.3,0.9-0.3c0.3,0,0.5,0.1,0.8,0.2c0.5,0.3,0.8,0.8,0.7,1.3l-1.9,12.6
								c0,0.3-0.2,0.6-0.5,0.8c-4.8,4.1-9,6.7-13.2,8.4C303.9,99.3,303.7,99.4,303.4,99.4z"/>
							<g>
								<path class="st3" d="M318.1,77.3l-1.9,12.6c-3.9,3.3-8.2,6.3-12.8,8.1l2.3-15.3C310.2,81.6,314.3,79.7,318.1,77.3
									 M318.1,74.7c-0.6,0-1.2,0.2-1.8,0.5c-3.7,2.4-7.6,4.1-11.4,5.1c-1.1,0.3-2,1.2-2.1,2.2l-2.3,15.3c-0.2,1,0.3,1.9,1.2,2.5
									c0.5,0.4,1.2,0.5,1.8,0.5c0.4,0,0.8-0.1,1.2-0.2c4.3-1.7,8.7-4.5,13.6-8.6c0.5-0.4,0.8-1,0.9-1.6l1.9-12.6
									c0.2-1.1-0.4-2.1-1.4-2.6C319.2,74.8,318.7,74.7,318.1,74.7L318.1,74.7z"/>
							</g>
						</g>
					</g>
					<g>
						<g>
							<path class="st7" d="M302.1,65.4c-0.3,0-0.7-0.1-0.9-0.3l-10.5-7.3c-0.6-0.4-0.7-1.1-0.4-1.6c1.7-3.1,3.1-6.3,4.1-9.6
								c0.1-0.4,0.5-0.8,1-0.9c0.2,0,0.3-0.1,0.5-0.1c0.3,0,0.7,0.1,0.9,0.3l12.3,8.6c0.5,0.4,0.7,1,0.4,1.6
								c-1.6,3.1-3.7,6.1-6.2,8.9c-0.2,0.3-0.6,0.5-1,0.5C302.2,65.4,302.2,65.4,302.1,65.4z"/>
							<g>
								<path class="st3" d="M295.8,46.9l12.3,8.6c-1.6,3-3.6,5.9-6,8.6l-10.5-7.3C293.4,53.6,294.8,50.3,295.8,46.9 M295.8,44.2
									c-0.3,0-0.6,0-1,0.1c-1,0.3-1.7,1-2,1.9c-1,3.2-2.3,6.4-4,9.4c-0.6,1.1-0.3,2.5,0.8,3.3l10.5,7.3c0.5,0.4,1.2,0.6,1.9,0.6
									c0.1,0,0.2,0,0.4,0c0.8-0.1,1.5-0.4,2-1c2.6-2.9,4.7-5.9,6.4-9.1c0.6-1.1,0.2-2.4-0.9-3.2l-12.3-8.6
									C297.1,44.4,296.5,44.2,295.8,44.2L295.8,44.2z"/>
							</g>
						</g>
					</g>
				</g>
				<g>
					<g>
						<g>
							<path class="st16" d="M272.3,38.7l41.7,29.1l-9.9,64.3c-0.1,0-0.2,0-0.2,0c-2.1-0.2-4-0.5-5.6-0.9l0.3-2.1l9.3-60.9
								l-40.4-28.1C267.6,40.1,270.3,39.8,272.3,38.7z"/>
						</g>
					</g>
				</g>
				<g>
					<g>
						<path class="st17" d="M269.1,41.7c-0.6,0-1.1-0.1-1.6-0.4c-0.5-0.3-1.1-0.8-1.4-1.8c-0.4-1.5,0.2-3.5,1.6-5.4
							c1.6-2.3,3.8-3.7,5.7-3.7c0.6,0,1.1,0.1,1.6,0.4c2,1.1,1.9,4.2-0.3,7.2C273.2,40.3,271,41.7,269.1,41.7z"/>
						<path class="st3" d="M273.5,31.8c0.3,0,0.5,0.1,0.7,0.2c1.2,0.7,0.9,3-0.7,5.3c-1.3,1.8-3.1,3-4.4,3c-0.3,0-0.5-0.1-0.8-0.2
							c-1.2-0.7-0.9-3,0.8-5.3C270.4,33,272.2,31.8,273.5,31.8 M273.5,29c-2.9,0-5.6,2.2-7.1,4.3c-1.6,2.2-2.3,4.6-1.8,6.5
							c0.3,1.1,1,2.1,2.1,2.7c0.7,0.4,1.6,0.6,2.5,0.6c2.5,0,5.1-1.6,7.1-4.3c2.7-3.8,2.6-7.6-0.2-9.2C275.2,29.2,274.4,29,273.5,29
							L273.5,29z"/>
					</g>
				</g>
				<g>
					<g>
						<path class="st18" d="M318.5,256.1c-12.2,0-24.5-0.7-36.5-2.1c-13.9-1.6-27.9-4.3-41.5-7.8l-1.1-0.3l3.1-65.5l1.9,0.5
							c16.7,4.5,32.2,7.6,47.4,9.4c11.9,1.4,24.7,2.1,37.9,2.1c0,0,0,0,0,0c5.5,0,11.3-0.1,17.1-0.4l2-0.1L332,255.8l-1.2,0
							C326.7,256.1,322.6,256.1,318.5,256.1z"/>
						<path class="st3" d="M243.9,182.2c14.6,4,30.6,7.4,47.6,9.4c13.1,1.6,25.9,2.1,38.1,2.1c5.9,0,11.6-0.1,17.2-0.4l-16,61.2
							c-4,0.2-8.1,0.2-12.3,0.2c-11.7,0-23.9-0.7-36.3-2.1c-14.5-1.7-28.4-4.4-41.2-7.8L243.9,182.2 M241,178.6l-0.2,3.5l-3,62.7
							l-0.1,2.1l2.3,0.6c13.6,3.6,27.7,6.2,41.7,7.9c12.1,1.4,24.4,2.2,36.7,2.2c4.1,0,8.3-0.1,12.5-0.2l2.3-0.1l0.5-2l16-61.2
							l0.9-3.4l-4,0.2c-5.8,0.2-11.6,0.4-17.1,0.4c-13.1,0-25.8-0.7-37.7-2.1c-15.1-1.8-30.5-4.8-47.1-9.3L241,178.6L241,178.6z"/>
					</g>
				</g>
				<g>
					<g>
						<g>
							<path class="st18" d="M255.9,185.2l-3,62.5c-4.1-0.9-8.1-1.9-12.1-2.9l3-62.7C247.8,183.2,251.8,184.3,255.9,185.2z"/>
						</g>
					</g>
				</g>
				<g class="st8">
					<g>
						<path class="st9" d="M347.4,173.8c-4.5,16.8-8.9,33.7-13.4,50.5c-1.1,4.2-8.6,3.3-7.5-0.9c4.5-16.8,8.9-33.7,13.4-50.5
							C341,168.8,348.5,169.6,347.4,173.8L347.4,173.8z"/>
					</g>
					<g>
						<path class="st9" d="M326.9,239.6c-4.9-0.6-3.8-7.2,1-6.6C332.8,233.6,331.8,240.2,326.9,239.6L326.9,239.6z"/>
					</g>
				</g>
			</g>
			<g>
				<path class="st19" d="M292.4,226.3c-0.3,1.9,1.2,3.6,3.3,3.8c2.1,0.3,4.1-1.1,4.4-2.9"/>
				<g>
					<g>
						<path class="st3" d="M305.5,225.7c-0.4,2.7,1.7,5.2,4.8,5.5c3.1,0.4,5.9-1.5,6.3-4.2c0.4-2.7-1.7-5.2-4.8-5.5
							C308.8,221.1,306,223,305.5,225.7z"/>
						<path class="st9" d="M312.1,224.3c-0.1,0.9,0.6,1.6,1.5,1.8c1,0.1,1.9-0.5,2-1.3c0.1-0.9-0.6-1.6-1.5-1.8
							C313.1,222.9,312.2,223.5,312.1,224.3z"/>
						<path class="st9" d="M311.8,226.7c-0.1,0.3,0.2,0.6,0.6,0.7c0.4,0,0.7-0.2,0.8-0.5c0-0.3-0.2-0.6-0.6-0.7
							C312.2,226.2,311.9,226.4,311.8,226.7z"/>
						<path class="st9" d="M310.9,225c0,0.2,0.1,0.4,0.4,0.4c0.2,0,0.4-0.1,0.5-0.3c0-0.2-0.1-0.4-0.4-0.4
							C311.1,224.7,310.9,224.8,310.9,225z"/>
						<path class="st10" d="M308.4,231c-0.1,0.6,2,1.3,4.7,1.7c2.7,0.3,4.9,0.1,5-0.5c0.1-0.6-2-1.3-4.7-1.7
							C310.7,230.1,308.5,230.4,308.4,231z"/>
					</g>
					<g>
						<path class="st3" d="M276.3,222.2c-0.4,2.7,1.7,5.2,4.8,5.5c3.1,0.4,5.9-1.5,6.3-4.2c0.4-2.7-1.7-5.2-4.8-5.5
							C279.6,217.6,276.7,219.5,276.3,222.2z"/>
						<path class="st9" d="M282.8,220.9c-0.1,0.9,0.5,1.6,1.5,1.8c1,0.1,1.9-0.5,2-1.3c0.1-0.9-0.6-1.6-1.5-1.8
							C283.9,219.4,283,220,282.8,220.9z"/>
						<path class="st9" d="M282.6,223.2c0,0.3,0.2,0.6,0.6,0.7c0.4,0,0.7-0.2,0.8-0.5c0-0.3-0.2-0.6-0.6-0.7
							C283,222.7,282.7,222.9,282.6,223.2z"/>
						<path class="st9" d="M281.6,221.5c0,0.2,0.1,0.4,0.4,0.4c0.2,0,0.4-0.1,0.5-0.3c0-0.2-0.1-0.4-0.4-0.4
							C281.9,221.2,281.7,221.3,281.6,221.5z"/>
						<path class="st10" d="M273.6,226.8c-0.1,0.6,2,1.3,4.7,1.7c2.7,0.3,4.9,0.1,5-0.5c0.1-0.6-2-1.3-4.7-1.7
							C275.9,226,273.7,226.2,273.6,226.8z"/>
					</g>
				</g>
				<g>
					<path class="st19" d="M284.8,214.7c0,0-4.2-2-7.9,0.8"/>
					<path class="st19" d="M310.9,217.8c0,0,4.6-0.9,7.4,2.6"/>
				</g>
			</g>
		</g>
		<g>
			<g>
				<path class="st13" d="M226.3,250.8c0,0,5.3-26.7,24.5-21.2"/>
			</g>
			<g>
				<line class="st13" x1="226.5" y1="251.9" x2="228.4" y2="255.5"/>
				<line class="st13" x1="226.5" y1="251.9" x2="224.7" y2="255.6"/>
				<line class="st13" x1="226.5" y1="251.9" x2="222.1" y2="253.2"/>
			</g>
		</g>
	</g>
	<g>
		<g>
			<path class="st13" d="M64.8,299c0,0,0.8,36.1,31.3,20.5"/>
		</g>
		<g>
			<line class="st13" x1="65.1" y1="297.9" x2="67.7" y2="294.6"/>
			<line class="st13" x1="65.1" y1="297.9" x2="64" y2="294"/>
			<line class="st13" x1="65.1" y1="297.9" x2="61" y2="296"/>
		</g>
	</g>
	<g>
		<g>
			<path class="st13" d="M171.5,366.8c0,0-17.7,10.7-16.6,34.9l-6.3,2"/>
		</g>
		<g>
			<path class="st13" d="M213.1,365.5c0,0-4.1,18.6,15.9,35.1l-2.9,5.3"/>
		</g>
	</g>
	<g>
		<g>
			<g>
				<g>
					<path class="st7" d="M67.4,281c-2.6,0-4.7-0.7-6.1-2c-1.6-1.5-2-3.3-1.1-5c0.5-1.1,1.5-1.9,2.6-2.6c-1.7-0.5-3.2-1.2-4-2.4
						c-0.7-1.2-0.7-2.5,0.1-4.1c0.7-1.3,2.1-2.8,5.3-2.8c0.8,0,1.6,0.1,2.5,0.3c-0.5-0.8-0.7-1.6-0.6-2.7c0.4-2.8,2.9-4.4,6.6-4.4
						c0.7,0,1.5,0.1,2.2,0.2c4.6,0.7,6.2,2.6,8.1,5.5l0.7,1c2.1,3,5,7.1,2.3,10.8c-1.9,2.6-5.2,3.9-8.1,5.1c-1.3,0.5-2.5,1-3.5,1.6
						C72.4,280.4,69.8,281,67.4,281L67.4,281z"/>
					<path class="st3" d="M72.6,256.5c0.7,0,1.3,0.1,2,0.2c3.9,0.6,5.2,2.1,7.2,4.9c2.1,3.1,5.5,7.1,3,10.5
						c-2.4,3.3-7.6,4.4-11.2,6.3c-1.5,0.8-3.8,1.4-6.1,1.4c-2,0-3.9-0.5-5.1-1.6c-3.7-3.6,2-7.1,5.9-7.1c0.1,0,0.3,0,0.4,0
						c-3.6-0.4-10.9-0.9-8.5-5.6c0.8-1.6,2.3-2.1,4-2.1c2.8,0,6.1,1.4,8.3,2.1c-2.1-1.5-5.3-3-5-5.6
						C67.7,257.3,70.2,256.5,72.6,256.5 M72.6,254c-4.5,0-7.6,2.1-8,5.5c-0.1,0.5-0.1,0.9,0,1.3c-0.2,0-0.3,0-0.5,0
						c-3,0-5.4,1.3-6.5,3.6c-1.2,2.4-0.7,4.1,0,5.2c0.6,1,1.5,1.7,2.6,2.2c-0.5,0.5-1,1.1-1.3,1.8c-1.1,2.1-0.6,4.4,1.4,6.3
						c1.6,1.6,4.1,2.4,7.1,2.4c2.6,0,5.5-0.7,7.5-1.8c1-0.5,2.2-1,3.4-1.5c3.1-1.3,6.6-2.7,8.7-5.6c3.2-4.4-0.1-9-2.2-12.1
						c-0.2-0.3-0.5-0.7-0.7-1c-2.1-3-3.9-5.3-9.1-6C74.3,254.1,73.4,254,72.6,254L72.6,254z"/>
				</g>
			</g>
			<g>
				<g>
					<g>
						<path class="st7" d="M81.8,261.5c-1.9-2.8-3.3-4.3-7.2-4.9c-0.3-0.1-0.7-0.1-1-0.1c0.6,0.6,1.1,1.3,1.7,2.2
							c2.1,3.1,1.4,6.4-1.1,9.8c-2.4,3.3-3.5,5.1-7.1,7.1c-1.3,0.7-3.5,1.3-5.6,1.4c0.2,0.4,0.5,0.8,0.9,1.2
							c2.6,2.5,8.4,1.7,11.2,0.2c3.6-1.9,8.8-3.1,11.2-6.3C87.3,268.6,83.9,264.7,81.8,261.5z"/>
					</g>
				</g>
			</g>
			<g>
				<g>
					<path class="st7" d="M345.3,320.1c-3.3,0-6.8-1.6-8.6-3.1c-0.9-0.8-1.9-1.5-3.1-2.2c-2.6-1.7-5.5-3.7-6.6-6.6
						c-1.7-4.2,2.1-7.6,4.9-10.1l0.9-0.9c2.5-2.3,4.4-3.8,8.5-3.8c0.3,0,0.5,0,0.8,0c1.6,0.1,4.6,0.4,6.4,2.2c1,1,1.4,2.2,1.2,3.6
						c-0.1,1-0.6,1.8-1.2,2.5c4.9,0,6.5,2.2,6.9,4c0.4,1.6,0.1,2.9-0.8,3.8c-0.9,1-2.5,1.6-4.6,1.7c0.9,0.8,1.5,1.8,1.8,2.9
						c0.5,1.9-0.3,3.6-2.3,4.8C348.2,319.8,346.9,320.1,345.3,320.1z"/>
					<path class="st3" d="M341.3,294.7c0.2,0,0.5,0,0.7,0c3,0.1,6.6,1.2,6.2,4.5c-0.3,2.6-3.8,3.5-6.3,4.5c1.7-0.2,4.1-0.7,6.4-0.7
						c2.6,0,5,0.6,5.6,3c0.8,3.4-2.2,4.1-5.4,4.1c-1.5,0-3.1-0.2-4.3-0.3c3.9,0.5,9,5.3,4.3,8.2c-0.9,0.6-2.1,0.8-3.3,0.8
						c-2.9,0-6-1.4-7.7-2.7c-3-2.6-7.8-4.7-9.4-8.4c-1.6-3.8,2.7-7.1,5.5-9.7C336.2,295.8,337.8,294.7,341.3,294.7 M341.3,292.2
						L341.3,292.2c-4.6,0-6.9,1.8-9.5,4.2c-0.3,0.3-0.6,0.6-0.9,0.8c-2.9,2.6-7.2,6.5-5.2,11.4c1.3,3.2,4.4,5.3,7.1,7.1
						c1.1,0.7,2.1,1.4,2.9,2.1c1.9,1.7,5.8,3.4,9.6,3.4c1.9,0,3.5-0.4,4.9-1.3c2.5-1.5,3.5-3.7,2.9-6.1c-0.2-0.6-0.4-1.2-0.8-1.7
						c1.4-0.4,2.5-1,3.3-1.8c0.8-0.9,1.7-2.4,1.1-4.8c-0.4-1.6-1.7-4.1-6-4.8c0.2-0.4,0.3-0.8,0.3-1.3c0.2-1.7-0.3-3.3-1.5-4.5
						c-2.1-2.1-5.5-2.6-7.3-2.7C341.8,292.2,341.5,292.2,341.3,292.2L341.3,292.2z"/>
				</g>
			</g>
			<g>
				<g>
					<path class="st7" d="M353.9,306.1c-1-4.4-8.3-2.8-12-2.3c2.5-1,6-1.9,6.3-4.5c0.3-2.4-1.7-3.7-3.9-4.2c0.8,0.5,1.4,1.2,1.6,2.2
						c1.2,5.1-6,4.2-9.7,3.9c3.9,0.5,9,5.3,4.3,8.2c-3.2,2-8.7,0-10.9-1.9c-0.5-0.4-1.1-0.9-1.7-1.3c0,0.6,0.1,1.2,0.3,1.8
						c1.5,3.7,6.4,5.8,9.4,8.4c2.3,2,7.7,3.9,10.9,1.9c4.6-2.9-0.5-7.7-4.3-8.2C347.9,310.3,355.1,311.1,353.9,306.1z"/>
				</g>
			</g>
			<g>
				<g>
					<path class="st20" d="M223.3,342.1c-27.7,0-95.2-4.3-124.5-43.9c-7.2-9.7-8.3-23.9-2.6-34.6c4.5-8.6,12.9-13.9,23.5-15.1
						c1.8-0.2,3.6-0.3,5.4-0.3c14,0,27.6,5.9,40.9,11.7c12.8,5.5,25.9,11.3,39.6,11.9c1.2,0.1,2.4,0.1,3.5,0.1
						c10.3,0,20.5-2,30.4-3.9c9.8-1.9,20-3.8,30.3-3.8c8.5,0,16.3,1.3,23.7,4.1c22.8,8.5,26.1,20.6,24.8,29.3
						c-2.6,18.5-28.9,38.5-55.2,42C250.2,341.2,236.9,342.1,223.3,342.1z"/>
					<path class="st3" d="M125.1,249.4c26.9,0,52.1,22.3,80.4,23.6c1.2,0.1,2.4,0.1,3.6,0.1c20.8,0,40.3-7.7,60.6-7.7
						c7.6,0,15.3,1.1,23.2,4c52.8,19.6,8.5,63.8-30,69c-12.1,1.6-25.6,2.6-39.5,2.6c-47.1,0-99.3-10.9-123.3-43.4
						c-11.7-15.8-7-44.9,19.9-47.9C121.6,249.4,123.3,249.4,125.1,249.4 M125.1,247c-1.9,0-3.7,0.1-5.5,0.3
						c-11.1,1.2-19.8,6.9-24.5,15.8c-5.8,11-4.7,25.7,2.7,35.7c29.7,40.1,97.7,44.5,125.6,44.5c13.6,0,27-0.9,39.9-2.6
						c26.8-3.6,53.6-24.1,56.3-43c2.5-17.4-15-26.6-25.7-30.6c-7.6-2.8-15.5-4.2-24.2-4.2c-10.4,0-20.6,2-30.6,3.9
						c-9.8,1.9-19.9,3.8-30.1,3.8c-1.2,0-2.3,0-3.5-0.1c-13.3-0.6-26.4-6.3-39-11.8C153.2,253,139.3,247,125.1,247L125.1,247z"/>
				</g>
			</g>
			<g>
				<g>
					<path class="st20" d="M223.3,342.1c-27.7,0-95.2-4.3-124.5-43.9c-7.2-9.7-8.3-23.9-2.6-34.6c4.5-8.6,12.9-13.9,23.5-15.1
						c1.8-0.2,3.6-0.3,5.4-0.3c14,0,27.6,5.9,40.9,11.7c12.8,5.5,25.9,11.3,39.6,11.9c1.2,0.1,2.4,0.1,3.5,0.1
						c10.3,0,20.5-2,30.4-3.9c9.8-1.9,20-3.8,30.3-3.8c8.5,0,16.3,1.3,23.7,4.1c22.8,8.5,26.1,20.6,24.8,29.3
						c-2.6,18.5-28.9,38.5-55.2,42C250.2,341.2,236.9,342.1,223.3,342.1z"/>
					<path class="st3" d="M125.1,249.4c26.9,0,52.1,22.3,80.4,23.6c1.2,0.1,2.4,0.1,3.6,0.1c20.8,0,40.3-7.7,60.6-7.7
						c7.6,0,15.3,1.1,23.2,4c52.8,19.6,8.5,63.8-30,69c-12.1,1.6-25.6,2.6-39.5,2.6c-47.1,0-99.3-10.9-123.3-43.4
						c-11.7-15.8-7-44.9,19.9-47.9C121.6,249.4,123.3,249.4,125.1,249.4 M125.1,247c-1.9,0-3.7,0.1-5.5,0.3
						c-11.1,1.2-19.8,6.9-24.5,15.8c-5.8,11-4.7,25.7,2.7,35.7c29.7,40.1,97.7,44.5,125.6,44.5c13.6,0,27-0.9,39.9-2.6
						c26.8-3.6,53.6-24.1,56.3-43c2.5-17.4-15-26.6-25.7-30.6c-7.6-2.8-15.5-4.2-24.2-4.2c-10.4,0-20.6,2-30.6,3.9
						c-9.8,1.9-19.9,3.8-30.1,3.8c-1.2,0-2.3,0-3.5-0.1c-13.3-0.6-26.4-6.3-39-11.8C153.2,253,139.3,247,125.1,247L125.1,247z"/>
				</g>
			</g>
			<g>
				<g>
					<path class="st7" d="M242.6,348.1c-27.5,0-120.5-3.3-160.8-45.9c-8.2-8.7-10.6-21-5.9-30.5c4.4-8.9,14-14.1,27-14.8
						c1.2-0.1,2.4-0.1,3.5-0.1c16.8,0,33.6,6.4,49.8,12.5c15,5.7,30.4,11.5,46.1,12.7c2.8,0.2,5.7,0.3,8.7,0.3
						c10.2,0,20.3-1.2,30.1-2.4c9.7-1.2,19.7-2.3,29.9-2.3c11.5,0,21.9,1.6,31.7,4.8c27,8.9,31.2,20.6,29.8,28.9
						c-2.7,16.7-31.7,33.8-60.8,35.9C262.4,347.7,252.5,348.1,242.6,348.1z"/>
					<path class="st3" d="M106.5,257.9c31.7,0,62.6,22.8,95.8,25.2c3,0.2,5.9,0.3,8.8,0.3c20.5,0,39.8-4.7,59.9-4.7
						c10.1,0,20.4,1.2,31.2,4.8c61.5,20.3,13.2,59.3-30.6,62.4c-9.1,0.7-18.9,1-29.1,1c-57.5,0-127.5-11.4-159.7-45.5
						c-14.2-15.1-10.4-41.7,20.2-43.4C104.2,257.9,105.4,257.9,106.5,257.9 M106.5,255.5c-1.2,0-2.4,0-3.6,0.1
						c-13.6,0.7-23.6,6.3-28.2,15.6c-4.9,10-2.5,22.8,6.1,31.8c40.7,43,134.2,46.4,161.8,46.4c10,0,19.9-0.3,29.3-1
						c30.3-2.2,59.3-19.4,62.1-37c1.4-8.7-2.8-20.9-30.7-30.2c-10-3.3-20.5-4.9-32.2-4.9c-10.2,0-20.3,1.2-30,2.4
						c-9.7,1.2-19.8,2.4-29.9,2.4c-3,0-5.8-0.1-8.6-0.3c-15.5-1.1-30.9-6.9-45.7-12.6C140.5,261.9,123.5,255.5,106.5,255.5
						L106.5,255.5z"/>
				</g>
			</g>
			<g>
				<g>
					<path class="st7" d="M314.9,288.6c18.1,20.5-19.9,46.1-55.1,48.6c-52.3,3.7-126.6-2.2-170.4-29.7
						c41,34.9,124.9,42.5,182.3,38.4C312,342.9,356.2,309.7,314.9,288.6z"/>
				</g>
			</g>
			<g>
				<g>
					<path class="st4" d="M107.6,255.7c3.5,1.9,6.1,4.8,8.2,8.2c1,1.6,1.9,3.2,2.7,4.9c0.8,1.5,1.7,2.9,2.4,4.4
						c1.2,2.7,1.8,6.3,4,8.5c1,1,2.1,2,3.2,2.9c0.8,0.6,1.6,1,2.6,0.5c0.7-0.4,1.3-1,1.9-1.4c1.5-1,3.2-1.6,4.8-2.5
						c3.2-1.9,6-4.5,8.9-6.8c2.8-2.3,5.8-4.5,9.4-5.4c2.6-0.7,6.3-1.3,8.8,0.2c1.9,1.2,2.8,3.7,3.6,5.6c1.2,2.8,2.4,5.6,3.8,8.3
						c3,6,7.7,12.6,14.5,14.7c2.6,0.8,5.5,1.3,7.8-0.4c2-1.4,3-3.8,4.1-5.9c2.2-4.6,5.8-10.2,11.6-9.9c4.7,0.2,8.4,4.9,11.3,8.2
						c3.7,4.3,7.3,9,12.2,11.9c1.2,0.7,2.4,1.3,3.8,1.7c0.6,0.2,1.4-0.1,1.6-0.7c3.2-6.9,6.4-13.9,10.9-20.1c1.7-2.3,4-5.1,6.7-6
						c1.1-0.4,2.1-0.5,3.2,0c1.3,0.5,2.4,1.7,3.2,2.8c4.8,6.6,4.6,15.4,9.5,21.9c2.1,2.8,5.7,5,9.3,3.8c1.1-0.3,2-1.1,2.9-1.7
						c1.4-1,2.7-2.1,4.1-3.3c6-5.1,11.8-10.7,17.2-16.4c1.3-1.3-0.8-3.4-2-2c-4.9,5.1-10,9.9-15.2,14.6c-2.3,2-4.6,4.3-7.3,5.8
						c-0.1,0.1-0.7,0.3-0.4,0.2c-0.2,0.1-0.3,0.1-0.5,0.1c-0.9,0.1-1.8,0-2.7-0.3c-1.5-0.6-2.6-1.8-3.5-3.1
						c-2.1-3.2-3.2-6.9-4.3-10.5c-1.2-4.1-2.7-8.3-5.4-11.6c-2-2.4-4.8-4-8-3.3c-3,0.6-5.5,3.1-7.5,5.3c-5.6,6.5-9.1,14.6-12.7,22.3
						c0.5-0.2,1.1-0.4,1.6-0.7c-5.3-1.7-9.1-6.3-12.6-10.4c-3.3-3.9-6.7-8.5-11.5-10.6c-5.2-2.3-10.9,0.2-14.4,4.4
						c-1.8,2.2-3,4.7-4.2,7.3c-0.8,1.7-1.9,4-4,4.3c-2.8,0.5-6.2-1.2-8.4-2.9c-2.8-2.2-5-5.1-6.8-8.1c-1.6-2.7-3-5.5-4.2-8.4
						c-1-2.4-1.8-5-3.4-7.2c-1.6-2.2-3.9-3.3-6.6-3.5c-3.5-0.3-7.3,0.5-10.4,2c-6.7,3.2-11.3,9.4-18,12.5c-1.3,0.6-2.6,1.4-3.7,2.3
						c-0.1,0.1-0.3,0.2-0.4,0.3c0.1-0.1-0.1-0.1,0.2-0.1c0.6-0.1,0.9,0.3,0.4-0.2c-1-0.9-2.3-1.8-3.1-2.9c-1-1.2-1.4-2.9-1.9-4.3
						c-1.2-3.2-2.8-6.1-4.5-9.1c-1.8-3.3-3.7-6.5-6.4-9.1c-1.4-1.4-3.1-2.6-4.9-3.6C107.4,252.4,105.9,254.9,107.6,255.7
						L107.6,255.7z"/>
				</g>
			</g>
			<g>
				<g>
					<path class="st21" d="M218.1,373.4c-27.7,0-95.2-4.3-124.5-43.9c-7.2-9.7-8.3-23.9-2.6-34.6c4.5-8.6,12.9-13.9,23.5-15.1
						c1.8-0.2,3.7-0.3,5.6-0.3c14.3,0,28.1,6,41.4,11.8c12.5,5.5,25.5,11.2,38.8,11.8c1.2,0.1,2.4,0.1,3.5,0.1
						c10.3,0,20.5-2,30.4-3.9c9.8-1.9,20-3.8,30.3-3.8c8.5,0,16.3,1.3,23.7,4.1c22.8,8.5,26.1,20.6,24.8,29.3
						c-2.6,18.4-28.9,38.5-55.2,42C245,372.5,231.7,373.4,218.1,373.4z"/>
					<path class="st3" d="M120.1,280.6c27.4,0,52.3,22.3,80.2,23.6c1.2,0.1,2.4,0.1,3.6,0.1c20.8,0,40.3-7.7,60.6-7.7
						c7.6,0,15.3,1.1,23.2,4c52.8,19.6,8.5,63.8-30,69c-12.1,1.6-25.6,2.6-39.5,2.6c-47.1,0-99.3-10.9-123.3-43.4
						c-11.7-15.8-7-44.9,19.9-47.9C116.5,280.7,118.3,280.6,120.1,280.6 M120.1,278.2c-1.9,0-3.9,0.1-5.7,0.3
						c-11.1,1.2-19.8,6.9-24.5,15.8c-5.8,11-4.7,25.7,2.7,35.8c29.7,40.1,97.7,44.5,125.6,44.5c13.6,0,27-0.9,39.9-2.6
						c26.8-3.6,53.6-24.1,56.3-43c2.5-17.4-15-26.6-25.7-30.5c-7.6-2.8-15.5-4.2-24.2-4.2c-10.4,0-20.6,2-30.5,3.9
						c-9.8,1.9-19.9,3.8-30.1,3.8c-1.2,0-2.3,0-3.5-0.1c-13.1-0.6-25.9-6.2-38.3-11.6C148.6,284.3,134.7,278.2,120.1,278.2
						L120.1,278.2z"/>
				</g>
			</g>
			<g>
				<g>
					<path class="st21" d="M298,304.9c12.2,21.4-21.5,49.4-51.7,53.4c-45.4,6.1-109.3,2.7-146.4-24.6c33.3,37.8,107.8,42.9,159,36.1
						C294.9,364.9,335.9,326,298,304.9z"/>
				</g>
			</g>
			<g class="st8">
				<g>
					<path class="st9" d="M123.3,284.9c-15.3-1.1-26,8.9-28.6,21.5c-0.8,3.8,5.9,4.4,6.7,0.7c2-9.3,9.7-17.1,21.2-16.2
						C126.8,291.2,127.6,285.2,123.3,284.9L123.3,284.9z"/>
				</g>
				<g>
					<path class="st9" d="M95.5,318.2c0,0.1,0,0.2,0,0.3c-0.2,1.6,1.2,3.1,3,3.3c1.8,0.2,3.5-1,3.8-2.6c0-0.1,0-0.2,0-0.3
						c0.2-1.6-1.2-3.1-3-3.3C97.4,315.4,95.7,316.6,95.5,318.2L95.5,318.2z"/>
				</g>
			</g>
			<g>
				<g class="st8">
					<path class="st9" d="M95.3,261.9c-6.3,1.7-10.7,6.8-12.6,12.1c-1.4,3.6,4.9,5.9,6.3,2.2c1.5-4,4.3-7.6,9.1-8.9
						c1.8-0.5,2.4-2.6,1.7-3.9C98.9,261.8,97,261.4,95.3,261.9L95.3,261.9z"/>
				</g>
				<g class="st8">
					<path class="st9" d="M79.3,285.8c0,0.1,0.1,0.1,0.1,0.2c1.2,1.3,3.3,1.5,4.8,0.5c1.4-1,1.7-2.9,0.5-4.2c0-0.1-0.1-0.1-0.2-0.2
						c-1.2-1.3-3.3-1.5-4.8-0.5C78.4,282.6,78.1,284.5,79.3,285.8L79.3,285.8z"/>
				</g>
			</g>
		</g>
		<g>
			<path class="st22" d="M179,333.5c-0.6,3.1-3.9,5.3-7.5,4.8c-3.6-0.5-6-3.5-5.4-6.6"/>
			<g>
				<g>
					<path class="st10" d="M150.5,334.2c-0.2,1-4,1.3-8.5,0.7c-4.5-0.6-8-2-7.8-3c0.2-1,4-1.3,8.5-0.7
						C147.2,331.9,150.7,333.2,150.5,334.2z"/>
				</g>
				<g>
					<path class="st3" d="M207.2,333.8c-0.8,4.5-5.6,7.6-10.8,6.9c-5.1-0.7-8.6-5-7.8-9.5c0.8-4.5,5.6-7.6,10.8-6.9
						C204.5,325,208,329.3,207.2,333.8z"/>
					<path class="st9" d="M197.4,328.8c-0.3,1.4-1.8,2.4-3.4,2.2c-1.6-0.2-2.7-1.6-2.5-3c0.3-1.4,1.8-2.4,3.4-2.2
						C196.6,326,197.7,327.4,197.4,328.8z"/>
					<path class="st9" d="M196.5,332.8c-0.1,0.5-0.7,0.9-1.3,0.8c-0.6-0.1-1-0.6-0.9-1.1c0.1-0.5,0.7-0.9,1.3-0.8
						C196.2,331.7,196.6,332.2,196.5,332.8z"/>
					<path class="st9" d="M199,330.4c-0.1,0.3-0.4,0.6-0.8,0.5c-0.4-0.1-0.7-0.4-0.6-0.7c0.1-0.3,0.4-0.6,0.8-0.5
						C198.8,329.8,199.1,330.1,199,330.4z"/>
					<path class="st10" d="M209.1,342.4c-0.2,1-4,1.3-8.5,0.7c-4.5-0.6-8-2-7.8-3c0.2-1,4-1.3,8.5-0.7
						C205.8,340.1,209.3,341.4,209.1,342.4z"/>
				</g>
			</g>
			<g>
				<path class="st22" d="M197.6,318.1c0,0,7.9-1.4,12.3,4.7"/>
				<path class="st22" d="M153.8,311.9c0,0-7-3.5-13.4,1.1"/>
			</g>
			<path class="st22" d="M141.9,329c1.7-4,4.6-6.6,7.2-6.3c2.7,0.4,4.4,3.6,4.7,7.9"/>
		</g>
	</g>
	<g>
		<g>
			<path class="st13" d="M313.7,367.6c0,0-1.2-27-21-23.9"/>
		</g>
		<g>
			<line class="st13" x1="313.4" y1="368.7" x2="310.9" y2="372"/>
			<line class="st13" x1="313.4" y1="368.7" x2="314.6" y2="372.6"/>
			<line class="st13" x1="313.4" y1="368.7" x2="317.5" y2="370.5"/>
		</g>
	</g>
</g>
</svg>
