<?xml version="1.0" encoding="utf-8"?>
<!-- Generator: Adobe Illustrator 24.1.0, SVG Export Plug-In . SVG Version: 6.00 Build 0)  -->
<svg version="1.1" id="Capa_1" xmlns="http://www.w3.org/2000/svg" xmlns:xlink="http://www.w3.org/1999/xlink" x="0px" y="0px"
	 viewBox="0 0 425.2 425.2" style="enable-background:new 0 0 425.2 425.2;" xml:space="preserve">
<style type="text/css">
	.st0{fill:#B6DCFF;}
	.st1{fill:none;stroke:#422918;stroke-width:3.1504;stroke-linecap:round;stroke-linejoin:round;stroke-miterlimit:10;}
	.st2{fill:#E74242;}
	.st3{fill:#422918;}
	.st4{fill:#F9D0AC;}
	.st5{opacity:0.3;}
	.st6{fill:#EC6D4B;}
	.st7{fill:none;stroke:#422918;stroke-width:1.4749;stroke-linecap:round;stroke-miterlimit:10;}
	.st8{opacity:0.6;}
	.st9{fill:#FFFFFF;}
	.st10{fill:#EC6F80;}
	.st11{fill:none;stroke:#422918;stroke-width:0.675;stroke-linecap:round;stroke-linejoin:round;stroke-miterlimit:10;}
	.st12{fill:#FFD550;}
	.st13{fill:#FFF5AA;}
	.st14{fill:#FDDA8C;}
	.st15{fill:none;}
	.st16{fill:none;stroke:#422918;stroke-width:0.6736;stroke-linecap:round;stroke-linejoin:round;stroke-miterlimit:10;}
	.st17{fill-rule:evenodd;clip-rule:evenodd;fill:#FFFBDB;}
	.st18{clip-path:url(#SVGID_4_);fill-rule:evenodd;clip-rule:evenodd;fill:#FA4444;}
	.st19{clip-path:url(#SVGID_6_);fill-rule:evenodd;clip-rule:evenodd;fill:#E83838;}
	.st20{clip-path:url(#SVGID_8_);fill-rule:evenodd;clip-rule:evenodd;fill:#FFF001;}
	.st21{clip-path:url(#SVGID_10_);fill-rule:evenodd;clip-rule:evenodd;fill:#FFD001;}
	.st22{clip-path:url(#SVGID_12_);fill-rule:evenodd;clip-rule:evenodd;fill:#FFD001;}
	.st23{clip-path:url(#SVGID_14_);fill-rule:evenodd;clip-rule:evenodd;fill:#A75F4A;}
	.st24{clip-path:url(#SVGID_16_);fill-rule:evenodd;clip-rule:evenodd;fill:#704134;}
	.st25{clip-path:url(#SVGID_18_);fill-rule:evenodd;clip-rule:evenodd;fill:#468C34;}
	.st26{clip-path:url(#SVGID_20_);fill-rule:evenodd;clip-rule:evenodd;fill:#3C742E;}
	.st27{fill:#666666;}
	.st28{clip-path:url(#SVGID_22_);fill-rule:evenodd;clip-rule:evenodd;fill:#FA4444;}
	.st29{clip-path:url(#SVGID_24_);fill-rule:evenodd;clip-rule:evenodd;fill:#E83838;}
	.st30{clip-path:url(#SVGID_26_);fill-rule:evenodd;clip-rule:evenodd;fill:#E83838;}
	.st31{clip-path:url(#SVGID_28_);fill-rule:evenodd;clip-rule:evenodd;fill:#A75F4A;}
	.st32{clip-path:url(#SVGID_30_);fill-rule:evenodd;clip-rule:evenodd;fill:#704134;}
	.st33{clip-path:url(#SVGID_32_);fill-rule:evenodd;clip-rule:evenodd;fill:#FFABAB;}
	.st34{clip-path:url(#SVGID_34_);fill-rule:evenodd;clip-rule:evenodd;fill:#FFABAB;}
	.st35{clip-path:url(#SVGID_36_);fill-rule:evenodd;clip-rule:evenodd;fill:#FFF001;}
	.st36{clip-path:url(#SVGID_38_);fill-rule:evenodd;clip-rule:evenodd;fill:#FFD001;}
	.st37{clip-path:url(#SVGID_40_);fill-rule:evenodd;clip-rule:evenodd;fill:#FFD001;}
	.st38{clip-path:url(#SVGID_42_);fill-rule:evenodd;clip-rule:evenodd;fill:#A75F4A;}
	.st39{clip-path:url(#SVGID_44_);fill-rule:evenodd;clip-rule:evenodd;fill:#704134;}
	.st40{clip-path:url(#SVGID_46_);fill-rule:evenodd;clip-rule:evenodd;fill:#468C34;}
	.st41{clip-path:url(#SVGID_48_);fill-rule:evenodd;clip-rule:evenodd;fill:#3C742E;}
</style>
<g>
	<path class="st0" d="M404.4,154c-8.7-33.2-31.1-66.5-67.2-77.3c-31.7-9.5-63.3-3.5-93.6-20.4c-27.3-15.2-51.5-39.1-84.3-38.9
		c-19.6,0.1-37.8,9.4-49.4,23.6c-22.2,27.3-4.3,77-35.3,97.6c-10,6.6-22.6,8.6-34.6,11.5c-30.8,7.4-45.9,31-26.7,60.5
		c12.9,19.8,34.8,33,53.2,47.7c10.9,8.7,23.8,15.7,33.1,26.1c19.1,21.5,25.1,49.6,45.8,71.2c30.4,31.7,91.9,66.8,131.4,36.9
		c25.9-19.7,19.6-57.6,21.8-86.3c3.2-43.6,59.1-41.3,85.6-65C408.1,219.8,412.8,186.1,404.4,154z"/>
	<g>
		<g>
			<g>
				<path class="st1" d="M125.2,375c0,0,17,6.2,21.8,28.9l5.6,0.5"/>
			</g>
			<g>
				<path class="st1" d="M89.8,381.6c0,0,2.1,18.1-16,32.7l2,5.3"/>
			</g>
		</g>
		<path class="st1" d="M189.3,262.6c0,0-40.7,40.6-79.8,17.9"/>
		<g>
			<line class="st1" x1="189.3" y1="262.6" x2="187.6" y2="259.5"/>
			<line class="st1" x1="189.3" y1="262.6" x2="190.4" y2="259.2"/>
			<line class="st1" x1="189.3" y1="262.6" x2="192.5" y2="261.2"/>
		</g>
		<g>
			<g>
				<g>
					<g>
						<path class="st2" d="M74.9,390.5c-5.2,1-10.4-2.2-11.8-7.3L16.4,214.4c-1.3-4.6-0.9-11.6,0.8-16l1.2-3.2
							c1.8-4.7,6.9-9.4,11.8-10.8l55.9-16c0.4-0.1,0.7-0.2,1.1-0.3c4.8-0.9,10.8,0.4,14.5,3.2l2.7,2.1c3.7,2.9,7.6,8.7,8.9,13.2
							l46.8,168.8c1.5,5.5-1.7,11.2-7.2,12.7l-77.1,22.1C75.5,390.4,75.2,390.4,74.9,390.5z"/>
						<path class="st3" d="M87.5,169.6c4.3-0.8,9.9,0.4,13.3,2.9l2.7,2.1c3.5,2.7,7.2,8.2,8.4,12.5l46.8,168.8
							c1.3,4.7-1.5,9.6-6.1,10.9l-77.1,22.1c-0.2,0.1-0.5,0.1-0.7,0.2c-4.4,0.9-8.9-1.8-10.1-6.2L17.8,214c-1.2-4.2-0.8-11,0.8-15.1
							l1.2-3.2c1.7-4.3,6.4-8.6,10.8-9.9l55.9-16C86.9,169.7,87.2,169.6,87.5,169.6 M87,166.7c-0.4,0.1-0.8,0.2-1.3,0.3l-55.9,16
							c-5.3,1.5-10.8,6.5-12.8,11.7l-1.2,3.2c-1.8,4.7-2.2,12.1-0.8,16.9l46.8,168.8c1.6,5.8,7.5,9.5,13.5,8.3
							c0.3-0.1,0.7-0.1,1-0.2l77.1-22.1c6.2-1.8,9.9-8.3,8.2-14.6l-46.8-168.8c-1.3-4.8-5.5-11-9.4-14l-2.7-2.1
							C98.6,167.1,92.2,165.6,87,166.7L87,166.7z"/>
					</g>
				</g>
			</g>
			<path class="st4" d="M128.2,263.1c5.1,18.2-10.3,38.6-34.4,45.5c-24,6.9-47.6-2.3-52.7-20.6c-5.1-18.2,10.3-38.6,34.4-45.5
				C99.5,235.6,123.1,244.8,128.2,263.1z"/>
			<g>
				<g>
					<polygon class="st2" points="27.4,140.5 35,138.4 29.7,97.8 42.1,94.2 58.5,131.7 66,129.5 83.9,158.1 26.9,174.4 					"/>
					<g>
						<path class="st3" d="M41.2,96l16.4,37.4l7.7-2.2l16.2,26l-53.2,15.2l0.5-30.8l7.7-2.2l-5.3-40.6L41.2,96 M42.9,92.5l-2.5,0.7
							L30.6,96l-2.5,0.7l0.3,2.5l4.9,38.1l-5.3,1.5l-2.1,0.6v2.2l-0.5,30.8l-0.1,4l3.8-1.1l53.2-15.2l3.8-1.1l-2.1-3.3l-16.2-26
							l-1.2-1.9l-2.1,0.6l-5.3,1.5L43.9,94.8L42.9,92.5L42.9,92.5z"/>
					</g>
				</g>
			</g>
			<g>
				<g>
					<g>
						<polygon class="st2" points="57.6,133.4 41.2,96 37,97.2 53.4,134.7 						"/>
					</g>
				</g>
				<g>
					<g>
						<polygon class="st2" points="65.4,131.2 61.1,132.4 77.3,158.5 81.6,157.3 						"/>
					</g>
				</g>
			</g>
			<g>
				<g class="st5">
					<path class="st2" d="M103.5,174.6l-2.7-2.1c-2.5-1.9-6.2-3-9.7-3.2c2,2.6,3.8,5.8,4.5,8.4l46.8,168.8c1.3,4.7-1.5,9.6-6.1,10.9
						l-72.9,20.8l1.2,4.4c1.3,4.7,6.2,7.4,10.8,6.1l77.1-22.1c4.7-1.3,7.4-6.2,6.1-10.9l-46.8-168.8
						C110.7,182.8,107,177.3,103.5,174.6z"/>
				</g>
			</g>
			<g>
				<g>
					<polygon class="st6" points="10.6,176 98.6,150.9 103.3,167.9 15.3,193.1 					"/>
					<g>
						<path class="st3" d="M97.6,152.7l3.9,14.2l-85.2,24.4L12.4,177L97.6,152.7 M99.6,149l-2.8,0.8l-85.2,24.4L8.8,175l0.8,2.8
							l3.9,14.2l0.8,2.8l2.8-0.8l85.2-24.4l2.8-0.8l-0.8-2.8l-3.9-14.2L99.6,149L99.6,149z"/>
					</g>
				</g>
			</g>
			<g>
				<g>
					<polygon class="st2" points="84,156.6 87.9,170.8 101.5,166.9 97.6,152.7 					"/>
				</g>
			</g>
			<g>
				<line class="st7" x1="18.9" y1="181.1" x2="21.3" y2="189.8"/>
				<line class="st7" x1="31.1" y1="177.6" x2="33.5" y2="186.3"/>
				<line class="st7" x1="43.4" y1="174.1" x2="45.8" y2="182.8"/>
				<line class="st7" x1="55.6" y1="170.6" x2="58" y2="179.3"/>
				<line class="st7" x1="67.8" y1="167.1" x2="70.3" y2="175.8"/>
				<line class="st7" x1="80.1" y1="163.6" x2="82.5" y2="172.3"/>
				<line class="st7" x1="92.3" y1="160.1" x2="94.7" y2="168.8"/>
			</g>
			<g class="st8">
				<g>
					<path class="st9" d="M23.1,211c6.7,24.3,13.5,48.6,20.2,73c1.1,4.1,7.5,2.3,6.4-1.8c-6.7-24.3-13.5-48.6-20.2-73
						C28.3,205.1,21.9,206.9,23.1,211L23.1,211z"/>
				</g>
				<g>
					<path class="st9" d="M51.7,302c0.1,0,0.3-0.1,0.4-0.1c1.7-0.5,2.8-2.4,2.3-4.1s-2.3-2.8-4.1-2.3c-0.1,0-0.3,0.1-0.4,0.1
						c-1.7,0.5-2.8,2.4-2.3,4.1C48.1,301.4,50,302.5,51.7,302L51.7,302z"/>
				</g>
			</g>
		</g>
		<g>
			<g>
				<g>
					<path class="st3" d="M84,276.2c1,3.6-1.1,7.3-4.6,8.4c-3.6,1-7.3-1-8.3-4.6s1.1-7.3,4.6-8.4C79.2,270.6,82.9,272.6,84,276.2z"
						/>
					<path class="st9" d="M75.9,275.5c0.3,1.1-0.3,2.3-1.5,2.7c-1.1,0.3-2.3-0.3-2.7-1.5c-0.3-1.1,0.3-2.3,1.5-2.7
						C74.4,273.8,75.6,274.4,75.9,275.5z"/>
					<path class="st9" d="M76.7,278.7c0.1,0.4-0.1,0.9-0.6,1c-0.4,0.1-0.9-0.1-1-0.5s0.1-0.9,0.6-1
						C76.1,278.1,76.5,278.3,76.7,278.7z"/>
					<path class="st9" d="M77.5,276.3c0.1,0.3-0.1,0.6-0.3,0.6c-0.3,0.1-0.6-0.1-0.6-0.3c-0.1-0.3,0.1-0.6,0.4-0.6
						C77.1,275.8,77.4,276,77.5,276.3z"/>
					<path class="st10" d="M81.6,283.9c0.2,0.8-2.1,2.2-5.3,3.1c-3.1,0.9-5.9,1-6.1,0.2s2.1-2.2,5.3-3.1
						C78.6,283.2,81.3,283.1,81.6,283.9z"/>
				</g>
				<g>
					<path class="st3" d="M118.2,266.2c1,3.6-1.1,7.3-4.6,8.4c-3.6,1-7.3-1-8.3-4.6s1.1-7.3,4.6-8.4
						C113.4,260.5,117.2,262.6,118.2,266.2z"/>
					<path class="st9" d="M110.1,265.5c0.3,1.1-0.3,2.3-1.5,2.7c-1.1,0.3-2.3-0.3-2.7-1.5c-0.3-1.1,0.3-2.3,1.5-2.7
						C108.6,263.7,109.8,264.4,110.1,265.5z"/>
					<path class="st9" d="M110.9,268.7c0.1,0.4-0.1,0.9-0.6,1c-0.4,0.1-0.9-0.1-1-0.6c-0.1-0.4,0.1-0.9,0.6-1
						C110.3,268,110.8,268.3,110.9,268.7z"/>
					<path class="st9" d="M111.7,266.2c0.1,0.3-0.1,0.6-0.3,0.6c-0.3,0.1-0.6-0.1-0.6-0.3c-0.1-0.3,0.1-0.6,0.4-0.6
						C111.4,265.8,111.6,266,111.7,266.2z"/>
					<path class="st10" d="M122.4,272c0.2,0.8-2.1,2.2-5.3,3.1c-3.1,0.9-5.8,1-6.1,0.2c-0.2-0.8,2.1-2.2,5.3-3.1
						C119.4,271.2,122.2,271.2,122.4,272z"/>
				</g>
			</g>
			<g>
				<g>
					<g>
						<path class="st2" d="M96.2,281.1c-2.7,0.5-5.3-1.1-6-3.7c0-0.1,0-0.2,0-0.2c0.1-0.4,0.6-1.6,4.7-2.8c0.5-0.1,0.9-0.2,1.3-0.3
							c2.4-0.5,3.7,0,3.8,0c0.2,0.1,0.3,0.2,0.4,0.4c0.8,2.8-0.8,5.8-3.6,6.6C96.6,281.1,96.4,281.1,96.2,281.1L96.2,281.1z"/>
						<path class="st3" d="M96.3,274.7c2.3-0.4,3.5,0,3.5,0c0.7,2.5-0.7,5.1-3.2,5.8c-0.1,0-0.3,0.1-0.4,0.1
							c-2.4,0.5-4.7-0.9-5.4-3.3c0,0,0.1-1.1,4.2-2.3C95.5,274.8,95.9,274.7,96.3,274.7 M96,273.5c-0.5,0.1-0.9,0.2-1.4,0.3
							c-4,1.2-5,2.4-5.1,3.3c0,0.2,0,0.3,0,0.5c0.8,2.9,3.7,4.7,6.7,4.1c0.2,0,0.4-0.1,0.5-0.1c3.1-0.9,4.9-4.2,4.1-7.3
							c-0.1-0.4-0.4-0.7-0.8-0.8C100,273.4,98.5,273,96,273.5L96,273.5z"/>
					</g>
				</g>
			</g>
			<g>
				<g>
					<g>
						<path class="st9" d="M91.7,279c-0.2,0-0.6,0.1-0.9-0.2c-0.3-0.4-0.5-0.9-0.6-1.4c0-0.1,0-0.2,0-0.2c0.1-0.4,0.6-1.6,4.7-2.8
							c0.5-0.1,0.9-0.2,1.3-0.3c2.4-0.5,3.7,0,3.8,0c0.2,0.1,0.3,0.2,0.4,0.4c0.1,0.5,0.2,1,0.2,1.5C100.6,277,91.8,279,91.7,279z"
							/>
						<path class="st3" d="M96.3,274.7c2.3-0.4,3.5,0,3.5,0c0.1,0.4,0.2,0.9,0.2,1.3c0,0.2-7,2.2-8.4,2.5c-0.2,0-0.2,0-0.3,0
							c-0.2-0.4-0.4-0.8-0.5-1.2c0,0,0.1-1.1,4.2-2.3C95.5,274.8,95.9,274.7,96.3,274.7 M96,273.5c-0.5,0.1-0.9,0.2-1.4,0.3
							c-4,1.2-5,2.4-5.1,3.3c0,0.2,0,0.3,0,0.5c0.2,0.6,0.4,1.1,0.7,1.5c0.5,0.7,1.2,0.6,1.5,0.5c0.8-0.2,3-0.8,4.8-1.3
							c4.1-1.2,4.5-1.3,4.5-2.4c0-0.5-0.1-1.1-0.2-1.7c-0.1-0.4-0.4-0.7-0.8-0.8C100,273.4,98.5,273,96,273.5L96,273.5z"/>
					</g>
				</g>
			</g>
			<g>
				<path class="st11" d="M106.6,257.5c0,0,4.6-3.4,9.6-0.3"/>
				<path class="st11" d="M76.1,266.5c0,0-5.7-0.4-8.3,5"/>
			</g>
		</g>
		<g>
			<g>
				<path class="st1" d="M151.9,304.3c0,0-40.7,40.6-79.8,17.9"/>
			</g>
			<g>
				<line class="st1" x1="151.8" y1="303.3" x2="150" y2="300.2"/>
				<line class="st1" x1="151.8" y1="303.3" x2="152.9" y2="299.9"/>
				<line class="st1" x1="151.8" y1="303.3" x2="155" y2="301.9"/>
			</g>
		</g>
	</g>
	<g>
		<g>
			<g>
				<path class="st1" d="M354.5,239.4c0,0-8.4,12.6-0.6,30l-3.5,3.2"/>
			</g>
			<g>
				<path class="st1" d="M381.5,226.2c0,0,7.4,13,26.6,13.8l1.2,4.5"/>
			</g>
			<g>
				<g>
					<path class="st1" d="M286,177.9c0,0,17.5,19.4,24.9-2"/>
				</g>
				<g>
					<line class="st1" x1="285.7" y1="177.1" x2="285.3" y2="174.2"/>
					<line class="st1" x1="285.7" y1="177.1" x2="283.3" y2="175.5"/>
					<line class="st1" x1="285.7" y1="177.1" x2="282.8" y2="177.8"/>
				</g>
			</g>
		</g>
		<g>
			<g>
				<g>
					<g>
						<path class="st12" d="M404.7,225.6c-0.2,0.1-0.4,0.2-0.6,0.3l-62.2,24.4c-4.4,1.7-9.4-0.4-11-4.8L279,110.6
							c-1.4-3.6-1.7-9.4-0.6-13.2l0.8-2.7c1.1-3.7,4.5-7.7,8.2-9.5c0.2-0.1,0.5-0.2,0.8-0.3l45.1-17.7c3.9-1.5,9.6-1,13.1,1.2
							l2.4,1.5c3.3,2.1,7,6.5,8.4,10.1L409,214.8C410.6,218.9,408.7,223.7,404.7,225.6z"/>
						<path class="st3" d="M287.8,86.2c0.2-0.1,0.4-0.2,0.7-0.3l45.1-17.7c3.5-1.4,8.8-0.9,12,1.1l2.4,1.5c3.1,1.9,6.6,6.2,7.9,9.6
							l51.9,134.9c1.4,3.6-0.3,7.6-3.7,9.2c-0.2,0.1-0.3,0.2-0.5,0.2l-62.2,24.4c-3.8,1.5-8-0.4-9.5-4.1L280,110.1
							c-1.3-3.4-1.5-8.9-0.6-12.4l0.8-2.7C281.3,91.5,284.5,87.8,287.8,86.2 M286.7,84L286.7,84c-4,1.9-7.7,6.2-8.8,10.3l-0.8,2.7
							c-1.1,4-0.9,10.1,0.6,14l51.9,134.9c1.9,5,7.6,7.4,12.6,5.5l62.2-24.4c0.2-0.1,0.5-0.2,0.7-0.3c4.6-2.2,6.8-7.6,5-12.3
							l-51.9-135c-1.5-3.8-5.4-8.6-8.9-10.7l-2.4-1.5c-3.8-2.4-10-2.9-14.2-1.3l-45.1,17.7C287.3,83.7,287,83.9,286.7,84L286.7,84z"
							/>
					</g>
				</g>
			</g>
			<path class="st13" d="M375.4,141.4c5.6,14.6-5.6,32.6-25,40.2c-19.4,7.6-39.7,1.9-45.3-12.6c-5.6-14.6,5.6-32.6,25-40.2
				C349.5,121.2,369.8,126.8,375.4,141.4z"/>
			<g>
				<g>
					<polygon class="st12" points="284.5,76.9 282.3,49 288.4,46.6 280.9,13.6 290.8,9.7 307.3,39.2 313.4,36.8 330.4,58.9 					"/>
					<path class="st3" d="M282.3,14.4l8-3.1l16.5,29.4l6.2-2.4l15.5,20.1l-42.9,16.8l-2-25.3l6.2-2.4L282.3,14.4 M279.4,12.9
						l0.5,2.1l7,30.9l-4.3,1.7l-1.7,0.7l0.1,1.8l2,25.3l0.3,3.3l3.1-1.2l42.9-16.8l3.1-1.2l-2-2.6L315,36.7l-1.1-1.4l-1.7,0.7
						l-4.3,1.7L292.4,10l-1-1.8l-2,0.8l-8,3.1L279.4,12.9L279.4,12.9z"/>
				</g>
			</g>
			<g>
				<g>
					<g>
						<polygon class="st12" points="306.8,40.7 290.3,11.2 286.9,12.6 303.4,42 						"/>
					</g>
				</g>
				<g>
					<g>
						<polygon class="st12" points="313,38.2 309.6,39.6 325.1,59.7 328.5,58.3 						"/>
					</g>
				</g>
			</g>
			<g>
				<g>
					<path class="st12" d="M348,70.8l-2.4-1.5c-2.2-1.4-5.4-2-8.3-1.8c1.9,2,3.6,4.5,4.4,6.6L393.6,209c1.4,3.7-0.5,8-4.2,9.5
						l-58.8,23.1l1.4,3.5c1.4,3.7,5.7,5.6,9.5,4.1l62.2-24.4c3.8-1.5,5.7-5.7,4.2-9.5l-52-135C354.6,77,351.1,72.7,348,70.8z"/>
				</g>
			</g>
			<g>
				<g>
					<polygon class="st14" points="276.4,93 271.3,79.6 342,51.8 347.2,65.2 					"/>
					<path class="st3" d="M272.7,80.2l68.7-26.9l4.4,11.4l-68.7,26.9L272.7,80.2 M269.9,79l0.8,2l4.4,11.3l0.8,2l2.1-0.8l68.7-26.9
						l2.1-0.8l-0.8-2l-4.4-11.4l-0.8-2l-2.1,0.8L272,78.1L269.9,79L269.9,79z"/>
				</g>
			</g>
			<g>
				<g>
					<polygon class="st12" points="330.5,57.5 334.8,68.9 345.8,64.6 341.4,53.2 					"/>
				</g>
			</g>
			<g>
				<line class="st7" x1="278.4" y1="83" x2="281.1" y2="90"/>
				<line class="st7" x1="288.3" y1="79.1" x2="290.9" y2="86.1"/>
				<line class="st7" x1="298.1" y1="75.3" x2="300.8" y2="82.2"/>
				<line class="st7" x1="308" y1="71.4" x2="310.7" y2="78.4"/>
				<line class="st7" x1="317.9" y1="67.5" x2="320.6" y2="74.5"/>
				<line class="st7" x1="327.7" y1="63.6" x2="330.4" y2="70.6"/>
				<line class="st7" x1="337.6" y1="59.8" x2="340.3" y2="66.7"/>
			</g>
			<g class="st8">
				<g>
					<path class="st9" d="M287.5,105.9c7.5,19.4,15,38.9,22.4,58.3c1.3,3.3,6.4,1.3,5.1-2c-7.5-19.4-15-38.9-22.4-58.3
						C291.4,100.7,286.3,102.7,287.5,105.9L287.5,105.9z"/>
				</g>
				<g>
					<path class="st9" d="M318.3,178.3c0.1,0,0.2-0.1,0.3-0.1c1.4-0.5,2.1-2.2,1.6-3.5c-0.5-1.4-2.1-2.1-3.5-1.5
						c-0.1,0-0.2,0.1-0.3,0.1c-1.4,0.5-2.1,2.2-1.6,3.5C315.3,178.2,316.9,178.9,318.3,178.3L318.3,178.3z"/>
				</g>
			</g>
		</g>
		<g>
			<g>
				<path class="st1" d="M293.4,207.9c0,0,47,6.8,62.3-27.8"/>
			</g>
			<g>
				<line class="st1" x1="293.1" y1="207.2" x2="292.7" y2="204.3"/>
				<line class="st1" x1="293.1" y1="207.2" x2="290.7" y2="205.5"/>
				<line class="st1" x1="293.1" y1="207.2" x2="290.2" y2="207.9"/>
			</g>
		</g>
		<g>
			<g>
				<g>
					<path class="st3" d="M323.8,158.6c1,2.9-0.5,6.1-3.4,7.2c-2.9,1.1-6.1-0.4-7.1-3.3c-1-2.9,0.5-6.1,3.4-7.2
						C319.5,154.3,322.7,155.7,323.8,158.6z"/>
					<path class="st9" d="M317.1,158.6c0.3,0.9-0.1,1.9-1.1,2.3c-0.9,0.3-2-0.1-2.3-1s0.1-1.9,1.1-2.3
						C315.7,157.2,316.7,157.7,317.1,158.6z"/>
					<path class="st9" d="M317.9,161.2c0.1,0.3-0.1,0.7-0.4,0.9c-0.3,0.1-0.7,0-0.9-0.4c-0.1-0.3,0.1-0.7,0.4-0.9
						C317.4,160.6,317.8,160.8,317.9,161.2z"/>
					<path class="st9" d="M318.4,159.1c0.1,0.2,0,0.5-0.3,0.5c-0.2,0.1-0.5,0-0.5-0.2c-0.1-0.2,0-0.5,0.3-0.5
						C318.1,158.7,318.4,158.9,318.4,159.1z"/>
					<path class="st10" d="M322.2,165.1c0.2,0.6-1.6,1.9-4.2,2.9c-2.5,0.9-4.8,1.2-5,0.5c-0.2-0.6,1.6-1.9,4.2-2.9
						C319.8,164.7,322,164.5,322.2,165.1z"/>
				</g>
				<g>
					<path class="st3" d="M351.6,148.3c1,2.9-0.5,6.1-3.4,7.2c-2.9,1.1-6.1-0.4-7.1-3.3c-1-2.9,0.5-6.1,3.4-7.2
						C347.3,144,350.5,145.5,351.6,148.3z"/>
					<path class="st9" d="M344.9,148.3c0.3,0.9-0.1,1.9-1.1,2.3c-0.9,0.3-2-0.1-2.3-1s0.1-1.9,1.1-2.3
						C343.5,146.9,344.5,147.4,344.9,148.3z"/>
					<path class="st9" d="M345.7,150.9c0.1,0.3-0.1,0.7-0.4,0.9c-0.4,0.1-0.7,0-0.9-0.4c-0.1-0.3,0.1-0.7,0.4-0.9
						C345.2,150.4,345.5,150.5,345.7,150.9z"/>
					<path class="st9" d="M346.2,148.8c0.1,0.2,0,0.5-0.3,0.5c-0.2,0.1-0.5,0-0.5-0.2c-0.1-0.2,0-0.5,0.3-0.5
						C345.9,148.5,346.1,148.6,346.2,148.8z"/>
					<path class="st10" d="M355.4,152.9c0.2,0.6-1.6,1.9-4.2,2.9c-2.5,0.9-4.8,1.2-5,0.5c-0.2-0.6,1.6-1.9,4.2-2.9
						C352.9,152.4,355.1,152.2,355.4,152.9z"/>
				</g>
			</g>
			<g>
				<g>
					<g>
						<path class="st9" d="M335,161.6c-0.1,0.1-0.2,0.1-0.4,0.2c-2.2,0.8-4.7-0.3-5.5-2.5v-0.1c0-0.2,0.2-0.9,2.1-1.8
							c0.4-0.2,0.9-0.4,1.5-0.6c2.6-1,4.1-0.6,4.2-0.6s0.2,0.1,0.3,0.2C337.9,158.3,337,160.6,335,161.6L335,161.6z"/>
						<path class="st3" d="M331.4,157.6c0.4-0.2,0.9-0.4,1.5-0.6c2.5-0.9,3.9-0.6,3.9-0.6c0.7,1.9-0.2,4-2,4.8
							c-0.1,0.1-0.2,0.1-0.3,0.1c-2,0.7-4.2-0.3-5-2.3C329.5,159.1,329.5,158.5,331.4,157.6 M331.1,156.9c-2,1-2.3,1.8-2.4,2.2
							c0,0.1,0,0.2,0,0.3c0.9,2.4,3.5,3.6,5.9,2.7c0.1-0.1,0.3-0.1,0.4-0.2c2.2-1,3.2-3.5,2.4-5.8c-0.1-0.2-0.3-0.4-0.5-0.5
							c-0.2,0-1.7-0.4-4.4,0.6C332,156.5,331.5,156.7,331.1,156.9L331.1,156.9z"/>
					</g>
				</g>
				<g>
					<g>
						<path class="st9" d="M330.1,160.5c0,0,1-0.1,1.8-0.7"/>
						<path class="st3" d="M330.1,160.1c0,0,0.5,0,0.9,0c0.2,0,0.5-0.1,0.6-0.2c0.2-0.1,0.3-0.1,0.3-0.1s-0.1,0.1-0.2,0.2
							c-0.1,0.1-0.3,0.3-0.6,0.4c-0.4,0.3-1,0.4-1,0.4c-0.2,0-0.4-0.1-0.4-0.3C329.7,160.3,329.9,160.1,330.1,160.1z"/>
					</g>
				</g>
				<g>
					<g>
						<path class="st9" d="M337.2,157.9c0,0-0.9,0.6-1.9,0.7"/>
						<path class="st3" d="M337.4,158.2c0,0-0.5,0.2-1,0.3c-0.3,0.1-0.5,0.1-0.7,0.1s-0.3,0-0.3,0s0.1,0,0.3-0.1
							c0.2-0.1,0.4-0.1,0.6-0.3c0.4-0.2,0.7-0.6,0.8-0.6c0.2-0.1,0.4-0.1,0.5,0.1C337.6,157.8,337.6,158.1,337.4,158.2z"/>
					</g>
				</g>
				<g>
					<g>
						<line class="st15" x1="333.2" y1="159.4" x2="334.1" y2="159.1"/>
						<path class="st3" d="M333.2,159.4c0,0,0-0.1,0.1-0.1s0.2-0.1,0.3-0.1c0.1,0,0.2,0,0.3,0c0.1,0,0.2,0,0.2,0s0,0.1-0.1,0.1
							s-0.2,0.1-0.3,0.1c-0.1,0-0.2,0-0.3,0C333.3,159.4,333.2,159.4,333.2,159.4z"/>
					</g>
				</g>
			</g>
			<g>
				<path class="st16" d="M341.5,142c0,0,3.6-3.1,8-0.8"/>
				<path class="st16" d="M316.7,151.1c0,0-4.8,0-6.6,4.6"/>
			</g>
		</g>
	</g>
</g>
<g>
	<g>
		<g>
			<path id="SVGID_1_" class="st17" d="M140.5,250.7l52.7-39.8c11.1,7.8,17,14.5,17.3,18.1c-3.9,5.4-6.7-1-12.7,2.4
				c-9.8,5.6,9.4,31,17.4,23.1c4.9-4.8-0.5-9.3,5.7-11.6c3.4,1.3,8.3,8.8,12.7,21.6l-52.7,39.8L140.5,250.7L140.5,250.7z"/>
		</g>
		<g>
			<defs>
				<path id="SVGID_2_" d="M140.5,250.7l52.7-39.8c11.1,7.8,17,14.5,17.3,18.1c-3.9,5.4-6.7-1-12.7,2.4c-9.8,5.6,9.4,31,17.4,23.1
					c4.9-4.8-0.5-9.3,5.7-11.6c3.4,1.3,8.3,8.8,12.7,21.6l-52.7,39.8L140.5,250.7L140.5,250.7z"/>
			</defs>
			<clipPath id="SVGID_4_">
				<use xlink:href="#SVGID_2_"  style="overflow:visible;"/>
			</clipPath>
			<path class="st18" d="M251.1,215.3c6.9,18.4-12.4,32.2-19.4,32c-4.4-0.1-6-1.5-7.8-1.6c-4.7-0.3-5,0.9-9.4-3.1
				c-11.8-10.7-16.2-22.6-6.1-34.4c4.4-5.2,11.1-8.6,19.5-8.2C237.8,200.4,246.9,204,251.1,215.3L251.1,215.3z"/>
		</g>
		<g>
			<defs>
				<path id="SVGID_5_" d="M140.5,250.7l52.7-39.8c11.1,7.8,17,14.5,17.3,18.1c-3.9,5.4-6.7-1-12.7,2.4c-9.8,5.6,9.4,31,17.4,23.1
					c4.9-4.8-0.5-9.3,5.7-11.6c3.4,1.3,8.3,8.8,12.7,21.6l-52.7,39.8L140.5,250.7L140.5,250.7z"/>
			</defs>
			<clipPath id="SVGID_6_">
				<use xlink:href="#SVGID_5_"  style="overflow:visible;"/>
			</clipPath>
			<path class="st19" d="M251.9,217.9c4.3,17.1-13.5,29.5-20.2,29.3c-4.4-0.1-6-1.5-7.8-1.6c-4.7-0.3-5,0.9-9.4-3.1
				c-11.8-10.7-16.2-22.6-6.1-34.4c2.9-3.4,6.8-6.1,11.6-7.4c-4,3.1-9.6,9.6-5.4,20.3c6.2,15.8,31.7,11.6,35.8-1.5
				C250.7,218.6,251.2,218.1,251.9,217.9L251.9,217.9z"/>
		</g>
		<g>
			<defs>
				<path id="SVGID_7_" d="M140.5,250.7l52.7-39.8c11.1,7.8,17,14.5,17.3,18.1c-3.9,5.4-6.7-1-12.7,2.4c-9.8,5.6,9.4,31,17.4,23.1
					c4.9-4.8-0.5-9.3,5.7-11.6c3.4,1.3,8.3,8.8,12.7,21.6l-52.7,39.8L140.5,250.7L140.5,250.7z"/>
			</defs>
			<clipPath id="SVGID_8_">
				<use xlink:href="#SVGID_7_"  style="overflow:visible;"/>
			</clipPath>
			<path class="st20" d="M177,249.4c-2,20.9,21,28.4,28,25.8c4.4-1.6,5.6-3.5,7.4-4.2c4.6-1.8,5.2-0.8,8.6-6.3
				c9-14.8,10.2-28.3-3-36.8c-5.8-3.8-13.4-5-21.8-1.8C186.4,229.9,178.2,236.6,177,249.4L177,249.4z"/>
		</g>
		<g>
			<defs>
				<path id="SVGID_9_" d="M140.5,250.7l52.7-39.8c11.1,7.8,17,14.5,17.3,18.1c-3.9,5.4-6.7-1-12.7,2.4c-9.8,5.6,9.4,31,17.4,23.1
					c4.9-4.8-0.5-9.3,5.7-11.6c3.4,1.3,8.3,8.8,12.7,21.6l-52.7,39.8L140.5,250.7L140.5,250.7z"/>
			</defs>
			<clipPath id="SVGID_10_">
				<use xlink:href="#SVGID_9_"  style="overflow:visible;"/>
			</clipPath>
			<path class="st21" d="M177,249.4c-2,20.9,21,28.4,28,25.8c4.4-1.6,5.6-3.5,7.4-4.2c4.6-1.8,5.2-0.8,8.6-6.3
				c2.4-3.9,4.2-7.7,5.3-11.3c-1.8,4.6-4.6,9.5-6.8,11.5c-2.9,2.6-7.9,0.3-11,3.4s-23.1,0.1-25.6-14.2s7.5-25,7.5-25s-0.1,0-0.1-0.1
				C183.2,233,178,239.3,177,249.4L177,249.4z"/>
		</g>
		<g>
			<defs>
				<path id="SVGID_11_" d="M140.5,250.7l52.7-39.8c11.1,7.8,17,14.5,17.3,18.1c-3.9,5.4-6.7-1-12.7,2.4c-9.8,5.6,9.4,31,17.4,23.1
					c4.9-4.8-0.5-9.3,5.7-11.6c3.4,1.3,8.3,8.8,12.7,21.6l-52.7,39.8L140.5,250.7L140.5,250.7z"/>
			</defs>
			<clipPath id="SVGID_12_">
				<use xlink:href="#SVGID_11_"  style="overflow:visible;"/>
			</clipPath>
			<path class="st22" d="M196,232.7c0,0-3.3,2.1-1.7,3.6s6.7,0.6,8-2.6C203.5,230.4,198.8,230,196,232.7L196,232.7z"/>
		</g>
		<g>
			<defs>
				<path id="SVGID_13_" d="M140.5,250.7l52.7-39.8c11.1,7.8,17,14.5,17.3,18.1c-3.9,5.4-6.7-1-12.7,2.4c-9.8,5.6,9.4,31,17.4,23.1
					c4.9-4.8-0.5-9.3,5.7-11.6c3.4,1.3,8.3,8.8,12.7,21.6l-52.7,39.8L140.5,250.7L140.5,250.7z"/>
			</defs>
			<clipPath id="SVGID_14_">
				<use xlink:href="#SVGID_13_"  style="overflow:visible;"/>
			</clipPath>
			<path class="st23" d="M197.2,234.8c0,0,0.6,0.2,1.2-0.3c0.7-0.5,0.2-5.9-2.3-8.7c-1.7-1.9-2.8-2.2-3.4-2.2
				c-1.3-0.1-2.8,2.7-1.7,3.3C192.5,227.6,197.4,228.3,197.2,234.8L197.2,234.8z"/>
		</g>
		<g>
			<defs>
				<path id="SVGID_15_" d="M140.5,250.7l52.7-39.8c11.1,7.8,17,14.5,17.3,18.1c-3.9,5.4-6.7-1-12.7,2.4c-9.8,5.6,9.4,31,17.4,23.1
					c4.9-4.8-0.5-9.3,5.7-11.6c3.4,1.3,8.3,8.8,12.7,21.6l-52.7,39.8L140.5,250.7L140.5,250.7z"/>
			</defs>
			<clipPath id="SVGID_16_">
				<use xlink:href="#SVGID_15_"  style="overflow:visible;"/>
			</clipPath>
			<path class="st24" d="M192.7,223.6c-1.3,0-2.8,2.7-1.7,3.3l0,0c0.3,0,0.8-0.3,1.5-1.4C193.7,223.8,192.7,223.8,192.7,223.6
				L192.7,223.6z"/>
		</g>
		<g>
			<defs>
				<path id="SVGID_17_" d="M140.5,250.7l52.7-39.8c11.1,7.8,17,14.5,17.3,18.1c-3.9,5.4-6.7-1-12.7,2.4c-9.8,5.6,9.4,31,17.4,23.1
					c4.9-4.8-0.5-9.3,5.7-11.6c3.4,1.3,8.3,8.8,12.7,21.6l-52.7,39.8L140.5,250.7L140.5,250.7z"/>
			</defs>
			<clipPath id="SVGID_18_">
				<use xlink:href="#SVGID_17_"  style="overflow:visible;"/>
			</clipPath>
			<path class="st25" d="M197.3,234.8c0,0-1.5-6.1-6.3-7.2c-4.9-1.1-10.4,0.4-10.4,0.4S184.1,241.6,197.3,234.8L197.3,234.8z"/>
		</g>
		<g>
			<defs>
				<path id="SVGID_19_" d="M140.5,250.7l52.7-39.8c11.1,7.8,17,14.5,17.3,18.1c-3.9,5.4-6.7-1-12.7,2.4c-9.8,5.6,9.4,31,17.4,23.1
					c4.9-4.8-0.5-9.3,5.7-11.6c3.4,1.3,8.3,8.8,12.7,21.6l-52.7,39.8L140.5,250.7L140.5,250.7z"/>
			</defs>
			<clipPath id="SVGID_20_">
				<use xlink:href="#SVGID_19_"  style="overflow:visible;"/>
			</clipPath>
			<path class="st26" d="M180.7,228L180.7,228c-0.1,0,3.4,13.6,16.6,6.8C191.8,235.5,182.2,229,180.7,228L180.7,228z"/>
		</g>
	</g>
	<path class="st27" d="M140.2,250.4l52.7-39.8c0.2-0.1,0.4-0.1,0.5,0c5.3,3.8,9.5,7.3,12.4,10.3c3.2,3.3,4.9,6.1,5,8.1
		c0,0.1,0,0.2-0.1,0.3c-2.2,3.1-4.1,2.6-6.4,2c-1.8-0.5-3.8-1-6.5,0.5c-2.7,1.6-3,4.8-1.9,8.5c0.8,2.5,2.2,5.2,4,7.6
		c1.8,2.4,4,4.5,6.2,6c3.2,2.1,6.4,2.7,8.7,0.5c2.2-2.1,2.2-4.2,2.2-6.1c0-2.3,0.1-4.3,3.6-5.6c0.1,0,0.2,0,0.3,0
		c1.8,0.7,4.1,3.1,6.4,7c2.1,3.6,4.4,8.6,6.6,14.8c0.1,0.2,0,0.3-0.1,0.4l-52.7,39.8c-0.2,0.1-0.4,0.1-0.6-0.1L140.1,251
		C140,250.8,140,250.6,140.2,250.4L140.2,250.4z M193.1,211.4L141,250.8l40,52.9l52.1-39.4c-2.1-6-4.3-10.8-6.4-14.3
		c-2.2-3.7-4.2-5.9-5.9-6.6c-2.9,1.1-3,2.8-3,4.8s-0.1,4.3-2.5,6.6c-2.6,2.5-6.2,1.9-9.6-0.4c-2.3-1.5-4.5-3.7-6.4-6.1
		c-1.9-2.5-3.4-5.2-4.2-7.8c-1.2-4-0.8-7.6,2.3-9.4c2.9-1.7,5.1-1.1,7.1-0.6c1.9,0.5,3.6,1,5.4-1.6c-0.2-1.8-1.8-4.4-4.8-7.5
		C202.4,218.5,198.3,215.1,193.1,211.4L193.1,211.4z"/>
</g>
<g>
	<g>
		<g>
			<path id="SVGID_3_" class="st17" d="M215.3,194.1l60.4-32.3l31.6,59.2l-60.4,32.3c-2.4-13.3-6.1-21.5-9.2-23.3
				c-6.5,1.2-1.9,6.6-7.5,10.5C221,247.1,206,219,216.6,215c6.4-2.4,8.3,4.4,12.9-0.3C229.8,211,225.1,203.5,215.3,194.1
				L215.3,194.1z"/>
		</g>
		<g>
			<defs>
				<path id="SVGID_21_" d="M215.3,194.1l60.4-32.3l31.6,59.2l-60.4,32.3c-2.4-13.3-6.1-21.5-9.2-23.3c-6.5,1.2-1.9,6.6-7.5,10.5
					C221,247.1,206,219,216.6,215c6.4-2.4,8.3,4.4,12.9-0.3C229.8,211,225.1,203.5,215.3,194.1L215.3,194.1z"/>
			</defs>
			<clipPath id="SVGID_22_">
				<use xlink:href="#SVGID_21_"  style="overflow:visible;"/>
			</clipPath>
			<path class="st28" d="M271.9,207.4c4,19.3-17.2,29.8-24.1,28.5c-4.4-0.8-5.7-2.4-7.4-2.8c-4.6-1-5.1,0.1-8.8-4.5
				c-10-12.4-12.5-24.9-0.7-34.9c5.2-4.4,12.3-6.8,20.6-5.1C261,190.6,269.5,195.6,271.9,207.4L271.9,207.4z"/>
		</g>
		<g>
			<defs>
				<path id="SVGID_23_" d="M215.3,194.1l60.4-32.3l31.6,59.2l-60.4,32.3c-2.4-13.3-6.1-21.5-9.2-23.3c-6.5,1.2-1.9,6.6-7.5,10.5
					C221,247.1,206,219,216.6,215c6.4-2.4,8.3,4.4,12.9-0.3C229.8,211,225.1,203.5,215.3,194.1L215.3,194.1z"/>
			</defs>
			<clipPath id="SVGID_24_">
				<use xlink:href="#SVGID_23_"  style="overflow:visible;"/>
			</clipPath>
			<path class="st29" d="M272.3,210.1c1.5,17.5-18,27-24.5,25.8c-4.4-0.8-5.7-2.4-7.4-2.8c-4.6-1-5.1,0.1-8.8-4.5
				c-10-12.4-12.5-24.9-0.7-34.9c3.4-2.9,7.7-4.9,12.6-5.5c-4.5,2.4-10.9,8-8.5,19.2c3.7,16.6,29.5,16.4,35.6,4.1
				C271,210.7,271.6,210.2,272.3,210.1L272.3,210.1z"/>
		</g>
		<g>
			<defs>
				<path id="SVGID_25_" d="M215.3,194.1l60.4-32.3l31.6,59.2l-60.4,32.3c-2.4-13.3-6.1-21.5-9.2-23.3c-6.5,1.2-1.9,6.6-7.5,10.5
					C221,247.1,206,219,216.6,215c6.4-2.4,8.3,4.4,12.9-0.3C229.8,211,225.1,203.5,215.3,194.1L215.3,194.1z"/>
			</defs>
			<clipPath id="SVGID_26_">
				<use xlink:href="#SVGID_25_"  style="overflow:visible;"/>
			</clipPath>
			<path class="st30" d="M252.2,194.8c0,0,3.4,1.4,2,3.1c-1.4,1.6-6.3,1.7-7.9-1.2C244.8,193.8,249.2,192.6,252.2,194.8L252.2,194.8
				z"/>
		</g>
		<g>
			<defs>
				<path id="SVGID_27_" d="M215.3,194.1l60.4-32.3l31.6,59.2l-60.4,32.3c-2.4-13.3-6.1-21.5-9.2-23.3c-6.5,1.2-1.9,6.6-7.5,10.5
					C221,247.1,206,219,216.6,215c6.4-2.4,8.3,4.4,12.9-0.3C229.8,211,225.1,203.5,215.3,194.1L215.3,194.1z"/>
			</defs>
			<clipPath id="SVGID_28_">
				<use xlink:href="#SVGID_27_"  style="overflow:visible;"/>
			</clipPath>
			<path class="st31" d="M251.2,196.9c0,0-0.5,0.2-1.2-0.1s-0.7-5.5,1.3-8.5c1.4-2.1,2.5-2.5,3.1-2.6c1.2-0.3,2.9,2.1,1.9,2.8
				C255,189.5,250.4,190.9,251.2,196.9L251.2,196.9z"/>
		</g>
		<g>
			<defs>
				<path id="SVGID_29_" d="M215.3,194.1l60.4-32.3l31.6,59.2l-60.4,32.3c-2.4-13.3-6.1-21.5-9.2-23.3c-6.5,1.2-1.9,6.6-7.5,10.5
					C221,247.1,206,219,216.6,215c6.4-2.4,8.3,4.4,12.9-0.3C229.8,211,225.1,203.5,215.3,194.1L215.3,194.1z"/>
			</defs>
			<clipPath id="SVGID_30_">
				<use xlink:href="#SVGID_29_"  style="overflow:visible;"/>
			</clipPath>
			<path class="st32" d="M254.4,185.7c1.2-0.2,2.9,2.1,1.9,2.8l0,0c-0.3,0-0.8-0.1-1.6-1C253.5,186.1,254.5,185.9,254.4,185.7
				L254.4,185.7z"/>
		</g>
		<g>
			<defs>
				<path id="SVGID_31_" d="M215.3,194.1l60.4-32.3l31.6,59.2l-60.4,32.3c-2.4-13.3-6.1-21.5-9.2-23.3c-6.5,1.2-1.9,6.6-7.5,10.5
					C221,247.1,206,219,216.6,215c6.4-2.4,8.3,4.4,12.9-0.3C229.8,211,225.1,203.5,215.3,194.1L215.3,194.1z"/>
			</defs>
			<clipPath id="SVGID_32_">
				<use xlink:href="#SVGID_31_"  style="overflow:visible;"/>
			</clipPath>
			<path class="st33" d="M264.7,200.1c0.2,1.3-0.3,2.5-1.1,2.7c-0.8,0.2-1.6-0.6-1.8-1.9c-0.2-1.3,0.3-2.5,1.1-2.7
				C263.7,198,264.5,198.8,264.7,200.1L264.7,200.1z"/>
		</g>
		<g>
			<defs>
				<path id="SVGID_33_" d="M215.3,194.1l60.4-32.3l31.6,59.2l-60.4,32.3c-2.4-13.3-6.1-21.5-9.2-23.3c-6.5,1.2-1.9,6.6-7.5,10.5
					C221,247.1,206,219,216.6,215c6.4-2.4,8.3,4.4,12.9-0.3C229.8,211,225.1,203.5,215.3,194.1L215.3,194.1z"/>
			</defs>
			<clipPath id="SVGID_34_">
				<use xlink:href="#SVGID_33_"  style="overflow:visible;"/>
			</clipPath>
			<path class="st34" d="M266.6,201.9c0.1,0.6-0.2,1.3-0.7,1.4c-0.4,0.1-0.8-0.3-0.9-0.9c-0.1-0.6,0.2-1.3,0.7-1.4
				C266.2,200.9,266.6,201.3,266.6,201.9L266.6,201.9z"/>
		</g>
		<g>
			<defs>
				<path id="SVGID_35_" d="M215.3,194.1l60.4-32.3l31.6,59.2l-60.4,32.3c-2.4-13.3-6.1-21.5-9.2-23.3c-6.5,1.2-1.9,6.6-7.5,10.5
					C221,247.1,206,219,216.6,215c6.4-2.4,8.3,4.4,12.9-0.3C229.8,211,225.1,203.5,215.3,194.1L215.3,194.1z"/>
			</defs>
			<clipPath id="SVGID_36_">
				<use xlink:href="#SVGID_35_"  style="overflow:visible;"/>
			</clipPath>
			<path class="st35" d="M193.4,229.5c-5.2,20.4,16.3,31.3,23.6,29.9c4.6-0.9,6.1-2.6,7.9-3c4.8-1.1,5.3,0.1,9.4-4.9
				c11.2-13.2,14.5-26.3,2.7-36.8c-5.2-4.6-12.5-7-21.2-5.2C205.7,211.8,196.6,217.1,193.4,229.5L193.4,229.5z"/>
		</g>
		<g>
			<defs>
				<path id="SVGID_37_" d="M215.3,194.1l60.4-32.3l31.6,59.2l-60.4,32.3c-2.4-13.3-6.1-21.5-9.2-23.3c-6.5,1.2-1.9,6.6-7.5,10.5
					C221,247.1,206,219,216.6,215c6.4-2.4,8.3,4.4,12.9-0.3C229.8,211,225.1,203.5,215.3,194.1L215.3,194.1z"/>
			</defs>
			<clipPath id="SVGID_38_">
				<use xlink:href="#SVGID_37_"  style="overflow:visible;"/>
			</clipPath>
			<path class="st36" d="M193.4,229.5c-5.2,20.4,16.3,31.3,23.6,29.9c4.6-0.9,6.1-2.6,7.9-3c4.8-1.1,5.3,0.1,9.4-4.9
				c2.9-3.5,5.3-6.9,7-10.3c-2.5,4.3-6.1,8.7-8.5,10.3c-3.2,2.1-7.9-0.9-11.4,1.7c-3.5,2.6-22.9-3.5-23.1-18.1
				c-0.2-14.5,11.3-23.6,11.3-23.6l-0.1-0.1C202.1,214.4,195.9,219.7,193.4,229.5L193.4,229.5z"/>
		</g>
		<g>
			<defs>
				<path id="SVGID_39_" d="M215.3,194.1l60.4-32.3l31.6,59.2l-60.4,32.3c-2.4-13.3-6.1-21.5-9.2-23.3c-6.5,1.2-1.9,6.6-7.5,10.5
					C221,247.1,206,219,216.6,215c6.4-2.4,8.3,4.4,12.9-0.3C229.8,211,225.1,203.5,215.3,194.1L215.3,194.1z"/>
			</defs>
			<clipPath id="SVGID_40_">
				<use xlink:href="#SVGID_39_"  style="overflow:visible;"/>
			</clipPath>
			<path class="st37" d="M214.7,216c0,0-3.6,1.6-2.2,3.3c1.4,1.7,6.5,1.7,8.3-1.3C222.5,215,218,213.8,214.7,216L214.7,216z"/>
		</g>
		<g>
			<defs>
				<path id="SVGID_41_" d="M215.3,194.1l60.4-32.3l31.6,59.2l-60.4,32.3c-2.4-13.3-6.1-21.5-9.2-23.3c-6.5,1.2-1.9,6.6-7.5,10.5
					C221,247.1,206,219,216.6,215c6.4-2.4,8.3,4.4,12.9-0.3C229.8,211,225.1,203.5,215.3,194.1L215.3,194.1z"/>
			</defs>
			<clipPath id="SVGID_42_">
				<use xlink:href="#SVGID_41_"  style="overflow:visible;"/>
			</clipPath>
			<path class="st38" d="M215.6,218.3c0,0,0.5,0.2,1.3-0.1c0.7-0.4,1.1-5.8-0.9-8.9c-1.4-2.2-2.4-2.6-3-2.7
				c-1.3-0.3-3.2,2.2-2.2,2.9C212.1,210.5,216.8,211.9,215.6,218.3L215.6,218.3z"/>
		</g>
		<g>
			<defs>
				<path id="SVGID_43_" d="M215.3,194.1l60.4-32.3l31.6,59.2l-60.4,32.3c-2.4-13.3-6.1-21.5-9.2-23.3c-6.5,1.2-1.9,6.6-7.5,10.5
					C221,247.1,206,219,216.6,215c6.4-2.4,8.3,4.4,12.9-0.3C229.8,211,225.1,203.5,215.3,194.1L215.3,194.1z"/>
			</defs>
			<clipPath id="SVGID_44_">
				<use xlink:href="#SVGID_43_"  style="overflow:visible;"/>
			</clipPath>
			<path class="st39" d="M212.9,206.5c-1.3-0.2-3.1,2.2-2.1,3l0,0c0.3,0,0.8-0.1,1.7-1.1C213.9,206.9,212.8,206.7,212.9,206.5
				L212.9,206.5z"/>
		</g>
		<g>
			<defs>
				<path id="SVGID_45_" d="M215.3,194.1l60.4-32.3l31.6,59.2l-60.4,32.3c-2.4-13.3-6.1-21.5-9.2-23.3c-6.5,1.2-1.9,6.6-7.5,10.5
					C221,247.1,206,219,216.6,215c6.4-2.4,8.3,4.4,12.9-0.3C229.8,211,225.1,203.5,215.3,194.1L215.3,194.1z"/>
			</defs>
			<clipPath id="SVGID_46_">
				<use xlink:href="#SVGID_45_"  style="overflow:visible;"/>
			</clipPath>
			<path class="st40" d="M215.7,218.3c0,0-0.5-6.2-5.1-8.1c-4.6-1.8-10.3-1.2-10.3-1.2S201.6,223,215.7,218.3L215.7,218.3z"/>
		</g>
		<g>
			<defs>
				<path id="SVGID_47_" d="M215.3,194.1l60.4-32.3l31.6,59.2l-60.4,32.3c-2.4-13.3-6.1-21.5-9.2-23.3c-6.5,1.2-1.9,6.6-7.5,10.5
					C221,247.1,206,219,216.6,215c6.4-2.4,8.3,4.4,12.9-0.3C229.8,211,225.1,203.5,215.3,194.1L215.3,194.1z"/>
			</defs>
			<clipPath id="SVGID_48_">
				<use xlink:href="#SVGID_47_"  style="overflow:visible;"/>
			</clipPath>
			<path class="st41" d="M200.3,209L200.3,209c-0.1,0,1.2,14,15.4,9.3C210.1,218.1,201.7,210.2,200.3,209L200.3,209z"/>
		</g>
	</g>
	<path class="st27" d="M215.1,193.7l60.4-32.3c0.2-0.1,0.4,0,0.5,0.2l31.6,59.2c0.1,0.2,0,0.4-0.2,0.5L247,253.6
		c-0.2,0.1-0.4,0-0.5-0.2c0,0,0-0.1,0-0.2c-1.2-6.4-2.6-11.6-4.1-15.4c-1.6-4-3.2-6.5-4.8-7.5c-3.1,0.6-3.4,2.3-3.7,4.3
		s-0.7,4.2-3.5,6.2c-2.9,2.1-6.4,0.9-9.5-1.9c-2-1.8-3.9-4.3-5.3-7.1c-1.5-2.7-2.5-5.7-2.9-8.4c-0.6-4.1,0.3-7.6,3.7-8.9
		c3.2-1.2,5.2-0.3,7.1,0.5c1.8,0.8,3.4,1.5,5.6-0.7c0.1-1.8-1.1-4.6-3.6-8.1c-2.4-3.4-5.9-7.5-10.5-12
		C214.9,194.2,214.9,193.9,215.1,193.7L215.1,193.7L215.1,193.7z M275.6,162.3L216,194.1c4.5,4.4,7.9,8.4,10.3,11.8
		c2.6,3.8,3.8,6.8,3.7,8.7c0,0.1,0,0.2-0.1,0.3c-2.7,2.7-4.5,1.9-6.6,1c-1.7-0.8-3.6-1.6-6.5-0.5c-3,1.1-3.8,4.3-3.2,8.1
		c0.4,2.6,1.4,5.5,2.8,8.1c1.4,2.7,3.2,5.1,5.2,6.8c2.8,2.5,5.9,3.6,8.5,1.8c2.5-1.8,2.8-3.8,3.2-5.7c0.4-2.3,0.7-4.2,4.5-4.9
		c0.1,0,0.2,0,0.3,0c1.7,1,3.5,3.7,5.2,7.9c1.5,3.8,2.9,8.9,4.1,15.1l59.6-31.8L275.6,162.3L275.6,162.3z"/>
</g>
</svg>
