<?xml version="1.0" encoding="utf-8"?>
<!-- Generator: Adobe Illustrator 24.1.0, SVG Export Plug-In . SVG Version: 6.00 Build 0)  -->
<svg version="1.1" id="f" xmlns="http://www.w3.org/2000/svg" xmlns:xlink="http://www.w3.org/1999/xlink" x="0px" y="0px"
	 viewBox="0 0 425.2 425.2" style="enable-background:new 0 0 425.2 425.2;" xml:space="preserve">
<style type="text/css">
<!-- 
#main_1_:hover #phrase {
	 display: block;
} -->

#main_1_:hover #handWithCandy {
	transform-origin: 50% 50%;
  display: inline-block;
  animation-name: rotation;
  animation-duration: 3s;
  animation-iteration-count: infinite;
}

@keyframes rotation { 
  0% {
   transform:rotate(0deg)
  }
  50% {
    transform:rotate(20deg)
  }
  100% {
   transform:rotate(0deg)
  }
}

	.st0{opacity:0.5;fill:#afd0ed;enable-background:new    ;}
	.st1{fill:#FBCB6D;}
	.st2{fill:#432918;}
	.st3{fill:#7D4E24;}
	.st4{fill:#CA9E67;}
	.st5{fill:#FFFFFF;}
	.st6{fill:#ED6F81;}
	.st7{fill:#E84242;}
	.st8{fill:none;stroke:#432918;stroke-width:0.7228;stroke-linecap:round;stroke-linejoin:round;stroke-miterlimit:10;}
	.st9{fill:none;stroke:#432918;stroke-width:2.4237;stroke-linecap:round;stroke-linejoin:round;stroke-miterlimit:10;}
	.st10{display:none;}
	.st11{display:inline;}
	.st12{fill:none;}
	.st13{font-family:'BradleyHandITCTT-Bold';}
	.st14{font-size:16.0866px;}
	.st15{fill:none;stroke:#432918;stroke-width:3.5917;stroke-linecap:round;stroke-linejoin:round;stroke-miterlimit:10;}
	.st16{fill:#F6F6F6;}
	.st17{fill:#B2B2B2;}
	.st18{fill:#FFD651;}
	.st19{opacity:0.6;}
	.st20{fill:#F08AB7;}
	.st21{fill:none;stroke:#432918;stroke-width:0.3867;stroke-linecap:round;stroke-linejoin:round;stroke-miterlimit:10;}
	.st22{fill:#F59C43;}
	.st23{fill:#64B553;}
	.st24{fill:#8AD0E5;}
	.st25{fill:none;stroke:#432918;stroke-width:0.6287;stroke-linecap:round;stroke-linejoin:round;stroke-miterlimit:10;}
</style>
<g id="main_1_">
	<path id="background" class="st0" d="M361.3,233.4c-1,0-2.1-0.1-3.1-0.2v0.2h-26.4c9.5,1.7,16.7,10,16.7,20c0,7-3.6,13.2-9,16.9
		h20.2v0.1c0.9-0.1,1.8-0.1,2.7-0.1c13.8,0,25,11.2,25,25c0,9.9-5.7,18.4-14,22.5c12.1,3.2,21.1,14.2,21.1,27.4
		c0,15.6-12.7,28.3-28.3,28.3c-1,0-2.1-0.1-3.1-0.2v0.2H63.9c-15.6,0-28.3-12.7-28.3-28.3c0-15.6,12.7-28.3,28.3-28.3h18.7
		c-7.3-4.4-12.3-12.4-12.3-21.5c0-9.2,5-17.2,12.4-21.6H56.4c-11.2,0-20.3-9.1-20.3-20.3c0-10.8,8.4-19.5,19-20.2
		c-13.8-1.9-24.4-13.7-24.4-28.1c0-15.6,12.7-28.3,28.3-28.3h24.4c-11.3-2.4-19.8-12.4-19.8-24.5c0-10.7,6.7-19.8,16.1-23.4H56.4
		c-11.2,0-20.3-9.1-20.3-20.3s9.1-20.3,20.3-20.3h45.2c-4.9-3.7-8.1-9.6-8.1-16.2c0-11.2,9.1-20.3,20.3-20.3h214.4V52
		c0.7-0.1,1.5-0.1,2.2-0.1c11.2,0,20.3,9.1,20.3,20.3s-9.1,20.3-20.3,20.3c-0.7,0-1.5,0-2.2-0.1v0.1h-43c4.9,3.7,8.1,9.6,8.1,16.2
		c0,8.4-5.1,15.5-12.3,18.6h72v0.2c0.9-0.1,1.8-0.2,2.7-0.2c13.8,0,25,11.2,25,25c0,12-8.5,22.1-19.8,24.5c0.1,0,0.3,0,0.4,0
		c15.6,0,28.3,12.7,28.3,28.3C389.7,220.7,377,233.4,361.3,233.4z"/>
	<g id="biscuit">
		<g>
			<g>
				<g>
					<path class="st1" d="M149.8,189.1c-6.1,0-12.2-0.7-18.1-1.9c-6.4-1.4-12.5-3.5-18.1-6.3c-3.8-2-7.5-4.3-10.9-6.9
						c-3.5-2.7-6.7-5.7-9.6-9c-14.4-16.1-20.3-37.8-16.3-59.7c4-21.6,16.9-39.7,35.6-49.5c8.5-4.7,17.4-9.5,27.7-10.3
						c2.2-0.2,4.5-0.3,6.7-0.3c2.8,0,5.7,0.2,8.5,0.5h0.1h0.1c2.8,0.9,5.7,1.6,8.5,2.3c5.8,1.4,11.8,2.8,17.1,5.9
						c2.9,1.8,6,3.9,9.2,6.4c3,2.3,6.2,4.9,9.3,7.7c3.4,3.5,6.3,7.2,8.9,11.2c2.7,4.1,4.9,8.5,6.8,13c7.8,18.3,6.2,40.8-4.5,60.1
						c-10.4,18.9-27.5,31.8-46.8,35.2c-4.5,1-9.3,1.6-14,1.6L149.8,189.1L149.8,189.1z"/>
					<path class="st2" d="M146.8,46.5c2.7,0,5.5,0.2,8.3,0.5c8.4,2.7,17.7,3.6,25.3,8c2.9,1.8,6,4,9.1,6.3c3.1,2.4,6.2,4.9,9.3,7.6
						c3.2,3.3,6.1,6.9,8.7,10.9c2.6,4,4.8,8.2,6.7,12.8c16,37.2-9.6,86.3-50.3,93.4c-4.4,1-9,1.6-13.7,1.6c-0.1,0-0.2,0-0.4,0
						c-5.8,0-11.9-0.6-17.8-1.9c-6.1-1.3-12.1-3.4-17.8-6.2c-3.7-1.9-7.3-4.2-10.7-6.8c-3.4-2.6-6.5-5.5-9.4-8.8
						C64.4,130.7,74.8,77.1,113,57c8.6-4.7,17.1-9.4,27.2-10.1C142.4,46.6,144.6,46.5,146.8,46.5 M146.8,43.7L146.8,43.7
						c-2.3,0-4.6,0.1-6.9,0.4c-10.6,0.8-19.5,5.7-28.2,10.5c-19,10-32.2,28.4-36.3,50.5c-4.1,22.2,2,44.4,16.7,60.8
						c2.9,3.3,6.2,6.4,9.7,9.2c3.5,2.7,7.2,5,11.1,7c5.7,2.8,11.9,5,18.4,6.4c6,1.3,12.2,2,18.4,2h0.4c4.8,0,9.6-0.6,14.3-1.6
						c19.7-3.5,37.1-16.5,47.7-35.8c10.8-19.7,12.5-42.6,4.5-61.3c-1.8-4.6-4.2-9-6.9-13.2c-2.6-4.1-5.7-7.9-9-11.3l-0.1-0.1
						l-0.1-0.1c-3.2-2.8-6.4-5.4-9.4-7.7c-3.3-2.5-6.4-4.7-9.3-6.5c-5.5-3.2-11.6-4.7-17.5-6.1c-2.8-0.7-5.7-1.4-8.4-2.2l-0.2-0.1
						h-0.3C152.6,43.9,149.7,43.7,146.8,43.7L146.8,43.7z"/>
				</g>
			</g>
			<g>
				<g>
					<path class="st1" d="M214.1,92.7c-1.9-4.6-4.1-8.9-6.7-12.8c-2.6-4-5.5-7.6-8.7-10.9c-3.1-2.7-6.2-5.3-9.3-7.6
						c-3.1-2.4-6.1-4.5-9.1-6.3c-3.2-1.8-6.6-3.1-10.2-4.1c2.4,1.6,4.9,3.3,7.4,5.2c3.1,2.4,6.2,4.9,9.3,7.6
						c3.2,3.3,6.1,6.9,8.7,10.9c2.6,4,4.8,8.2,6.7,12.8c16,37.2-9.6,86.3-50.3,93.4c-4.4,1-9,1.6-13.7,1.6c-5.9,0-12.1-0.6-18.2-1.9
						c-2.8-0.6-5.5-1.4-8.2-2.3c0.7,0.4,1.5,0.8,2.3,1.2c5.6,2.8,11.7,4.9,17.8,6.2s12.3,1.9,18.2,1.9c4.7,0,9.3-0.6,13.7-1.6
						C204.6,179,230.1,129.9,214.1,92.7z"/>
				</g>
			</g>
			<g>
				<g>
					<path class="st3" d="M89.6,109.7c-4,0-7.5-2.5-9.1-6.6c-1.2-3-0.7-6.5,1.2-9.4c2-2.9,5.1-4.7,8.4-4.7c1.9,0,3.8,0.7,5.5,1.9
						c4.2,3.1,5.2,9.8,2,14.4C95.6,108.1,92.7,109.7,89.6,109.7L89.6,109.7z"/>
					<path class="st2" d="M90.1,90.4c1.5,0,3.2,0.5,4.7,1.6c3.8,2.8,4.3,8.8,1.7,12.5c-1.8,2.6-4.3,3.8-6.8,3.8
						c-3.2,0-6.4-2-7.9-5.7C79.5,96.9,84.4,90.4,90.1,90.4 M90.1,87.7c-3.7,0-7.2,2-9.5,5.3c-2.2,3.3-2.8,7.2-1.4,10.7
						c1.8,4.5,5.9,7.5,10.4,7.5c3.6,0,6.9-1.8,9.1-5c3.6-5.1,2.5-12.7-2.3-16.2C94.5,88.4,92.3,87.7,90.1,87.7L90.1,87.7z"/>
				</g>
			</g>
			<g>
				<g>
					<path class="st4" d="M94.8,92c-0.5-0.4-1-0.6-1.5-0.9c2.5,3.1,2.6,8,0.3,11.2c-2.6,3.8-6.8,4.7-10.2,3.1c3.5,4,9.5,4.1,13-0.9
						C99.1,100.8,98.5,94.8,94.8,92z"/>
				</g>
			</g>
			<g>
				<g>
					<path class="st3" d="M151.6,63.5c-2,0-3.8-0.3-5.2-0.9c-4.9-2.1-7.8-8.3-6.4-13.7c1.5-5.4,6.1-6,9.9-6c0.4,0,0.8,0,1.2,0
						c4.3,0.1,13.9,2.1,16.3,7.3c0.8,1.7,1.1,4.4-1.8,7.9S156.3,63.5,151.6,63.5L151.6,63.5z"/>
					<path class="st2" d="M149.9,44.2c0.4,0,0.8,0,1.2,0c6.5,0.2,20.7,4.2,13.5,12.9c-2.5,3.1-8.2,5-13,5c-1.7,0-3.4-0.3-4.7-0.8
						c-4.5-1.9-6.8-7.6-5.6-12.1C142.6,45,146,44.2,149.9,44.2 M149.9,41.5c-2.5,0-9.3,0-11.2,7.1c-1.7,6.1,1.5,13,7.2,15.3
						c1.6,0.7,3.5,1,5.7,1c4.9,0,11.7-1.9,15.2-6c3.3-4,2.9-7.3,1.9-9.3c-2.6-5.6-12.1-7.9-17.5-8.1
						C150.8,41.5,150.3,41.5,149.9,41.5L149.9,41.5z"/>
				</g>
			</g>
			<g>
				<g>
					<path class="st4" d="M160.6,46.3c2.4,2.1,3.2,4.9,0.2,8.6c-3.2,3.9-11.6,5.9-16.6,4.5c0.8,0.8,1.7,1.4,2.8,1.9
						c4.9,2,14.2,0,17.7-4.2C168.9,51.9,165.5,48.4,160.6,46.3z"/>
				</g>
			</g>
			<g>
				<g>
					<path class="st3" d="M177.7,158.5c-2.3,0-6.4-0.9-7.6-7.3c-0.8-3.9,0.4-8.2,3-11.4c2.1-2.5,4.7-3.8,7.5-3.8
						c2.2,0,4.4,0.9,6.4,2.5c2.7,2.3,4,5.7,3.6,9.3c-0.5,3.8-2.8,7.1-6.1,8.7C181.9,157.8,179.7,158.5,177.7,158.5L177.7,158.5z"/>
					<path class="st2" d="M180.6,137.4c1.8,0,3.6,0.7,5.5,2.2c5.2,4.3,3.7,12.9-2.3,15.8c-2.2,1.1-4.3,1.7-6.1,1.7
						c-3.1,0-5.4-1.8-6.3-6.2C170.2,144.6,174.8,137.4,180.6,137.4 M180.6,134.6c-3.2,0-6.3,1.5-8.6,4.3c-2.9,3.4-4.1,8.2-3.3,12.5
						c1.4,7.3,6.3,8.4,9,8.4c2.2,0,4.7-0.7,7.4-2c3.8-1.9,6.4-5.5,6.9-9.8c0.5-4.1-1-8-4.1-10.6
						C185.6,135.6,183.1,134.6,180.6,134.6L180.6,134.6z"/>
				</g>
			</g>
			<g>
				<g>
					<path class="st4" d="M186.1,139.6c-1.6-1.3-3.1-2-4.7-2.2c0.4,0.3,0.8,0.5,1.2,0.9c5.2,4.3,3.7,12.9-2.3,15.8
						c-2.4,1.2-4.6,1.8-6.5,1.7c2.3,2,5.9,1.6,9.9-0.4C189.8,152.5,191.3,143.9,186.1,139.6z"/>
				</g>
			</g>
			<g>
				<g>
					<path class="st3" d="M181.6,86.8c-5,0-8-3.6-8.5-7.3c-0.5-3.9,1.8-7.1,5.9-8.1c0.7-0.2,1.5-0.3,2.2-0.3c4.8,0,8,4,8.5,7.9
						c0.4,3.8-1.9,6.8-5.9,7.6C183,86.7,182.3,86.8,181.6,86.8L181.6,86.8z"/>
					<path class="st2" d="M181.2,72.5c7.1,0,10.6,11,2.3,12.8c-0.7,0.1-1.3,0.2-1.9,0.2c-7.6,0-10.4-10.6-2.3-12.7
						C180,72.6,180.6,72.5,181.2,72.5 M181.2,69.7c-0.9,0-1.7,0.1-2.6,0.3c-5.5,1.4-7.4,5.9-6.9,9.6c0.6,4.2,4.1,8.4,9.9,8.4
						c0.8,0,1.6-0.1,2.4-0.3c4.7-1,7.5-4.6,7-9.1C190.6,74.4,186.8,69.7,181.2,69.7L181.2,69.7z"/>
				</g>
			</g>
			<g>
				<g>
					<path class="st4" d="M183.1,72.8c4,3,4.7,10-1.8,11.4c-1.5,0.3-2.9,0.2-4.1-0.1c1.6,1.2,3.7,1.8,6.3,1.2
						C191,83.6,188.9,74.5,183.1,72.8z"/>
				</g>
			</g>
			<g>
				<g>
					<path class="st3" d="M129.6,95.9c-2.4,0-4.5-1.3-6-3.6c-1.9-2.9-2.1-6.2-0.5-9c1.4-2.6,4.2-4.3,7-4.3c2.4,0,4.6,1.2,6.3,3.4
						c1.9,2.6,2.1,5.7,0.6,8.6C135.4,94,132.5,95.9,129.6,95.9L129.6,95.9z"/>
					<path class="st2" d="M130,80.5c1.8,0,3.7,0.8,5.1,2.9c3.6,5-0.9,11.2-5.5,11.2c-1.7,0-3.5-0.9-4.8-2.9
						C121.2,86.1,125.4,80.5,130,80.5 M130,77.8c-3.3,0-6.5,2-8.2,5c-1.8,3.2-1.6,7,0.6,10.4c1.8,2.7,4.3,4.2,7.2,4.2
						c3.4,0,6.8-2.2,8.5-5.5s1.4-7-0.7-10C135.5,79.2,132.9,77.8,130,77.8L130,77.8z"/>
				</g>
			</g>
			<g>
				<g>
					<path class="st4" d="M135.2,83.4c-0.6-0.8-1.2-1.4-1.8-1.8c0.1,0.1,0.3,0.3,0.4,0.5c4.4,6-3.1,13.8-8.4,10.3
						C130.4,98.7,140,90,135.2,83.4z"/>
				</g>
			</g>
			<g>
				<g>
					<path class="st3" d="M99.2,170c-5.3,0-10.5-3.6-12.1-8.4c-1-3.1-0.4-6.6,1.8-9.6c2.3-3.1,5.8-5,9.1-5c1.9,0,3.7,0.6,5.3,1.8
						c3.3,2.6,5.2,8.1,4.5,13.1c-0.5,3.6-2.3,6.2-5,7.4C101.8,169.7,100.6,170,99.2,170L99.2,170z"/>
					<path class="st2" d="M98.1,148.3c1.5,0,3.1,0.5,4.4,1.5c5.1,4,6,15.7-0.1,18.2c-1,0.4-2.1,0.6-3.2,0.6c-4.4,0-9.3-3-10.8-7.5
						C86.4,155.1,92.3,148.3,98.1,148.3 M98.1,145.7c-3.8,0-7.7,2.1-10.2,5.6c-2.4,3.3-3.2,7.2-2,10.7c1.8,5.3,7.5,9.2,13.3,9.2
						c1.5,0,2.9-0.3,4.2-0.8c3.1-1.3,5.2-4.3,5.8-8.4c0.8-5.4-1.4-11.4-5-14.3C102.4,146.4,100.3,145.7,98.1,145.7L98.1,145.7z"/>
				</g>
			</g>
			<g>
				<g>
					<path class="st4" d="M102.6,149.8c-1.6-1.2-3.3-1.6-5.1-1.5c0.2,0.1,0.5,0.3,0.7,0.4c5.1,4,6,15.7-0.1,18.2
						c-1.1,0.5-2.3,0.6-3.6,0.6c2.6,1.2,5.6,1.5,7.9,0.5C108.6,165.5,107.7,153.8,102.6,149.8z"/>
				</g>
			</g>
			<g>
				<g>
					<path class="st3" d="M134,172.8c-2.1,0-3.9-0.6-5.3-1.9c-2.6-2.3-3.4-5.8-2.1-9.3c1.5-3.8,5.1-6.5,8.9-6.5c0.3,0,0.5,0,0.8,0
						c3.9,0.4,7,2.3,8.2,5.2c1.2,2.8,0.5,5.9-1.9,8.7C140.6,171.3,137.2,172.8,134,172.8L134,172.8z"/>
					<path class="st2" d="M135.4,156.4c0.2,0,0.4,0,0.6,0c6.7,0.6,9.9,6.4,5.4,11.7c-1.6,1.8-4.6,3.2-7.5,3.2
						c-1.6,0-3.2-0.4-4.4-1.5C124.3,165.2,129.2,156.4,135.4,156.4 M135.4,153.7c-4.3,0-8.4,3-10.1,7.4c-1.6,4-0.6,8.1,2.4,10.8
						c1.6,1.5,3.8,2.2,6.2,2.2c3.6,0,7.5-1.7,9.6-4.2c2.7-3.2,3.5-6.9,2.1-10.1c-1.4-3.4-4.9-5.7-9.3-6.1
						C136,153.7,135.7,153.7,135.4,153.7L135.4,153.7z"/>
				</g>
			</g>
			<g>
				<g>
					<path class="st4" d="M138.5,156.9c2.1,2.3,2.2,5.7-0.6,9c-1.9,2.2-5.9,3.8-9.2,3c0.2,0.3,0.5,0.6,0.8,0.9
						c3.3,2.9,9.4,1.2,11.9-1.7C145.4,163.5,143.5,158.6,138.5,156.9z"/>
				</g>
			</g>
			<g>
				<g>
					<path class="st3" d="M209.3,141c-2.1,0-3.9-0.6-5.3-1.9c-2.6-2.4-3.4-5.8-2.1-9.3c1.5-3.8,5.1-6.5,8.8-6.5c0.3,0,0.5,0,0.8,0
						c3.9,0.4,7,2.3,8.2,5.2c1.2,2.8,0.5,5.9-1.9,8.7C216,139.5,212.5,141,209.3,141L209.3,141z"/>
					<path class="st2" d="M210.8,124.6c0.2,0,0.4,0,0.6,0c6.7,0.6,9.9,6.4,5.4,11.7c-1.6,1.8-4.6,3.2-7.5,3.2
						c-1.6,0-3.2-0.4-4.4-1.5C199.7,133.4,204.5,124.6,210.8,124.6 M210.8,121.9c-4.3,0-8.4,3-10.1,7.4c-1.6,4-0.6,8.1,2.4,10.8
						c1.6,1.4,3.8,2.2,6.2,2.2c3.6,0,7.5-1.7,9.6-4.2c2.7-3.2,3.5-6.9,2.1-10.1c-1.4-3.4-4.9-5.7-9.3-6.1
						C211.4,121.9,211.1,121.9,210.8,121.9L210.8,121.9z"/>
				</g>
			</g>
			<g>
				<g>
					<path class="st4" d="M214.7,125.5c2.4,2.3,2.7,5.9-0.2,9.4c-2,2.4-6.6,4-9.9,2.8c0.1,0.1,0.2,0.3,0.4,0.4
						c3.3,2.9,9.4,1.2,11.9-1.7C220.5,132,219,127.4,214.7,125.5z"/>
				</g>
			</g>
			<g>
				<g>
					<path class="st3" d="M107.8,76.4c-3.3,0-6.3-1.1-8.3-3.2c-4-4.1-1.2-11.3,1.6-15.1c2.2-3,6.5-4,9.8-4c2.2,0,4.3,0.4,5.9,1.2
						c2.1,1,3.6,2.9,4.3,5.5c0.9,3.3,0.3,7.3-1.5,10C117.3,74.1,112.6,76.4,107.8,76.4L107.8,76.4z"/>
					<path class="st2" d="M110.9,55.4c1.9,0,3.8,0.4,5.3,1.1c4.8,2.3,4.8,9.7,2.2,13.5c-2.1,3.1-6.4,5-10.6,5
						c-2.8,0-5.4-0.9-7.4-2.8c-3.4-3.4-0.8-9.9,1.8-13.4C104,56.5,107.5,55.4,110.9,55.4 M110.9,52.7c-4.7,0-8.8,1.7-10.9,4.6
						c-3.8,5.1-5.9,12.5-1.5,16.9c2.3,2.3,5.6,3.6,9.3,3.6c5.2,0,10.3-2.5,12.9-6.2c2-3,2.7-7.4,1.7-11.1c-0.8-2.9-2.6-5.2-5-6.4
						C115.6,53.2,113.3,52.7,110.9,52.7L110.9,52.7z"/>
				</g>
			</g>
			<g>
				<g>
					<path class="st4" d="M116.2,56.5c-0.6-0.3-1.3-0.5-2.1-0.7c2.8,3.1,2.5,8.9,0.3,12.1c-2.6,3.9-8.8,6-13.7,4.6
						c4.9,4.6,14.2,2.6,17.7-2.5C121,66.2,120.9,58.8,116.2,56.5z"/>
				</g>
			</g>
			<g>
				<g>
					<path class="st3" d="M207.5,108.1c-3.3,0-6.2-1.2-8.2-3.4c-3.8-4.1-1.4-11.1,1.1-14.8c1.6-2.4,4.8-3.8,8.6-3.8
						c2.2,0,4.3,0.5,5.9,1.4c2,1.1,3.4,3,4.1,5.6c0.9,3.2,0.4,7.1-1.2,9.7C215.9,106,211.8,108.1,207.5,108.1L207.5,108.1z"/>
					<path class="st2" d="M209,87.4c1.9,0,3.8,0.4,5.3,1.2c4.5,2.4,4.7,9.7,2.5,13.4c-1.8,2.9-5.6,4.7-9.3,4.7c-2.7,0-5.3-0.9-7.2-3
						c-3.3-3.5-1-9.8,1.2-13.2C203,88.5,206,87.4,209,87.4 M209,84.8c-4.2,0-7.9,1.6-9.7,4.4c-2.4,3.5-5.6,11.4-1,16.4
						c2.3,2.5,5.6,3.8,9.2,3.8c4.8,0,9.3-2.3,11.6-5.9c1.8-2.9,2.3-7.1,1.3-10.7c-0.8-2.9-2.4-5.1-4.8-6.4
						C213.8,85.4,211.4,84.8,209,84.8L209,84.8z"/>
				</g>
			</g>
			<g>
				<g>
					<path class="st4" d="M214.3,88.6c-0.3-0.2-0.7-0.3-1-0.5c2.6,3.2,2.5,8.8,0.6,11.9c-2.5,4-8.8,5.9-13.5,3.8
						c4.6,4.8,13.4,3.1,16.4-1.8C219.1,98.4,218.8,91.1,214.3,88.6z"/>
				</g>
			</g>
			<g>
				<g>
					<path class="st3" d="M100.6,136.3c-4.7,0-9.4-3.8-10.4-8.5c-0.9-3.8,0.9-7.2,4.8-9c1.2-0.5,2.4-0.8,3.6-0.8
						c5,0,9.1,4.3,10.2,8.5c1,3.7-0.4,7-3.7,8.7C103.6,135.9,102.1,136.3,100.6,136.3L100.6,136.3z"/>
					<path class="st2" d="M98.6,119.3c7.1,0,13,10.8,5.8,14.6c-1.3,0.7-2.5,1-3.8,1c-7.5,0-13.7-10.9-5.1-14.9
						C96.6,119.5,97.6,119.3,98.6,119.3 M98.6,116.6c-1.5,0-2.9,0.3-4.2,0.9c-4.4,2.1-6.5,6.1-5.5,10.5c1.2,5.4,6.4,9.6,11.8,9.6
						c1.8,0,3.5-0.4,5.1-1.3c3.8-2,5.5-6,4.4-10.2C108.9,121.4,104.3,116.6,98.6,116.6L98.6,116.6z"/>
				</g>
			</g>
			<g>
				<g>
					<path class="st4" d="M98.5,119.3c5.1,2.7,8,10.5,2.1,13.6c-1.3,0.7-2.6,1-3.9,1c2.3,1.2,5,1.4,7.7,0
						C111.6,130.1,105.7,119.2,98.5,119.3z"/>
				</g>
			</g>
			<g>
				<g>
					<g>
						<path class="st2" d="M137.2,124.6c1.6,4.1-0.5,8.8-4.7,10.3c-4.2,1.6-8.9-0.5-10.5-4.6c-1.6-4.1,0.5-8.8,4.7-10.3
							C130.9,118.3,135.6,120.4,137.2,124.6z"/>
						<path class="st5" d="M127.4,124.6c0.5,1.3-0.2,2.8-1.5,3.3c-1.3,0.5-2.8-0.2-3.4-1.5c-0.5-1.3,0.2-2.8,1.5-3.3
							C125.4,122.6,126.9,123.2,127.4,124.6z"/>
						<path class="st5" d="M128.7,128.3c0.2,0.5-0.1,1.1-0.6,1.2c-0.5,0.2-1.1-0.1-1.3-0.6c-0.2-0.5,0.1-1.1,0.6-1.2
							C127.9,127.5,128.5,127.8,128.7,128.3z"/>
						<path class="st5" d="M129.4,125.2c0.1,0.3,0,0.7-0.4,0.8c-0.3,0.1-0.7,0-0.8-0.3s0-0.7,0.4-0.8
							C128.9,124.8,129.3,124.9,129.4,125.2z"/>
						<path class="st6" d="M135.1,133.9c0.4,0.9-2.3,2.8-6,4.2s-6.9,1.7-7.3,0.8s2.3-2.8,6-4.2C131.5,133.4,134.8,133,135.1,133.9z"
							/>
					</g>
					<g>
						<path class="st2" d="M177.3,109.5c1.6,4.1-0.5,8.8-4.7,10.3c-4.2,1.6-8.9-0.5-10.5-4.6s0.5-8.8,4.7-10.3
							C171.1,103.3,175.8,105.4,177.3,109.5z"/>
						<path class="st5" d="M167.6,109.5c0.5,1.3-0.2,2.8-1.5,3.3s-2.8-0.2-3.3-1.5s0.2-2.8,1.5-3.3S167.1,108.2,167.6,109.5z"/>
						<path class="st5" d="M168.8,113.2c0.2,0.5-0.1,1.1-0.6,1.2c-0.5,0.2-1.1-0.1-1.3-0.6s0.1-1.1,0.6-1.2
							C168.1,112.5,168.6,112.7,168.8,113.2z"/>
						<path class="st5" d="M169.6,110.2c0.1,0.3,0,0.7-0.4,0.8c-0.3,0.1-0.7,0-0.8-0.3s0-0.7,0.4-0.8
							C169.1,109.7,169.4,109.9,169.6,110.2z"/>
						<path class="st6" d="M183,115.9c0.4,0.9-2.3,2.8-6,4.2c-3.7,1.4-6.9,1.7-7.3,0.8c-0.4-0.9,2.3-2.8,6-4.2
							C179.4,115.4,182.7,115,183,115.9z"/>
					</g>
				</g>
				<g>
					<g>
						<g>
							<path class="st7" d="M150.8,129.5c-2.6,0-5-1.6-6-4.1c0-0.1-0.1-0.2,0-0.3c0-0.5,0.6-2,5.3-3.7c2.2-0.8,3.9-1,4.9-1
								c0.8,0,1.2,0.1,1.2,0.1c0.2,0.1,0.4,0.2,0.5,0.4c1.2,3.2-0.4,6.9-3.7,8.1C152.3,129.3,151.6,129.5,150.8,129.5L150.8,129.5z"
								/>
							<path class="st2" d="M155,121.1c0.7,0,1.1,0.1,1.1,0.1c1.1,2.9-0.4,6.1-3.3,7.2c-0.7,0.2-1.3,0.4-2,0.4
								c-2.3,0-4.4-1.4-5.3-3.6c0,0,0-1.3,4.9-3.1C152.5,121.3,154,121.1,155,121.1 M155,119.7c-1.1,0-2.9,0.2-5.2,1
								c-4.7,1.8-5.8,3.4-5.8,4.4c0,0.2,0,0.4,0.1,0.6c1,2.7,3.7,4.5,6.7,4.5c0.9,0,1.7-0.2,2.5-0.5c3.7-1.4,5.5-5.4,4.1-9
								c-0.2-0.4-0.6-0.8-1-0.9C156.3,119.8,155.8,119.7,155,119.7L155,119.7z"/>
						</g>
					</g>
				</g>
				<g>
					<g>
						<g>
							<path class="st5" d="M146.3,127.3c-0.2,0-0.5-0.1-0.6-0.3c-0.4-0.5-0.7-1-0.9-1.6c0-0.1-0.1-0.2,0-0.3c0-0.5,0.6-2,5.3-3.7
								c2.2-0.8,3.9-1,4.9-1c0.8,0,1.2,0.1,1.2,0.1c0.2,0.1,0.4,0.2,0.5,0.4c0.2,0.6,0.4,1.2,0.4,1.8c0,0.2-0.1,0.4-0.2,0.6
								C156.4,123.9,146.8,127.3,146.3,127.3L146.3,127.3z"/>
							<path class="st2" d="M155,121.1c0.7,0,1.1,0.1,1.1,0.1c0.2,0.5,0.3,1,0.4,1.6c0,0.2-9.5,3.8-10.1,3.8l0,0
								c-0.3-0.4-0.6-0.9-0.8-1.4c0,0,0-1.3,4.9-3.1C152.5,121.3,154,121.1,155,121.1 M155,119.7c-1.1,0-2.9,0.2-5.2,1
								c-4.7,1.8-5.8,3.4-5.8,4.4c0,0.2,0,0.4,0.1,0.6c0.2,0.6,0.6,1.2,1,1.8c0.3,0.4,0.7,0.6,1.2,0.6s10.4-3.4,11.2-4.2
								c0.3-0.3,0.4-0.7,0.4-1.1c0-0.7-0.2-1.3-0.4-2c-0.2-0.4-0.6-0.8-1-0.9C156.3,119.8,155.8,119.7,155,119.7L155,119.7z"/>
						</g>
					</g>
				</g>
				<g>
					<path class="st8" d="M162.5,100.4c0,0,5.2-4.5,11.6-1.3"/>
					<path class="st8" d="M126.7,113.8c0,0-6.9,0-9.5,6.6"/>
				</g>
			</g>
		</g>
		<g>
			<g>
				<path class="st9" d="M52.6,123.1c0,0,8.4,40.3,35.6,17.3"/>
			</g>
			<g>
				<line class="st9" x1="52.7" y1="121.8" x2="54.6" y2="117.6"/>
				<line class="st9" x1="52.7" y1="121.8" x2="50.8" y2="117.6"/>
				<line class="st9" x1="52.7" y1="121.8" x2="48.2" y2="120.5"/>
			</g>
		</g>
		<g>
			<path class="st9" d="M145,180.9c0,0-13.7,16.8-4.6,42.8l-5.5,4"/>
		</g>
		<g>
			<path class="st9" d="M186.4,165.9c0,0,8.5,19.9,36.1,24.3l1,6.7"/>
		</g>
	</g>
	<g id="doughnut">
		<g id="handWithCandy">
			<g id="phrase" class="st10">
				<g class="st11">
					<path class="st1" d="M274.3,54.1c-0.4,0.3-0.7,0.6-1.1,1c-0.2,0.2-0.5,0.5-0.7,0.7c0.2-0.2,0.5-0.5,0.7-0.7
						C273.6,54.8,273.9,54.5,274.3,54.1z"/>
					<path class="st1" d="M261.6,70.8c-0.7,1.5-1.3,3.1-1.8,4.6c-0.5,1.6-0.9,3.2-1.1,4.9c-0.5,3.3-0.4,6.9,0.6,10.3
						c1,3.4,3.2,6.5,6.1,8.5c2.9,2,6.4,3,9.7,3.2c3.4,0.2,6.7-0.3,9.8-1.1c3.2-0.9,6.2-2.1,9-3.7l0.2-0.1l0.2,0l9.2,0.4l4.6,0.2
						l-1.3-0.6l-5.7-2.8l-1.6-0.8l1.3-0.9c3.2-2.4,6.1-5.1,8.7-8.2c2.6-3,4.9-6.3,6.7-9.9c1.8-3.6,3.2-7.5,3.6-11.6
						c0.2-2.1,0.2-4.2-0.1-6.3c-0.4-2.1-1.1-4.2-2.2-6.1c-0.3-0.5-0.6-0.9-0.9-1.4c-0.4-0.4-0.7-0.9-1.1-1.3
						c-0.7-0.8-1.6-1.5-2.5-2.2c-0.9-0.6-1.9-1.1-2.9-1.6c-1-0.4-2-0.8-3.1-1c-2.1-0.5-4.2-0.7-6.4-0.6c-2.1,0-4.2,0.3-6.2,0.8
						c-4,0.9-7.9,2.5-11.4,4.4c-3.6,2-6.8,4.4-9.8,7.1c-2.4,2.2-4.6,4.6-6.5,7.2C264.7,65,263,67.8,261.6,70.8z"/>
					<path class="st1" d="M275.9,52.8c0.1-0.1,0.2-0.1,0.2-0.2C276,52.7,276,52.8,275.9,52.8z"/>
					<path class="st1" d="M274.4,54.1c0.3-0.3,0.7-0.6,1-0.9C275.1,53.5,274.7,53.8,274.4,54.1z"/>
					<path class="st1" d="M271.8,56.4C271.9,56.4,271.9,56.4,271.8,56.4C271.9,56.4,271.9,56.4,271.8,56.4z"/>
					<path class="st12" d="M313.3,45.4c-1-0.6-2-1.1-3.1-1.6c-1.1-0.4-2.1-0.8-3.2-1c-2.2-0.5-4.4-0.6-6.5-0.5
						c-2.1,0.1-4.2,0.4-6.2,0.9c-4,1-7.8,2.6-11.4,4.6c-2.4,1.4-4.7,3-6.9,4.7c-0.1,0.1-0.2,0.1-0.2,0.2c-0.2,0.1-0.3,0.3-0.5,0.4
						c-0.3,0.3-0.7,0.6-1,0.9c0,0,0,0-0.1,0c-0.4,0.3-0.7,0.6-1.1,1c3-2.7,6.3-5.1,9.8-7.1c3.5-2,7.4-3.5,11.4-4.4
						c2-0.5,4.1-0.7,6.2-0.8c2.1-0.1,4.3,0.1,6.4,0.6c1.1,0.2,2.1,0.6,3.1,1c1,0.4,2,1,2.9,1.6c0.9,0.6,1.8,1.3,2.5,2.2
						c0.4,0.4,0.7,0.8,1.1,1.3c0.3,0.5,0.7,0.9,0.9,1.4c1.2,1.9,1.9,4,2.2,6.1c0.4,2.1,0.4,4.2,0.1,6.3c-0.4,4.1-1.8,8-3.6,11.6
						c-1.8,3.6-4.1,6.9-6.7,9.9c-2.6,3-5.5,5.8-8.7,8.2l-1.3,0.9l1.6,0.8l5.7,2.8l1.3,0.6l-4.6-0.2l-9.2-0.4l-0.2,0l-0.2,0.1
						c-2.8,1.5-5.8,2.8-9,3.7c-3.2,0.9-6.5,1.3-9.8,1.1c-3.4-0.2-6.8-1.1-9.7-3.2c-2.9-2-5.1-5.1-6.1-8.5c-1-3.4-1.1-6.9-0.6-10.3
						c0.2-1.7,0.6-3.3,1.1-4.9c0.5-1.6,1.1-3.1,1.8-4.6c1.4-3,3.1-5.8,5.1-8.4c1.9-2.6,4.2-5,6.5-7.2c-0.2,0.2-0.5,0.5-0.7,0.7
						c-0.2,0.2-0.4,0.4-0.6,0.5c0,0-0.1,0.1-0.1,0.1c-4.2,4.1-7.8,8.9-10.4,14.3c-1.4,3-2.5,6.2-3.1,9.5c-0.6,3.4-0.6,6.9,0.3,10.5
						c0.9,3.5,3.2,6.9,6.3,9.2c0.8,0.6,1.6,1.1,2.4,1.5c0.8,0.4,1.7,0.8,2.6,1.1c1.7,0.6,3.5,0.9,5.3,1.1c3.5,0.3,7-0.1,10.3-0.9
						c3.2-0.8,6.3-2,9.2-3.4l9,0.6l9.2,0.5l4.6,0.3l-4.3-2.1l-5.7-2.8l-4.1-2c6-4.8,11-10.8,14.3-17.9c1.7-3.8,3-7.9,3.4-12.2
						c0.2-2.2,0.1-4.4-0.3-6.6c-0.4-2.2-1.3-4.4-2.5-6.4c-0.3-0.5-0.7-1-1-1.4c-0.4-0.4-0.8-0.9-1.2-1.3
						C315.3,46.8,314.3,46,313.3,45.4z"/>
					<polygon class="st1" points="242.6,83.6 243.4,86.4 255.5,82.2 					"/>
					<polygon class="st1" points="245.8,67 244.3,69.2 255.7,77.2 					"/>
					<polygon class="st1" points="237.7,74.6 237.3,78.4 255.6,79.2 					"/>
					<polygon class="st1" points="307.4,40 310.7,32.7 309,32.2 					"/>
					<polygon class="st1" points="298.5,33.2 304.3,39.9 300,32.4 					"/>
					<polygon class="st1" points="306,28.5 303.6,28.6 305.6,40 					"/>
				</g>
				<text transform="matrix(0.8184 -0.7718 0.6861 0.7275 273.0986 93.1515)" class="st11 st13 st14">Юхууу</text>
			</g>
			<g>
				<g>
					<path class="st15" d="M348.5,172.7c0,0-7.7,29.6-32.8,48.1"/>
				</g>
				<line class="st15" x1="348.2" y1="171.9" x2="346.4" y2="165.3"/>
				<line class="st15" x1="348.2" y1="171.9" x2="351.9" y2="166.2"/>
				<line class="st15" x1="348.2" y1="171.9" x2="355" y2="170.8"/>
			</g>
			<g>
				<g>
					<g>
						<g>
							<g>
								<path class="st16" d="M348.6,203.5c-0.7,0-1.3-0.6-1.3-1.3v-79.5c0-0.7,0.6-1.3,1.3-1.3h4.6c0.7,0,1.3,0.6,1.3,1.3v79.5
									c0,0.7-0.6,1.3-1.3,1.3H348.6z"/>
								<path class="st2" d="M353.3,122.7v79.5h-4.6v-79.5H353.3 M353.3,120.1h-4.6c-1.4,0-2.6,1.1-2.6,2.6v79.5
									c0,1.4,1.2,2.6,2.6,2.6h4.6c1.4,0,2.6-1.1,2.6-2.6v-79.5C355.9,121.3,354.7,120.1,353.3,120.1L353.3,120.1z"/>
							</g>
							<g>
								<rect x="351.6" y="122.7" class="st17" width="1.7" height="79.5"/>
							</g>
						</g>
					</g>
					<g>
						<g>
							<g>
								<g>
									<path class="st18" d="M355.1,132.4c-2.1,0-4.4-1.4-6-3.3c-0.7,1.2-1.7,2.3-4,2.3c-2.4,0-3.4-1.1-3.8-2.1
										c-2.3-4.9,5.9-16.4,6.8-17.6c1.3-1.5,2.4-2.7,4-2.7c1.4,0,2.5,1,3.4,1.8c1,0.9,1.4,2.2,1.7,3.2c0.3,0.9,0.6,1.7,1.1,2.2
										c0.4,0.4,0.9,0.6,1.6,0.8c0.5,0.1,1,0.3,1.6,0.6c3.2,1.6,4.7,4.1,4,6.6c-0.6,2.3-2.8,4-5.4,4c-0.3,0-0.7,0-1-0.1
										c0,0.3,0,0.7-0.1,1C358.6,131.1,357.1,132.4,355.1,132.4z"/>
									<g>
										<path class="st2" d="M352.2,110.3c0.7,0,1.5,0.4,2.5,1.4c1.5,1.4,1.3,4,2.8,5.4c1.1,1,2.2,1,3.5,1.6c6,3,3.2,8.2-0.8,8.2
											c-1.1,0-2.3-0.4-3.5-1.4c0.3,1.1,1.4,2.1,1.1,3.3c-0.4,1.6-1.4,2.3-2.7,2.3c-2.2,0-5-2.1-6.2-4.8
											c-0.8,1.6-1.1,3.7-3.8,3.7l0,0c-7.6,0,1.8-15,4-17.6C350.4,111.1,351.2,110.3,352.2,110.3 M352.2,107.7
											c-2.3,0-3.9,1.8-5,3.1c-0.1,0.1-9.9,12.9-7,18.9c0.5,1.1,1.8,2.9,5,2.9c1.9,0,3.2-0.7,4.1-1.6c1.7,1.6,3.9,2.6,5.9,2.6
											c2.6,0,4.6-1.6,5.2-4.2c3.1-0.1,5.8-2.1,6.5-5c0.6-2.4-0.3-5.8-4.7-8.1c-0.7-0.4-1.3-0.5-1.8-0.7
											c-0.6-0.2-0.9-0.3-1.1-0.5c-0.3-0.3-0.5-1-0.7-1.6c-0.4-1.1-0.9-2.6-2-3.7C355.5,108.9,354,107.7,352.2,107.7L352.2,107.7
											z"/>
									</g>
								</g>
							</g>
							<g>
								<g class="st19">
									<path class="st20" d="M345.7,117.8c1.4-2.4,2.8-4.5,3.5-5.3c2.1-2.4,3.1-3.1,5.5-0.8c1.4,1.4,1.3,3.8,2.7,5.3
										c-0.8,0.6-1.8,1-2.8,1C351.9,118,348.1,119.1,345.7,117.8z"/>
								</g>
							</g>
							<path class="st20" d="M353,120c-1,1,1.6,3.7,0,4.6c-0.5,0.2-1.1,0.1-1.5,0c-1.8-0.5-0.5-4.6-3.1-3.5c-1.5,1-1,5.1-3.6,4.1
								c-1-0.7-1.1-1.8-1.3-3c-1.7,4.1-2.2,8,1.6,8c2.7,0,3-2.1,3.8-3.7c1.8,4.2,7.8,6.9,8.9,2.5c0.3-1.2-0.8-2.2-1.1-3.3
								c5.3,4.4,11.9-2.9,4.3-6.8c-0.4-0.2-0.7-0.3-1-0.4c-0.6,0.8-1.2,1.5-1.7,2.3C357.5,121.5,355.1,119,353,120z"/>
							<g>
								<g>
									<path class="st18" d="M351.6,115.8c-17.6,0-31.8-21.1-31.8-38.6s14.2-38.6,31.8-38.6c17.6,0,31.8,21.1,31.8,38.6
										S369.2,115.8,351.6,115.8z"/>
									<g>
										<path class="st2" d="M351.6,39.8c16.8,0,30.5,20.8,30.5,37.4s-13.6,37.4-30.5,37.4c-16.8,0-30.5-20.8-30.5-37.4
											S334.8,39.8,351.6,39.8 M351.6,37.2c-18.3,0-33.1,21.8-33.1,39.9s14.8,39.9,33.1,39.9c18.3,0,33.1-21.8,33.1-39.9
											S369.9,37.2,351.6,37.2L351.6,37.2z"/>
									</g>
								</g>
							</g>
							<g>
								<g>
									<path class="st20" d="M334.6,47.2c16.9,3.9,33,11.5,46.6,22.2c0.6,2.6,0.9,5.2,0.9,7.7c0,2-0.2,4-0.6,6.1
										c-16.1-11.8-36.6-18.1-56.9-21.6C326.9,56.2,330.4,51.1,334.6,47.2z"/>
								</g>
							</g>
							<g>
								<g>
									<path class="st20" d="M370.2,105.5c-14.6-8.8-31-15.5-47.6-18.7c-0.9-3.1-1.3-6.2-1.4-9.2c19.4,2,38,10,54.4,20.8
										C374,101,372.2,103.4,370.2,105.5z"/>
								</g>
							</g>
							<g>
								<g class="st19">
									<path class="st20" d="M331.2,103.5c4.4,3.6,9.6,5.8,15.1,5.8c16.8,0,30.5-20.8,30.5-37.4c0-8.9-3.9-18.9-10.1-26.4
										c9.2,7.3,15.4,20.4,15.4,31.6c0,16.6-13.6,37.4-30.5,37.4C343.8,114.5,336.6,110,331.2,103.5z"/>
								</g>
							</g>
							<g class="st19">
								<g>
									<path class="st5" d="M323.7,70.9c2.3-10.1,9.2-17.8,17-24.2c2.1-1.7,5.1,1.2,3,2.9c-7.3,6-13.8,13-15.9,22.4
										C327.2,74.7,323.1,73.5,323.7,70.9L323.7,70.9z"/>
								</g>
								<g>
									<path class="st5" d="M350.2,45c0,2.7-4.2,2.7-4.2,0S350.2,42.3,350.2,45L350.2,45z"/>
								</g>
							</g>
						</g>
					</g>
				</g>
				<g>
					<path class="st2" d="M336,79.2c0,0.8-0.6,1.5-1.4,1.5s-1.4-0.7-1.4-1.5s0.6-1.5,1.4-1.5S336,78.3,336,79.2z"/>
					<path class="st2" d="M370.1,79.2c0,0.8-0.6,1.5-1.4,1.5s-1.4-0.7-1.4-1.5s0.6-1.5,1.4-1.5C369.4,77.6,370.1,78.3,370.1,79.2z"
						/>
					<path class="st21" d="M345.2,78.3c0,0,5.4-4,13.2,0"/>
					<g>
						<path class="st5" d="M340.3,84.1c-2.9,0-5.3-2.3-5.3-5.2c0-2.9,2.4-5.2,5.3-5.2s5.3,2.3,5.3,5.2
							C345.6,81.8,343.3,84.1,340.3,84.1z"/>
						<path class="st2" d="M340.3,74.1c2.7,0,4.9,2.2,4.9,4.8c0,2.7-2.2,4.8-4.9,4.8c-2.7,0-4.9-2.2-4.9-4.8
							C335.5,76.3,337.7,74.1,340.3,74.1 M340.3,73.3c-3.1,0-5.7,2.5-5.7,5.6s2.5,5.6,5.7,5.6s5.7-2.5,5.7-5.6
							S343.5,73.3,340.3,73.3L340.3,73.3z"/>
					</g>
					<g>
						<path class="st5" d="M363.3,84.1c-2.9,0-5.3-2.3-5.3-5.2c0-2.9,2.4-5.2,5.3-5.2s5.3,2.3,5.3,5.2
							C368.6,81.8,366.2,84.1,363.3,84.1z"/>
						<path class="st2" d="M363.3,74.1c2.7,0,4.9,2.2,4.9,4.8c0,2.7-2.2,4.8-4.9,4.8c-2.7,0-4.9-2.2-4.9-4.8
							C358.5,76.3,360.6,74.1,363.3,74.1 M363.3,73.3c-3.1,0-5.7,2.5-5.7,5.6s2.5,5.6,5.7,5.6c3.1,0,5.7-2.5,5.7-5.6
							S366.4,73.3,363.3,73.3L363.3,73.3z"/>
					</g>
					<g>
						<g>
							<path class="st5" d="M351.8,84.6c-1.8,0-3.3-1.5-3.3-3.3c0.1-0.3,0.6-0.9,3.3-0.9c2.1,0,3.1,0.7,3.2,0.7
								c0.1,0.1,0.1,0.1,0.1,0.2C355.1,83.1,353.6,84.6,351.8,84.6z"/>
							<path class="st2" d="M351.8,80.7c2.1,0,3,0.6,3,0.6c0,1.6-1.4,3-3,3c-1.7,0-3-1.3-3-3C348.7,81.3,349,80.7,351.8,80.7
								 M351.8,80.1c-2.7,0-3.4,0.6-3.6,1c0,0.1,0,0.1,0,0.2c0,2,1.6,3.6,3.6,3.6s3.6-1.6,3.6-3.6c0-0.2-0.1-0.4-0.3-0.5
								C355,80.8,353.9,80.1,351.8,80.1L351.8,80.1z"/>
						</g>
						<g>
							<path class="st5" d="M348.8,82.5c0,0,0.8,0.2,1.5,0"/>
							<path class="st2" d="M348.9,82.2c0,0,0.3,0.2,0.7,0.2c0.4,0.1,0.8,0,0.8,0.1c0,0-0.4,0.2-0.8,0.2c-0.4,0.1-0.8,0-0.8,0.1l0,0
								c-0.2,0-0.3-0.2-0.3-0.3C348.5,82.3,348.7,82.2,348.9,82.2C348.8,82.2,348.9,82.2,348.9,82.2z"/>
						</g>
						<g>
							<path class="st5" d="M354.7,82.5c0,0-0.8,0.2-1.5,0"/>
							<path class="st2" d="M354.7,82.8c0,0-0.4,0-0.8-0.1s-0.8-0.2-0.8-0.2s0.4,0,0.8-0.1s0.7-0.2,0.7-0.2c0.1-0.1,0.3,0,0.4,0.1
								s0,0.3-0.1,0.4C354.8,82.8,354.8,82.8,354.7,82.8L354.7,82.8z"/>
						</g>
						<g>
							<line class="st12" x1="351.4" y1="82.5" x2="352.1" y2="82.6"/>
							<path class="st2" d="M351.4,82.5c0,0,0.2-0.1,0.4-0.1c0.2,0,0.4,0.1,0.4,0.1s-0.2,0.1-0.4,0.1S351.4,82.6,351.4,82.5z"/>
						</g>
					</g>
					<g>
						<path class="st21" d="M362,72.1c0,0,3.5-1.3,6,1.5"/>
						<path class="st21" d="M341.5,72.1c0,0-3.5-1.3-6,1.5"/>
					</g>
					<g>
						<path class="st2" d="M343.8,78.8c0,1.9-1.5,3.4-3.5,3.4c-1.9,0-3.5-1.5-3.5-3.4s1.6-3.4,3.5-3.4
							C342.3,75.4,343.8,76.9,343.8,78.8z"/>
						<path class="st5" d="M339.9,77.4c0,0.6-0.5,1.1-1.1,1.1s-1.1-0.5-1.1-1.1s0.5-1.1,1.1-1.1S339.9,76.8,339.9,77.4z"/>
						<path class="st5" d="M339.8,79c0,0.2-0.2,0.4-0.4,0.4c-0.2,0-0.4-0.2-0.4-0.4c0-0.2,0.2-0.4,0.4-0.4
							C339.7,78.6,339.8,78.8,339.8,79z"/>
						<path class="st5" d="M340.6,77.9c0,0.1-0.1,0.3-0.3,0.3c-0.1,0-0.3-0.1-0.3-0.3c0-0.1,0.1-0.3,0.3-0.3
							C340.5,77.7,340.6,77.8,340.6,77.9z"/>
					</g>
					<g>
						<path class="st2" d="M366.8,78.8c0,1.9-1.6,3.4-3.5,3.4s-3.5-1.5-3.5-3.4s1.6-3.4,3.5-3.4C365.2,75.4,366.8,76.9,366.8,78.8z"
							/>
						<path class="st5" d="M362.9,77.4c0,0.6-0.5,1.1-1.1,1.1s-1.1-0.5-1.1-1.1s0.5-1.1,1.1-1.1S362.9,76.8,362.9,77.4z"/>
						<path class="st5" d="M362.8,79c0,0.2-0.2,0.4-0.4,0.4c-0.2,0-0.4-0.2-0.4-0.4c0-0.2,0.2-0.4,0.4-0.4
							C362.6,78.6,362.8,78.8,362.8,79z"/>
						<path class="st5" d="M363.6,77.9c0,0.1-0.1,0.3-0.3,0.3c-0.1,0-0.3-0.1-0.3-0.3c0-0.1,0.1-0.3,0.3-0.3
							C363.5,77.7,363.6,77.8,363.6,77.9z"/>
					</g>
					<path class="st6" d="M341.9,83.7c0,0.5-1.7,1-3.8,1c-2.1,0-3.8-0.4-3.8-1c0-0.5,1.7-1,3.8-1C340.1,82.8,341.9,83.2,341.9,83.7z
						"/>
					<path class="st6" d="M369.3,83.7c0,0.5-1.7,1-3.8,1c-2.1,0-3.8-0.4-3.8-1c0-0.5,1.7-1,3.8-1C367.6,82.8,369.3,83.2,369.3,83.7z
						"/>
				</g>
			</g>
		</g>
		<g id="doughnutBase">
			<g>
				<g>
					<path class="st22" d="M228.2,315.9c-51.3,0-93-41.2-93-91.7c0-50.6,41.7-91.7,93-91.7s93,41.1,93,91.7
						C321.3,274.8,279.5,315.9,228.2,315.9z M228.2,199.6c-13.8,0-25,11.1-25,24.6c0,13.6,11.2,24.6,25,24.6s25-11.1,25-24.6
						C253.2,210.6,242,199.6,228.2,199.6z"/>
					<path class="st2" d="M228.2,134.3c50.4,0,91.2,40.3,91.2,89.9c0,49.7-40.8,89.9-91.2,89.9S137,273.8,137,224.2
						C137,174.5,177.9,134.3,228.2,134.3 M228.2,250.6c14.8,0,26.8-11.8,26.8-26.4c0-14.6-12-26.4-26.8-26.4s-26.8,11.8-26.8,26.4
						S213.4,250.6,228.2,250.6 M228.2,130.7c-52.3,0-94.9,42-94.9,93.5c0,51.6,42.6,93.5,94.9,93.5s94.9-42,94.9-93.5
						C323.1,172.6,280.5,130.7,228.2,130.7L228.2,130.7z M228.2,247.1c-12.8,0-23.2-10.3-23.2-22.8c0-12.6,10.4-22.8,23.2-22.8
						s23.2,10.3,23.2,22.8S241,247.1,228.2,247.1L228.2,247.1z"/>
				</g>
				<g>
					<g>
						<path class="st20" d="M259.1,310.6c-4.1,0-8.6-0.8-13.4-2.2c-1.9-0.1-3.8-0.3-5.7-0.5c-1.7-0.1-3.4-0.3-5.1-0.5
							c-2.3-0.2-4.6-0.4-6.9-0.6h-5c-4.7,2.2-9.1,3.2-13.5,3.2c-10.8,0-18.8-6.4-27.3-13.2c-4.7-3.8-9.6-7.6-15-10.4
							c-2-0.4-3.9-0.9-5.6-1.6c-17.5-7-17.6-28.7-16.3-48.5c-0.3-1.8-0.5-3.5-0.6-5.3c-18.7-22.3-7.6-35.9,7.7-50.2l1.4-1.3
							c0.9-0.8,1.7-1.6,2.6-2.4c4.7-18.7,19-30.3,37.5-30.3c1.6,0,3.2,0.1,4.9,0.3c1.8-0.7,3.6-1.2,5.4-1.7
							c4.9-1.1,9.1-3.4,13.2-5.6c4.7-2.5,9.2-4.9,14.3-5.7c0.5,0,0.7,0,1,0c2,0,3.9,0.3,5.7,1l0.3,0.1l0.2,0.2
							c0.8,0.7,1.7,1.4,2.5,2.1c4.9,1.4,10.2,1.9,15.3,2.4c14.8,1.6,30.1,3.2,32.7,25.1c0.8,1.7,1.4,3.3,2,4.9
							c0.9,0.2,1.8,0.4,2.7,0.6c28.1,6.7,24.3,25.7,20,47.8c-0.7,3.8-1.5,7.8-2.2,11.8c1.3,2.1,2.4,4.1,3.2,6.1
							c7.2,16.8-4.2,27-15.3,36.8l-2.2,2c-1.2,1.1-2.4,2.2-3.6,3.3C286.4,300,274.9,310.6,259.1,310.6L259.1,310.6z M219.4,252.1
							c2.9,0.4,4.7,1.5,6.9,2.7c0.9,0.5,1.9,1.1,3.1,1.7c0.4,0.2,0.7,0.4,1.1,0.5c1,0.5,1.9,1,2.6,1c7.5-0.4,14.6-7.6,20.4-13.4
							c1.2-1.2,2.3-2.5,3.4-3.8c4.2-5.3,5.6-9.9,4.2-14.3c-5.1-6.8-7.4-13.9-7.4-23.6c-0.3-0.5-0.5-1.1-0.8-1.6
							c-0.5-1.2-1.1-2.4-1.7-3.5c-1.2-0.4-4.8-0.9-7.2-1.3c-5.1-0.8-6.7-1.1-7.4-1.5c-5.1-1.8-9.4-2.6-13.4-2.6
							c-9.6,0-15.5,5.1-23,14.4c-0.4,1-0.7,2.1-1,3.2c-1.2,5.1-0.9,10.6-0.6,15.3c0,0.6,0.1,1.2,0.2,1.8c0.2,1.3,0.4,2.6,0.3,4
							c-1.6,14.5,4.1,16.2,15.4,19.5C216.1,251.1,217.8,251.6,219.4,252.1z"/>
						<path class="st2" d="M232.8,135.7c1.8,0,3.5,0.3,5.1,0.9c0.9,0.7,1.8,1.5,2.8,2.3c19.6,5.6,44-1.8,47.1,26.4
							c0.8,1.9,1.7,3.8,2.4,6c1.3,0.3,2.5,0.5,3.7,0.8c31.3,7.5,20.7,30.8,16.4,58.2c1.5,2.2,2.6,4.4,3.5,6.4c7.1,16.7-5,26-17,36.8
							c-1.3,1.2-2.7,2.4-4,3.7c-6.6,18.4-16.5,31.6-33.6,31.6c-3.9,0-8.3-0.7-13-2.2c-1.9-0.1-3.9-0.3-5.8-0.5
							c-3.9-0.4-8-0.8-12-1.1c-1.6,0-3.1,0-4.7,0c-0.3,0-0.6,0-0.8,0c-4.8,2.3-9.1,3.2-13.1,3.2c-16.1,0-26.4-15.8-41.7-23.5
							c-2-0.4-3.9-0.9-5.5-1.5c-16.6-6.6-16.4-27.8-15.1-46.9c-0.3-1.9-0.5-3.9-0.7-5.9c-18-21-8.4-33.6,7.2-48.2
							c1.4-1.3,2.9-2.7,4.4-4.1c4.1-17.2,17.1-29.5,35.9-29.5c1.7,0,3.4,0.1,5.1,0.3c1.8-0.7,3.7-1.3,5.7-1.8
							c10.4-2.4,17.9-9.8,27.3-11.3C232.3,135.7,232.6,135.7,232.8,135.7 M233,259.8c0.1,0,0.1,0,0.2,0c8-0.4,15.3-7.7,21.5-13.9
							c1.2-1.2,2.4-2.5,3.5-3.9c4.4-5.6,6.2-10.9,4.4-16.3c-5.4-7.1-7.2-14.3-7.2-23.2c-0.9-1.8-1.8-4-3-6c-0.6-1-14.3-2.3-15.1-3.1
							c-5.5-2-10.2-2.8-14.2-2.8c-10.9,0-17.5,6.4-24.6,15.3c-0.5,1.2-0.8,2.5-1.1,3.7c-1.2,5-1,10.4-0.6,15.8
							c0.1,1.8,0.7,3.6,0.5,5.5c-1.7,15.9,5.1,18,16.7,21.4c1.7,0.5,3.4,1,5,1.6c3.8,0.5,5.6,2.3,9.6,4.2
							C230.1,258.8,231.6,259.8,233,259.8 M232.8,132.1c-0.3,0-0.6,0-0.9,0h-0.2h-0.2c-5.5,0.8-10.3,3.4-14.9,5.9
							c-4,2.1-8.1,4.4-12.7,5.4h-0.1h-0.1c-1.7,0.5-3.4,1-5.1,1.6c-1.6-0.2-3.1-0.2-4.7-0.2c-19.2,0-34.1,11.9-39.1,31.2
							c-0.7,0.7-1.5,1.4-2.2,2.1l-1.4,1.3c-15.3,14.3-27.4,29.1-8.2,52.2c0.1,1.5,0.3,3.1,0.5,4.6c-1,15.9-2.6,42.1,17.4,50.1
							c1.8,0.7,3.7,1.3,5.7,1.6c5.2,2.7,9.9,6.5,14.5,10.1c8.4,6.7,17,13.6,28.4,13.6c4.5,0,9.1-1.1,13.9-3.2l0,0c0.8,0,1.5,0,2.3,0
							c0.7,0,1.5,0,2.2,0c2.2,0.2,4.5,0.4,6.7,0.6c1.7,0.2,3.4,0.3,5.1,0.5c1.8,0.2,3.7,0.3,5.5,0.4c4.8,1.5,9.4,2.3,13.7,2.3
							c16.5,0,28.5-10.9,36.7-33.2c1.1-1.1,2.3-2.1,3.3-3c0.7-0.6,1.5-1.3,2.2-1.9c11.5-10.3,23.4-20.9,15.7-38.8
							c-0.8-1.9-1.8-3.8-3-5.8c0.6-3.8,1.3-7.5,2-11.1c4.3-22,8.4-42.8-21.4-49.9c-0.5-0.1-1.1-0.3-1.8-0.4c-0.5-1.2-1-2.5-1.6-3.8
							c-2.8-23.1-19.5-24.8-34.3-26.4c-4.9-0.5-9.9-1-14.6-2.3c-0.7-0.6-1.5-1.3-2.3-1.9l-0.5-0.4l-0.6-0.2
							C237.1,132.5,235,132.1,232.8,132.1L232.8,132.1z M201.7,207.6c7.1-8.7,12.6-13.5,21.4-13.5c3.7,0,7.8,0.8,12.6,2.5
							c1.2,0.6,3.2,0.9,7.9,1.7c1.9,0.3,4.8,0.7,6.3,1.1c0.5,0.9,0.9,1.8,1.3,2.7c0.2,0.4,0.4,0.9,0.6,1.3c0.1,9.8,2.4,17,7.6,24
							c0.7,2.5,0.8,6.4-4,12.4c-1,1.2-2.1,2.4-3.3,3.6c-5.2,5.2-12.4,12.4-19.1,12.8c-0.3,0-1.2-0.5-1.7-0.8
							c-0.4-0.2-0.8-0.4-1.1-0.6c-1.1-0.5-2.1-1.1-3-1.6c-2.2-1.2-4.2-2.4-7.3-2.9c-1.7-0.6-3.4-1.1-4.8-1.5
							c-11.3-3.3-15.5-4.6-14.1-17.6c0.2-1.7-0.1-3.2-0.3-4.5c-0.1-0.6-0.2-1.2-0.2-1.7c-0.4-4.6-0.6-9.9,0.5-14.8
							C201.1,209.4,201.4,208.5,201.7,207.6L201.7,207.6z"/>
					</g>
					<g>
						<g>
							<path class="st20" d="M282.7,158.5c0.8,1.9,6.4,10,7.2,12.1c0.9,0.2-3.1-5.8-2.2-5.6c-1-8.1-3.7-13.2-7.5-16.5
								C281.4,151.2,282.2,154.5,282.7,158.5z"/>
						</g>
						<g>
							<path class="st20" d="M313.6,236.7c-0.9-2-2-4.1-3.5-6.4c3.3-21.7,10.6-40.7-1.7-51.5c4.8,11.1-0.6,27-3.3,44.6
								c1.5,2.2,2.6,4.4,3.5,6.4c7.1,16.7-5,26-17,36.8c-1.3,1.2-2.7,2.4-4,3.7c-8.1,22.7-21.2,37.5-46.6,29.4
								c-1.9-0.1-3.9-0.3-5.8-0.5c-3.9-0.4-8-0.8-12-1.1c-1.8,0-3.7,0-5.5,0c-24.5,11.5-35.7-10.7-54.8-20.3c-2-0.4-3.9-0.9-5.5-1.5
								c-2.6-1-4.7-2.5-6.6-4.2c2.4,4.9,6,8.8,11.6,11c1.7,0.7,3.5,1.2,5.5,1.5c19.1,9.6,30.4,31.8,54.8,20.3c1.8,0,3.7,0,5.5,0
								c4,0.3,8,0.8,12,1.1c2,0.2,3.9,0.3,5.8,0.5c25.3,8,38.5-6.7,46.6-29.4c1.3-1.3,2.6-2.5,4-3.7
								C308.6,262.7,320.8,253.4,313.6,236.7z"/>
						</g>
					</g>
				</g>
				<g>
					<g>
						<g>
							<path class="st18" d="M271.9,192.4c-0.6,0-1.2-0.3-1.6-0.7c-1-1.1-1.3-3.9-1.2-4.5c0.2-1.3,1.2-2.7,2.9-4.1
								c0.4-0.3,0.8-0.7,1.3-1.2c2.4-2.1,5.3-4.8,8.3-4.8c0.4,0,0.8,0,1.2,0.1c1.2,0.3,2,1.4,2.3,3.5l0.1,0.6l-0.3,0.5
								c-1.8,3.1-4.5,4.8-7,6.4c-1.6,1.1-3.2,2-4.4,3.4C273,192.2,272.5,192.4,271.9,192.4L271.9,192.4z"/>
							<path class="st2" d="M281.7,179c0.2,0,0.5,0,0.7,0.1c0.5,0.1,0.8,1.5,0.9,2c-2.7,4.5-7.7,5.9-11.2,9.4
								c-0.1,0.1-0.1,0.1-0.2,0.1c-0.6,0-1.1-2.9-1-3.2c0.2-1.1,1.5-2.4,2.3-3C275.4,182.6,278.8,179,281.7,179 M281.7,175.4
								c-3.8,0-7,2.9-9.6,5.2c-0.5,0.4-0.9,0.8-1.3,1.1c-2.1,1.7-3.3,3.5-3.6,5.2c-0.1,0.8,0.2,4.2,1.6,5.9c0.8,0.9,1.8,1.4,3,1.4
								c1.1,0,2.1-0.4,2.8-1.2c1.2-1.2,2.6-2.1,4.1-3.1c2.6-1.7,5.5-3.6,7.6-7l0.6-1.1l-0.2-1.2c-0.4-2.9-1.6-4.5-3.6-5
								C282.8,175.4,282.3,175.4,281.7,175.4L281.7,175.4z"/>
						</g>
					</g>
					<g>
						<g>
							<path class="st18" d="M271.9,281.9c-0.6,0-1.2-0.3-1.6-0.7c-1-1.1-1.3-3.9-1.2-4.5c0.2-1.3,1.2-2.7,2.9-4.1
								c0.4-0.3,0.8-0.7,1.3-1.1c2.4-2.1,5.3-4.8,8.4-4.8c0.4,0,0.8,0,1.2,0.1c1.2,0.3,2,1.4,2.3,3.5l0.1,0.6l-0.3,0.5
								c-1.8,3-4.5,4.8-7,6.4c-1.6,1.1-3.2,2-4.5,3.4C273,281.7,272.5,281.9,271.9,281.9L271.9,281.9z"/>
							<path class="st2" d="M281.7,268.4c0.2,0,0.5,0,0.7,0.1c0.5,0.1,0.8,1.5,0.9,2c-2.7,4.5-7.7,5.8-11.2,9.4
								c-0.1,0.1-0.1,0.1-0.2,0.1c-0.6,0-1.1-2.9-1-3.2c0.2-1.1,1.5-2.4,2.3-3C275.4,272.1,278.8,268.4,281.7,268.4 M281.7,264.9
								c-3.8,0-7,2.9-9.6,5.2c-0.4,0.4-0.9,0.8-1.3,1.1c-2.1,1.7-3.3,3.5-3.6,5.2c-0.1,0.8,0.2,4.2,1.6,5.9c0.8,0.9,1.8,1.4,3,1.4
								c1.1,0,2.1-0.4,2.8-1.2c1.2-1.2,2.6-2.1,4.2-3.1c2.6-1.7,5.5-3.6,7.6-7l0.6-1.1l-0.2-1.2c-0.4-2.9-1.6-4.6-3.7-5
								C282.8,264.9,282.3,264.9,281.7,264.9L281.7,264.9z"/>
						</g>
					</g>
					<g>
						<g>
							<path class="st18" d="M180.7,206.5c-0.6,0-1.2-0.3-1.6-0.7c-1-1.1-1.3-3.9-1.2-4.5c0.2-1.6,1.7-3.1,2.9-4.1
								c0.4-0.3,0.8-0.7,1.3-1.1c2.4-2.1,5.3-4.8,8.4-4.8c0.4,0,0.8,0,1.2,0.1c1.2,0.3,2,1.4,2.3,3.5l0.1,0.6l-0.3,0.5
								c-1.8,3.1-4.5,4.8-7,6.4c-1.6,1.1-3.2,2-4.4,3.4C181.8,206.3,181.3,206.5,180.7,206.5L180.7,206.5z"/>
							<path class="st2" d="M190.5,193c0.2,0,0.5,0,0.7,0.1c0.5,0.1,0.8,1.5,0.9,2c-2.7,4.5-7.7,5.8-11.2,9.4
								c-0.1,0.1-0.1,0.1-0.2,0.1c-0.6,0-1.1-2.9-1-3.2c0.2-1.1,1.5-2.4,2.3-3C184.2,196.7,187.6,193,190.5,193 M190.5,189.5
								c-3.8,0-7,2.9-9.6,5.2c-0.5,0.4-0.9,0.8-1.3,1.1c-2.1,1.7-3.3,3.5-3.6,5.2c-0.1,0.8,0.2,4.2,1.6,5.9c0.8,0.9,1.8,1.4,3,1.4
								c1.1,0,2.1-0.4,2.8-1.2c1.2-1.2,2.6-2.1,4.1-3.1c2.6-1.7,5.5-3.6,7.6-7l0.7-1.1l-0.2-1.3c-0.4-2.8-1.6-4.5-3.6-5
								C191.5,189.5,191,189.5,190.5,189.5L190.5,189.5z"/>
						</g>
					</g>
					<g>
						<g>
							<path class="st18" d="M179.3,279.5c-3.3,0-5.9-1.1-8.5-2.2c-1.8-0.7-3.5-1.5-5.3-1.8c-0.9-0.2-1.6-0.8-1.7-1.7
								c-0.3-2.1,3.1-4.3,3.1-4.3c0.6-0.3,1.2-0.4,2-0.4c1.1,0,2.3,0.3,3.1,0.5c0.5,0.1,1.1,0.3,1.7,0.4c3.5,0.9,7.9,1.9,9.2,5.2
								c0.6,1.7-1.1,3.3-1.7,3.8l-0.5,0.4h-0.6C179.8,279.5,179.5,279.5,179.3,279.5L179.3,279.5z"/>
							<path class="st2" d="M168.8,270.8c0.9,0,2,0.2,2.6,0.4c3,0.9,8.6,1.7,9.7,4.6c0.2,0.5-0.8,1.5-1.2,1.9c-0.2,0-0.4,0-0.7,0
								c-5,0-8.8-3.1-13.5-4c-1.1-0.2,1.6-2.6,1.9-2.7C167.9,270.9,168.4,270.8,168.8,270.8 M168.8,267.3c-1,0-2,0.2-2.8,0.6
								c-0.1,0-4.7,2.8-4.2,6.2c0.2,1.6,1.5,2.9,3.2,3.2c1.6,0.3,3.2,1,4.9,1.7c2.6,1.1,5.6,2.3,9.2,2.3c0.3,0,0.6,0,0.9,0l1.3-0.1
								l1-0.9c2.2-1.9,2.9-3.9,2.2-5.8c-1.6-4.2-6.7-5.4-10.4-6.3c-0.6-0.1-1.2-0.3-1.6-0.4C171.1,267.5,169.9,267.3,168.8,267.3
								L168.8,267.3z"/>
						</g>
					</g>
					<g>
						<path class="st23" d="M207.1,285.9c-1.9,0-3.7-0.3-5.5-0.6c-1.7-0.3-3.3-0.6-5-0.6c-0.2,0-0.6,0-0.6,0c-1,0-1.8-0.5-2.1-1.4
							c-0.7-1.9,2.1-4.9,2.1-4.9c0.9-0.7,2.2-1,4.2-1c0.3,0,0.6,0,0.8,0c0.5,0,1.1,0,1.8,0.1c3.6,0.1,8.2,0.1,10.1,3.1
							c0.7,1,0.4,2.4-0.8,4.1l-0.4,0.5l-0.6,0.2C209.9,285.7,208.5,285.9,207.1,285.9z"/>
						<path class="st2" d="M200.2,279.2c0.3,0,0.5,0,0.8,0c3.1,0.2,8.7-0.3,10.5,2.3c0.3,0.5-0.4,1.6-0.8,2.1
							c-1.2,0.3-2.4,0.5-3.5,0.5c-3.5,0-6.9-1.2-10.5-1.2c-0.2,0-0.4,0-0.7,0l0,0c-1,0,1-2.9,1.3-3.1
							C197.8,279.3,199.2,279.2,200.2,279.2 M200.2,275.6c-2.3,0-4.1,0.5-5.3,1.4c0,0-3.8,3.7-2.7,6.9c0.6,1.6,2,2.6,3.7,2.6h0.1
							h0.1c0.2,0,0.3,0,0.5,0c1.5,0,3,0.3,4.7,0.6c1.8,0.3,3.7,0.7,5.8,0.7c1.6,0,3.1-0.2,4.5-0.6l1.2-0.3l0.7-1
							c1.7-2.3,2-4.4,0.8-6.1c-2.5-3.7-7.8-3.8-11.6-3.9c-0.6,0-1.2,0-1.7,0C200.9,275.6,200.5,275.6,200.2,275.6L200.2,275.6z"/>
					</g>
					<g>
						<g>
							<path class="st23" d="M181.2,230.8c-0.4,0-0.8,0-1-0.1l-0.6-0.1l-0.4-0.4c-2.6-2.5-3.6-5.4-4.6-8.3c-0.6-1.8-1.2-3.5-2.2-5.1
								c-0.4-0.7-0.4-1.4-0.1-2.1c0.7-1.2,2.3-1.2,3-1.2c0,0,1.9,0,2.6,0.3c1.2,0.5,2.3,1.8,3.3,3.8c0.2,0.5,0.5,1,0.8,1.5
								c1.7,3.2,3.9,7.1,2.2,10.2C183.5,230.8,181.7,230.8,181.2,230.8L181.2,230.8z"/>
							<path class="st2" d="M175.2,215.4c0.8,0,1.8,0.1,1.9,0.2c1,0.4,1.9,2,2.4,2.9c1.4,2.8,4.5,7.4,3.1,10.1
								c-0.2,0.3-0.8,0.4-1.4,0.4c-0.3,0-0.6,0-0.8,0c-3.8-3.7-3.9-8.8-6.5-13C173.5,215.5,174.3,215.4,175.2,215.4 M175.2,211.8
								c-0.8,0-3.4,0-4.6,2.1c-0.7,1.2-0.7,2.7,0.1,3.9c0.9,1.4,1.4,3,2,4.7c1,2.9,2.2,6.2,5,8.9l0.9,0.9l1.3,0.1
								c0.3,0,0.7,0.1,1.2,0.1c2.8,0,4-1.3,4.6-2.3c2.1-3.9-0.4-8.5-2.2-11.9c-0.3-0.5-0.6-1-0.8-1.5c-1.2-2.4-2.6-4-4.3-4.7
								C177.5,211.8,175.6,211.8,175.2,211.8L175.2,211.8z"/>
						</g>
					</g>
					<g>
						<g>
							<path class="st23" d="M263.9,174.7c-0.7,0-1.3-0.3-1.7-0.9c-1-1.4-0.4-4.5-0.3-4.8c0.5-1.2,1.7-2.3,3.8-3.4
								c0.5-0.2,1-0.5,1.5-0.8c2.4-1.3,5.3-2.9,7.9-2.9c0.9,0,1.7,0.2,2.4,0.5c1.1,0.5,1.6,1.8,1.4,3.9l-0.1,0.6l-0.4,0.5
								c-2.5,2.6-5.4,3.6-8.3,4.7c-1.8,0.7-3.5,1.3-5.1,2.3l-0.5,0.3L263.9,174.7z"/>
							<path class="st2" d="M275.1,163.6c0.6,0,1.1,0.1,1.6,0.3s0.4,1.6,0.4,2.2c-3.7,3.8-8.8,4-13.1,6.7c-0.1,0-0.1,0.1-0.2,0.1
								c-0.7,0-0.4-3.1-0.3-3.3c0.4-1,2-2,2.9-2.4C268.8,166,272.4,163.6,275.1,163.6 M275.1,160c-3.1,0-6.3,1.8-8.8,3.2
								c-0.5,0.3-1,0.6-1.5,0.8c-2.5,1.3-4,2.7-4.7,4.3c-0.1,0.4-1,4.3,0.5,6.5c0.7,1.1,1.9,1.7,3.2,1.7c0.8,0,1.5-0.2,2.2-0.6
								c1.4-0.9,3-1.5,4.7-2.1c2.9-1.1,6.2-2.3,9-5.1l0.9-0.9l0.1-1.3c0.2-2.9-0.6-4.8-2.4-5.7C277.4,160.3,276.3,160,275.1,160
								L275.1,160z"/>
						</g>
					</g>
					<g>
						<g>
							<path class="st7" d="M283.5,223.6c-3.4-1.1-5.6-3.3-7.8-5.4c-1.4-1.4-2.7-2.6-4.2-3.6c-0.8-0.5-1.2-1.4-0.9-2.2
								c0.5-2,4.5-2.9,4.6-2.9h0.2c1.2,0,2.8,0.7,4.5,2c0.4,0.3,0.9,0.7,1.4,1c3,2.1,6.6,4.7,6.5,8.2c0,1.8-2.3,2.6-3,2.9l-0.6,0.2
								L283.5,223.6z"/>
							<path class="st2" d="M275.3,211.3c1.1,0,2.6,1,3.4,1.6c2.5,1.9,7.3,4.7,7.3,7.8c0,0.6-1.3,1.1-1.8,1.3
								c-5.1-1.7-7.4-6.2-11.7-8.9C271.6,212.5,275,211.3,275.3,211.3C275.3,211.3,275.3,211.3,275.3,211.3 M275.3,207.7
								c-0.1,0-0.2,0-0.3,0c-0.1,0-5.3,0.8-6.2,4.2c-0.4,1.6,0.3,3.3,1.7,4.2c1.4,0.9,2.6,2.1,4,3.4c2.2,2.2,4.7,4.6,8.5,5.9
								l1.2,0.4l1.2-0.4c2.7-1,4.1-2.5,4.2-4.5c0.1-4.4-4.2-7.5-7.3-9.7c-0.5-0.3-1-0.7-1.4-1C277.8,207.7,276,207.7,275.3,207.7
								L275.3,207.7z"/>
						</g>
					</g>
					<g>
						<g>
							<path class="st23" d="M249.3,262.4c-0.8,0-1.5-0.5-1.9-1.2c-0.8-1.8,1.3-5,1.3-5c0.9-1,2.5-1.6,4.8-1.9
								c0.5-0.1,1.1-0.2,1.7-0.3c1.6-0.2,3.4-0.5,5.1-0.5c2.5,0,4.3,0.6,5.4,1.8c0.9,0.9,0.8,2.3-0.1,4.2l-0.3,0.6l-0.6,0.3
								c-3,1.4-5.9,1.5-8.9,1.5h-1.1c-1.7,0-3.4,0-5.1,0.4h-0.2L249.3,262.4z"/>
							<g>
								<path class="st2" d="M260.3,255.3c1.7,0,3.2,0.3,4.1,1.3c0.4,0.4-0.2,1.7-0.4,2.2c-2.7,1.3-5.4,1.4-8.1,1.4
									c-0.4,0-0.7,0-1.1,0c-1.8,0-3.6,0-5.4,0.4h-0.1c-0.9,0,0.6-3,0.8-3.2c0.7-0.8,2.6-1.1,3.6-1.3
									C255.4,255.9,258,255.3,260.3,255.3 M260.3,251.8c-1.9,0-3.8,0.3-5.4,0.5c-0.6,0.1-1.2,0.2-1.7,0.2
									c-2.8,0.3-4.7,1.1-5.9,2.4c0,0.1-2.9,4-1.6,6.9c0.6,1.4,2,2.2,3.5,2.2c0.3,0,0.6,0,0.9-0.1c1.5-0.3,3-0.3,4.7-0.3h0.5h0.5
									c3.2,0,6.4-0.1,9.7-1.7l1.1-0.6l0.5-1.1c1.2-2.6,1.2-4.7-0.2-6.1C265.5,252.5,263.3,251.8,260.3,251.8L260.3,251.8z"/>
							</g>
						</g>
					</g>
					<g>
						<g>
							<path class="st7" d="M195,259.4c-0.8,0-1.6-0.1-2.1-0.2s-1.1-0.1-1.8-0.2c-3.6-0.4-8.1-0.9-9.8-4c-0.6-1.1-0.2-2.4,1.2-4
								l0.4-0.5l0.6-0.1c0.9-0.2,1.7-0.2,2.6-0.2c2.5,0,4.7,0.6,6.9,1.2c1.9,0.5,3.6,1,5.5,1.1c0.9,0,1.7,0.6,1.9,1.5
								c0.6,2-2.5,4.7-2.6,4.7C197.3,259.2,196.3,259.4,195,259.4z"/>
							<path class="st2" d="M186.2,252c4.3,0,8,2.1,12.3,2.3c1.1,0-1.3,2.8-1.5,2.9c-0.5,0.3-1.3,0.4-2,0.4s-1.3-0.1-1.8-0.1
								c-3.1-0.5-8.7-0.5-10.2-3.3c-0.3-0.5,0.6-1.6,1-2C184.7,252,185.5,252,186.2,252 M186.2,248.4c-1,0-2,0.1-2.9,0.3l-1.3,0.2
								l-0.8,1c-1.9,2.2-2.4,4.2-1.4,6c2.1,3.9,7.3,4.5,11.2,4.9c0.6,0.1,1.2,0.1,1.7,0.2c0.6,0.1,1.4,0.2,2.3,0.2c1.7,0,3-0.3,4-1
								c0,0,4.2-3.3,3.3-6.7c-0.4-1.6-1.9-2.7-3.6-2.8c-1.6-0.1-3.3-0.5-5.1-1C191.3,249,188.9,248.4,186.2,248.4L186.2,248.4z"/>
						</g>
					</g>
					<g>
						<g>
							<path class="st7" d="M196.5,186c-3.4-1.1-5.6-3.3-7.8-5.5c-1.4-1.3-2.7-2.6-4.2-3.6c-0.8-0.5-1.2-1.4-0.9-2.2
								c0.5-2,4.5-2.9,4.6-2.9h0.2c1.2,0,2.8,0.7,4.5,2c0.4,0.3,0.9,0.7,1.4,1c2.9,2.1,6.6,4.7,6.5,8.2c0,1.2-1.1,2.2-3,2.9
								l-0.6,0.2L196.5,186z"/>
							<path class="st2" d="M188.3,173.6c1.1,0,2.6,1,3.4,1.6c2.5,1.9,7.3,4.7,7.3,7.8c0,0.5-1.3,1.1-1.8,1.3
								c-5.1-1.7-7.4-6.2-11.7-8.9C184.6,174.8,188,173.6,188.3,173.6C188.2,173.6,188.3,173.6,188.3,173.6 M188.3,170
								c-0.1,0-0.2,0-0.3,0s-5.4,0.9-6.2,4.2c-0.4,1.6,0.3,3.3,1.7,4.2s2.6,2.1,3.9,3.4c2.2,2.2,4.7,4.6,8.5,5.9l1.2,0.4l1.2-0.4
								c3.4-1.2,4.2-3.1,4.2-4.5c0.1-4.4-4.1-7.5-7.3-9.7c-0.5-0.4-1-0.7-1.4-1C191.9,170.8,190,170,188.3,170L188.3,170z"/>
						</g>
					</g>
					<g>
						<g>
							<path class="st24" d="M300.6,207.6c-3.4-1.1-5.6-3.3-7.8-5.4c-1.4-1.4-2.7-2.6-4.2-3.6c-0.8-0.5-1.2-1.4-0.9-2.2
								c0.5-2,4.5-2.9,4.6-2.9h0.2c1.2,0,2.7,0.7,4.5,2c0.4,0.3,0.9,0.7,1.4,1c3,2.1,6.6,4.7,6.5,8.2c0,1.2-1,2.2-3,2.9l-0.6,0.2
								L300.6,207.6z"/>
							<g>
								<path class="st2" d="M292.4,195.2c1.1,0,2.6,1,3.4,1.6c2.5,1.9,7.3,4.7,7.3,7.8c0,0.5-1.3,1.1-1.8,1.3
									c-5.1-1.7-7.4-6.2-11.7-8.9C288.7,196.4,292.1,195.2,292.4,195.2C292.4,195.2,292.4,195.2,292.4,195.2 M292.4,191.7
									c-0.1,0-0.2,0-0.3,0c-0.1,0-5.4,0.9-6.2,4.2c-0.4,1.6,0.3,3.3,1.7,4.2c1.4,0.9,2.6,2.1,3.9,3.4c2.2,2.2,4.7,4.6,8.5,5.9
									l1.2,0.4l1.2-0.4c2.7-1,4.2-2.5,4.2-4.5c0.1-4.5-4.2-7.5-7.3-9.8c-0.5-0.4-1-0.7-1.4-1C295.9,192.4,294.1,191.7,292.4,191.7
									L292.4,191.7z"/>
							</g>
						</g>
					</g>
					<g>
						<g>
							<path class="st24" d="M154.4,222.5c-3.4-1.1-5.6-3.3-7.8-5.4c-1.4-1.4-2.7-2.6-4.2-3.6c-0.8-0.5-1.2-1.4-0.9-2.2
								c0.5-2.1,4.5-2.9,4.6-2.9h0.2c1.2,0,2.8,0.7,4.5,2c0.4,0.3,0.9,0.7,1.4,1c3,2.1,6.6,4.7,6.5,8.2c0,1.2-1,2.2-3,2.9l-0.6,0.2
								L154.4,222.5z"/>
							<g>
								<path class="st2" d="M146.2,210.1c1.1,0,2.6,1,3.4,1.6c2.5,1.9,7.3,4.7,7.3,7.8c0,0.5-1.3,1.1-1.8,1.3
									c-5.1-1.7-7.4-6.2-11.7-8.9C142.5,211.3,145.9,210.1,146.2,210.1C146.2,210.1,146.2,210.1,146.2,210.1 M146.2,206.6
									c-0.1,0-0.2,0-0.3,0c0,0-5.3,0.8-6.2,4.2c-0.4,1.6,0.3,3.3,1.7,4.2s2.6,2.1,4,3.4c2.2,2.2,4.7,4.6,8.5,5.9l1.2,0.4l1.2-0.4
									c3.5-1.2,4.2-3.2,4.2-4.6c0.1-4.4-4.2-7.5-7.3-9.7c-0.5-0.4-1-0.7-1.4-1C149.8,207.4,147.9,206.6,146.2,206.6L146.2,206.6z"
									/>
							</g>
						</g>
					</g>
					<g>
						<g>
							<path class="st24" d="M281.5,253c-3.4-1.1-5.6-3.3-7.8-5.4c-1.4-1.4-2.7-2.6-4.3-3.6c-0.8-0.5-1.2-1.4-0.9-2.2
								c0.5-2,4.5-2.9,4.6-2.9h0.2c1.2,0,2.8,0.7,4.5,2c0.4,0.3,0.9,0.7,1.4,1c3,2.1,6.6,4.7,6.5,8.2c-0.1,1.8-2.3,2.6-3,2.9
								l-0.6,0.2L281.5,253z"/>
							<g>
								<path class="st2" d="M273.3,240.7c1.1,0,2.6,1,3.4,1.6c2.5,1.9,7.3,4.7,7.3,7.8c0,0.5-1.3,1.1-1.8,1.3
									c-5.1-1.7-7.4-6.2-11.7-8.9C269.6,241.9,273,240.7,273.3,240.7C273.3,240.7,273.3,240.7,273.3,240.7 M273.3,237.1
									c-0.1,0-0.2,0-0.3,0c-0.1,0-5.4,0.9-6.2,4.2c-0.4,1.6,0.3,3.3,1.7,4.2c1.4,0.9,2.6,2.1,3.9,3.4c2.2,2.2,4.7,4.6,8.5,5.9
									l1.2,0.4l1.2-0.4c2.7-1,4.1-2.5,4.2-4.5c0.1-4.4-4.2-7.5-7.3-9.7c-0.5-0.4-1-0.7-1.4-1C275.8,237.1,274,237.1,273.3,237.1
									L273.3,237.1z"/>
							</g>
						</g>
					</g>
					<g>
						<g>
							<path class="st24" d="M231.9,278.2c-3.4-1.1-5.6-3.3-7.8-5.4c-1.4-1.4-2.7-2.6-4.3-3.6c-0.8-0.5-1.2-1.4-0.9-2.2
								c0.5-2,4.5-2.9,4.6-2.9h0.2c1.3,0,2.8,0.7,4.5,2c0.4,0.3,0.9,0.7,1.4,1c3,2.1,6.6,4.7,6.5,8.2c0,1.2-1,2.2-3,2.9l-0.6,0.2
								L231.9,278.2z"/>
							<g>
								<path class="st2" d="M223.7,265.8c1.1,0,2.6,1,3.4,1.6c2.5,1.9,7.3,4.7,7.3,7.8c0,0.5-1.3,1.1-1.8,1.3
									c-5.1-1.7-7.4-6.2-11.7-8.9C220,267,223.4,265.8,223.7,265.8C223.6,265.8,223.7,265.8,223.7,265.8 M223.7,262.2
									c-0.1,0-0.2,0-0.3,0s-5.4,0.9-6.2,4.2c-0.4,1.6,0.3,3.3,1.7,4.2c1.4,0.9,2.6,2.1,3.9,3.4c2.2,2.2,4.7,4.6,8.5,5.9l1.2,0.4
									l1.2-0.4c3.4-1.2,4.2-3.2,4.2-4.6c0.1-4.4-4.2-7.5-7.3-9.7c-0.5-0.4-1-0.7-1.4-1C227.2,263,225.4,262.2,223.7,262.2
									L223.7,262.2z"/>
							</g>
						</g>
					</g>
					<g>
						<g>
							<path class="st5" d="M238.4,289.2c-0.7,0-1.4-0.4-1.7-1c-1-1.5,0-4.7,0.1-4.9c0.6-1.2,2-2.2,4.1-3c0.5-0.2,1-0.4,1.6-0.7
								c2.2-1,5-2.2,7.5-2.2c1.1,0,2.1,0.3,3,0.8c1.1,0.7,1.4,2,1,4l-0.1,0.6l-0.5,0.4c-2.7,2.3-5.8,3.1-8.7,3.9
								c-1.9,0.5-3.6,1-5.3,1.8l-0.4,0.2L238.4,289.2z"/>
							<path class="st2" d="M250,279.2c0.8,0,1.4,0.1,2,0.5c0.5,0.3,0.3,1.7,0.2,2.2c-4,3.5-9.2,3.2-13.6,5.5c-0.1,0-0.1,0-0.2,0
								c-0.7,0-0.1-3.1,0-3.3c0.5-1,2.2-1.8,3.1-2.1C243.8,281.1,247.3,279.2,250,279.2 M250,275.6c-2.9,0-5.9,1.3-8.3,2.4
								c-0.6,0.2-1.1,0.5-1.6,0.7c-2.6,1-4.3,2.3-5,3.9c0,0.1-1.6,4.2,0,6.7c0.7,1.1,1.9,1.8,3.3,1.8c0.6,0,1.3-0.2,1.9-0.5
								c1.5-0.8,3.1-1.2,4.9-1.7c3-0.8,6.4-1.7,9.4-4.3l1-0.8l0.2-1.2c0.5-2.8-0.1-4.8-1.9-5.9C252.8,276,251.5,275.6,250,275.6
								L250,275.6z"/>
						</g>
					</g>
					<g>
						<g>
							<path class="st5" d="M289.8,242.5c-0.7,0-1.4-0.4-1.7-1c-0.9-1.4-0.1-4.6,0.1-4.9c0.6-1.1,1.9-2.2,4.1-3
								c0.5-0.2,1-0.4,1.6-0.7c2.2-1,5-2.2,7.5-2.2c1.1,0,2.1,0.3,3,0.8c1.4,0.9,1.3,2.7,1,4l-0.1,0.6l-0.5,0.4
								c-2.7,2.3-5.7,3.1-8.7,3.9c-1.9,0.5-3.7,1-5.3,1.8l-0.4,0.2L289.8,242.5z"/>
							<path class="st2" d="M301.3,232.4c0.8,0,1.4,0.1,2,0.5c0.5,0.3,0.3,1.7,0.2,2.2c-4,3.5-9.2,3.2-13.6,5.5c-0.1,0-0.1,0-0.2,0
								c-0.7,0-0.1-3.1,0-3.3c0.5-1,2.2-1.8,3.1-2.1C295.2,234.3,298.6,232.4,301.3,232.4 M301.3,228.8c-2.9,0-5.9,1.3-8.3,2.4
								c-0.6,0.2-1.1,0.5-1.6,0.7c-2.6,1-4.3,2.3-5,3.9c-0.2,0.4-1.5,4.4,0,6.7c0.7,1.1,1.9,1.8,3.3,1.8c0.6,0,1.3-0.2,1.9-0.5
								c1.5-0.8,3.1-1.2,4.9-1.7c3-0.8,6.4-1.7,9.4-4.3l1-0.8l0.2-1.3c0.5-2.8-0.1-4.8-1.9-5.9C304.1,229.2,302.8,228.8,301.3,228.8
								L301.3,228.8z"/>
						</g>
					</g>
					<g>
						<g>
							<path class="st5" d="M158.1,259.6c-2.6,0-3.3-4.7-3.3-4.7c0-1.3,0.8-2.8,2.3-4.5c0.4-0.4,0.7-0.8,1.1-1.3
								c2.2-2.7,4.9-5.9,8.3-5.9c0.1,0,0.3,0,0.4,0c1.2,0.1,2.2,1.2,2.8,3.2l0.2,0.6l-0.2,0.6c-1.4,3.3-3.7,5.3-6,7.3
								c-1.4,1.3-2.8,2.5-3.9,4C159.4,259.3,158.8,259.6,158.1,259.6L158.1,259.6z"/>
							<path class="st2" d="M166.6,244.8c0.1,0,0.2,0,0.3,0c0.6,0,1,1.4,1.2,1.9c-2,4.9-6.7,6.9-9.7,10.9c-0.1,0.1-0.1,0.1-0.2,0.1
								c-0.6,0-1.4-2.7-1.4-3c0-1.1,1.2-2.5,1.8-3.3C160.5,249.3,163.5,244.8,166.6,244.8 M166.6,241.3c-4.2,0-7.4,3.8-9.7,6.6
								c-0.4,0.5-0.8,0.9-1.1,1.3c-1.9,2.1-2.8,3.9-2.8,5.7c0,0.1,0.7,6.6,5.1,6.6c1.3,0,2.4-0.6,3.2-1.6c1-1.3,2.3-2.5,3.6-3.7
								c2.3-2,4.9-4.3,6.5-8l0.5-1.2l-0.4-1.2c-1-3.4-2.9-4.3-4.3-4.4C166.9,241.3,166.8,241.3,166.6,241.3L166.6,241.3z"/>
						</g>
					</g>
					<g>
						<g>
							<path class="st5" d="M163.8,203.5c-2.6,0-3.3-4.7-3.3-4.8c0-1.3,0.8-2.8,2.3-4.5c0.4-0.4,0.7-0.9,1.1-1.3
								c2.2-2.6,4.9-5.9,8.3-5.9c0.1,0,0.3,0,0.4,0c1.2,0.1,2.2,1.2,2.8,3.2l0.2,0.6l-0.2,0.6c-1.4,3.3-3.7,5.3-6,7.3
								c-1.5,1.3-2.8,2.5-3.9,4C165.1,203.2,164.4,203.5,163.8,203.5L163.8,203.5z"/>
							<path class="st2" d="M172.2,188.7c0.1,0,0.2,0,0.3,0c0.6,0.1,1,1.4,1.2,1.9c-2,4.9-6.7,6.9-9.7,10.9
								c-0.1,0.1-0.1,0.1-0.2,0.1c-0.6,0-1.4-2.7-1.4-3c0-1.1,1.2-2.5,1.8-3.3C166.2,193.2,169.2,188.7,172.2,188.7 M172.2,185.2
								c-4.2,0-7.4,3.8-9.7,6.6c-0.4,0.5-0.8,0.9-1.1,1.3c-1.9,2.1-2.8,3.9-2.7,5.7c0,0,0.7,6.5,5.1,6.5c1.3,0,2.4-0.6,3.2-1.6
								c1-1.3,2.3-2.5,3.6-3.7c2.3-2,4.9-4.3,6.5-8l0.5-1.2l-0.3-1.2c-1-3.4-2.9-4.3-4.3-4.5C172.6,185.2,172.4,185.2,172.2,185.2
								L172.2,185.2z"/>
						</g>
					</g>
				</g>
				<g class="st19">
					<g>
						<path class="st5" d="M182.5,156.9c-6.3,3.2-12.7,6.6-15.2,13.6c-1.4,4.1,5.2,5.8,6.6,1.8c1.7-5,7.7-7.3,12-9.6
							C189.8,160.7,186.4,154.9,182.5,156.9L182.5,156.9z"/>
					</g>
					<g>
						<path class="st5" d="M163.1,186.4c0.1,0,0.2,0,0.3,0c1.9,0,3.4-1.5,3.4-3.4c0-1.8-1.5-3.4-3.4-3.4c-0.1,0-0.2,0-0.3,0
							c-1.8,0-3.4,1.5-3.4,3.4C159.7,184.8,161.2,186.4,163.1,186.4L163.1,186.4z"/>
					</g>
				</g>
			</g>
			<g>
				<g>
					<g>
						<path class="st2" d="M216.8,170.2c0,3.8-3.2,7-7.1,7c-3.9,0-7.1-3.1-7.1-7s3.2-7,7.1-7S216.8,166.3,216.8,170.2z"/>
						<path class="st5" d="M208.8,167.2c0,1.2-1,2.2-2.3,2.2c-1.2,0-2.3-1-2.3-2.2s1-2.2,2.3-2.2S208.8,166,208.8,167.2z"/>
						<path class="st5" d="M208.7,170.6c0,0.5-0.4,0.8-0.8,0.8c-0.5,0-0.8-0.4-0.8-0.8c0-0.5,0.4-0.8,0.8-0.8
							S208.7,170.1,208.7,170.6z"/>
						<path class="st5" d="M210.2,168.4c0,0.3-0.2,0.5-0.5,0.5s-0.5-0.2-0.5-0.5s0.2-0.5,0.5-0.5S210.2,168.1,210.2,168.4z"/>
						<path class="st6" d="M212.1,177.2c0,0.9-2.8,1.6-6.2,1.6s-6.2-0.7-6.2-1.6s2.8-1.6,6.2-1.6
							C209.4,175.6,212.1,176.3,212.1,177.2z"/>
					</g>
					<g>
						<path class="st2" d="M254.1,170.2c0,3.8-3.2,7-7.1,7c-3.9,0-7.1-3.1-7.1-7s3.2-7,7.1-7C251,163.2,254.1,166.3,254.1,170.2z"/>
						<path class="st5" d="M246.2,167.2c0,1.2-1,2.2-2.3,2.2c-1.2,0-2.3-1-2.3-2.2s1-2.2,2.3-2.2S246.2,166,246.2,167.2z"/>
						<path class="st5" d="M246,170.6c0,0.5-0.4,0.8-0.8,0.8c-0.5,0-0.9-0.4-0.9-0.8c0-0.5,0.4-0.8,0.9-0.8S246,170.1,246,170.6z"/>
						<path class="st5" d="M247.6,168.4c0,0.3-0.2,0.5-0.5,0.5s-0.5-0.2-0.5-0.5s0.2-0.5,0.5-0.5S247.6,168.1,247.6,168.4z"/>
						<path class="st6" d="M256.7,177.2c0,0.9-2.8,1.6-6.2,1.6s-6.2-0.7-6.2-1.6s2.8-1.6,6.2-1.6
							C253.9,175.6,256.7,176.3,256.7,177.2z"/>
					</g>
				</g>
				<g>
					<path class="st25" d="M244.9,158.2c0,0,5.7-2.1,9.8,2.5"/>
					<path class="st25" d="M211.6,158.2c0,0-5.7-2.1-9.8,2.5"/>
				</g>
				<g>
					<path class="st25" d="M228.2,173.3c-0.5,2.3-1.6,3.9-3,3.9c-1.3,0-2.4-1.6-2.9-3.9"/>
					<path class="st25" d="M234.1,173.3c-0.5,2.3-1.6,3.9-3,3.9c-1.3,0-2.5-1.6-2.9-3.9"/>
				</g>
			</g>
		</g>
		<g>
			<path class="st15" d="M199.8,311.2c0,0-27.5,18.2-21.8,49.1l-12.5,1.7"/>
		</g>
		<g>
			<path class="st15" d="M253.5,310.4c0,0,17,26.3,16.8,66.7l5.2,3.9"/>
		</g>
		<g>
			<g>
				<path class="st15" d="M110.9,280.9c0,0,7.7-29.6,32.8-48.1"/>
			</g>
			<line class="st15" x1="111.3" y1="281.8" x2="113.1" y2="288.3"/>
			<line class="st15" x1="111.3" y1="281.8" x2="107.5" y2="287.5"/>
			<line class="st15" x1="111.3" y1="281.8" x2="104.4" y2="282.8"/>
		</g>
	</g>
	<g id="biscuitRightHand">
		<g>
			<path class="st9" d="M237,140.7c0,0-7.7-27.7-24.1-31"/>
		</g>
		<g>
			<line class="st9" x1="236.4" y1="141.8" x2="232.8" y2="144.8"/>
			<line class="st9" x1="236.4" y1="141.8" x2="236.2" y2="146.4"/>
			<line class="st9" x1="236.4" y1="141.8" x2="239.7" y2="145"/>
		</g>
	</g>
</g>
</svg>
