<?xml version="1.0" encoding="utf-8"?>
<!-- Generator: Adobe Illustrator 24.1.0, SVG Export Plug-In . SVG Version: 6.00 Build 0)  -->
<svg version="1.1" id="Capa_1" xmlns="http://www.w3.org/2000/svg" xmlns:xlink="http://www.w3.org/1999/xlink" x="0px" y="0px"
	 viewBox="0 0 425.2 425.2" style="enable-background:new 0 0 425.2 425.2;" xml:space="preserve">
<style type="text/css">
	.st0{display:none;fill:#8CBAB1;}
	.st1{fill:#B6DCFF;}
	.st2{display:none;fill:#B2A28B;}
	.st3{clip-path:url(#SVGID_2_);}
	.st4{fill:#A57053;}
	.st5{fill:#BE8159;}
	.st6{fill:#CC2638;}
	.st7{fill:#EA516A;}
	.st8{fill:#E84058;}
	.st9{fill:#6A4736;}
	.st10{fill:#333436;}
	.st11{fill:#646567;}
	.st12{fill:#FFFFFF;}
	.st13{fill:#991B32;}
	.st14{fill:#F6B8D5;}
	.st15{fill:#884B57;}
	.st16{fill:#F8CBE1;}
	.st17{fill:#FEFADE;}
	.st18{fill:#E3D8EC;}
	.st19{fill:#D83045;}
</style>
<path class="st0" d="M322.8,410.6c34.3-15.1,65.1-44.4,67.7-83.6c2.3-34.5-12.3-66-1.4-100.3c9.7-31,29.9-60.3,21.2-94.1
	c-5.1-20.2-20-37.3-38.6-46.6c-35.6-17.9-85.6,9.7-116.1-18.4c-9.8-9-15.2-21.7-21.4-33.5c-16-30.4-45.8-41.6-73.2-16.4
	c-18.4,16.9-27.4,42-38.8,63.7c-6.7,12.8-11.1,27.5-20.2,38.9c-18.8,23.7-48,35-66.5,60.3c-27.1,37.2-49.9,107.2-7,142.4
	c28.2,23.1,68.2,9.7,100.4,6.6c48.7-4.7,60.4,53.4,93.2,76.4C251.5,426.5,289.7,425.2,322.8,410.6z"/>
<path class="st1" d="M322.8,410.6c34.3-15.1,65.1-44.4,67.7-83.6c2.3-34.5-12.3-66-1.4-100.3c9.7-31,29.9-60.3,21.2-94.1
	c-5.1-20.2-20-37.3-38.6-46.6c-35.6-17.9-85.6,9.7-116.1-18.4c-9.8-9-15.2-21.7-21.4-33.5c-16-30.4-45.8-41.6-73.2-16.4
	c-18.4,16.9-27.4,42-38.8,63.7c-6.7,12.8-11.1,27.5-20.2,38.9c-18.8,23.7-48,35-66.5,60.3c-27.1,37.2-49.9,107.2-7,142.4
	c28.2,23.1,68.2,9.7,100.4,6.6c48.7-4.7,60.4,53.4,93.2,76.4C251.5,426.5,289.7,425.2,322.8,410.6z"/>
<path class="st2" d="M322.8,410.6c34.3-15.1,65.1-44.4,67.7-83.6c2.3-34.5-12.3-66-1.4-100.3c9.7-31,29.9-60.3,21.2-94.1
	c-5.1-20.2-20-37.3-38.6-46.6c-35.6-17.9-85.6,9.7-116.1-18.4c-9.8-9-15.2-21.7-21.4-33.5c-16-30.4-45.8-41.6-73.2-16.4
	c-18.4,16.9-27.4,42-38.8,63.7c-6.7,12.8-11.1,27.5-20.2,38.9c-18.8,23.7-48,35-66.5,60.3c-27.1,37.2-49.9,107.2-7,142.4
	c28.2,23.1,68.2,9.7,100.4,6.6c48.7-4.7,60.4,53.4,93.2,76.4C251.5,426.5,289.7,425.2,322.8,410.6z"/>
<g>
	<g>
		<defs>
			<rect id="SVGID_1_" x="35.7" y="19.7" width="389.5" height="385.8"/>
		</defs>
		<clipPath id="SVGID_2_">
			<use xlink:href="#SVGID_1_"  style="overflow:visible;"/>
		</clipPath>
		<g class="st3">
			<polygon class="st4" points="223.5,415.9 209.6,411.2 209.6,221.8 223.5,226.7 			"/>
			<polygon class="st5" points="223.5,220.4 255.9,212.3 255.9,410.1 223.5,415.9 			"/>
			<path class="st6" d="M173.1,110.4l123.3-5.9c62.9-4.4,57.1,65.3,57.1,95.5v31.6L216.8,252l-99.2-12.6v-33.1
				C123.3,183.5,101.8,110.4,173.1,110.4z"/>
			<path class="st7" d="M296.4,104.5l-123.3,5.9c-45,0-53.1,29-54.3,56.2c77.5-5.8,154.6-14.4,231.9-23.6
				C342.6,122.9,331.5,101.3,296.4,104.5z"/>
			<path class="st8" d="M118.8,166.6c-0.7,15.9,0.9,31.2-1.2,39.6v33.1l99.2,12.6l136.7-20.3V200c0-14,1.9-37-2.8-57
				C273.4,152.2,196.3,160.8,118.8,166.6z"/>
			<path class="st7" d="M218.8,251.8l-2.3-73.1c0,0,4.8-67.8-51.6-67.8c-53.3,0-49.2,53.1-49.2,61c0,7.8,0,67.1,0,67.1L218.8,251.8z
				"/>
			<g>
				<path class="st9" d="M219.7,251.2c-0.2-22.3,0.3-44.7-0.3-67c-0.5-20.9-0.5-44-16.8-59.6c-4-3.9-10.9-9.7-17-8.2
					c-1,0.3-1.2,3.3-0.1,3.6c2.5,0.7,4.9,1.3,7.2,2.4c2.9,1.3,5.5,3.3,7.8,5.3c4.5,3.9,8.1,8.6,10.6,14c4.5,9.6,5.1,20.5,5.6,30.9
					c1.1,24.8,0.4,49.6,1.4,74.3c0.1,1.4,0.1,2.8,0.2,4.2C218.4,252.8,219.7,252.7,219.7,251.2L219.7,251.2z"/>
			</g>
			<path class="st9" d="M353,148.6c-2.1-13.9-9.4-26.9-20.6-35.8c-7.9-6.3-17.8-9.4-27.7-10.3c-6.4-0.6-12.8,0.1-19.3,0.5
				c-8,0.5-16.1,0.8-24.2,1.1c-16.2,0.6-32.3,1.1-48.4,2.2c-21.7,1.5-48.8,2.9-61.6,23.2c-6.2,9.9-7.3,22.3-7.6,33.7
				c-0.2,10.2,0.6,20.5,0,30.7c-0.6,12.6-1,25.4,8.2,35.3c6.5,6.9,15.6,11,24.4,14.2c6.7,2.4,13.6,4,20.5,6c4.8,1.4,9.6,3,14.6,4
				c4,0.8,7.7,0.4,11.6-0.2c4.6-0.7,9.3-1.3,13.9-2c15.1-2.2,30.2-4.4,45.2-6.6c15.6-2.3,31.2-4.7,46.7-7.2
				c5.3-0.9,10.5-1.7,15.8-2.7c3.1-0.6,7.3-0.9,9.6-3.4c1-1.1,0.9-2.7,0.9-4.1c0.1-2,0.1-4,0.2-6c0.2-7.1,0.3-14.2,0.3-21.2
				C355.6,182.8,355.6,165.5,353,148.6z M352.9,226.4c0,0.5,0,1,0,1.5c0-0.9-0.3-0.6-1.2,0c-1.2,0.7-2,0.8-3.5,1.1
				c-4.2,0.9-8.4,1.6-12.6,2.3c-14.7,2.5-29.4,4.7-44,6.9c-24.1,3.6-48.3,7.4-72.5,10.6c-3.7,0.5-7.3-0.2-10.8-1
				c-5.7-1.4-11.3-3.3-17-4.8c-11.5-3.1-23.2-6.5-33-13.4c-5.6-3.9-9.9-9.2-11.7-15.8c-1.5-5.5-1.1-11.3-0.8-16.8
				c0.5-9.5,0.1-19,0.1-28.6c0-11.9,0.4-24.9,7-35.3c6.2-9.8,16.9-15.1,27.8-17.9c12-3,24.8-3.7,37.1-4.4
				c15.2-0.9,30.4-1.4,45.5-1.9c7.4-0.3,14.8-0.6,22.2-1c6.2-0.4,12.4-0.9,18.6-0.5c9.6,0.7,19,3.7,26.8,9.4c4.3,3.1,8,7,11.1,11.3
				c6.6,9.2,8.7,19.4,9.7,30.4c0.8,8.7,1.1,17.4,1.3,26.1C353.5,198.5,353.4,212.5,352.9,226.4z"/>
			<ellipse class="st10" cx="255.9" cy="188.9" rx="13.7" ry="13.5"/>
			<polygon class="st10" points="269.9,90.7 258.8,92.1 258.8,185.7 269.9,184.3 			"/>
			<ellipse class="st11" cx="258.8" cy="188.9" rx="13.7" ry="13.5"/>
			<ellipse class="st12" cx="252.1" cy="188.9" rx="5.5" ry="5.5"/>
			<g>
				<path class="st9" d="M311.4,187c0.3-0.1,0.7-0.5,1.3-1.2c1.6-2.1,4.5-2.9,7-3.3c3.5-0.5,7.3-0.3,10.6,0.8c1.6,0.5,3,2.2,4.5,2.7
					c1.1,0.4,3.4-0.2,1.8-1.9c-3.3-3.5-8.5-5.2-13.3-5.4s-8.5,1.6-11.5,5.1C310.7,185.1,310.4,187.3,311.4,187z"/>
			</g>
			<g>
				<path class="st9" d="M284.7,210.3c0.1,2.4,0.6,4.4,2.4,6.1c2,1.8,5.3,2.2,7.9,2.1c2.7-0.1,5-1.1,6.8-3c1.2-1.2,2-3,2.2-4.7
					c0.1-0.9,0-4.2-1.6-3.8c-0.5,0.1-0.4,1-0.3,1.3c0.4,1.6,0.4,2.5-0.6,3.9c-0.6,0.8-1.4,1.5-2.3,2c-1.4,0.9-3.1,1.2-4.7,1.3
					c-2.5,0.2-5.9-0.1-7.6-2.2c-0.5-0.7-0.8-1.8-0.9-2.6c-0.1-0.4,0-1-0.3-1.3C285,208.2,284.6,209.7,284.7,210.3z"/>
			</g>
			<path class="st10" d="M299.2,93.8l-40.4,2.9c0,0,0-16.4,0-19.5s1.6-4.7,5.5-5s34.9-2.5,34.9-2.5V93.8z"/>
			<path class="st13" d="M212.7,246.2l-0.3-67.3c0,0,4.4-62.2-47.3-62.2c-48.9,0-45.1,48.7-45.1,55.9s0,61.5,0,61.5L212.7,246.2z"/>
			<g>
				<path class="st14" d="M209.2,74.3c2,0.2,3.5,1.9,3.3,3.9l-7.8,100.9c-0.2,2-1.9,3.5-3.9,3.3l-60.3-4.6c-2-0.2-3.5-1.9-3.3-3.9
					L145,73c0.2-2,1.9-3.5,3.9-3.3L209.2,74.3z"/>
				<polygon class="st15" points="143.3,175.2 181.5,126.6 151.1,74.2 178.4,127.1 				"/>
			</g>
			<g>
				<path class="st16" d="M229.9,108c1.8,0.9,2.6,3,1.7,4.8L187.2,204c-0.9,1.8-3,2.5-4.9,1.7l-54.4-26c-1.8-0.9-2.6-3-1.7-4.8
					l44.4-91.1c0.9-1.8,3-2.5,4.9-1.7L229.9,108z"/>
				<polygon class="st15" points="131.4,178.1 184.9,146.7 175.8,86.9 181.8,146 				"/>
			</g>
			<g>
				<path class="st17" d="M86.2,132.6c0.5-1.9,2.5-3.1,4.4-2.6l98.8,25.9c1.9,0.5,3.1,2.5,2.6,4.4l-15.5,57.9
					c-0.5,1.9-2.5,3.1-4.4,2.6l-98.8-25.9c-1.9-0.5-3.1-2.5-2.6-4.4L86.2,132.6z"/>
				<polygon class="st15" points="174.4,215.1 133.1,169.1 75.6,189.2 133,172.2 				"/>
			</g>
			<g>
				<path class="st17" d="M230.1,179.4c1.9,0.7,3.1,2.2,2.6,3.4L209.9,245c-0.4,1.2-2.3,1.7-4.2,1l-56.8-20.5
					c-1.9-0.7-3.1-2.2-2.6-3.4l22.8-62.1c0.4-1.2,2.3-1.7,4.2-1L230.1,179.4z"/>
				<polygon class="st15" points="151.9,224.6 195.7,204.7 174.7,162.4 192.7,204.1 				"/>
			</g>
			<g>
				<path class="st18" d="M133.7,85.1c1.7-1,4-0.4,5,1.3l51.4,87.5c1,1.7,0.4,3.9-1.3,4.9l-52.2,30.1c-1.7,1-4,0.4-5-1.3l-51.4-87.5
					c-1-1.7-0.4-3.9,1.3-4.9L133.7,85.1z"/>
				<polygon class="st15" points="137.2,205.2 140.8,143.7 85.8,117.7 138.5,145.9 				"/>
			</g>
			<g>
				<path class="st9" d="M210.3,243.9c2.3-4.3,4-8.4,5.4-13c1.6-5.5,15.5-38.1,16.9-41c1.2-2.5,1.7-5.2,1-7.9c-0.8-3.1-4-4.8-6.7-6
					c-2.4-1-24.6-10.5-29.7-9.9c-1.5,0.2-2.3,3.9-0.9,4.2c10,1.9,19,6.5,27.9,9.5c4,1.4,7.2,2.5,5.9,7.3
					c-0.9,3.3-14.5,35.9-15.7,40.5c-1.2,4.5-2.2,10.1-5.2,13.9C208.4,242.5,209.4,245.5,210.3,243.9z"/>
			</g>
			<g>
				<path class="st9" d="M203.8,170.9c7.6-15.7,16.5-30.7,24-46.4c1.6-3.4,3.5-6.9,4.5-10.4c1.3-4.2-0.4-7.4-4.1-9.6
					c-5.1-2.9-10.4-5.6-15.7-8.2c-6.4-3.3-12.9-6.5-19.4-9.6c-5-2.4-10.1-4.9-15.3-6.7c-1.2-0.4-2.4-0.9-3.7-0.5
					c-4,1.4-6.1,6.2-7.8,9.7c-5.1,10.5-10.2,21-15.1,31.6c-0.6,1.2,0.5,5.6,1.6,3.3c3-6.4,6-12.9,9.1-19.3
					c2.7-5.6,5.1-11.6,8.4-16.8c1.6-2.5,3.6-4.6,6.6-3.6c2.5,0.8,5,1.9,7.4,3c14,6.2,27.7,13.1,41.2,20.4c2.8,1.5,5.5,2.5,4,5.9
					c-0.5,1.2-1,2.3-1.5,3.5c-2.7,5.9-5.6,11.6-8.5,17.3c-5.7,11.3-11.8,22.4-16.9,34C202.2,169.4,203,172.6,203.8,170.9z"/>
			</g>
			<g>
				<path class="st9" d="M114.8,204.6c-7.1-2.2-14.3-3.5-21.5-5.1c-4.2-0.9-8.4-1.9-12.5-3.3c-3-1.1-6.4-2.4-8.5-4.9
					c-0.8-1-0.6-2-0.5-3.3c0.2-2.5,0.6-5.1,1.1-7.6c1-5.3,2.4-10.4,3.8-15.6c1.7-6.3,3.1-12.5,5.2-18.7c1.1-3.3,2.3-6.7,3.5-10
					c0.6-1.6,1-3.2,1-5.2c0-0.4-0.7-3.2-1.5-1.8c-0.2,0.3-0.3,0.7-0.4,1.1c-0.1,0.5,0.5,4.3,1.3,2.8h-0.1c-0.4-1-0.8-2.1-1.2-3.1
					c-1,4.5-3.4,10.4-5.1,15.3c-2,6-3.4,12.2-5.1,18.3c-1.5,5.4-2.9,10.9-4,16.5c-0.7,4-1.9,9-0.5,13c2.3,6.5,11.9,8.5,17.7,9.9
					c8.1,2,16.4,2.8,24.5,4.7c0.7,0.2,1.4,0.4,2.1,0.7C115.8,208.9,116.2,205,114.8,204.6L114.8,204.6z"/>
			</g>
			<g>
				<path class="st9" d="M110.8,169.4c-3.7-11.6-10-21.4-17.4-30.9c-3.1-3.9-6-7.9-8.6-12.2c-1.5-2.6-4.5-7.1-2.5-10
					c2.5-3.7,7.5-5.9,11.4-7.8c4.3-2.1,8.7-3.8,12.9-5.9c2.7-1.3,5.2-2.9,7.9-4.2c2.8-1.4,5.7-2.6,8.4-4.3c2.3-1.4,4.6-2.9,7-4.1
					c1.8-0.9,4.1-2,6.1-1.4c2.5,0.8,4.5,3,6.1,5c2.4,2.9,4.4,6.3,6.2,9.6c3,5.5,6.1,11.8,7.4,17.9c0.7,3.1,2.8,0.9,2.3-1.3
					c-1.8-7.8-5.6-15.5-9.6-22.5c-2.8-4.9-8.4-15.2-15.5-13.4c-5,1.3-9.1,4.8-13.5,7.3c-3,1.7-6.3,3-9.4,4.6
					c-2.2,1.2-4.4,2.4-6.7,3.5c-4.6,2.1-9.2,4-13.7,6.4c-3.6,2-7.5,4.4-9.5,8.1s-0.5,8.5,1,12.1c2,4.8,5.2,9.2,8.3,13.3
					c2.8,3.8,5.9,7.5,8.7,11.3c4.5,6.3,8.3,13.3,11.4,20.4C110.3,172.4,111.1,170.3,110.8,169.4L110.8,169.4z"/>
			</g>
			<g>
				<path class="st9" d="M144.8,90.9c0-0.6,0.5-9.4,1-13.1c0.3-2,0.5-5.4,2.3-6.5c1.9-1.2,50.1,3,58.8,4.2c2.4,0.3,4.1,2,4.6,3.8
					c0.5,1.9-1.8,17.2-1.6,18.4c0.1,0.6,1.2,2.1,2.1,1.5c0.9-0.5,0.3-0.3,0.1-1.1c-0.2-1,2.5-16,1.6-20.6c-0.5-2.7-2.1-4.4-5-6
					c-2-1.1-17.6-2.2-32.1-3.3c-13.2-1-26-1.5-28.1-0.7c-2,0.8-2.9,1.3-3.9,3.3c-2.3,5-2.9,18.8-2.7,19.5
					C142.3,91.7,144.9,92.1,144.8,90.9z"/>
			</g>
			<g>
				<path class="st19" d="M216.5,252.2l-6.6-71c0,0-1-65.7-57.2-65.7c-53.1,0-44.4,51.4-43.7,59c0.7,7.6,5.8,64.9,5.8,64.9
					L216.5,252.2z"/>
				<path class="st8" d="M216.5,252.2l-6.6-71c0,0-1-65.7-57.2-65.7c-20,0-31.3,7.3-37.5,16.8c33.3,40,66.1,80.2,99.9,119.7
					L216.5,252.2z"/>
				<path class="st7" d="M115.2,132.4c-10.2,15.7-6.7,37.5-6.2,42.2c0.7,7.6,5.8,64.9,5.8,64.9l100.4,12.6
					C181.3,212.6,148.5,172.4,115.2,132.4z"/>
			</g>
			<path class="st9" d="M216.6,226.6c-0.1-6.6-0.9-13.2-1.7-19.7c-1.1-9.6-2.4-19.3-4.1-28.8c-1.4-8-2.9-16.2-5.7-23.9
				c-3.3-9.2-8-18.4-14.6-25.8c-6.5-7.4-15.1-12.2-24.8-14.3c-21.3-4.6-47.2,4.9-55.5,26c-4.2,10.7-3.7,22.9-2.9,34.2
				c0.5,7.2,1,14.4,1.5,21.6c0.5,7.5,1.1,15,1.7,22.5c0.4,4.2,0.7,8.4,1.2,12.6c0.3,2.7,0.9,7.3,2.1,8.7c1.3,1.4,2.8,1.7,4.1,2
				c10.6,2,88.8,11.1,97.1,11.9c1.1,0.1,1.5-1.7,1.5-2.4C216.6,243,216.7,234.8,216.6,226.6z M116.4,237.5
				c-2.1-0.3-7.8-73.3-6.8-83.3c0.6-6.5,2.5-12.7,6.3-18.1c3.3-4.6,7.7-8.3,12.5-11.3c18.6-11.2,44.6-9.4,59.9,6.4
				c12.9,13.3,17.2,31.8,20.1,49.3c2.1,13,3.7,26.1,4.8,39.2c0.7,9.6,0.3,19.3,0.3,28.9C189.7,246.5,118.9,237.8,116.4,237.5z"/>
			<g>
				<path class="st9" d="M222.2,253.1c0.1,31.4-0.7,62.9-0.8,94.4c0,13.2,0,26.4,0.2,39.6c0.1,7.4-0.1,15,0.9,22.3
					c0.1,0.5,0.6,2.2,1.5,1.6c0.9-0.5,0.9-2.1,0.7-3c-0.1-0.6-0.1-1.1-0.2-1.7c0.1,0.7,0-0.5,0-0.6c0-0.5-0.1-1-0.1-1.5
					c-0.1-2.3-0.2-4.6-0.3-6.9c-0.2-6.6-0.3-13.3-0.4-19.9c-0.2-17.9-0.2-35.8-0.2-53.7c0-23.5-0.1-47.1-0.1-70.6
					C223.4,251.4,222.2,251.4,222.2,253.1L222.2,253.1z"/>
			</g>
			<g>
				<path class="st9" d="M208.3,250.4c0,29.6-0.6,59.2-0.7,88.9c0,16.3-0.1,32.6,0.1,48.9c0,5.2,0.1,10.4,0.2,15.6
					c0,1.5,0.1,2.9,0.2,4.4c0.2,4,3,6,6.5,7.4c4.2,1.6,8.5,1.4,12.9,0.9c4.2-0.5,8.3-1.1,12.5-1.9c4.1-0.8,8.3-1.7,12.2-3.2
					c2.5-0.9,5.2-2.2,5.9-5c1.2-5,0.2-10.7,0.1-15.8c-0.1-5.5-0.2-11.1-0.3-16.6c-0.5-33.6-0.8-67.3-1-100.9
					c-0.1-8.5-0.1-17-0.1-25.5c0-0.6-0.2-2.4-1.1-2.4s-1,1.8-1,2.4c0,28.8,0.2,57.6,0.4,86.5c0.1,15.6,0.2,31.3,0.4,46.9
					c0.1,4.5,0.1,9,0.3,13.5c0.1,2.7,0.4,5.5,0.3,8.2c-0.1,1.5,0,1.8-1.3,2.6c-1.4,0.9-3,1.5-4.6,2c-7.8,2.7-16.4,3.8-24.6,4.6
					c-4.8,0.5-10.3,0.2-14.2-3c-0.3-0.3-0.6-0.6-0.8-0.9c0.2,0.3,0.1,0.9,0.1,0.4c0-0.3,0-0.5,0-0.8c0-0.7-0.1-1.4-0.1-2.2
					c-0.5-11.9-0.4-23.9-0.5-35.8c-0.1-34.1,0-68.1-0.1-102.2c0-5.7-0.1-11.3-0.1-17C209.7,248.4,208.3,248.5,208.3,250.4
					L208.3,250.4z"/>
			</g>
		</g>
	</g>
</g>
</svg>
