<svg id="Capa_1" enable-background="new 0 0 497 497" height="512" viewBox="0 0 497 497" width="512" xmlns="http://www.w3.org/2000/svg"><g><path d="m330.994 375.24v121.758h-195.524l-29.139-60.879 29.139-60.879z" fill="#f9ed80"/><path d="m135.47 375.24v121.758h-58.278c0-94.191 58.278-121.758 58.278-121.758z" fill="#da9d81"/><path d="m430.558 227.339c0-.002 0-.003 0-.005 0-28.835-5.884-56.327-16.512-81.325l-192.108-28.862-192.119 28.862c-10.617 24.998-16.502 52.49-16.502 81.325v.005z" fill="#5c586f"/><path d="m77.723 218.671c0-28.169 6.29-56.346 17.559-82.497l-65.463 9.834c-10.617 24.998-16.502 52.49-16.502 81.325v.005h64.616c-.132-2.873-.21-5.761-.21-8.667z" fill="#4f4c5f"/><circle cx="393.244" cy="227.339" fill="#c7856a" r="45.948"/><circle cx="221.934" cy="227.339" fill="#da9d81" r="171.309"/><path d="m208.714 398.145c-76.221-25.631-130.991-96.299-130.991-179.474 0-47.364 17.763-94.758 47.13-132.483-32.764 22.577-57.265 56.269-68.092 95.626-2.009-.269-4.054-.423-6.137-.423-25.377 0-45.948 20.571-45.948 45.948 0 25.376 20.572 45.948 45.948 45.948 2.078 0 4.118-.155 6.122-.424 18.816 68.422 78.996 119.713 151.968 125.282z" fill="#c7856a"/><path d="m354.972 57.859c-.342-.081-.685-.16-1.029-.236l-.114-.025-.006-.012c-15.096-31.911-50.41-48.964-84.788-40.945l-.064-.051c-27.466-22.126-66.639-22.119-94.096.017l-.042.034c-34.067-8.517-69.401 8.247-84.353 40.02l-.441.937-.127.028c-.344.076-.687.155-1.029.236-42.854 10.158-35.465 73.256 8.577 73.27l248.932-.017c44.042-.003 51.435-63.104 8.58-73.256z" fill="#5c586f"/><path d="m97.532 131.132c29.751-64.654 90.101-115.807 160.89-121.655-26.314-14.676-59.443-12.301-83.546 7.13l-.042.034c-34.067-8.517-69.401 8.247-84.353 40.02l-.441.937-.127.028c-.344.077-.687.155-1.029.236-42.854 10.159-35.465 73.256 8.577 73.27z" fill="#4f4c5f"/><path d="m414.045 146.009h-384.226c7.792-18.324 18.097-35.306 30.537-50.517h323.142c12.441 15.211 22.766 32.193 30.547 50.517z" fill="#f9ed80"/><path d="m231.556 378.768h198.87v40.182h-198.87z" fill="#c7c5cb"/><path d="m330.99 351.975c-21.147 0-38.289 17.143-38.289 38.289v68.446c0 21.147 17.143 38.289 38.289 38.289 21.147 0 38.289-17.143 38.289-38.289v-68.446c.001-21.146-17.142-38.289-38.289-38.289z" fill="#da9d81"/><path d="m472.232 378.768h-41.807v40.182h41.807c11.096 0 20.091-8.995 20.091-20.091 0-11.096-8.995-20.091-20.091-20.091z" fill="#c7c5cb"/><path d="m430.425 332.163c-13.396 0-24.256 10.86-24.256 24.256v84.88c0 13.396 10.86 24.256 24.256 24.256 13.396 0 24.256-10.86 24.256-24.256v-84.88c0-13.397-10.86-24.256-24.256-24.256z" fill="#5c586f"/><path d="m189.748 378.768h41.807v40.182h-41.807c-11.096 0-20.091-8.995-20.091-20.091 0-11.096 8.995-20.091 20.091-20.091z" fill="#c7c5cb"/><path d="m231.555 332.163c13.396 0 24.256 10.86 24.256 24.256v84.88c0 13.396-10.86 24.256-24.256 24.256-13.396 0-24.256-10.86-24.256-24.256v-84.88c0-13.397 10.86-24.256 24.256-24.256z" fill="#5c586f"/><ellipse cx="114.291" cy="259.744" fill="#fff" rx="39.716" ry="31.628"/><ellipse cx="329.564" cy="259.744" fill="#fff" rx="39.716" ry="31.628"/><ellipse cx="221.928" cy="235.443" fill="#423e4f" rx="21.082" ry="23.591"/><g><path d="m159.859 228.829c-4.142 0-7.5-3.358-7.5-7.5 0-5.608-4.563-10.171-10.171-10.171s-10.17 4.563-10.17 10.171c0 4.142-3.358 7.5-7.5 7.5s-7.5-3.358-7.5-7.5c0-13.879 11.291-25.171 25.17-25.171s25.171 11.291 25.171 25.171c0 4.142-3.358 7.5-7.5 7.5z" fill="#423e4f"/></g><g><path d="m317.815 228.829c-4.142 0-7.5-3.358-7.5-7.5 0-5.608-4.563-10.171-10.171-10.171s-10.17 4.563-10.17 10.171c0 4.142-3.358 7.5-7.5 7.5s-7.5-3.358-7.5-7.5c0-13.879 11.291-25.171 25.17-25.171s25.171 11.291 25.171 25.171c0 4.142-3.358 7.5-7.5 7.5z" fill="#423e4f"/></g><path d="m117.994 95.492h-57.638c-12.44 15.211-22.745 32.193-30.537 50.517h61.492c6.709-17.844 15.738-34.883 26.683-50.517z" fill="#f8d070"/><path d="m312.315 423.057c0-27.841 10.253-52.885 26.587-70.259-2.553-.537-5.199-.823-7.911-.823-21.147 0-38.289 17.143-38.289 38.29v68.446c0 21.147 17.143 38.29 38.289 38.29 3.523 0 6.93-.485 10.17-1.376-17.641-17.426-28.846-43.466-28.846-72.568z" fill="#c7856a"/></g></svg>