<?xml version="1.0" encoding="utf-8"?>
<!-- Generator: Adobe Illustrator 24.1.0, SVG Export Plug-In . SVG Version: 6.00 Build 0)  -->
<svg version="1.1" id="Capa_1" xmlns="http://www.w3.org/2000/svg" xmlns:xlink="http://www.w3.org/1999/xlink" x="0px" y="0px"
	width="100%" height="100%"  viewBox="0 0 425.2 425.2" style="enable-background:new 0 0 425.2 425.2;" xml:space="preserve">
<style type="text/css">

	#drinkBase:hover ~ #drinkFace1 {display: none;}
	#drinkBase:hover ~ #drinkFace2 {display: block;}
	#drinkFace2:hover ~ #drinkFace1 {display: none;}
	#drinkFace2:hover {display: block;}

	#cakeBase:hover ~ #cakeFace1 {display: none;}
	#cakeBase:hover ~ #cakeFace2 {display: block;}
	#cakeFace2:hover ~ #cakeFace1 {display: none;}
	#cakeFace2:hover {display: block;}


	#cookieBase:hover ~ #cookieFace1 {display: none;}
	#cookieBase:hover ~ #cookieFace2 {display: block;}
	#cookieFace2:hover ~ #cookieFace1 {display: none;}
	#cookieFace2:hover {display: block;}

	.st0{fill:#FFFFFF;}
	.st1{opacity:0.5;fill:#F08AB7;enable-background:new    ;}
	.st2{fill:#8AD0E5;}
	.st3{fill:#432918;}
	.st4{fill:#BAE3FA;}
	.st5{fill:#FFD651;}
	.st6{fill:#F9B54D;}
	.st7{fill:#DADADA;}
	.st8{fill:#466B76;}
	.st9{opacity:0.6;}
	.st10{opacity:0.9;}
	.st11{display:none;}
	.st12{display:inline;}
	.st13{fill:none;stroke:#1E1E1C;stroke-width:2.48;stroke-linecap:round;stroke-linejoin:round;}
	.st14{fill:#D95F81;}
	.st15{fill:none;stroke:#1E1E1C;stroke-width:1.53;stroke-linecap:round;stroke-linejoin:round;}
	.st16{fill:none;stroke:#1E1E1C;stroke-width:1.97;stroke-linecap:round;stroke-linejoin:round;}
	.st17{fill:#ED6F81;}
	.st18{fill:none;stroke:#432918;stroke-width:1.3433;stroke-linecap:round;stroke-linejoin:round;stroke-miterlimit:10;}
	.st19{fill:#FBCB6D;}
	.st20{fill:#7D4E24;}
	.st21{fill:#CA9E67;}
	.st22{fill:#E84242;}
	.st23{fill:none;stroke:#432918;stroke-width:1.4563;stroke-linecap:round;stroke-linejoin:round;stroke-miterlimit:10;}
	.st24{fill:#E74242;}
	.st25{fill:#422918;}
	.st26{display:inline;fill:#FFFFFF;}
	.st27{fill:#EC6F80;}
	.st28{fill:none;stroke:#422918;stroke-width:2.079;stroke-linecap:round;stroke-linejoin:round;stroke-miterlimit:10;}
	.st29{fill:#F59C43;}
	.st30{opacity:0.7;}
	.st31{fill:#FFFDE8;}
	.st32{fill:#EEE9C9;}
	.st33{fill:#F08AB7;}
	.st34{fill:#EB5B9C;}
	.st35{fill:#F9D1AD;}
	.st36{fill:none;}
	.st37{fill:none;stroke:#432918;stroke-width:1.9561;stroke-linecap:round;stroke-linejoin:round;stroke-miterlimit:10;}
	.st38{fill:none;stroke:#432918;stroke-width:2.08;stroke-linecap:round;stroke-linejoin:round;}
	.st39{fill:none;stroke:#432918;stroke-width:1.56;stroke-linecap:round;stroke-linejoin:round;}
</style>
<g id="background">
	<rect class="st0" width="425.2" height="425.2"/>
	<path class="st1" d="M361.3,233.4c-1,0-2.1-0.1-3.1-0.2v0.2h-26.4c9.5,1.7,16.7,10,16.7,20c0,7-3.6,13.2-9,16.9h20.2v0.1
		c0.9-0.1,1.8-0.1,2.7-0.1c13.8,0,25,11.2,25,25c0,9.9-5.7,18.4-14,22.5c12.1,3.2,21.1,14.2,21.1,27.4c0,15.6-12.7,28.3-28.3,28.3
		c-1,0-2.1-0.1-3.1-0.2v0.2H63.9c-15.6,0-28.3-12.7-28.3-28.3c0-15.6,12.7-28.3,28.3-28.3h18.7c-7.3-4.4-12.3-12.4-12.3-21.5
		c0-9.2,5-17.2,12.4-21.6H56.4c-11.2,0-20.3-9.1-20.3-20.3c0-10.8,8.4-19.5,19-20.2c-13.8-1.9-24.4-13.7-24.4-28.1
		c0-15.6,12.7-28.3,28.3-28.3h24.4c-11.3-2.4-19.8-12.4-19.8-24.5c0-10.7,6.7-19.8,16.1-23.4H56.4c-11.2,0-20.3-9.1-20.3-20.3
		s9.1-20.3,20.3-20.3h45.2c-4.9-3.7-8.1-9.6-8.1-16.2c0-11.2,9.1-20.3,20.3-20.3h214.4V52c0.7-0.1,1.5-0.1,2.2-0.1
		c11.2,0,20.3,9.1,20.3,20.3s-9.1,20.3-20.3,20.3c-0.7,0-1.5,0-2.2-0.1v0.1h-43c4.9,3.7,8.1,9.6,8.1,16.2c0,8.4-5.1,15.5-12.3,18.6
		h72v0.2c0.9-0.1,1.8-0.2,2.7-0.2c13.8,0,25,11.2,25,25c0,12-8.5,22.1-19.8,24.5c0.1,0,0.3,0,0.4,0c15.6,0,28.3,12.7,28.3,28.3
		C389.7,220.7,377,233.4,361.3,233.4z"/>
</g>
<g id="drink">
	<g id="drinkBase">
		<g>
			<g>
				<path class="st2" d="M115.6,307.7c-9.6,0-18.1-2-19.2-4.6L36,155.2c-1.1-2.5-1.2-5.4-0.1-7.8c1.1-2.3,3-4,5.5-4.7l98.4-29.4
					c0.9-0.3,1.8-0.4,2.6-0.4c4.4,0,8,3.2,8.8,7.9l30.6,156.7c0.7,4.1-13.7,18.4-38.8,25.9C133.4,306.2,124.2,307.7,115.6,307.7z"/>
				<path class="st3" d="M142.5,114.4c3.6,0,6.7,2.6,7.3,6.6l30.6,156.7c0.4,2.4-12.3,16.6-37.8,24.2c-10.7,3.2-19.8,4.3-27,4.3
					c-10.9,0-17.3-2.4-17.9-3.8L37.4,154.6c-2-4.5,0-9.2,4.5-10.5l98.4-29.4C141,114.5,141.7,114.4,142.5,114.4 M142.5,111.4
					c-1,0-2,0.2-3.1,0.5L41,141.3c-2.9,0.9-5.2,2.8-6.4,5.5c-1.3,2.8-1.2,6,0.1,9L95,303.6l0,0l0,0c1.7,3.8,11.9,5.5,20.6,5.5
					s18.1-1.5,27.8-4.4c14.2-4.2,23.9-10.2,29.5-14.5c2.6-2,11-8.7,10.3-13l0,0l0,0l-30.6-156.7
					C151.8,115.2,147.6,111.4,142.5,111.4L142.5,111.4z"/>
			</g>
		</g>
		<g>
			<g>
				<path class="st4" d="M140.3,114.7l-3.1,0.9L167.6,271c0.4,2.4-12.3,16.6-37.8,24.2c-14.2,4.2-25.6,4.7-33.4,3.9l1.4,3.3
					c1,2.2,18.2,7.5,44.9-0.5c25.5-7.6,38.2-21.8,37.8-24.2L149.8,121C149,116.2,144.7,113.4,140.3,114.7z"/>
			</g>
		</g>
		<g>
			<g>
				<path class="st5" d="M43.4,166.3c-7.9,0-12.1-1.5-13-4.5l-3.6-11.9c-0.1-0.4-0.1-0.8,0.1-1.1s0.5-0.6,0.9-0.7l126.4-37.7
					c0.1,0,0.3-0.1,0.4-0.1c0.6,0,1.2,0.4,1.4,1.1l3.6,11.9c1.2,4.1-4.4,9.3-16.7,15.7c-11.3,5.9-26.9,11.9-43.9,16.9
					C77,162.4,56.3,166.3,43.4,166.3L43.4,166.3z"/>
				<path class="st3" d="M154.6,111.7l3.6,11.9c2,6.6-24.7,20.4-59.6,30.8c-22.5,6.7-42.9,10.4-55.1,10.4c-6.7,0-10.9-1.1-11.6-3.5
					l-3.6-11.9L154.6,111.7 M154.6,108.7c-0.3,0-0.6,0-0.8,0.1L27.4,146.6c-0.8,0.2-1.4,0.7-1.8,1.4s-0.5,1.5-0.2,2.3l3.6,11.9
					c1.5,5,9,5.6,14.5,5.6c13,0,33.9-3.9,56-10.5c17-5.1,32.7-11.1,44.1-17c13.4-6.9,18.9-12.5,17.5-17.4l-3.6-11.9
					C157,109.5,155.9,108.7,154.6,108.7L154.6,108.7z"/>
			</g>
		</g>
		<g>
			<g>
				<path class="st6" d="M39.9,154.4c-7.9,0-12.1-1.5-13-4.5c-1.2-4.1,4.4-9.3,16.7-15.7c11.3-5.9,26.9-11.9,43.9-16.9
					c21.9-6.6,42.7-10.5,55.5-10.5c7.9,0,12.1,1.5,13,4.5c1.2,4.1-4.4,9.3-16.7,15.7c-11.3,5.9-26.9,11.9-43.9,16.9
					C73.5,150.4,52.7,154.4,39.9,154.4z"/>
				<path class="st3" d="M143,108.2c6.7,0,10.9,1.1,11.6,3.5c2,6.6-24.7,20.4-59.6,30.8c-22.5,6.7-42.9,10.4-55.1,10.4
					c-6.7,0-10.9-1.1-11.6-3.5c-2-6.6,24.7-20.4,59.6-30.8C110.3,111.9,130.8,108.2,143,108.2 M143,105.3v3V105.3L143,105.3
					c-13,0-33.9,3.9-56,10.5c-17,5.1-32.7,11.1-44.1,17c-13.4,6.9-18.9,12.5-17.5,17.4c1.5,5,9,5.6,14.5,5.6c13,0,33.9-3.9,56-10.5
					c17-5.1,32.7-11.1,44.1-17c13.4-6.9,18.9-12.5,17.5-17.4C155.9,105.8,148.5,105.3,143,105.3L143,105.3z"/>
			</g>
		</g>
		<g>
			<g>
				<path class="st6" d="M46.5,148.7c-4.5,0-6.9-0.8-7.4-2.6c-0.5-1.7,0.4-4.8,14-11.2c9.3-4.4,22-9,35.7-13.1
					c19.7-5.9,37.8-9.5,47.5-9.5c4.5,0,6.9,0.8,7.4,2.6c2,6.9-31.6,18.9-49.7,24.3C74.3,145.1,56.1,148.7,46.5,148.7z"/>
				<path class="st3" d="M136.3,113.4c3.7,0,6,0.6,6.4,1.8c1.3,4.2-20.7,14.5-49,23c-20.1,6-38,9.5-47.2,9.5c-3.7,0-6-0.6-6.4-1.8
					c-1.3-4.2,20.7-14.5,49-23C109.2,116.9,127.1,113.4,136.3,113.4 M136.3,111.3L136.3,111.3c-9.7,0-28,3.7-47.8,9.6
					C74.7,125,62,129.7,52.6,134c-14.1,6.6-15.3,10-14.5,12.4c0.9,2.9,5,3.3,8.4,3.3c9.7,0,28-3.7,47.8-9.6
					c13.8-4.1,26.5-8.8,35.9-13.2c14.1-6.6,15.3-10,14.5-12.4C143.8,111.7,139.8,111.3,136.3,111.3L136.3,111.3z"/>
			</g>
		</g>
		<g>
			<g>
				<g>
					<g>
						<path class="st0" d="M88.4,139.3c-0.7,0-1.4-0.5-1.5-1.3L71.5,63.6c-0.1-0.3-0.1-0.7-0.1-0.9c-1-2.8-0.2-6,2-8l41.8-38.1
							c0.3-0.3,0.7-0.4,1.1-0.4c0.3,0,0.6,0.1,0.8,0.2c0.6,0.4,0.9,1.1,0.7,1.8c0,0-0.8,2.9,0.7,4.6c1.4,1.6,4.6,2.1,5.7,2.1
							c0.6,0,1.2,0.4,1.4,1c0.2,0.6,0,1.3-0.4,1.7L86.6,62.8l14.9,72.2c0.2,0.8-0.3,1.6-1.1,1.8c-1.8,0.5-3.8,1-5.8,1.4
							c-2.1,0.4-4.1,0.8-5.9,1C88.5,139.3,88.5,139.3,88.4,139.3z"/>
						<g>
							<path class="st3" d="M116.3,17.7L116.3,17.7 M116.3,17.7c0,0-1.1,3.7,1,6.1c2.2,2.4,6.8,2.6,6.8,2.6L84.9,62.3l14.5,70.6
								l0.5,2.5c-1.6,0.5-3.6,1-5.7,1.4s-4.1,0.8-5.8,1l-0.5-2.5l-14.8-72C73,63,73,62.7,73,62.4c-0.9-2.2-0.4-4.9,1.5-6.5
								L116.3,17.7 M116.3,14.6c-0.7,0-1.4,0.2-2,0.7l-0.1,0.1L72.4,53.5c-2.6,2.4-3.6,6.1-2.5,9.5c0,0.3,0.1,0.6,0.1,0.9l14.8,72
								l0.5,2.5c0.3,1.5,1.6,2.5,3.1,2.5c0.1,0,0.3,0,0.4,0c1.9-0.2,4-0.6,6.1-1s4.2-0.9,6-1.5c1.6-0.5,2.5-2,2.2-3.6l-0.5-2.5
								L88.3,63.4l38-34.6c0.9-0.9,1.3-2.2,0.8-3.4c-0.4-1.2-1.5-2-2.8-2.1c-1.4-0.1-3.8-0.6-4.7-1.6c-0.7-0.8-0.5-2.4-0.4-3
								c0-0.1,0.1-0.2,0.1-0.4c0.3-1.3-0.3-2.6-1.4-3.3C117.5,14.7,116.9,14.6,116.3,14.6L116.3,14.6z"/>
						</g>
					</g>
				</g>
			</g>
			<g>
				<g>
					<g>
						<path class="st4" d="M98,127.7c-0.1,0-0.1,0-0.2,0c-4.6-0.6-8.9-1.6-13-3.1c-0.5-0.2-0.9-0.6-1-1.2l-3.1-15.1
							c-0.1-0.6,0.1-1.2,0.6-1.6c0.3-0.2,0.6-0.3,0.9-0.3s0.5,0.1,0.8,0.2c4.1,2.3,8.3,3.9,12.6,4.8c0.6,0.1,1.1,0.6,1.2,1.2
							l2.7,13.1c0.1,0.5,0,1-0.4,1.4C98.9,127.5,98.4,127.7,98,127.7z"/>
						<g>
							<path class="st3" d="M82.3,108c4.2,2.4,8.6,4.1,13,5l2.7,13.1c-4.4-0.5-8.6-1.5-12.6-3L82.3,108 M82.3,104.9
								c-0.7,0-1.3,0.2-1.8,0.6c-1,0.7-1.5,2-1.2,3.2l3.1,15.1c0.2,1.1,1,1.9,2,2.3c4.2,1.5,8.6,2.6,13.3,3.2c0.1,0,0.3,0,0.4,0
								c0.9,0,1.7-0.4,2.3-1c0.7-0.7,1-1.8,0.8-2.8l-2.7-13.1c-0.3-1.2-1.2-2.2-2.4-2.4c-4.1-0.8-8.2-2.4-12.1-4.6
								C83.3,105,82.8,104.9,82.3,104.9L82.3,104.9z"/>
						</g>
					</g>
				</g>
				<g>
					<g>
						<path class="st4" d="M92,98.5c-0.2,0-0.4,0-0.5-0.1c-4.4-1.6-8.9-4.4-14.2-8.9c-0.3-0.2-0.5-0.5-0.5-0.9l-3-14.6
							c-0.1-0.6,0.1-1.2,0.6-1.6c0.3-0.2,0.6-0.3,0.9-0.3s0.6,0.1,0.8,0.2c4.2,2.6,8.4,4.4,12.7,5.3c0.6,0.1,1.1,0.6,1.2,1.2
							l3.6,17.7c0.1,0.6-0.1,1.1-0.5,1.5C92.7,98.3,92.4,98.5,92,98.5z"/>
						<g>
							<path class="st3" d="M75.2,73.7c4.1,2.5,8.5,4.5,13.1,5.5L92,96.9c-4.9-1.8-9.5-5-13.8-8.6L75.2,73.7 M75.2,70.5
								c-0.6,0-1.3,0.2-1.8,0.6c-1,0.7-1.5,2-1.3,3.2l3,14.6c0.1,0.7,0.5,1.3,1.1,1.8c5.4,4.5,10.1,7.4,14.7,9.1
								c0.4,0.1,0.7,0.2,1.1,0.2c0.7,0,1.5-0.3,2-0.8c0.9-0.7,1.3-1.9,1-3l-3.6-17.7c-0.2-1.2-1.2-2.2-2.4-2.4
								c-4.1-0.9-8.2-2.6-12.2-5.1C76.4,70.7,75.8,70.5,75.2,70.5L75.2,70.5z"/>
						</g>
					</g>
				</g>
				<g>
					<g>
						<path class="st4" d="M90.6,58.6c-0.4,0-0.8-0.2-1.1-0.5c-2.8-3.1-5.2-6.4-7.1-10c-0.3-0.6-0.2-1.4,0.3-1.9l12-10.9
							c0.3-0.3,0.7-0.4,1.1-0.4c0.1,0,0.3,0,0.4,0c0.5,0.1,0.9,0.5,1.1,1c1.3,3.8,3,7.5,5,11c0.4,0.6,0.2,1.4-0.3,1.9l-10.2,9.3
							C91.4,58.4,91,58.6,90.6,58.6L90.6,58.6z"/>
						<g>
							<path class="st3" d="M95.8,36.4c1.3,3.9,3,7.7,5.1,11.3L90.6,57c-2.7-3-5-6.2-6.9-9.7L95.8,36.4 M95.8,33.3
								c-0.8,0-1.5,0.3-2.1,0.8L81.7,45c-1.1,1-1.3,2.6-0.6,3.8c2,3.6,4.4,7.1,7.3,10.2c0.6,0.6,1.3,1,2.2,1c0.1,0,0.1,0,0.2,0
								c0.8,0,1.5-0.3,2.1-0.8L103,50c1.1-1,1.3-2.6,0.6-3.9c-2-3.4-3.6-7-4.8-10.7c-0.3-1-1.2-1.8-2.2-2
								C96.3,33.3,96,33.3,95.8,33.3L95.8,33.3z"/>
						</g>
					</g>
				</g>
			</g>
			<g>
				<g>
					<g>
						<path class="st7" d="M119.2,25.2l-40.6,37L94,136.8c0.1,0,0.2,0,0.2,0c2.1-0.4,4.1-0.9,5.7-1.4l-0.5-2.5L84.9,62.3l39.3-35.8
							C124.2,26.5,121.5,26.3,119.2,25.2z"/>
					</g>
				</g>
			</g>
			<g>
				<g>
					<path class="st8" d="M122.6,28.5c-1.9,0-4.2-1.5-5.9-3.9c-2.5-3.4-2.9-6.9-0.9-8.4c0.5-0.4,1.2-0.6,1.9-0.6
						c1.9,0,4.2,1.5,5.9,3.9c1,1.4,1.8,2.9,2,4.3c0.5,2.5-0.5,3.6-1.2,4.1C123.9,28.3,123.3,28.5,122.6,28.5z"/>
					<path class="st3" d="M117.7,17.2c1.3,0,3.1,1.2,4.6,3.2c1.8,2.5,2.4,5.2,1.2,6.1c-0.2,0.2-0.5,0.3-0.9,0.3
						c-1.3,0-3.1-1.2-4.6-3.2c-1.8-2.5-2.4-5.2-1.2-6.1C117,17.3,117.3,17.2,117.7,17.2 M117.7,13.9L117.7,13.9
						c-1.1,0-2.1,0.3-2.9,0.9c-2.8,2.1-2.6,6.5,0.5,10.8c2.1,2.9,4.8,4.6,7.3,4.6c1.1,0,2.1-0.3,2.9-0.9c1.6-1.2,2.3-3.3,1.8-5.8
						c-0.3-1.6-1.1-3.4-2.3-5C122.8,15.6,120.1,13.9,117.7,13.9L117.7,13.9z"/>
				</g>
			</g>
		</g>
		<g class="st9">
			<g>
				<path class="st0" d="M53.9,183.6c7.5,18.4,15,36.7,22.5,55.1c1.8,4.5,9.4,2.3,7.5-2.2c-7.5-18.4-15-36.7-22.5-55.1
					C59.6,176.9,52,179.1,53.9,183.6L53.9,183.6z"/>
			</g>
			<g>
				<path class="st0" d="M86.3,254.9c4.8-1.4,2.7-8.8-2.2-7.3C79.3,249,81.5,256.3,86.3,254.9L86.3,254.9z"/>
			</g>
		</g>
		<g>
			<g>
				<path class="st3" d="M97.5,76.9c38.7,0,48.1,35.8,48.1,35.8c1.4,4.8-21.9,16-52.1,25c-20.9,6.3-39.7,9.8-49.7,9.8
					c-4.4,0-7.1-0.7-7.6-2.2c0,0-15.4-48.8,38-64.8C83,78,90.7,76.9,97.5,76.9 M97.5,73.7c-7.5,0-15.6,1.3-24.1,3.8
					C56,82.8,43.8,91.9,37,104.7c-10.4,19.7-4,40.8-3.7,41.7c1.2,3.9,6.2,4.4,10.6,4.4c10.6,0,30-3.8,50.6-10
					c14.7-4.4,28.4-9.5,38.3-14.3c12.3-5.9,17.1-10.3,15.8-14.6c-0.2-0.8-2.8-9.9-10.1-19C131.5,84.1,118.7,73.7,97.5,73.7
					L97.5,73.7z"/>
			</g>
		</g>
		<g>
			<g class="st10">
				<path class="st4" d="M36.3,145.4c1.4,4.8,27.1,1.4,57.2-7.7c30.2-9,53.5-20.2,52.1-25c0,0-13-49.5-71.3-32.1
					C20.9,96.5,36.3,145.4,36.3,145.4z"/>
			</g>
		</g>
	</g>
	<g id="drinkFace2" class="st11">
		<g id="Capa_1_1_" class="st12">
			<path class="st3" d="M104.5,222.7c1.7,5.8,0.5,11.3-2.7,12.2c-3.2,1-7.3-2.9-9-8.7s-0.5-11.3,2.8-12.2
				C98.7,212.9,102.7,216.8,104.5,222.7z"/>
			<path class="st13" d="M133.5,218.5c-1.7-5.8-0.5-11.3,2.8-12.2c3.2-1,7.3,2.9,9,8.7"/>
			<path class="st0" d="M102,219c0.7,2.5,0.2,4.8-1.1,5.3c-1.4,0.4-3.1-1.3-3.8-3.8c-0.7-2.5-0.2-4.8,1.1-5.2
				C99.5,214.8,101.2,216.5,102,219z"/>
			<path class="st0" d="M96.9,223.7c0.3,0.9,0.1,1.8-0.4,1.9c-0.5,0.1-1.1-0.5-1.4-1.4s-0.1-1.8,0.4-1.9
				C96,222.1,96.7,222.8,96.9,223.7z"/>
			<path class="st0" d="M100.8,226.8c0.3,0.9,0.1,1.8-0.4,1.9c-0.5,0.1-1.1-0.5-1.4-1.4s-0.1-1.8,0.4-1.9
				C100,225.3,100.6,225.9,100.8,226.8z"/>
			<path class="st14" d="M104.4,236.2c0.3,1.1-1.6,2.7-4.3,3.5c-2.7,0.8-5.2,0.6-5.5-0.6c-0.3-1.1,1.6-2.7,4.3-3.5
				C101.6,234.8,104,235.1,104.4,236.2z"/>
			<path class="st14" d="M149.1,222.9c0.3,1.1-1.6,2.7-4.3,3.5s-5.2,0.6-5.5-0.6c-0.3-1.1,1.6-2.7,4.3-3.5
				C146.3,221.5,148.8,221.8,149.1,222.9z"/>
			<path class="st15" d="M92.9,208.6c0,0-5.2,0.5-5,5.5"/>
			<path class="st15" d="M133.8,196.5c0,0,4.6-2.4,7.2,1.9"/>
			<path class="st16" d="M127.8,231.2c1.1,3.6-0.5,7.2-3.5,8.1c-3,0.9-6.3-1.3-7.3-4.9"/>
		</g>
	</g>
	<g id="drinkFace1">
		<g>
			<g>
				<path class="st3" d="M108.5,227.8c1.2,4-1.1,8.1-5,9.3c-4,1.2-8.1-1.1-9.3-5c-1.2-4,1.1-8.1,5-9.3S107.3,223.9,108.5,227.8z"/>
				<path class="st0" d="M99.5,227.2c0.4,1.3-0.3,2.6-1.6,3c-1.3,0.4-2.6-0.3-3-1.6s0.3-2.6,1.6-3C97.8,225.2,99.1,225.9,99.5,227.2
					z"/>
				<path class="st0" d="M100.4,230.7c0.1,0.5-0.1,1-0.6,1.1s-1-0.1-1.1-0.6s0.1-1,0.6-1.1C99.7,230,100.2,230.2,100.4,230.7z"/>
				<path class="st0" d="M101.3,227.9c0.1,0.3-0.1,0.6-0.4,0.7c-0.3,0.1-0.6-0.1-0.7-0.4c-0.1-0.3,0.1-0.6,0.4-0.7
					C100.9,227.5,101.2,227.6,101.3,227.9z"/>
				<path class="st17" d="M105.9,236.4c0.3,0.9-2.3,2.4-5.8,3.5c-3.5,1-6.5,1.2-6.8,0.3s2.3-2.4,5.8-3.5
					C102.6,235.6,105.7,235.5,105.9,236.4z"/>
			</g>
			<g>
				<path class="st3" d="M146.4,216.5c1.2,4-1.1,8.1-5,9.3c-4,1.2-8.1-1.1-9.3-5c-1.2-4,1.1-8.1,5-9.3
					C141,210.3,145.2,212.5,146.4,216.5z"/>
				<path class="st0" d="M137.4,215.8c0.4,1.3-0.3,2.6-1.6,3s-2.6-0.3-3-1.6s0.3-2.6,1.6-3C135.7,213.9,137,214.6,137.4,215.8z"/>
				<path class="st0" d="M138.3,219.4c0.1,0.5-0.1,1-0.6,1.1s-1-0.1-1.1-0.6s0.1-1,0.6-1.1C137.6,218.6,138.1,218.9,138.3,219.4z"/>
				<path class="st0" d="M139.2,216.6c0.1,0.3-0.1,0.6-0.4,0.7c-0.3,0.1-0.6-0.1-0.7-0.4c-0.1-0.3,0.1-0.6,0.4-0.7
					C138.8,216.1,139.1,216.3,139.2,216.6z"/>
				<path class="st17" d="M151.1,222.9c0.3,0.9-2.3,2.4-5.8,3.5c-3.5,1-6.5,1.2-6.8,0.3s2.3-2.4,5.8-3.5
					C147.8,222.1,150.9,222,151.1,222.9z"/>
			</g>
		</g>
		<g>
			<path class="st18" d="M133.3,207c0,0,5.1-3.9,10.7-0.4"/>
			<path class="st18" d="M99.5,217.1c0,0-6.4-0.4-9.2,5.5"/>
		</g>
		<g>
			<g>
				<g>
					<path class="st17" d="M122.9,237.8c-1.5,0-2.7-0.9-3.4-2.7c-1.3-3.4-1.5-5.1-0.5-5.7c0.7-0.4,1.9-0.8,2.9-1
						c0.3-0.1,0.6-0.2,0.8-0.2c0.3-0.1,0.6-0.1,0.8-0.1c1.2,0,1.5,1,1.7,1.8c0.1,0.2,0.1,0.4,0.2,0.6l0.1,0.3
						c0.5,1.5,1.3,3.6,0.5,5.2c-0.4,0.8-1.1,1.3-2.1,1.6C123.7,237.8,123.3,237.8,122.9,237.8z"/>
					<path class="st3" d="M123.6,228.7c0.9,0,0.9,0.9,1.3,2c0.7,2,2.1,5.3-1,6.3c-0.3,0.1-0.6,0.1-0.9,0.1c-1.3,0-2.2-0.8-2.8-2.2
						c-0.3-0.7-1.7-4.3-0.7-4.9c0.8-0.5,2.6-0.9,3.5-1.2C123.2,228.8,123.4,228.7,123.6,228.7 M123.6,227.4c-0.3,0-0.6,0.1-1,0.2
						c-0.2,0.1-0.5,0.1-0.8,0.2c-1.1,0.3-2.3,0.6-3.1,1.1c-1.7,1-0.9,3.7,0.2,6.5v0.1c0.8,2,2.2,3.1,4,3.1c0.4,0,0.9-0.1,1.3-0.2
						c1.2-0.4,2-1,2.5-1.9c0.9-1.8,0.1-4.1-0.5-5.7l-0.1-0.3c-0.1-0.2-0.1-0.4-0.2-0.6C125.7,228.9,125.3,227.4,123.6,227.4
						L123.6,227.4z"/>
				</g>
			</g>
			<g>
				<path class="st18" d="M116.5,229.7c0.1,0.2,9.6-2.6,9.6-2.8"/>
			</g>
			<line class="st18" x1="121.7" y1="229.6" x2="122.7" y2="233.1"/>
		</g>
	</g>
</g>
<g id="cookie">
	<g id="cookieBase">
		<g>
			<g>
				<path class="st19" d="M274.7,267.7c-0.4,0-0.8,0-1.2,0c-6.2-0.1-12.4-0.9-18.4-2.4c-6.4-1.6-12.4-3.9-17.9-6.8
					c-3.8-2.1-7.4-4.5-10.7-7.2c-3.4-2.8-6.5-5.9-9.3-9.3c-13.9-16.6-19.4-38.8-14.9-60.8c4.5-21.8,17.9-39.7,36.7-49.3
					c8.6-4.5,17.6-9.2,27.9-9.8c1.7-0.1,3.4-0.2,5.2-0.2c3.3,0,6.7,0.3,10,0.8h0.1h0.1c2.7,1,5.6,1.7,8.5,2.5
					c5.8,1.6,11.7,3.2,16.9,6.4c2.9,1.9,5.9,4.2,9,6.7c3,2.4,6,5.1,9.1,8l0.1,0.1c3.2,3.5,6.1,7.4,8.6,11.4
					c2.6,4.2,4.7,8.7,6.5,13.4c7.4,18.7,5.2,41.4-5.9,60.7c-10.9,18.9-28.2,31.5-47.6,34.5C283.3,267.3,279,267.7,274.7,267.7z"/>
				<path class="st3" d="M272.1,123.3c3.2,0,6.5,0.2,9.8,0.8c8.4,2.9,17.6,4.1,25.1,8.7c2.9,1.9,5.9,4.2,8.9,6.6
					c3,2.5,6.1,5.1,9.1,7.9c3.1,3.4,5.9,7.2,8.4,11.2c2.5,4.1,4.6,8.5,6.3,13.1c15,38.1-11.7,87.1-52.4,93.3
					c-4.1,0.8-8.2,1.3-12.5,1.3c-0.4,0-0.8,0-1.2,0c-5.9-0.1-12-0.9-18.1-2.4c-6-1.5-12-3.7-17.6-6.7c-3.7-2-7.2-4.4-10.5-7.1
					c-3.3-2.7-6.4-5.8-9.1-9.2c-28.9-34.4-17.1-88.4,21.4-107.9c8.7-4.5,17.3-9.1,27.4-9.6C268.7,123.4,270.4,123.3,272.1,123.3
					 M272.1,120.5c-1.8,0-3.5,0.1-5.3,0.2c-10.6,0.6-19.7,5.3-28.5,9.9c-19.2,9.7-32.9,28-37.4,50.2c-4.6,22.4,0.9,45,15.2,61.9
					c2.8,3.4,6,6.7,9.5,9.5c3.4,2.8,7,5.3,10.9,7.4c5.6,3,11.7,5.3,18.2,7c6.1,1.5,12.4,2.3,18.7,2.4c0.4,0,0.8,0,1.3,0
					c4.4,0,8.8-0.4,13-1.3c19.8-3.1,37.4-15.9,48.5-35.1c11.3-19.7,13.6-42.8,6-61.9c-1.8-4.7-4-9.3-6.6-13.6
					c-2.5-4.2-5.5-8.1-8.7-11.7l-0.1-0.1l-0.1-0.1c-3.1-2.9-6.2-5.6-9.2-8.1c-3.2-2.6-6.3-4.9-9.1-6.8l0,0l0,0
					c-5.4-3.3-11.4-5-17.3-6.5c-2.8-0.7-5.7-1.5-8.4-2.5l-0.2-0.1h-0.2C278.9,120.8,275.5,120.5,272.1,120.5L272.1,120.5z"/>
			</g>
		</g>
		<g>
			<g>
				<path class="st19" d="M339.7,171.7c-1.7-4.7-3.9-9.1-6.3-13.1c-2.5-4.1-5.3-7.8-8.4-11.2c-3-2.8-6-5.5-9.1-7.9
					c-3-2.5-6-4.7-8.9-6.6c-3.1-1.9-6.5-3.3-10-4.4c2.4,1.7,4.8,3.5,7.2,5.5c3,2.5,6.1,5.1,9.1,7.9c3.1,3.4,5.9,7.2,8.4,11.2
					c2.5,4.1,4.6,8.5,6.3,13.1c15,38.1-11.7,87.1-52.4,93.3c-4.4,0.9-9,1.4-13.8,1.3c-5.9-0.1-12-0.9-18.1-2.4
					c-2.7-0.7-5.4-1.5-8.1-2.5c0.7,0.4,1.5,0.9,2.2,1.3c5.6,3,11.5,5.2,17.6,6.7c6.1,1.5,12.2,2.3,18.1,2.4
					c4.7,0.1,9.3-0.4,13.8-1.3C328,258.8,354.7,209.8,339.7,171.7z"/>
			</g>
		</g>
		<g>
			<g>
				<path class="st20" d="M215.2,186c-4,0-7.6-2.7-9.2-6.9c-1.1-3.1-0.6-6.5,1.4-9.4s5.1-4.7,8.3-4.7c2,0,4,0.7,5.7,2
					c4.1,3.3,4.9,10.1,1.6,14.6C221.1,184.4,218.3,186,215.2,186L215.2,186z"/>
				<path class="st3" d="M215.8,166.4c1.6,0,3.3,0.5,4.8,1.7c3.7,2.9,4.1,9,1.4,12.7c-1.8,2.5-4.3,3.7-6.7,3.7c-3.3,0-6.4-2.1-7.9-6
					C205.2,172.8,210.2,166.4,215.8,166.4 M215.8,163.6c-3.6,0-7.2,2-9.5,5.2c-2.3,3.3-2.8,7.1-1.5,10.6c1.8,4.7,5.9,7.8,10.5,7.8
					c3.5,0,6.7-1.8,9-4.9c3.7-5.1,2.8-12.8-1.9-16.5C220.3,164.5,218.1,163.6,215.8,163.6L215.8,163.6z"/>
			</g>
		</g>
		<g>
			<g>
				<path class="st21" d="M220.6,168.2c-0.5-0.4-1-0.7-1.4-0.9c2.4,3.2,2.4,8.1,0,11.3c-2.7,3.8-6.9,4.5-10.2,2.9
					c3.4,4.2,9.4,4.4,13-0.6C224.7,177.1,224.3,171,220.6,168.2z"/>
			</g>
		</g>
		<g>
			<g>
				<path class="st20" d="M278.4,140.7c-2.2,0-4.1-0.4-5.6-1c-4.9-2.2-7.6-8.6-6-14c1.6-5.3,6.1-5.9,9.3-5.9c0.6,0,1.3,0,1.9,0.1
					c4.3,0.2,13.8,2.4,16.1,7.8c0.7,1.7,1,4.5-1.9,7.9C289.1,139,282.9,140.7,278.4,140.7L278.4,140.7z"/>
				<path class="st3" d="M276.1,121.1c0.6,0,1.2,0,1.8,0.1c6.5,0.4,20.5,4.8,13.1,13.4c-2.5,2.9-8,4.7-12.7,4.7
					c-1.9,0-3.7-0.3-5.1-0.9c-4.5-2-6.6-7.8-5.3-12.4C269.3,121.9,272.5,121.1,276.1,121.1 M276.1,118.3c-2.1,0-8.6,0-10.6,6.9
					c-1.8,6.1,1.2,13.2,6.8,15.7c1.7,0.8,3.8,1.2,6.2,1.2c4.9,0,11.4-1.8,14.8-5.7c3.4-4,3-7.3,2.2-9.4c-2.4-5.7-11.9-8.3-17.2-8.6
					C277.4,118.4,276.7,118.3,276.1,118.3L276.1,118.3z"/>
			</g>
		</g>
		<g>
			<g>
				<path class="st21" d="M287.4,123.5c2.4,2.2,3.1,5.1,0,8.7c-3.3,3.9-11.7,5.7-16.7,4.2c0.8,0.8,1.7,1.5,2.7,2
					c4.8,2.2,14.2,0.3,17.7-3.8C295.6,129.3,292.2,125.7,287.4,123.5z"/>
			</g>
		</g>
		<g>
			<g>
				<path class="st20" d="M302,237.4c-2.4,0-6.6-1-7.7-7.6c-0.7-3.9,0.6-8.2,3.2-11.3c2.1-2.5,4.7-3.8,7.5-3.8
					c2.3,0,4.5,0.9,6.5,2.7c2.7,2.4,3.9,5.9,3.4,9.5c-0.6,3.9-2.9,7.1-6.3,8.7C306.1,236.8,303.9,237.4,302,237.4L302,237.4z"/>
				<path class="st3" d="M304.9,216.1c1.8,0,3.7,0.7,5.6,2.4c5.1,4.5,3.4,13.1-2.6,16c-2.2,1-4.2,1.6-6,1.6c-3.2,0-5.5-1.9-6.3-6.4
					C294.5,223.2,299.2,216.1,304.9,216.1 M304.9,213.3c-3.2,0-6.2,1.5-8.5,4.3c-2.9,3.4-4.2,8.2-3.5,12.4c0.9,5.5,4.2,8.7,9,8.7
					c2.1,0,4.5-0.6,7.1-1.8c3.8-1.8,6.5-5.4,7.1-9.7c0.6-4.1-0.8-8.1-3.8-10.8C310.1,214.4,307.5,213.3,304.9,213.3L304.9,213.3z"/>
			</g>
		</g>
		<g>
			<g>
				<path class="st21" d="M310.5,218.5c-1.5-1.4-3.1-2.1-4.6-2.3c0.4,0.3,0.8,0.6,1.2,0.9c5.1,4.5,3.4,13.1-2.6,16
					c-2.4,1.1-4.6,1.7-6.5,1.6c2.3,2.1,5.9,1.7,9.9-0.2C313.9,231.6,315.6,223,310.5,218.5z"/>
			</g>
		</g>
		<g>
			<g>
				<path class="st20" d="M307.6,164.9c-5,0-8.1-3.7-8.5-7.5c-0.5-4,1.9-7.2,6.1-8.2c0.7-0.2,1.4-0.2,2-0.2c4.8,0,8.1,4.1,8.4,8.1
					c0.4,3.9-2,6.9-6.1,7.6C308.9,164.9,308.2,164.9,307.6,164.9L307.6,164.9z"/>
				<path class="st3" d="M307.1,150.4c7.2,0,10.6,11.4,2.1,13c-0.6,0.1-1.1,0.2-1.7,0.2c-7.8,0-10.4-10.9-2.2-12.9
					C306,150.5,306.6,150.4,307.1,150.4 M307.1,147.7c-0.8,0-1.6,0.1-2.4,0.3c-5.5,1.3-7.6,5.8-7.1,9.7c0.5,4.3,4.1,8.7,9.9,8.7
					c0.7,0,1.4-0.1,2.2-0.2c4.8-0.9,7.6-4.5,7.2-9.1C316.5,152.4,312.7,147.7,307.1,147.7L307.1,147.7z"/>
			</g>
		</g>
		<g>
			<g>
				<path class="st21" d="M309.2,150.8c3.9,3.1,4.5,10.2-2.1,11.5c-1.5,0.3-2.9,0.2-4.1-0.2c1.5,1.2,3.7,1.9,6.2,1.4
					C316.8,162,314.9,152.7,309.2,150.8z"/>
			</g>
		</g>
		<g>
			<g>
				<path class="st20" d="M255.4,173c-2.4,0-4.6-1.3-6.1-3.7c-1.8-2.9-1.9-6.2-0.4-9c1.4-2.6,4.2-4.2,6.9-4.2c2.5,0,4.7,1.3,6.3,3.6
					c1.8,2.6,2,5.8,0.5,8.6C261.2,171,258.3,173,255.4,173L255.4,173z"/>
				<path class="st3" d="M255.9,157.3c1.8,0,3.7,0.9,5.2,3c3.5,5.1-1.1,11.2-5.7,11.2c-1.8,0-3.5-0.9-4.9-3.1
					C247.1,162.9,251.3,157.3,255.9,157.3 M255.9,154.6c-3.3,0-6.5,1.9-8.1,5c-1.8,3.2-1.7,7,0.4,10.4c1.7,2.8,4.3,4.4,7.2,4.4
					c3.4,0,6.8-2.2,8.5-5.5c1.7-3.3,1.5-7-0.6-10C261.5,156.1,258.8,154.6,255.9,154.6L255.9,154.6z"/>
			</g>
		</g>
		<g>
			<g>
				<path class="st21" d="M261.1,160.4c-0.5-0.8-1.1-1.4-1.8-1.9c0.1,0.2,0.2,0.3,0.4,0.5c4.3,6.2-3.5,13.9-8.7,10.2
					C256,175.8,265.8,167.2,261.1,160.4z"/>
			</g>
		</g>
		<g>
			<g>
				<path class="st20" d="M223.4,247.1c-5.3,0-10.6-3.8-12.1-8.8c-0.9-3.1-0.2-6.6,2-9.5c2.3-3.1,5.8-5,9.1-5c2,0,3.9,0.7,5.4,2
					c3.2,2.7,5,8.3,4.2,13.4c-0.6,3.7-2.4,6.3-5.1,7.3C225.8,246.9,224.6,247.1,223.4,247.1L223.4,247.1z"/>
				<path class="st3" d="M222.4,225.2c1.6,0,3.2,0.5,4.6,1.7c5,4.2,5.6,16-0.6,18.4c-0.9,0.4-1.9,0.5-3,0.5c-4.5,0-9.4-3.2-10.8-7.8
					C210.7,231.8,216.6,225.2,222.4,225.2 M222.4,222.5c-3.7,0-7.6,2.1-10.2,5.5c-2.4,3.3-3.2,7.2-2.2,10.7
					c1.7,5.5,7.4,9.7,13.4,9.7c1.4,0,2.7-0.2,3.9-0.7c3.1-1.2,5.3-4.3,6-8.3c0.9-5.5-1.1-11.6-4.7-14.6
					C226.8,223.3,224.7,222.5,222.4,222.5L222.4,222.5z"/>
			</g>
		</g>
		<g>
			<g>
				<path class="st21" d="M227,226.8c-1.5-1.3-3.3-1.7-5-1.6c0.2,0.1,0.4,0.3,0.7,0.4c5,4.2,5.6,16-0.6,18.4
					c-1.1,0.4-2.3,0.6-3.6,0.5c2.6,1.3,5.5,1.6,7.9,0.7C232.6,242.9,232,231,227,226.8z"/>
			</g>
		</g>
		<g>
			<g>
				<path class="st20" d="M291.1,265.1c-3.5,0-5.9-1.8-6.6-5c-0.7-3.1,0-6.3,1.9-8.6c1.6-2,4-3.2,6.4-3.2c1.8,0,3.7,0.6,5.3,1.8
					c2.4,1.8,3.8,4.4,3.6,7c-0.2,2.6-1.8,4.9-4.4,6.3C295.3,264.5,293,265.1,291.1,265.1L291.1,265.1z"/>
				<path class="st3" d="M292.9,249.7c1.5,0,3,0.5,4.5,1.6c4.2,3.1,4.1,8.5-0.7,11c-1.7,0.9-3.8,1.5-5.7,1.5c-2.5,0-4.6-1-5.2-3.9
					C284.7,254.5,288.3,249.7,292.9,249.7 M292.9,247c-2.9,0-5.6,1.3-7.5,3.7c-2.2,2.7-3,6.2-2.2,9.8c0.8,3.8,3.8,6.1,7.9,6.1
					c2.2,0,4.7-0.7,6.9-1.8c3.1-1.6,4.9-4.3,5.2-7.4c0.2-3.1-1.3-6.2-4.2-8.3C297.1,247.7,295,247,292.9,247L292.9,247z"/>
			</g>
		</g>
		<g>
			<g>
				<path class="st21" d="M297.4,251.3c-1.4-1-2.8-1.5-4.2-1.5c0.4,0.2,0.7,0.4,1.1,0.7c4.2,3.1,4.1,8.5-0.7,11
					c-1.7,0.9-3.9,1.5-5.8,1.5c2.3,1.5,6.1,0.8,8.9-0.6C301.4,259.8,301.6,254.4,297.4,251.3z"/>
			</g>
		</g>
		<g>
			<g>
				<path class="st20" d="M258,250.8c-2.2,0-4.1-0.7-5.5-2c-2.5-2.4-3.2-5.9-1.9-9.4c1.5-3.8,5.2-6.5,8.8-6.5c0.3,0,0.6,0,0.9,0.1
					c3.9,0.5,6.9,2.5,8,5.5c1.1,2.8,0.3,6-2.1,8.8C264.5,249.4,261.1,250.8,258,250.8L258,250.8z"/>
				<path class="st3" d="M259.4,234.3c0.3,0,0.5,0,0.8,0c6.7,0.8,9.7,6.7,5.1,12c-1.6,1.8-4.5,3.1-7.3,3.1c-1.7,0-3.3-0.5-4.6-1.6
					C248.3,242.9,253.3,234.3,259.4,234.3 M259.4,231.5c-4.3,0-8.4,3-10.1,7.4c-1.6,4-0.8,8.1,2.2,10.9c1.7,1.6,3.9,2.4,6.5,2.4
					c3.5,0,7.3-1.6,9.4-4c2.8-3.2,3.6-6.9,2.3-10.2c-1.3-3.5-4.8-5.9-9.2-6.4C260.2,231.6,259.8,231.5,259.4,231.5L259.4,231.5z"/>
			</g>
		</g>
		<g>
			<g>
				<path class="st21" d="M262.6,234.9c2,2.4,2,5.9-0.8,9.1c-1.9,2.2-6,3.7-9.2,2.9c0.2,0.3,0.5,0.6,0.8,0.9
					c3.2,3.1,9.4,1.4,11.9-1.4C269.3,241.7,267.6,236.7,262.6,234.9z"/>
			</g>
		</g>
		<g>
			<g>
				<path class="st20" d="M334,220.4c-2.2,0-4.1-0.7-5.5-2c-2.5-2.4-3.2-5.9-1.9-9.4c1.5-3.8,5.2-6.5,8.8-6.5c0.3,0,0.6,0,0.9,0.1
					c3.9,0.5,6.9,2.5,8,5.5c1.1,2.8,0.3,6-2.1,8.8C340.4,219,337.1,220.4,334,220.4L334,220.4z"/>
				<path class="st3" d="M335.4,203.9c0.3,0,0.5,0,0.8,0c6.7,0.8,9.7,6.7,5.1,12c-1.6,1.8-4.5,3.1-7.3,3.1c-1.7,0-3.3-0.5-4.6-1.6
					C324.3,212.6,329.2,203.9,335.4,203.9 M335.4,201.2c-4.3,0-8.4,3-10.1,7.4c-1.6,4-0.8,8.1,2.2,10.9c1.7,1.6,3.9,2.4,6.5,2.4l0,0
					c3.5,0,7.3-1.6,9.4-4c2.8-3.2,3.6-6.9,2.3-10.2c-1.3-3.5-4.8-5.9-9.2-6.4C336.2,201.2,335.8,201.2,335.4,201.2L335.4,201.2z"/>
			</g>
		</g>
		<g>
			<g>
				<path class="st21" d="M339.4,204.9c2.3,2.4,2.5,6-0.5,9.5c-2.1,2.4-6.6,3.9-10,2.6c0.1,0.1,0.2,0.3,0.4,0.4
					c3.2,3.1,9.4,1.4,11.9-1.4C345.1,211.6,343.7,206.9,339.4,204.9z"/>
			</g>
		</g>
		<g>
			<g>
				<path class="st20" d="M234.4,152.7c-3.5,0-6.5-1.2-8.6-3.4c-3.9-4.2-1-11.4,2-15.3c1.9-2.4,5.4-3.8,9.5-3.8
					c2.3,0,4.5,0.5,6.2,1.4c2.1,1.1,3.5,3.1,4.2,5.7c0.8,3.4,0.1,7.4-1.8,10.1C243.5,150.5,239,152.7,234.4,152.7L234.4,152.7z"/>
				<path class="st3" d="M237.2,131.5c2,0,4,0.4,5.6,1.2c4.7,2.5,4.6,9.9,1.9,13.7c-2.1,3-6.3,4.8-10.4,4.8c-2.9,0-5.6-0.9-7.6-3
					c-3.3-3.6-0.6-10.1,2.1-13.5C230.6,132.5,234,131.5,237.2,131.5 M237.2,128.7c-4.5,0-8.5,1.6-10.6,4.4c-1.8,2.3-3.1,5.1-3.8,7.7
					c-0.9,3.8-0.3,7,1.9,9.3c2.3,2.5,5.7,3.9,9.6,3.9c5.1,0,10-2.4,12.6-6c2.1-3,2.9-7.4,2-11.2c-0.7-3-2.4-5.3-4.9-6.6
					C242.2,129.3,239.8,128.7,237.2,128.7L237.2,128.7z"/>
			</g>
		</g>
		<g>
			<g>
				<path class="st21" d="M242.8,132.7c-0.6-0.3-1.3-0.6-2.1-0.8c2.7,3.2,2.3,9,0.1,12.2c-2.7,3.9-8.9,5.8-13.8,4.4
					c4.8,4.7,14.2,3,17.7-2.1C247.4,142.6,247.5,135.2,242.8,132.7z"/>
			</g>
		</g>
		<g>
			<g>
				<path class="st20" d="M333,187.1c-3.4,0-6.4-1.3-8.4-3.6c-3.7-4.2-1.1-11.2,1.5-14.9c1.6-2.3,4.7-3.6,8.4-3.6
					c2.3,0,4.5,0.5,6.2,1.5c2,1.1,3.3,3.1,4,5.7c0.8,3.3,0.2,7.2-1.4,9.8C341.2,185.1,337.2,187.1,333,187.1L333,187.1z"/>
				<path class="st3" d="M334.4,166.2c2,0,4,0.5,5.6,1.4c4.4,2.6,4.5,10,2.1,13.7c-1.8,2.8-5.5,4.5-9.1,4.5c-2.8,0-5.5-1-7.4-3.2
					c-3.2-3.6-0.8-10,1.6-13.3C328.6,167.2,331.5,166.2,334.4,166.2 M334.4,163.6c-4.1,0-7.6,1.6-9.4,4.2c-1.6,2.2-2.8,5-3.3,7.5
					c-0.7,3.6-0.1,6.8,1.9,9c2.3,2.6,5.6,4.1,9.4,4.1c4.6,0,9.1-2.3,11.3-5.7c1.8-2.9,2.4-7.1,1.6-10.8c-0.7-3-2.3-5.2-4.6-6.6
					C339.4,164.2,336.9,163.6,334.4,163.6L334.4,163.6z"/>
			</g>
		</g>
		<g>
			<g>
				<path class="st21" d="M339.9,167.6c-0.3-0.2-0.7-0.3-1-0.5c2.6,3.3,2.3,9,0.3,12.1c-2.6,4-8.9,5.8-13.6,3.6
					c4.5,5,13.2,3.5,16.4-1.5C344.4,177.6,344.3,170.2,339.9,167.6z"/>
			</g>
		</g>
		<g>
			<g>
				<path class="st20" d="M225.6,213.1c-5.3,0-9.5-4.5-10.4-8.7c-0.8-4,1-7.4,5-9.1c1.1-0.5,2.3-0.7,3.4-0.7c5,0,9.1,4.4,10.1,8.7
					c0.9,3.8-0.5,7.1-3.9,8.8C228.4,212.7,227,213.1,225.6,213.1L225.6,213.1z"/>
				<path class="st3" d="M223.6,195.9c7.2,0,13,11.2,5.6,14.9c-1.2,0.6-2.4,0.9-3.6,0.9c-7.6,0-13.6-11.3-4.9-15.2
					C221.7,196,222.6,195.9,223.6,195.9 M223.6,193.1c-1.4,0-2.7,0.3-4,0.9c-4.5,2-6.7,6.1-5.8,10.7c1,4.8,5.7,9.8,11.7,9.8
					c1.7,0,3.3-0.4,4.9-1.2c3.9-2,5.7-6,4.6-10.4C233.9,198.1,229.3,193.1,223.6,193.1L223.6,193.1z"/>
			</g>
		</g>
		<g>
			<g>
				<path class="st21" d="M223.7,195.9c5,2.9,7.7,10.8,1.8,13.9c-1.3,0.7-2.6,0.9-3.9,0.9c2.2,1.2,5,1.6,7.7,0.2
					C236.5,207.1,230.8,196,223.7,195.9z"/>
			</g>
		</g>
	</g>
		<g id="cookieFace2" class="st11">
		<g class="st12">
			<g>
				<path class="st24" d="M297.8,198.3c-2.5,1.1-10.9-4.7-12.2-6.5c-0.8-1.1-1.2-4.3-0.5-6.5c0.6-2.1,1.5-3.4,2.7-3.9
					c2.1-0.9,4.4,0.8,5.8,2.1c0.3-3.4,2.2-5.4,3.9-6.2c0.6-0.3,1.2-0.4,1.6-0.3c1.6,0.2,4.1,2.7,4.1,5.9
					C303.2,187.3,299.6,197.5,297.8,198.3C297.8,198.3,297.8,198.3,297.8,198.3z"/>
				<path class="st25" d="M288,182c2.3-1,5,1.7,6.1,2.7c-0.1-3.9,1.9-6.1,3.6-6.8c0.5-0.2,1-0.3,1.4-0.3c1.5,0.2,3.7,2.4,3.6,5.2
					c0,4.5-3.5,14.2-5.1,14.9c0,0,0,0,0,0c-2.1,0.9-10.4-4.5-11.7-6.3c-0.6-0.9-1-3.7-0.4-5.7C286.2,183.5,287,182.4,288,182
					 M287.6,180.7c-1.3,0.6-2.4,2-3,4.3c-0.8,2.5-0.3,5.9,0.6,7.2c1.4,2,10.1,7.9,12.8,6.7c2.2-1,5.7-11.5,5.8-16.1
					c0-1.6-0.6-3.2-1.6-4.6c-0.9-1.1-2-1.9-3-2c-0.5-0.1-1.2,0-1.8,0.3c-1.7,0.7-3.6,2.6-4.1,5.7
					C291.7,181.1,289.6,179.9,287.6,180.7L287.6,180.7z"/>
			</g>
		</g>
		<path class="st26" d="M285.9,186.9c-0.2,1.4,0.1,2.7,0.6,2.8c0.5,0.1,1.1-0.9,1.3-2.3c0.2-1.4-0.1-2.7-0.6-2.8
			C286.7,184.5,286.1,185.5,285.9,186.9z"/>
		<path class="st26" d="M288.2,185.4c0,0.5,0.3,1,0.5,0.9c0.2,0,0.3-0.5,0.3-1c-0.1-0.5-0.3-1-0.5-0.9
			C288.3,184.4,288.1,184.9,288.2,185.4z"/>
		<g class="st12">
			<g>
				<path class="st24" d="M257.1,216.2c-2.5,1.1-10.9-4.7-12.2-6.5c-0.8-1.1-1.2-4.3-0.5-6.5c0.6-2.1,1.5-3.4,2.7-3.9
					c2.1-0.9,4.4,0.8,5.8,2.1c0.3-3.4,2.2-5.4,3.9-6.2c0.6-0.3,1.2-0.4,1.6-0.3c1.6,0.2,4.1,2.7,4.1,5.9
					C262.5,205.3,259,215.4,257.1,216.2C257.2,216.2,257.1,216.2,257.1,216.2z"/>
				<path class="st25" d="M247.3,200c2.3-1,5,1.7,6.1,2.7c-0.1-3.9,1.9-6.1,3.6-6.8c0.5-0.2,1-0.3,1.4-0.3c1.5,0.2,3.6,2.4,3.6,5.2
					c0,4.5-3.5,14.2-5.1,14.9c0,0,0,0,0,0c-2.1,0.9-10.4-4.5-11.7-6.3c-0.6-0.9-1-3.7-0.4-5.7C245.5,201.4,246.4,200.4,247.3,200
					 M247,198.7c-1.3,0.6-2.4,2-3,4.3c-0.8,2.5-0.3,5.9,0.6,7.2c1.4,2,10.1,7.9,12.8,6.7c2.2-1,5.7-11.5,5.8-16.1
					c0-1.6-0.6-3.2-1.6-4.6c-0.9-1.1-2-1.9-3-2c-0.5-0.1-1.2,0-1.8,0.3c-1.7,0.7-3.6,2.6-4.1,5.7C251.1,199,248.9,197.8,247,198.7
					L247,198.7z"/>
			</g>
		</g>
		<g class="st12">
			<g>
				<path class="st27" d="M260,215.7c0.3,1.3-2.4,3.6-6.1,5.2c-3.7,1.6-6.9,1.9-7.2,0.6c-0.3-1.3,2.4-3.6,6.1-5.2
					C256.4,214.7,259.7,214.4,260,215.7z"/>
			</g>
			<g>
				<path class="st27" d="M307.9,194.6c0.3,1.3-2.4,3.6-6.1,5.2c-3.7,1.6-6.9,1.9-7.2,0.6c-0.3-1.3,2.4-3.6,6.1-5.2
					C304.4,193.6,307.6,193.3,307.9,194.6z"/>
			</g>
		</g>
		<g class="st12">
			<path class="st28" d="M288,172.1c0,0,5.3-5.8,11.5-0.9"/>
			<path class="st28" d="M252.2,187.9c0,0-6.9-0.4-9.6,8.4"/>
		</g>
		<g class="st12">
			<path class="st28" d="M275.8,202.3c0.4,3.7-0.2,6.6-1.7,7.3c-1.4,0.6-3.3-1.2-4.7-4.4"/>
			<path class="st28" d="M282.2,199.5c0.4,3.7-0.2,6.6-1.7,7.3c-1.4,0.6-3.3-1.2-4.7-4.4"/>
		</g>
		<path class="st26" d="M245.3,204.9c-0.2,1.4,0.1,2.7,0.6,2.8c0.5,0.1,1.1-0.9,1.3-2.3c0.2-1.4-0.1-2.7-0.6-2.8
			C246,202.4,245.5,203.5,245.3,204.9z"/>
		<path class="st26" d="M247.5,203.4c0.1,0.5,0.3,1,0.5,0.9c0.2,0,0.3-0.5,0.3-1c-0.1-0.5-0.3-1-0.5-0.9
			C247.6,202.4,247.5,202.8,247.5,203.4z"/>
	</g>
	<g id="cookieFace1">
		<g>
			<g>
				<path class="st3" d="M262.1,202.1c1.5,4.2-0.7,8.9-4.9,10.4c-4.2,1.5-8.9-0.7-10.4-4.9s0.7-8.9,4.9-10.4
					C256,195.7,260.6,197.9,262.1,202.1z"/>
				<path class="st0" d="M252.4,201.9c0.5,1.3-0.2,2.8-1.6,3.3c-1.3,0.5-2.8-0.2-3.3-1.6c-0.5-1.3,0.2-2.8,1.6-3.3
					C250.4,199.8,251.9,200.5,252.4,201.9z"/>
				<path class="st0" d="M253.5,205.6c0.2,0.5-0.1,1.1-0.6,1.2c-0.5,0.2-1.1-0.1-1.2-0.6c-0.2-0.5,0.1-1.1,0.6-1.2
					S253.3,205.1,253.5,205.6z"/>
				<path class="st0" d="M254.3,202.6c0.1,0.3-0.1,0.7-0.4,0.8c-0.3,0.1-0.7-0.1-0.8-0.4c-0.1-0.3,0.1-0.7,0.4-0.8
					C253.9,202.1,254.2,202.3,254.3,202.6z"/>
				<path class="st17" d="M259.8,211.5c0.3,0.9-2.4,2.8-6.1,4.1c-3.7,1.3-7,1.6-7.3,0.7c-0.3-0.9,2.4-2.8,6.1-4.1
					C256.2,210.9,259.5,210.6,259.8,211.5z"/>
			</g>
			<g>
				<path class="st3" d="M302.6,187.8c1.5,4.2-0.7,8.9-4.9,10.4c-4.2,1.5-8.9-0.7-10.4-4.9s0.7-8.9,4.9-10.4
					C296.4,181.4,301.1,183.6,302.6,187.8z"/>
				<path class="st0" d="M292.8,187.6c0.5,1.3-0.2,2.8-1.6,3.3s-2.8-0.2-3.3-1.6c-0.5-1.3,0.2-2.8,1.6-3.3S292.3,186.2,292.8,187.6z
					"/>
				<path class="st0" d="M294,191.4c0.2,0.5-0.1,1.1-0.6,1.2c-0.5,0.2-1.1-0.1-1.2-0.6c-0.2-0.5,0.1-1.1,0.6-1.2
					C293.2,190.6,293.8,190.9,294,191.4z"/>
				<path class="st0" d="M294.8,188.3c0.1,0.3-0.1,0.7-0.4,0.8s-0.7-0.1-0.8-0.4c-0.1-0.3,0.1-0.7,0.4-0.8S294.7,188,294.8,188.3z"
					/>
				<path class="st17" d="M308,194.5c0.3,0.9-2.4,2.8-6.1,4.1s-7,1.6-7.3,0.7c-0.3-0.9,2.4-2.8,6.1-4.1
					C304.5,193.8,307.7,193.5,308,194.5z"/>
			</g>
		</g>
		<g>
			<g>
				<g>
					<path class="st22" d="M275.7,207.4c-2.7,0-5.1-1.7-6-4.3c0-0.1,0-0.2,0-0.3c0-0.5,0.6-2,5.4-3.7c2.1-0.7,3.7-0.9,4.7-0.9
						c0.9,0,1.4,0.1,1.4,0.1c0.2,0.1,0.4,0.2,0.5,0.5c0.6,1.6,0.5,3.3-0.3,4.9c-0.7,1.5-2,2.7-3.6,3.3
						C277.2,207.3,276.4,207.4,275.7,207.4L275.7,207.4z"/>
					<path class="st3" d="M279.8,199c0.8,0,1.2,0.1,1.2,0.1c1,2.9-0.5,6.2-3.4,7.2c-0.6,0.2-1.3,0.3-1.9,0.3c-2.3,0-4.5-1.4-5.3-3.8
						c0,0,0.1-1.3,4.9-3C277.3,199.2,278.8,199,279.8,199 M279.8,197.6c-1,0-2.8,0.2-5,0.9c-4.8,1.7-5.8,3.3-5.9,4.3
						c0,0.2,0,0.4,0.1,0.6c1,2.8,3.7,4.7,6.7,4.7c0.8,0,1.6-0.1,2.4-0.4c1.8-0.6,3.2-1.9,4-3.6c0.8-1.7,0.9-3.6,0.3-5.4
						c-0.2-0.5-0.5-0.8-1-0.9C281.3,197.7,280.7,197.6,279.8,197.6L279.8,197.6z"/>
				</g>
			</g>
		</g>
		<g>
			<g>
				<g>
					<path class="st0" d="M271.2,205.1c-0.2,0-0.5-0.1-0.6-0.3c-0.4-0.5-0.6-1-0.8-1.6c0-0.1,0-0.2,0-0.3c0-0.5,0.6-2,5.4-3.7
						c2.1-0.7,3.7-0.9,4.7-0.9c0.9,0,1.4,0.1,1.4,0.1c0.2,0.1,0.4,0.2,0.5,0.5c0.2,0.6,0.3,1.2,0.4,1.8c0,0.2-0.1,0.4-0.2,0.6
						C281.3,201.9,271.7,205.1,271.2,205.1L271.2,205.1z"/>
					<path class="st3" d="M279.8,199c0.8,0,1.2,0.1,1.2,0.1c0.2,0.5,0.3,1.1,0.3,1.6c0,0.2-9.6,3.6-10.2,3.6l0,0
						c-0.3-0.4-0.6-0.9-0.7-1.4c0,0,0.1-1.3,4.9-3C277.3,199.2,278.8,199,279.8,199 M279.8,197.6c-1,0-2.8,0.2-5,0.9
						c-4.8,1.7-5.8,3.3-5.9,4.3c0,0.2,0,0.4,0.1,0.6c0.2,0.6,0.5,1.2,0.9,1.8c0.3,0.4,0.7,0.6,1.2,0.6c0.2,0,0.7,0,5.7-1.8
						c5.1-1.8,5.3-2,5.5-2.3c0.3-0.3,0.4-0.7,0.4-1.1c0-0.7-0.2-1.4-0.4-2c-0.2-0.5-0.5-0.8-1-0.9
						C281.3,197.7,280.7,197.6,279.8,197.6L279.8,197.6z"/>
				</g>
			</g>
		</g>
		<g>
			<path class="st23" d="M287.9,178.2c0,0,5.3-4.4,11.6-1"/>
			<path class="st23" d="M251.9,191c0,0-6.9-0.1-9.6,6.5"/>
		</g>
	</g>
</g>
<g id="cake">
	<g id="cakeBase">
		<g id="cake_1_">
			<path class="st29" d="M133.9,365.4c-0.4,0-0.8-0.2-1.2-0.4c-0.4-0.3-0.7-0.8-0.7-1.3l-9.6-87.2c-0.1-1.1,0.6-2,1.7-2.2
				l220.4-24.4h0.2c0.4,0,0.8,0.2,1.2,0.4c0.4,0.3,0.7,0.8,0.7,1.3l9.6,87.2c0.1,1.1-0.7,2-1.7,2.2L134,365.4H133.9z"/>
			<path class="st3" d="M344.6,251.9l9.6,87.2l-220.4,24.4l-9.6-87.2L344.6,251.9 M344.6,248h-0.4l-220.4,24.4
				c-2.1,0.3-3.7,2.2-3.5,4.3l9.6,87.2c0.2,2,1.8,3.4,3.8,3.5h0.4L354.4,343c2.1-0.3,3.7-2.2,3.5-4.3l-9.6-87.2
				c-0.1-1-0.6-2-1.4-2.6C346.3,248.3,345.4,247.9,344.6,248L344.6,248z"/>
			<g class="st30">
				<path class="st29" d="M354.2,339.1l-220.4,24.4c0,0,87.8-11.9,136.3-40.8c41.7-24.9,74.4-70.7,74.4-70.7L354.2,339.1z"/>
			</g>
			<path class="st31" d="M132.2,350.5c-1,0-1.8-0.7-1.9-1.7l-4.6-41.4c-0.1-0.5,0.1-1,0.4-1.4c0.3-0.4,0.8-0.7,1.3-0.7l220.4-24.4
				h0.2c1,0,1.8,0.7,1.9,1.7l4.6,41.4c0.1,0.5-0.1,1-0.4,1.4c-0.3,0.4-0.8,0.7-1.3,0.7l-220.4,24.4H132.2z"/>
			<path class="st3" d="M348,282.8l4.6,41.4l-220.4,24.4l-4.6-41.4L348,282.8 M348,278.9h-0.4l-220.3,24.4c-1,0.1-2,0.6-2.6,1.4
				c-0.6,0.8-0.9,1.9-0.8,2.9l4.6,41.4c0.2,2,1.9,3.5,3.9,3.5h0.4l220.4-24.4c1-0.1,2-0.6,2.6-1.4c0.6-0.8,0.9-1.9,0.8-2.9
				l-4.6-41.4C351.7,280.4,350,278.9,348,278.9z"/>
			<path class="st32" d="M348,282.8l-39.4,4.4c-26.9,34.3-51.1,39.1-72.7,49.9l116.7-12.9L348,282.8z"/>
			<path class="st17" d="M132.3,350.9c-0.4,0-0.8-0.2-1.2-0.4c-0.4-0.3-0.7-0.8-0.7-1.3l-0.3-3.1c-0.1-1.1,0.7-2,1.7-2.2L352,319.5
				h0.2c0.4,0,0.8,0.2,1.2,0.4c0.4,0.3,0.7,0.8,0.7,1.3l0.3,3.1c0.1,1.1-0.7,2-1.7,2.2l-220.3,24.3
				C132.4,350.8,132.3,350.8,132.3,350.9z"/>
			<path class="st3" d="M352.3,321.4l0.3,3.1l-220.4,24.4l-0.3-3.1L352.3,321.4 M352.3,317.5h-0.4l-220.4,24.4
				c-2.1,0.3-3.7,2.2-3.5,4.3l0.3,3.1c0.2,2,1.8,3.4,3.8,3.5h0.4L353,328.4c2.1-0.3,3.7-2.2,3.5-4.3l-0.3-3.1c-0.1-1-0.6-2-1.4-2.6
				C354.1,317.8,353.2,317.5,352.3,317.5L352.3,317.5z"/>
			<path class="st17" d="M352.3,321.4l-114.8,12.7c-1,1.3-2.2,2.5-3.5,3.5l118.6-13.1L352.3,321.4z"/>
			<path class="st17" d="M127.8,310.7c-0.4,0-0.8-0.2-1.2-0.4c-0.4-0.3-0.7-0.8-0.7-1.3l-0.3-3.1c-0.1-1.1,0.7-2,1.7-2.2l220.4-24.4
				h0.2c1,0,1.8,0.7,1.9,1.7l0.3,3.1c0.1,0.5-0.1,1-0.4,1.4c-0.3,0.4-0.8,0.7-1.3,0.7L128,310.6C128,310.7,127.9,310.7,127.8,310.7z
				"/>
			<path class="st3" d="M347.8,281.3l0.3,3.1l-220.4,24.4l-0.3-3.1L347.8,281.3 M347.8,277.3h-0.4L127,301.7
				c-2.1,0.3-3.7,2.2-3.5,4.3l0.3,3.1c0.1,1,0.6,2,1.4,2.6c0.7,0.6,1.5,0.9,2.4,0.9h0.4l220.4-24.4c1-0.1,2-0.6,2.6-1.4
				c0.6-0.8,0.9-1.9,0.8-2.9l-0.3-3.1C351.4,278.8,349.7,277.2,347.8,277.3L347.8,277.3z"/>
			<polygon class="st17" points="347.8,281.3 318.3,284.5 306.5,289 348.2,284.4 			"/>
			<path class="st33" d="M125.8,289.7c-1.4,0-2.7-0.6-3.5-1.7c-2.4-3.1-0.9-9.4-0.5-11.3c1.1-4.2,5.2-6.4,8.8-8.3
				c0.9-0.5,1.7-0.9,2.5-1.4l43-25.8c1-0.5,2.2-0.8,3.4-0.7c2,0.1,4,0.3,5.9,0.6c1,0.1,1.9,0.3,2.4,0.3l142.9,6.4l3.2,0.1l6.7,0.3
				h0.8c1.4-0.1,2.8,0.2,3.9,1c0.3,0.2,0.5,0.4,0.7,0.7c2.7,3.4,0.6,12.2,0.6,12.3c-0.5,1.9-2,5.5-4.7,7c-0.9,0.6-2,0.9-3.1,0.9
				c-2.1,0-3.4-1.3-4.7-2.4c-0.2-0.2-0.4-0.3-0.6-0.5c-1.8-1.6-2.8-1.8-3.4-1.8c-1.2,0.1-2.4,0.6-3.4,1.2c-2,1.2-4.3,2-6.6,2.3
				c-0.4,0.1-0.9,0.1-1.3,0.1c-2.1-0.1-4.1-0.7-5.8-1.8c-0.7-0.4-1.4-0.7-2.2-1c-1.5-0.5-3-0.8-4.6-0.8c-1.8,0-3.6,0.4-5.2,1.2
				c-1.2,0.8-2.2,1.8-2.9,3.1c-1.2,1.7-2.6,3.6-5,4.5c-1.1,0.4-2.3,0.6-3.5,0.6c-2.8,0-5.2-1.2-7.5-2.3c-0.7-0.3-1.4-0.7-2.1-1
				c-1.2-0.6-2.5-0.8-3.8-0.8c-3.4,0-6.7,2-10.1,4c-2.4,1.6-5,2.9-7.7,3.9c-1.5,0.5-3,0.7-4.5,0.7c-4.1,0-8-1.7-11.7-3.3
				s-7.1-3.1-10.8-3.1c-0.9,0-1.7,0.1-2.6,0.3c-3.6,0.9-6.9,2.9-9.5,5.6c-1.6,2-4,3.1-6.6,3.2c-1,0-1.9-0.2-2.8-0.5
				c-1.8-0.7-3.5-2-4.7-3.5c-0.7-0.8-1.4-1.5-2.3-2.1c-0.9-0.6-1.9-0.9-3-0.9c-2.8,0-5.4,2.5-8.1,5.1c-3.2,3.1-6.5,6.2-10.9,6.2l0,0
				c-1.1,0-2.2-0.2-3.3-0.6c-1.4-0.6-2.6-1.4-3.7-2.5c-1.2-1.1-1.9-1.7-3.1-1.8h-0.4c-2.2,0-4.3,1.3-6.6,2.6
				c-1.2,0.7-2.4,1.3-3.6,1.9c-2.2,1-4.5,1.4-6.9,1.4c-3-0.1-6-0.7-8.7-2c-1.1-0.5-2.2-1.1-3.2-1.8c-1.4-0.9-2.3-1.5-3.8-1.5
				c-0.5,0-1.1,0.1-1.6,0.2c-1.9,0.4-2.7,1.4-3.7,2.8c-0.9,1.5-2.2,2.7-3.8,3.5C127.8,289.3,126.8,289.7,125.8,289.7z"/>
			<path class="st3" d="M179.6,242.5c2.7,0,6.7,0.8,8.2,0.9l27.2,1.2c27.6,1.2,55.2,2.5,82.7,3.7l32.9,1.5c3.3,0.1,6.6,0.3,9.9,0.4
				c1.4,0.1,2.6-0.1,3.5,0.6c0.1,0.1,0.3,0.2,0.4,0.4c1.6,2,0.8,8.3,0.2,10.6c-0.5,1.9-1.8,4.7-3.7,5.7c-0.6,0.4-1.4,0.6-2.1,0.6
				c-1.5,0-2.6-1.2-3.9-2.4c-1.9-1.7-3.4-2.3-4.7-2.3c-3,0-5.5,3-10.3,3.6c-0.4,0-0.7,0.1-1,0.1c-2.8,0-4.6-1.6-7.2-2.6
				c-1.7-0.6-3.5-1-5.3-1c-2.1,0-4.2,0.5-6.1,1.4c-3.4,1.8-4.1,6.2-7.7,7.5c-0.9,0.4-1.9,0.5-2.9,0.5c-3.2,0-5.8-1.9-8.8-3.2
				c-1.4-0.7-3-1-4.6-1c-6.6,0-12.1,6-18.4,8c-1.3,0.4-2.6,0.6-3.9,0.6c-7.6,0-14.4-6.4-22.5-6.4c-1,0-2,0.1-3,0.3
				c-4,0.8-7.6,3.3-10.5,6.2c-1.6,1.6-3.2,2.6-5.2,2.6c-0.8,0-1.5-0.1-2.2-0.4c-3.1-1.1-4.1-4-6.8-5.4c-1.2-0.7-2.5-1.1-3.9-1.1
				c-7.2,0-11.8,11.3-19,11.3c-0.9,0-1.8-0.2-2.6-0.5c-2.9-1.1-4-4.1-7.4-4.3h-0.5c-4,0-7.5,3.2-10.9,4.7c-1.9,0.9-4,1.3-6.1,1.3
				c-2.7-0.1-5.4-0.7-7.9-1.8c-3.3-1.5-4.6-3.4-7.8-3.4c-0.7,0-1.3,0.1-2,0.2c-4.7,1-4.6,5-7.8,6.5c-0.7,0.3-1.4,0.5-2.2,0.5
				c-4,0-2.9-7.3-2.1-10.5c1.1-4.2,6.7-6.2,10.5-8.5l18-10.8c8.3-5,16.7-10,25-15C177.9,242.5,178.7,242.4,179.6,242.5 M179.5,238.6
				c-1.5-0.1-3.1,0.3-4.4,1l-16.7,10l-8.3,5l-11.3,6.8l-6.7,4c-0.8,0.5-1.6,0.9-2.4,1.3c-3.8,2-8.5,4.5-9.8,9.5
				c-0.7,2.7-2,9.3,0.8,13c1.2,1.6,3.1,2.5,5.1,2.4c1.3,0,2.6-0.3,3.8-0.9c1.9-0.9,3.6-2.3,4.6-4.2c1-1.4,1.3-1.8,2.5-2.1
				c0.4-0.1,0.8-0.1,1.2-0.1c0.8,0,1.3,0.3,2.7,1.2c1.1,0.7,2.2,1.4,3.4,1.9c3,1.4,6.2,2.1,9.5,2.2c2.7,0,5.3-0.5,7.7-1.6
				c1.3-0.6,2.6-1.3,3.8-2c2-1.2,3.9-2.3,5.6-2.3h0.3c0.5,0,0.9,0.3,2,1.3c1.3,1.2,2.7,2.1,4.3,2.8c1.2,0.5,2.6,0.7,3.9,0.7
				c5.2,0,9-3.6,12.3-6.8c2.3-2.2,4.8-4.6,6.8-4.5c0.7,0,1.4,0.2,2,0.6c0.7,0.5,1.3,1,1.8,1.7c1.4,1.8,3.3,3.2,5.5,4
				c1.1,0.4,2.3,0.6,3.5,0.6c2.9,0,5.5-1.3,8-3.8c2.3-2.5,5.2-4.3,8.5-5.1c0.7-0.2,1.5-0.2,2.2-0.2c3.3,0,6.6,1.4,10,3
				c3.9,1.7,7.9,3.5,12.4,3.5c1.7,0,3.4-0.3,5.1-0.8c2.9-1,5.6-2.4,8.1-4.1c3.2-1.9,6.2-3.8,9.1-3.8c1,0,2.1,0.2,3,0.7
				c0.7,0.3,1.4,0.6,2,1c2.4,1.2,5.1,2.5,8.4,2.5c1.4,0,2.9-0.2,4.2-0.7c3.1-1.1,4.7-3.4,6-5.2c0.6-1,1.3-1.8,2.2-2.5
				c1.3-0.7,2.8-1,4.3-1c1.3,0,2.7,0.2,3.9,0.7c0.7,0.3,1.3,0.6,2,0.9c2,1.2,4.3,1.9,6.7,2c0.5,0,1,0,1.5-0.1c2.6-0.4,5-1.2,7.3-2.5
				c0.8-0.5,1.6-0.8,2.5-1c0.8,0.2,1.5,0.7,2.1,1.3c0.2,0.2,0.4,0.3,0.5,0.5c1.3,1.2,3.1,2.9,6,2.9c1.4-0.1,2.8-0.4,4-1.1
				c3.1-1.7,4.9-5.5,5.6-8.2c0.2-1,2.3-9.9-0.9-14c-0.3-0.4-0.6-0.7-1-1c-1.5-1.1-3.3-1.6-5.1-1.5h-0.7l-6.7-0.3
				c-1.1,0-2.1-0.1-3.2-0.1l-18.6-0.8l-14.4-0.6l-21.8-1l-60.9-2.7l-27.2-1.2c-0.4,0-1.3-0.2-2.2-0.3
				C183.9,238.9,181.7,238.6,179.5,238.6z"/>
			<path class="st34" d="M124,276.7c-0.1,0.2-0.2,0.4-0.2,0.6c-1,3.8-2.3,12.8,4.3,10c3.3-1.4,3.1-5.5,7.8-6.5s5.9,1.5,9.8,3.2
				c4.6,2.1,9.4,2.6,14,0.6c3.6-1.6,7.3-5,11.5-4.7c3.4,0.2,4.4,3.3,7.4,4.3c10.2,3.7,15-15.6,25.6-9.7c2.6,1.5,3.6,4.4,6.8,5.4
				c3,1,5.3-0.1,7.4-2.3c2.8-3,6.5-5.2,10.5-6.2c10.8-2.3,19.2,8.8,29.3,5.5c7.6-2.5,14.2-10.9,22.9-7c3.8,1.7,7.1,4.3,11.7,2.7
				c3.6-1.3,4.3-5.7,7.7-7.5c3.6-1.7,7.7-1.9,11.4-0.4c2.9,1.2,4.8,3,8.2,2.6c6.9-0.9,8.9-6.7,15-1.3c1.9,1.7,3.2,3.3,6,1.7
				c1.9-1,3.2-3.8,3.7-5.7c0.5-2.1,1.2-7.1,0.3-9.7L124,276.7z"/>
			<path class="st31" d="M178.6,262c-8.5,0-16.2-1.9-17.1-2.6c-2.1-1.9-3.4-4.6-3.6-7.4c-0.1-2.7,1-5.3,3-7c-2.1-2-2.9-4.9-2.2-7.7
				c0.6-2,2.1-3.7,4-4.6c0.3-0.2,0.5-0.3,0.8-0.5v-0.4c-0.2-3.7,1.8-5.3,3.4-6.5c0.4-0.3,0.8-0.6,1.2-1c2.8-2.6,2.3-11.6,1.2-16.7
				c-0.1-0.7,0.1-1.4,0.7-1.9c0.4-0.3,0.8-0.5,1.3-0.5c0.2,0,0.5,0,0.7,0.1c0.9,0.3,8.4,3.3,11.2,7c1.2,1.8,2.2,3.7,3,5.7h0.7
				c3.2,0,5.6,0.7,7.2,2c1.6,1.5,2.6,3.5,2.9,5.7h2c1.4,0,1.6,0,1.7,0.1c3.5,0.6,5,2.4,5.7,3.8c1.5,3,0.4,6.8-0.5,9
				c2.2,1.4,3.8,3.6,4.5,6.1c0.6,3-0.5,6-3.2,9.2c-0.2,0.7-1.1,1.8-7.2,4.1c-4.9,1.8-9.9,3-15.1,3.6
				C182.8,261.8,180.7,262,178.6,262z"/>
			<path class="st3" d="M171.3,207.3c0,0,7.8,3,10.3,6.4c1.3,2.1,2.4,4.3,3.3,6.6c0.7-0.1,1.3-0.1,2-0.1c1.8,0,4.4,0.3,5.9,1.5
				c1.9,1.6,2.1,4,2.7,6.4c0-0.2,2.1-0.2,3.6-0.2h1.4c8.6,1.4,2.9,11.6,2.9,11.6s10.3,4.5,2.1,13.5c-0.1,0.1-0.1,0.2-0.1,0.3
				c0.4,0.2-8.7,5.1-20.6,6.4c-2.1,0.2-4.2,0.3-6.1,0.3c-5.3,0-10.6-0.7-15.8-2.1c-1.7-1.6-2.7-3.7-2.9-6c-0.2-2.9,1.5-5.6,4.3-6.6
				c-2.2-1.7-4.5-4.1-3.6-7.4c0.7-2.4,2.3-2.9,4.1-4c1.3-0.8,0.8-0.3,0.7-2.1c-0.2-3.4,1.9-4.1,4-5.9
				C174.2,221.5,171.3,207.3,171.3,207.3 M171.3,203.4c-0.9,0-1.8,0.3-2.5,0.9c-1.1,0.9-1.6,2.4-1.3,3.8l0,0
				c1.4,7.1,0.8,13.5-0.6,14.8c-0.3,0.3-0.7,0.6-1.1,0.9c-1.7,1.3-4.1,3.2-4.2,7.4c-2.3,1.2-4,3.2-4.7,5.6c-0.8,2.7-0.3,5.7,1.4,8
				c-1.7,2-2.5,4.6-2.3,7.2c0.2,3.3,1.7,6.5,4.2,8.7l0,0c0.5,0.4,1.2,1,6.4,2c4,0.7,8,1.1,12,1.1c2.2,0,4.4-0.1,6.6-0.4
				c5.3-0.6,10.6-1.8,15.6-3.7c2.2-0.8,3.8-1.6,4.8-2c1.3-0.7,2.7-1.4,3.4-2.8c3-3.6,4.2-7.1,3.4-10.6c-0.6-2.5-2-4.7-4.1-6.3
				c1.7-5,0.3-8.4-0.1-9.1c-1.4-2.7-4.1-4.6-7.1-4.9c-0.7-0.1-1.3-0.1-2-0.1h-0.5c-0.5-2-1.6-3.9-3.2-5.2c-1.8-1.6-4.5-2.4-7.9-2.5
				c-0.7-1.7-1.6-3.4-2.7-4.9c-3-4.1-10.6-7.1-12-7.7C172.3,203.4,171.7,203.4,171.3,203.4L171.3,203.4z"/>
			<g class="st30">
				<path class="st35" d="M177.4,213c1.5,2.1,3.3,9.4,3.3,9.4s3.2-0.4,4.2-2.3c-0.9-2.2-1.9-4.4-3.2-6.4c-2.5-3.4-7.9-5.3-10.3-6.4
					c1.1,0.5,1.5,1.6,2,2.5C174.9,210.5,176.3,211.6,177.4,213z"/>
				<path class="st35" d="M203.4,239.5c0,0,5.7-10.2-2.9-11.6c-0.3-0.1-5-0.1-5,0.2c-0.6-2.4-0.7-4.7-2.7-6.4
					c-2-1.7-5.7-1.6-7.2-1.5c1.1,0.2,2.1,0.7,3,1.4c1.9,1.7,1,12.2-1.5,12.5c4.8-0.5,8.9-6,9.2-6c8.6,1.5-1.6,16.5-1.6,16.5
					s15,0.6,6.9,10c-0.1,0.1-0.1,0.2-0.1,0.4c0.4,0.2,4.4-1.6,4-1.8c0-0.1,0.1-0.2,0.1-0.3C213.7,244,203.4,239.5,203.4,239.5z"/>
			</g>
			<path class="st3" d="M162.6,243.8c0.1,0.1,0.3,0.2,0.5,0.3c0.5,0.3,0.9,0.6,1.4,0.8c0.4,0.1,0.7,0.3,1,0.5
				c0.4,0.2,0.8,0.3,1.2,0.5c0.4,0.2,0.8,0.3,1.3,0.5s0.9,0.3,1.4,0.4c0.5,0.1,0.9,0.3,1.4,0.4c0.5,0.1,0.9,0.2,1.4,0.2
				c0.4,0.1,0.9,0.2,1.3,0.2c0.4,0.1,0.8,0.1,1.2,0.1c1.5,0.1,2.4,0.2,2.4,0.2s-1,0.1-2.4,0.2c-0.4,0-0.8,0.1-1.2,0.1h-2.7
				c-0.5,0-1-0.1-1.5-0.2c-0.5-0.1-1-0.1-1.5-0.2c-0.5-0.1-1-0.2-1.4-0.3c-0.4-0.1-0.9-0.2-1.3-0.3l-1.2-0.3
				c-0.7-0.3-1.3-0.5-1.8-0.7c-0.2-0.1-0.4-0.2-0.6-0.3l0,0c-0.5-0.3-0.8-0.9-0.5-1.5s0.9-0.8,1.5-0.5c0,0,0.1,0,0.1,0.1
				C162.5,243.8,162.5,243.8,162.6,243.8z"/>
			<path class="st3" d="M165.6,231.9c0.1,0.1,0.2,0.1,0.3,0.2c0.1,0.1,0.2,0.1,0.3,0.2c0.1,0.1,0.2,0.1,0.4,0.2
				c0.2,0.1,0.3,0.2,0.5,0.3c0.2,0.1,0.5,0.2,0.7,0.2c0.5,0.2,1,0.3,1.5,0.5c0.3,0.1,0.5,0.1,0.8,0.2c0.3,0.1,0.5,0.1,0.8,0.2
				c0.5,0.1,1,0.2,1.4,0.3c0.8,0.2,1.4,0.3,1.4,0.3s-0.5,0-1.4,0.1c-0.5,0-0.9,0-1.4,0.1H170c-0.3,0-0.6,0.1-0.8,0
				c-0.6,0-1.1-0.1-1.7-0.1c-0.3,0-0.5,0-0.8-0.1c-0.3,0-0.5-0.1-0.8-0.2c-0.2-0.1-0.5-0.1-0.7-0.2s-0.4-0.1-0.5-0.2
				c-0.1-0.1-0.2-0.1-0.3-0.2c-0.6-0.2-0.8-0.9-0.6-1.5c0.2-0.6,0.9-0.8,1.5-0.6C165.2,231.8,165.3,231.8,165.6,231.9L165.6,231.9z"
				/>
			<path class="st3" d="M186.5,220.5l-0.2,0.2c-0.2,0.2-0.4,0.3-0.6,0.5c-0.3,0.2-0.6,0.4-0.9,0.5c-0.3,0.2-0.7,0.3-1.1,0.4
				c-0.4,0.1-0.7,0.2-1.1,0.2c-0.3,0.1-0.7,0.1-1,0.1h-0.9c0,0,0.3-0.1,0.8-0.3c0.3-0.1,0.5-0.2,0.8-0.4c0.3-0.1,0.6-0.3,0.8-0.6
				c0.3-0.2,0.5-0.4,0.7-0.6c0.2-0.2,0.3-0.4,0.5-0.6l0.2-0.4c0-0.1,0-0.1,0.1-0.2l0,0c0.2-0.6,0.9-0.8,1.5-0.6
				c0.6,0.2,0.8,0.9,0.6,1.5C186.6,220.3,186.5,220.4,186.5,220.5z"/>
			<path class="st3" d="M197.4,227.2c-0.1,0.2-0.2,0.3-0.3,0.5c-0.2,0.3-0.5,0.7-0.9,1.2c-0.9,1.2-2,2.2-3.2,3.1l-1,0.7
				c-0.3,0.2-0.6,0.4-1,0.5c-0.3,0.2-0.7,0.3-1,0.4l-0.9,0.3c-0.3,0.1-0.6,0.1-0.8,0.2c-0.2,0-0.4,0-0.6,0.1h-0.5
				c0.2-0.1,0.3-0.1,0.5-0.1c0.2,0,0.4-0.1,0.6-0.2c0.2-0.1,0.5-0.2,0.7-0.3c0.2-0.1,0.5-0.3,0.8-0.4c0.3-0.1,0.6-0.3,0.9-0.5
				c0.3-0.2,0.6-0.4,0.9-0.7c0.3-0.2,0.6-0.5,0.8-0.8c0.9-1,1.7-2.1,2.4-3.3c0.2-0.4,0.4-0.8,0.6-1.2c0-0.1,0.1-0.3,0.2-0.4
				c0.2-0.5,0.9-0.8,1.4-0.5c0,0,0,0,0.1,0C197.5,225.9,197.7,226.6,197.4,227.2z"/>
			<path class="st3" d="M206,239.5c-0.1,0.2-0.2,0.3-0.4,0.4c-0.3,0.4-0.6,0.7-1,1c-1.1,0.9-2.2,1.8-3.5,2.4c-0.3,0.2-0.7,0.3-1,0.4
				l-1,0.3c-0.3,0.1-0.7,0.2-1,0.2c-0.3,0.1-0.6,0.1-0.9,0.1h-1.8c0.2,0,0.3,0,0.5-0.1c0.4,0,0.9-0.1,1.3-0.3
				c0.3-0.1,0.6-0.2,0.8-0.3c0.3-0.1,0.6-0.2,0.9-0.4c0.3-0.1,0.6-0.3,0.9-0.5l0.9-0.6c1-0.8,1.9-1.7,2.7-2.7c0.3-0.4,0.5-0.8,0.7-1
				s0.2-0.4,0.2-0.4c0.3-0.5,1-0.7,1.5-0.3c0,0,0,0,0.1,0C206.3,238.2,206.3,238.9,206,239.5z"/>
			<g class="st9">
				<path class="st0" d="M173.2,223.8c-0.9,1.8-2.3,3.3-4,4.4c-1.4,0.7-0.5,3.1,0.9,2.3c2.1-1.2,3.8-3,5-5.1
					C175.9,224,174,222.4,173.2,223.8L173.2,223.8z"/>
				<path class="st0" d="M166.5,235.4c-2.6,0.4-4.4,4.1-2.6,6.2c1,1.2,3-0.2,2-1.5c-0.3-0.4-0.3-0.9,0-1.3c0.2-0.4,0.7-0.9,0.9-0.9
					C168.3,237.7,168,235.2,166.5,235.4z"/>
				<path class="st0" d="M161.5,253.2L161.5,253.2c0.1,0.8,0.7,1.3,1.4,1.3s1.2-0.7,1.2-1.4c0,0,0-0.1,0-0.1v-0.1
					c-0.1-0.7-0.7-1.2-1.4-1.1c0,0,0,0,0,0C161.9,251.9,161.4,252.5,161.5,253.2z"/>
				<path class="st0" d="M175.7,222.8L175.7,222.8c0.8-0.1,1.3-0.7,1.3-1.4s-0.7-1.2-1.4-1.2c0,0-0.1,0-0.1,0h-0.1
					c-0.7,0.1-1.2,0.7-1.1,1.4c0,0,0,0,0,0C174.4,222.3,175,222.8,175.7,222.8z"/>
			</g>
			<g class="st9">
				<path class="st0" d="M131.4,298.4l4.8,43.8c0.5,4.7,7.8,3.9,7.3-0.8l-4.8-43.8C138.2,292.9,130.9,293.7,131.4,298.4z"/>
				<path class="st0" d="M137.3,355.7v0.2c0.2,2,2,3.4,4,3.2c2-0.2,3.4-2,3.2-4l0,0v-0.2c-0.2-2-2-3.4-4-3.2c0,0,0,0,0,0
					c-1.9,0.2-3.4,1.9-3.2,3.8C137.2,355.5,137.3,355.6,137.3,355.7z"/>
			</g>
		</g>
	</g>
	<g id="cakeFace2" class="st11">
		<g id="Capa_1_2_" class="st12">
			<g id="l">
				<path class="st17" d="M222.9,327.1c0.1,1-2.7,2.1-6.1,2.6s-6.3,0.1-6.4-0.9c-0.1-1,2.7-2.1,6.1-2.6
					C220,325.8,222.8,326.2,222.9,327.1z"/>
				<path class="st17" d="M268.1,321c0.1,1-2.7,2.1-6.1,2.6c-3.5,0.5-6.3,0.1-6.4-0.9c-0.1-1,2.7-2.1,6.1-2.6
					C265.1,319.6,268,320,268.1,321z"/>
				<path class="st38" d="M254.4,301.3c0,0,5.5-3.1,10.2,1.5"/>
				<path class="st38" d="M220.7,305.9c0,0-5.9-1.6-9.7,4.2"/>
				<path class="st38" d="M215.5,324.3c0.4-4.1,2-7.2,4.1-7.5c2.1-0.3,4,2.3,5.1,6.2"/>
				<path class="st38" d="M253.4,319.2c0.4-4.1,2-7.2,4.1-7.5c2.1-0.3,4,2.3,5.1,6.2"/>
				<path class="st38" d="M243.7,318.3c0.1,3-2,5.7-4.7,6c-2.6,0.3-4.9-1.8-5.2-4.6"/>
				<path class="st17" d="M245.8,323.8c-0.3,0-0.6,0-0.9-0.1c-1.1-0.4-2.2-0.9-2-1.7c0.1-0.5,0.3-0.9,0.5-1.4l0.2-0.4
					c0.1-0.4,0.4-0.7,0.8-0.7c0.3,0,0.5,0.1,0.7,0.2l0.2,0.1l0.1,0.1c0.6,0.3,1.5,0.6,1.9,1.4c0.2,0.4,0.1,0.9-0.1,1.4
					C247,323.3,246.4,323.8,245.8,323.8z"/>
				<path class="st3" d="M244.3,320.1c0.3,0,0.5,0.1,0.7,0.3c0.8,0.3,2.2,0.8,1.7,2.2c-0.1,0.4-0.5,0.8-0.9,0.8
					c-0.2,0-0.5,0-0.7-0.1c-0.3-0.1-1.8-0.6-1.7-1.1c0.2-0.5,0.4-1.1,0.6-1.6C244,320.2,244.2,320.1,244.3,320.1 M244.2,319
					c-0.5,0.1-1,0.5-1.2,1c0,0.1-0.1,0.2-0.1,0.3c-0.2,0.5-0.4,1-0.5,1.5c-0.2,1.4,1.5,2,2.3,2.3c0.4,0.1,0.8,0.2,1.1,0.1
					c0.8-0.1,1.5-0.7,1.8-1.5c0.3-0.6,0.3-1.2,0.1-1.8c-0.4-1-1.4-1.4-2.1-1.7l-0.1-0.1l-0.2-0.1C244.9,319.1,244.6,319,244.2,319
					L244.2,319z"/>
				<line class="st39" x1="243.8" y1="321.1" x2="245.2" y2="321.8"/>
			</g>
			<g id="l-2">
				<path class="st17" d="M222.9,327.1c0.1,1-2.7,2.1-6.1,2.6s-6.3,0.1-6.4-0.9c-0.1-1,2.7-2.1,6.1-2.6
					C220,325.8,222.8,326.2,222.9,327.1z"/>
				<path class="st17" d="M268.1,321c0.1,1-2.7,2.1-6.1,2.6c-3.5,0.5-6.3,0.1-6.4-0.9c-0.1-1,2.7-2.1,6.1-2.6
					C265.1,319.6,268,320,268.1,321z"/>
				<path class="st38" d="M254.4,301.3c0,0,5.5-3.1,10.2,1.5"/>
				<path class="st38" d="M220.7,305.9c0,0-5.9-1.6-9.7,4.2"/>
				<path class="st38" d="M215.5,324.3c0.4-4.1,2-7.2,4.1-7.5c2.1-0.3,4,2.3,5.1,6.2"/>
				<path class="st38" d="M253.4,319.2c0.4-4.1,2-7.2,4.1-7.5c2.1-0.3,4,2.3,5.1,6.2"/>
				<path class="st38" d="M243.7,318.3c0.1,3-2,5.7-4.7,6c-2.6,0.3-4.9-1.8-5.2-4.6"/>
				<path class="st17" d="M245.8,323.8c-0.3,0-0.6,0-0.9-0.1c-1.1-0.4-2.2-0.9-2-1.7c0.1-0.5,0.3-0.9,0.5-1.4l0.2-0.4
					c0.1-0.4,0.4-0.7,0.8-0.7c0.3,0,0.5,0.1,0.7,0.2l0.2,0.1l0.1,0.1c0.6,0.3,1.5,0.6,1.9,1.4c0.2,0.4,0.1,0.9-0.1,1.4
					C247,323.3,246.4,323.8,245.8,323.8z"/>
				<path class="st3" d="M244.3,320.1c0.3,0,0.5,0.1,0.7,0.3c0.8,0.3,2.2,0.8,1.7,2.2c-0.1,0.4-0.5,0.8-0.9,0.8
					c-0.2,0-0.5,0-0.7-0.1c-0.3-0.1-1.8-0.6-1.7-1.1c0.2-0.5,0.4-1.1,0.6-1.6C244,320.2,244.2,320.1,244.3,320.1 M244.2,319
					c-0.5,0.1-1,0.5-1.2,1c0,0.1-0.1,0.2-0.1,0.3c-0.2,0.5-0.4,1-0.5,1.5c-0.2,1.4,1.5,2,2.3,2.3c0.4,0.1,0.8,0.2,1.1,0.1
					c0.8-0.1,1.5-0.7,1.8-1.5c0.3-0.6,0.3-1.2,0.1-1.8c-0.4-1-1.4-1.4-2.1-1.7l-0.1-0.1l-0.2-0.1C244.9,319.1,244.6,319,244.2,319
					L244.2,319z"/>
				<line class="st39" x1="243.8" y1="321.1" x2="245.2" y2="321.8"/>
			</g>
		</g>
	</g>
	<g id="cakeFace1">
		<g>
			<g>
				<path class="st17" d="M222.9,326.6c0.1,0.9-2.6,1.9-6.1,2.3s-6.4,0-6.5-0.9s2.6-1.9,6.1-2.3
					C219.9,325.3,222.8,325.7,222.9,326.6z"/>
			</g>
			<g>
				<path class="st17" d="M268.3,321.6c0.1,0.9-2.6,1.9-6.1,2.3s-6.4,0-6.5-0.9s2.6-1.9,6.1-2.3
					C265.3,320.3,268.2,320.7,268.3,321.6z"/>
			</g>
		</g>
		<g>
			<g>
				<g>
					<path class="st0" d="M238.9,326.2c-2.8,0-5.2-2.1-5.5-4.9c0-0.1,0-0.1,0-0.2c0.1-0.3,0.8-1.5,5.3-2c0.6-0.1,1.1-0.1,1.7-0.1
						c2.4,0,3.7,0.6,3.7,0.7c0.1,0.1,0.2,0.2,0.3,0.4c0.3,3-1.9,5.8-4.9,6.1C239.3,326.2,239.1,326.2,238.9,326.2z"/>
					<path class="st3" d="M240.4,319.5c2.3,0,3.5,0.6,3.5,0.6c0.3,2.8-1.7,5.3-4.5,5.6c-0.2,0-0.4,0-0.6,0c-2.5,0-4.7-1.9-5-4.5
						c0,0,0.3-1.1,4.9-1.6C239.3,319.6,239.9,319.5,240.4,319.5 M240.4,318.6c-0.6,0-1.1,0-1.7,0.1c-4.5,0.5-5.5,1.7-5.7,2.3
						c0,0.1,0,0.3,0,0.4c0.3,3,2.9,5.3,6,5.3c0.2,0,0.4,0,0.7,0c3.3-0.4,5.7-3.3,5.3-6.6c0-0.3-0.2-0.6-0.5-0.8
						C244.2,319.2,242.9,318.6,240.4,318.6L240.4,318.6z"/>
				</g>
			</g>
			<g>
				<g>
					<path class="st0" d="M234.3,323.2c0,0,1.3,0.2,2.5-0.3"/>
					<path class="st3" d="M234.3,322.7c0,0,0.2,0.1,0.4,0.1c0.2,0.1,0.5,0.1,0.8,0.1c0.3,0.1,0.6,0,0.9,0c0.2,0,0.4,0,0.4,0
						s-0.1,0.1-0.4,0.2c-0.2,0.1-0.5,0.3-0.9,0.3c-0.3,0.1-0.7,0.2-0.9,0.2c-0.3,0-0.4,0-0.4,0l0,0c-0.3,0-0.5-0.2-0.5-0.5
						S233.9,322.6,234.3,322.7C234.2,322.7,234.3,322.7,234.3,322.7z"/>
				</g>
			</g>
			<g>
				<g>
					<path class="st0" d="M243.9,322.1c0,0-1.3,0.5-2.5,0.3"/>
					<path class="st3" d="M244.1,322.6c0,0-0.1,0-0.4,0c-0.3,0-0.6,0-1,0c-0.3,0-0.7-0.1-0.9-0.1c-0.2-0.1-0.4-0.1-0.4-0.1
						s0.2,0,0.4-0.1c0.2,0,0.5-0.1,0.8-0.2s0.6-0.2,0.8-0.3c0.2-0.1,0.3-0.2,0.3-0.2c0.2-0.1,0.5-0.1,0.7,0.2s0.1,0.5-0.2,0.7
						C244.2,322.5,244.2,322.6,244.1,322.6L244.1,322.6z"/>
				</g>
			</g>
			<g>
				<g>
					<line class="st36" x1="238.5" y1="322.8" x2="239.7" y2="322.8"/>
					<path class="st3" d="M238.5,322.8c0,0,0.1-0.1,0.2-0.1c0.1,0,0.3-0.1,0.4-0.1c0.2,0,0.3,0,0.4,0.1c0.1,0,0.2,0.1,0.2,0.1
						s-0.1,0.1-0.2,0.1c-0.1,0-0.3,0.1-0.4,0.1c-0.2,0-0.3,0-0.4-0.1C238.6,322.9,238.5,322.8,238.5,322.8z"/>
				</g>
			</g>
		</g>
		<g>
			<path class="st37" d="M254.1,303.4c0,0,5.5-2.8,10.3,1.5"/>
			<path class="st37" d="M220.2,307.1c0,0-6-1.5-9.7,3.7"/>
		</g>
		<g>
			<path class="st37" d="M215.4,323.9c0.4-3.8,1.8-6.5,3.9-6.8c2.1-0.2,4.1,2.1,5.3,5.7"/>
			<path class="st37" d="M253.5,319.7c0.4-3.8,1.8-6.5,3.9-6.8c2.1-0.2,4.1,2.1,5.3,5.7"/>
		</g>
	</g>
</g>
</svg>
